<svg width="1330" height="1734" viewBox="0 0 1330 1734" fill="none" xmlns="http://www.w3.org/2000/svg">
<path d="M1271.6 57.8V0H1213.8V57.8H1156V0H1098.2V57.8H1040.4V0H982.6V57.8H924.8V0H867V57.8H809.2V0H751.4V57.8H693.6V0H635.8V57.8H578V0H520.2V57.8H462.4V0H404.6V57.8H346.8V0H289V57.8H231.2V0H173.4V57.8H115.6V0H57.8V57.8H0V1734H57.8V1676.2H115.6V1734H173.4V1676.2H231.2V1734H289V1676.2H346.8V1734H404.6V1676.2H462.4V1734H520.2V1676.2H578V1734H635.8V1676.2H693.6V1734H751.4V1676.2H809.2V1734H867V1676.2H924.8V1734H982.6V1676.2H1040.4V1734H1098.2V1676.2H1156V1734H1213.8V1676.2H1271.6V1734H1329.4V57.8H1271.6Z" fill="#8064FF"/>
<path d="M144.5 1329.4V1531.7H173.4V1560.6H1156V1531.7H1184.9V1329.4H144.5ZM1156 202.3V173.4H173.4V202.3H144.5V404.6H1184.9V202.3H1156ZM144.5 433.5V1300.5H1184.9V433.5H144.5Z" fill="white"/>
<path d="M1156 173.4H1184.9V202.3H1156V173.4ZM1156 1531.7H1184.9V1560.6H1156V1531.7Z" fill="#5D24BF"/>
<path d="M1184.9 202.3V404.6H144.5V202.3H115.6V1531.7H144.5V1329.4H1184.9V1531.7H1213.8V202.3H1184.9ZM1184.9 1300.5H144.5V433.5H1184.9V1300.5ZM1156 173.4V144.5H173.4V173.4H1156Z" fill="#5D24BF"/>
<path d="M144.5 173.4H173.4V202.3H144.5V173.4ZM144.5 1531.7H173.4V1560.6H144.5V1531.7Z" fill="#5D24BF"/>
<path d="M173.4 1560.6V1589.5H1156V1560.6H173.4ZM246.6 296.1H256.9V347.7H246.6V296.1ZM267.2 347.7V358.1H277.5V368.4H267.2V358.1H256.8V347.7H267.2ZM277.5 358.1V347.7H287.9V358.1H277.5ZM287.9 296.1H298.2V347.7H287.9V296.1ZM356.7 306.4H367V368.4H356.7V337.5H325.6V368.4H315.3V306.4H325.6V327.1H356.7V306.4ZM356.7 296.1V306.4H325.6V296.1H356.7ZM435.7 358.1V368.4H384.1V296.2H394.4V358.2L435.7 358.1ZM473.6 306.4V358.1H483.9V368.4H453V358.1H463.3V306.4H453V296.1H483.9V306.4H473.6ZM511.3 306.4V358.1H542.4V368.4H501.1V296.2H542.4V306.5L511.3 306.4ZM542.4 306.4H552.7V358.1H542.4V306.4ZM628.3 306.4V327.1H669.6V337.5H628.3V368.4H618V296.2H669.6V306.5L628.3 306.4ZM686.9 306.4H697.2V358.1H686.9V306.4ZM728.2 296.1V306.4H697.1V296.1H728.2ZM697.1 368.4V358.1H728.2V368.4H697.1ZM728.2 306.4H738.5V358.1H728.2V306.4ZM765.9 327H797V337.4H807.3V368.3H797V337.4H765.9V368.3H755.6V296.1H796.9V306.4H765.8L765.9 327ZM807.2 327H796.9V306.3H807.2V327ZM872.7 306.4H883V358.1H872.7V306.4ZM914 296.1V306.4H882.9V296.1H914ZM882.9 368.4V358.1H914V368.4H882.9ZM914 306.4H924.3V358.1H914V306.4ZM951.7 316.8H962.1V327.1H951.7V368.4H941.4V296.2H951.7V316.8ZM962.1 327H972.4V337.4H962.1V327ZM982.8 296.1H993.1V368.3H982.8V347.6H972.4V337.3H982.8V296.1ZM1020.5 306.4V327.1H1061.8V337.5H1020.5V358.2H1061.8V368.5H1010.2V296.3H1061.8V306.6H1020.5V306.4Z" fill="#5D24BF"/>
<path d="M629 145.2H643.7V159.9H629V145.2Z" fill="white"/>
<path d="M643.7 130.5H658.4V145.2H643.7V130.5Z" fill="white"/>
<path d="M673.1 115.8H687.8V130.5H673.1V115.8Z" fill="#B135FF"/>
<path d="M687.8 130.5V145.2H673.1V159.9H643.7V174.6H614.3V189.4H673.1V174.6H687.8V159.9H702.5V130.5H687.8ZM599.5 159.9H614.2V174.6H599.5V159.9Z" fill="#B135FF"/>
<path d="M599.5 145.2H614.2V159.9H599.5V145.2ZM614.3 159.9H629V174.6H614.3V159.9ZM658.4 115.8H673.1V130.5H658.4V115.8Z" fill="#CB5BFF"/>
<path d="M673.1 130.5H687.8V145.2H673.1V130.5ZM702.5 130.5H717.2V145.2H702.5V130.5Z" fill="#CB5BFF"/>
<path d="M717.2 145.2H731.9V159.9H717.2V145.2ZM643.7 145.2V159.9H673.1V145.2H643.7ZM629 189.4H614.3V204.1H643.7V189.4H629Z" fill="#CB5BFF"/>
<path d="M643.7 204.1V218.8H673.1V204.1H643.7Z" fill="#CB5BFF"/>
<path d="M614.3 130.5V159.9H629V145.2H643.7V130.5H614.3Z" fill="#F37AFF"/>
<path d="M643.7 115.8H658.4V130.5H643.7V115.8ZM717.2 159.9H731.9V174.6H717.2V159.9ZM673.1 204.1H687.8V218.8H673.1V204.1Z" fill="#F37AFF"/>
<path d="M687.8 189.4H702.5V204.1H687.8V189.4Z" fill="#F37AFF"/>
<path d="M658.4 130.5H673.1V145.2H658.4V130.5ZM629 159.9H643.7V174.6H629V159.9ZM702.5 189.4H717.2V204.1H702.5V189.4ZM717.2 174.6H731.9V189.3H717.2V174.6Z" fill="#FFC9FF"/>
<path d="M658.4 218.8V233.5H687.8V218.8H658.4Z" fill="#3A2B77"/>
<path d="M687.8 204.1V218.8H717.2V204.1H687.8Z" fill="#3A2B77"/>
<path d="M717.2 189.4H731.9V204.1H717.2V189.4Z" fill="#3A2B77"/>
<path d="M731.9 159.9V189.4H746.6V159.9H731.9Z" fill="#3A2B77"/>
<path d="M599.5 189.4H614.2V204.1H599.5V189.4ZM629 204.1H614.3V218.8H643.7V204.1H629Z" fill="#47289B"/>
<path d="M643.7 218.8H658.4V233.5H643.7V218.8ZM731.9 145.2H746.6V159.9H731.9V145.2Z" fill="#47289B"/>
<path d="M717.2 130.5H731.9V145.2H717.2V130.5ZM658.4 189.4V204.1H687.8V189.4H658.4ZM702.5 174.6V189.4H717.2V159.9H702.5V174.6Z" fill="#47289B"/>
<path d="M599.5 174.6H614.2V189.3H599.5V174.6ZM702.5 145.2H717.2V159.9H702.5V145.2Z" fill="#6F16E2"/>
<path d="M687.8 174.6H673.1V189.4H702.5V159.9H687.8V174.6Z" fill="#6F16E2"/>
<path d="M673.1 101.1H643.7V115.8H687.8V101.1H673.1ZM584.8 159.9V189.4H599.5V145.2H584.8V159.9Z" fill="#5D24BF"/>
<path d="M702.5 115.8H687.8V130.5H717.2V115.8H702.5ZM643.7 189.4H658.4V204.1H643.7V189.4ZM614.3 115.8V130.5H643.7V115.8H614.3ZM599.5 130.5H614.2V145.2H599.5V130.5Z" fill="#5D24BF"/>
<path d="M789.6 792V767H764.6V742H739.6V717H589.6V742H564.6V767H539.6V792H514.6V942H539.6V967H564.6V992H589.6V1017H739.6V992H764.6V967H789.6V942H814.6V792H789.6Z" fill="#B4B4B4"/>
<path d="M664.6 879.5V979.5H689.6V954.5H714.6V929.5H739.6V904.5H764.6V879.5H664.6Z" fill="black"/>
<path d="M789.6 767H814.6V792H789.6V767Z" fill="#646464"/>
<path d="M814.6 792H839.6V942H814.6V792Z" fill="#646464"/>
<path d="M789.6 942H814.6V967H789.6V942Z" fill="#646464"/>
<path d="M764.6 967H789.6V992H764.6V967Z" fill="#646464"/>
<path d="M739.6 992H764.6V1017H739.6V992Z" fill="#646464"/>
<path d="M589.6 1017H739.6V1042H589.6V1017Z" fill="#646464"/>
<path d="M564.6 992H589.6V1017H564.6V992Z" fill="#646464"/>
<path d="M539.6 967H564.6V992H539.6V967Z" fill="#646464"/>
<path d="M514.6 942H539.6V967H514.6V942Z" fill="#646464"/>
<path d="M489.6 792H514.6V942H489.6V792ZM764.6 742H789.6V767H764.6V742Z" fill="#646464"/>
<path d="M739.6 717H764.6V742H739.6V717Z" fill="#646464"/>
<path d="M589.6 692H739.6V717H589.6V692Z" fill="#646464"/>
<path d="M564.6 717H589.6V742H564.6V717Z" fill="#646464"/>
<path d="M539.6 742H564.6V767H539.6V742Z" fill="#646464"/>
<path d="M514.6 767H539.6V792H514.6V767ZM639.6 779.5H614.6V804.5H589.6V829.5H564.6V879.5H664.6V754.5H639.6V779.5Z" fill="#646464"/>
<path d="M564.6 879.5V904.5H589.6V929.5H614.6V954.5H639.6V979.5H664.6V879.5H564.6Z" fill="#323232"/>
<path d="M739.6 829.5V804.5H714.6V779.5H689.6V754.5H664.6V879.5H764.6V829.5H739.6Z" fill="#323232"/>
<path d="M357.391 1408H398.575V1418.22H357.391V1408ZM408.799 1418.22V1438.82H398.575V1418.22H408.799ZM357.391 1438.82H398.575V1449.18H357.391V1438.82ZM408.799 1469.78H398.575V1449.18H408.799V1469.78ZM357.391 1480V1469.78H398.575V1480H357.391ZM418.984 1408H460.168V1418.22H418.984V1408ZM470.392 1418.22V1438.82H460.168V1418.22H470.392ZM460.168 1438.82V1449.18H429.208V1438.82H460.168ZM418.984 1449.18H429.208V1469.78H470.392V1480H418.984V1449.18ZM573.189 1418.22H532.005V1438.82H573.189V1449.18H532.005V1469.78H573.189V1480H521.781V1408H573.189V1418.22ZM634.783 1408V1418.22H614.191V1480H603.967V1418.22H583.375V1408H634.783ZM686.153 1408H696.377V1480H686.153V1449.18H655.193V1480H644.969V1408H655.193V1438.82H686.153V1408ZM799.174 1480H757.99V1469.78H799.174V1480ZM747.766 1418.22H757.99V1469.78H747.766V1418.22ZM799.174 1408V1418.22H757.99V1408H799.174ZM819.583 1480V1469.78H850.543V1480H819.583ZM809.359 1418.22H819.583V1469.78H809.359V1418.22ZM850.543 1408V1418.22H819.583V1408H850.543ZM850.543 1418.22H860.767V1469.78H850.543V1418.22ZM901.769 1418.22H891.545V1469.78H901.769V1480H870.953V1469.78H881.177V1418.22H870.953V1408H901.769V1418.22ZM922.24 1428.59H932.608V1438.82H922.24V1480H912.016V1408H922.24V1428.59ZM932.608 1438.82H942.832V1449.18H932.608V1438.82ZM953.2 1408H963.424V1480H953.2V1459.41H942.832V1449.18H953.2V1408Z" fill="#5D24BF"/>
</svg>
