<svg xmlns="http://www.w3.org/2000/svg" xmlns:xlink="http://www.w3.org/1999/xlink" viewBox="0 0 1329.4 1734" xmlns:v="https://vecta.io/nano"><path d="M1300.5 57.8h-28.9V0h-57.8v57.8H1156V0h-57.8v57.8h-57.8V0h-57.8v57.8h-57.8V0H867v57.8h-57.8V0h-57.8v57.8h-57.8V0h-57.8v57.8H578V0h-57.8v57.8h-57.8V0h-57.8v57.8h-57.8V0H289v57.8h-57.8V0h-57.8v57.8h-57.8V0H57.8v57.8H0V1734h57.8v-57.8h57.8v57.8h57.8v-57.8h57.8v57.8H289v-57.8h57.8v57.8h57.8v-57.8h57.8v57.8h57.8v-57.8H578v57.8h57.8v-57.8h57.8v57.8h57.8v-57.8h57.8v57.8H867v-57.8h57.8v57.8h57.8v-57.8h57.8v57.8h57.8v-57.8h57.8v57.8h57.8v-57.8h57.8v57.8h57.8V57.8z" fill="#8064ff"/><path d="M1127.1 1329.4H144.5v202.3h28.9v28.9H1156v-28.9h28.9v-202.3H1156zM1156 202.3v-28.9H173.4v28.9h-28.9v202.3h1040.4V202.3zm-28.9 231.2H144.5v867h1040.4v-867H1156z" fill="#fff"/><g fill="#5d24bf"><path d="M1156 173.4h28.9v28.9H1156zm0 1358.3h28.9v28.9H1156z"/><path d="M1184.9 202.3v202.3H144.5V202.3h-28.9v1329.4h28.9v-202.3h1040.4v202.3h28.9V202.3h-28.9zm0 260.1v838.1H144.5v-867h1040.4v28.9zm-953.7-289H1156v-28.9H173.4v28.9h28.9z"/><path d="M144.5 173.4h28.9v28.9h-28.9zm0 1358.3h28.9v28.9h-28.9z"/><path d="M1098.2 1560.6H173.4v28.9H1156v-28.9h-28.9z"/></g><path d="M246.6 296.1h10.3v51.6h-10.3v-51.6zm20.6 51.6v10.4h10.3v10.3h-10.3v-10.3h-10.4v-10.4h10.4zm10.3 10.4v-10.4h10.4v10.4h-10.4zm10.4-62h10.3v51.6h-10.3v-51.6zm68.8 10.3H367v62h-10.3v-30.9h-31.1v30.9h-10.3v-62h10.3v20.7h31.1v-20.7zm0-10.3v10.3h-31.1v-10.3h31.1zm79 62v10.3h-51.6v-72.2h10.3v62l41.3-.1zm37.9-51.7v51.7h10.3v10.3H453v-10.3h10.3v-51.7H453v-10.3h30.9v10.3h-10.3zm37.7 0v51.7h31.1v10.3h-41.3v-72.2h41.3v10.3l-31.1-.1zm31.1 0h10.3v51.7h-10.3v-51.7zm85.9 0v20.7h41.3v10.4h-41.3v30.9H618v-72.2h51.6v10.3l-41.3-.1zm58.6 0h10.3v51.7h-10.3v-51.7zm41.3-10.3v10.3h-31.1v-10.3h31.1zm-31.1 72.3v-10.3h31.1v10.3h-31.1zm31.1-62h10.3v51.7h-10.3v-51.7zm37.7 20.6H797v10.4h10.3v30.9H797v-30.9h-31.1v30.9h-10.3v-72.2h41.3v10.3h-31.1l.1 20.6zm41.3 0h-10.3v-20.7h10.3V327zm65.5-20.6H883v51.7h-10.3v-51.7zm41.3-10.3v10.3h-31.1v-10.3H914zm-31.1 72.3v-10.3H914v10.3h-31.1zm31.1-62h10.3v51.7H914v-51.7zm37.7 10.4h10.4v10.3h-10.4v41.3h-10.3v-72.2h10.3v20.6zm10.4 10.2h10.3v10.4h-10.3V327zm20.7-30.9h10.3v72.2h-10.3v-20.7h-10.4v-10.3h10.4v-41.2zm37.7 10.3v20.7h41.3v10.4h-41.3v20.7h41.3v10.3h-51.6v-72.2h51.6v10.3h-41.3v-.2z" enable-background="new" fill="#5d24bf"/><path d="M317.3 1411.9h10.3v62h-10.3V1443h-31.1v30.9h-10.3v-62h10.3v20.7h31.1v-20.7zm0-10.3v10.3h-31.1v-10.3h31.1zm68.8 10.3h10.3v62h-10.3V1443H355v30.9h-10.3v-62H355v20.7h31.1v-20.7zm0-10.3v10.3H355v-10.3h31.1zm27.4 0h10.3v51.6h-10.3v-51.6zm20.7 51.6v10.4h10.3v10.3h-10.3v-10.3h-10.4v-10.4h10.4zm10.3 10.4v-10.4h10.4v10.4h-10.4zm10.4-62h10.3v51.6h-10.3v-51.6zm37.7 10.3v20.7h41.3v10.4h-41.3v20.7h41.3v10.3h-51.6v-72.4h51.6v10.3h-41.3zm158.4 0h-20.7v62H620v-62h-20.7v-10.3h51.6l.1 10.3zm58.5 41.3h-41.3v-10.3h41.3v10.3zm17.2-41.3H737v20.7h-10.3v-20.7zm0 61.9v-10.2H768v10.3l-41.3-.1zm51.6-72.2v10.3H737v-10.3h41.3zm-10.3 41.3h-31.1v-10.4H768v10.4zm10.3 20.7H768v-20.7h10.3v20.7zm68.7-62v72.2h-10.3v-30.9h-31.1v30.9h-10.3v-72.2h10.3v30.9h31.1v-30.9H847zm37.9 10.3v51.7h10.3v10.3h-31v-10.3h10.3v-51.7h-10.3v-10.3h30.9v10.3h-10.2zm37.7 20.6h31.1v10.4H964v30.9h-10.3v-30.9h-31.1v30.9h-10.3v-72.2h41.3v10.3h-31.1l.1 20.6zm41.3 0h-10.3v-20.7h10.3v20.7zm68.8-20.6H1012v62h-10.3v-62H981v-10.3h51.6l.1 10.3z" enable-background="new" fill="#5d24bf"/><path d="M730.6 1049h-43.9v-22h-43.9v22h-43.9v43.9h131.8v-22l-.1-21.9z" fill="#e6cce1"/><g fill="#a73796"><path d="M972.2 697.6v22h-22v22h-22v22h-22v22h-22v22h-22v22h-43.9v22h-43.9v22h-65.9v43.9h22v22h22v131.8h263.6V697.6h-43.9zM598.8 917.3h22v-43.9h-65.9v-22H511v-22h-43.9v-22h-22v-22h-22v-22h-22v-22h-22v-22h-22v-22h-43.9v373.4h263.6V939h22v-21.7zM1060 741.5v-22h-22v131.8h22v22h22V741.5h-22zm-417.3 263.6v22h43.9v-22h-43.9zM269.3 741.5h-22v131.8h22v-22h22V719.6h-22v21.9zM642.7 1049v22h43.9v-22h-43.9zm-43.9 0h22v22h-22v-22zm109.8 0h22v22h-22v-22z"/><path d="M620.8 939.2h22v22h-22v-22zm65.8 0h22v22h-22v-22zm0 43.9h22v22h-22v-22zm-65.8 0h22v22h-22v-22z"/></g><path d="M730.6 939.2v-22h-22v-22h-87.9v22h-22v22h-22V1071h22v-22h22v22h22v-22h43.9v22h22v-22h22v22h22V939.2h-22zm-22 22h-22v-22h22v22zm-65.9-22v22h-22v-22h22zm22 87.9h-22v-22h-22v-22h22v22h43.9v-22h22v22h-22v22h-21.9z" fill="#fff"/><g fill="#7d0064"><path d="M357.2 697.6h22v22h-22v-22zm43.9 43.9h22v22h-22v-22z"/><path d="M379.2 719.6h22v22h-22v-22zm65.8 65.9h22v22h-22v-22z"/><path d="M423.1 763.5h22v22h-22v-22zm109.8 87.9h22v-22H511v22h21.9z"/><path d="M489 829.4h22v-22h-43.9v22H489zm461.2-131.8h22v22h-22v-22zm-43.9 43.9h22v22h-22v-22z"/><path d="M928.3 719.6h22v22h-22v-22zm-65.9 65.9h22v22h-22v-22z"/><path d="M884.3 763.5h22v22h-22v-22zm-65.9 87.9v-22h-43.9v22h43.9zm44-22v-22h-43.9v22h43.9zm-219.7 65.9h65.9v-22h-87.9v22h22z"/><path d="M576.8 873.3h43.9v-22h-65.9v22h22zm175.7 0h22v-22h-65.9v22h43.9zM1082 741.5v131.8h-22v22h43.9V741.6l-21.9-.1z"/><path d="M1060 719.6h22v22h-22v-22zM247.4 851.4V741.6h-22v153.7h43.9v-22h-22l.1-21.9z"/><path d="M247.4 719.6h22v22h-22v-22z"/><path d="M1038.1 851.4V719.6h22v-22h-22v-22h-65.9v22h43.9V1071H313.3V697.6h43.9v-22h-65.9v22h-22v22h22v131.8h-22v22h22V1093h746.8V873.4h22v-22h-22z"/></g><g fill="#fff"><path d="M629 145.2h14.7v14.7H629z"/><use xlink:href="#B"/></g><g fill="#b135ff"><use xlink:href="#B" x="29.4" y="-14.7"/><path d="M687.8 130.5v14.7h-14.7v14.7h-29.4v14.7h-29.4v14.8h58.8v-14.8h14.7v-14.7h14.7v-29.4z"/><use xlink:href="#B" x="-44.2" y="29.4"/></g><g fill="#cb5bff"><use xlink:href="#B" x="-44.2" y="14.7"/><path d="M614.3 159.9H629v14.7h-14.7z"/><use xlink:href="#B" x="14.7" y="-14.7"/><use xlink:href="#B" x="29.4"/><use xlink:href="#B" x="58.8"/><use xlink:href="#B" x="73.5" y="14.7"/><path d="M643.7 145.2v14.7h29.4v-14.7h-14.7zM629 189.4h-14.7v14.7h29.4v-14.7z"/><path d="M643.7 204.1v14.7h29.4v-14.7h-14.7z"/></g><g fill="#f37aff"><path d="M614.3 130.5v29.4H629v-14.7h14.7v-14.7H629z"/><use xlink:href="#B" y="-14.7"/><use xlink:href="#B" x="73.5" y="29.4"/><use xlink:href="#B" x="29.4" y="73.6"/><use xlink:href="#B" x="44.1" y="58.9"/></g><g fill="#ffc9ff"><use xlink:href="#B" x="14.7"/><path d="M629 159.9h14.7v14.7H629z"/><use xlink:href="#B" x="58.8" y="58.9"/><use xlink:href="#B" x="73.5" y="44.1"/></g><g fill="#3a2b77"><path d="M658.4 218.8v14.7h29.4v-14.7h-14.7z"/><path d="M687.8 204.1v14.7h29.4v-14.7h-14.7z"/><use xlink:href="#B" x="73.5" y="58.9"/><path d="M731.9 159.9v29.5h14.7v-29.5z"/></g><g fill="#47289b"><use xlink:href="#B" x="-44.2" y="58.9"/><path d="M629 204.1h-14.7v14.7h29.4v-14.7z"/><use xlink:href="#B" y="88.3"/><use xlink:href="#B" x="88.2" y="14.7"/><use xlink:href="#B" x="73.5"/><path d="M658.4 189.4v14.7h29.4v-14.7h-14.7zm44.1-14.8v14.8h14.7v-29.5h-14.7z"/></g><g fill="#6f16e2"><use xlink:href="#B" x="-44.2" y="44.1"/><use xlink:href="#B" x="58.8" y="14.7"/><path d="M687.8 174.6h-14.7v14.8h29.4v-29.5h-14.7z"/></g><g fill="#5d24bf"><path d="M673.1 101.1h-29.4v14.7h44.1v-14.7zm-88.3 58.8v29.5h14.7v-44.2h-14.7z"/><path d="M702.5 115.8h-14.7v14.7h29.4v-14.7z"/><use xlink:href="#B" y="58.9"/><path d="M614.3 115.8v14.7h29.4v-14.7H629z"/><use xlink:href="#B" x="-44.2"/></g><defs ><path id="B" d="M643.7 130.5h14.7v14.7h-14.7z"/></defs></svg>