<svg xmlns="http://www.w3.org/2000/svg" xmlns:xlink="http://www.w3.org/1999/xlink" viewBox="0 0 1329.3 1734" xmlns:v="https://vecta.io/nano"><path d="M1300.4 57.8h-28.9V0h-57.8v57.8h-57.8V0h-57.8v57.8h-57.8V0h-57.8v57.8h-57.8V0h-57.8v57.8h-57.8V0h-57.8v57.8h-57.8V0h-57.8v57.8h-57.8V0h-57.8v57.8h-57.8V0h-57.8v57.8h-57.7V0H289v57.8h-57.8V0h-57.8v57.8h-57.8V0H57.8v57.8H0V1734h57.8v-57.8h57.8v57.8h57.8v-57.8h57.8v57.8H289v-57.8h57.8v57.8h57.7v-57.8h57.8v57.8h57.8v-57.8h57.8v57.8h57.8v-57.8h57.8v57.8h57.8v-57.8h57.8v57.8h57.8v-57.8h57.8v57.8h57.8v-57.8h57.8v57.8h57.8v-57.8h57.8v57.8h57.8v-57.8h57.8v57.8h57.8V57.8z" fill="#59bcff"/><g fill="#0064ff"><path d="M1155.9 173.4h28.9v28.9h-28.9zm0 1358.3h28.9v28.9h-28.9z"/><path d="M1184.8 202.3v202.3H144.5V202.3h-28.9v1329.4h28.9v-202.3h1040.4v202.3h28.9V202.3h-29zm0 260.1v838.1H144.5v-867h1040.4l-.1 28.9zm-953.6-289h924.7v-28.9H173.4v28.9h28.9z"/><path d="M144.5 173.4h28.9v28.9h-28.9zm0 1358.3h28.9v28.9h-28.9z"/><path d="M1098.1 1560.6H173.4v28.9h982.5v-28.9H1127z"/></g><path d="M1127 1329.4H144.5v202.3h28.9v28.9h982.5v-28.9h28.9v-202.3h-28.9zm28.9-1127.1v-28.9H173.4v28.9h-28.9v202.3h1040.3V202.3zM1127 433.5H144.5v867h1040.3v-867h-28.9z" fill="#fff"/><path d="M246.5 296.2h10.3v51.6h-10.3v-51.6zm20.7 51.6v10.4h10.3v10.3h-10.3v-10.3h-10.4v-10.4h10.4zm10.3 10.4v-10.4h10.4v10.4h-10.4zm10.4-62h10.3v51.6h-10.3v-51.6zm68.7 10.2h10.3v62h-10.3v-30.9h-31.1v30.9h-10.3v-62h10.3v20.7h31.1v-20.7zm0-10.2v10.3h-31.1v-10.3h31.1zm79.1 62v10.3h-51.6v-72.2h10.3v62l41.3-.1zm37.8-51.8v51.7h10.3v10.3h-30.9v-10.3h10.3v-51.7h-10.3v-10.3h30.9v10.3h-10.3zm37.7 0v51.7h31.1v10.3H501v-72.2h41.3v10.3l-31.1-.1zm31.1 0h10.3v51.7h-10.3v-51.7zm86 0v20.7h41.3v10.4h-41.3v30.9H618v-72.2h51.6v10.3l-41.3-.1zm58.5 0h10.3v51.7h-10.3v-51.7zm41.3-10.2v10.3H697v-10.3h31.1zm-31 72.2v-10.3h31.1v10.3h-31.1zm31-62h10.3v51.7h-10.3v-51.7zm37.7 20.7h31.1v10.4h10.3v30.9h-10.3v-30.9h-31.1v30.9h-10.3v-72.2h41.3v10.3h-31.1l.1 20.6zm41.4 0h-10.3v-20.7h10.3v20.7zm65.4-20.7h10.3v51.7h-10.3v-51.7zm41.4-10.2v10.3h-31.1v-10.3H914zm-31.1 72.2v-10.3H914v10.3h-31.1zm31.1-62h10.3v51.7H914v-51.7zm37.7 10.4h10.4v10.3h-10.4v41.3h-10.3v-72.2h10.3v20.6zm10.4 10.3h10.3v10.4h-10.3v-10.4zm20.6-30.9H993v72.2h-10.3v-20.7h-10.4v-10.3h10.4v-41.2zm37.8 10.2v20.7h41.3v10.4h-41.3v20.7h41.3v10.3h-51.6v-72.2h51.6v10.3h-41.3v-.2z" enable-background="new" fill="#0064ff"/><g enable-background="new" fill="#0064ff"><path d="M260.5 1411.9h-20.7v62h-10.3v-62h-20.7v-10.3h51.6v10.3h.1zm68.8-10.2v72.2H319V1443h-31.1v30.9h-10.3v-72.2h10.3v30.9H319v-30.9h10.3z"/><use xlink:href="#B"/><use xlink:href="#B" x="68.8"/><path d="M484 1401.7h10.3v51.6H484v-51.6zm20.7 51.5v10.4H515v10.3h-10.3v-10.3h-10.4v-10.4h10.4zm10.2 10.4v-10.4h10.4v10.4h-10.4zm10.4-61.9h10.3v51.6h-10.3v-51.6zm37.7 10.2v20.7h41.3v10.4H563v20.7h41.3v10.3h-51.6v-72.2h51.6v10.3H563v-.2zm158.4-10.2v72.2h-10.3V1443H680v30.9h-10.3v-72.2H680v30.9h31.1v-30.9h10.3z"/><use xlink:href="#B" x="392.1"/><path d="M817.6 1411.9H828v10.4h-10.4v51.6h-10.3v-72.2h10.3v10.2zm10.5 10.4h10.3v10.3h-10.3v-10.3zm10.2 20.7v-10.4h10.4v10.4h-10.4zm10.4-10.4v-10.3H859v10.3h-10.3zm20.7-30.9h10.3v72.2h-10.3v-51.6H859v-10.4h10.4v-10.2zm37.7 10.2h10.4v10.4h-10.4v51.6h-10.3v-72.2h10.3v10.2zm10.4 10.4h10.3v10.3h-10.3v-10.3zm10.3 20.7v-10.4h10.4v10.4h-10.4zm10.4-10.4v-10.3h10.3v10.3h-10.3zm20.6-30.9h10.3v72.2h-10.3v-51.6h-10.4v-10.4h10.4v-10.2zm37.7 10.2v20.7h41.3v10.4h-41.3v20.7h41.3v10.3h-51.6v-72.2h51.6v10.3h-41.3v-.2zm68.8 20.7h31.1v10.4h10.3v30.9h-10.3V1443h-31.1v30.9H1055v-72.2h41.3v10.3h-31.1l.1 20.6zm41.3 0h-10.3v-20.7h10.3v20.7z"/></g><path d="M722.4,861.3h-28.9v57.8h57.8v-57.8H722.4z" fill="#c0642e"/><path d="M722.4 745.7h-28.9v-57.8h-57.8v57.8h-57.8v57.8h-57.8v57.8h57.8v57.8h57.8v-57.8h57.8v-57.8h57.8v-57.8h-28.9z" fill="#8e9397"/><path d="M838 976.9V948h-28.9v-28.9h-28.9v-57.8h-28.9v57.8h-57.8V948h57.8v28.9h28.9v28.9h28.9v28.9h57.8v-57.8H838z"/><path d="M693.5 803.5v57.8h57.8v-57.8h-57.8z"/><path d="M751.3 803.5h57.8v-57.8h-57.8v57.8z"/><path d="M693.5 745.7h57.8v-57.8h-57.8v57.8z"/><path d="M693.5 687.9v-57.8h-57.8v57.8h57.8z"/><path d="M635.7 745.7v-57.8h-57.8v57.8h57.8z"/><path d="M577.9 803.5v-57.8h-57.8v57.8h57.8zm0 115.6v57.8h57.8v-57.8h-57.8z"/><path d="M577.9 861.3h-57.8v57.8h57.8v-57.8z"/><path d="M520.1 803.5h-57.8v57.8h57.8v-57.8zm173.4 57.8h-57.8v57.8h57.8v-57.8z"/><g fill="#0b0072"><path d="M693.6 115.6v-14.4h-14.5v43.3h14.5v-14.4z"/><path d="M708 144.5h-14.4v28.9H708V159z"/><path d="M708 173.4v43.4h14.5v-43.4z"/><path d="M693.6 216.8h14.5v14.5h-14.5z"/><path d="M664.6 231.2h-28.9v14.5h57.9v-14.5h-14.5z"/></g><g fill="#1000a3"><path d="M635.7 115.6v28.9h14.5v-43.3h-14.5zm-28.9 72.3v28.9h14.5v-43.4h-14.5z"/><path d="M621.3 216.8h14.5v14.5h-14.5zm0-57.8v14.4h14.4v-28.9h-14.4zm28.9-72.3v14.5h28.9V86.7z"/></g><path d="M650.2 159h14.5v14.5h-14.5zm28.9 57.8h14.5v14.5h-14.5z" fill="#fff"/><g fill="#59bcff"><path d="M664.6 144.5v-14.4h-14.4V159h14.4z"/><path d="M664.6 159h14.5v14.5h-14.5z"/><path d="M650.2 173.4h14.5v14.5h-14.5zm0 43.4v14.4h28.9v-14.4h-14.5z"/><path d="M693.6 187.9v28.9H708v-28.9zM635.7 159h14.5v14.5h-14.5z"/></g><g fill="#00f"><path d="M679.1 115.6v-14.4h-14.5v28.9h14.5zm-43.4 57.8h-14.4v28.9h14.4v-14.4z"/><path d="M679.1 144.5v57.8h-43.4v14.5h57.9v-72.3z"/></g><g fill="#0080ff"><path d="M650.2 187.9h14.5v14.5h-14.5zm-28.9 14.4h14.5v14.5h-14.5z"/><path d="M635.7 216.8h14.5v14.5h-14.5zm0-72.3h14.5V159h-14.5zm28.9 0h14.5V159h-14.5zm0 28.9h14.5v14.5h-14.5zm29 0h14.5v14.5h-14.5zm-57.9 0h14.5v14.5h-14.5zm14.5-57.8h14.5v14.5h-14.5z"/></g><path d="M664.6 130.1h14.5v14.5h-14.5zm0 57.8h14.5v14.5h-14.5zm-28.9 0h14.5v14.5h-14.5zm14.5-86.7h14.5v14.5h-14.5z" fill="#0064ff"/><defs ><path id="B" d="M387.8 1411.9h10.3v62h-10.3V1443h-31.1v30.9h-10.3v-62h10.3v20.7h31.1v-20.7zm0-10.2v10.3h-31.1v-10.3h31.1z"/></defs></svg>