<svg xmlns="http://www.w3.org/2000/svg" xmlns:xlink="http://www.w3.org/1999/xlink" viewBox="0 0 1329.2 1733.9" xmlns:v="https://vecta.io/nano"><path d="M1300.3 57.8h-28.9V0h-57.8v57.8h-57.8V0H1098v57.8h-57.8V0h-57.8v57.8h-57.8V0h-57.8v57.8H809V0h-57.8v57.8h-57.8V0h-57.8v57.8h-57.8V0H520v57.8h-57.8V0h-57.8v57.8h-57.8V0h-57.8v57.8H231V0h-57.8v57.8h-57.8V0H57.6v57.8H-.2v1676.1h57.8v-57.8h57.8v57.8h57.8v-57.8H231v57.8h57.8v-57.8h57.8v57.8h57.8v-57.8h57.8v57.8H520v-57.8h57.8v57.8h57.8v-57.8h57.8v57.8h57.8v-57.8H809v57.8h57.8v-57.8h57.8v57.8h57.8v-57.8h57.8v57.8h57.8v-57.8h57.8v57.8h57.8v-57.8h57.8v57.8h57.8V57.8z" fill="#8064ff"/><path d="M1126.9 1329.3H144.3v202.3h28.9v28.9h982.6v-28.9h28.9v-202.3h-28.9zm28.9-1127v-28.9H173.2v28.9h-28.9v202.2h1040.4V202.3zm-28.9 231.1H144.3v867h1040.4v-867h-28.9z" fill="#fff"/><g fill="#5d24bf"><path d="M1155.8 173.4h28.9v28.9h-28.9zm0 1358.2h28.9v28.9h-28.9z"/><path d="M1184.7 202.3v202.3H144.3V202.3h-28.9v1329.4h28.9v-202.4h1040.4v202.3h28.9V202.2l-28.9.1zm0 260v838.1H144.3v-867h1040.4v28.9zM231 173.4h924.8v-28.9H173.2v28.9h28.9z"/><path d="M144.3 173.4h28.9v28.9h-28.9zm0 1358.2h28.9v28.9h-28.9z"/><path d="M1098 1560.5H173.2v28.9h982.6v-28.9h-28.9z"/></g><path d="M246.4 296.1h10.3v51.6h-10.3v-51.6zm20.6 51.6v10.4h10.3v10.3H267v-10.3h-10.4v-10.4H267zm10.3 10.4v-10.4h10.4v10.4h-10.4zm10.4-62H298v51.6h-10.3v-51.6zm68.8 10.3h10.3v62h-10.3v-30.9h-31.1v30.9h-10.3v-62h10.3v20.7h31.1v-20.7zm0-10.3v10.3h-31.1v-10.3h31.1zm79 62v10.3h-51.6v-72.2h10.3v62h41.3v-.1zm37.9-51.7v51.7h10.3v10.3h-30.9v-10.3h10.3v-51.7h-10.3v-10.3h30.9v10.3h-10.3zm37.7 0v51.7h31.1v10.3h-41.3v-72.2h41.3v10.3h-31.1v-.1zm31.1 0h10.3v51.7h-10.3v-51.7zm85.9 0v20.7h41.3v10.4h-41.3v30.9h-10.3v-72.2h51.6v10.3l-41.3-.1zm58.6 0H697v51.7h-10.3v-51.7zm41.3-10.3v10.3h-31.1v-10.3H728zm-31.1 72.2V358H728v10.3h-31.1zm31.1-61.9h10.3v51.7H728v-51.7zm37.7 20.6h31.1v10.4h10.3v30.9h-10.3v-30.9h-31.1v30.9h-10.3v-72.2h41.3v10.3h-31.1l.1 20.6zm41.3 0h-10.3v-20.7H807V327zm65.5-20.6h10.3v51.7h-10.3v-51.7zm41.3-10.3v10.3h-31.1v-10.3h31.1zm-31.1 72.2V358h31.1v10.3h-31.1zm31.1-61.9h10.3v51.7h-10.3v-51.7zm37.7 10.4h10.4v10.3h-10.4v41.3h-10.3v-72.2h10.3v20.6zm10.4 10.2h10.3v10.4h-10.3V327zm20.7-30.9h10.3v72.2h-10.3v-20.7h-10.4v-10.3h10.4v-41.2zm37.7 10.3v20.7h41.3v10.4h-41.3v20.7h41.3v10.3H1010v-72.2h51.6v10.3h-41.3v-.2z" enable-background="new" fill="#5d24bf"/><g enable-background="new" fill="#5d24bf"><use xlink:href="#B"/><path d="M463.7 1411.8H474v62h-10.3v-30.9h-31.1v30.9h-10.3v-62h10.3v20.7h31.1v-20.7zm0-10.2v10.3h-31.1v-10.3h31.1zm27.5 0h10.3v51.6h-10.3v-51.6zm20.6 51.6v10.4h10.3v10.3h-10.3v-10.3h-10.4v-10.4h10.4zm10.3 10.4v-10.4h10.4v10.4h-10.4zm10.4-62h10.3v51.6h-10.3v-51.6zm37.7 10.2v20.7h41.3v10.4h-41.3v20.7h41.3v10.3h-51.6v-72.2h51.6v10.3h-41.3v-.2zm117 0h10.4v10.4h-10.4v51.6H677v-72.2h10.3l-.1 10.2zm10.4 10.4h10.3v10.3h-10.3v-10.3zm10.3 20.7v-10.4h10.4v10.4h-10.4zm10.4-10.4v-10.3h10.3v10.3h-10.3zm20.7-30.9h10.3v72.2H739v-51.6h-10.4v-10.4H739v-10.2z"/><use xlink:href="#B" x="412.9"/><path d="M835.2 1411.8h10.3v20.7h-10.3v-20.7zm0 62v-10.3h41.3v10.3h-41.3zm51.6-72.2v10.3h-41.3v-10.3h41.3zm-10.3 41.3h-31.1v-10.4h31.1v10.4zm10.3 20.7h-10.3v-20.7h10.3v20.7zm27.4-31.1h10.4v10.4h-10.4v30.9H904v-72.2h10.3l-.1 30.9zm20.7-10.3v10.3h-10.3v-10.3h10.3zm0 31h-10.3v-10.3h10.3v10.3zm10.4-41.4v10.4h-10.4v-10.4h10.4zm0 51.8h-10.4v-10.4h10.4v10.4zm10.3-62v10.3h-10.3v-10.3h10.3zm0 72.2h-10.3v-10.3h10.3v10.3z"/></g><path d="M983.5 833.7h-65.9v-22h-43.9v-22h-43.9v-22h-87.9v22H698v22h-43.9v22h-43.9v-22h-43.9v-22h-43.9v-22h-87.9v22h-43.9v22h-43.9v22h-87.9v87.9h87.9v22h43.9v22h43.9v22h87.9v-22h43.9v-22h43.9v-22h43.9v22H698v22h43.9v22h87.9v-22h43.9v-22h43.9v-22h87.9v-87.9h-22zm-153.7 65.9v22h-22v22h-43.9v-22h-22v-22h-22v-43.9h22v-22h22v-22h43.9v22h22v22h22v43.9h-22zm-307.5 0v22h-22v22h-43.9v-22h-22v-22h-22v-43.9h22v-22h22v-22h43.9v22h22v22h22v43.9h-22z" fill="#a73796"/><g fill="#7d0064"><path d="M851.8,767.8h-22v22h43.9v-22H851.8z"/><path d="M895.7 789.8h-22v22h43.9v-22h-21.9zm-87.9-43.9h-65.9v22h87.9v-22h-22z"/><path d="M698 767.8v22h43.9v-22H698zm-153.7 0h-22v22h43.9v-22h-21.9z"/><path d="M500.3 745.9h-65.9v22h87.9v-22h-22z"/><path d="M390.5 767.8v22h43.9v-22h-43.9z"/><path d="M346.6 789.8v22h43.9v-22h-43.9z"/><path d="M302.7 811.7h-43.9v22h87.9v-22h-44zm307.5 0v22h43.9v-22h-43.9z"/><path d="M588.2 789.8h-22v22h43.9v-22h-21.9zm65.9 0v22H698v-22h-43.9zM478.4 987.5h-43.9v22h87.9v-22h-44zm-65.9-22h-22v22h43.9v-22h-21.9z"/><path d="M368.6,943.5h-22v22h43.9v-22H368.6z"/><path d="M324.6 921.6h-65.9v22h87.9v-22h-22zm197.7 43.9v22h43.9v-22h-43.9zm197.7 0h-22v22h43.9v-22H720zm65.9 22H742v22h87.9v-22h-44z"/><path d="M829.8 965.5v22h43.9v-22h-43.9z"/><path d="M873.7 943.5v22h43.9v-22h-43.9zm87.9-21.9h-43.9v22h87.9v-22h-44zm-395.4 21.9v22h43.9v-22h-43.9z"/><path d="M632.1,921.6h-22v22H654v-22H632.1z"/><path d="M676 943.5h-22v22h43.9v-22H676zm373.4-43.9h43.9v-43.9h-43.9v43.9z"/><path d="M1071.4 723.9h-22v43.9h-43.9v43.9h-87.9v22h87.9v22h43.9v-43.9h43.9v-87.9h-21.9zM807.8 899.6v-43.9h-43.9v43.9h43.9zm-307.5 0v-43.9h-43.9v43.9h43.9z"/></g><g fill="#fff"><path d="M829.8 855.7v-22h-22v-22h-43.9v22h-22v22h-22v43.9h22v22h22v22h43.9v-22h22v-22h22v-43.9h-22zm-43.9 43.9h-22v-43.9h43.9v43.9h-21.9zm-263.6-65.9h-22v-22h-43.9v22h-22v22h-22v43.9h22v22h22v22h43.9v-22h22v-22h22v-43.9h-22v-22zm-22 43.9v22h-43.9v-43.9h43.9v21.9zM629 145.2h14.7v14.7H629z"/><use xlink:href="#C"/></g><g fill="#b135ff"><use xlink:href="#C" x="29.4" y="-14.7"/><path d="M687.8 130.5v14.7h-14.7v14.7h-29.4v14.7h-29.4v14.8h58.8v-14.8h14.7v-14.7h14.7v-29.4z"/><use xlink:href="#C" x="-44.2" y="29.4"/></g><g fill="#cb5bff"><use xlink:href="#C" x="-44.2" y="14.7"/><path d="M614.3 159.9H629v14.7h-14.7z"/><use xlink:href="#C" x="14.7" y="-14.7"/><use xlink:href="#C" x="29.4"/><use xlink:href="#C" x="58.8"/><use xlink:href="#C" x="73.5" y="14.7"/><path d="M643.7 145.2v14.7h29.4v-14.7h-14.7zM629 189.4h-14.7v14.7h29.4v-14.7z"/><path d="M643.7 204.1v14.7h29.4v-14.7h-14.7z"/></g><g fill="#f37aff"><path d="M614.3 130.5v29.4H629v-14.7h14.7v-14.7H629z"/><use xlink:href="#C" y="-14.7"/><use xlink:href="#C" x="73.5" y="29.4"/><use xlink:href="#C" x="29.4" y="73.6"/><use xlink:href="#C" x="44.1" y="58.9"/></g><g fill="#ffc9ff"><use xlink:href="#C" x="14.7"/><path d="M629 159.9h14.7v14.7H629z"/><use xlink:href="#C" x="58.8" y="58.9"/><use xlink:href="#C" x="73.5" y="44.1"/></g><g fill="#3a2b77"><path d="M658.4 218.8v14.7h29.4v-14.7h-14.7z"/><path d="M687.8 204.1v14.7h29.4v-14.7h-14.7z"/><use xlink:href="#C" x="73.5" y="58.9"/><path d="M731.9 159.9v29.5h14.7v-29.5z"/></g><g fill="#47289b"><use xlink:href="#C" x="-44.2" y="58.9"/><path d="M629 204.1h-14.7v14.7h29.4v-14.7z"/><use xlink:href="#C" y="88.3"/><use xlink:href="#C" x="88.2" y="14.7"/><use xlink:href="#C" x="73.5"/><path d="M658.4 189.4v14.7h29.4v-14.7h-14.7zm44.1-14.8v14.8h14.7v-29.5h-14.7z"/></g><g fill="#6f16e2"><use xlink:href="#C" x="-44.2" y="44.1"/><use xlink:href="#C" x="58.8" y="14.7"/><path d="M687.8 174.6h-14.7v14.8h29.4v-29.5h-14.7z"/></g><g fill="#5d24bf"><path d="M673.1 101.1h-29.4v14.7h44.1v-14.7zm-88.3 58.8v29.5h14.7v-44.2h-14.7z"/><path d="M702.5 115.8h-14.7v14.7h29.4v-14.7z"/><use xlink:href="#C" y="58.9"/><path d="M614.3 115.8v14.7h29.4v-14.7H629z"/><use xlink:href="#C" x="-44.2"/></g><defs ><path id="B" d="M394.9 1411.8h10.3v62h-10.3v-30.9h-31.1v30.9h-10.3v-62h10.3v20.7h31.1v-20.7zm0-10.2v10.3h-31.1v-10.3h31.1z"/><path id="C" d="M643.7 130.5h14.7v14.7h-14.7z"/></defs></svg>