<svg xmlns="http://www.w3.org/2000/svg" xmlns:xlink="http://www.w3.org/1999/xlink" viewBox="0 0 1329.4 1733.7" xmlns:v="https://vecta.io/nano"><path d="M1300.5 57.7h-28.9V-.1h-57.8v57.8H1156V-.1h-57.8v57.8h-57.8V-.1h-57.8v57.8h-57.8V-.1H867v57.8h-57.8V-.1h-57.8v57.8h-57.8V-.1h-57.8v57.8H578V-.1h-57.8v57.8h-57.8V-.1h-57.8v57.8h-57.8V-.1H289v57.8h-57.8V-.1h-57.8v57.8h-57.8V-.1H57.8v57.8H0v1676.2h57.8v-57.8h57.8v57.8h57.8v-57.8h57.8v57.8H289v-57.8h57.8v57.8h57.8v-57.8h57.8v57.8h57.8v-57.8H578v57.8h57.8v-57.8h57.8v57.8h57.8v-57.8h57.8v57.8H867v-57.8h57.8v57.8h57.8v-57.8h57.8v57.8h57.8v-57.8h57.8v57.8h57.8v-57.8h57.8v57.8h57.8V57.7z" fill="#8064ff"/><path d="M1127.1 1329.3H144.5v202.3h28.9v28.9H1156v-28.9h28.9v-202.3H1156zM1156 202.2v-28.9H173.4v28.9h-28.9v202.3h1040.4V202.2zm-28.9 231.2H144.5v867h1040.4v-867H1156z" fill="#fff"/><g fill="#5d24bf"><path d="M1156 173.3h28.9v28.9H1156zm0 1358.3h28.9v28.9H1156z"/><path d="M1184.9 202.2v202.3H144.5V202.2h-28.9v1329.4h28.9v-202.3h1040.4v202.3h28.9V202.2h-28.9zm0 260.1v838.1H144.5v-867h1040.4v28.9zm-953.7-289H1156v-28.9H173.4v28.9h28.9z"/><path d="M144.5 173.3h28.9v28.9h-28.9zm0 1358.3h28.9v28.9h-28.9z"/><path d="M1098.2 1560.5H173.4v28.9H1156v-28.9h-28.9z"/></g><path d="M246.6 296h10.3v51.6h-10.3V296zm20.6 51.6V358h10.3v10.3h-10.3V358h-10.4v-10.4h10.4zm10.3 10.4v-10.4h10.4V358h-10.4zm10.4-62h10.3v51.6h-10.3V296zm68.8 10.3H367v62h-10.3v-30.9h-31.1v30.9h-10.3v-62h10.3V327h31.1v-20.7zm0-10.3v10.3h-31.1V296h31.1zm79 62v10.3h-51.6v-72.2h10.3v62l41.3-.1zm37.9-51.7V358h10.3v10.3H453V358h10.3v-51.7H453V296h30.9v10.3h-10.3zm37.7 0V358h31.1v10.3h-41.3v-72.2h41.3v10.3l-31.1-.1zm31.1 0h10.3V358h-10.3v-51.7zm85.9 0V327h41.3v10.4h-41.3v30.9H618v-72.2h51.6v10.3l-41.3-.1zm58.6 0h10.3V358h-10.3v-51.7zm41.3-10.3v10.3h-31.1V296h31.1zm-31.1 72.3V358h31.1v10.3h-31.1zm31.1-62h10.3V358h-10.3v-51.7zm37.7 20.6H797v10.4h10.3v30.9H797v-30.9h-31.1v30.9h-10.3V296h41.3v10.3h-31.1l.1 20.6zm41.3 0h-10.3v-20.7h10.3v20.7zm65.5-20.6H883V358h-10.3v-51.7zM914 296v10.3h-31.1V296H914zm-31.1 72.3V358H914v10.3h-31.1zm31.1-62h10.3V358H914v-51.7zm37.7 10.4h10.4V327h-10.4v41.3h-10.3v-72.2h10.3v20.6zm10.4 10.2h10.3v10.4h-10.3v-10.4zm20.7-30.9h10.3v72.2h-10.3v-20.7h-10.4v-10.3h10.4V296zm37.7 10.3V327h41.3v10.4h-41.3v20.7h41.3v10.3h-51.6v-72.2h51.6v10.3h-41.3v-.2z" enable-background="new" fill="#5d24bf"/><path d="M370.9 1411.8h10.3v62h-10.3v-30.9h-31.1v30.9h-10.3v-62h10.3v20.7h31.1v-20.7zm0-10.3v10.3h-31.1v-10.3h31.1zm68.8 10.3H450v62h-10.3v-30.9h-31.1v30.9h-10.3v-62h10.3v20.7h31.1v-20.7zm0-10.3v10.3h-31.1v-10.3h31.1zm27.5 0h10.3v51.6h-10.3v-51.6zm20.6 51.6v10.4h10.3v10.3h-10.3v-10.3h-10.4v-10.4h10.4zm10.3 10.4v-10.4h10.4v10.4h-10.4zm10.4-62h10.3v51.6h-10.3v-51.6zm37.7 10.3v20.7h41.3v10.4h-41.3v20.7h41.3v10.3h-51.6v-72.2h51.6v10.3h-41.3v-.2zm117 0v20.7h31.1v10.4h-31.1v30.9h-10.3v-72.2h41.3v10.3l-31-.1zm31.1 0h10.3v20.7h-10.3v-20.7zm79 51.7v10.3h-51.6v-72.2H732v62h41.3v-.1zm17.2-62h10.3v62h-10.3v-62zm10.3 72.3v-10.3h31.1v10.3h-31.1zm31.1-72.3h10.3v62h-10.3v-62zm27.4 10.3h10.3v20.7h-10.3v-20.7zm0 62v-10.3h41.3v10.3h-41.3zm51.6-72.3v10.3h-41.3v-10.3h41.3zm-10.3 41.3h-31.1v-10.4h31.1v10.4zm10.3 20.7h-10.3v-20.7h10.3v20.7zm68.8-62v72.2h-10.3v-30.9h-31.1v30.9H928v-72.2h10.3v30.9h31.1v-30.9h10.3z" enable-background="new" fill="#5d24bf"/><path d="M823.6 765.7v-28.9h-28.9v-28.9h-28.9V679H563.5v28.9h-28.9v28.9h-28.9v28.9h-28.9V968h28.9v28.9h28.9v28.9h28.9v28.9h202.3v-28.9h28.9v-28.9h28.9V968h28.9V765.7h-28.9z" fill="#7d0064"/><g fill="#fff"><path d="M736.9 780.2v-28.9H708v-28.9h-86.7v28.9h-28.9v28.9h-28.9v202.3h28.9v-28.9h28.9v28.9h28.9v-28.9h28.9v28.9H708v-28.9h28.9v28.9h28.9V780.2h-28.9zM708 838h-28.9v-28.9H708V838zm-86.7-28.9h28.9V838h-28.9v-28.9zm115.6 86.7H708v28.9h-86.7v-28.9h-28.9v-28.9h28.9v28.9H708v-28.9h28.9v28.9zM629 145.2h14.7v14.7H629z"/><use xlink:href="#B"/></g><g fill="#b135ff"><use xlink:href="#B" x="29.4" y="-14.7"/><use xlink:href="#C"/><use xlink:href="#B" x="-44.2" y="29.4"/></g><g fill="#cb5bff"><use xlink:href="#B" x="-44.2" y="14.7"/><path d="M614.3 159.9H629v14.7h-14.7z"/><use xlink:href="#B" x="14.7" y="-14.7"/><use xlink:href="#B" x="29.4"/><use xlink:href="#B" x="58.8"/><use xlink:href="#B" x="73.5" y="14.7"/><use xlink:href="#D"/><path d="M629 189.4h-14.7v14.7h29.4v-14.7z"/><use xlink:href="#D" y="58.9"/></g><g fill="#f37aff"><path d="M614.3 130.5v29.4H629v-14.7h14.7v-14.7H629z"/><use xlink:href="#B" y="-14.7"/><use xlink:href="#B" x="73.5" y="29.4"/><use xlink:href="#B" x="29.4" y="73.6"/><use xlink:href="#B" x="44.1" y="58.9"/></g><g fill="#ffc9ff"><use xlink:href="#B" x="14.7"/><path d="M629 159.9h14.7v14.7H629z"/><use xlink:href="#B" x="58.8" y="58.9"/><use xlink:href="#B" x="73.5" y="44.1"/></g><g fill="#3a2b77"><use xlink:href="#D" x="14.7" y="73.6"/><use xlink:href="#D" x="44.1" y="58.9"/><use xlink:href="#B" x="73.5" y="58.9"/><path d="M731.9 159.9v29.5h14.7v-29.5z"/></g><g fill="#47289b"><use xlink:href="#B" x="-44.2" y="58.9"/><path d="M629 204.1h-14.7v14.7h29.4v-14.7z"/><use xlink:href="#B" y="88.3"/><use xlink:href="#B" x="88.2" y="14.7"/><use xlink:href="#B" x="73.5"/><use xlink:href="#D" x="14.7" y="44.2"/><path d="M702.5 174.6v14.8h14.7v-29.5h-14.7z"/></g><g fill="#6f16e2"><use xlink:href="#B" x="-44.2" y="44.1"/><use xlink:href="#B" x="58.8" y="14.7"/><path d="M687.8 174.6h-14.7v14.8h29.4v-29.5h-14.7z"/></g><g fill="#5d24bf"><path d="M673.1 101.1h-29.4v14.7h44.1v-14.7zm-88.3 58.8v29.5h14.7v-44.2h-14.7z"/><path d="M702.5 115.8h-14.7v14.7h29.4v-14.7z"/><use xlink:href="#B" y="58.9"/><path d="M614.3 115.8v14.7h29.4v-14.7H629z"/><use xlink:href="#B" x="-44.2"/></g><g fill="#fff"><path d="M629 145.2h14.7v14.7H629z"/><use xlink:href="#B"/></g><g fill="#b135ff"><use xlink:href="#B" x="29.4" y="-14.7"/><use xlink:href="#C"/><use xlink:href="#B" x="-44.2" y="29.4"/></g><g fill="#cb5bff"><use xlink:href="#B" x="-44.2" y="14.7"/><path d="M614.3 159.9H629v14.7h-14.7z"/><use xlink:href="#B" x="14.7" y="-14.7"/><use xlink:href="#B" x="29.4"/><use xlink:href="#B" x="58.8"/><use xlink:href="#B" x="73.5" y="14.7"/><use xlink:href="#D"/><path d="M629 189.4h-14.7v14.7h29.4v-14.7z"/><use xlink:href="#D" y="58.9"/></g><g fill="#f37aff"><path d="M614.3 130.5v29.4H629v-14.7h14.7v-14.7H629z"/><use xlink:href="#B" y="-14.7"/><use xlink:href="#B" x="73.5" y="29.4"/><use xlink:href="#B" x="29.4" y="73.6"/><use xlink:href="#B" x="44.1" y="58.9"/></g><g fill="#ffc9ff"><use xlink:href="#B" x="14.7"/><path d="M629 159.9h14.7v14.7H629z"/><use xlink:href="#B" x="58.8" y="58.9"/><use xlink:href="#B" x="73.5" y="44.1"/></g><g fill="#3a2b77"><use xlink:href="#D" x="14.7" y="73.6"/><use xlink:href="#D" x="44.1" y="58.9"/><use xlink:href="#B" x="73.5" y="58.9"/><path d="M731.9 159.9v29.5h14.7v-29.5z"/></g><g fill="#47289b"><use xlink:href="#B" x="-44.2" y="58.9"/><path d="M629 204.1h-14.7v14.7h29.4v-14.7z"/><use xlink:href="#B" y="88.3"/><use xlink:href="#B" x="88.2" y="14.7"/><use xlink:href="#B" x="73.5"/><use xlink:href="#D" x="14.7" y="44.2"/><path d="M702.5 174.6v14.8h14.7v-29.5h-14.7z"/></g><g fill="#6f16e2"><use xlink:href="#B" x="-44.2" y="44.1"/><use xlink:href="#B" x="58.8" y="14.7"/><path d="M687.8 174.6h-14.7v14.8h29.4v-29.5h-14.7z"/></g><g fill="#5d24bf"><path d="M673.1 101.1h-29.4v14.7h44.1v-14.7zm-88.3 58.8v29.5h14.7v-44.2h-14.7z"/><path d="M702.5 115.8h-14.7v14.7h29.4v-14.7z"/><use xlink:href="#B" y="58.9"/><path d="M614.3 115.8v14.7h29.4v-14.7H629z"/><use xlink:href="#B" x="-44.2"/></g><defs ><path id="B" d="M643.7 130.5h14.7v14.7h-14.7z"/><path id="C" d="M687.8 130.5v14.7h-14.7v14.7h-29.4v14.7h-29.4v14.8h58.8v-14.8h14.7v-14.7h14.7v-29.4z"/><path id="D" d="M643.7 145.2v14.7h29.4v-14.7h-14.7z"/></defs></svg>