<svg width="1330" height="1734" viewBox="0 0 1330 1734" fill="none" xmlns="http://www.w3.org/2000/svg">
<path d="M1271.6 57.8V0H1213.8V57.8H1156V0H1098.2V57.8H1040.4V0H982.6V57.8H924.8V0H867V57.8H809.2V0H751.4V57.8H693.6V0H635.8V57.8H578V0H520.2V57.8H462.4V0H404.6V57.8H346.8V0H289V57.8H231.2V0H173.4V57.8H115.6V0H57.8V57.8H0V1734H57.8V1676.2H115.6V1734H173.4V1676.2H231.2V1734H289V1676.2H346.8V1734H404.6V1676.2H462.4V1734H520.2V1676.2H578V1734H635.8V1676.2H693.6V1734H751.4V1676.2H809.2V1734H867V1676.2H924.8V1734H982.6V1676.2H1040.4V1734H1098.2V1676.2H1156V1734H1213.8V1676.2H1271.6V1734H1329.4V57.8H1271.6Z" fill="#FFC36B"/>
<path d="M1156 173.4H1184.9V202.3H1156V173.4ZM1156 1531.7H1184.9V1560.6H1156V1531.7Z" fill="#EA8C27"/>
<path d="M1184.9 202.3V404.6H144.5V202.3H115.6V1531.7H144.5V1329.4H1184.9V1531.7H1213.8V202.3H1184.9ZM1184.9 1300.5H144.5V433.5H1184.9V1300.5ZM1156 173.4V144.5H173.4V173.4H1156Z" fill="#EA8C27"/>
<path d="M144.5 173.4H173.4V202.3H144.5V173.4ZM144.5 1531.7H173.4V1560.6H144.5V1531.7Z" fill="#EA8C27"/>
<path d="M173.4 1560.6V1589.5H1156V1560.6H173.4Z" fill="#EA8C27"/>
<path d="M144.5 1329.4V1531.7H173.4V1560.6H1156V1531.7H1184.9V1329.4H144.5ZM1156 202.3V173.4H173.4V202.3H144.5V404.6H1184.9V202.3H1156ZM144.5 433.5V1300.5H1184.9V433.5H144.5Z" fill="white"/>
<path d="M644.4 173.3H658.8V187.7H644.4V173.3ZM658.9 86.6001V173.3H673.3V86.6001H658.9Z" fill="white"/>
<path d="M644.4 115.5H658.8V129.9H644.4V115.5ZM658.9 173.3H673.3V187.7H658.9V173.3ZM615.5 173.3V187.8H644.4V173.3H615.5Z" fill="#FFFFC4"/>
<path d="M644.4 231.1H658.8V245.5H644.4V231.1ZM658.9 202.2H673.3V216.6H658.9V202.2ZM644.4 158.9V144.4H630V173.3H644.4V158.9Z" fill="#FFD596"/>
<path d="M644.4 130H658.8V144.4H644.4V130ZM702.2 173.3H687.7V187.8H716.6V173.3H702.2Z" fill="#FFD596"/>
<path d="M658.9 216.7H644.4V231.1H673.3V216.7H658.9ZM658.9 187.8H673.3V202.2H658.9V187.8ZM658.9 158.9V144.4H644.4V173.3H658.9V158.9ZM673.3 173.3H687.7V187.7H673.3V173.3Z" fill="#FFC36B"/>
<path d="M673.3 231.1H687.7V245.5H673.3V231.1ZM687.7 202.2H702.1V216.6H687.7V202.2ZM644.4 187.8H630V216.7H644.4V187.8Z" fill="#FFC36B"/>
<path d="M673.3 115.5H687.7V129.9H673.3V115.5ZM658.9 245.6V274.5H673.3V231.1H658.9V245.6Z" fill="#FFB200"/>
<path d="M673.3 216.7H687.7V231.1H673.3V216.7ZM658.9 202.2V187.8H644.4V216.7H658.9V202.2ZM687.7 187.8H702.1V202.2H687.7V187.8Z" fill="#FFB200"/>
<path d="M673.3 130H687.7V144.4H673.3V130Z" fill="#EA8C27"/>
<path d="M687.7 144.4H702.1V158.8H687.7V144.4Z" fill="#EA8C27"/>
<path d="M673.3 144.4H687.7V158.8H673.3V144.4ZM687.7 158.9H702.1V173.3H687.7V158.9Z" fill="#D67137"/>
<path d="M687.7 86.6001H673.3V115.5H687.7V86.6001Z" fill="#994A4A"/>
<path d="M702.2 115.5H687.7V144.4H702.2V115.5Z" fill="#994A4A"/>
<path d="M716.6 144.4H702.2V173.3H716.6V144.4ZM673.3 202.2V216.7H687.7V187.8H673.3V202.2Z" fill="#994A4A"/>
<path d="M716.6 173.3H731V187.7H716.6V173.3ZM644.4 260V274.5H658.9V245.6H644.4V260Z" fill="#994A4A"/>
<path d="M644.4 216.7H630V245.6H644.4V216.7Z" fill="#994A4A"/>
<path d="M630 187.8H615.5V216.7H630V187.8Z" fill="#994A4A"/>
<path d="M658.9 72.2002H673.3V86.6002H658.9V72.2002Z" fill="#AD5A41"/>
<path d="M658.9 101.1V86.6001H644.4V115.5H658.9V101.1ZM673.3 158.9H687.7V173.3H673.3V158.9Z" fill="#AD5A41"/>
<path d="M630 130V144.4H644.4V115.5H630V130Z" fill="#AD5A41"/>
<path d="M615.5 158.9V173.3H630V144.4H615.5V158.9ZM658.9 274.5H673.3V288.9H658.9V274.5Z" fill="#AD5A41"/>
<path d="M673.3 260V274.5H687.7V245.6H673.3V260Z" fill="#AD5A41"/>
<path d="M687.7 231.1V245.6H702.2V216.7H687.7V231.1Z" fill="#AD5A41"/>
<path d="M702.2 187.8V216.7H716.6V187.8H702.2ZM601.1 173.3H615.5V187.7H601.1V173.3Z" fill="#AD5A41"/>
<path d="M239.4 292.5H250.4V347.8H239.4V292.5ZM261.6 347.8V359H272.6V370H261.6V359H250.4V347.8H261.6ZM272.6 359V347.8H283.8V359H272.6ZM283.8 292.5H294.8V347.8H283.8V292.5ZM354 303.5H365V370H354V336.8H320.7V370H309.7V303.5H320.7V325.7H354V303.5ZM354 292.5V303.5H320.7V292.5H354ZM435.2 359V370H379.9V292.5H390.9V359H435.2ZM472.2 303.5V359H483.2V370H450V359H461V303.5H450V292.5H483.2V303.5H472.2ZM509.1 303.5V359H542.4V370H498.1V292.5H542.4V303.5H509.1ZM542.5 303.5H553.5V359H542.5V303.5ZM627.6 303.5V325.7H671.9V336.9H627.6V370H616.6V292.5H671.9V303.5H627.6ZM686.8 303.5H697.8V359H686.8V303.5ZM731.1 292.5V303.5H697.8V292.5H731.1ZM697.8 370V359H731.1V370H697.8ZM731.1 303.5H742.1V359H731.1V303.5ZM768 325.7H801.3V336.9H812.3V370H801.3V336.8H768V370H757V292.5H801.3V303.5H768V325.7ZM812.3 325.7H801.3V303.5H812.3V325.7ZM875.4 303.5H886.4V359H875.4V303.5ZM919.7 292.5V303.5H886.4V292.5H919.7ZM886.4 370V359H919.7V370H886.4ZM919.7 303.5H930.7V359H919.7V303.5ZM956.6 314.7H967.8V325.7H956.6V370H945.6V292.5H956.6V314.7ZM967.8 325.7H978.8V336.9H967.8V325.7ZM989.9 292.5H1000.9V370H989.9V347.8H978.7V336.8H989.9V292.5ZM1026.8 303.5V325.7H1071.1V336.9H1026.8V359H1071.1V370H1015.8V292.5H1071.1V303.5H1026.8Z" fill="#EA8C27"/>
<path d="M964.7 677V637H924.7V597H844.7V557H764.7V517H564.7V557H484.7V597H404.7V637H364.7V677H324.7V1037H344.7V1057H364.7V1077H384.7V1097H404.7V1117H424.7V1137H444.7V1157H464.7V1177H484.7V1197H524.7V1217H604.7V1177H564.7V1157H524.7V1137H484.7V1117H464.7V1077H504.7V1057H524.7V1037H444.7V997H404.7V837H444.7V797H644.7V997H684.7V837H724.7V797H884.7V837H924.7V997H884.7V1037H804.7V1057H824.7V1077H864.7V1117H844.7V1137H804.7V1157H764.7V1177H724.7V1217H804.7V1197H844.7V1177H864.7V1157H884.7V1137H904.7V1117H924.7V1097H944.7V1077H964.7V1057H984.7V1037H1004.7V677H964.7Z" fill="#855D43"/>
<path d="M884.7 837V797H724.7V837H844.7V877H884.7V957H844.7V997H724.7V837H684.7V997H644.7V797H444.7V837H404.7V997H444.7V1037H524.7V1057H504.7V1077H464.7V1117H484.7V1137H524.7V1157H564.7V1177H604.7V1217H724.7V1177H764.7V1157H804.7V1137H844.7V1117H864.7V1077H824.7V1057H804.7V1037H884.7V997H924.7V837H884.7ZM484.7 957H444.7V877H484.7V837H604.7V997H484.7V957ZM604.7 1037.1H724.7V1077.1H604.7V1037.1ZM744.7 1117.1V1137.1H584.7V1117.1H524.7V1097.1H804.7V1117.1H744.7ZM1064.7 877V857H1044.7V897H1004.7V997H1044.7V977H1064.7V957H1084.7V877H1064.7ZM284.7 897V857H264.7V877H244.7V957H264.7V977H284.7V997H324.7V897H284.7Z" fill="#E4C596"/>
<path d="M604.7 1037.1H724.7V1077.1H604.7V1037.1ZM1004.7 837H1044.7V897H1004.7V837ZM284.7 837H324.7V897H284.7V837Z" fill="#604838"/>
<path d="M484.7 877H564.7V957H484.7V877ZM764.7 877H844.7V957H764.7V877Z" fill="#13100E"/>
<path d="M484.7 837H564.7V877H484.7V837ZM484.7 957H564.7V997H484.7V957Z" fill="#412C18"/>
<path d="M444.7 877H484.7V957H444.7V877ZM564.7 877H604.7V957H564.7V877ZM764.7 837H844.7V877H764.7V837ZM764.7 957H844.7V997H764.7V957Z" fill="#412C18"/>
<path d="M844.7 877H884.7V957H844.7V877ZM724.7 877H764.7V957H724.7V877Z" fill="#412C18"/>
<path d="M564.7 837H604.7V877H564.7V837ZM564.7 957H604.7V997H564.7V957ZM724.7 837H764.7V877H724.7V837ZM724.7 957H764.7V997H724.7V957Z" fill="white"/>
<path d="M524.7 1097.1H804.7V1117.1H524.7V1097.1Z" fill="#D78784"/>
<path d="M584.7 1117.1H744.7V1137.1H584.7V1117.1Z" fill="#F9B7B2"/>
<path d="M467.668 1409V1419.22H436.708V1409H467.668ZM467.668 1419.22H477.892V1481H467.668V1450.18H436.708V1481H426.484V1419.22H436.708V1439.82H467.668V1419.22ZM498.302 1419.22V1439.82H529.262V1450.18H498.302V1481H488.078V1409H529.262V1419.22H498.302ZM529.262 1419.22H539.486V1439.82H529.262V1419.22ZM601.08 1419.22H559.896V1439.82H601.08V1450.18H559.896V1470.78H601.08V1481H549.672V1409H601.08V1419.22ZM662.693 1419.22H673.061V1429.59H662.693V1481H652.469V1409H662.693V1419.22ZM673.061 1429.59H683.285V1439.82H673.061V1429.59ZM683.285 1450.18V1439.82H693.653V1450.18H683.285ZM693.653 1439.82V1429.59H703.877V1439.82H693.653ZM714.245 1409H724.469V1481H714.245V1429.59H703.877V1419.22H714.245V1409ZM775.918 1409V1419.22H744.958V1409H775.918ZM775.918 1419.22H786.142V1481H775.918V1450.18H744.958V1481H734.734V1419.22H744.958V1439.82H775.918V1419.22ZM796.328 1481V1470.78H837.512V1481H796.328ZM847.736 1470.78H837.512V1450.18H847.736V1470.78ZM837.512 1450.18H806.552V1439.82H837.512V1450.18ZM796.328 1419.22H806.552V1439.82H796.328V1419.22ZM847.736 1409V1419.22H806.552V1409H847.736ZM868.146 1439.82H878.514V1450.18H868.146V1481H857.922V1409H868.146V1439.82ZM888.738 1429.59V1439.82H878.514V1429.59H888.738ZM899.106 1419.22V1429.59H888.738V1419.22H899.106ZM909.33 1409V1419.22H899.106V1409H909.33ZM888.738 1460.41H878.514V1450.18H888.738V1460.41ZM899.106 1470.78H888.738V1460.41H899.106V1470.78ZM909.33 1481H899.106V1470.78H909.33V1481Z" fill="#EA8C27"/>
</svg>
