<svg xmlns="http://www.w3.org/2000/svg" xmlns:xlink="http://www.w3.org/1999/xlink" viewBox="0 0 1329.4 1734" xmlns:v="https://vecta.io/nano"><path d="M1300.5 57.8h-28.9V0h-57.8v57.8H1156V0h-57.8v57.8h-57.8V0h-57.8v57.8h-57.8V0H867v57.8h-57.8V0h-57.8v57.8h-57.8V0h-57.8v57.8H578V0h-57.8v57.8h-57.8V0h-57.8v57.8h-57.8V0H289v57.8h-57.8V0h-57.8v57.8h-57.8V0H57.8v57.8H0V1734h57.8v-57.8h57.8v57.8h57.8v-57.8h57.8v57.8H289v-57.8h57.8v57.8h57.8v-57.8h57.8v57.8h57.8v-57.8H578v57.8h57.8v-57.8h57.8v57.8h57.8v-57.8h57.8v57.8H867v-57.8h57.8v57.8h57.8v-57.8h57.8v57.8h57.8v-57.8h57.8v57.8h57.8v-57.8h57.8v57.8h57.8V57.8z" fill="#33bacc"/><g fill="#36818e"><path d="M1156 173.4h28.9v28.9H1156zm0 1358.3h28.9v28.9H1156z"/><path d="M1184.9 202.3v202.3H144.5V202.3h-28.9v1329.4h28.9v-202.3h1040.4v202.3h28.9V202.3h-28.9zm0 260.1v838.1H144.5v-867h1040.4v28.9zm-953.7-289H1156v-28.9H173.4v28.9h28.9z"/><path d="M144.5 173.4h28.9v28.9h-28.9zm0 1358.3h28.9v28.9h-28.9z"/><path d="M1098.2 1560.6H173.4v28.9H1156v-28.9h-28.9z"/></g><path d="M1127.1 1329.4H144.5v202.3h28.9v28.9H1156v-28.9h28.9v-202.3H1156zM1156 202.3v-28.9H173.4v28.9h-28.9v202.3h1040.4V202.3zm-28.9 231.2H144.5v867h1040.4v-867H1156z" fill="#fff"/><g enable-background="new" fill="#36818e"><use xlink:href="#B"/><path d="M356.7 306.4H367v62h-10.3v-30.9h-31.1v30.9h-10.3v-62h10.3v20.7h31.1v-20.7zm0-10.3v10.3h-31.1v-10.3h31.1zm79 62v10.3h-51.6v-72.2h10.3v62h41.3v-.1zm37.9-51.7v51.7h10.3v10.3H453v-10.3h10.3v-51.7H453v-10.3h30.9v10.3h-10.3zm37.7 0v51.7h31.1v10.3h-41.3v-72.2h41.3v10.3h-31.1v-.1zm31 0h10.3v51.7h-10.3v-51.7zm86 0v20.7h41.3v10.4h-41.3v30.9h-10.2v-72.2h51.6v10.3h-41.4v-.1zm58.5 0h10.3v51.7h-10.3v-51.7zm41.4-10.3v10.3h-31.1v-10.3h31.1zm-31.1 72.3v-10.3h31.1v10.3h-31.1zm31.1-62h10.3v51.7h-10.3v-51.7zm37.7 20.6H797v10.4h10.3v30.9H797v-30.9h-31.1v30.9h-10.3v-72.2h41.3v10.3h-31.1l.1 20.6zm41.3 0h-10.3v-20.7h10.3V327zm65.5-20.6H883v51.7h-10.3v-51.7zm41.3-10.3v10.3h-31.1v-10.3H914zm-31.1 72.3v-10.3H914v10.3h-31.1zm31.1-62h10.3v51.7H914v-51.7zm37.7 10.4h10.4v10.3h-10.4v41.3h-10.3v-72.2h10.3v20.6zm10.4 10.2h10.3v10.4h-10.3V327zm20.7-30.9h10.3v72.2h-10.3v-20.7h-10.4v-10.3h10.4v-41.2zm37.7 10.3v20.7h41.3v10.4h-41.3v20.7h41.3v10.3h-51.6v-72.2h51.6v10.3h-41.3v-.2z"/></g><g enable-background="new" fill="#36818e"><path d="M213 1411.9h10.3v51.7H213v-51.7zm51.5-10.3v10.3h-41.3v-10.3h41.3zm0 72.3h-41.3v-10.3h41.3v10.3zm54.5-62h10.3v62H319V1443h-31.1v30.9h-10.3v-62h10.3v20.7H319v-20.7zm0-10.3v10.3h-31.1v-10.3H319zm33.7 10.3v20.7h31.1v10.4h-31.1v30.9h-10.3v-72.2h41.3v10.3l-31-.1zm31.1 0h10.3v20.7h-10.3v-20.7zm23.4 62v-10.3h10.3v10.3h-10.3zm108.9-62h10.3v62h-10.3V1443H485v30.9h-10.3v-62H485v20.7h31.1v-20.7zm0-10.3v10.3H485v-10.3h31.1zm64.7 10.3h10.3v62h-10.3V1443h-31.1v30.9h-10.3v-62h10.3v20.7h31.1v-20.7zm0-10.3v10.3h-31.1v-10.3h31.1z"/><use xlink:href="#B" x="357.7" y="1105.5"/><path d="M679.3 1411.9v20.7h41.3v10.4h-41.3v20.7h41.3v10.3H669v-72.2h51.6v10.3h-41.3v-.2zm98.6 0h10.3v20.7h-10.3v-20.7zm0 62v-10.3h41.3v10.3h-41.3zm51.6-72.3v10.3h-41.3v-10.3h41.3zm-10.2 41.3h-31.1v-10.4h31.1v10.4zm10.2 20.7h-10.3v-20.7h10.3v20.7zm64.8-62v72.2H884v-30.9h-31.1v30.9h-10.3v-72.2h10.3v30.9H884v-30.9h10.3zm33.8 10.3v51.7h10.3v10.3h-30.9v-10.3h10.3v-51.7h-10.3v-10.3h30.9v10.3h-10.3zm33.6 0v20.7h41.3v10.4h-41.3v20.7h41.3v10.3h-51.6v-72.2h51.6v10.3h-41.3v-.2zm106.1 51.7v10.3h-51.6v-72.2h10.3v62h41.3v-.1zm23.4-51.7v51.7h31.1v10.3H1081v-72.2h41.3v10.3h-31.1v-.1zm31.1 0h10.3v51.7h-10.3v-51.7z"/></g><g fill="#e6cce1"><path d="M635.8 722.5h57.8v28.9h28.9v-57.8H606.9v57.8h28.9z"/><path d="M751.4 780.3v28.9h28.9v-57.8h-57.8v28.9z"/><path d="M809.2 809.2h-28.9v28.9h28.9v57.8h-28.9v28.9h57.8V809.2zM578 780.3h28.9v-28.9h-57.8v57.8H578z"/><path d="M520.2 895.9v-57.8h28.9v-28.9h-57.8v115.6h57.8v-28.9z"/><path d="M578 953.7v-28.9h-28.9v57.8h57.8v-28.9zm173.4 0h-28.9v28.9h57.8v-57.8h-28.9z"/><path d="M693.6 1011.5h-57.8v-28.9h-28.9v57.8h115.6v-57.8h-28.9z"/></g><g fill="#fff"><path d="M635.8 867h57.8v-57.8h-57.8v28.9zm57.8 57.8v-28.9h-57.8v57.8h-28.9v28.9h28.9v28.9h57.8v-28.9h28.9v-28.9h-28.9z"/><path d="M780.3 838.1v-28.9h-28.9v-28.9h-28.9v-28.9h-28.9v-28.9h-57.8v28.9h-28.9v28.9H578v28.9h-28.9v28.9h-28.9v57.8h28.9v28.9H578v28.9h28.9v-57.8H578V867h28.9v-57.8h28.9v-28.9h57.8v28.9h28.9V867h28.9v28.9h-28.9v57.8h28.9v-28.9h28.9v-28.9h28.9v-57.8z"/></g><path d="M867 751.4h-28.9v-57.8h-57.8v-57.8H549.1v57.8h-57.8v57.8h-57.8v231.2h57.8v57.8h57.8v57.8h231.2v-57.8h57.8v-57.8h57.8V751.4H867zm-28.9 86.7v86.7h-57.8v57.8h-57.8v57.8H606.9v-57.8h-57.8v-57.8h-57.8V809.2h57.8v-57.8h57.8v-57.8h115.6v57.8h57.8v57.8h57.8v28.9z" fill="#0fa9c9"/><g fill="#0f5a87"><path d="M780.3 693.6h57.8v-57.8h-57.8v28.9z"/><path d="M838.1 751.4h57.8v-57.8h-57.8v28.9z"/><path d="M924.8 751.4h-28.9v231.2h57.8V751.4z"/><path d="M838.1 982.6v57.8h57.8v-57.8H867z"/><path d="M780.3 1040.4v57.8h57.8v-57.8h-28.9z"/><path d="M722.5 1098.2H549.1v57.8h231.2v-57.8h-28.9zM606.9 635.8h173.4V578H549.1v57.8H578zm86.7 173.4v-28.9h-57.8v28.9h28.9z"/><path d="M722.5 838.1v-28.9h-28.9V867h-57.8v-57.8h-28.9V867H578v28.9h28.9v57.8h28.9v-57.8h57.8v57.8h28.9v-57.8h28.9V867h-28.9zM549.1 693.6v-57.8h-57.8v57.8h28.9z"/><path d="M491.3 751.4v-57.8h-57.8v57.8h28.9zm0 231.2h-57.8v57.8h57.8v-28.9z"/><path d="M549.1 1040.4h-57.8v57.8h57.8v-28.9zM433.5 924.8V751.4h-57.8v231.2h57.8v-28.9z"/></g><path d="M642.8 195.9H628v14.8h29.6v-14.8z" fill="#52a7aa"/><g fill="#fff"><path d="M628 122.1h14.8v14.8H628z"/><path d="M613.3 107.3h14.8v14.8h-14.8zm44.3 0h14.8v14.8h-14.8z"/></g><g fill="#96ffff"><path d="M642.8 151.6h14.8v14.8h-14.8z"/><path d="M672.4 122.1h-29.6v14.7h14.8v14.8h14.8v-14.8h14.7v-14.7z"/><path d="M628 136.8v-14.7h-14.7v29.5h29.5v-14.8z"/></g><g fill="#dbffff"><path d="M687.1 107.3h-14.7v14.8h29.5v-14.8zm-29.5 44.3h14.8v14.8h-14.8z"/><path d="M642.8 136.8h14.8v14.8h-14.8zm14.8-14.7v-14.8H628v14.8h14.8z"/></g><g fill="#0ff"><path d="M701.9 107.3h14.8v14.8h-14.8z"/><path d="M687.1 122.1h14.8v14.8h-14.8z"/><path d="M672.4 136.8h14.8v14.8h-14.8zm29.5 59.1h14.8v14.8h-14.8z"/><path d="M687.1 181.2h14.8V196h-14.8z"/><path d="M672.4 166.4h14.8v14.8h-14.8zm-59.1-14.8v44.3H628v-14.7h14.8v-29.6H628z"/></g><g fill="#86e8e6"><path d="M687.1 195.9h14.8v14.8h-14.8z"/><path d="M701.9 151.6v44.3h14.8v-44.3z"/></g><path d="M657.6 195.9v14.8h29.5v-14.8h-14.7zm44.3-73.8v29.5h14.8v-29.5z" fill="#4fd1d6"/><g fill="#33bacc"><path d="M642.8 166.4h14.8v14.8h-14.8z"/><path d="M628 181.2h14.8V196H628z"/><path d="M613.3 195.9h14.8v14.8h-14.8zm73.8-59.1v14.8h-14.7v14.8h14.7v14.8h14.8v-44.4z"/></g><g fill="#36818e"><path d="M701.9 92.5h-88.6v14.8h103.4V92.5zm-29.5 73.9h-14.8v14.8h-14.8v14.7h44.3v-14.7h-14.7z"/><path d="M598.5 122.1v88.6h14.8V107.3h-14.8z"/></g><g fill="#283849"><path d="M716.7 107.3v103.4h14.8V107.3z"/><path d="M687.1 210.7h-73.8v14.8h103.4v-14.8h-14.8z"/></g><defs ><path id="B" d="M246.6 296.1h10.3v51.6h-10.3v-51.6zm20.6 51.6v10.4h10.3v10.3h-10.3v-10.3h-10.4v-10.4h10.4zm10.3 10.4v-10.4h10.4v10.4h-10.4zm10.4-62h10.3v51.6h-10.3v-51.6z"/></defs></svg>