<svg width="103" height="103" viewBox="0 0 103 103" fill="none" xmlns="http://www.w3.org/2000/svg">
<path d="M86.9062 6.4375H85.2969V4.82812V3.21875H83.6875H82.0781V4.82812V6.4375H80.4688H78.8594V4.82812V3.21875H77.25H75.6406V4.82812V6.4375H74.0312H72.4219V4.82812V3.21875H70.8125H69.2031V4.82812V6.4375H67.5938H65.9844V4.82812V3.21875H64.375H62.7656V4.82812V6.4375H61.1562H59.5469V4.82812V3.21875H57.9375H56.3281V4.82812V6.4375H54.7188H53.1094V4.82812V3.21875H51.5H49.8906V4.82812V6.4375H48.2812H46.6719V4.82812V3.21875H45.0625H43.4531V4.82812V6.4375H41.8438H40.2344V4.82812V3.21875H38.625H37.0156V4.82812V6.4375H35.4062H33.7969V4.82812V3.21875H32.1875H30.5781V4.82812V6.4375H28.9688H27.3594V4.82812V3.21875H25.75H24.1406V4.82812V6.4375H22.5312H20.9219V4.82812V3.21875H19.3125H17.7031V4.82812V6.4375H16.0938H14.4844V8.04688V9.65625V11.2656V12.875V14.4844V16.0938V17.7031V19.3125V20.9219V22.5312V24.1406V25.75V27.3594V28.9688V30.5781V32.1875V33.7969V35.4062V37.0156V38.625V40.2344V41.8438V43.4531V45.0625V46.6719V48.2812V49.8906V51.5V53.1094V54.7188V56.3281V57.9375V59.5469V61.1562V62.7656V64.375V65.9844V67.5938V69.2031V70.8125V72.4219V74.0312V75.6406V77.25V78.8594V80.4688V82.0781V83.6875V85.2969V86.9062V88.5156V90.125V91.7344V93.3438V94.9531V96.5625V98.1719V99.7812H16.0938H17.7031V98.1719V96.5625H19.3125H20.9219V98.1719V99.7812H22.5312H24.1406V98.1719V96.5625H25.75H27.3594V98.1719V99.7812H28.9688H30.5781V98.1719V96.5625H32.1875H33.7969V98.1719V99.7812H35.4062H37.0156V98.1719V96.5625H38.625H40.2344V98.1719V99.7812H41.8438H43.4531V98.1719V96.5625H45.0625H46.6719V98.1719V99.7812H48.2812H49.8906V98.1719V96.5625H51.5H53.1094V98.1719V99.7812H54.7188H56.3281V98.1719V96.5625H57.9375H59.5469V98.1719V99.7812H61.1562H62.7656V98.1719V96.5625H64.375H65.9844V98.1719V99.7812H67.5938H69.2031V98.1719V96.5625H70.8125H72.4219V98.1719V99.7812H74.0312H75.6406V98.1719V96.5625H77.25H78.8594V98.1719V99.7812H80.4688H82.0781V98.1719V96.5625H83.6875H85.2969V98.1719V99.7812H86.9062H88.5156V98.1719V96.5625V94.9531V93.3438V91.7344V90.125V88.5156V86.9062V85.2969V83.6875V82.0781V80.4688V78.8594V77.25V75.6406V74.0312V72.4219V70.8125V69.2031V67.5938V65.9844V64.375V62.7656V61.1562V59.5469V57.9375V56.3281V54.7188V53.1094V51.5V49.8906V48.2812V46.6719V45.0625V43.4531V41.8438V40.2344V38.625V37.0156V35.4062V33.7969V32.1875V30.5781V28.9688V27.3594V25.75V24.1406V22.5312V20.9219V19.3125V17.7031V16.0938V14.4844V12.875V11.2656V9.65625V8.04688V6.4375H86.9062Z" fill="#FF96FF"/>
<path d="M80.4688 12.875H78.8594V14.4844H80.4688V12.875Z" fill="#FF00FF"/>
<path d="M80.4688 88.5156H78.8594V90.125H80.4688V88.5156Z" fill="#FF00FF"/>
<path d="M80.4688 14.4844V16.0938V17.7031V19.3125V20.9219V22.5312V24.1406V25.75H78.8594H77.25H75.6406H74.0312H72.4219H70.8125H69.2031H67.5938H65.9844H64.375H62.7656H61.1562H59.5469H57.9375H56.3281H54.7188H53.1094H51.5H49.8906H48.2812H46.6719H45.0625H43.4531H41.8438H40.2344H38.625H37.0156H35.4062H33.7969H32.1875H30.5781H28.9688H27.3594H25.75H24.1406H22.5312V24.1406V22.5312V20.9219V19.3125V17.7031V16.0938V14.4844H20.9219V16.0938V17.7031V19.3125V20.9219V22.5312V24.1406V25.75V27.3594V28.9688V30.5781V32.1875V33.7969V35.4062V37.0156V38.625V40.2344V41.8438V43.4531V45.0625V46.6719V48.2812V49.8906V51.5V53.1094V54.7188V56.3281V57.9375V59.5469V61.1562V62.7656V64.375V65.9844V67.5938V69.2031V70.8125V72.4219V74.0312V75.6406V77.25V78.8594V80.4688V82.0781V83.6875V85.2969V86.9062V88.5156H22.5312V86.9062V85.2969V83.6875V82.0781V80.4688V78.8594V77.25H24.1406H25.75H27.3594H28.9688H30.5781H32.1875H33.7969H35.4062H37.0156H38.625H40.2344H41.8438H43.4531H45.0625H46.6719H48.2812H49.8906H51.5H53.1094H54.7188H56.3281H57.9375H59.5469H61.1562H62.7656H64.375H65.9844H67.5938H69.2031H70.8125H72.4219H74.0312H75.6406H77.25H78.8594H80.4688V78.8594V80.4688V82.0781V83.6875V85.2969V86.9062V88.5156H82.0781V86.9062V85.2969V83.6875V82.0781V80.4688V78.8594V77.25V75.6406V74.0312V72.4219V70.8125V69.2031V67.5938V65.9844V64.375V62.7656V61.1562V59.5469V57.9375V56.3281V54.7188V53.1094V51.5V49.8906V48.2812V46.6719V45.0625V43.4531V41.8438V40.2344V38.625V37.0156V35.4062V33.7969V32.1875V30.5781V28.9688V27.3594V25.75V24.1406V22.5312V20.9219V19.3125V17.7031V16.0938V14.4844H80.4688ZM80.4688 28.9688V30.5781V32.1875V33.7969V35.4062V37.0156V38.625V40.2344V41.8438V43.4531V45.0625V46.6719V48.2812V49.8906V51.5V53.1094V54.7188V56.3281V57.9375V59.5469V61.1562V62.7656V64.375V65.9844V67.5938V69.2031V70.8125V72.4219V74.0312V75.6406H78.8594H77.25H75.6406H74.0312H72.4219H70.8125H69.2031H67.5938H65.9844H64.375H62.7656H61.1562H59.5469H57.9375H56.3281H54.7188H53.1094H51.5H49.8906H48.2812H46.6719H45.0625H43.4531H41.8438H40.2344H38.625H37.0156H35.4062H33.7969H32.1875H30.5781H28.9688H27.3594H25.75H24.1406H22.5312V74.0312V72.4219V70.8125V69.2031V67.5938V65.9844V64.375V62.7656V61.1562V59.5469V57.9375V56.3281V54.7188V53.1094V51.5V49.8906V48.2812V46.6719V45.0625V43.4531V41.8438V40.2344V38.625V37.0156V35.4062V33.7969V32.1875V30.5781V28.9688V27.3594H24.1406H25.75H27.3594H28.9688H30.5781H32.1875H33.7969H35.4062H37.0156H38.625H40.2344H41.8438H43.4531H45.0625H46.6719H48.2812H49.8906H51.5H53.1094H54.7188H56.3281H57.9375H59.5469H61.1562H62.7656H64.375H65.9844H67.5938H69.2031H70.8125H72.4219H74.0312H75.6406H77.25H78.8594H80.4688V28.9688Z" fill="#FF00FF"/>
<path d="M27.3594 12.875H28.9688H30.5781H32.1875H33.7969H35.4062H37.0156H38.625H40.2344H41.8438H43.4531H45.0625H46.6719H48.2812H49.8906H51.5H53.1094H54.7188H56.3281H57.9375H59.5469H61.1562H62.7656H64.375H65.9844H67.5938H69.2031H70.8125H72.4219H74.0312H75.6406H77.25H78.8594V11.2656H77.25H75.6406H74.0312H72.4219H70.8125H69.2031H67.5938H65.9844H64.375H62.7656H61.1562H59.5469H57.9375H56.3281H54.7188H53.1094H51.5H49.8906H48.2812H46.6719H45.0625H43.4531H41.8438H40.2344H38.625H37.0156H35.4062H33.7969H32.1875H30.5781H28.9688H27.3594H25.75H24.1406V12.875H25.75H27.3594Z" fill="#FF00FF"/>
<path d="M24.1406 12.875H22.5312V14.4844H24.1406V12.875Z" fill="#FF00FF"/>
<path d="M24.1406 88.5156H22.5312V90.125H24.1406V88.5156Z" fill="#FF00FF"/>
<path d="M75.6406 90.125H74.0312H72.4219H70.8125H69.2031H67.5938H65.9844H64.375H62.7656H61.1562H59.5469H57.9375H56.3281H54.7188H53.1094H51.5H49.8906H48.2812H46.6719H45.0625H43.4531H41.8438H40.2344H38.625H37.0156H35.4062H33.7969H32.1875H30.5781H28.9688H27.3594H25.75H24.1406V91.7344H25.75H27.3594H28.9688H30.5781H32.1875H33.7969H35.4062H37.0156H38.625H40.2344H41.8438H43.4531H45.0625H46.6719H48.2812H49.8906H51.5H53.1094H54.7188H56.3281H57.9375H59.5469H61.1562H62.7656H64.375H65.9844H67.5938H69.2031H70.8125H72.4219H74.0312H75.6406H77.25H78.8594V90.125H77.25H75.6406Z" fill="#FF00FF"/>
<path d="M77.25 77.25H75.6406H74.0312H72.4219H70.8125H69.2031H67.5938H65.9844H64.375H62.7656H61.1562H59.5469H57.9375H56.3281H54.7188H53.1094H51.5H49.8906H48.2812H46.6719H45.0625H43.4531H41.8438H40.2344H38.625H37.0156H35.4062H33.7969H32.1875H30.5781H28.9688H27.3594H25.75H24.1406H22.5312V78.8594V80.4688V82.0781V83.6875V85.2969V86.9062V88.5156H24.1406V90.125H25.75H27.3594H28.9688H30.5781H32.1875H33.7969H35.4062H37.0156H38.625H40.2344H41.8438H43.4531H45.0625H46.6719H48.2812H49.8906H51.5H53.1094H54.7188H56.3281H57.9375H59.5469H61.1562H62.7656H64.375H65.9844H67.5938H69.2031H70.8125H72.4219H74.0312H75.6406H77.25H78.8594V88.5156H80.4688V86.9062V85.2969V83.6875V82.0781V80.4688V78.8594V77.25H78.8594H77.25Z" fill="white"/>
<path d="M78.8594 14.4844V12.875H77.25H75.6406H74.0312H72.4219H70.8125H69.2031H67.5938H65.9844H64.375H62.7656H61.1562H59.5469H57.9375H56.3281H54.7188H53.1094H51.5H49.8906H48.2812H46.6719H45.0625H43.4531H41.8438H40.2344H38.625H37.0156H35.4062H33.7969H32.1875H30.5781H28.9688H27.3594H25.75H24.1406V14.4844H22.5312V16.0938V17.7031V19.3125V20.9219V22.5312V24.1406V25.75H24.1406H25.75H27.3594H28.9688H30.5781H32.1875H33.7969H35.4062H37.0156H38.625H40.2344H41.8438H43.4531H45.0625H46.6719H48.2812H49.8906H51.5H53.1094H54.7188H56.3281H57.9375H59.5469H61.1562H62.7656H64.375H65.9844H67.5938H69.2031H70.8125H72.4219H74.0312H75.6406H77.25H78.8594H80.4688V24.1406V22.5312V20.9219V19.3125V17.7031V16.0938V14.4844H78.8594Z" fill="white"/>
<path d="M77.25 27.3594H75.6406H74.0312H72.4219H70.8125H69.2031H67.5938H65.9844H64.375H62.7656H61.1562H59.5469H57.9375H56.3281H54.7188H53.1094H51.5H49.8906H48.2812H46.6719H45.0625H43.4531H41.8438H40.2344H38.625H37.0156H35.4062H33.7969H32.1875H30.5781H28.9688H27.3594H25.75H24.1406H22.5312V28.9688V30.5781V32.1875V33.7969V35.4062V37.0156V38.625V40.2344V41.8438V43.4531V45.0625V46.6719V48.2812V49.8906V51.5V53.1094V54.7188V56.3281V57.9375V59.5469V61.1562V62.7656V64.375V65.9844V67.5938V69.2031V70.8125V72.4219V74.0312V75.6406H24.1406H25.75H27.3594H28.9688H30.5781H32.1875H33.7969H35.4062H37.0156H38.625H40.2344H41.8438H43.4531H45.0625H46.6719H48.2812H49.8906H51.5H53.1094H54.7188H56.3281H57.9375H59.5469H61.1562H62.7656H64.375H65.9844H67.5938H69.2031H70.8125H72.4219H74.0312H75.6406H77.25H78.8594H80.4688V74.0312V72.4219V70.8125V69.2031V67.5938V65.9844V64.375V62.7656V61.1562V59.5469V57.9375V56.3281V54.7188V53.1094V51.5V49.8906V48.2812V46.6719V45.0625V43.4531V41.8438V40.2344V38.625V37.0156V35.4062V33.7969V32.1875V30.5781V28.9688V27.3594H78.8594H77.25Z" fill="white"/>
<path d="M52.6266 8.85156H51.8219V9.65625H52.6266V8.85156Z" fill="#FFC8FF"/>
<path d="M51.1781 13.6797V14.4844V15.2891H51.8219V14.4844V13.6797V12.875H51.1781V13.6797Z" fill="#FFC8FF"/>
<path d="M52.6266 11.2656H51.8219V12.0703H52.6266V11.2656Z" fill="#FFC8FF"/>
<path d="M50.3734 11.2656H49.5688V12.0703H50.3734V11.2656Z" fill="#FFC8FF"/>
<path d="M48.7641 10.4609H47.9594V11.2656H48.7641V10.4609Z" fill="#FFC8FF"/>
<path d="M51.0172 8.85156H50.2125V9.65625H51.0172V8.85156Z" fill="#FFC8FF"/>
<path d="M47.1547 10.4609H46.35V11.2656H47.1547V10.4609Z" fill="#9A298B"/>
<path d="M47.9594 11.2656H46.9938V12.0703V12.875H47.9594V12.0703V11.2656Z" fill="#9A298B"/>
<path d="M48.6031 12.875H47.9594V13.6797V14.4844H48.6031V13.6797V12.875Z" fill="#9A298B"/>
<path d="M49.4078 14.4844H48.6031V15.2891H49.4078V14.4844Z" fill="#9A298B"/>
<path d="M50.3734 15.2891H49.5688V16.0938H50.3734V15.2891Z" fill="#9A298B"/>
<path d="M51.0172 16.0938H50.2125V16.8984H51.0172V16.0938Z" fill="#9A298B"/>
<path d="M55.2016 11.2656H54.3969V12.0703H55.2016V11.2656Z" fill="#9A298B"/>
<path d="M54.2359 12.875H53.4313V13.6797H54.2359V12.875Z" fill="#9A298B"/>
<path d="M52.6266 15.2891H51.8219V16.0938H52.6266V15.2891Z" fill="#9A298B"/>
<path d="M53.5922 8.85156H52.7875V9.65625H53.5922V8.85156Z" fill="#FF96FF"/>
<path d="M54.2359 10.4609H53.4313V11.2656H54.2359V10.4609Z" fill="#FF96FF"/>
<path d="M51.1781 9.65625H50.2125V10.4609H51.1781H51.8219H52.7875V9.65625H51.8219H51.1781Z" fill="#FF96FF"/>
<path d="M50.3734 8.85156H49.5688V9.65625H50.3734V8.85156Z" fill="#FF96FF"/>
<path d="M51.1781 16.0938V16.8984H51.8219V16.0938V15.2891H51.1781V16.0938Z" fill="#FF96FF"/>
<path d="M47.7984 10.4609H46.9938V11.2656H47.7984V10.4609Z" fill="#FF00BE"/>
<path d="M48.7641 11.2656H47.9594V12.0703H48.7641V11.2656Z" fill="#FF00BE"/>
<path d="M49.4078 12.875H48.6031V13.6797H49.4078V12.875Z" fill="#FF00BE"/>
<path d="M51.0172 15.2891H50.2125V16.0938H51.0172V15.2891Z" fill="#FF00BE"/>
<path d="M55.8453 10.4609H55.0406V11.2656H55.8453V10.4609Z" fill="#D700C1"/>
<path d="M54.2359 13.6797H53.4313V14.4844H54.2359V13.6797Z" fill="#D700C1"/>
<path d="M53.5922 14.4844H52.7875V15.2891H53.5922V14.4844Z" fill="#D700C1"/>
<path d="M55.2016 12.0703H54.3969V12.875H55.2016V12.0703Z" fill="#D700C1"/>
<path d="M55.2016 9.65625H54.3969V10.4609H55.2016V9.65625Z" fill="#D700C1"/>
<path d="M53.5922 10.4609H52.7875V11.2656H53.5922V10.4609Z" fill="#D700C1"/>
<path d="M51.9828 11.2656H51.1781V12.0703H51.9828V11.2656Z" fill="#D700C1"/>
<path d="M50.3734 10.4609H49.5688V11.2656H50.3734V10.4609Z" fill="#D700C1"/>
<path d="M48.7641 9.65625H47.9594V10.4609H48.7641V9.65625Z" fill="#D700C1"/>
<path d="M49.5688 12.0703V11.2656H48.6031V12.0703V12.875H49.5688V13.6797V14.4844H50.2125V15.2891H51.1781V14.4844V13.6797V12.875V12.0703H50.2125H49.5688Z" fill="#D700C1"/>
<path d="M55.8453 9.65625H55.0406V10.4609H55.8453V9.65625Z" fill="#FF62FF"/>
<path d="M55.2016 10.4609H54.3969V11.2656H55.2016V10.4609Z" fill="#FF62FF"/>
<path d="M53.4313 9.65625H52.7875V10.4609H53.4313H54.3969V9.65625H53.4313Z" fill="#FF62FF"/>
<path d="M53.5922 11.2656H52.7875V12.0703H53.5922V11.2656Z" fill="#FF62FF"/>
<path d="M51.1781 10.4609H50.2125V11.2656H51.1781H51.8219H52.7875V10.4609H51.8219H51.1781Z" fill="#FF62FF"/>
<path d="M49.5688 9.65625H48.6031V10.4609H49.5688H50.2125V9.65625H49.5688Z" fill="#FF62FF"/>
<path d="M49.4078 13.6797H48.6031V14.4844H49.4078V13.6797Z" fill="#FF62FF"/>
<path d="M50.3734 14.4844H49.5688V15.2891H50.3734V14.4844Z" fill="#FF62FF"/>
<path d="M48.7641 12.0703H47.9594V12.875H48.7641V12.0703Z" fill="#FF62FF"/>
<path d="M51.9828 8.85156H51.1781V9.65625H51.9828V8.85156Z" fill="white"/>
<path d="M51.0172 11.2656H50.2125V12.0703H51.0172V11.2656Z" fill="white"/>
<path d="M51.9828 12.0703H51.1781V12.875H51.9828V12.0703Z" fill="white"/>
<path d="M49.4078 10.4609H48.6031V11.2656H49.4078V10.4609Z" fill="white"/>
<path d="M47.7984 9.65625H46.9938V10.4609H47.7984V9.65625Z" fill="white"/>
<path d="M51.9828 16.8984H51.1781V17.7031H51.9828V16.8984Z" fill="#870075"/>
<path d="M56.8109 10.4609H56.0063V11.2656H56.8109V10.4609Z" fill="#870075"/>
<path d="M55.0406 12.0703V12.875H56.0063V12.0703V11.2656H55.0406V12.0703Z" fill="#870075"/>
<path d="M54.3969 13.6797V14.4844H55.0406V13.6797V12.875H54.3969V13.6797Z" fill="#870075"/>
<path d="M54.2359 14.4844H53.4313V15.2891H54.2359V14.4844Z" fill="#870075"/>
<path d="M53.5922 15.2891H52.7875V16.0938H53.5922V15.2891Z" fill="#870075"/>
<path d="M52.6266 16.0938H51.8219V16.8984H52.6266V16.0938Z" fill="#870075"/>
<path d="M47.9594 8.85156H46.9938V9.65625H47.9594H48.6031H49.5688V8.85156H48.6031H47.9594Z" fill="#FF00FF"/>
<path d="M47.1547 9.65625H46.35V10.4609H47.1547V9.65625Z" fill="#FF00FF"/>
<path d="M53.4313 12.0703H52.7875H51.8219V12.875V13.6797V14.4844V15.2891H52.7875V14.4844H53.4313V13.6797V12.875H54.3969V12.0703V11.2656H53.4313V12.0703Z" fill="#FF00FF"/>
<path d="M52.7875 8.04688H51.8219H51.1781H50.2125H49.5688V8.85156H50.2125H51.1781H51.8219H52.7875H53.4313V8.04688H52.7875Z" fill="#FF00FF"/>
<path d="M55.0406 8.85156H54.3969H53.4313V9.65625H54.3969H55.0406H56.0063V8.85156H55.0406Z" fill="#FF00FF"/>
<path d="M56.8109 9.65625H56.0063V10.4609H56.8109V9.65625Z" fill="#FF00FF"/>
<path d="M36.9537 18.6264V19.0584H37.3797V19.4844H36.9537V19.0584H36.5217V18.6264H36.9537ZM37.3797 19.0584V18.6264H37.8117V19.0584H37.3797ZM36.0957 16.4844H36.5217V18.6264H36.0957V16.4844ZM37.8117 16.4844H38.2377V18.6264H37.8117V16.4844ZM40.3781 16.4844V16.9104H39.0881V16.4844H40.3781ZM40.3781 16.9104H40.8041V19.4844H40.3781V18.2004H39.0881V19.4844H38.6621V16.9104H39.0881V17.7684H40.3781V16.9104ZM41.6545 19.0584H43.3705V19.4844H41.2285V16.4844H41.6545V19.0584ZM45.0789 16.9104H44.6529V19.0584H45.0789V19.4844H43.7949V19.0584H44.2209V16.9104H43.7949V16.4844H45.0789V16.9104ZM45.9319 16.9104V19.0584H47.2219V19.4844H45.5059V16.4844H47.2219V16.9104H45.9319ZM47.2219 16.9104H47.6479V19.0584H47.2219V16.9104ZM51.9311 16.9104H50.2151V17.7684H51.9311V18.2004H50.2151V19.4844H49.7891V16.4844H51.9311V16.9104ZM52.7815 19.4844V19.0584H54.0715V19.4844H52.7815ZM52.3555 16.9104H52.7815V19.0584H52.3555V16.9104ZM54.0715 16.4844V16.9104H52.7815V16.4844H54.0715ZM54.0715 16.9104H54.4975V19.0584H54.0715V16.9104ZM57.0639 17.7684H56.6379V16.9104H57.0639V17.7684ZM55.3479 17.7684H56.6379V18.2004H57.0639V19.4844H56.6379V18.2004H55.3479V19.4844H54.9219V16.4844H56.6379V16.9104H55.3479V17.7684ZM59.6311 19.4844V19.0584H60.9211V19.4844H59.6311ZM59.2051 16.9104H59.6311V19.0584H59.2051V16.9104ZM60.9211 16.4844V16.9104H59.6311V16.4844H60.9211ZM60.9211 16.9104H61.3471V19.0584H60.9211V16.9104ZM62.1975 17.3424H62.6295V17.7684H62.1975V19.4844H61.7715V16.4844H62.1975V17.3424ZM62.6295 17.7684H63.0555V18.2004H62.6295V17.7684ZM63.4875 16.4844H63.9135V19.4844H63.4875V18.6264H63.0555V18.2004H63.4875V16.4844ZM66.4799 16.9104H64.7639V17.7684H66.4799V18.2004H64.7639V19.0584H66.4799V19.4844H64.3379V16.4844H66.4799V16.9104Z" fill="#FF00FF"/>
<path d="M36.5264 82.25V81.824H38.2424V82.25H36.5264ZM38.6684 81.824H38.2424V80.966H38.6684V81.824ZM38.2424 80.966H36.9524V80.534H38.2424V80.966ZM36.5264 79.676H36.9524V80.534H36.5264V79.676ZM38.6684 79.25V79.676H36.9524V79.25H38.6684ZM41.2348 79.676H39.5188V80.534H41.2348V80.966H39.5188V81.824H41.2348V82.25H39.0928V79.25H41.2348V79.676ZM43.8012 80.534H43.3752V79.676H43.8012V80.534ZM42.0852 80.534H43.3752V80.966H43.8012V82.25H43.3752V80.966H42.0852V82.25H41.6592V79.25H43.3752V79.676H42.0852V80.534ZM46.3676 82.25H44.6516V81.824H45.9416V80.534H46.3676V82.25ZM44.2256 79.676H44.6516V81.824H44.2256V79.676ZM46.3676 79.25V79.676H44.6516V79.25H46.3676ZM48.934 79.676H47.218V80.534H48.934V80.966H47.218V81.824H48.934V82.25H46.792V79.25H48.934V79.676ZM50.2164 82.25V80.966H50.6424V82.25H50.2164ZM49.7844 80.534H50.2164V80.966H49.7844V80.534ZM49.3584 79.25H49.7844V80.534H49.3584V79.25ZM50.6424 80.966V80.534H51.0744V80.966H50.6424ZM51.0744 79.25H51.5004V80.534H51.0744V79.25ZM55.7836 80.534H55.3576V79.676H55.7836V80.534ZM54.0676 80.534H55.3576V80.966H54.0676V81.824H55.3576V82.25H53.6416V79.25H55.3576V79.676H54.0676V80.534ZM55.7836 81.824H55.3576V80.966H55.7836V81.824ZM58.35 79.676H56.634V80.534H58.35V80.966H56.634V81.824H58.35V82.25H56.208V79.25H58.35V79.676ZM60.4904 79.25V79.676H59.2004V79.25H60.4904ZM60.4904 79.676H60.9164V82.25H60.4904V80.966H59.2004V82.25H58.7744V79.676H59.2004V80.534H60.4904V79.676ZM63.4828 80.534H63.0568V79.676H63.4828V80.534ZM61.7668 80.534H63.0568V80.966H63.4828V82.25H63.0568V80.966H61.7668V82.25H61.3408V79.25H63.0568V79.676H61.7668V80.534ZM64.3332 79.676V81.824H65.6232V82.25H63.9072V79.25H65.6232V79.676H64.3332ZM65.6232 79.676H66.0492V81.824H65.6232V79.676Z" fill="#FF00FF"/>
<path d="M72.7059 39.5717H71.3805V38.2463V36.921H70.0551H68.7298V35.5956V34.2702H67.4044H66.079H64.7537H63.4283V32.9449V31.6195H62.1029H60.7776H59.4522H58.1268V30.2941V28.9688H56.8015H55.4761H54.1507H52.8254H51.5H50.1746H48.8493H47.5239H46.1985H44.8732V30.2941V31.6195H43.5478H42.2224H40.8971H39.5717V32.9449H38.2463V34.2702H36.921H35.5956H34.2702V35.5956V36.921H32.9449H31.6195V38.2463V39.5717H30.2941H28.9688V40.8971V42.2224V43.5478V44.8732V46.1985V47.5239V48.8493V50.1746V51.5V52.8254V54.1507V55.4761V56.8015V58.1268V59.4522V60.7776V62.1029V63.4283V64.7537H30.2941H31.6195V66.079H32.9449H34.2702V67.4044H35.5956H36.921H38.2463V68.7298H39.5717H40.8971V70.0551H42.2224H43.5478H44.8732V71.3805H46.1985H47.5239H48.8493V72.7059H50.1746V74.0312H51.5H52.8254V72.7059H54.1507V71.3805H55.4761H56.8015H58.1268V70.0551H59.4522H60.7776H62.1029V68.7298H63.4283H64.7537H66.079V67.4044H67.4044H68.7298V66.079H70.0551H71.3805V64.7537H72.7059H74.0312V63.4283V62.1029V60.7776V59.4522V58.1268V56.8015V55.4761V54.1507V52.8254V51.5V50.1746V48.8493V47.5239V46.1985V44.8732V43.5478V42.2224V40.8971V39.5717H72.7059ZM51.5 68.7298H50.1746H48.8493V67.4044H47.5239V66.079H48.8493V64.7537H50.1746H51.5H52.8254H54.1507V66.079H55.4761V67.4044H54.1507V68.7298H52.8254H51.5ZM68.7298 62.1029H67.4044H66.079H64.7537V63.4283H63.4283H62.1029V64.7537H60.7776H59.4522H58.1268V63.4283H56.8015V62.1029H55.4761V60.7776H54.1507H52.8254H51.5H50.1746H48.8493H47.5239V62.1029H46.1985V63.4283H44.8732V64.7537H43.5478H42.2224H40.8971V63.4283H39.5717H38.2463V62.1029H36.921H35.5956H34.2702H32.9449V60.7776V59.4522V58.1268V56.8015V55.4761V54.1507V52.8254V51.5V50.1746V48.8493V47.5239V46.1985V44.8732H34.2702V43.5478V42.2224V40.8971H35.5956V39.5717H36.921H38.2463H39.5717V38.2463H40.8971H42.2224H43.5478H44.8732V39.5717H46.1985H47.5239H48.8493V40.8971H50.1746H51.5H52.8254H54.1507V39.5717H55.4761H56.8015H58.1268V38.2463H59.4522H60.7776H62.1029H63.4283V39.5717H64.7537H66.079H67.4044V40.8971H68.7298V42.2224V43.5478V44.8732H70.0551V46.1985V47.5239V48.8493V50.1746V51.5V52.8254V54.1507V55.4761V56.8015V58.1268V59.4522V60.7776V62.1029H68.7298Z" fill="#773E1D"/>
</svg>
