<svg width="1330" height="1734" viewBox="0 0 1330 1734" fill="none" xmlns="http://www.w3.org/2000/svg">
<path d="M1271.6 57.8V0H1213.8V57.8H1156V0H1098.2V57.8H1040.4V0H982.6V57.8H924.8V0H867V57.8H809.2V0H751.4V57.8H693.6V0H635.8V57.8H578V0H520.2V57.8H462.4V0H404.6V57.8H346.8V0H289V57.8H231.2V0H173.4V57.8H115.6V0H57.8V57.8H0V1734H57.8V1676.2H115.6V1734H173.4V1676.2H231.2V1734H289V1676.2H346.8V1734H404.6V1676.2H462.4V1734H520.2V1676.2H578V1734H635.8V1676.2H693.6V1734H751.4V1676.2H809.2V1734H867V1676.2H924.8V1734H982.6V1676.2H1040.4V1734H1098.2V1676.2H1156V1734H1213.8V1676.2H1271.6V1734H1329.4V57.8H1271.6Z" fill="#8064FF"/>
<path d="M144.5 1329.4V1531.7H173.4V1560.6H1156V1531.7H1184.9V1329.4H144.5ZM1156 202.3V173.4H173.4V202.3H144.5V404.6H1184.9V202.3H1156ZM144.5 433.5V1300.5H1184.9V433.5H144.5Z" fill="white"/>
<path d="M1156 173.4H1184.9V202.3H1156V173.4ZM1156 1531.7H1184.9V1560.6H1156V1531.7Z" fill="#5D24BF"/>
<path d="M1184.9 202.3V404.6H144.5V202.3H115.6V1531.7H144.5V1329.4H1184.9V1531.7H1213.8V202.3H1184.9ZM1184.9 1300.5H144.5V433.5H1184.9V1300.5ZM1156 173.4V144.5H173.4V173.4H1156Z" fill="#5D24BF"/>
<path d="M144.5 173.4H173.4V202.3H144.5V173.4ZM144.5 1531.7H173.4V1560.6H144.5V1531.7Z" fill="#5D24BF"/>
<path d="M173.4 1560.6V1589.5H1156V1560.6H173.4ZM246.6 296.1H256.9V347.7H246.6V296.1ZM267.2 347.7V358.1H277.5V368.4H267.2V358.1H256.8V347.7H267.2ZM277.5 358.1V347.7H287.9V358.1H277.5ZM287.9 296.1H298.2V347.7H287.9V296.1ZM356.7 306.4H367V368.4H356.7V337.5H325.6V368.4H315.3V306.4H325.6V327.1H356.7V306.4ZM356.7 296.1V306.4H325.6V296.1H356.7ZM435.7 358.1V368.4H384.1V296.2H394.4V358.2L435.7 358.1ZM473.6 306.4V358.1H483.9V368.4H453V358.1H463.3V306.4H453V296.1H483.9V306.4H473.6ZM511.3 306.4V358.1H542.4V368.4H501.1V296.2H542.4V306.5L511.3 306.4ZM542.4 306.4H552.7V358.1H542.4V306.4ZM628.3 306.4V327.1H669.6V337.5H628.3V368.4H618V296.2H669.6V306.5L628.3 306.4ZM686.9 306.4H697.2V358.1H686.9V306.4ZM728.2 296.1V306.4H697.1V296.1H728.2ZM697.1 368.4V358.1H728.2V368.4H697.1ZM728.2 306.4H738.5V358.1H728.2V306.4ZM765.9 327H797V337.4H807.3V368.3H797V337.4H765.9V368.3H755.6V296.1H796.9V306.4H765.8L765.9 327ZM807.2 327H796.9V306.3H807.2V327ZM872.7 306.4H883V358.1H872.7V306.4ZM914 296.1V306.4H882.9V296.1H914ZM882.9 368.4V358.1H914V368.4H882.9ZM914 306.4H924.3V358.1H914V306.4ZM951.7 316.8H962.1V327.1H951.7V368.4H941.4V296.2H951.7V316.8ZM962.1 327H972.4V337.4H962.1V327ZM982.8 296.1H993.1V368.3H982.8V347.6H972.4V337.3H982.8V296.1ZM1020.5 306.4V327.1H1061.8V337.5H1020.5V358.2H1061.8V368.5H1010.2V296.3H1061.8V306.6H1020.5V306.4Z" fill="#5D24BF"/>
<path d="M629 145.2H643.7V159.9H629V145.2Z" fill="white"/>
<path d="M643.7 130.5H658.4V145.2H643.7V130.5Z" fill="white"/>
<path d="M673.1 115.8H687.8V130.5H673.1V115.8Z" fill="#B135FF"/>
<path d="M687.8 130.5V145.2H673.1V159.9H643.7V174.6H614.3V189.4H673.1V174.6H687.8V159.9H702.5V130.5H687.8ZM599.5 159.9H614.2V174.6H599.5V159.9Z" fill="#B135FF"/>
<path d="M599.5 145.2H614.2V159.9H599.5V145.2ZM614.3 159.9H629V174.6H614.3V159.9ZM658.4 115.8H673.1V130.5H658.4V115.8Z" fill="#CB5BFF"/>
<path d="M673.1 130.5H687.8V145.2H673.1V130.5ZM702.5 130.5H717.2V145.2H702.5V130.5Z" fill="#CB5BFF"/>
<path d="M717.2 145.2H731.9V159.9H717.2V145.2ZM643.7 145.2V159.9H673.1V145.2H643.7ZM629 189.4H614.3V204.1H643.7V189.4H629Z" fill="#CB5BFF"/>
<path d="M643.7 204.1V218.8H673.1V204.1H643.7Z" fill="#CB5BFF"/>
<path d="M614.3 130.5V159.9H629V145.2H643.7V130.5H614.3Z" fill="#F37AFF"/>
<path d="M643.7 115.8H658.4V130.5H643.7V115.8ZM717.2 159.9H731.9V174.6H717.2V159.9ZM673.1 204.1H687.8V218.8H673.1V204.1Z" fill="#F37AFF"/>
<path d="M687.8 189.4H702.5V204.1H687.8V189.4Z" fill="#F37AFF"/>
<path d="M658.4 130.5H673.1V145.2H658.4V130.5ZM629 159.9H643.7V174.6H629V159.9ZM702.5 189.4H717.2V204.1H702.5V189.4ZM717.2 174.6H731.9V189.3H717.2V174.6Z" fill="#FFC9FF"/>
<path d="M658.4 218.8V233.5H687.8V218.8H658.4Z" fill="#3A2B77"/>
<path d="M687.8 204.1V218.8H717.2V204.1H687.8Z" fill="#3A2B77"/>
<path d="M717.2 189.4H731.9V204.1H717.2V189.4Z" fill="#3A2B77"/>
<path d="M731.9 159.9V189.4H746.6V159.9H731.9Z" fill="#3A2B77"/>
<path d="M599.5 189.4H614.2V204.1H599.5V189.4ZM629 204.1H614.3V218.8H643.7V204.1H629Z" fill="#47289B"/>
<path d="M643.7 218.8H658.4V233.5H643.7V218.8ZM731.9 145.2H746.6V159.9H731.9V145.2Z" fill="#47289B"/>
<path d="M717.2 130.5H731.9V145.2H717.2V130.5ZM658.4 189.4V204.1H687.8V189.4H658.4ZM702.5 174.6V189.4H717.2V159.9H702.5V174.6Z" fill="#47289B"/>
<path d="M599.5 174.6H614.2V189.3H599.5V174.6ZM702.5 145.2H717.2V159.9H702.5V145.2Z" fill="#6F16E2"/>
<path d="M687.8 174.6H673.1V189.4H702.5V159.9H687.8V174.6Z" fill="#6F16E2"/>
<path d="M673.1 101.1H643.7V115.8H687.8V101.1H673.1ZM584.8 159.9V189.4H599.5V145.2H584.8V159.9Z" fill="#5D24BF"/>
<path d="M702.5 115.8H687.8V130.5H717.2V115.8H702.5ZM643.7 189.4H658.4V204.1H643.7V189.4ZM614.3 115.8V130.5H643.7V115.8H614.3ZM599.5 130.5H614.2V145.2H599.5V130.5Z" fill="#5D24BF"/>
<path d="M1014.7 654.5V679.5H989.7V704.5H964.7V729.5H939.7V754.5H914.7V779.5H889.7V804.5H839.7V829.5H789.7V854.5H714.7V879.5H614.7V854.5H539.7V829.5H489.7V804.5H439.7V779.5H414.7V754.5H389.7V729.5H364.7V704.5H339.7V679.5H314.7V654.5H264.7V1079.5H1064.7V654.5H1014.7ZM1114.7 704.5V679.5H1089.7V829.5H1114.7V854.5H1139.7V704.5H1114.7ZM214.7 704.5H189.7V854.5H214.7V829.5H239.7V679.5H214.7V704.5Z" fill="#870AFF"/>
<path d="M314.7 654.5H339.7V679.5H314.7V654.5ZM364.7 704.5H389.7V729.5H364.7V704.5Z" fill="#550AAA"/>
<path d="M339.7 679.5H364.7V704.5H339.7V679.5ZM414.7 754.5H439.7V779.5H414.7V754.5Z" fill="#550AAA"/>
<path d="M389.7 729.5H414.7V754.5H389.7V729.5ZM489.7 804.5H539.7V829.5H489.7V804.5Z" fill="#550AAA"/>
<path d="M439.7 779.5H489.7V804.5H439.7V779.5ZM989.7 654.5H1014.7V679.5H989.7V654.5ZM939.7 704.5H964.7V729.5H939.7V704.5Z" fill="#550AAA"/>
<path d="M964.7 679.5H989.7V704.5H964.7V679.5ZM889.7 754.5H914.7V779.5H889.7V754.5Z" fill="#550AAA"/>
<path d="M914.7 729.5H939.7V754.5H914.7V729.5ZM789.7 804.5H839.7V829.5H789.7V804.5Z" fill="#550AAA"/>
<path d="M839.7 779.5H889.7V804.5H839.7V779.5ZM614.7 854.5H714.7V879.5H614.7V854.5Z" fill="#550AAA"/>
<path d="M539.7 829.5H614.7V854.5H539.7V829.5ZM714.7 829.5H789.7V854.5H714.7V829.5ZM1139.7 704.5V854.5H1114.7V879.5H1164.7V704.5H1139.7Z" fill="#550AAA"/>
<path d="M1114.7 679.5H1139.7V704.5H1114.7V679.5ZM189.7 704.5H164.7V879.5H214.7V854.5H189.7V704.5Z" fill="#550AAA"/>
<path d="M189.7 679.5H214.7V704.5H189.7V679.5Z" fill="#550AAA"/>
<path d="M1089.7 829.5V679.5H1114.7V654.5H1089.7V629.5H1014.7V654.5H1064.7V1079.5H264.7V654.5H314.7V629.5H239.7V654.5H214.7V679.5H239.7V829.5H214.7V854.5H239.7V1104.5H1089.7V854.5H1114.7V829.5H1089.7Z" fill="#550AAA"/>
<path d="M527.2 954.5H602.2V979.5H527.2V954.5ZM527.2 904.5H602.2V929.5H527.2V904.5ZM527.2 1004.5H602.2V1029.5H527.2V1004.5ZM627.2 904.5V929.5H652.2V1029.5H677.2V929.5H702.2V904.5H627.2ZM777.2 904.5V954.5H752.2V904.5H727.2V1029.5H752.2V979.5H777.2V1029.5H802.2V904.5H777.2Z" fill="white"/>
<path d="M428.9 1418.22H387.716V1438.82H428.9V1449.18H387.716V1469.78H428.9V1480H377.492V1408H428.9V1418.22ZM490.494 1408V1418.22H469.902V1480H459.678V1418.22H439.086V1408H490.494ZM541.864 1408H552.088V1480H541.864V1449.18H510.904V1480H500.68V1408H510.904V1438.82H541.864V1408ZM654.885 1408V1418.22H634.293V1480H624.069V1418.22H603.477V1408H654.885ZM665.07 1480V1469.78H706.254V1480H665.07ZM716.478 1469.78H706.254V1449.18H716.478V1469.78ZM706.254 1449.18H675.294V1438.82H706.254V1449.18ZM665.07 1418.22H675.294V1438.82H665.07V1418.22ZM716.478 1408V1418.22H675.294V1408H716.478ZM767.848 1408H778.072V1480H767.848V1449.18H736.888V1480H726.664V1408H736.888V1438.82H767.848V1408ZM819.074 1418.22H808.85V1469.78H819.074V1480H788.258V1469.78H798.482V1418.22H788.258V1408H819.074V1418.22ZM880.728 1438.82H870.504V1418.22H880.728V1438.82ZM839.544 1438.82H870.504V1449.18H880.728V1480H870.504V1449.18H839.544V1480H829.32V1408H870.504V1418.22H839.544V1438.82ZM942.322 1408V1418.22H921.73V1480H911.506V1418.22H890.914V1408H942.322Z" fill="#5D24BF"/>
</svg>
