<svg xmlns="http://www.w3.org/2000/svg" viewBox="0 0 1329.4 1734"  xmlns:v="https://vecta.io/nano"><path d="M1300.5 57.8h-28.9V0h-57.8v57.8H1156V0h-57.8v57.8h-57.8V0h-57.8v57.8h-57.8V0H867v57.8h-57.8V0h-57.8v57.8h-57.8V0h-57.8v57.8H578V0h-57.8v57.8h-57.8V0h-57.8v57.8h-57.8V0H289v57.8h-57.8V0h-57.8v57.8h-57.8V0H57.8v57.8H0V1734h57.8v-57.8h57.8v57.8h57.8v-57.8h57.8v57.8H289v-57.8h57.8v57.8h57.8v-57.8h57.8v57.8h57.8v-57.8H578v57.8h57.8v-57.8h57.8v57.8h57.8v-57.8h57.8v57.8H867v-57.8h57.8v57.8h57.8v-57.8h57.8v57.8h57.8v-57.8h57.8v57.8h57.8v-57.8h57.8v57.8h57.8V57.8z" fill="#51ffa8"/><g fill="#1e661e"><path d="M1156 173.4h28.9v28.9H1156zm0 1358.3h28.9v28.9H1156z"/><path d="M1184.9 202.3v202.3H144.5V202.3h-28.9v1329.4h28.9v-202.3h1040.4v202.3h28.9V202.3h-28.9zm0 260.1v838.1H144.5v-867h1040.4v28.9zm-953.7-289H1156v-28.9H173.4v28.9h28.9z"/><path d="M144.5 173.4h28.9v28.9h-28.9zm0 1358.3h28.9v28.9h-28.9z"/><path d="M1098.2 1560.6H173.4v28.9H1156v-28.9h-28.9z"/></g><g fill="#fff"><path d="M1127.1 1329.4H144.5v202.3h28.9v28.9H1156v-28.9h28.9v-202.3H1156zM1156 202.3v-28.9H173.4v28.9h-28.9v202.3h1040.4V202.3zm-28.9 231.2H144.5v867h1040.4v-867H1156z"/><path d="M942.1,861.2h-46.2v23.1h69.4v-23.1H942.1z"/></g><g fill="#f3410a"><path d="M595.3 884.3V1023h23.1V861.2h-23.1v23.1zm-23.1 138.8h23.1v23.1h-23.1v-23.1z"/><path d="M526 1046.2H317.9v23.1h254.3v-23.1H526zm208.1-23.1h23.1v23.1h-23.1v-23.1zm0-46.3V861.2H711V1023h23.1v-46.2zm-439.3 0V722.5h23.1v23.1h46.2v23.1h46.2v23.1h46.2V815h46.2v23.1h46.2v23.1h46.2v-23.1H572V815h-46v-23.1h-46.2v-23.1h-46.2v-23.1h-46.2v-23.1H341v-23.1h-69.4v323.7h23.1v-23.1l.1-23.3z"/><path d="M1034.6 699.4h-46.2v23.1h-46.2v23.1H896v23.1h-46.2v23.1h-46.2V815h-46.2v23.1h-23.1v23.1h46.2v-23.1h46.2V815h46.2v-23.1H919v-23.1h46.2v-23.1h46.2v-23.1h23.1v300.6h23.1V699.4h-23zm-739.8 323.7h23.1v23.1h-23.1v-23.1z"/><path d="M1011.5 1023.1h23.1v23.1h-23.1v-23.1z"/><path d="M965.3 1046.2H757.2v23.1h254.3v-23.1h-46.2z"/></g><path d="M549.1 861.2v-23.1h-46.2V815h-46.2v-23.1h-46.2v-23.1h-46.2v-23.1h-46.2v-23.1H295v300.6h23.1v23.1h254.3v-23.1h23.1v-162h-46.4zm462.4-138.7v23.1h-46.2v23.1H919v23.1h-46.2V815h-46.2v23.1h-46.2v23.1h-46.2V1023h23.1v23.1h254.3V1023h23.1V722.5h-23.2zM919 861.2h46.2v23.1h-69.4v-23.1H919zm-254.3 92.5h-46.2v46.2H711v-46.2h-46.3zm0-69.4h-46.2v46.2H711v-46.2h-46.3z"/><path d="M251.8 1409.8h11v66.5h-11v-33.2h-33.3v33.2h-11v-66.5h11v22.2h33.3v-22.2zm0-11v11h-33.3v-11h33.3zm70.2 11h11v66.5h-11v-33.2h-33.3v33.2h-11v-66.5h11v22.2H322v-22.2zm0-11v11h-33.3v-11H322zm25.9 0h11v55.3h-11v-55.3zm22.2 55.3v11.2h11v11h-11v-11h-11.2v-11.2h11.2zm11 11.2v-11.2h11.2v11.2h-11.2zm11.2-66.5h11v55.3h-11v-55.3zm36.8 11v22.2h44.3v11.2h-44.3v22.2h44.3v11h-55.3v-77.5h55.3v11h-44.3zm162.8 55.5v11h-55.3v-77.5h11v66.5h44.3zm37-55.5v55.5h11v11h-33.2v-11h11v-55.5h-11v-11h33.2v11h-11zm36.9 0v22.2h44.3v11.2h-44.3v33.2h-11v-77.5h55.3v11h-44.3zm70.2 0v22.2h44.3v11.2H736v22.2h44.3v11H725v-77.5h55.3v11H736zm107.5-11h11v55.3h-11v-55.3zm22.1 55.3v11.2h11v11h-11v-11h-11.2v-11.2h11.2zm11 11.2v-11.2h11.2v11.2h-11.2zm11.2-66.5h11v55.3h-11v-55.3zm36.9 11v22.2H969v11.2h-44.3v22.2H969v11h-55.3v-77.5H969v11h-44.3zm59.2 0h11v22.2h-11v-22.2zm0 66.5v-11h44.3v11h-44.3zm55.3-77.5v11h-44.3v-11h44.3zm-11 44.3h-33.3V1432h33.3v11.1zm11 22.2h-11v-22.2h11v22.2zm70.2-55.5h-22.2v66.5h-11v-66.5H1054v-11h55.3v11zm-870-1117.3h11v55.3h-11v-55.3zm22.2 55.3V359h11v11h-11v-11h-11.2v-11.2h11.2zm11 11.2v-11.2h11.2V359h-11.2zm11.2-66.5h11v55.3h-11v-55.3zm70.2 11h11V370h-11v-33.2h-33.3V370h-11v-66.5h11v22.2H354v-22.2zm0-11v11h-33.3v-11H354zm81.2 66.5v11h-55.3v-77.5h11V359h44.3zm37-55.5V359h11v11H450v-11h11v-55.5h-11v-11h33.2v11h-11zm36.9 0V359h33.3v11h-44.3v-77.5h44.3v11h-33.3zm33.4 0h11V359h-11v-55.5zm85.1 0v22.2h44.3v11.2h-44.3V370h-11v-77.5h55.3v11h-44.3zm59.2 0h11V359h-11v-55.5zm44.3-11v11h-33.3v-11h33.3zM697.8 370v-11h33.3v11h-33.3zm33.3-66.5h11V359h-11v-55.5zm36.9 22.2h33.3v11.2h11V370h-11v-33.2H768V370h-11v-77.5h44.3v11H768v22.2zm44.3 0h-11v-22.2h11v22.2zm63.1-22.2h11V359h-11v-55.5zm44.3-11v11h-33.3v-11h33.3zM886.4 370v-11h33.3v11h-33.3zm33.3-66.5h11V359h-11v-55.5zm36.9 11.2h11.2v11h-11.2V370h-11v-77.5h11v22.2zm11.2 11h11v11.2h-11v-11.2zm22.1-33.2h11V370h-11v-22.2h-11.2v-11h11.2v-44.3zm36.9 11v22.2h44.3v11.2h-44.3V359h44.3v11h-55.3v-77.5h55.3v11h-44.3z" fill="#1e661e"/><g fill="#815382"><path d="M592.4 158.9h14.5v14.5h-14.5zm14.5 72.3h-14.5v28.9h14.5v-14.5zm86.7-144.5h14.5v14.5h-14.5z"/><path d="M708.1 130h14.4v-28.9h-14.4v14.5zm14.4 115.6H737v14.5h-14.5z"/><path d="M708.1 260.1h14.5v14.5h-14.5zm-101.2 0h14.5v14.5h-14.5zm28.9 43.3h14.5v14.5h-14.5zm-57.8-130h14.5v14.5H578z"/></g><g fill="#fff"><path d="M621.3 202.3v-14.5h14.5v-43.3h14.4V130h14.5v-14.4h14.4v-14.5h-28.9v14.5h-14.4V130h-14.5v43.4h-14.4v43.3h14.4zm0 72.2h14.5V289h-14.5z"/><path d="M664.7 289h-28.9v14.4h57.8V289h-14.5z"/><path d="M693.6 274.5V289h14.5v-28.9h-14.5z"/><path d="M708.1 231.2v28.9h14.4v-43.4h-14.4z"/><path d="M722.5 173.4v43.3H737v-43.3z"/><path d="M722.5 144.5V130h-14.4v43.4h14.4v-14.5zm-43.4-28.9h14.5v14.5h-14.5z"/></g><g fill="#2b59ff"><path d="M650.2 202.3h-14.4v14.4h28.9v-28.9h-14.5zm14.5-86.7h14.5v14.5h-14.5z"/><path d="M679.1 130h14.5v14.5h-14.5z"/></g><g fill="#54acff"><path d="M635.8 86.7h14.5v14.5h-14.5zM606.9 130h14.5v14.5h-14.5zm72.2 72.3v-14.5h-14.4v28.9h14.4zm0 72.2h14.5V289h-14.5z"/><path d="M635.8 216.7v14.5h28.9v-14.5h-14.5zm43.3-115.6h14.5v14.5h-14.5z"/><path d="M693.6 115.6v28.9h14.5v-28.9z"/><path d="M679.1 144.5h14.5V159h-14.5zm-43.3 28.9h14.5v14.5h-14.5z"/></g><g fill="#51ffa8"><path d="M635.8 101.1h14.5v14.5h-14.5zm57.8 0h14.5v14.5h-14.5zm-72.3 86.7v14.5h28.9v-14.5h-14.4zm-14.4 57.8v14.5h28.9v-14.5h-14.5zm43.3 14.5h14.5v14.5h-14.5zm28.9-14.5h14.5v14.5h-14.5z"/><path d="M693.6 231.2h14.5v14.5h-14.5zm-43.4-57.8h14.5v14.5h-14.5zm28.9-14.5h14.5v14.5h-14.5zm-57.8-43.3h14.5v14.5h-14.5z"/></g><g fill="#0f0"><path d="M693.6 158.9v14.5h-28.9v14.4h43.4v-28.9zm-72.3-57.8h14.5v14.5h-14.5zm28.9 144.5v14.5h28.9v-14.5h-14.4z"/><path d="M621.3 260.1v14.4h28.9v-14.4h-14.4z"/></g><g fill="#baffff"><path d="M621.3 158.9v-14.4h-14.4v28.9h14.4zm43.4 14.5h14.4v-14.5h-28.9v-14.4h-14.4v28.9h14.4zm43.4 0v14.4h-29v43.4h-72.2v14.4h28.9v14.5h14.4v-14.5h43.4v-14.4h14.5v-14.5h-14.5v-14.4h14.5v14.4h14.4v-43.3z"/><path d="M693.6 245.6h14.5v14.5h-14.5z"/><path d="M664.7 260.1v14.4h-28.9V289h43.3v-14.5h14.5v-14.4h-14.5zm28.9-115.6h14.5V159h-14.5zm-86.7 57.8v-28.9h-14.5v43.3h14.5zm72.2-101.2h14.5V86.7h-43.4v14.4h14.5z"/></g><g fill="#1e661e"><path d="M621.3 115.6v-14.5h-14.4V130h14.4z"/><path d="M606.9 144.5V130h-14.5v28.9h14.5zM578 202.3v14.4h14.4v-28.9H578zm28.9 72.2h14.5V289h-14.5z"/><path d="M621.3 289h14.5v14.5h-14.5zM737 144.5V130h-14.5v28.9H737zm0 43.3v28.9h14.4v-28.9zM664.7 72.2h-14.5v14.5h43.4V72.2h-14.5zm0 231.2h-14.5v14.5h43.4v-14.5h-14.5z"/></g><g fill="#33297c"><path d="M722.5 158.9H737v14.5h-14.5z"/><path d="M737 173.4h14.5v14.5H737zm-14.5 57.8v14.4H737v-28.9h-14.5zm-14.4 43.3h14.5V289h-14.5z"/><path d="M693.6 289h14.5v14.5h-14.5zM635.8 72.2h14.5v14.5h-14.5z"/><path d="M621.3 86.7h14.5v14.5h-14.5zm-28.9 130h14.5v14.5h-14.5z"/></g><g fill="#ffc4e1"><path d="M606.9 216.7h14.5v14.5h-14.5z"/><path d="M621.3 202.3h14.5v14.5h-14.5zm43.4 14.4h14.5v14.5h-14.5zM650.2 130h14.5v14.5h-14.5z"/><path d="M664.7 144.5h14.5V159h-14.5z"/></g><g fill="#ff93c9"><path d="M621.3 216.7h14.5v14.5h-14.5zm72.3-14.4h14.5v14.5h-14.5zm-43.4-57.8h14.5V159h-14.5z"/><path d="M664.7 130h14.5v14.5h-14.5z"/></g></svg>