<svg xmlns="http://www.w3.org/2000/svg" viewBox="0 0 1329.4 1734"  xmlns:v="https://vecta.io/nano"><path d="M1300.5 57.8h-28.9V0h-57.8v57.8H1156V0h-57.8v57.8h-57.8V0h-57.8v57.8h-57.8V0H867v57.8h-57.8V0h-57.8v57.8h-57.8V0h-57.8v57.8H578V0h-57.8v57.8h-57.8V0h-57.8v57.8h-57.8V0H289v57.8h-57.8V0h-57.8v57.8h-57.8V0H57.8v57.8H0V1734h57.8v-57.8h57.8v57.8h57.8v-57.8h57.8v57.8H289v-57.8h57.8v57.8h57.8v-57.8h57.8v57.8h57.8v-57.8H578v57.8h57.8v-57.8h57.8v57.8h57.8v-57.8h57.8v57.8H867v-57.8h57.8v57.8h57.8v-57.8h57.8v57.8h57.8v-57.8h57.8v57.8h57.8v-57.8h57.8v57.8h57.8V57.8z" fill="#ffc36b"/><g fill="#ea8c27"><path d="M1156 173.4h28.9v28.9H1156zm0 1358.3h28.9v28.9H1156z"/><path d="M1184.9 202.3v202.3H144.5V202.3h-28.9v1329.4h28.9v-202.3h1040.4v202.3h28.9V202.3h-28.9zm0 260.1v838.1H144.5v-867h1040.4v28.9zm-953.7-289H1156v-28.9H173.4v28.9h28.9z"/><path d="M144.5 173.4h28.9v28.9h-28.9zm0 1358.3h28.9v28.9h-28.9z"/><path d="M1098.2 1560.6H173.4v28.9H1156v-28.9h-28.9z"/></g><path d="M1127.1 1329.4H144.5v202.3h28.9v28.9H1156v-28.9h28.9v-202.3H1156zM1156 202.3v-28.9H173.4v28.9h-28.9v202.3h1040.4V202.3zm-28.9 231.2H144.5v867h1040.4v-867H1156z" fill="#fff"/><g fill="#b8c7dc"><path d="M595.3 757.2h-46.2v-23.1h-46.2v23.1H526v23.1h23.1v23.1h23.1v-23.1h23.1v23.1h23.1v-23.1h23.1v-23.1h-46.2zm138.8 23.1h23.1v23.1h23.1v-23.1h23.1v-23.1h23.1v-23.1h-46.2v23.1h-92.5v23.1h23.1v23.1H734l.1-23.1z"/><path d="M572.2 803.4h23.1v23.1h-23.1v-23.1zm161.9 0h23.1v23.1h-23.1v-23.1z"/><path d="M595.3 826.5v23.1h-23.1v-23.1h-23.1v-23.1H526v-23.1h-23.1v-23.1h-23.1v-23.1h-23.1V711h-46.2v-23.1h-46.2v-23.1h-46.2v-23.1h-69.4v23.1h-23.1v138.7h23.1v-23.1h23.1v23.1h23.1v138.7h346.8V803.4h-23.1v23.1h-23.3zm-138.7 0h-92.5v-23.1h92.5v23.1zm624.3-161.8v-23.1h-69.4v23.1h-46.2v23.1H919v23.1h-46.2V734h-23.1v23.1h-23.1v23.1h-23.1v23.1h-23.1v23.1h-23.1v23.1h-23.1v-23.1h-23.1v-23.1H688V942h346.8V803.4h23.1v-23.1h23.1v23.1h23.1V664.7h-23.2zM965.3 826.5h-92.5v-23.1h92.5v23.1z"/></g><g fill="#4a71a6"><path d="M618.5 965.3H341v69.4h-23.1v23.1h-23.1v23.1h69.4v-46.2h115.6v46.2h115.6v-46.2h69.4v-69.4h-46.3z"/><path d="M317.9 988.4v-23.1h-23.1v69.4h23.1v-46.3zm693.6-23.1v69.4h23.1v-69.4h-23.1z"/><path d="M988.4 1011.5v-46.2H687.8v69.4H734v46.2h115.6v-46.2h115.6v46.2h69.4v-23.1h-23.1v-23.1h-23.1v-23.2z"/></g><g fill="#15488c"><path d="M410.4 826.5h46.2v-23.1h-92.5v23.1h46.3zm23.1-115.6h23.1v-23.1h-46.2v23.1h23.1zm138.7 46.3h69.4v-23.1h-92.5v23.1h23.1zm115.6 23.1h23.1v23.1h-23.1v-23.1zm46.3-23.1h46.2v-23.1h-92.5v23.1h46.3z"/><path d="M826.5 734.1v23.1h23.1v-23.1h23.1V711h-92.5v23.1h46.3zm-346.8 0v23.1h23.1v-23.1H549V711h-92.5v23.1h23.2zm92.5 92.4h23.1v23.1h-23.1v-23.1zM919 803.4h-46.2v23.1h92.5v-23.1H919zm0-92.5v-23.1h-46.2v23.1H919zM734.1 826.5h23.1v23.1h-23.1v-23.1z"/><path d="M710.9 803.4H734v23.1h-23.1v-23.1zm-115.6 0h23.1v23.1h-23.1v-23.1zM294.8 641.6h23.1v-23.1h-69.4v23.1h46.3zm716.7 23.1v-23.1h-46.2v23.1h46.2z"/><path d="M341 664.7h23.1v-23.1h-46.2v23.1H341zm716.7-23.1h23.1v-23.1h-69.4v23.1h46.3zm-23.1 184.9v115.6H664.7V919h23.1v-23.1h-23.1v-23.1h23.1v-23.1h-23.1v-23.1h23.1v-23.1h-23.1v-23.1h23.1v-23.1h-46.2v23.1h-23.1v23.1h23.1v138.7H294.8V803.4h-23.1v323.7h92.5v-46.2h-69.4v-23.1h23.1v-23.1h-23.1v-69.4h23.1v69.4H341v-69.4h323.7v69.4h-69.4v46.2H734v-46.2h-46.2v-69.4h300.6v69.4h23.1v-69.4h23.1v69.4h-23.1v23.1h23.1v23.1h-69.4v46.2h92.5V803.4h-23.1v23.1zm-69.3-138.7v-23.1H919v23.1h46.3zm-161.9 69.4h23.1v23.1h-23.1v-23.1z"/><path d="M780.3 780.3h23.1v23.1h-23.1v-23.1zm-393-92.5h23.1v-23.1h-46.2v23.1h23.1zM526 780.3h23.1v23.1H526v-23.1z"/><path d="M502.9 757.2H526v23.1h-23.1v-23.1zm46.2 46.2h23.1v23.1h-23.1v-23.1zm208.1 0h23.1v23.1h-23.1v-23.1zm-508.7-23.1h23.1v23.1h-23.1v-23.1zm-23.1-138.7h23.1v23.1h-23.1v-23.1z"/><path d="M225.4 780.3V664.7h-23.1v161.8h46.2v-23.1h-23.1v-23.1zm832.3 0h23.1v23.1h-23.1v-23.1zm23.2-138.7h23.1v23.1h-23.1v-23.1z"/><path d="M1104 664.7v138.7h-23.1v23.1h46.2V664.7H1104zm-624.3 369.9H364.1v46.2h115.6v-46.2zm69.4 46.3h-69.4v46.2h115.6v-46.2h-46.2zm416.2-46.3H849.7v46.2h115.6v-46.2zm-161.9 46.3H734v46.2h115.6v-46.2h-46.2z"/></g><path d="M644.4 173.3h14.4v14.4h-14.4zm14.5-86.7v86.7h14.4V86.6z" fill="#fff"/><path d="M644.4 115.5h14.4v14.4h-14.4zm14.5 57.8h14.4v14.4h-14.4zm-43.4 0v14.5h28.9v-14.5H630z" fill="#ffffc4"/><g fill="#ffd596"><path d="M644.4 231.1h14.4v14.4h-14.4zm14.5-28.9h14.4v14.4h-14.4zm-14.5-43.3v-14.5H630v28.9h14.4z"/><path d="M644.4 130h14.4v14.4h-14.4zm57.8 43.3h-14.5v14.5h28.9v-14.5z"/></g><g fill="#ffc36b"><path d="M658.9 216.7h-14.5v14.4h28.9v-14.4zm0-28.9h14.4v14.4h-14.4zm0-28.9v-14.5h-14.5v28.9h14.5zm14.4 14.4h14.4v14.4h-14.4z"/><path d="M673.3 231.1h14.4v14.4h-14.4zm14.4-28.9h14.4v14.4h-14.4zm-43.3-14.4H630v28.9h14.4v-14.5z"/></g><g fill="#ffb200"><path d="M673.3 115.5h14.4v14.4h-14.4zm-14.4 130.1v28.9h14.4v-43.4h-14.4z"/><path d="M673.3 216.7h14.4v14.4h-14.4zm-14.4-14.5v-14.4h-14.5v28.9h14.5zm28.8-14.4h14.4v14.4h-14.4z"/></g><g fill="#ea8c27"><path d="M673.3 130h14.4v14.4h-14.4z"/><path d="M687.7 144.4h14.4v14.4h-14.4z"/></g><path d="M673.3 144.4h14.4v14.4h-14.4zm14.4 14.5h14.4v14.4h-14.4z" fill="#d67137"/><g fill="#994a4a"><path d="M687.7 86.6h-14.4v28.9h14.4v-14.4z"/><path d="M702.2 115.5h-14.5v28.9h14.5V130z"/><path d="M716.6 144.4h-14.4v28.9h14.4v-14.4zm-43.3 57.8v14.5h14.4v-28.9h-14.4z"/><path d="M716.6 173.3H731v14.4h-14.4zM644.4 260v14.5h14.5v-28.9h-14.5z"/><path d="M644.4 216.7H630v28.9h14.4v-14.5z"/><path d="M630 187.8h-14.5v28.9H630v-14.5z"/></g><g fill="#ad5a41"><path d="M658.9 72.2h14.4v14.4h-14.4z"/><path d="M658.9 101.1V86.6h-14.5v28.9h14.5zm14.4 57.8h14.4v14.4h-14.4z"/><path d="M630 130v14.4h14.4v-28.9H630z"/><path d="M615.5 158.9v14.4H630v-28.9h-14.5zm43.4 115.6h14.4v14.4h-14.4z"/><path d="M673.3 260v14.5h14.4v-28.9h-14.4z"/><path d="M687.7 231.1v14.5h14.5v-28.9h-14.5z"/><path d="M702.2 187.8v28.9h14.4v-28.9zm-101.1-14.5h14.4v14.4h-14.4z"/></g><path d="M301.7 1409.8h11.2v11.2h-11.2v55.3h-11v-77.5h11v11zm11.2 11.2h11v11h-11v-11zm11 22.1V1432h11.2v11.2h-11.2zm11.2-11.1v-11h11v11h-11zm22.1-33.2h11v77.5h-11V1421H346v-11.2h11.2v-11zm70.2 11h11v66.5h-11v-33.2h-33.3v33.2h-11v-66.5h11v22.2h33.3v-22.2zm0-11v11h-33.3v-11h33.3zm36.9 33.2h33.3v11.2h11v33.2h-11v-33.2h-33.3v33.2h-11v-77.5h44.3v11h-33.3v22.1zm44.4 0h-11v-22.2h11v22.2zm14.8-22.2h11v55.5h-11v-55.5zm55.4-11v11h-44.3v-11h44.3zm0 77.5h-44.3v-11h44.3v11zm63.1-66.5h11v55.5h-11v-55.5zm44.3-11v11H653v-11h33.3zm-33.3 77.5v-11h33.3v11H653zm33.3-66.5h11v55.5h-11v-55.5zm25.9-11h11v66.5h-11v-66.5zm11 77.5v-11h33.3v11h-33.3zm33.3-77.5h11v66.5h-11v-66.5zm81.2 11h-22.2v66.5h-11v-66.5h-22.2v-11h55.3v11zm25.9 0v22.2h44.3v11.2h-44.3v33.2h-11v-77.5h55.3v11h-44.3zm81.4 0v55.5h11v11h-33.2v-11h11v-55.5h-11v-11H956v11h-11zm81.2 0H1004v66.5h-11v-66.5h-22.2v-11h55.3v11zM239.4 292.5h11v55.3h-11v-55.3zm22.2 55.3V359h11v11h-11v-11h-11.2v-11.2h11.2zm11 11.2v-11.2h11.2V359h-11.2zm11.2-66.5h11v55.3h-11v-55.3zm70.2 11h11V370h-11v-33.2h-33.3V370h-11v-66.5h11v22.2H354v-22.2zm0-11v11h-33.3v-11H354zm81.2 66.5v11h-55.3v-77.5h11V359h44.3zm37-55.5V359h11v11H450v-11h11v-55.5h-11v-11h33.2v11h-11zm36.9 0V359h33.3v11h-44.3v-77.5h44.3v11h-33.3zm33.4 0h11V359h-11v-55.5zm85.1 0v22.2h44.3v11.2h-44.3V370h-11v-77.5h55.3v11h-44.3zm59.2 0h11V359h-11v-55.5zm44.3-11v11h-33.3v-11h33.3zM697.8 370v-11h33.3v11h-33.3zm33.3-66.5h11V359h-11v-55.5zm36.9 22.2h33.3v11.2h11V370h-11v-33.2H768V370h-11v-77.5h44.3v11H768v22.2zm44.3 0h-11v-22.2h11v22.2zm63.1-22.2h11V359h-11v-55.5zm44.3-11v11h-33.3v-11h33.3zM886.4 370v-11h33.3v11h-33.3zm33.3-66.5h11V359h-11v-55.5zm36.9 11.2h11.2v11h-11.2V370h-11v-77.5h11v22.2zm11.2 11h11v11.2h-11v-11.2zm22.1-33.2h11V370h-11v-22.2h-11.2v-11h11.2v-44.3zm36.9 11v22.2h44.3v11.2h-44.3V359h44.3v11h-55.3v-77.5h55.3v11h-44.3z" fill="#ea8c27"/></svg>