<svg width="103" height="103" viewBox="0 0 103 103" fill="none" xmlns="http://www.w3.org/2000/svg">
<path d="M86.9062 6.4375H85.2969V4.82812V3.21875H83.6875H82.0781V4.82812V6.4375H80.4688H78.8594V4.82812V3.21875H77.25H75.6406V4.82812V6.4375H74.0312H72.4219V4.82812V3.21875H70.8125H69.2031V4.82812V6.4375H67.5938H65.9844V4.82812V3.21875H64.375H62.7656V4.82812V6.4375H61.1562H59.5469V4.82812V3.21875H57.9375H56.3281V4.82812V6.4375H54.7188H53.1094V4.82812V3.21875H51.5H49.8906V4.82812V6.4375H48.2812H46.6719V4.82812V3.21875H45.0625H43.4531V4.82812V6.4375H41.8438H40.2344V4.82812V3.21875H38.625H37.0156V4.82812V6.4375H35.4062H33.7969V4.82812V3.21875H32.1875H30.5781V4.82812V6.4375H28.9688H27.3594V4.82812V3.21875H25.75H24.1406V4.82812V6.4375H22.5312H20.9219V4.82812V3.21875H19.3125H17.7031V4.82812V6.4375H16.0938H14.4844V8.04688V9.65625V11.2656V12.875V14.4844V16.0938V17.7031V19.3125V20.9219V22.5312V24.1406V25.75V27.3594V28.9688V30.5781V32.1875V33.7969V35.4062V37.0156V38.625V40.2344V41.8438V43.4531V45.0625V46.6719V48.2812V49.8906V51.5V53.1094V54.7188V56.3281V57.9375V59.5469V61.1562V62.7656V64.375V65.9844V67.5938V69.2031V70.8125V72.4219V74.0312V75.6406V77.25V78.8594V80.4688V82.0781V83.6875V85.2969V86.9062V88.5156V90.125V91.7344V93.3438V94.9531V96.5625V98.1719V99.7812H16.0938H17.7031V98.1719V96.5625H19.3125H20.9219V98.1719V99.7812H22.5312H24.1406V98.1719V96.5625H25.75H27.3594V98.1719V99.7812H28.9688H30.5781V98.1719V96.5625H32.1875H33.7969V98.1719V99.7812H35.4062H37.0156V98.1719V96.5625H38.625H40.2344V98.1719V99.7812H41.8438H43.4531V98.1719V96.5625H45.0625H46.6719V98.1719V99.7812H48.2812H49.8906V98.1719V96.5625H51.5H53.1094V98.1719V99.7812H54.7188H56.3281V98.1719V96.5625H57.9375H59.5469V98.1719V99.7812H61.1562H62.7656V98.1719V96.5625H64.375H65.9844V98.1719V99.7812H67.5938H69.2031V98.1719V96.5625H70.8125H72.4219V98.1719V99.7812H74.0312H75.6406V98.1719V96.5625H77.25H78.8594V98.1719V99.7812H80.4688H82.0781V98.1719V96.5625H83.6875H85.2969V98.1719V99.7812H86.9062H88.5156V98.1719V96.5625V94.9531V93.3438V91.7344V90.125V88.5156V86.9062V85.2969V83.6875V82.0781V80.4688V78.8594V77.25V75.6406V74.0312V72.4219V70.8125V69.2031V67.5938V65.9844V64.375V62.7656V61.1562V59.5469V57.9375V56.3281V54.7188V53.1094V51.5V49.8906V48.2812V46.6719V45.0625V43.4531V41.8438V40.2344V38.625V37.0156V35.4062V33.7969V32.1875V30.5781V28.9688V27.3594V25.75V24.1406V22.5312V20.9219V19.3125V17.7031V16.0938V14.4844V12.875V11.2656V9.65625V8.04688V6.4375H86.9062Z" fill="#FFC36B"/>
<path d="M80.4688 12.875H78.8594V14.4844H80.4688V12.875Z" fill="#EA8C27"/>
<path d="M80.4688 88.5156H78.8594V90.125H80.4688V88.5156Z" fill="#EA8C27"/>
<path d="M80.4688 14.4844V16.0938V17.7031V19.3125V20.9219V22.5312V24.1406V25.75H78.8594H77.25H75.6406H74.0312H72.4219H70.8125H69.2031H67.5938H65.9844H64.375H62.7656H61.1562H59.5469H57.9375H56.3281H54.7188H53.1094H51.5H49.8906H48.2812H46.6719H45.0625H43.4531H41.8438H40.2344H38.625H37.0156H35.4062H33.7969H32.1875H30.5781H28.9688H27.3594H25.75H24.1406H22.5312V24.1406V22.5312V20.9219V19.3125V17.7031V16.0938V14.4844H20.9219V16.0938V17.7031V19.3125V20.9219V22.5312V24.1406V25.75V27.3594V28.9688V30.5781V32.1875V33.7969V35.4062V37.0156V38.625V40.2344V41.8438V43.4531V45.0625V46.6719V48.2812V49.8906V51.5V53.1094V54.7188V56.3281V57.9375V59.5469V61.1562V62.7656V64.375V65.9844V67.5938V69.2031V70.8125V72.4219V74.0312V75.6406V77.25V78.8594V80.4688V82.0781V83.6875V85.2969V86.9062V88.5156H22.5312V86.9062V85.2969V83.6875V82.0781V80.4688V78.8594V77.25H24.1406H25.75H27.3594H28.9688H30.5781H32.1875H33.7969H35.4062H37.0156H38.625H40.2344H41.8438H43.4531H45.0625H46.6719H48.2812H49.8906H51.5H53.1094H54.7188H56.3281H57.9375H59.5469H61.1562H62.7656H64.375H65.9844H67.5938H69.2031H70.8125H72.4219H74.0312H75.6406H77.25H78.8594H80.4688V78.8594V80.4688V82.0781V83.6875V85.2969V86.9062V88.5156H82.0781V86.9062V85.2969V83.6875V82.0781V80.4688V78.8594V77.25V75.6406V74.0312V72.4219V70.8125V69.2031V67.5938V65.9844V64.375V62.7656V61.1562V59.5469V57.9375V56.3281V54.7188V53.1094V51.5V49.8906V48.2812V46.6719V45.0625V43.4531V41.8438V40.2344V38.625V37.0156V35.4062V33.7969V32.1875V30.5781V28.9688V27.3594V25.75V24.1406V22.5312V20.9219V19.3125V17.7031V16.0938V14.4844H80.4688ZM80.4688 28.9688V30.5781V32.1875V33.7969V35.4062V37.0156V38.625V40.2344V41.8438V43.4531V45.0625V46.6719V48.2812V49.8906V51.5V53.1094V54.7188V56.3281V57.9375V59.5469V61.1562V62.7656V64.375V65.9844V67.5938V69.2031V70.8125V72.4219V74.0312V75.6406H78.8594H77.25H75.6406H74.0312H72.4219H70.8125H69.2031H67.5938H65.9844H64.375H62.7656H61.1562H59.5469H57.9375H56.3281H54.7188H53.1094H51.5H49.8906H48.2812H46.6719H45.0625H43.4531H41.8438H40.2344H38.625H37.0156H35.4062H33.7969H32.1875H30.5781H28.9688H27.3594H25.75H24.1406H22.5312V74.0312V72.4219V70.8125V69.2031V67.5938V65.9844V64.375V62.7656V61.1562V59.5469V57.9375V56.3281V54.7188V53.1094V51.5V49.8906V48.2812V46.6719V45.0625V43.4531V41.8438V40.2344V38.625V37.0156V35.4062V33.7969V32.1875V30.5781V28.9688V27.3594H24.1406H25.75H27.3594H28.9688H30.5781H32.1875H33.7969H35.4062H37.0156H38.625H40.2344H41.8438H43.4531H45.0625H46.6719H48.2812H49.8906H51.5H53.1094H54.7188H56.3281H57.9375H59.5469H61.1562H62.7656H64.375H65.9844H67.5938H69.2031H70.8125H72.4219H74.0312H75.6406H77.25H78.8594H80.4688V28.9688Z" fill="#EA8C27"/>
<path d="M27.3594 12.875H28.9688H30.5781H32.1875H33.7969H35.4062H37.0156H38.625H40.2344H41.8438H43.4531H45.0625H46.6719H48.2812H49.8906H51.5H53.1094H54.7188H56.3281H57.9375H59.5469H61.1562H62.7656H64.375H65.9844H67.5938H69.2031H70.8125H72.4219H74.0312H75.6406H77.25H78.8594V11.2656H77.25H75.6406H74.0312H72.4219H70.8125H69.2031H67.5938H65.9844H64.375H62.7656H61.1562H59.5469H57.9375H56.3281H54.7188H53.1094H51.5H49.8906H48.2812H46.6719H45.0625H43.4531H41.8438H40.2344H38.625H37.0156H35.4062H33.7969H32.1875H30.5781H28.9688H27.3594H25.75H24.1406V12.875H25.75H27.3594Z" fill="#EA8C27"/>
<path d="M24.1406 12.875H22.5312V14.4844H24.1406V12.875Z" fill="#EA8C27"/>
<path d="M24.1406 88.5156H22.5312V90.125H24.1406V88.5156Z" fill="#EA8C27"/>
<path d="M75.6406 90.125H74.0312H72.4219H70.8125H69.2031H67.5938H65.9844H64.375H62.7656H61.1562H59.5469H57.9375H56.3281H54.7188H53.1094H51.5H49.8906H48.2812H46.6719H45.0625H43.4531H41.8438H40.2344H38.625H37.0156H35.4062H33.7969H32.1875H30.5781H28.9688H27.3594H25.75H24.1406V91.7344H25.75H27.3594H28.9688H30.5781H32.1875H33.7969H35.4062H37.0156H38.625H40.2344H41.8438H43.4531H45.0625H46.6719H48.2812H49.8906H51.5H53.1094H54.7188H56.3281H57.9375H59.5469H61.1562H62.7656H64.375H65.9844H67.5938H69.2031H70.8125H72.4219H74.0312H75.6406H77.25H78.8594V90.125H77.25H75.6406Z" fill="#EA8C27"/>
<path d="M77.25 77.25H75.6406H74.0312H72.4219H70.8125H69.2031H67.5938H65.9844H64.375H62.7656H61.1562H59.5469H57.9375H56.3281H54.7188H53.1094H51.5H49.8906H48.2812H46.6719H45.0625H43.4531H41.8438H40.2344H38.625H37.0156H35.4062H33.7969H32.1875H30.5781H28.9688H27.3594H25.75H24.1406H22.5312V78.8594V80.4688V82.0781V83.6875V85.2969V86.9062V88.5156H24.1406V90.125H25.75H27.3594H28.9688H30.5781H32.1875H33.7969H35.4062H37.0156H38.625H40.2344H41.8438H43.4531H45.0625H46.6719H48.2812H49.8906H51.5H53.1094H54.7188H56.3281H57.9375H59.5469H61.1562H62.7656H64.375H65.9844H67.5938H69.2031H70.8125H72.4219H74.0312H75.6406H77.25H78.8594V88.5156H80.4688V86.9062V85.2969V83.6875V82.0781V80.4688V78.8594V77.25H78.8594H77.25Z" fill="white"/>
<path d="M78.8594 14.4844V12.875H77.25H75.6406H74.0312H72.4219H70.8125H69.2031H67.5938H65.9844H64.375H62.7656H61.1562H59.5469H57.9375H56.3281H54.7188H53.1094H51.5H49.8906H48.2812H46.6719H45.0625H43.4531H41.8438H40.2344H38.625H37.0156H35.4062H33.7969H32.1875H30.5781H28.9688H27.3594H25.75H24.1406V14.4844H22.5312V16.0938V17.7031V19.3125V20.9219V22.5312V24.1406V25.75H24.1406H25.75H27.3594H28.9688H30.5781H32.1875H33.7969H35.4062H37.0156H38.625H40.2344H41.8438H43.4531H45.0625H46.6719H48.2812H49.8906H51.5H53.1094H54.7188H56.3281H57.9375H59.5469H61.1562H62.7656H64.375H65.9844H67.5938H69.2031H70.8125H72.4219H74.0312H75.6406H77.25H78.8594H80.4688V24.1406V22.5312V20.9219V19.3125V17.7031V16.0938V14.4844H78.8594Z" fill="white"/>
<path d="M77.25 27.3594H75.6406H74.0312H72.4219H70.8125H69.2031H67.5938H65.9844H64.375H62.7656H61.1562H59.5469H57.9375H56.3281H54.7188H53.1094H51.5H49.8906H48.2812H46.6719H45.0625H43.4531H41.8438H40.2344H38.625H37.0156H35.4062H33.7969H32.1875H30.5781H28.9688H27.3594H25.75H24.1406H22.5312V28.9688V30.5781V32.1875V33.7969V35.4062V37.0156V38.625V40.2344V41.8438V43.4531V45.0625V46.6719V48.2812V49.8906V51.5V53.1094V54.7188V56.3281V57.9375V59.5469V61.1562V62.7656V64.375V65.9844V67.5938V69.2031V70.8125V72.4219V74.0312V75.6406H24.1406H25.75H27.3594H28.9688H30.5781H32.1875H33.7969H35.4062H37.0156H38.625H40.2344H41.8438H43.4531H45.0625H46.6719H48.2812H49.8906H51.5H53.1094H54.7188H56.3281H57.9375H59.5469H61.1562H62.7656H64.375H65.9844H67.5938H69.2031H70.8125H72.4219H74.0312H75.6406H77.25H78.8594H80.4688V74.0312V72.4219V70.8125V69.2031V67.5938V65.9844V64.375V62.7656V61.1562V59.5469V57.9375V56.3281V54.7188V53.1094V51.5V49.8906V48.2812V46.6719V45.0625V43.4531V41.8438V40.2344V38.625V37.0156V35.4062V33.7969V32.1875V30.5781V28.9688V27.3594H78.8594H77.25Z" fill="white"/>
<path d="M51.0172 12.875H50.2125V13.6797H51.0172V12.875Z" fill="white"/>
<path d="M51.1781 8.04688V8.85156V9.65625V10.4609V11.2656V12.0703V12.875H51.8219V12.0703V11.2656V10.4609V9.65625V8.85156V8.04688H51.1781Z" fill="white"/>
<path d="M51.0172 9.65625H50.2125V10.4609H51.0172V9.65625Z" fill="#FFFFC4"/>
<path d="M51.9828 12.875H51.1781V13.6797H51.9828V12.875Z" fill="#FFFFC4"/>
<path d="M48.6031 12.875V13.6797H49.5688H50.2125V12.875H49.5688H48.6031Z" fill="#FFFFC4"/>
<path d="M51.0172 16.0938H50.2125V16.8984H51.0172V16.0938Z" fill="#FFD596"/>
<path d="M51.9828 14.4844H51.1781V15.2891H51.9828V14.4844Z" fill="#FFD596"/>
<path d="M50.2125 12.0703V11.2656H49.5688V12.0703V12.875H50.2125V12.0703Z" fill="#FFD596"/>
<path d="M51.0172 10.4609H50.2125V11.2656H51.0172V10.4609Z" fill="#FFD596"/>
<path d="M53.4313 12.875H52.7875V13.6797H53.4313H54.3969V12.875H53.4313Z" fill="#FFD596"/>
<path d="M51.1781 15.2891H50.2125V16.0938H51.1781H51.8219V15.2891H51.1781Z" fill="#FFC36B"/>
<path d="M51.9828 13.6797H51.1781V14.4844H51.9828V13.6797Z" fill="#FFC36B"/>
<path d="M51.1781 12.0703V11.2656H50.2125V12.0703V12.875H51.1781V12.0703Z" fill="#FFC36B"/>
<path d="M52.6266 12.875H51.8219V13.6797H52.6266V12.875Z" fill="#FFC36B"/>
<path d="M52.6266 16.0938H51.8219V16.8984H52.6266V16.0938Z" fill="#FFC36B"/>
<path d="M53.5922 14.4844H52.7875V15.2891H53.5922V14.4844Z" fill="#FFC36B"/>
<path d="M50.2125 13.6797H49.5688V14.4844V15.2891H50.2125V14.4844V13.6797Z" fill="#FFC36B"/>
<path d="M52.6266 9.65625H51.8219V10.4609H52.6266V9.65625Z" fill="#FFB200"/>
<path d="M51.1781 16.8984V17.7031V18.5078H51.8219V17.7031V16.8984V16.0938H51.1781V16.8984Z" fill="#FFB200"/>
<path d="M52.6266 15.2891H51.8219V16.0938H52.6266V15.2891Z" fill="#FFB200"/>
<path d="M51.1781 14.4844V13.6797H50.2125V14.4844V15.2891H51.1781V14.4844Z" fill="#FFB200"/>
<path d="M53.5922 13.6797H52.7875V14.4844H53.5922V13.6797Z" fill="#FFB200"/>
<path d="M52.6266 10.4609H51.8219V11.2656H52.6266V10.4609Z" fill="#EA8C27"/>
<path d="M53.5922 11.2656H52.7875V12.0703H53.5922V11.2656Z" fill="#EA8C27"/>
<path d="M52.6266 11.2656H51.8219V12.0703H52.6266V11.2656Z" fill="#D67137"/>
<path d="M53.5922 12.0703H52.7875V12.875H53.5922V12.0703Z" fill="#D67137"/>
<path d="M52.7875 8.04688H51.8219V8.85156V9.65625H52.7875V8.85156V8.04688Z" fill="#994A4A"/>
<path d="M53.4313 9.65625H52.7875V10.4609V11.2656H53.4313V10.4609V9.65625Z" fill="#994A4A"/>
<path d="M54.3969 11.2656H53.4313V12.0703V12.875H54.3969V12.0703V11.2656Z" fill="#994A4A"/>
<path d="M51.8219 14.4844V15.2891H52.7875V14.4844V13.6797H51.8219V14.4844Z" fill="#994A4A"/>
<path d="M55.2016 12.875H54.3969V13.6797H55.2016V12.875Z" fill="#994A4A"/>
<path d="M50.2125 17.7031V18.5078H51.1781V17.7031V16.8984H50.2125V17.7031Z" fill="#994A4A"/>
<path d="M50.2125 15.2891H49.5688V16.0938V16.8984H50.2125V16.0938V15.2891Z" fill="#994A4A"/>
<path d="M49.5688 13.6797H48.6031V14.4844V15.2891H49.5688V14.4844V13.6797Z" fill="#994A4A"/>
<path d="M51.9828 7.24219H51.1781V8.04688H51.9828V7.24219Z" fill="#AD5A41"/>
<path d="M51.1781 8.85156V8.04688H50.2125V8.85156V9.65625H51.1781V8.85156Z" fill="#AD5A41"/>
<path d="M52.6266 12.0703H51.8219V12.875H52.6266V12.0703Z" fill="#AD5A41"/>
<path d="M49.5688 10.4609V11.2656H50.2125V10.4609V9.65625H49.5688V10.4609Z" fill="#AD5A41"/>
<path d="M48.6031 12.0703V12.875H49.5688V12.0703V11.2656H48.6031V12.0703Z" fill="#AD5A41"/>
<path d="M51.9828 18.5078H51.1781V19.3125H51.9828V18.5078Z" fill="#AD5A41"/>
<path d="M51.8219 17.7031V18.5078H52.7875V17.7031V16.8984H51.8219V17.7031Z" fill="#AD5A41"/>
<path d="M52.7875 16.0938V16.8984H53.4313V16.0938V15.2891H52.7875V16.0938Z" fill="#AD5A41"/>
<path d="M53.4313 13.6797V14.4844V15.2891H54.3969V14.4844V13.6797H53.4313Z" fill="#AD5A41"/>
<path d="M48.7641 12.875H47.9594V13.6797H48.7641V12.875Z" fill="#AD5A41"/>
<path d="M36.149 18.6264V19.0584H36.575V19.4844H36.149V19.0584H35.717V18.6264H36.149ZM36.575 19.0584V18.6264H37.007V19.0584H36.575ZM35.291 16.4844H35.717V18.6264H35.291V16.4844ZM37.007 16.4844H37.433V18.6264H37.007V16.4844ZM39.5734 16.4844V16.9104H38.2834V16.4844H39.5734ZM39.5734 16.9104H39.9994V19.4844H39.5734V18.2004H38.2834V19.4844H37.8574V16.9104H38.2834V17.7684H39.5734V16.9104ZM40.8498 19.0584H42.5658V19.4844H40.4238V16.4844H40.8498V19.0584ZM44.2742 16.9104H43.8482V19.0584H44.2742V19.4844H42.9902V19.0584H43.4162V16.9104H42.9902V16.4844H44.2742V16.9104ZM45.1272 16.9104V19.0584H46.4172V19.4844H44.7012V16.4844H46.4172V16.9104H45.1272ZM46.4172 16.9104H46.8432V19.0584H46.4172V16.9104ZM51.1264 16.9104H49.4104V17.7684H51.1264V18.2004H49.4104V19.4844H48.9844V16.4844H51.1264V16.9104ZM51.9768 19.4844V19.0584H53.2668V19.4844H51.9768ZM51.5508 16.9104H51.9768V19.0584H51.5508V16.9104ZM53.2668 16.4844V16.9104H51.9768V16.4844H53.2668ZM53.2668 16.9104H53.6928V19.0584H53.2668V16.9104ZM56.2592 17.7684H55.8332V16.9104H56.2592V17.7684ZM54.5432 17.7684H55.8332V18.2004H56.2592V19.4844H55.8332V18.2004H54.5432V19.4844H54.1172V16.4844H55.8332V16.9104H54.5432V17.7684ZM58.8264 19.4844V19.0584H60.1164V19.4844H58.8264ZM58.4004 16.9104H58.8264V19.0584H58.4004V16.9104ZM60.1164 16.4844V16.9104H58.8264V16.4844H60.1164ZM60.1164 16.9104H60.5424V19.0584H60.1164V16.9104ZM61.3928 17.3424H61.8248V17.7684H61.3928V19.4844H60.9668V16.4844H61.3928V17.3424ZM61.8248 17.7684H62.2508V18.2004H61.8248V17.7684ZM62.6828 16.4844H63.1088V19.4844H62.6828V18.6264H62.2508V18.2004H62.6828V16.4844ZM65.6752 16.9104H63.9592V17.7684H65.6752V18.2004H63.9592V19.0584H65.6752V19.4844H63.5332V16.4844H65.6752V16.9104Z" fill="#EA8C27"/>
<path d="M39.0881 79.676H39.5201V80.108H39.0881V82.25H38.6621V79.25H39.0881V79.676ZM39.5201 80.108H39.9461V80.534H39.5201V80.108ZM39.9461 80.966V80.534H40.3781V80.966H39.9461ZM40.3781 80.534V80.108H40.8041V80.534H40.3781ZM41.2361 79.25H41.6621V82.25H41.2361V80.108H40.8041V79.676H41.2361V79.25ZM44.2318 79.676H42.5158V80.534H44.2318V80.966H42.5158V81.824H44.2318V82.25H42.0898V79.25H44.2318V79.676ZM44.6562 82.25V81.824H46.3723V82.25H44.6562ZM46.7983 81.824H46.3723V80.966H46.7983V81.824ZM46.3723 80.966H45.0823V80.534H46.3723V80.966ZM44.6562 79.676H45.0823V80.534H44.6562V79.676ZM46.7983 79.25V79.676H45.0823V79.25H46.7983ZM47.2227 82.25V81.824H48.9387V82.25H47.2227ZM49.3647 81.824H48.9387V80.966H49.3647V81.824ZM48.9387 80.966H47.6487V80.534H48.9387V80.966ZM47.2227 79.676H47.6487V80.534H47.2227V79.676ZM49.3647 79.25V79.676H47.6487V79.25H49.3647ZM51.9319 79.676V81.824H53.2219V82.25H51.5059V79.25H53.2219V79.676H51.9319ZM53.2219 79.676H53.6479V81.824H53.2219V79.676ZM56.2143 80.534H55.7883V79.676H56.2143V80.534ZM54.4983 80.534H55.7883V80.966H56.2143V82.25H55.7883V80.966H54.4983V82.25H54.0723V79.25H55.7883V79.676H54.4983V80.534ZM58.7807 79.676H57.0647V80.534H58.7807V80.966H57.0647V81.824H58.7807V82.25H56.6387V79.25H58.7807V79.676ZM59.2051 82.25V81.824H60.9211V82.25H59.2051ZM61.3471 81.824H60.9211V80.966H61.3471V81.824ZM60.9211 80.966H59.6311V80.534H60.9211V80.966ZM59.2051 79.676H59.6311V80.534H59.2051V79.676ZM61.3471 79.25V79.676H59.6311V79.25H61.3471ZM61.7715 82.25V81.824H63.4875V82.25H61.7715ZM63.9135 81.824H63.4875V80.966H63.9135V81.824ZM63.4875 80.966H62.1975V80.534H63.4875V80.966ZM61.7715 79.676H62.1975V80.534H61.7715V79.676ZM63.9135 79.25V79.676H62.1975V79.25H63.9135Z" fill="#EA8C27"/>
<path d="M66.2765 59.0133H64.9173V60.3725H66.2765V59.0133Z" fill="#DDD9D6"/>
<path d="M66.2765 57.6541H64.9173V59.0133H66.2765V57.6541Z" fill="#DDD9D6"/>
<path d="M68.995 54.9357H67.6357V56.2949H68.995V54.9357Z" fill="#698BD9"/>
<path d="M68.995 56.2949H67.6357V57.6541H68.995V56.2949Z" fill="#E2E5F3"/>
<path d="M66.2765 56.2949H64.9173V57.6541H66.2765V56.2949Z" fill="#45322F"/>
<path d="M67.6357 56.2949H66.2765V57.6541H67.6357V56.2949Z" fill="#D9C6B2"/>
<path d="M64.9173 60.3726H63.5581V61.7318H64.9173V60.3726Z" fill="#DDD9D6"/>
<path d="M63.5581 54.9357H62.1989V56.2949H63.5581V54.9357Z" fill="#76946F"/>
<path d="M64.9173 54.9357H63.5581V56.2949H64.9173V54.9357Z" fill="#CAD4E4"/>
<path d="M67.6357 61.7318H66.2765V63.091H67.6357V61.7318Z" fill="#DDD9D6"/>
<path d="M66.2765 61.7318H64.9173V63.091H66.2765V61.7318Z" fill="#DDD9D6"/>
<path d="M51.3251 48.1395H49.9659H48.6066V49.4987H49.9659V50.858V52.2172V53.5764V54.9356V56.2949V57.6541H51.3251H52.6843V56.2949V54.9356V53.5764V52.2172V50.858V49.4987H54.0435V48.1395H52.6843H51.3251Z" fill="black"/>
<path d="M66.2765 60.3726H64.9173V61.7318H66.2765V60.3726Z" fill="black"/>
<path d="M64.9173 61.7318H63.5581V63.091H64.9173V61.7318Z" fill="#DDD9D6"/>
<path d="M67.6357 60.3726H66.2765V61.7318H67.6357V60.3726Z" fill="#DDD9D6"/>
<path d="M70.3542 56.2949H68.995V57.6541H70.3542V56.2949Z" fill="#556592"/>
<path d="M66.2765 54.9357H64.9173V56.2949H66.2765V54.9357Z" fill="#5666BC"/>
<path d="M64.9173 56.2949H63.5581V57.6541H64.9173V56.2949Z" fill="#F6D435"/>
<path d="M63.5581 56.2949H62.1988V57.6541H63.5581V56.2949Z" fill="#E6BF8F"/>
<path d="M67.6357 54.9357H66.2765V56.2949H67.6357V54.9357Z" fill="#C23E3F"/>
<path d="M62.1988 56.2949H60.8396V57.6541H62.1988V56.2949Z" fill="#F75457"/>
<path d="M37.7329 59.0134H36.3736H35.0144H33.6552V60.3727H35.0144H36.3736H37.7329H39.0921H40.4513V59.0134H39.0921H37.7329Z" fill="#FFA500"/>
<path d="M60.8396 48.1396H59.4804V49.4989H60.8396V48.1396Z" fill="#FFA500"/>
<path d="M43.1697 48.1396H41.8105V49.4989H43.1697V48.1396Z" fill="#FFA500"/>
<path d="M52.6843 63.0911H51.3251V64.4503H52.6843V63.0911Z" fill="#FFA500"/>
<path d="M52.6843 60.3727H51.3251V61.7319H52.6843V60.3727Z" fill="#FFA500"/>
<path d="M28.2183 41.3435H26.8591V42.7027H28.2183V41.3435Z" fill="#FFA500"/>
<path d="M75.7911 41.3435H74.4318V42.7027H75.7911V41.3435Z" fill="#FFA500"/>
<path d="M47.2474 56.2949H45.8882V54.9356H44.529V53.5764H43.1697V52.2172H41.8105H40.4513V50.858H39.0921V49.4987H37.7328H36.3736V48.1395H35.0144H33.6552V46.7803H32.296V45.4211H30.9367V44.0619V42.7026H29.5775V44.0619V45.4211V46.7803V48.1395V49.4987V50.858V52.2172V53.5764V54.9356V56.2949V57.6541V59.0133V60.3725V61.7317V63.091V64.4502V65.8094H30.9367H32.296H33.6552H35.0144H36.3736H37.7328H39.0921H40.4513H41.8105H43.1697H44.529H45.8882H47.2474H48.6066H49.9658V64.4502V63.091V61.7317V60.3725V59.0133H48.6066V57.6541H47.2474V56.2949ZM35.0144 54.9356V53.5764H36.3736H37.7328H39.0921V54.9356V56.2949H37.7328H36.3736H35.0144V54.9356ZM39.0921 64.4502H37.7328H36.3736H35.0144H33.6552V63.091V61.7317V60.3725V59.0133V57.6541H35.0144H36.3736H37.7328H39.0921H40.4513V59.0133V60.3725V61.7317V63.091V64.4502H39.0921Z" fill="white"/>
<path d="M55.4027 56.2949V54.9356H56.762V53.5764H58.1212V52.2172H59.4804V50.858H60.8396H62.1989V49.4987H63.5581V48.1395H64.9173H66.2765V46.7803H67.6357H68.995V45.4211H70.3542V44.0619V42.7026H68.995V44.0619H67.6357H66.2765V45.4211H64.9173H63.5581V46.7803H62.1989H60.8396H59.4804H58.1212V48.1395H56.762H55.4027V49.4987V50.858H54.0435V52.2172H52.6843V53.5764V54.9356V56.2949V57.6541H54.0435V56.2949H55.4027ZM60.8396 48.1395V49.4987H59.4804V48.1395H60.8396Z" fill="white"/>
<path d="M48.6066 50.858H47.2474V49.4987V48.1395H45.8882H44.529V46.7803H43.1698H41.8105H40.4513H39.0921V45.4211H37.7329H36.3736V44.0619H35.0144H33.6552V42.7026H32.296V44.0619V45.4211H33.6552V46.7803H35.0144H36.3736V48.1395H37.7329H39.0921V49.4987H40.4513V50.858H41.8105H43.1698V52.2172H44.529V53.5764H45.8882V54.9356H47.2474V56.2949H48.6066V57.6541H49.9659V56.2949V54.9356V53.5764V52.2172H48.6066V50.858ZM41.8105 49.4987V48.1395H43.1698V49.4987H41.8105Z" fill="white"/>
<path d="M71.7134 44.0619V45.4211H70.3542V46.7803H68.995V48.1395H67.6357H66.2765V49.4987H64.9173H63.5581V50.858H62.1988V52.2172H60.8396H59.4804V53.5764H58.1212V54.9356H56.762V56.2949H55.4027V57.6541H54.0435V59.0133H52.6843H51.3251V60.3725H52.6843V61.7317H51.3251V63.091H52.6843V64.4502H51.3251V65.8094H52.6843H54.0435H55.4027H56.762H58.1212H59.4804H60.8396H62.1988H63.5581H64.9173H66.2765H67.6357H68.995H70.3542H71.7134H73.0726V64.4502V63.091V61.7317V60.3725V59.0133V57.6541V56.2949V54.9356V53.5764V52.2172V50.858V49.4987V48.1395V46.7803V45.4211V44.0619V42.7026H71.7134V44.0619ZM64.9173 52.2172H66.2765H67.6357V53.5764H66.2765H64.9173H63.5581V52.2172H64.9173ZM68.995 64.4502H67.6357H66.2765H64.9173H63.5581H62.1988H60.8396V63.091V61.7317V60.3725V59.0133V57.6541V56.2949H62.1988V54.9356H63.5581H64.9173H66.2765H67.6357H68.995V56.2949H70.3542V57.6541V59.0133V60.3725V61.7317V63.091V64.4502H68.995Z" fill="white"/>
<path d="M25.4998 42.7026V44.0619V45.4211V46.7803V48.1395V49.4987V50.858H26.8591V49.4987H28.2183V48.1395V46.7803V45.4211V44.0619V42.7026H26.8591H25.4998Z" fill="white"/>
<path d="M75.7911 42.7026H74.4319V44.0619V45.4211V46.7803V48.1395V49.4987H75.7911V50.858H77.1503V49.4987V48.1395V46.7803V45.4211V44.0619V42.7026H75.7911Z" fill="white"/>
<path d="M33.6552 45.4211H32.296V46.7804H33.6552V45.4211Z" fill="#C8C8C8"/>
<path d="M35.0144 48.1395H36.3736V46.7803H35.0144H33.6552V48.1395H35.0144Z" fill="#C8C8C8"/>
<path d="M37.7328 49.4987H39.0921V48.1395H37.7328H36.3736V49.4987H37.7328Z" fill="#C8C8C8"/>
<path d="M37.7328 45.4211H39.0921V44.0619H37.7328H36.3736V45.4211H37.7328Z" fill="#C8C8C8"/>
<path d="M41.8105 52.2171H43.1697V50.8579H41.8105H40.4513V52.2171H41.8105Z" fill="#C8C8C8"/>
<path d="M40.4513 46.7804H41.8105H43.1697H44.529V45.4211H43.1697H41.8105H40.4513H39.0921V46.7804H40.4513Z" fill="#C8C8C8"/>
<path d="M36.3736 59.0133H37.7328H39.0921H40.4513V57.6541H39.0921H37.7328H36.3736H35.0144H33.6552V59.0133H35.0144H36.3736Z" fill="#C8C8C8"/>
<path d="M47.2474 54.9357H45.8882V56.2949H47.2474V54.9357Z" fill="#C8C8C8"/>
<path d="M40.4513 49.4988H39.0921V50.858H40.4513V49.4988Z" fill="#C8C8C8"/>
<path d="M68.995 48.1395V46.7803H67.6357H66.2765V48.1395H67.6357H68.995Z" fill="#C8C8C8"/>
<path d="M66.2765 49.4987V48.1395H64.9173H63.5581V49.4987H64.9173H66.2765Z" fill="#C8C8C8"/>
<path d="M66.2765 53.5764H67.6357V52.2172H66.2765H64.9173H63.5581V53.5764H64.9173H66.2765Z" fill="#C8C8C8"/>
<path d="M63.5581 44.0619V45.4211H64.9173H66.2765V44.0619H64.9173H63.5581Z" fill="#C8C8C8"/>
<path d="M63.5581 49.4988H62.1989V50.858H63.5581V49.4988Z" fill="#C8C8C8"/>
<path d="M56.762 54.9357H55.4027V56.2949H56.762V54.9357Z" fill="#C8C8C8"/>
<path d="M62.1988 52.2171V50.8579H60.8396H59.4804V52.2171H60.8396H62.1988Z" fill="#C8C8C8"/>
<path d="M55.4027 46.7803H54.0435V48.1395V49.4987H52.6843V50.8579V52.2172H54.0435V50.8579H55.4027V49.4987V48.1395H56.762H58.1212V46.7803H56.762H55.4027Z" fill="#C8C8C8"/>
<path d="M45.8882 48.1395H47.2474V49.4987V50.8579H48.6066V52.2172H49.9658V50.8579V49.4987H48.6066V48.1395V46.7803H47.2474H45.8882H44.529V48.1395H45.8882Z" fill="#C8C8C8"/>
<path d="M55.4027 56.2949H54.0435V57.6541H55.4027V56.2949Z" fill="#C8C8C8"/>
<path d="M48.6066 56.2949H47.2474V57.6541H48.6066V56.2949Z" fill="#C8C8C8"/>
<path d="M60.8396 45.4211H59.4804H58.1212V46.7804H59.4804H60.8396H62.1989H63.5581V45.4211H62.1989H60.8396Z" fill="#C8C8C8"/>
<path d="M66.2765 42.7026V44.0619H67.6357H68.995V42.7026H67.6357H66.2765Z" fill="#C8C8C8"/>
<path d="M59.4804 52.2172H58.1212V53.5764H59.4804V52.2172Z" fill="#C8C8C8"/>
<path d="M35.0144 44.0619H36.3736V42.7026H35.0144H33.6552V44.0619H35.0144Z" fill="#C8C8C8"/>
<path d="M44.529 52.2172H43.1697V53.5764H44.529V52.2172Z" fill="#C8C8C8"/>
<path d="M36.3736 64.4502H37.7328H39.0921H40.4513V63.091V61.7318V60.3726H39.0921H37.7328H36.3736H35.0144H33.6552V61.7318V63.091V64.4502H35.0144H36.3736Z" fill="#C8C8C8"/>
<path d="M63.5581 64.4502H64.9173H66.2765H67.6357H68.9949H70.3542V63.0909V61.7317V60.3725V59.0133V57.6541H68.9949H67.6357H66.2765V59.0133V60.3725H67.6357V61.7317V63.0909H66.2765H64.9173H63.5581V61.7317V60.3725H64.9173V59.0133V57.6541H63.5581H62.1988H60.8396V59.0133V60.3725V61.7317V63.0909V64.4502H62.1988H63.5581Z" fill="#C8C8C8"/>
<path d="M70.3542 45.4211H68.995V46.7804H70.3542V45.4211Z" fill="#C8C8C8"/>
<path d="M45.8882 53.5764H44.529V54.9356H45.8882V53.5764Z" fill="#C8C8C8"/>
<path d="M37.7328 56.2949H39.0921V54.9356V53.5764H37.7328H36.3736H35.0144V54.9356V56.2949H36.3736H37.7328Z" fill="#C8C8C8"/>
<path d="M58.1212 53.5764H56.762V54.9356H58.1212V53.5764Z" fill="#C8C8C8"/>
<path d="M26.8591 41.3435H25.4998V42.7027H26.8591V41.3435Z" fill="#C8C8C8"/>
<path d="M25.4998 49.4987V48.1395V46.7803V45.4211V44.0619V42.7026H24.1406V44.0619V45.4211V46.7803V48.1395V49.4987V50.858V52.2172H25.4998H26.8591V50.858H25.4998V49.4987Z" fill="#C8C8C8"/>
<path d="M74.4319 49.4988V48.1396V46.7803V45.4211V44.0619V42.7027V41.3434H75.7911V39.9842H77.1503V38.625H75.7911H74.4319V39.9842H73.0726H71.7134V41.3434H70.3542H68.995V42.7027H70.3542V44.0619V45.4211H71.7134V44.0619V42.7027H73.0726V44.0619V45.4211V46.7803V48.1396V49.4988V50.858V52.2172V53.5764V54.9357V56.2949V57.6541V59.0133V60.3726V61.7318V63.091V64.4502V65.8094H71.7134H70.3542H68.995H67.6357H66.2765H64.9173H63.5581H62.1988H60.8396H59.4804H58.1212H56.762H55.4027H54.0435H52.6843H51.3251V64.4502V63.091V61.7318V60.3726V59.0133H52.6843H54.0435V57.6541H52.6843H51.3251H49.9658H48.6066V59.0133H49.9658V60.3726V61.7318V63.091V64.4502V65.8094H48.6066H47.2474H45.8882H44.529H43.1697H41.8105H40.4513H39.0921H37.7328H36.3736H35.0144H33.6552H32.296H30.9367H29.5775V64.4502V63.091V61.7318V60.3726V59.0133V57.6541V56.2949V54.9357V53.5764V52.2172V50.858V49.4988V48.1396V46.7803V45.4211V44.0619V42.7027H30.9367V44.0619V45.4211H32.296V44.0619V42.7027H33.6552V41.3434H32.296H30.9367V39.9842H29.5775H28.2183V38.625H26.8591H25.4998V39.9842H26.8591V41.3434H28.2183V42.7027V44.0619V45.4211V46.7803V48.1396V49.4988H26.8591V50.858H28.2183V52.2172V53.5764V54.9357V56.2949V57.6541V59.0133V60.3726V61.7318V63.091V64.4502V65.8094V67.1687V68.5279V69.8871H29.5775H30.9367H32.296H33.6552V68.5279V67.1687H35.0144H36.3736H37.7328H39.0921H40.4513V68.5279V69.8871H41.8105H43.1697H44.529H45.8882H47.2474V68.5279V67.1687H48.6066H49.9658H51.3251H52.6843H54.0435H55.4027V68.5279V69.8871H56.762H58.1212H59.4804H60.8396H62.1988V68.5279V67.1687H63.5581H64.9173H66.2765H67.6357H68.995V68.5279V69.8871H70.3542H71.7134H73.0726H74.4319V68.5279V67.1687V65.8094V64.4502V63.091V61.7318V60.3726V59.0133V57.6541V56.2949V54.9357V53.5764V52.2172V50.858H75.7911V49.4988H74.4319Z" fill="#C8C8C8"/>
<path d="M77.1503 41.3435H75.7911V42.7027H77.1503V41.3435Z" fill="#C8C8C8"/>
<path d="M77.1503 42.7026V44.0619V45.4211V46.7803V48.1395V49.4987V50.858H75.7911V52.2172H77.1503H78.5095V50.858V49.4987V48.1395V46.7803V45.4211V44.0619V42.7026H77.1503Z" fill="#C8C8C8"/>
</svg>
