<svg xmlns="http://www.w3.org/2000/svg" xmlns:xlink="http://www.w3.org/1999/xlink" viewBox="0 0 1329.3 1734" xmlns:v="https://vecta.io/nano"><path d="M1300.4 57.8h-28.9V0h-57.8v57.8h-57.8V0h-57.8v57.8h-57.8V0h-57.8v57.8h-57.8V0h-57.8v57.8h-57.8V0h-57.8v57.8h-57.8V0h-57.8v57.8h-57.8V0h-57.8v57.8h-57.8V0h-57.8v57.8h-57.7V0H289v57.8h-57.8V0h-57.8v57.8h-57.8V0H57.8v57.8H0V1734h57.8v-57.8h57.8v57.8h57.8v-57.8h57.8v57.8H289v-57.8h57.8v57.8h57.7v-57.8h57.8v57.8h57.8v-57.8h57.8v57.8h57.8v-57.8h57.8v57.8h57.8v-57.8h57.8v57.8h57.8v-57.8h57.8v57.8h57.8v-57.8h57.8v57.8h57.8v-57.8h57.8v57.8h57.8v-57.8h57.8v57.8h57.8V57.8z" fill="#59bcff"/><g fill="#0064ff"><path d="M1155.9 173.4h28.9v28.9h-28.9zm0 1358.3h28.9v28.9h-28.9z"/><path d="M1184.8 202.3v202.3H144.5V202.3h-28.9v1329.4h28.9v-202.3h1040.4v202.3h28.9V202.3h-29zm0 260.1v838.1H144.5v-867h1040.4l-.1 28.9zm-953.6-289h924.7v-28.9H173.4v28.9h28.9z"/><path d="M144.5 173.4h28.9v28.9h-28.9zm0 1358.3h28.9v28.9h-28.9z"/><path d="M1098.1 1560.6H173.4v28.9h982.5v-28.9H1127z"/></g><path d="M1127 1329.4H144.5v202.3h28.9v28.9h982.5v-28.9h28.9v-202.3h-28.9zm28.9-1127.1v-28.9H173.4v28.9h-28.9v202.3h1040.3V202.3zM1127 433.5H144.5v867h1040.3v-867h-28.9z" fill="#fff"/><path d="M246.5 296.2h10.3v51.6h-10.3v-51.6zm20.7 51.5v10.4h10.3v10.3h-10.3v-10.3h-10.4v-10.4h10.4zm10.3 10.4v-10.4h10.4v10.4h-10.4zm10.4-61.9h10.3v51.6h-10.3v-51.6zm68.7 10.2h10.3v62h-10.3v-30.9h-31.1v30.9h-10.3v-62h10.3v20.7h31.1v-20.7zm0-10.2v10.3h-31.1v-10.3h31.1zm79.1 61.9v10.3h-51.6v-72.2h10.3v62h41.3v-.1zm37.8-51.7v51.7h10.3v10.3h-30.9v-10.3h10.3v-51.7h-10.3v-10.2h30.9v10.3l-10.3-.1zm37.7 0v51.7h31.1v10.3H501v-72.2h41.3v10.3h-31.1v-.1zm31.1 0h10.3v51.7h-10.3v-51.7zm86 0v20.7h41.3v10.4h-41.3v30.9H618v-72.2h51.6v10.3h-41.3v-.1zm58.5 0h10.3v51.7h-10.3v-51.7zm41.3-10.2v10.3H697v-10.3h31.1zm-31 72.2v-10.3h31.1v10.3h-31.1zm31-62h10.3v51.7h-10.3v-51.7zm37.7 20.7h31.1v10.4h10.3v30.9h-10.3v-30.9h-31.1v30.9h-10.3v-72.2h41.3v10.3h-31.1l.1 20.6zm41.4 0h-10.3v-20.7h10.3v20.7zm65.4-20.7h10.3v51.7h-10.3v-51.7zm41.4-10.2v10.3h-31.1v-10.3H914zm-31.1 72.2v-10.3H914v10.3h-31.1zm31.1-62h10.3v51.7H914v-51.7zm37.7 10.4h10.4v10.3h-10.4v41.3h-10.3v-72.2h10.3v20.6zm10.4 10.3h10.3v10.4h-10.3v-10.4zm20.6-30.9H993v72.2h-10.3v-20.7h-10.4v-10.3h10.4v-41.2zm37.8 10.2v20.7h41.3v10.4h-41.3v20.7h41.3v10.3h-51.6v-72.3h51.6v10.3h-41.3v-.1z" enable-background="new" fill="#0064ff"/><g enable-background="new" fill="#0064ff"><path d="M360.5 1411.9h-20.7v62h-10.3v-62H309v-10.3h51.6v10.3h-.1zm68.8-10.3v72.2H419v-30.9h-31v30.9h-10.3v-72.2H388v30.9h31.1v-30.9h10.2z"/><use xlink:href="#B"/><use xlink:href="#B" x="68.8"/><path d="M584.1 1401.6h10.3v51.6h-10.3v-51.6zm20.6 51.6v10.4H615v10.3h-10.3v-10.3h-10.4v-10.4h10.4zm10.3 10.4v-10.4h10.4v10.4H615zm10.4-62h10.3v51.6h-10.3v-51.6zm37.7 10.3v20.7h41.3v10.4h-41.3v20.7h41.3v10.3h-51.6v-72.2h51.6v10.3h-41.3v-.2zm106.8 0h10.3v20.7h-10.3v-20.7zm0 62v-10.3h41.3v10.3h-41.3zm51.6-72.3v10.3h-41.3v-10.3h41.3zm-10.3 41.4h-31.1v-10.4h31.1v10.4zm10.3 20.6h-10.3v-20.7h10.3v20.7zm17.2-62H849v62h-10.3v-62zm10.2 72.3v-10.3H880v10.3h-31.1zm31.1-72.3h10.3v62H880v-62zm48.1 10.3v51.7h10.3v10.3h-30.9v-10.3h10.3v-51.7h-10.3v-10.3h30.9v10.3h-10.3zm79.1 0h-20.7v62h-10.3v-62h-20.7v-10.3h51.6v10.3h.1z"/></g><g fill="#c22b2a"><path d="M269.3 1018.2v22h-22v65.9h43.9V974.2h-22v44h.1z"/><path d="M269.3 842.4h-22v87.9h-22v87.9h-22v22h-22v65.9h43.9v-65.9h22v-66h22v-22h22V820.4h-22v22h.1zM379.1 1084v22H423v-22h-43.9zm65.9 0v22h43.9v-22H445zm395.4 0v22h43.9v-22h-43.9zm65.8 0v22h43.9v-22h-43.9zm-307.4 0v22h43.9v-22h-43.9zm87.8 0v22h43.9v-22h-43.9zm373.4-65.8v-44h-22V1106h43.9v-65.9h-22l.1-21.9zm65.9 21.9v-22h-22v-87.9h-22v-87.9h-22v-22h-22v131.8h22v22h22v65.9h22v65.9h43.9V1040l-21.9.1z"/></g><g fill="#7d0019"><path d="M269.3 952.3h22v22h-22v-22z"/><path d="M247.3 996.2v43.9h22v-65.9h-22v22zM445 1106v-22h-22v22h-43.9v22h109.8v-22H445zm461.2 0v-22h-22v22h-43.9v22h109.8v-22h-43.9zm-219.6 0v-22h-43.9v22h-43.9v22h131.8v-22h-44z"/><path d="M225.4 1062.1v43.9h-43.9v-65.9h22v-22h-43.9v109.8h131.8v-22h-43.9V1040h-22v22.1h-.1z"/><path d="M225.4 996.2v-65.9h22v-87.9h-22v65.9h-22v109.9h22v-22zm812.6-43.9h22v22h-22v-22z"/><path d="M1082 996.2v-22h-22v65.9h22v-43.9zm43.9-22v-65.9h-22v-65.9h-22v87.9h22v87.9h22v-44z"/><path d="M1147.8 1018.2h-22v22h22v65.9h-43.9v-65.9h-22v65.9H1038v22h131.8v-109.9h-22z"/></g><path d="M269.3 666.7v153.7h22V644.7h-22v22zm768.7-21.9v175.7h22V644.8h-22zM818.4 776.5h-43.9v43.9h87.9v-43.9h-44zm-307.5 0H467v43.9h87.9v-43.9h-44z" fill="#c0642e"/><path d="M554.8 996.2h-65.9v65.9h109.8v-65.9h-22-21.9zm241.6 0h-65.9v65.9h109.8v-65.9h-22-21.9zm22-131.8h-43.9v43.9h65.9v-43.9h-22zm-285.5 43.9h22v-43.9H489v43.9h43.9z" fill="#8e9397"/><g fill="#5abdce"><path d="M708.6,864.4h-22v43.9h-43.9v-43.9h-43.9v131.8h43.9v-43.9h43.9v43.9h43.9V864.4H708.6z"/><path d="M686.6 864.4v-43.9h-43.9v43.9h43.9z"/></g><path d="M686.6 996.2v-43.9h-43.9v43.9h-43.9v87.9h131.8v-87.9h-22-22zm329.5-329.5v22h-22v22h-43.9v22h-43.9v22h-43.9v65.9H686.7v43.9h43.9v43.9h43.9v-43.9h65.9v43.9H1038V666.8l-21.9-.1z"/><path d="M642.7 864.4v43.9h43.9v-43.9h-43.9zm0-43.9H467v-65.9h-44v-22h-43.9v-22h-43.9v-22h-22v-22h-22v241.6h197.7v-43.9h65.9v43.9h43.9v-43.9h43.9v-22l.1-21.8zm-43.9 131.8H291.3V1128h87.9v-43.9H489v-87.9h109.8v-43.9zm395.3 0H730.5v43.9h109.8v87.9h109.8v43.9h87.9V952.3h-43.9z"/><path d="M554.8 1062.1h-65.9v65.9h109.8v-65.9h-43.9zm241.6 0h-65.9v65.9h109.8v-65.9h-43.9zm219.7-153.8H730.6v43.9H1038v-43.9h-21.9zm-461.3 0H291.2v43.9h307.5v-43.9h-43.9z" fill="#ffc500"/><g fill="#0b0072"><path d="M693.6 115.6v-14.4h-14.5v43.3h14.5v-14.4z"/><path d="M708 144.5h-14.4v28.9H708V159z"/><path d="M708 173.4v43.4h14.5v-43.4z"/><path d="M693.6 216.8h14.5v14.5h-14.5z"/><path d="M664.6 231.2h-28.9v14.5h57.9v-14.5h-14.5z"/></g><g fill="#1000a3"><path d="M635.7 115.6v28.9h14.5v-43.3h-14.5zm-28.9 72.3v28.9h14.5v-43.4h-14.5z"/><path d="M621.3 216.8h14.5v14.5h-14.5zm0-57.8v14.4h14.4v-28.9h-14.4zm28.9-72.3v14.5h28.9V86.7z"/></g><path d="M650.2 159h14.5v14.5h-14.5zm28.9 57.8h14.5v14.5h-14.5z" fill="#fff"/><g fill="#59bcff"><path d="M664.6 144.5v-14.4h-14.4V159h14.4z"/><path d="M664.6 159h14.5v14.5h-14.5z"/><path d="M650.2 173.4h14.5v14.5h-14.5zm0 43.4v14.4h28.9v-14.4h-14.5z"/><path d="M693.6 187.9v28.9H708v-28.9zM635.7 159h14.5v14.5h-14.5z"/></g><g fill="#00f"><path d="M679.1 115.6v-14.4h-14.5v28.9h14.5zm-43.4 57.8h-14.4v28.9h14.4v-14.4z"/><path d="M679.1 144.5v57.8h-43.4v14.5h57.9v-72.3z"/></g><g fill="#0080ff"><path d="M650.2 187.9h14.5v14.5h-14.5zm-28.9 14.4h14.5v14.5h-14.5z"/><path d="M635.7 216.8h14.5v14.5h-14.5zm0-72.3h14.5V159h-14.5zm28.9 0h14.5V159h-14.5zm0 28.9h14.5v14.5h-14.5zm29 0h14.5v14.5h-14.5zm-57.9 0h14.5v14.5h-14.5zm14.5-57.8h14.5v14.5h-14.5z"/></g><path d="M664.6 130.1h14.5v14.5h-14.5zm0 57.8h14.5v14.5h-14.5zm-28.9 0h14.5v14.5h-14.5zm14.5-86.7h14.5v14.5h-14.5z" fill="#0064ff"/><defs ><path id="B" d="M487.8 1411.9h10.3v62h-10.3V1443h-31.1v30.9h-10.3v-62h10.3v20.7h31.1v-20.7zm0-10.3v10.3h-31.1v-10.3h31.1z"/></defs></svg>