<svg width="103" height="103" viewBox="0 0 103 103" fill="none" xmlns="http://www.w3.org/2000/svg">
<path d="M86.9062 6.4375H85.2969V4.82812V3.21875H83.6875H82.0781V4.82812V6.4375H80.4688H78.8594V4.82812V3.21875H77.25H75.6406V4.82812V6.4375H74.0312H72.4219V4.82812V3.21875H70.8125H69.2031V4.82812V6.4375H67.5938H65.9844V4.82812V3.21875H64.375H62.7656V4.82812V6.4375H61.1562H59.5469V4.82812V3.21875H57.9375H56.3281V4.82812V6.4375H54.7188H53.1094V4.82812V3.21875H51.5H49.8906V4.82812V6.4375H48.2812H46.6719V4.82812V3.21875H45.0625H43.4531V4.82812V6.4375H41.8438H40.2344V4.82812V3.21875H38.625H37.0156V4.82812V6.4375H35.4062H33.7969V4.82812V3.21875H32.1875H30.5781V4.82812V6.4375H28.9688H27.3594V4.82812V3.21875H25.75H24.1406V4.82812V6.4375H22.5312H20.9219V4.82812V3.21875H19.3125H17.7031V4.82812V6.4375H16.0938H14.4844V8.04688V9.65625V11.2656V12.875V14.4844V16.0938V17.7031V19.3125V20.9219V22.5312V24.1406V25.75V27.3594V28.9688V30.5781V32.1875V33.7969V35.4062V37.0156V38.625V40.2344V41.8438V43.4531V45.0625V46.6719V48.2812V49.8906V51.5V53.1094V54.7188V56.3281V57.9375V59.5469V61.1562V62.7656V64.375V65.9844V67.5938V69.2031V70.8125V72.4219V74.0312V75.6406V77.25V78.8594V80.4688V82.0781V83.6875V85.2969V86.9062V88.5156V90.125V91.7344V93.3438V94.9531V96.5625V98.1719V99.7812H16.0938H17.7031V98.1719V96.5625H19.3125H20.9219V98.1719V99.7812H22.5312H24.1406V98.1719V96.5625H25.75H27.3594V98.1719V99.7812H28.9688H30.5781V98.1719V96.5625H32.1875H33.7969V98.1719V99.7812H35.4062H37.0156V98.1719V96.5625H38.625H40.2344V98.1719V99.7812H41.8438H43.4531V98.1719V96.5625H45.0625H46.6719V98.1719V99.7812H48.2812H49.8906V98.1719V96.5625H51.5H53.1094V98.1719V99.7812H54.7188H56.3281V98.1719V96.5625H57.9375H59.5469V98.1719V99.7812H61.1562H62.7656V98.1719V96.5625H64.375H65.9844V98.1719V99.7812H67.5938H69.2031V98.1719V96.5625H70.8125H72.4219V98.1719V99.7812H74.0312H75.6406V98.1719V96.5625H77.25H78.8594V98.1719V99.7812H80.4688H82.0781V98.1719V96.5625H83.6875H85.2969V98.1719V99.7812H86.9062H88.5156V98.1719V96.5625V94.9531V93.3438V91.7344V90.125V88.5156V86.9062V85.2969V83.6875V82.0781V80.4688V78.8594V77.25V75.6406V74.0312V72.4219V70.8125V69.2031V67.5938V65.9844V64.375V62.7656V61.1562V59.5469V57.9375V56.3281V54.7188V53.1094V51.5V49.8906V48.2812V46.6719V45.0625V43.4531V41.8438V40.2344V38.625V37.0156V35.4062V33.7969V32.1875V30.5781V28.9688V27.3594V25.75V24.1406V22.5312V20.9219V19.3125V17.7031V16.0938V14.4844V12.875V11.2656V9.65625V8.04688V6.4375H86.9062Z" fill="#59BCFF"/>
<path d="M80.4688 12.875H78.8594V14.4844H80.4688V12.875Z" fill="#0064FF"/>
<path d="M80.4688 88.5156H78.8594V90.125H80.4688V88.5156Z" fill="#0064FF"/>
<path d="M80.4688 14.4844V16.0938V17.7031V19.3125V20.9219V22.5312V24.1406V25.75H78.8594H77.25H75.6406H74.0312H72.4219H70.8125H69.2031H67.5938H65.9844H64.375H62.7656H61.1562H59.5469H57.9375H56.3281H54.7188H53.1094H51.5H49.8906H48.2812H46.6719H45.0625H43.4531H41.8438H40.2344H38.625H37.0156H35.4062H33.7969H32.1875H30.5781H28.9688H27.3594H25.75H24.1406H22.5312V24.1406V22.5312V20.9219V19.3125V17.7031V16.0938V14.4844H20.9219V16.0938V17.7031V19.3125V20.9219V22.5312V24.1406V25.75V27.3594V28.9688V30.5781V32.1875V33.7969V35.4062V37.0156V38.625V40.2344V41.8438V43.4531V45.0625V46.6719V48.2812V49.8906V51.5V53.1094V54.7188V56.3281V57.9375V59.5469V61.1562V62.7656V64.375V65.9844V67.5938V69.2031V70.8125V72.4219V74.0312V75.6406V77.25V78.8594V80.4688V82.0781V83.6875V85.2969V86.9062V88.5156H22.5312V86.9062V85.2969V83.6875V82.0781V80.4688V78.8594V77.25H24.1406H25.75H27.3594H28.9688H30.5781H32.1875H33.7969H35.4062H37.0156H38.625H40.2344H41.8438H43.4531H45.0625H46.6719H48.2812H49.8906H51.5H53.1094H54.7188H56.3281H57.9375H59.5469H61.1562H62.7656H64.375H65.9844H67.5938H69.2031H70.8125H72.4219H74.0312H75.6406H77.25H78.8594H80.4688V78.8594V80.4688V82.0781V83.6875V85.2969V86.9062V88.5156H82.0781V86.9062V85.2969V83.6875V82.0781V80.4688V78.8594V77.25V75.6406V74.0312V72.4219V70.8125V69.2031V67.5938V65.9844V64.375V62.7656V61.1562V59.5469V57.9375V56.3281V54.7188V53.1094V51.5V49.8906V48.2812V46.6719V45.0625V43.4531V41.8438V40.2344V38.625V37.0156V35.4062V33.7969V32.1875V30.5781V28.9688V27.3594V25.75V24.1406V22.5312V20.9219V19.3125V17.7031V16.0938V14.4844H80.4688ZM80.4688 28.9688V30.5781V32.1875V33.7969V35.4062V37.0156V38.625V40.2344V41.8438V43.4531V45.0625V46.6719V48.2812V49.8906V51.5V53.1094V54.7188V56.3281V57.9375V59.5469V61.1562V62.7656V64.375V65.9844V67.5938V69.2031V70.8125V72.4219V74.0312V75.6406H78.8594H77.25H75.6406H74.0312H72.4219H70.8125H69.2031H67.5938H65.9844H64.375H62.7656H61.1562H59.5469H57.9375H56.3281H54.7188H53.1094H51.5H49.8906H48.2812H46.6719H45.0625H43.4531H41.8438H40.2344H38.625H37.0156H35.4062H33.7969H32.1875H30.5781H28.9688H27.3594H25.75H24.1406H22.5312V74.0312V72.4219V70.8125V69.2031V67.5938V65.9844V64.375V62.7656V61.1562V59.5469V57.9375V56.3281V54.7188V53.1094V51.5V49.8906V48.2812V46.6719V45.0625V43.4531V41.8438V40.2344V38.625V37.0156V35.4062V33.7969V32.1875V30.5781V28.9688V27.3594H24.1406H25.75H27.3594H28.9688H30.5781H32.1875H33.7969H35.4062H37.0156H38.625H40.2344H41.8438H43.4531H45.0625H46.6719H48.2812H49.8906H51.5H53.1094H54.7188H56.3281H57.9375H59.5469H61.1562H62.7656H64.375H65.9844H67.5938H69.2031H70.8125H72.4219H74.0312H75.6406H77.25H78.8594H80.4688V28.9688Z" fill="#0064FF"/>
<path d="M27.3594 12.875H28.9688H30.5781H32.1875H33.7969H35.4062H37.0156H38.625H40.2344H41.8438H43.4531H45.0625H46.6719H48.2812H49.8906H51.5H53.1094H54.7188H56.3281H57.9375H59.5469H61.1562H62.7656H64.375H65.9844H67.5938H69.2031H70.8125H72.4219H74.0312H75.6406H77.25H78.8594V11.2656H77.25H75.6406H74.0312H72.4219H70.8125H69.2031H67.5938H65.9844H64.375H62.7656H61.1562H59.5469H57.9375H56.3281H54.7188H53.1094H51.5H49.8906H48.2812H46.6719H45.0625H43.4531H41.8438H40.2344H38.625H37.0156H35.4062H33.7969H32.1875H30.5781H28.9688H27.3594H25.75H24.1406V12.875H25.75H27.3594Z" fill="#0064FF"/>
<path d="M24.1406 12.875H22.5312V14.4844H24.1406V12.875Z" fill="#0064FF"/>
<path d="M24.1406 88.5156H22.5312V90.125H24.1406V88.5156Z" fill="#0064FF"/>
<path d="M75.6406 90.125H74.0312H72.4219H70.8125H69.2031H67.5938H65.9844H64.375H62.7656H61.1562H59.5469H57.9375H56.3281H54.7188H53.1094H51.5H49.8906H48.2812H46.6719H45.0625H43.4531H41.8438H40.2344H38.625H37.0156H35.4062H33.7969H32.1875H30.5781H28.9688H27.3594H25.75H24.1406V91.7344H25.75H27.3594H28.9688H30.5781H32.1875H33.7969H35.4062H37.0156H38.625H40.2344H41.8438H43.4531H45.0625H46.6719H48.2812H49.8906H51.5H53.1094H54.7188H56.3281H57.9375H59.5469H61.1562H62.7656H64.375H65.9844H67.5938H69.2031H70.8125H72.4219H74.0312H75.6406H77.25H78.8594V90.125H77.25H75.6406Z" fill="#0064FF"/>
<path d="M77.25 77.25H75.6406H74.0312H72.4219H70.8125H69.2031H67.5938H65.9844H64.375H62.7656H61.1562H59.5469H57.9375H56.3281H54.7188H53.1094H51.5H49.8906H48.2812H46.6719H45.0625H43.4531H41.8438H40.2344H38.625H37.0156H35.4062H33.7969H32.1875H30.5781H28.9688H27.3594H25.75H24.1406H22.5312V78.8594V80.4688V82.0781V83.6875V85.2969V86.9062V88.5156H24.1406V90.125H25.75H27.3594H28.9688H30.5781H32.1875H33.7969H35.4062H37.0156H38.625H40.2344H41.8438H43.4531H45.0625H46.6719H48.2812H49.8906H51.5H53.1094H54.7188H56.3281H57.9375H59.5469H61.1562H62.7656H64.375H65.9844H67.5938H69.2031H70.8125H72.4219H74.0312H75.6406H77.25H78.8594V88.5156H80.4688V86.9062V85.2969V83.6875V82.0781V80.4688V78.8594V77.25H78.8594H77.25Z" fill="white"/>
<path d="M78.8594 14.4844V12.875H77.25H75.6406H74.0312H72.4219H70.8125H69.2031H67.5938H65.9844H64.375H62.7656H61.1562H59.5469H57.9375H56.3281H54.7188H53.1094H51.5H49.8906H48.2812H46.6719H45.0625H43.4531H41.8438H40.2344H38.625H37.0156H35.4062H33.7969H32.1875H30.5781H28.9688H27.3594H25.75H24.1406V14.4844H22.5312V16.0938V17.7031V19.3125V20.9219V22.5312V24.1406V25.75H24.1406H25.75H27.3594H28.9688H30.5781H32.1875H33.7969H35.4062H37.0156H38.625H40.2344H41.8438H43.4531H45.0625H46.6719H48.2812H49.8906H51.5H53.1094H54.7188H56.3281H57.9375H59.5469H61.1562H62.7656H64.375H65.9844H67.5938H69.2031H70.8125H72.4219H74.0312H75.6406H77.25H78.8594H80.4688V24.1406V22.5312V20.9219V19.3125V17.7031V16.0938V14.4844H78.8594Z" fill="white"/>
<path d="M77.25 27.3594H75.6406H74.0312H72.4219H70.8125H69.2031H67.5938H65.9844H64.375H62.7656H61.1562H59.5469H57.9375H56.3281H54.7188H53.1094H51.5H49.8906H48.2812H46.6719H45.0625H43.4531H41.8438H40.2344H38.625H37.0156H35.4062H33.7969H32.1875H30.5781H28.9688H27.3594H25.75H24.1406H22.5312V28.9688V30.5781V32.1875V33.7969V35.4062V37.0156V38.625V40.2344V41.8438V43.4531V45.0625V46.6719V48.2812V49.8906V51.5V53.1094V54.7188V56.3281V57.9375V59.5469V61.1562V62.7656V64.375V65.9844V67.5938V69.2031V70.8125V72.4219V74.0312V75.6406H24.1406H25.75H27.3594H28.9688H30.5781H32.1875H33.7969H35.4062H37.0156H38.625H40.2344H41.8438H43.4531H45.0625H46.6719H48.2812H49.8906H51.5H53.1094H54.7188H56.3281H57.9375H59.5469H61.1562H62.7656H64.375H65.9844H67.5938H69.2031H70.8125H72.4219H74.0312H75.6406H77.25H78.8594H80.4688V74.0312V72.4219V70.8125V69.2031V67.5938V65.9844V64.375V62.7656V61.1562V59.5469V57.9375V56.3281V54.7188V53.1094V51.5V49.8906V48.2812V46.6719V45.0625V43.4531V41.8438V40.2344V38.625V37.0156V35.4062V33.7969V32.1875V30.5781V28.9688V27.3594H78.8594H77.25Z" fill="white"/>
<path d="M53.1094 9.65625V8.85156H52.3047V9.65625V10.4609V11.2656H53.1094V10.4609V9.65625Z" fill="#0B0072"/>
<path d="M53.9141 11.2656H53.1094V12.0703V12.875H53.9141V12.0703V11.2656Z" fill="#0B0072"/>
<path d="M53.9141 12.875V13.6797V14.4844V15.2891H54.7188V14.4844V13.6797V12.875H53.9141Z" fill="#0B0072"/>
<path d="M53.9141 15.2891H53.1094V16.0938H53.9141V15.2891Z" fill="#0B0072"/>
<path d="M51.5 16.0938H50.6953H49.8906V16.8984H50.6953H51.5H52.3047H53.1094V16.0938H52.3047H51.5Z" fill="#0B0072"/>
<path d="M49.8906 9.65625V10.4609V11.2656H50.6953V10.4609V9.65625V8.85156H49.8906V9.65625Z" fill="#1000A3"/>
<path d="M48.2812 13.6797V14.4844V15.2891H49.0859V14.4844V13.6797V12.875H48.2812V13.6797Z" fill="#1000A3"/>
<path d="M49.8906 15.2891H49.0859V16.0938H49.8906V15.2891Z" fill="#1000A3"/>
<path d="M49.0859 12.0703V12.875H49.8906V12.0703V11.2656H49.0859V12.0703Z" fill="#1000A3"/>
<path d="M51.5 8.04688H50.6953V8.85156H51.5H52.3047V8.04688H51.5Z" fill="#1000A3"/>
<path d="M51.5 12.0703H50.6953V12.875H51.5V12.0703Z" fill="white"/>
<path d="M53.1094 15.2891H52.3047V16.0938H53.1094V15.2891Z" fill="white"/>
<path d="M51.5 11.2656V10.4609H50.6953V11.2656V12.0703H51.5V11.2656Z" fill="#59BCFF"/>
<path d="M52.3047 12.0703H51.5V12.875H52.3047V12.0703Z" fill="#59BCFF"/>
<path d="M51.5 12.875H50.6953V13.6797H51.5V12.875Z" fill="#59BCFF"/>
<path d="M50.6953 15.2891V16.0938H51.5H52.3047V15.2891H51.5H50.6953Z" fill="#59BCFF"/>
<path d="M53.1094 13.6797V14.4844V15.2891H53.9141V14.4844V13.6797H53.1094Z" fill="#59BCFF"/>
<path d="M50.6953 12.0703H49.8906V12.875H50.6953V12.0703Z" fill="#59BCFF"/>
<path d="M52.3047 9.65625V8.85156H51.5V9.65625V10.4609H52.3047V9.65625Z" fill="#0000FF"/>
<path d="M49.8906 12.875H49.0859V13.6797V14.4844H49.8906V13.6797V12.875Z" fill="#0000FF"/>
<path d="M52.3047 11.2656V12.0703V12.875V13.6797V14.4844H51.5H50.6953H49.8906V15.2891H50.6953H51.5H52.3047H53.1094V14.4844V13.6797V12.875V12.0703V11.2656H52.3047Z" fill="#0000FF"/>
<path d="M51.5 13.6797H50.6953V14.4844H51.5V13.6797Z" fill="#0080FF"/>
<path d="M49.8906 14.4844H49.0859V15.2891H49.8906V14.4844Z" fill="#0080FF"/>
<path d="M50.6953 15.2891H49.8906V16.0938H50.6953V15.2891Z" fill="#0080FF"/>
<path d="M50.6953 11.2656H49.8906V12.0703H50.6953V11.2656Z" fill="#0080FF"/>
<path d="M52.3047 11.2656H51.5V12.0703H52.3047V11.2656Z" fill="#0080FF"/>
<path d="M52.3047 12.875H51.5V13.6797H52.3047V12.875Z" fill="#0080FF"/>
<path d="M53.9141 12.875H53.1094V13.6797H53.9141V12.875Z" fill="#0080FF"/>
<path d="M50.6953 12.875H49.8906V13.6797H50.6953V12.875Z" fill="#0080FF"/>
<path d="M51.5 9.65625H50.6953V10.4609H51.5V9.65625Z" fill="#0080FF"/>
<path d="M52.3047 10.4609H51.5V11.2656H52.3047V10.4609Z" fill="#0064FF"/>
<path d="M52.3047 13.6797H51.5V14.4844H52.3047V13.6797Z" fill="#0064FF"/>
<path d="M50.6953 13.6797H49.8906V14.4844H50.6953V13.6797Z" fill="#0064FF"/>
<path d="M51.5 8.85156H50.6953V9.65625H51.5V8.85156Z" fill="#0064FF"/>
<path d="M36.9537 18.6264V19.0584H37.3797V19.4844H36.9537V19.0584H36.5217V18.6264H36.9537ZM37.3797 19.0584V18.6264H37.8117V19.0584H37.3797ZM36.0957 16.4844H36.5217V18.6264H36.0957V16.4844ZM37.8117 16.4844H38.2377V18.6264H37.8117V16.4844ZM40.3781 16.4844V16.9104H39.0881V16.4844H40.3781ZM40.3781 16.9104H40.8041V19.4844H40.3781V18.2004H39.0881V19.4844H38.6621V16.9104H39.0881V17.7684H40.3781V16.9104ZM41.6545 19.0584H43.3705V19.4844H41.2285V16.4844H41.6545V19.0584ZM45.0789 16.9104H44.6529V19.0584H45.0789V19.4844H43.7949V19.0584H44.2209V16.9104H43.7949V16.4844H45.0789V16.9104ZM45.9319 16.9104V19.0584H47.2219V19.4844H45.5059V16.4844H47.2219V16.9104H45.9319ZM47.2219 16.9104H47.6479V19.0584H47.2219V16.9104ZM51.9311 16.9104H50.2151V17.7684H51.9311V18.2004H50.2151V19.4844H49.7891V16.4844H51.9311V16.9104ZM52.7815 19.4844V19.0584H54.0715V19.4844H52.7815ZM52.3555 16.9104H52.7815V19.0584H52.3555V16.9104ZM54.0715 16.4844V16.9104H52.7815V16.4844H54.0715ZM54.0715 16.9104H54.4975V19.0584H54.0715V16.9104ZM57.0639 17.7684H56.6379V16.9104H57.0639V17.7684ZM55.3479 17.7684H56.6379V18.2004H57.0639V19.4844H56.6379V18.2004H55.3479V19.4844H54.9219V16.4844H56.6379V16.9104H55.3479V17.7684ZM59.6311 19.4844V19.0584H60.9211V19.4844H59.6311ZM59.2051 16.9104H59.6311V19.0584H59.2051V16.9104ZM60.9211 16.4844V16.9104H59.6311V16.4844H60.9211ZM60.9211 16.9104H61.3471V19.0584H60.9211V16.9104ZM62.1975 17.3424H62.6295V17.7684H62.1975V19.4844H61.7715V16.4844H62.1975V17.3424ZM62.6295 17.7684H63.0555V18.2004H62.6295V17.7684ZM63.4875 16.4844H63.9135V19.4844H63.4875V18.6264H63.0555V18.2004H63.4875V16.4844ZM66.4799 16.9104H64.7639V17.7684H66.4799V18.2004H64.7639V19.0584H66.4799V19.4844H64.3379V16.4844H66.4799V16.9104Z" fill="#0064FF"/>
<path d="M35.6662 79.676H36.0982V80.108H35.6662V82.25H35.2402V79.25H35.6662V79.676ZM36.0982 80.108H36.5242V80.534H36.0982V80.108ZM36.5242 80.966V80.534H36.9562V80.966H36.5242ZM36.9562 80.534V80.108H37.3822V80.534H36.9562ZM37.8142 79.25H38.2402V82.25H37.8142V80.108H37.3822V79.676H37.8142V79.25ZM40.384 79.25V79.676H39.094V79.25H40.384ZM40.384 79.676H40.81V82.25H40.384V80.966H39.094V82.25H38.668V79.676H39.094V80.534H40.384V79.676ZM43.3764 80.534H42.9504V79.676H43.3764V80.534ZM41.6604 80.534H42.9504V80.966H43.3764V82.25H42.9504V80.966H41.6604V82.25H41.2344V79.25H42.9504V79.676H41.6604V80.534ZM45.0848 79.676H44.6588V81.824H45.0848V82.25H43.8008V81.824H44.2268V79.676H43.8008V79.25H45.0848V79.676ZM45.9377 80.108H46.3697V80.534H45.9377V82.25H45.5117V79.25H45.9377V80.108ZM46.3697 80.534H46.7957V80.966H46.3697V80.534ZM47.2277 79.25H47.6537V82.25H47.2277V81.392H46.7957V80.966H47.2277V79.25ZM50.2201 79.676H48.5041V80.534H50.2201V80.966H48.5041V81.824H50.2201V82.25H48.0781V79.25H50.2201V79.676ZM52.3613 80.966H52.7873V81.824H52.3613V80.966ZM52.7873 82.25V81.824H54.0773V82.25H52.7873ZM53.2193 79.25H54.5033V81.824H54.0773V79.676H53.2193V79.25ZM56.6437 79.25V79.676H55.3537V79.25H56.6437ZM56.6437 79.676H57.0697V82.25H56.6437V80.966H55.3537V82.25H54.9277V79.676H55.3537V80.534H56.6437V79.676ZM59.6361 82.25H57.9201V81.824H59.6361V82.25ZM57.4941 79.676H57.9201V81.824H57.4941V79.676ZM59.6361 79.25V79.676H57.9201V79.25H59.6361ZM60.4865 80.534H60.9185V80.966H60.4865V82.25H60.0605V79.25H60.4865V80.534ZM61.3445 80.108V80.534H60.9185V80.108H61.3445ZM61.7765 79.676V80.108H61.3445V79.676H61.7765ZM62.2025 79.25V79.676H61.7765V79.25H62.2025ZM61.3445 81.392H60.9185V80.966H61.3445V81.392ZM61.7765 81.824H61.3445V81.392H61.7765V81.824ZM62.2025 82.25H61.7765V81.824H62.2025V82.25ZM64.769 79.676H63.053V80.534H64.769V80.966H63.053V81.824H64.769V82.25H62.627V79.25H64.769V79.676ZM67.3354 79.25V79.676H66.4774V82.25H66.0514V79.676H65.1934V79.25H67.3354Z" fill="#0064FF"/>
<g clip-path="url(#clip0)">
<path d="M67.9156 50.9368H66.5477V52.3047H67.9156V50.9368Z" fill="white"/>
<path d="M65.1797 50.9368H63.8117V52.3047H65.1797V50.9368Z" fill="white"/>
<path d="M63.8117 57.7766H62.4437V59.1446H63.8117V57.7766Z" fill="#E15667"/>
<path d="M62.4438 57.7766H61.0758V59.1446H62.4438V57.7766Z" fill="#FED11F"/>
<path d="M66.5477 57.7766H65.1797V59.1446H66.5477V57.7766Z" fill="#4B6329"/>
<path d="M69.2836 57.7766H67.9156V59.1446H69.2836V57.7766Z" fill="#F55549"/>
<path d="M69.2836 55.0406H67.9156V56.4086H69.2836V55.0406Z" fill="#698BD9"/>
<path d="M69.2836 56.4086H67.9156V57.7765H69.2836V56.4086Z" fill="#E2E5F3"/>
<path d="M66.5477 56.4086H65.1797V57.7765H66.5477V56.4086Z" fill="#45322F"/>
<path d="M65.1797 57.7766H63.8117V59.1446H65.1797V57.7766Z" fill="#474981"/>
<path d="M67.9156 57.7766H66.5477V59.1446H67.9156V57.7766Z" fill="#756638"/>
<path d="M52.8679 48.2008H51.5H50.132H48.764V49.5688H50.132V50.9367V52.3047H51.5H52.8679V50.9367V49.5688H54.2359V48.2008H52.8679Z" fill="#222423"/>
<path d="M67.9156 56.4086H66.5477V57.7765H67.9156V56.4086Z" fill="#D9C6B2"/>
<path d="M55.6039 46.8329H54.236V48.2009V49.5688H52.868V50.9368V52.3048H54.236V50.9368H55.6039V49.5688V48.2009H56.9719H58.3399V46.8329H56.9719H55.6039Z" fill="#C2CBC7"/>
<path d="M59.7078 45.4648H58.3398V46.8328H59.7078H61.0758V45.4648H59.7078Z" fill="#C2CBC7"/>
<path d="M43.2922 45.4648H41.9242V46.8328H43.2922H44.6601V45.4648H43.2922Z" fill="#C2CBC7"/>
<path d="M48.7641 48.2009V46.8329H47.3961H46.0281H44.6602V48.2009H46.0281H47.3961V49.5688V50.9368H48.7641V52.3048H50.132V50.9368V49.5688H48.7641V48.2009Z" fill="#C2CBC7"/>
<path d="M63.8117 55.0406H62.4437V56.4086H63.8117V55.0406Z" fill="#76946F"/>
<path d="M65.1797 55.0406H63.8117V56.4086H65.1797V55.0406Z" fill="#CAD4E4"/>
<path d="M66.5477 60.5125H65.1797V61.8804H66.5477V60.5125Z" fill="#FAFEFD"/>
<path d="M70.6515 56.4086H69.2836V57.7765H70.6515V56.4086Z" fill="#556592"/>
<path d="M70.6515 57.7766H69.2836V59.1446H70.6515V57.7766Z" fill="#4770BB"/>
<path d="M37.8203 48.2008H36.4524V49.5688H37.8203V48.2008Z" fill="#6F4017"/>
<path d="M37.8203 49.5688V50.9368H39.1883V52.3048V53.6728V55.0407H40.5562V53.6728V52.3048V50.9368V49.5688H39.1883H37.8203Z" fill="#6F4017"/>
<path d="M37.8203 56.4086H36.4524V57.7765H37.8203V56.4086Z" fill="#6F4017"/>
<path d="M69.2836 50.9368H67.9156V52.3047H69.2836V50.9368Z" fill="#6F4017"/>
<path d="M66.5477 50.9368H65.1797V52.3047H66.5477V50.9368Z" fill="#6F4017"/>
<path d="M63.8117 50.9368H62.4437V52.3047H63.8117V50.9368Z" fill="#6F4017"/>
<path d="M35.0844 52.3048V50.9368H36.4523V49.5688H35.0844H33.7164V50.9368V52.3048V53.6728V55.0407H35.0844V53.6728V52.3048Z" fill="#6F4017"/>
<path d="M39.1883 55.0406H37.8203V56.4086H39.1883V55.0406Z" fill="#6F4017"/>
<path d="M36.4523 55.0406H35.0844V56.4086H36.4523V55.0406Z" fill="#6F4017"/>
<path d="M66.5477 55.0406H65.1797V56.4086H66.5477V55.0406Z" fill="#5666BC"/>
<path d="M65.1797 56.4086H63.8117V57.7765H65.1797V56.4086Z" fill="#F6D435"/>
<path d="M63.8117 56.4086H62.4437V57.7765H63.8117V56.4086Z" fill="#E6BF8F"/>
<path d="M37.8203 59.1445H36.4523H35.0844H33.7164V60.5125H35.0844H36.4523H37.8203H39.1883H40.5562V59.1445H39.1883H37.8203Z" fill="#C23E3F"/>
<path d="M43.2922 48.2008H41.9242V49.5688H43.2922V48.2008Z" fill="#C23E3F"/>
<path d="M67.9156 55.0406H66.5477V56.4086H67.9156V55.0406Z" fill="#C23E3F"/>
<path d="M62.4438 56.4086H61.0758V57.7765H62.4438V56.4086Z" fill="#F75457"/>
<path d="M37.8203 49.5688H36.4523V50.9368H35.0844V52.3048V53.6728V55.0407H36.4523V56.4087H37.8203V55.0407H39.1883V53.6728V52.3048V50.9368H37.8203V49.5688Z" fill="#F8AF4E"/>
<path d="M66.5476 52.3047H65.1797H63.8117H62.4437V53.6727H63.8117H65.1797H66.5476H67.9156H69.2836V52.3047H67.9156H66.5476Z" fill="#F8AF4E"/>
<path d="M65.1797 50.9368H66.5476H67.9156H69.2836V49.5688H67.9156H66.5476H65.1797H63.8117H62.4437V50.9368H63.8117H65.1797Z" fill="#F8AF4E"/>
<path d="M62.4438 50.9368H61.0758V52.3047H62.4438V50.9368Z" fill="#F8AF4E"/>
<path d="M61.0758 48.2008H59.7078V49.5688H61.0758V48.2008Z" fill="#F8AF4E"/>
<path d="M52.868 63.2484H51.5V64.6164H52.868V63.2484Z" fill="#F8AF4E"/>
<path d="M52.868 60.5125H51.5V61.8804H52.868V60.5125Z" fill="#F8AF4E"/>
<path d="M70.6515 50.9368H69.2836V52.3047H70.6515V50.9368Z" fill="#F8AF4E"/>
<path d="M28.2445 41.361H26.8766V42.7289H28.2445V41.361Z" fill="#F8AF4E"/>
<path d="M66.5477 59.1445H65.1797V60.5125H66.5477V59.1445Z" fill="#DDD9D6"/>
<path d="M66.5476 61.8804H65.1797V60.5125H63.8117V61.8804V63.2484H65.1797H66.5476H67.9156V61.8804V60.5125H66.5476V61.8804Z" fill="#DDD9D6"/>
<path d="M76.1235 41.361H74.7555V42.7289H76.1235V41.361Z" fill="#DDD9D6"/>
<path d="M47.3961 56.4087H46.0281V55.0407H44.6602V53.6728H43.2922V52.3048H41.9242H40.5563V53.6728V55.0407H39.1883V56.4087H37.8203V57.7766H39.1883H40.5563V59.1446V60.5126V61.8805V63.2485V64.6165H39.1883H37.8203H36.4524H35.0844H33.7164V63.2485V61.8805V60.5126V59.1446V57.7766H35.0844H36.4524V56.4087H35.0844V55.0407H33.7164V53.6728V52.3048V50.9368V49.5688H35.0844H36.4524V48.2009H35.0844H33.7164V46.8329H32.3485H30.9805V45.4649V44.097V42.729H29.6125V44.097V45.4649V46.8329V48.2009V49.5688V50.9368V52.3048V53.6728V55.0407V56.4087V57.7766V59.1446V60.5126V61.8805V63.2485V64.6165V65.9844H30.9805H32.3485H33.7164H35.0844H36.4524H37.8203H39.1883H40.5563H41.9242H43.2922H44.6602H46.0281H47.3961H48.7641H50.132V64.6165V63.2485V61.8805V60.5126V59.1446H48.7641V57.7766H47.3961V56.4087Z" fill="#283D2E"/>
<path d="M48.7641 50.9367H47.3961V49.5688V48.2008H46.0281H44.6602V46.8328H43.2922H41.9242V45.4649H40.5562H39.1883V44.0969H37.8203H36.4523V42.7289H35.0844H33.7164V41.361H32.3484H30.9805V42.7289H32.3484V44.0969V45.4649H33.7164V46.8328H35.0844H36.4523V48.2008H37.8203V49.5688H39.1883H40.5562V50.9367H41.9242H43.2922V52.3047H44.6602V53.6727H46.0281V55.0406H47.3961V56.4086H48.7641V57.7766H50.132V56.4086V55.0406V53.6727V52.3047H48.7641V50.9367ZM41.9242 49.5688V48.2008H43.2922V49.5688H41.9242Z" fill="#283D2E"/>
<path d="M30.9805 39.993H29.6125V41.361H30.9805V39.993Z" fill="#283D2E"/>
<path d="M69.2836 41.361V42.7289H67.9156H66.5477V44.0969H65.1797H63.8117V45.4649H62.4437H61.0758V46.8328H59.7078H58.3398V48.2008H56.9719H55.6039V49.5688V50.9367H54.2359V52.3047H52.868H51.5V53.6727V55.0406V56.4086V57.7766V59.1445H52.868V57.7766H54.2359V56.4086H55.6039V55.0406H56.9719V53.6727H58.3398V52.3047H59.7078H61.0758V50.9367H62.4437V49.5688H63.8117V48.2008H65.1797H66.5477V46.8328H67.9156H69.2836V45.4649H70.6516V44.0969V42.7289H72.0195V41.361H70.6516H69.2836ZM59.7078 49.5688V48.2008H61.0758V49.5688H59.7078Z" fill="#283D2E"/>
<path d="M73.3875 39.993H72.0195V41.361H73.3875V39.993Z" fill="#283D2E"/>
<path d="M72.0195 45.4649V46.8329H70.6516H69.2836V48.2009H67.9156H66.5477V49.5688H67.9156H69.2836V50.9368H70.6516V52.3048H69.2836V53.6728H67.9156H66.5477H65.1797H63.8117H62.4437V52.3048H61.0758V53.6728H59.7078H58.3398V55.0407H56.9719V56.4087H55.6039V57.7766H54.2359V59.1446H52.868V60.5126V61.8805H51.5V63.2485H52.868V64.6165H51.5V65.9844H52.868H54.2359H55.6039H56.9719H58.3398H59.7078H61.0758H62.4437H63.8117H65.1797H66.5477H67.9156H69.2836H70.6516H72.0195H73.3875V64.6165V63.2485V61.8805V60.5126V59.1446V57.7766V56.4087V55.0407V53.6728V52.3048V50.9368V49.5688V48.2009V46.8329V45.4649V44.097V42.729H72.0195V44.097V45.4649ZM69.2836 64.6165H67.9156H66.5477H65.1797H63.8117H62.4437H61.0758V63.2485V61.8805V60.5126V59.1446V57.7766V56.4087H62.4437V55.0407H63.8117H65.1797H66.5477H67.9156H69.2836V56.4087H70.6516V57.7766V59.1446V60.5126V61.8805V63.2485V64.6165H69.2836Z" fill="#283D2E"/>
<path d="M25.5086 42.729V44.097V45.4649V46.8329V48.2009V49.5688V50.9368H26.8765V49.5688H28.2445V48.2009V46.8329V45.4649V44.097V42.729H26.8765H25.5086Z" fill="#283D2E"/>
<path d="M76.1235 42.729H74.7555V44.097V45.4649V46.8329V48.2009V49.5688H76.1235V50.9368H77.4914V49.5688V48.2009V46.8329V45.4649V44.097V42.729H76.1235Z" fill="#283D2E"/>
<path d="M35.0844 48.2009H36.4523V46.8329H35.0844H33.7164V48.2009H35.0844Z" fill="#092C1B"/>
<path d="M35.0844 57.7766H33.7164V59.1446H35.0844H36.4523H37.8203H39.1883H40.5562V57.7766H39.1883H37.8203H36.4523H35.0844Z" fill="#092C1B"/>
<path d="M47.3961 55.0406H46.0281V56.4086H47.3961V55.0406Z" fill="#092C1B"/>
<path d="M41.9242 50.9368H40.5563V52.3047H41.9242H43.2922V50.9368H41.9242Z" fill="#092C1B"/>
<path d="M37.8203 60.5125H36.4523H35.0844H33.7164V61.8804V63.2484V64.6164H35.0844H36.4523H37.8203H39.1883H40.5562V63.2484V61.8804V60.5125H39.1883H37.8203Z" fill="#092C1B"/>
<path d="M66.5477 46.8329V48.2009H67.9156H69.2836V46.8329H67.9156H66.5477Z" fill="#092C1B"/>
<path d="M63.8117 48.2008V49.5688H65.1797H66.5476V48.2008H65.1797H63.8117Z" fill="#092C1B"/>
<path d="M61.0758 53.6727V52.3047H59.7078H58.3398V53.6727H59.7078H61.0758Z" fill="#092C1B"/>
<path d="M61.0758 60.5125V61.8805V63.2484V64.6164H62.4438H63.8117H65.1797H66.5477H67.9156H69.2836H70.6516V63.2484V61.8805V60.5125V59.1445H69.2836H67.9156H66.5477V60.5125H67.9156V61.8805V63.2484H66.5477H65.1797H63.8117V61.8805V60.5125H65.1797V59.1445H63.8117H62.4438H61.0758V60.5125Z" fill="#092C1B"/>
<path d="M56.9719 55.0406H55.6039V56.4086H56.9719V55.0406Z" fill="#092C1B"/>
<path d="M54.236 57.7766H52.868V59.1446H54.236V57.7766Z" fill="#092C1B"/>
<path d="M55.6039 56.4086H54.236V57.7765H55.6039V56.4086Z" fill="#092C1B"/>
<path d="M48.7641 56.4086H47.3961V57.7765H48.7641V56.4086Z" fill="#092C1B"/>
<path d="M70.6515 44.097V45.4649H69.2836V46.8329H70.6515H72.0195V45.4649V44.097V42.729H70.6515V44.097Z" fill="#092C1B"/>
<path d="M44.6601 52.3047H43.2922V53.6727H44.6601V52.3047Z" fill="#092C1B"/>
<path d="M30.9805 45.4649V46.8329H32.3484H33.7164V45.4649H32.3484V44.097V42.729H30.9805V44.097V45.4649Z" fill="#092C1B"/>
<path d="M46.0281 53.6727H44.6602V55.0406H46.0281V53.6727Z" fill="#092C1B"/>
<path d="M58.3398 53.6727H56.9719V55.0406H58.3398V53.6727Z" fill="#092C1B"/>
<path d="M26.8765 41.361H25.5086V42.7289H26.8765V41.361Z" fill="#092C1B"/>
<path d="M25.5086 49.5688V48.2009V46.8329V45.4649V44.097V42.729H24.1406V44.097V45.4649V46.8329V48.2009V49.5688V50.9368V52.3048H25.5086H26.8766V50.9368H25.5086V49.5688Z" fill="#092C1B"/>
<path d="M74.7555 49.5688V48.2008V46.8328V45.4648V44.0969V42.7289V41.3609H76.1234V39.993H77.4914V38.625H76.1234H74.7555V39.993H73.3875V41.3609H72.0195V42.7289H73.3875V44.0969V45.4648V46.8328V48.2008V49.5688V50.9367V52.3047V53.6727V55.0406V56.4086V57.7766V59.1445V60.5125V61.8805V63.2484V64.6164V65.9844H72.0195H70.6516H69.2836H67.9156H66.5477H65.1797H63.8117H62.4437H61.0758H59.7078H58.3398H56.9719H55.6039H54.2359H52.868H51.5V64.6164V63.2484V61.8805V60.5125H52.868V59.1445H51.5V57.7766V56.4086V55.0406V53.6727V52.3047H50.132V53.6727V55.0406V56.4086V57.7766H48.7641V59.1445H50.132V60.5125V61.8805V63.2484V64.6164V65.9844H48.7641H47.3961H46.0281H44.6602H43.2922H41.9242H40.5562H39.1883H37.8203H36.4523H35.0844H33.7164H32.3484H30.9804H29.6125V64.6164V63.2484V61.8805V60.5125V59.1445V57.7766V56.4086V55.0406V53.6727V52.3047V50.9367V49.5688V48.2008V46.8328V45.4648V44.0969V42.7289H30.9804V41.3609H29.6125V39.993H28.2445V38.625H26.8765H25.5086V39.993H26.8765V41.3609H28.2445V42.7289V44.0969V45.4648V46.8328V48.2008V49.5688H26.8765V50.9367H28.2445V52.3047V53.6727V55.0406V56.4086V57.7766V59.1445V60.5125V61.8805V63.2484V64.6164V65.9844V67.3523V68.7203V70.0883H29.6125H30.9804H32.3484H33.7164V68.7203V67.3523H35.0844H36.4523H37.8203H39.1883H40.5562V68.7203V70.0883H41.9242H43.2922H44.6602H46.0281H47.3961V68.7203V67.3523H48.7641H50.132H51.5H52.868H54.2359H55.6039V68.7203V70.0883H56.9719H58.3398H59.7078H61.0758H62.4437V68.7203V67.3523H63.8117H65.1797H66.5477H67.9156H69.2836V68.7203V70.0883H70.6516H72.0195H73.3875H74.7555V68.7203V67.3523V65.9844V64.6164V63.2484V61.8805V60.5125V59.1445V57.7766V56.4086V55.0406V53.6727V52.3047V50.9367H76.1234V49.5688H74.7555Z" fill="#092C1B"/>
<path d="M77.4914 41.361H76.1234V42.7289H77.4914V41.361Z" fill="#092C1B"/>
<path d="M77.4914 42.729V44.097V45.4649V46.8329V48.2009V49.5688V50.9368H76.1234V52.3048H77.4914H78.8594V50.9368V49.5688V48.2009V46.8329V45.4649V44.097V42.729H77.4914Z" fill="#092C1B"/>
</g>
<defs>
<clipPath id="clip0">
<rect width="54.7188" height="32.1875" fill="white" transform="translate(24.1406 38.625)"/>
</clipPath>
</defs>
</svg>
