<svg width="103" height="103" viewBox="0 0 103 103" fill="none" xmlns="http://www.w3.org/2000/svg">
<path d="M86.9062 6.4375H85.2969V4.82812V3.21875H83.6875H82.0781V4.82812V6.4375H80.4688H78.8594V4.82812V3.21875H77.25H75.6406V4.82812V6.4375H74.0312H72.4219V4.82812V3.21875H70.8125H69.2031V4.82812V6.4375H67.5938H65.9844V4.82812V3.21875H64.375H62.7656V4.82812V6.4375H61.1562H59.5469V4.82812V3.21875H57.9375H56.3281V4.82812V6.4375H54.7188H53.1094V4.82812V3.21875H51.5H49.8906V4.82812V6.4375H48.2812H46.6719V4.82812V3.21875H45.0625H43.4531V4.82812V6.4375H41.8438H40.2344V4.82812V3.21875H38.625H37.0156V4.82812V6.4375H35.4062H33.7969V4.82812V3.21875H32.1875H30.5781V4.82812V6.4375H28.9688H27.3594V4.82812V3.21875H25.75H24.1406V4.82812V6.4375H22.5312H20.9219V4.82812V3.21875H19.3125H17.7031V4.82812V6.4375H16.0938H14.4844V8.04688V9.65625V11.2656V12.875V14.4844V16.0938V17.7031V19.3125V20.9219V22.5312V24.1406V25.75V27.3594V28.9688V30.5781V32.1875V33.7969V35.4062V37.0156V38.625V40.2344V41.8438V43.4531V45.0625V46.6719V48.2812V49.8906V51.5V53.1094V54.7188V56.3281V57.9375V59.5469V61.1562V62.7656V64.375V65.9844V67.5938V69.2031V70.8125V72.4219V74.0312V75.6406V77.25V78.8594V80.4688V82.0781V83.6875V85.2969V86.9062V88.5156V90.125V91.7344V93.3438V94.9531V96.5625V98.1719V99.7812H16.0938H17.7031V98.1719V96.5625H19.3125H20.9219V98.1719V99.7812H22.5312H24.1406V98.1719V96.5625H25.75H27.3594V98.1719V99.7812H28.9688H30.5781V98.1719V96.5625H32.1875H33.7969V98.1719V99.7812H35.4062H37.0156V98.1719V96.5625H38.625H40.2344V98.1719V99.7812H41.8438H43.4531V98.1719V96.5625H45.0625H46.6719V98.1719V99.7812H48.2812H49.8906V98.1719V96.5625H51.5H53.1094V98.1719V99.7812H54.7188H56.3281V98.1719V96.5625H57.9375H59.5469V98.1719V99.7812H61.1562H62.7656V98.1719V96.5625H64.375H65.9844V98.1719V99.7812H67.5938H69.2031V98.1719V96.5625H70.8125H72.4219V98.1719V99.7812H74.0312H75.6406V98.1719V96.5625H77.25H78.8594V98.1719V99.7812H80.4688H82.0781V98.1719V96.5625H83.6875H85.2969V98.1719V99.7812H86.9062H88.5156V98.1719V96.5625V94.9531V93.3438V91.7344V90.125V88.5156V86.9062V85.2969V83.6875V82.0781V80.4688V78.8594V77.25V75.6406V74.0312V72.4219V70.8125V69.2031V67.5938V65.9844V64.375V62.7656V61.1562V59.5469V57.9375V56.3281V54.7188V53.1094V51.5V49.8906V48.2812V46.6719V45.0625V43.4531V41.8438V40.2344V38.625V37.0156V35.4062V33.7969V32.1875V30.5781V28.9688V27.3594V25.75V24.1406V22.5312V20.9219V19.3125V17.7031V16.0938V14.4844V12.875V11.2656V9.65625V8.04688V6.4375H86.9062Z" fill="#51FFA8"/>
<path d="M80.4688 12.875H78.8594V14.4844H80.4688V12.875Z" fill="#1E661E"/>
<path d="M80.4688 88.5156H78.8594V90.125H80.4688V88.5156Z" fill="#1E661E"/>
<path d="M80.4688 14.4844V16.0938V17.7031V19.3125V20.9219V22.5312V24.1406V25.75H78.8594H77.25H75.6406H74.0312H72.4219H70.8125H69.2031H67.5938H65.9844H64.375H62.7656H61.1562H59.5469H57.9375H56.3281H54.7188H53.1094H51.5H49.8906H48.2812H46.6719H45.0625H43.4531H41.8438H40.2344H38.625H37.0156H35.4062H33.7969H32.1875H30.5781H28.9688H27.3594H25.75H24.1406H22.5312V24.1406V22.5312V20.9219V19.3125V17.7031V16.0938V14.4844H20.9219V16.0938V17.7031V19.3125V20.9219V22.5312V24.1406V25.75V27.3594V28.9688V30.5781V32.1875V33.7969V35.4062V37.0156V38.625V40.2344V41.8438V43.4531V45.0625V46.6719V48.2812V49.8906V51.5V53.1094V54.7188V56.3281V57.9375V59.5469V61.1562V62.7656V64.375V65.9844V67.5938V69.2031V70.8125V72.4219V74.0312V75.6406V77.25V78.8594V80.4688V82.0781V83.6875V85.2969V86.9062V88.5156H22.5312V86.9062V85.2969V83.6875V82.0781V80.4688V78.8594V77.25H24.1406H25.75H27.3594H28.9688H30.5781H32.1875H33.7969H35.4062H37.0156H38.625H40.2344H41.8438H43.4531H45.0625H46.6719H48.2812H49.8906H51.5H53.1094H54.7188H56.3281H57.9375H59.5469H61.1562H62.7656H64.375H65.9844H67.5938H69.2031H70.8125H72.4219H74.0312H75.6406H77.25H78.8594H80.4688V78.8594V80.4688V82.0781V83.6875V85.2969V86.9062V88.5156H82.0781V86.9062V85.2969V83.6875V82.0781V80.4688V78.8594V77.25V75.6406V74.0312V72.4219V70.8125V69.2031V67.5938V65.9844V64.375V62.7656V61.1562V59.5469V57.9375V56.3281V54.7188V53.1094V51.5V49.8906V48.2812V46.6719V45.0625V43.4531V41.8438V40.2344V38.625V37.0156V35.4062V33.7969V32.1875V30.5781V28.9688V27.3594V25.75V24.1406V22.5312V20.9219V19.3125V17.7031V16.0938V14.4844H80.4688ZM80.4688 28.9688V30.5781V32.1875V33.7969V35.4062V37.0156V38.625V40.2344V41.8438V43.4531V45.0625V46.6719V48.2812V49.8906V51.5V53.1094V54.7188V56.3281V57.9375V59.5469V61.1562V62.7656V64.375V65.9844V67.5938V69.2031V70.8125V72.4219V74.0312V75.6406H78.8594H77.25H75.6406H74.0312H72.4219H70.8125H69.2031H67.5938H65.9844H64.375H62.7656H61.1562H59.5469H57.9375H56.3281H54.7188H53.1094H51.5H49.8906H48.2812H46.6719H45.0625H43.4531H41.8438H40.2344H38.625H37.0156H35.4062H33.7969H32.1875H30.5781H28.9688H27.3594H25.75H24.1406H22.5312V74.0312V72.4219V70.8125V69.2031V67.5938V65.9844V64.375V62.7656V61.1562V59.5469V57.9375V56.3281V54.7188V53.1094V51.5V49.8906V48.2812V46.6719V45.0625V43.4531V41.8438V40.2344V38.625V37.0156V35.4062V33.7969V32.1875V30.5781V28.9688V27.3594H24.1406H25.75H27.3594H28.9688H30.5781H32.1875H33.7969H35.4062H37.0156H38.625H40.2344H41.8438H43.4531H45.0625H46.6719H48.2812H49.8906H51.5H53.1094H54.7188H56.3281H57.9375H59.5469H61.1562H62.7656H64.375H65.9844H67.5938H69.2031H70.8125H72.4219H74.0312H75.6406H77.25H78.8594H80.4688V28.9688Z" fill="#1E661E"/>
<path d="M27.3594 12.875H28.9688H30.5781H32.1875H33.7969H35.4062H37.0156H38.625H40.2344H41.8438H43.4531H45.0625H46.6719H48.2812H49.8906H51.5H53.1094H54.7188H56.3281H57.9375H59.5469H61.1562H62.7656H64.375H65.9844H67.5938H69.2031H70.8125H72.4219H74.0312H75.6406H77.25H78.8594V11.2656H77.25H75.6406H74.0312H72.4219H70.8125H69.2031H67.5938H65.9844H64.375H62.7656H61.1562H59.5469H57.9375H56.3281H54.7188H53.1094H51.5H49.8906H48.2812H46.6719H45.0625H43.4531H41.8438H40.2344H38.625H37.0156H35.4062H33.7969H32.1875H30.5781H28.9688H27.3594H25.75H24.1406V12.875H25.75H27.3594Z" fill="#1E661E"/>
<path d="M24.1406 12.875H22.5312V14.4844H24.1406V12.875Z" fill="#1E661E"/>
<path d="M24.1406 88.5156H22.5312V90.125H24.1406V88.5156Z" fill="#1E661E"/>
<path d="M75.6406 90.125H74.0312H72.4219H70.8125H69.2031H67.5938H65.9844H64.375H62.7656H61.1562H59.5469H57.9375H56.3281H54.7188H53.1094H51.5H49.8906H48.2812H46.6719H45.0625H43.4531H41.8438H40.2344H38.625H37.0156H35.4062H33.7969H32.1875H30.5781H28.9688H27.3594H25.75H24.1406V91.7344H25.75H27.3594H28.9688H30.5781H32.1875H33.7969H35.4062H37.0156H38.625H40.2344H41.8438H43.4531H45.0625H46.6719H48.2812H49.8906H51.5H53.1094H54.7188H56.3281H57.9375H59.5469H61.1562H62.7656H64.375H65.9844H67.5938H69.2031H70.8125H72.4219H74.0312H75.6406H77.25H78.8594V90.125H77.25H75.6406Z" fill="#1E661E"/>
<path d="M77.25 77.25H75.6406H74.0312H72.4219H70.8125H69.2031H67.5938H65.9844H64.375H62.7656H61.1562H59.5469H57.9375H56.3281H54.7188H53.1094H51.5H49.8906H48.2812H46.6719H45.0625H43.4531H41.8438H40.2344H38.625H37.0156H35.4062H33.7969H32.1875H30.5781H28.9688H27.3594H25.75H24.1406H22.5312V78.8594V80.4688V82.0781V83.6875V85.2969V86.9062V88.5156H24.1406V90.125H25.75H27.3594H28.9688H30.5781H32.1875H33.7969H35.4062H37.0156H38.625H40.2344H41.8438H43.4531H45.0625H46.6719H48.2812H49.8906H51.5H53.1094H54.7188H56.3281H57.9375H59.5469H61.1562H62.7656H64.375H65.9844H67.5938H69.2031H70.8125H72.4219H74.0312H75.6406H77.25H78.8594V88.5156H80.4688V86.9062V85.2969V83.6875V82.0781V80.4688V78.8594V77.25H78.8594H77.25Z" fill="white"/>
<path d="M78.8594 14.4844V12.875H77.25H75.6406H74.0312H72.4219H70.8125H69.2031H67.5938H65.9844H64.375H62.7656H61.1562H59.5469H57.9375H56.3281H54.7188H53.1094H51.5H49.8906H48.2812H46.6719H45.0625H43.4531H41.8438H40.2344H38.625H37.0156H35.4062H33.7969H32.1875H30.5781H28.9688H27.3594H25.75H24.1406V14.4844H22.5312V16.0938V17.7031V19.3125V20.9219V22.5312V24.1406V25.75H24.1406H25.75H27.3594H28.9688H30.5781H32.1875H33.7969H35.4062H37.0156H38.625H40.2344H41.8438H43.4531H45.0625H46.6719H48.2812H49.8906H51.5H53.1094H54.7188H56.3281H57.9375H59.5469H61.1562H62.7656H64.375H65.9844H67.5938H69.2031H70.8125H72.4219H74.0312H75.6406H77.25H78.8594H80.4688V24.1406V22.5312V20.9219V19.3125V17.7031V16.0938V14.4844H78.8594Z" fill="white"/>
<path d="M77.25 27.3594H75.6406H74.0312H72.4219H70.8125H69.2031H67.5938H65.9844H64.375H62.7656H61.1562H59.5469H57.9375H56.3281H54.7188H53.1094H51.5H49.8906H48.2812H46.6719H45.0625H43.4531H41.8438H40.2344H38.625H37.0156H35.4062H33.7969H32.1875H30.5781H28.9688H27.3594H25.75H24.1406H22.5312V28.9688V30.5781V32.1875V33.7969V35.4062V37.0156V38.625V40.2344V41.8438V43.4531V45.0625V46.6719V48.2812V49.8906V51.5V53.1094V54.7188V56.3281V57.9375V59.5469V61.1562V62.7656V64.375V65.9844V67.5938V69.2031V70.8125V72.4219V74.0312V75.6406H24.1406H25.75H27.3594H28.9688H30.5781H32.1875H33.7969H35.4062H37.0156H38.625H40.2344H41.8438H43.4531H45.0625H46.6719H48.2812H49.8906H51.5H53.1094H54.7188H56.3281H57.9375H59.5469H61.1562H62.7656H64.375H65.9844H67.5938H69.2031H70.8125H72.4219H74.0312H75.6406H77.25H78.8594H80.4688V74.0312V72.4219V70.8125V69.2031V67.5938V65.9844V64.375V62.7656V61.1562V59.5469V57.9375V56.3281V54.7188V53.1094V51.5V49.8906V48.2812V46.6719V45.0625V43.4531V41.8438V40.2344V38.625V37.0156V35.4062V33.7969V32.1875V30.5781V28.9688V27.3594H78.8594H77.25Z" fill="white"/>
<path d="M53.9141 9.65625L53.9141 8.85156L53.1094 8.85156L53.1094 9.65625L53.9141 9.65625Z" fill="#815382"/>
<path d="M49.8906 9.65625L49.8906 8.85156L49.0859 8.85156L48.2812 8.85156L48.2812 9.65625L49.0859 9.65625L49.8906 9.65625Z" fill="#815382"/>
<path d="M57.9375 15.2891L57.9375 14.4844L57.1328 14.4844L57.1328 15.2891L57.9375 15.2891Z" fill="#815382"/>
<path d="M55.5234 15.2891L55.5234 16.0937L56.3281 16.0937L57.1328 16.0937L57.1328 15.2891L56.3281 15.2891L55.5234 15.2891Z" fill="#815382"/>
<path d="M49.0859 16.8984L49.0859 16.0938L48.2813 16.0937L48.2813 16.8984L49.0859 16.8984Z" fill="#815382"/>
<path d="M48.2812 16.0937L48.2812 15.2891L47.4766 15.2891L47.4766 16.0937L48.2812 16.0937Z" fill="#815382"/>
<path d="M48.2812 10.4609L48.2812 9.65625L47.4766 9.65625L47.4766 10.4609L48.2812 10.4609Z" fill="#815382"/>
<path d="M45.8672 12.0703L45.8672 11.2656L45.0625 11.2656L45.0625 12.0703L45.8672 12.0703Z" fill="#815382"/>
<path d="M53.1094 8.85156L53.1094 8.04688L52.3047 8.04687L52.3047 8.85156L53.1094 8.85156Z" fill="#815382"/>
<path d="M51.5 10.4609L52.3047 10.4609L52.3047 11.2656L53.1094 11.2656L53.9141 11.2656L54.7187 11.2656L54.7187 12.0703L55.5234 12.0703L55.5234 12.875L56.3281 12.875L56.3281 13.6797L57.1328 13.6797L57.1328 12.875L57.1328 12.0703L56.3281 12.0703L56.3281 11.2656L55.5234 11.2656L55.5234 10.4609L54.7187 10.4609L53.9141 10.4609L53.1094 10.4609L53.1094 9.65625L52.3047 9.65625L51.5 9.65625L50.6953 9.65625L50.6953 10.4609L51.5 10.4609Z" fill="white"/>
<path d="M47.4766 11.2656L47.4766 10.4609L46.6719 10.4609L46.6719 11.2656L47.4766 11.2656Z" fill="white"/>
<path d="M46.6719 12.875L46.6719 12.0703L46.6719 11.2656L45.8672 11.2656L45.8672 12.0703L45.8672 12.875L45.8672 13.6797L45.8672 14.4844L46.6719 14.4844L46.6719 13.6797L46.6719 12.875Z" fill="white"/>
<path d="M47.4766 14.4844L46.6719 14.4844L46.6719 15.2891L47.4766 15.2891L48.2812 15.2891L48.2812 14.4844L47.4766 14.4844Z" fill="white"/>
<path d="M49.8906 15.2891L49.0859 15.2891L48.2812 15.2891L48.2812 16.0937L49.0859 16.0937L49.8906 16.0937L50.6953 16.0937L50.6953 15.2891L49.8906 15.2891Z" fill="white"/>
<path d="M53.1094 16.0938L52.3047 16.0937L51.5 16.0937L50.6953 16.0937L50.6953 16.8984L51.5 16.8984L52.3047 16.8984L53.1094 16.8984L53.1094 16.0938Z" fill="white"/>
<path d="M54.7187 16.0937L55.5234 16.0937L55.5234 15.2891L54.7188 15.2891L53.9141 15.2891L53.1094 15.2891L53.1094 16.0937L53.9141 16.0937L54.7187 16.0937Z" fill="white"/>
<path d="M56.3281 14.4844L56.3281 13.6797L55.5234 13.6797L55.5234 14.4844L56.3281 14.4844Z" fill="white"/>
<path d="M51.5 12.0703L51.5 11.2656L50.6953 11.2656L50.6953 12.0703L50.6953 12.875L51.5 12.875L52.3047 12.875L52.3047 12.0703L51.5 12.0703Z" fill="#2B59FF"/>
<path d="M56.3281 13.6797L56.3281 12.875L55.5234 12.875L55.5234 13.6797L56.3281 13.6797Z" fill="#2B59FF"/>
<path d="M55.5234 14.4844L55.5234 13.6797L54.7188 13.6797L54.7188 14.4844L55.5234 14.4844Z" fill="#2B59FF"/>
<path d="M57.9375 12.0703L57.9375 11.2656L57.1328 11.2656L57.1328 12.0703L57.9375 12.0703Z" fill="#54ACFF"/>
<path d="M55.5234 10.4609L55.5234 9.65625L54.7188 9.65625L54.7188 10.4609L55.5234 10.4609Z" fill="#54ACFF"/>
<path d="M51.5 13.6797L52.3047 13.6797L52.3047 12.875L51.5 12.875L50.6953 12.875L50.6953 13.6797L51.5 13.6797Z" fill="#54ACFF"/>
<path d="M47.4766 14.4844L47.4766 13.6797L46.6719 13.6797L46.6719 14.4844L47.4766 14.4844Z" fill="#54ACFF"/>
<path d="M50.6953 11.2656L49.8906 11.2656L49.8906 12.0703L49.8906 12.875L50.6953 12.875L50.6953 12.0703L50.6953 11.2656Z" fill="#54ACFF"/>
<path d="M57.1328 14.4844L57.1328 13.6797L56.3281 13.6797L56.3281 14.4844L57.1328 14.4844Z" fill="#54ACFF"/>
<path d="M56.3281 14.4844L55.5234 14.4844L54.7188 14.4844L54.7187 15.2891L55.5234 15.2891L56.3281 15.2891L56.3281 14.4844Z" fill="#54ACFF"/>
<path d="M54.7187 14.4844L54.7188 13.6797L53.9141 13.6797L53.9141 14.4844L54.7187 14.4844Z" fill="#54ACFF"/>
<path d="M53.1094 12.0703L53.1094 11.2656L52.3047 11.2656L52.3047 12.0703L53.1094 12.0703Z" fill="#54ACFF"/>
<path d="M57.1328 12.0703L57.1328 11.2656L56.3281 11.2656L56.3281 12.0703L57.1328 12.0703Z" fill="#51FFA8"/>
<path d="M57.1328 15.2891L57.1328 14.4844L56.3281 14.4844L56.3281 15.2891L57.1328 15.2891Z" fill="#51FFA8"/>
<path d="M52.3047 10.4609L51.5 10.4609L51.5 11.2656L51.5 12.0703L52.3047 12.0703L52.3047 11.2656L52.3047 10.4609Z" fill="#51FFA8"/>
<path d="M49.0859 9.65625L48.2813 9.65625L48.2813 10.4609L48.2812 11.2656L49.0859 11.2656L49.0859 10.4609L49.0859 9.65625Z" fill="#51FFA8"/>
<path d="M48.2812 12.875L48.2812 12.0703L47.4766 12.0703L47.4766 12.875L48.2812 12.875Z" fill="#51FFA8"/>
<path d="M49.0859 14.4844L49.0859 13.6797L48.2813 13.6797L48.2813 14.4844L49.0859 14.4844Z" fill="#51FFA8"/>
<path d="M49.8906 15.2891L49.8906 14.4844L49.0859 14.4844L49.0859 15.2891L49.8906 15.2891Z" fill="#51FFA8"/>
<path d="M53.1094 12.875L53.1094 12.0703L52.3047 12.0703L52.3047 12.875L53.1094 12.875Z" fill="#51FFA8"/>
<path d="M53.9141 14.4844L53.9141 13.6797L53.1094 13.6797L53.1094 14.4844L53.9141 14.4844Z" fill="#51FFA8"/>
<path d="M56.3281 11.2656L56.3281 10.4609L55.5234 10.4609L55.5234 11.2656L56.3281 11.2656Z" fill="#51FFA8"/>
<path d="M53.9141 14.4844L53.1094 14.4844L53.1094 13.6797L53.1094 12.875L52.3047 12.875L52.3047 13.6797L52.3047 14.4844L52.3047 15.2891L53.1094 15.2891L53.9141 15.2891L53.9141 14.4844Z" fill="#00FF00"/>
<path d="M57.1328 11.2656L57.1328 10.4609L56.3281 10.4609L56.3281 11.2656L57.1328 11.2656Z" fill="#00FF00"/>
<path d="M49.0859 12.0703L48.2813 12.0703L48.2813 12.875L48.2812 13.6797L49.0859 13.6797L49.0859 12.875L49.0859 12.0703Z" fill="#00FF00"/>
<path d="M48.2812 10.4609L47.4766 10.4609L47.4766 11.2656L47.4766 12.0703L48.2812 12.0703L48.2812 11.2656L48.2812 10.4609Z" fill="#00FF00"/>
<path d="M53.9141 10.4609L54.7187 10.4609L54.7188 9.65625L53.9141 9.65625L53.1094 9.65625L53.1094 10.4609L53.9141 10.4609Z" fill="#BAFFFF"/>
<path d="M53.1094 12.875L53.1094 13.6797L53.9141 13.6797L53.9141 12.875L53.9141 12.0703L54.7187 12.0703L54.7188 11.2656L53.9141 11.2656L53.1094 11.2656L53.1094 12.0703L53.1094 12.875Z" fill="#BAFFFF"/>
<path d="M53.1094 15.2891L52.3047 15.2891L52.3047 14.4844L52.3047 13.6797L51.5 13.6797L50.6953 13.6797L49.8906 13.6797L49.8906 12.875L49.8906 12.0703L49.8906 11.2656L49.8906 10.4609L49.8906 9.65625L49.0859 9.65625L49.0859 10.4609L49.0859 11.2656L48.2813 11.2656L48.2813 12.0703L49.0859 12.0703L49.0859 12.875L49.0859 13.6797L49.0859 14.4844L49.8906 14.4844L49.8906 15.2891L50.6953 15.2891L50.6953 14.4844L51.5 14.4844L51.5 15.2891L50.6953 15.2891L50.6953 16.0937L51.5 16.0937L52.3047 16.0937L53.1094 16.0938L53.1094 15.2891Z" fill="#BAFFFF"/>
<path d="M49.0859 15.2891L49.0859 14.4844L48.2813 14.4844L48.2813 15.2891L49.0859 15.2891Z" fill="#BAFFFF"/>
<path d="M48.2812 12.875L47.4766 12.875L47.4766 12.0703L47.4766 11.2656L46.6719 11.2656L46.6719 12.0703L46.6719 12.875L46.6719 13.6797L47.4766 13.6797L47.4766 14.4844L48.2812 14.4844L48.2812 13.6797L48.2812 12.875Z" fill="#BAFFFF"/>
<path d="M54.7187 15.2891L54.7188 14.4844L53.9141 14.4844L53.9141 15.2891L54.7187 15.2891Z" fill="#BAFFFF"/>
<path d="M51.5 9.65625L52.3047 9.65625L53.1094 9.65625L53.1094 8.85156L52.3047 8.85156L51.5 8.85156L50.6953 8.85156L50.6953 9.65625L51.5 9.65625Z" fill="#BAFFFF"/>
<path d="M57.1328 13.6797L57.1328 14.4844L57.9375 14.4844L57.9375 13.6797L57.9375 12.875L57.9375 12.0703L57.1328 12.0703L57.1328 12.875L57.1328 13.6797Z" fill="#BAFFFF"/>
<path d="M56.3281 10.4609L57.1328 10.4609L57.1328 9.65625L56.3281 9.65625L55.5234 9.65625L55.5234 10.4609L56.3281 10.4609Z" fill="#1E661E"/>
<path d="M54.7187 9.65625L55.5234 9.65625L55.5234 8.85156L54.7188 8.85156L53.9141 8.85156L53.9141 9.65625L54.7187 9.65625Z" fill="#1E661E"/>
<path d="M51.5 8.04687L50.6953 8.04687L50.6953 8.85156L51.5 8.85156L52.3047 8.85156L52.3047 8.04688L51.5 8.04687Z" fill="#1E661E"/>
<path d="M47.4766 10.4609L47.4766 9.65625L46.6719 9.65625L46.6719 10.4609L47.4766 10.4609Z" fill="#1E661E"/>
<path d="M46.6719 11.2656L46.6719 10.4609L45.8672 10.4609L45.8672 11.2656L46.6719 11.2656Z" fill="#1E661E"/>
<path d="M54.7187 16.8984L55.5234 16.8984L55.5234 16.0938L54.7188 16.0937L53.9141 16.0937L53.9141 16.8984L54.7187 16.8984Z" fill="#1E661E"/>
<path d="M52.3047 16.8984L51.5 16.8984L50.6953 16.8984L50.6953 17.7031L51.5 17.7031L52.3047 17.7031L52.3047 16.8984Z" fill="#1E661E"/>
<path d="M58.7422 12.875L58.7422 12.0703L57.9375 12.0703L57.9375 12.875L57.9375 13.6797L57.9375 14.4844L58.7422 14.4844L58.7422 13.6797L58.7422 12.875Z" fill="#1E661E"/>
<path d="M45.8672 12.875L45.8672 12.0703L45.0625 12.0703L45.0625 12.875L45.0625 13.6797L45.0625 14.4844L45.8672 14.4844L45.8672 13.6797L45.8672 12.875Z" fill="#1E661E"/>
<path d="M53.9141 16.8984L53.9141 16.0938L53.1094 16.0937L53.1094 16.8984L53.9141 16.8984Z" fill="#33297C"/>
<path d="M53.1094 17.7031L53.1094 16.8984L52.3047 16.8984L52.3047 17.7031L53.1094 17.7031Z" fill="#33297C"/>
<path d="M49.8906 16.0937L49.0859 16.0937L49.0859 16.8984L49.8906 16.8984L50.6953 16.8984L50.6953 16.0938L49.8906 16.0937Z" fill="#33297C"/>
<path d="M47.4766 16.0937L47.4766 15.2891L46.6719 15.2891L46.6719 16.0937L47.4766 16.0937Z" fill="#33297C"/>
<path d="M46.6719 15.2891L46.6719 14.4844L45.8672 14.4844L45.8672 15.2891L46.6719 15.2891Z" fill="#33297C"/>
<path d="M58.7422 12.0703L58.7422 11.2656L57.9375 11.2656L57.9375 12.0703L58.7422 12.0703Z" fill="#33297C"/>
<path d="M57.9375 11.2656L57.9375 10.4609L57.1328 10.4609L57.1328 11.2656L57.9375 11.2656Z" fill="#33297C"/>
<path d="M50.6953 9.65625L50.6953 8.85156L49.8906 8.85156L49.8906 9.65625L50.6953 9.65625Z" fill="#33297C"/>
<path d="M50.6953 10.4609L50.6953 9.65625L49.8906 9.65625L49.8906 10.4609L50.6953 10.4609Z" fill="#FFC4E1"/>
<path d="M51.5 11.2656L51.5 10.4609L50.6953 10.4609L50.6953 11.2656L51.5 11.2656Z" fill="#FFC4E1"/>
<path d="M50.6953 13.6797L50.6953 12.875L49.8906 12.875L49.8906 13.6797L50.6953 13.6797Z" fill="#FFC4E1"/>
<path d="M55.5234 12.875L55.5234 12.0703L54.7188 12.0703L54.7188 12.875L55.5234 12.875Z" fill="#FFC4E1"/>
<path d="M54.7187 13.6797L54.7188 12.875L53.9141 12.875L53.9141 13.6797L54.7187 13.6797Z" fill="#FFC4E1"/>
<path d="M50.6953 11.2656L50.6953 10.4609L49.8906 10.4609L49.8906 11.2656L50.6953 11.2656Z" fill="#FF93C9"/>
<path d="M51.5 15.2891L51.5 14.4844L50.6953 14.4844L50.6953 15.2891L51.5 15.2891Z" fill="#FF93C9"/>
<path d="M54.7187 12.875L54.7188 12.0703L53.9141 12.0703L53.9141 12.875L54.7187 12.875Z" fill="#FF93C9"/>
<path d="M55.5234 13.6797L55.5234 12.875L54.7188 12.875L54.7188 13.6797L55.5234 13.6797Z" fill="#FF93C9"/>
<path d="M36.9537 18.6264V19.0584H37.3797V19.4844H36.9537V19.0584H36.5217V18.6264H36.9537ZM37.3797 19.0584V18.6264H37.8117V19.0584H37.3797ZM36.0957 16.4844H36.5217V18.6264H36.0957V16.4844ZM37.8117 16.4844H38.2377V18.6264H37.8117V16.4844ZM40.3781 16.4844V16.9104H39.0881V16.4844H40.3781ZM40.3781 16.9104H40.8041V19.4844H40.3781V18.2004H39.0881V19.4844H38.6621V16.9104H39.0881V17.7684H40.3781V16.9104ZM41.6545 19.0584H43.3705V19.4844H41.2285V16.4844H41.6545V19.0584ZM45.0789 16.9104H44.6529V19.0584H45.0789V19.4844H43.7949V19.0584H44.2209V16.9104H43.7949V16.4844H45.0789V16.9104ZM45.9319 16.9104V19.0584H47.2219V19.4844H45.5059V16.4844H47.2219V16.9104H45.9319ZM47.2219 16.9104H47.6479V19.0584H47.2219V16.9104ZM51.9311 16.9104H50.2151V17.7684H51.9311V18.2004H50.2151V19.4844H49.7891V16.4844H51.9311V16.9104ZM52.7815 19.4844V19.0584H54.0715V19.4844H52.7815ZM52.3555 16.9104H52.7815V19.0584H52.3555V16.9104ZM54.0715 16.4844V16.9104H52.7815V16.4844H54.0715ZM54.0715 16.9104H54.4975V19.0584H54.0715V16.9104ZM57.0639 17.7684H56.6379V16.9104H57.0639V17.7684ZM55.3479 17.7684H56.6379V18.2004H57.0639V19.4844H56.6379V18.2004H55.3479V19.4844H54.9219V16.4844H56.6379V16.9104H55.3479V17.7684ZM59.6311 19.4844V19.0584H60.9211V19.4844H59.6311ZM59.2051 16.9104H59.6311V19.0584H59.2051V16.9104ZM60.9211 16.4844V16.9104H59.6311V16.4844H60.9211ZM60.9211 16.9104H61.3471V19.0584H60.9211V16.9104ZM62.1975 17.3424H62.6295V17.7684H62.1975V19.4844H61.7715V16.4844H62.1975V17.3424ZM62.6295 17.7684H63.0555V18.2004H62.6295V17.7684ZM63.4875 16.4844H63.9135V19.4844H63.4875V18.6264H63.0555V18.2004H63.4875V16.4844ZM66.4799 16.9104H64.7639V17.7684H66.4799V18.2004H64.7639V19.0584H66.4799V19.4844H64.3379V16.4844H66.4799V16.9104Z" fill="#1E661E"/>
<path d="M41.6625 80.534H41.2365V79.676H41.6625V80.534ZM39.9465 80.534H41.2365V80.966H39.9465V81.824H41.2365V82.25H39.5205V79.25H41.2365V79.676H39.9465V80.534ZM41.6625 81.824H41.2365V80.966H41.6625V81.824ZM42.5129 81.824H44.2289V82.25H42.0869V79.25H42.5129V81.824ZM45.0793 82.25V81.824H46.3693V82.25H45.0793ZM44.6533 79.25H45.0793V81.824H44.6533V79.25ZM46.3693 79.25H46.7953V81.824H46.3693V79.25ZM49.3617 79.676H47.6457V80.534H49.3617V80.966H47.6457V81.824H49.3617V82.25H47.2197V79.25H49.3617V79.676ZM51.9289 79.676V80.534H53.2189V80.966H51.9289V82.25H51.5029V79.25H53.2189V79.676H51.9289ZM53.2189 79.676H53.6449V80.534H53.2189V79.676ZM54.4953 81.824H56.2113V82.25H54.0693V79.25H54.4953V81.824ZM58.3517 79.25V79.676H57.0617V79.25H58.3517ZM58.3517 79.676H58.7777V82.25H58.3517V80.966H57.0617V82.25H56.6357V79.676H57.0617V80.534H58.3517V79.676ZM60.4861 79.676H60.0601V81.824H60.4861V82.25H59.2021V81.824H59.6281V79.676H59.2021V79.25H60.4861V79.676ZM61.3391 79.676V81.824H62.6291V82.25H60.9131V79.25H62.6291V79.676H61.3391ZM62.6291 79.676H63.0551V81.824H62.6291V79.676Z" fill="#1E661E"/>
<path d="M45.0625 61.7999H43.775H42.4875H41.2V63.0874V64.3749H42.4875H43.775H45.0625H46.35H47.6375V63.0874V61.7999H46.35H45.0625Z" fill="#D4DEF8"/>
<path d="M59.225 61.7999H57.9375H56.65H55.3625V63.0874V64.3749H56.65H57.9375H59.225H60.5125H61.8V63.0874V61.7999H60.5125H59.225Z" fill="#D4DEF8"/>
<path d="M55.3625 59.225H54.075H52.7875V57.9375H51.5H50.2125V59.225H48.925H47.6375V60.5125V61.8H48.925H50.2125H51.5H52.7875H54.075H55.3625V60.5125V59.225Z" fill="#D4DEF8"/>
<path d="M41.2 61.7999H39.9125H38.625H37.3375H36.05H34.7625V63.0874V64.3749H36.05H37.3375H38.625H39.9125H41.2V63.0874V61.7999Z" fill="#0000B9"/>
<path d="M45.0625 64.375H43.775H42.4875H41.2V65.6625V66.95H42.4875H43.775H45.0625H46.35H47.6375V65.6625V64.375H46.35H45.0625Z" fill="#0000B9"/>
<path d="M68.2375 61.7999H66.95H65.6625H64.375H63.0875H61.8V63.0874V64.3749H63.0875H64.375H65.6625H66.95H68.2375V63.0874V61.7999Z" fill="#0000B9"/>
<path d="M55.3625 61.7999H54.075H52.7875H51.5H50.2125H48.925H47.6375V63.0874V64.3749H48.925H50.2125H51.5H52.7875H54.075H55.3625V63.0874V61.7999Z" fill="#0000B9"/>
<path d="M59.225 64.375H57.9375H56.65H55.3625V65.6625V66.95H56.65H57.9375H59.225H60.5125H61.8V65.6625V64.375H60.5125H59.225Z" fill="#0000B9"/>
<path d="M29.6125 47.6375H28.325V48.925H29.6125V47.6375Z" fill="#0000B9"/>
<path d="M28.325 50.2125V48.925H27.0375H25.75V50.2125H27.0375H28.325Z" fill="#0000B9"/>
<path d="M28.325 39.9125H27.0375V41.2H28.325V39.9125Z" fill="#0000B9"/>
<path d="M29.6125 38.625H28.325V39.9125H29.6125V38.625Z" fill="#0000B9"/>
<path d="M74.675 47.6375H73.3875V48.925H74.675V47.6375Z" fill="#0000B9"/>
<path d="M75.9625 39.9125H74.675V41.2H75.9625V39.9125Z" fill="#0000B9"/>
<path d="M74.675 38.625H73.3875V39.9125H74.675V38.625Z" fill="#0000B9"/>
<path d="M77.25 41.2H75.9625V42.4875H77.25V41.2Z" fill="#0000B9"/>
<path d="M75.9625 48.925H74.675V50.2125H75.9625H77.25V48.925H75.9625Z" fill="#0000B9"/>
<path d="M27.0375 41.2H25.75V42.4875H27.0375V41.2Z" fill="#0000B9"/>
<path d="M29.6125 46.35H28.325V47.6375H29.6125V46.35Z" fill="#D4DEF8"/>
<path d="M74.675 46.35H73.3875V47.6375H74.675V46.35Z" fill="#D4DEF8"/>
<path d="M75.9625 47.6375H74.675V48.925H75.9625H77.25V47.6375H75.9625Z" fill="#D4DEF8"/>
<path d="M25.75 47.6375V48.925H27.0375H28.325V47.6375H27.0375H25.75Z" fill="#D4DEF8"/>
<path d="M51.5 50.2125H50.2125V51.5H51.5V50.2125Z" fill="#FFE2C1"/>
<path d="M51.5 55.3624H50.2125V56.6499H51.5V55.3624Z" fill="#FFE2C1"/>
<path d="M66.95 50.2125H65.6625H64.375V51.5H65.6625H66.95H68.2375V50.2125H66.95Z" fill="#FFE2C1"/>
<path d="M39.9125 52.7875H38.625V54.075H39.9125V52.7875Z" fill="#FFE2C1"/>
<path d="M51.5 60.5125H50.2125V61.8H51.5V60.5125Z" fill="#FFE2C1"/>
<path d="M34.7625 43.7749V45.0624H36.05V43.7749V42.4874H34.7625V43.7749Z" fill="#E9EEF2"/>
<path d="M36.05 46.35H34.7625V47.6375H36.05V46.35Z" fill="#E9EEF2"/>
<path d="M43.775 56.65V57.9375H45.0625H46.35V56.65H45.0625H43.775Z" fill="#E9EEF2"/>
<path d="M42.4875 56.65H41.2V57.9375H42.4875V56.65Z" fill="#E9EEF2"/>
<path d="M48.925 56.65H47.6375V57.9375H48.925V56.65Z" fill="#E9EEF2"/>
<path d="M36.05 56.65H34.7625V57.9375H36.05V56.65Z" fill="#E9EEF2"/>
<path d="M34.7625 54.075V55.3625H36.05V54.075V52.7875H34.7625V54.075Z" fill="#E9EEF2"/>
<path d="M66.95 43.7749V45.0624H68.2375V43.7749V42.4874H66.95V43.7749Z" fill="#E9EEF2"/>
<path d="M68.2375 46.35H66.95V47.6375H68.2375V46.35Z" fill="#E9EEF2"/>
<path d="M63.0875 42.4874H61.8V43.7749H60.5125H59.225H57.9375V45.0624H56.65H55.3625V46.3499H56.65V47.6374H57.9375V48.9249H59.225V47.6374H60.5125V46.3499H61.8H63.0875V45.0624H64.375V43.7749H65.6625V42.4874H64.375H63.0875Z" fill="#E9EEF2"/>
<path d="M38.625 41.2H37.3375V42.4875H38.625V41.2Z" fill="#E9EEF2"/>
<path d="M68.2375 56.65H66.95V57.9375H68.2375V56.65Z" fill="#E9EEF2"/>
<path d="M56.65 56.65V57.9375H57.9375H59.225V56.65H57.9375H56.65Z" fill="#E9EEF2"/>
<path d="M55.3625 56.65H54.075V57.9375H55.3625V56.65Z" fill="#E9EEF2"/>
<path d="M61.8 56.65H60.5125V57.9375H61.8V56.65Z" fill="#E9EEF2"/>
<path d="M56.65 52.7875V54.075V55.3625H57.9375H59.225V54.075V52.7875H57.9375H56.65Z" fill="#E9EEF2"/>
<path d="M55.3625 46.35H54.075V47.6375H55.3625V46.35Z" fill="#E9EEF2"/>
<path d="M46.35 45.0624H45.0625V43.7749H43.775H42.4875H41.2V42.4874H39.9125H38.625V43.7749H39.9125V45.0624H41.2V46.3499H42.4875V47.6374H43.775V48.9249H45.0625V47.6374H46.35V46.3499H47.6375V45.0624H46.35Z" fill="#E9EEF2"/>
<path d="M48.925 46.35H47.6375V47.6375H48.925V46.35Z" fill="#E9EEF2"/>
<path d="M54.075 54.075V55.3625H55.3625V54.075V52.7875H54.075V54.075Z" fill="#E9EEF2"/>
<path d="M47.6375 54.075V55.3625H48.925V54.075V52.7875H47.6375V54.075Z" fill="#E9EEF2"/>
<path d="M30.9 52.7875V54.075V55.3625H32.1875H33.475V54.075V52.7875H32.1875H30.9Z" fill="#E9EEF2"/>
<path d="M30.9 61.7999V63.0874V64.3749H32.1875H33.475V63.0874V61.7999H32.1875H30.9Z" fill="#E9EEF2"/>
<path d="M30.9 42.4874V43.7749V45.0624H32.1875H33.475V43.7749V42.4874H32.1875H30.9Z" fill="#E9EEF2"/>
<path d="M30.9 56.65V57.9375H32.1875H33.475V56.65H32.1875H30.9Z" fill="#E9EEF2"/>
<path d="M30.9 46.35V47.6375H32.1875H33.475V46.35H32.1875H30.9Z" fill="#E9EEF2"/>
<path d="M66.95 41.2H65.6625V42.4875H66.95V41.2Z" fill="#E9EEF2"/>
<path d="M60.5125 54.075V55.3625H61.8V54.075V52.7875H60.5125V54.075Z" fill="#E9EEF2"/>
<path d="M41.2 54.075V55.3625H42.4875V54.075V52.7875H41.2V54.075Z" fill="#E9EEF2"/>
<path d="M43.775 61.7999V63.0874V64.3749H45.0625H46.35V63.0874V61.7999H45.0625H43.775Z" fill="#E9EEF2"/>
<path d="M41.2 63.0874V64.3749H42.4875V63.0874V61.7999H41.2V63.0874Z" fill="#E9EEF2"/>
<path d="M69.525 56.65V57.9375H70.8125H72.1V56.65H70.8125H69.525Z" fill="#E9EEF2"/>
<path d="M69.525 61.7999V63.0874V64.3749H70.8125H72.1V63.0874V61.7999H70.8125H69.525Z" fill="#E9EEF2"/>
<path d="M56.65 61.7999V63.0874V64.3749H57.9375H59.225V63.0874V61.7999H57.9375H56.65Z" fill="#E9EEF2"/>
<path d="M60.5125 63.0874V64.3749H61.8V63.0874V61.7999H60.5125V63.0874Z" fill="#E9EEF2"/>
<path d="M69.525 42.4874V43.7749V45.0624H70.8125H72.1V43.7749V42.4874H70.8125H69.525Z" fill="#E9EEF2"/>
<path d="M69.525 52.7875V54.075V55.3625H70.8125H72.1V54.075V52.7875H70.8125H69.525Z" fill="#E9EEF2"/>
<path d="M69.525 46.35V47.6375H70.8125H72.1V46.35H70.8125H69.525Z" fill="#E9EEF2"/>
<path d="M43.775 52.7875V54.075V55.3625H45.0625H46.35V54.075V52.7875H45.0625H43.775Z" fill="#E9EEF2"/>
<path d="M29.6125 46.35H28.325V47.6375H29.6125V46.35Z" fill="#E9EEF2"/>
<path d="M28.325 43.7749V45.0624H29.6125V43.7749V42.4874H28.325V43.7749Z" fill="#E9EEF2"/>
<path d="M74.675 46.35H73.3875V47.6375H74.675V46.35Z" fill="#E9EEF2"/>
<path d="M73.3875 42.4874V43.7749V45.0624H74.675V43.7749V42.4874H73.3875Z" fill="#E9EEF2"/>
<path d="M32.1875 38.625H30.9V39.9125V41.2H32.1875H33.475V39.9125H32.1875V38.625Z" fill="#2B2941"/>
<path d="M70.8125 39.9125H69.525V41.2H70.8125H72.1V39.9125V38.625H70.8125V39.9125Z" fill="#262743"/>
<path d="M64.375 45.0625H63.0875V46.35V47.6375V48.925V50.2125V51.5V52.7875V54.075V55.3625V56.65V57.9375V59.225V60.5125V61.8H64.375H65.6625V60.5125V59.225V57.9375V56.65V55.3625V54.075V52.7875V51.5H64.375V50.2125H65.6625V48.925V47.6375V46.35V45.0625V43.775H64.375V45.0625Z" fill="#262743"/>
<path d="M66.95 52.7875V54.075V55.3625H68.2375V54.075V52.7875V51.5H66.95V52.7875Z" fill="#2B2941"/>
<path d="M29.6125 39.9125H28.325V41.2H29.6125V39.9125Z" fill="#2B2941"/>
<path d="M74.675 39.9125H73.3875V41.2H74.675V39.9125Z" fill="#2B2941"/>
<path d="M48.925 47.6375H47.6375H46.35V48.925V50.2125V51.5H45.0625H43.775V50.2125V48.925H42.4875V50.2125V51.5H41.2V50.2125V48.925H42.4875V47.6375H41.2V46.35H39.9125V47.6375V48.925V50.2125V51.5V52.7875V54.075V55.3625V56.65V57.9375V59.225V60.5125V61.8H41.2V60.5125V59.225H42.4875V60.5125V61.8V63.0875V64.375H43.775V63.0875V61.8V60.5125V59.225H45.0625H46.35V60.5125V61.8V63.0875V64.375H47.6375V63.0875V61.8V60.5125V59.225H48.925V60.5125V61.8H50.2125V60.5125V59.225V57.9375V56.65V55.3625V54.075V52.7875V51.5V50.2125V48.925V47.6375V46.35H48.925V47.6375ZM45.0625 52.7875H46.35V54.075V55.3625H45.0625H43.775V54.075V52.7875H45.0625ZM41.2 54.075V52.7875H42.4875V54.075V55.3625H41.2V54.075ZM41.2 57.9375V56.65H42.4875V57.9375H41.2ZM45.0625 57.9375H43.775V56.65H45.0625H46.35V57.9375H45.0625ZM48.925 57.9375H47.6375V56.65H48.925V57.9375ZM48.925 54.075V55.3625H47.6375V54.075V52.7875H48.925V54.075ZM48.925 50.2125V51.5H47.6375V50.2125V48.925H48.925V50.2125Z" fill="#2C629E"/>
<path d="M61.8 47.6375H60.5125V48.925H61.8V50.2125V51.5H60.5125V50.2125V48.925H59.225V50.2125V51.5H57.9375H56.65V50.2125V48.925V47.6375H55.3625H54.075V46.35H52.7875V47.6375V48.925V50.2125V51.5V52.7875V54.075V55.3625V56.65V57.9375V59.225V60.5125V61.8H54.075V60.5125V59.225H55.3625V60.5125V61.8V63.0875V64.375H56.65V63.0875V61.8V60.5125V59.225H57.9375H59.225V60.5125V61.8V63.0875V64.375H60.5125V63.0875V61.8V60.5125V59.225H61.8V60.5125V61.8H63.0875V60.5125V59.225V57.9375V56.65V55.3625V54.075V52.7875V51.5V50.2125V48.925V47.6375V46.35H61.8V47.6375ZM57.9375 52.7875H59.225V54.075V55.3625H57.9375H56.65V54.075V52.7875H57.9375ZM54.075 50.2125V48.925H55.3625V50.2125V51.5H54.075V50.2125ZM54.075 54.075V52.7875H55.3625V54.075V55.3625H54.075V54.075ZM54.075 57.9375V56.65H55.3625V57.9375H54.075ZM57.9375 57.9375H56.65V56.65H57.9375H59.225V57.9375H57.9375ZM61.8 57.9375H60.5125V56.65H61.8V57.9375ZM61.8 54.075V55.3625H60.5125V54.075V52.7875H61.8V54.075Z" fill="#2C629E"/>
<path d="M34.7625 41.2V39.9125H33.475V41.2H32.1875H30.9V39.9125V38.625H29.6125V39.9125V41.2H28.325H27.0375V42.4875V43.775V45.0625V46.35V47.6375V48.925H28.325V47.6375V46.35H29.6125V47.6375V48.925H30.9H32.1875H33.475V50.2125V51.5H32.1875H30.9V52.7875H32.1875H33.475V54.075V55.3625H32.1875H30.9V56.65H32.1875H33.475V57.9375H32.1875H30.9V59.225H32.1875H33.475V60.5125V61.8V63.0875V64.375H34.7625V63.0875V61.8V60.5125V59.225H36.05V60.5125V61.8H37.3375V60.5125V59.225V57.9375V56.65V55.3625V54.075V52.7875V51.5V50.2125V48.925V47.6375V46.35V45.0625V43.775V42.4875V41.2H36.05H34.7625ZM32.1875 42.4875H33.475V43.775V45.0625H32.1875H30.9V43.775V42.4875H32.1875ZM28.325 45.0625V43.775V42.4875H29.6125V43.775V45.0625H28.325ZM32.1875 47.6375H30.9V46.35H32.1875H33.475V47.6375H32.1875ZM36.05 57.9375H34.7625V56.65H36.05V57.9375ZM36.05 54.075V55.3625H34.7625V54.075V52.7875H36.05V54.075ZM36.05 50.2125V51.5H34.7625V50.2125V48.925H36.05V50.2125ZM36.05 47.6375H34.7625V46.35H36.05V47.6375ZM36.05 43.775V45.0625H34.7625V43.775V42.4875H36.05V43.775Z" fill="#2C629E"/>
<path d="M74.675 41.2H73.3875V39.9125V38.625H72.1V39.9125V41.2H70.8125H69.525V39.9125H68.2375V41.2H66.95V42.4875H68.2375V43.775V45.0625H66.95V43.775V42.4875H65.6625V43.775V45.0625V46.35V47.6375V48.925V50.2125H66.95V48.925H68.2375V50.2125V51.5V52.7875V54.075V55.3625H66.95V54.075V52.7875V51.5H65.6625V52.7875V54.075V55.3625V56.65V57.9375V59.225V60.5125V61.8H66.95V60.5125V59.225H68.2375V60.5125V61.8V63.0875V64.375H69.525V63.0875V61.8V60.5125V59.225H70.8125H72.1V57.9375H70.8125H69.525V56.65H70.8125H72.1V55.3625H70.8125H69.525V54.075V52.7875H70.8125H72.1V51.5H70.8125H69.525V50.2125V48.925H70.8125H72.1H73.3875V47.6375V46.35H74.675V47.6375V48.925H75.9625V47.6375V46.35V45.0625V43.775V42.4875V41.2H74.675ZM68.2375 57.9375H66.95V56.65H68.2375V57.9375ZM69.525 43.775V42.4875H70.8125H72.1V43.775V45.0625H70.8125H69.525V43.775ZM66.95 47.6375V46.35H68.2375V47.6375H66.95ZM72.1 47.6375H70.8125H69.525V46.35H70.8125H72.1V47.6375ZM74.675 43.775V45.0625H73.3875V43.775V42.4875H74.675V43.775Z" fill="#2C629E"/>
<path d="M41.2 50.2125V51.5H42.4875V50.2125V48.925H41.2V50.2125Z" fill="#262743"/>
<path d="M42.4875 60.5125V59.225H41.2V60.5125V61.8H42.4875V60.5125Z" fill="#262743"/>
<path d="M43.775 59.225V60.5125V61.8H45.0625H46.35V60.5125V59.225H45.0625H43.775Z" fill="#262743"/>
<path d="M47.6375 46.35H46.35V47.6375H47.6375V46.35Z" fill="#262743"/>
<path d="M43.775 47.6375H42.4875V48.925H43.775V47.6375Z" fill="#262743"/>
<path d="M68.2375 48.925H66.95V50.2125H68.2375V48.925Z" fill="#262743"/>
<path d="M61.8 59.225H60.5125V60.5125V61.8H61.8V60.5125V59.225Z" fill="#262743"/>
<path d="M56.65 59.225V60.5125V61.8H57.9375H59.225V60.5125V59.225H57.9375H56.65Z" fill="#262743"/>
<path d="M60.5125 51.5H61.8V50.2125V48.925H60.5125V50.2125V51.5Z" fill="#262743"/>
<path d="M56.65 46.35H55.3625V47.6375H56.65V46.35Z" fill="#262743"/>
<path d="M60.5125 47.6375H59.225V48.925H60.5125V47.6375Z" fill="#262743"/>
<path d="M55.3625 50.2125V48.925H54.075V50.2125V51.5H55.3625V50.2125Z" fill="#262743"/>
<path d="M55.3625 45.0625H54.075V46.35H55.3625V45.0625Z" fill="#262743"/>
<path d="M48.925 45.0625H47.6375V46.35H48.925V45.0625Z" fill="#262743"/>
<path d="M47.6375 50.2125V51.5H48.925V50.2125V48.925H47.6375V50.2125Z" fill="#262743"/>
<path d="M29.6125 38.625H28.325V39.9125H29.6125V38.625Z" fill="#262743"/>
<path d="M32.1875 64.3751H30.9V63.0876V61.8001H32.1875H33.475V60.5126V59.225H32.1875H30.9V57.9375V56.65V55.3625V54.075V52.7875V51.5H32.1875H33.475V50.2125V48.925H32.1875H30.9H29.6125V50.2125V51.5V52.7875V54.075V55.3625V56.65V57.9375V59.225V60.5126V61.8001V63.0876V64.3751V65.6625V66.9501H30.9H32.1875H33.475H34.7625V65.6625V64.3751H33.475H32.1875Z" fill="#262743"/>
<path d="M41.2 61.7999H39.9125V60.5124V59.2249V57.9374V56.6499V55.3624V54.0749H38.625V52.7874H39.9125V51.4999V50.2124V48.9249V47.6374V46.3499H41.2V45.0624H39.9125V43.7749H38.625V42.4874H37.3375V43.7749V45.0624V46.3499V47.6374V48.9249V50.2124V51.4999V52.7874V54.0749V55.3624V56.6499V57.9374V59.2249V60.5124V61.7999H36.05V60.5124V59.2249H34.7625V60.5124V61.7999V63.0874V64.3749H36.05H37.3375H38.625H39.9125H41.2V63.0874V61.7999Z" fill="#262743"/>
<path d="M45.0625 64.375H43.775H42.4875H41.2V65.6625V66.95H42.4875H43.775H45.0625H46.35H47.6375V65.6625V64.375H46.35H45.0625Z" fill="#262743"/>
<path d="M74.675 38.625H73.3875V39.9125H74.675V38.625Z" fill="#262743"/>
<path d="M70.8125 48.925H69.525V50.2125V51.5H70.8125H72.1V52.7875V54.075V55.3625V56.65V57.9375V59.225H70.8125H69.525V60.5126V61.8001H70.8125H72.1V63.0876V64.3751H70.8125H69.525H68.2375V65.6625V66.9501H69.525H70.8125H72.1H73.3875V65.6625V64.3751V63.0876V61.8001V60.5126V59.225V57.9375V56.65V55.3625V54.075V52.7875V51.5V50.2125V48.925H72.1H70.8125Z" fill="#262743"/>
<path d="M68.2375 61.8V60.5125V59.225H66.95V60.5125V61.8H65.6625H64.375H63.0875H61.8V63.0875V64.375H63.0875H64.375H65.6625H66.95H68.2375V63.0875V61.8Z" fill="#262743"/>
<path d="M55.3625 61.8V60.5125V59.225H54.075V60.5125V61.8H52.7875V60.5125V59.225V57.9375V56.65V55.3625V54.075V52.7875V51.5V50.2125V48.925V47.6375H51.5H50.2125V48.925V50.2125H51.5V51.5H50.2125V52.7875V54.075V55.3625H51.5V56.65H50.2125V57.9375V59.225V60.5125H51.5V61.8H50.2125H48.925V60.5125V59.225H47.6375V60.5125V61.8V63.0875V64.375H48.925H50.2125H51.5H52.7875H54.075H55.3625V63.0875V61.8Z" fill="#262743"/>
<path d="M59.225 64.375H57.9375H56.65H55.3625V65.6625V66.95H56.65H57.9375H59.225H60.5125H61.8V65.6625V64.375H60.5125H59.225Z" fill="#262743"/>
<path d="M61.8 46.35H60.5125V47.6375H61.8V46.35Z" fill="#262743"/>
<path d="M36.05 50.2125V48.925H34.7625V50.2125V51.5H36.05V50.2125Z" fill="#262743"/>
<path d="M42.4875 46.35H41.2V47.6375H42.4875V46.35Z" fill="#262743"/>
<path d="M43.775 51.5H45.0625H46.35V50.2125V48.925V47.6375H45.0625V48.925H43.775V50.2125V51.5Z" fill="#262743"/>
<path d="M56.65 50.2125V51.5H57.9375H59.225V50.2125V48.925H57.9375V47.6375H56.65V48.925V50.2125Z" fill="#262743"/>
<path d="M29.6125 47.6375H28.325V48.925H29.6125V47.6375Z" fill="#262743"/>
<path d="M28.325 39.9125H27.0375V41.2H28.325V39.9125Z" fill="#262743"/>
<path d="M27.0375 47.6375V46.35V45.0625V43.775V42.4875V41.2H25.75V42.4875V43.775V45.0625V46.35V47.6375V48.925V50.2125H27.0375H28.325V48.925H27.0375V47.6375Z" fill="#262743"/>
<path d="M74.675 47.6375H73.3875V48.925H74.675V47.6375Z" fill="#262743"/>
<path d="M75.9625 39.9125H74.675V41.2H75.9625V39.9125Z" fill="#262743"/>
<path d="M75.9625 41.2V42.4875V43.775V45.0625V46.35V47.6375V48.925H74.675V50.2125H75.9625H77.25V48.925V47.6375V46.35V45.0625V43.775V42.4875V41.2H75.9625Z" fill="#262743"/>
</svg>
