<svg width="1330" height="1734" viewBox="0 0 1330 1734" fill="none" xmlns="http://www.w3.org/2000/svg">
<path d="M1271.6 57.8V0H1213.8V57.8H1156V0H1098.2V57.8H1040.4V0H982.6V57.8H924.8V0H867V57.8H809.2V0H751.4V57.8H693.6V0H635.8V57.8H578V0H520.2V57.8H462.4V0H404.6V57.8H346.8V0H289V57.8H231.2V0H173.4V57.8H115.6V0H57.8V57.8H0V1734H57.8V1676.2H115.6V1734H173.4V1676.2H231.2V1734H289V1676.2H346.8V1734H404.6V1676.2H462.4V1734H520.2V1676.2H578V1734H635.8V1676.2H693.6V1734H751.4V1676.2H809.2V1734H867V1676.2H924.8V1734H982.6V1676.2H1040.4V1734H1098.2V1676.2H1156V1734H1213.8V1676.2H1271.6V1734H1329.4V57.8H1271.6Z" fill="#51FFA8"/>
<path d="M1156 173.4H1184.9V202.3H1156V173.4ZM1156 1531.7H1184.9V1560.6H1156V1531.7Z" fill="#1E661E"/>
<path d="M1184.9 202.3V404.6H144.5V202.3H115.6V1531.7H144.5V1329.4H1184.9V1531.7H1213.8V202.3H1184.9ZM1184.9 1300.5H144.5V433.5H1184.9V1300.5ZM1156 173.4V144.5H173.4V173.4H1156Z" fill="#1E661E"/>
<path d="M144.5 173.4H173.4V202.3H144.5V173.4ZM144.5 1531.7H173.4V1560.6H144.5V1531.7Z" fill="#1E661E"/>
<path d="M173.4 1560.6V1589.5H1156V1560.6H173.4Z" fill="#1E661E"/>
<path d="M144.5 1329.4V1531.7H173.4V1560.6H1156V1531.7H1184.9V1329.4H144.5ZM1156 202.3V173.4H173.4V202.3H144.5V404.6H1184.9V202.3H1156ZM144.5 433.5V1300.5H1184.9V433.5H144.5Z" fill="white"/>
<path d="M239.4 292.5H250.4V347.8H239.4V292.5ZM261.6 347.8V359H272.6V370H261.6V359H250.4V347.8H261.6ZM272.6 359V347.8H283.8V359H272.6ZM283.8 292.5H294.8V347.8H283.8V292.5ZM354 303.5H365V370H354V336.8H320.7V370H309.7V303.5H320.7V325.7H354V303.5ZM354 292.5V303.5H320.7V292.5H354ZM435.2 359V370H379.9V292.5H390.9V359H435.2ZM472.2 303.5V359H483.2V370H450V359H461V303.5H450V292.5H483.2V303.5H472.2ZM509.1 303.5V359H542.4V370H498.1V292.5H542.4V303.5H509.1ZM542.5 303.5H553.5V359H542.5V303.5ZM627.6 303.5V325.7H671.9V336.9H627.6V370H616.6V292.5H671.9V303.5H627.6ZM686.8 303.5H697.8V359H686.8V303.5ZM731.1 292.5V303.5H697.8V292.5H731.1ZM697.8 370V359H731.1V370H697.8ZM731.1 303.5H742.1V359H731.1V303.5ZM768 325.7H801.3V336.9H812.3V370H801.3V336.8H768V370H757V292.5H801.3V303.5H768V325.7ZM812.3 325.7H801.3V303.5H812.3V325.7ZM875.4 303.5H886.4V359H875.4V303.5ZM919.7 292.5V303.5H886.4V292.5H919.7ZM886.4 370V359H919.7V370H886.4ZM919.7 303.5H930.7V359H919.7V303.5ZM956.6 314.7H967.8V325.7H956.6V370H945.6V292.5H956.6V314.7ZM967.8 325.7H978.8V336.9H967.8V325.7ZM989.9 292.5H1000.9V370H989.9V347.8H978.7V336.8H989.9V292.5ZM1026.8 303.5V325.7H1071.1V336.9H1026.8V359H1071.1V370H1015.8V292.5H1071.1V303.5H1026.8Z" fill="#1E661E"/>
<path d="M592.4 158.9H606.9V173.4H592.4V158.9ZM606.9 231.2H592.4V260.1H606.9V231.2ZM693.6 86.7002H708.1V101.2H693.6V86.7002Z" fill="#815382"/>
<path d="M708.1 130H722.5V101.1H708.1V130ZM722.5 245.6H737V260.1H722.5V245.6Z" fill="#815382"/>
<path d="M708.1 260.1H722.6V274.6H708.1V260.1ZM606.9 260.1H621.4V274.6H606.9V260.1ZM635.8 303.4H650.3V317.9H635.8V303.4ZM578 173.4H592.5V187.9H578V173.4Z" fill="#815382"/>
<path d="M621.3 202.3V187.8H635.8V144.5H650.2V130H664.7V115.6H679.1V101.1H650.2V115.6H635.8V130H621.3V173.4H606.9V216.7H621.3V202.3ZM621.3 274.5H635.8V289H621.3V274.5Z" fill="white"/>
<path d="M664.7 289H635.8V303.4H693.6V289H664.7Z" fill="white"/>
<path d="M693.6 274.5V289H708.1V260.1H693.6V274.5Z" fill="white"/>
<path d="M708.1 231.2V260.1H722.5V216.7H708.1V231.2Z" fill="white"/>
<path d="M722.5 173.4V216.7H737V173.4H722.5Z" fill="white"/>
<path d="M722.5 144.5V130H708.1V173.4H722.5V144.5ZM679.1 115.6H693.6V130.1H679.1V115.6Z" fill="white"/>
<path d="M650.2 202.3H635.8V216.7H664.7V187.8H650.2V202.3ZM664.7 115.6H679.2V130.1H664.7V115.6Z" fill="#2B59FF"/>
<path d="M679.1 130H693.6V144.5H679.1V130Z" fill="#2B59FF"/>
<path d="M635.8 86.7002H650.3V101.2H635.8V86.7002ZM606.9 130H621.4V144.5H606.9V130ZM679.1 202.3V187.8H664.7V216.7H679.1V202.3ZM679.1 274.5H693.6V289H679.1V274.5Z" fill="#54ACFF"/>
<path d="M635.8 216.7V231.2H664.7V216.7H635.8ZM679.1 101.1H693.6V115.6H679.1V101.1Z" fill="#54ACFF"/>
<path d="M693.6 115.6V144.5H708.1V115.6H693.6Z" fill="#54ACFF"/>
<path d="M679.1 144.5H693.6V159H679.1V144.5ZM635.8 173.4H650.3V187.9H635.8V173.4Z" fill="#54ACFF"/>
<path d="M635.8 101.1H650.3V115.6H635.8V101.1ZM693.6 101.1H708.1V115.6H693.6V101.1ZM621.3 187.8V202.3H650.2V187.8H621.3ZM606.9 245.6V260.1H635.8V245.6H606.9ZM650.2 260.1H664.7V274.6H650.2V260.1ZM679.1 245.6H693.6V260.1H679.1V245.6Z" fill="#51FFA8"/>
<path d="M693.6 231.2H708.1V245.7H693.6V231.2ZM650.2 173.4H664.7V187.9H650.2V173.4ZM679.1 158.9H693.6V173.4H679.1V158.9ZM621.3 115.6H635.8V130.1H621.3V115.6Z" fill="#51FFA8"/>
<path d="M693.6 158.9V173.4H664.7V187.8H708.1V158.9H693.6ZM621.3 101.1H635.8V115.6H621.3V101.1ZM650.2 245.6V260.1H679.1V245.6H650.2Z" fill="#00FF00"/>
<path d="M621.3 260.1V274.5H650.2V260.1H621.3Z" fill="#00FF00"/>
<path d="M621.3 158.9V144.5H606.9V173.4H621.3V158.9ZM664.7 173.4H679.1V158.9H650.2V144.5H635.8V173.4H664.7ZM708.1 173.4V187.8H679.1V231.2H606.9V245.6H635.8V260.1H650.2V245.6H693.6V231.2H708.1V216.7H693.6V202.3H708.1V216.7H722.5V173.4H708.1Z" fill="#BAFFFF"/>
<path d="M693.6 245.6H708.1V260.1H693.6V245.6Z" fill="#BAFFFF"/>
<path d="M664.7 260.1V274.5H635.8V289H679.1V274.5H693.6V260.1H664.7ZM693.6 144.5H708.1V159H693.6V144.5ZM606.9 202.3V173.4H592.4V216.7H606.9V202.3ZM679.1 101.1H693.6V86.7002H650.2V101.1H679.1Z" fill="#BAFFFF"/>
<path d="M621.3 115.6V101.1H606.9V130H621.3V115.6Z" fill="#1E661E"/>
<path d="M606.9 144.5V130H592.4V158.9H606.9V144.5ZM578 202.3V216.7H592.4V187.8H578V202.3ZM606.9 274.5H621.4V289H606.9V274.5Z" fill="#1E661E"/>
<path d="M621.3 289H635.8V303.5H621.3V289ZM737 144.5V130H722.5V158.9H737V144.5ZM737 187.8V216.7H751.4V187.8H737ZM664.7 72.2002H650.2V86.7002H693.6V72.2002H664.7ZM664.7 303.4H650.2V317.9H693.6V303.4H664.7Z" fill="#1E661E"/>
<path d="M722.5 158.9H737V173.4H722.5V158.9Z" fill="#33297C"/>
<path d="M737 173.4H751.5V187.9H737V173.4ZM722.5 231.2V245.6H737V216.7H722.5V231.2ZM708.1 274.5H722.6V289H708.1V274.5Z" fill="#33297C"/>
<path d="M693.6 289H708.1V303.5H693.6V289ZM635.8 72.2002H650.3V86.7002H635.8V72.2002Z" fill="#33297C"/>
<path d="M621.3 86.7002H635.8V101.2H621.3V86.7002ZM592.4 216.7H606.9V231.2H592.4V216.7Z" fill="#33297C"/>
<path d="M606.9 216.7H621.4V231.2H606.9V216.7Z" fill="#FFC4E1"/>
<path d="M621.3 202.3H635.8V216.8H621.3V202.3ZM664.7 216.7H679.2V231.2H664.7V216.7ZM650.2 130H664.7V144.5H650.2V130Z" fill="#FFC4E1"/>
<path d="M664.7 144.5H679.2V159H664.7V144.5Z" fill="#FFC4E1"/>
<path d="M621.3 216.7H635.8V231.2H621.3V216.7ZM693.6 202.3H708.1V216.8H693.6V202.3ZM650.2 144.5H664.7V159H650.2V144.5Z" fill="#FF93C9"/>
<path d="M664.7 130H679.2V144.5H664.7V130Z" fill="#FF93C9"/>
<path d="M839.7 817H889.7V842H839.7V817Z" fill="#7D00FF"/>
<path d="M889.7 842H914.7V892H889.7V842Z" fill="#7D00FF"/>
<path d="M839.7 892H889.7V917H839.7V892Z" fill="#7D00FF"/>
<path d="M814.7 842H839.7V892H814.7V842Z" fill="#7D00FF"/>
<path d="M839.7 842H889.7V892H839.7V842Z" fill="#00FFFF"/>
<path d="M914.7 817V792H814.7V817H789.7V917H814.7V942H914.7V917H939.7V817H914.7ZM914.7 892H889.7V917H839.7V892H814.7V842H839.7V817H889.7V842H914.7V892Z" fill="#FF00FF"/>
<path d="M914.7 792H939.7V817H914.7V792Z" fill="#FFFF00"/>
<path d="M939.7 817H964.7V917H939.7V817ZM789.7 917H814.7V942H789.7V917Z" fill="#FFFF00"/>
<path d="M764.7 817H789.7V917H764.7V817ZM814.7 942H914.7V967H814.7V942Z" fill="#FFFF00"/>
<path d="M914.7 917H939.7V942H914.7V917ZM814.7 767H914.7V792H814.7V767Z" fill="#FFFF00"/>
<path d="M789.7 792H814.7V817H789.7V792Z" fill="#FFFF00"/>
<path d="M964.7 792V767H939.7V742H789.7V767H764.7V792H739.7V942H764.7V967H789.7V992H939.7V967H964.7V942H989.7V792H964.7ZM964.7 917H939.7V942H914.7V967H814.7V942H789.7V917H764.7V817H789.7V792H814.7V767H914.7V792H939.7V817H964.7V917Z" fill="#00FF00"/>
<path d="M789.7 717H939.7V742H789.7V717Z" fill="black"/>
<path d="M939.7 742H964.7V767H939.7V742Z" fill="black"/>
<path d="M989.7 792V767H964.7V792H989.7V942H1014.7V792H989.7ZM789.7 992H939.7V1017H789.7V992ZM764.7 742H789.7V767H764.7V742Z" fill="black"/>
<path d="M739.7 767H764.7V792H739.7V767ZM739.7 942H764.7V967H739.7V942Z" fill="black"/>
<path d="M964.7 967H939.7V992H964.7V967H989.7V942H964.7V967ZM764.7 967H789.7V992H764.7V967ZM714.7 792H739.7V942H714.7V792Z" fill="black"/>
<path d="M439.7 817H489.7V842H439.7V817Z" fill="#7D00FF"/>
<path d="M489.7 842H514.7V892H489.7V842Z" fill="#7D00FF"/>
<path d="M439.7 892H489.7V917H439.7V892Z" fill="#7D00FF"/>
<path d="M414.7 842H439.7V892H414.7V842Z" fill="#7D00FF"/>
<path d="M439.7 842H489.7V892H439.7V842Z" fill="#00FFFF"/>
<path d="M514.7 817V792H414.7V817H389.7V917H414.7V942H514.7V917H539.7V817H514.7ZM514.7 892H489.7V917H439.7V892H414.7V842H439.7V817H489.7V842H514.7V892Z" fill="#FF00FF"/>
<path d="M514.7 792H539.7V817H514.7V792Z" fill="#FFFF00"/>
<path d="M539.7 817H564.7V917H539.7V817ZM389.7 917H414.7V942H389.7V917Z" fill="#FFFF00"/>
<path d="M364.7 817H389.7V917H364.7V817ZM414.7 942H514.7V967H414.7V942Z" fill="#FFFF00"/>
<path d="M514.7 917H539.7V942H514.7V917ZM414.7 767H514.7V792H414.7V767Z" fill="#FFFF00"/>
<path d="M389.7 792H414.7V817H389.7V792Z" fill="#FFFF00"/>
<path d="M564.7 792V767H539.7V742H389.7V767H364.7V792H339.7V942H364.7V967H389.7V992H539.7V967H564.7V942H589.7V792H564.7ZM564.7 917H539.7V942H514.7V967H414.7V942H389.7V917H364.7V817H389.7V792H414.7V767H514.7V792H539.7V817H564.7V917Z" fill="#00FF00"/>
<path d="M389.7 717H539.7V742H389.7V717Z" fill="black"/>
<path d="M539.7 742H564.7V767H539.7V742Z" fill="black"/>
<path d="M589.7 792V767H564.7V792H589.7V942H614.7V792H589.7ZM389.7 992H539.7V1017H389.7V992ZM364.7 742H389.7V767H364.7V742Z" fill="black"/>
<path d="M339.7 767H364.7V792H339.7V767ZM339.7 942H364.7V967H339.7V942Z" fill="black"/>
<path d="M564.7 967H539.7V992H564.7V967H589.7V942H564.7V967ZM364.7 967H389.7V992H364.7V967ZM314.7 792H339.7V942H314.7V792Z" fill="black"/>
<path d="M275.387 1403V1413.22H244.427V1403H275.387ZM275.387 1413.22H285.611V1475H275.387V1444.18H244.427V1475H234.203V1413.22H244.427V1433.82H275.387V1413.22ZM306.021 1464.78H347.205V1475H295.797V1403H306.021V1464.78ZM367.615 1464.78H408.799V1475H357.391V1403H367.615V1464.78ZM460.188 1475V1464.78H501.372V1475H460.188ZM511.596 1464.78H501.372V1444.18H511.596V1464.78ZM501.372 1444.18H470.412V1433.82H501.372V1444.18ZM460.188 1413.22H470.412V1433.82H460.188V1413.22ZM511.596 1403V1413.22H470.412V1403H511.596ZM573.189 1413.22H532.005V1433.82H573.189V1444.18H532.005V1464.78H573.189V1475H521.781V1403H573.189V1413.22ZM634.783 1413.22H593.599V1433.82H634.783V1444.18H593.599V1464.78H634.783V1475H583.375V1403H634.783V1413.22ZM675.785 1413.22H665.561V1464.78H675.785V1475H644.969V1464.78H655.193V1413.22H644.969V1403H675.785V1413.22ZM696.255 1423.59H706.623V1433.82H696.255V1475H686.031V1403H696.255V1423.59ZM706.623 1433.82H716.847V1444.18H706.623V1433.82ZM727.215 1403H737.439V1475H727.215V1454.41H716.847V1444.18H727.215V1403ZM799.033 1475H757.849V1464.78H788.809V1433.82H799.033V1475ZM747.625 1413.22H757.849V1464.78H747.625V1413.22ZM799.033 1403V1413.22H757.849V1403H799.033ZM901.83 1413.22H860.646V1433.82H901.83V1444.18H860.646V1464.78H901.83V1475H850.422V1403H901.83V1413.22ZM932.608 1475V1444.18H942.832V1475H932.608ZM922.24 1433.82H932.608V1444.18H922.24V1433.82ZM912.016 1403H922.24V1433.82H912.016V1403ZM942.832 1444.18V1433.82H953.2V1444.18H942.832ZM953.2 1403H963.424V1433.82H953.2V1403ZM1025.02 1413.22H983.833V1433.82H1025.02V1444.18H983.833V1464.78H1025.02V1475H973.609V1403H1025.02V1413.22ZM1035.2 1475V1464.78H1076.39V1475H1035.2ZM1086.61 1464.78H1076.39V1444.18H1086.61V1464.78ZM1076.39 1444.18H1045.43V1433.82H1076.39V1444.18ZM1035.2 1413.22H1045.43V1433.82H1035.2V1413.22ZM1086.61 1403V1413.22H1045.43V1403H1086.61Z" fill="#1E661E"/>
</svg>
