<svg width="1330" height="1734" viewBox="0 0 1330 1734" fill="none" xmlns="http://www.w3.org/2000/svg">
<path d="M1271.6 57.8V0H1213.8V57.8H1156V0H1098.2V57.8H1040.4V0H982.6V57.8H924.8V0H867V57.8H809.2V0H751.4V57.8H693.6V0H635.8V57.8H578V0H520.2V57.8H462.4V0H404.6V57.8H346.8V0H289V57.8H231.2V0H173.4V57.8H115.6V0H57.8V57.8H0V1734H57.8V1676.2H115.6V1734H173.4V1676.2H231.2V1734H289V1676.2H346.8V1734H404.6V1676.2H462.4V1734H520.2V1676.2H578V1734H635.8V1676.2H693.6V1734H751.4V1676.2H809.2V1734H867V1676.2H924.8V1734H982.6V1676.2H1040.4V1734H1098.2V1676.2H1156V1734H1213.8V1676.2H1271.6V1734H1329.4V57.8H1271.6Z" fill="#33BACC"/>
<path d="M1156 173.4H1184.9V202.3H1156V173.4ZM1156 1531.7H1184.9V1560.6H1156V1531.7Z" fill="#36818E"/>
<path d="M1184.9 202.3V404.6H144.5V202.3H115.6V1531.7H144.5V1329.4H1184.9V1531.7H1213.8V202.3H1184.9ZM1184.9 1300.5H144.5V433.5H1184.9V1300.5ZM1156 173.4V144.5H173.4V173.4H1156Z" fill="#36818E"/>
<path d="M144.5 173.4H173.4V202.3H144.5V173.4ZM144.5 1531.7H173.4V1560.6H144.5V1531.7Z" fill="#36818E"/>
<path d="M173.4 1560.6V1589.5H1156V1560.6H173.4Z" fill="#36818E"/>
<path d="M144.5 1329.4V1531.7H173.4V1560.6H1156V1531.7H1184.9V1329.4H144.5ZM1156 202.3V173.4H173.4V202.3H144.5V404.6H1184.9V202.3H1156ZM144.5 433.5V1300.5H1184.9V433.5H144.5Z" fill="white"/>
<path d="M246.6 296.2H256.9V347.8H246.6V296.2ZM267.2 347.8V358.2H277.5V368.5H267.2V358.2H256.8V347.8H267.2ZM277.5 358.2V347.8H287.9V358.2H277.5ZM287.9 296.2H298.2V347.8H287.9V296.2ZM356.7 306.4H367V368.4H356.7V337.5H325.6V368.4H315.3V306.4H325.6V327.1H356.7V306.4ZM356.7 296.2V306.5H325.6V296.2H356.7ZM435.7 358.2V368.5H384.1V296.3H394.4V358.3L435.7 358.2ZM473.6 306.4V358.1H483.9V368.4H453V358.1H463.3V306.4H453V296.1H483.9V306.4H473.6ZM511.3 306.4V358.1H542.4V368.4H501.1V296.2H542.4V306.5L511.3 306.4ZM542.3 306.4H552.6V358.1H542.3V306.4ZM628.3 306.4V327.1H669.6V337.5H628.3V368.4H618.1V296.2H669.7V306.5L628.3 306.4ZM686.8 306.4H697.1V358.1H686.8V306.4ZM728.2 296.2V306.5H697.1V296.2H728.2ZM697.1 368.4V358.1H728.2V368.4H697.1ZM728.2 306.4H738.5V358.1H728.2V306.4ZM765.9 327.1H797V337.5H807.3V368.4H797V337.5H765.9V368.4H755.6V296.2H796.9V306.5H765.8L765.9 327.1ZM807.2 327.1H796.9V306.4H807.2V327.1ZM872.7 306.4H883V358.1H872.7V306.4ZM914 296.2V306.5H882.9V296.2H914ZM882.9 368.4V358.1H914V368.4H882.9ZM914 306.4H924.3V358.1H914V306.4ZM951.7 316.8H962.1V327.1H951.7V368.4H941.4V296.2H951.7V316.8ZM962.1 327.1H972.4V337.5H962.1V327.1ZM982.8 296.2H993.1V368.4H982.8V347.7H972.4V337.4H982.8V296.2ZM1020.5 306.4V327.1H1061.8V337.5H1020.5V358.2H1061.8V368.5H1010.2V296.3H1061.8V306.6H1020.5V306.4Z" fill="#36818E"/>
<path d="M642.8 195.9H628V210.7H657.6V195.9H642.8Z" fill="#52A7AA"/>
<path d="M628 122.1H642.8V136.9H628V122.1Z" fill="white"/>
<path d="M613.3 107.3H628.1V122.1H613.3V107.3ZM657.6 107.3H672.4V122.1H657.6V107.3Z" fill="white"/>
<path d="M642.8 151.6H657.6V166.4H642.8V151.6Z" fill="#96FFFF"/>
<path d="M672.4 122.1H642.8V136.8H657.6V151.6H672.4V136.8H687.1V122.1H672.4Z" fill="#96FFFF"/>
<path d="M628 136.8V122.1H613.3V151.6H642.8V136.8H628Z" fill="#96FFFF"/>
<path d="M687.1 107.3H672.4V122.1H701.9V107.3H687.1ZM657.6 151.6H672.4V166.4H657.6V151.6Z" fill="#DBFFFF"/>
<path d="M642.8 136.8H657.6V151.6H642.8V136.8ZM657.6 122.1V107.3H628V122.1H657.6Z" fill="#DBFFFF"/>
<path d="M701.9 107.3H716.7V122.1H701.9V107.3Z" fill="#00FFFF"/>
<path d="M687.1 122.1H701.9V136.9H687.1V122.1Z" fill="#00FFFF"/>
<path d="M672.4 136.8H687.2V151.6H672.4V136.8ZM701.9 195.9H716.7V210.7H701.9V195.9Z" fill="#00FFFF"/>
<path d="M687.1 181.2H701.9V196H687.1V181.2Z" fill="#00FFFF"/>
<path d="M672.4 166.4H687.2V181.2H672.4V166.4ZM613.3 151.6V195.9H628V181.2H642.8V151.6H613.3Z" fill="#00FFFF"/>
<path d="M687.1 195.9H701.9V210.7H687.1V195.9Z" fill="#86E8E6"/>
<path d="M701.9 151.6V195.9H716.7V151.6H701.9Z" fill="#86E8E6"/>
<path d="M657.6 195.9V210.7H687.1V195.9H657.6ZM701.9 122.1V151.6H716.7V122.1H701.9Z" fill="#4FD1D6"/>
<path d="M642.8 166.4H657.6V181.2H642.8V166.4Z" fill="#33BACC"/>
<path d="M628 181.2H642.8V196H628V181.2Z" fill="#33BACC"/>
<path d="M613.3 195.9H628.1V210.7H613.3V195.9ZM687.1 136.8V151.6H672.4V166.4H687.1V181.2H701.9V136.8H687.1Z" fill="#33BACC"/>
<path d="M701.9 92.5H613.3V107.3H716.7V92.5H701.9ZM672.4 166.4H657.6V181.2H642.8V195.9H687.1V181.2H672.4V166.4Z" fill="#36818E"/>
<path d="M598.5 210.7H613.3V107.3H598.5V210.7Z" fill="#36818E"/>
<path d="M716.7 107.3V210.7H731.5V107.3H716.7Z" fill="#283849"/>
<path d="M687.1 210.7H613.3V225.5H716.7V210.7H687.1Z" fill="#283849"/>
<path d="M944.7 987V967H704.7V667H724.7V647H744.7V627H764.7V607H784.7V587H804.7V567H524.7V587H544.7V607H564.7V627H584.7V647H604.7V667H624.7V967H384.7V987H364.7V1007H964.7V987H944.7Z" fill="#F57A1A"/>
<path d="M964.7 767V747H924.7V727H884.7V707H844.7V687H804.7V647H824.7V627H844.7V607H864.7V587H884.7V567H904.7V547H924.7V527H944.7V507H904.7V527H864.7V547H824.7V567H804.7V587H784.7V607H764.7V627H744.7V647H724.7V667H704.7V807H984.7V767H964.7ZM964.7 847H944.7V867H924.7V887H904.7V907H884.7V927H904.7V947H924.7V967H944.7V987H964.7V1007H984.7V827H964.7V847Z" fill="#E06B1A"/>
<path d="M964.7 1047H944.7V1067H924.7V1087H904.7V1107H884.7V1127H864.7V1147H884.7V1167H904.7V1187H924.7V1207H944.7V1227H964.7V1247H984.7V1027H964.7V1047ZM944.7 487H964.7V507H944.7V487ZM604.7 647H584.7V627H564.7V607H544.7V587H524.7V567H504.7V547H464.7V527H424.7V507H384.7V527H404.7V547H424.7V567H444.7V587H464.7V607H484.7V627H504.7V647H524.7V687H484.7V707H444.7V727H404.7V747H364.7V767H344.7V807H624.7V667H604.7V647ZM364.7 987H384.7V967H404.7V947H424.7V927H444.7V907H424.7V887H404.7V867H384.7V847H364.7V827H344.7V1007H364.7V987Z" fill="#E06B1A"/>
<path d="M444.7 1107H424.7V1087H404.7V1067H384.7V1047H364.7V1027H344.7V1247H364.7V1227H384.7V1207H404.7V1187H424.7V1167H444.7V1147H464.7V1127H444.7V1107ZM364.7 487H384.7V507H364.7V487Z" fill="#E06B1A"/>
<path d="M704.7 807V947H724.7V927H744.7V907H764.7V887H784.7V867H844.7V887H864.7V907H904.7V887H924.7V867H944.7V847H964.7V827H984.7V807H704.7ZM744.7 1007V1027H764.7V1047H784.7V1067H804.7V1087H824.7V1107H844.7V1127H884.7V1107H904.7V1087H924.7V1067H944.7V1047H964.7V1027H984.7V1007H744.7ZM344.7 807V827H364.7V847H384.7V867H404.7V887H424.7V907H464.7V887H484.7V867H544.7V887H564.7V907H584.7V927H604.7V947H624.7V807H344.7ZM344.7 1007V1027H364.7V1047H384.7V1067H404.7V1087H424.7V1107H444.7V1127H484.7V1107H504.7V1087H524.7V1067H544.7V1047H564.7V1027H584.7V1007H344.7Z" fill="#C65616"/>
<path d="M444.7 1187V1207H464.7V1227H504.7V1247H824.7V1227H864.7V1207H884.7V1187H444.7Z" fill="#B8A394"/>
<path d="M904.7 947V927H884.7V907H864.7V887H844.7V867H784.7V887H764.7V907H744.7V927H724.7V947H704.7V967H924.7V947H904.7ZM624.7 967V947H604.7V927H584.7V907H564.7V887H544.7V867H484.7V887H464.7V907H444.7V927H424.7V947H404.7V967H624.7ZM724.7 1107H764.7V1147H724.7V1107ZM584.7 1007V1047H604.7V1067H624.7V1087H644.7V1107H684.7V1087H704.7V1067H724.7V1047H744.7V1007H584.7ZM564.7 1107H604.7V1147H564.7V1107Z" fill="black"/>
<path d="M604.7 1147H724.7V1187H604.7V1147Z" fill="black"/>
<path d="M944.7 467V487H964.7V507H944.7V527H924.7V547H904.7V567H884.7V587H864.7V607H844.7V627H824.7V647H804.7V687H844.7V707H884.7V727H924.7V747H964.7V767H984.7V1247H964.7V1267H1004.7V467H944.7ZM864.7 1207H884.7V1227H864.7V1207Z" fill="#6C3617"/>
<path d="M824.7 1227H864.7V1247H824.7V1227ZM944.7 1227H964.7V1247H944.7V1227ZM824.7 527H864.7V547H824.7V527Z" fill="#6C3617"/>
<path d="M864.7 507H904.7V527H864.7V507ZM504.7 1247H824.7V1267H504.7V1247Z" fill="#6C3617"/>
<path d="M904.7 487H944.7V507H904.7V487ZM444.7 1207H464.7V1227H444.7V1207Z" fill="#6C3617"/>
<path d="M404.7 1187H444.7V1207H404.7V1187ZM464.7 1227H504.7V1247H464.7V1227ZM364.7 1227H384.7V1247H364.7V1227ZM504.7 547H824.7V567H504.7V547Z" fill="#6C3617"/>
<path d="M464.7 527H504.7V547H464.7V527Z" fill="#6C3617"/>
<path d="M424.7 507H464.7V527H424.7V507ZM344.7 767H364.7V747H404.7V727H444.7V707H484.7V687H524.7V647H504.7V627H484.7V607H464.7V587H444.7V567H424.7V547H404.7V527H384.7V507H364.7V487H384.7V467H324.7V1267H364.7V1247H344.7V767Z" fill="#6C3617"/>
<path d="M384.7 487H424.7V507H384.7V487ZM884.7 1187H924.7V1207H884.7V1187Z" fill="#6C3617"/>
<path d="M924.7 1207H944.7V1227H924.7V1207ZM384.7 1207H404.7V1227H384.7V1207Z" fill="#6C3617"/>
<path d="M884.7 1167V1147H864.7V1127H844.7V1107H824.7V1087H804.7V1067H784.7V1047H764.7V1027H744.7V1047H724.7V1067H704.7V1087H684.7V1107H644.7V1087H624.7V1067H604.7V1047H584.7V1027H564.7V1047H544.7V1067H524.7V1087H504.7V1107H484.7V1127H464.7V1147H444.7V1167H424.7V1187H604.7V1147H564.7V1107H604.7V1147H724.7V1107H764.7V1147H724.7V1187H904.7V1167H884.7Z" fill="#D1B9AA"/>
<path d="M439.596 1419.22H398.412V1439.82H439.596V1450.18H398.412V1481H388.188V1409H439.596V1419.22ZM460.005 1481V1470.78H490.965V1481H460.005ZM449.781 1419.22H460.005V1470.78H449.781V1419.22ZM490.965 1409V1419.22H460.005V1409H490.965ZM490.965 1419.22H501.189V1470.78H490.965V1419.22ZM511.375 1481V1460.41H521.599V1481H511.375ZM521.599 1460.41V1450.18H531.967V1460.41H521.599ZM531.967 1439.82H542.191V1450.18H531.967V1439.82ZM552.559 1460.41H542.191V1450.18H552.559V1460.41ZM562.783 1481H552.559V1460.41H562.783V1481ZM521.599 1429.59H531.967V1439.82H521.599V1429.59ZM511.375 1409H521.599V1429.59H511.375V1409ZM552.559 1429.59V1439.82H542.191V1429.59H552.559ZM562.783 1409V1429.59H552.559V1409H562.783ZM593.561 1481V1450.18H603.785V1481H593.561ZM583.193 1439.82H593.561V1450.18H583.193V1439.82ZM572.969 1409H583.193V1439.82H572.969V1409ZM603.785 1450.18V1439.82H614.153V1450.18H603.785ZM614.153 1409H624.377V1439.82H614.153V1409ZM685.99 1419.22H696.358V1429.59H685.99V1481H675.766V1409H685.99V1419.22ZM696.358 1429.59H706.582V1439.82H696.358V1429.59ZM706.582 1450.18V1439.82H716.95V1450.18H706.582ZM716.95 1439.82V1429.59H727.174V1439.82H716.95ZM737.542 1409H747.766V1481H737.542V1429.59H727.174V1419.22H737.542V1409ZM799.215 1409V1419.22H768.255V1409H799.215ZM799.215 1419.22H809.439V1481H799.215V1450.18H768.255V1481H758.031V1419.22H768.255V1439.82H799.215V1419.22ZM819.625 1481V1470.78H860.809V1481H819.625ZM871.033 1470.78H860.809V1450.18H871.033V1470.78ZM860.809 1450.18H829.849V1439.82H860.809V1450.18ZM819.625 1419.22H829.849V1439.82H819.625V1419.22ZM871.033 1409V1419.22H829.849V1409H871.033ZM891.443 1439.82H901.811V1450.18H891.443V1481H881.219V1409H891.443V1439.82ZM912.035 1429.59V1439.82H901.811V1429.59H912.035ZM922.403 1419.22V1429.59H912.035V1419.22H922.403ZM932.627 1409V1419.22H922.403V1409H932.627ZM912.035 1460.41H901.811V1450.18H912.035V1460.41ZM922.403 1470.78H912.035V1460.41H922.403V1470.78ZM932.627 1481H922.403V1470.78H932.627V1481Z" fill="#36818E"/>
</svg>
