<svg xmlns="http://www.w3.org/2000/svg" viewBox="0 0 1329.3 1734"  xmlns:v="https://vecta.io/nano"><path d="M1300.4 57.8h-28.9V0h-57.8v57.8h-57.8V0h-57.8v57.8h-57.8V0h-57.8v57.8h-57.8V0h-57.8v57.8h-57.8V0h-57.8v57.8h-57.8V0h-57.8v57.8h-57.8V0h-57.8v57.8h-57.8V0h-57.8v57.8h-57.8V0h-57.8v57.8h-57.8V0h-57.8v57.8h-57.8V0H57.7v57.8H-.1V1734h57.8v-57.8h57.8v57.8h57.8v-57.8h57.8v57.8h57.8v-57.8h57.8v57.8h57.8v-57.8h57.8v57.8h57.8v-57.8h57.8v57.8h57.8v-57.8h57.8v57.8h57.8v-57.8h57.8v57.8h57.8v-57.8h57.8v57.8h57.8v-57.8h57.8v57.8h57.8v-57.8h57.8v57.8h57.8v-57.8h57.8v57.8h57.8V57.8z" fill="#33bacc"/><g fill="#36818e"><path d="M1155.9 173.4h28.9v28.9h-28.9zm0 1358.3h28.9v28.9h-28.9z"/><path d="M1184.8 202.3v202.3H144.4V202.3h-28.9v1329.4h28.9v-202.3h1040.4v202.3h28.9V202.3h-28.9zm0 260.1v838.1H144.4v-867h1040.4v28.9zm-953.7-289h924.8v-28.9H173.3v28.9h28.9z"/><path d="M144.4 173.4h28.9v28.9h-28.9zm0 1358.3h28.9v28.9h-28.9z"/><path d="M1098.1 1560.6H173.3v28.9h982.6v-28.9H1127z"/></g><path d="M1127 1329.4H144.4v202.3h28.9v28.9h982.6v-28.9h28.9v-202.3h-28.9zm28.9-1127.1v-28.9H173.3v28.9h-28.9v202.3h1040.4V202.3zM1127 433.5H144.4v867h1040.4v-867h-28.9z" fill="#fff"/><path d="M246.5 296.2h10.3v51.6h-10.3v-51.6zm20.6 51.5v10.4h10.3v10.3h-10.3v-10.3h-10.4v-10.4h10.4zm10.3 10.4v-10.4h10.4v10.4h-10.4zm10.4-61.9h10.3v51.6h-10.3v-51.6zm68.8 10.2h10.3v62h-10.3v-30.9h-31.1v30.9h-10.3v-62h10.3v20.7h31.1v-20.7zm0-10.2v10.3h-31.1v-10.3h31.1zm79 61.9v10.3H384v-72.2h10.3v62h41.3v-.1zm37.9-51.7v51.7h10.3v10.3h-30.9v-10.3h10.3v-51.7h-10.3v-10.2h30.9v10.3l-10.3-.1zm37.7 0v51.7h31.1v10.3H501v-72.2h41.3v10.3h-31.1v-.1zm31 0h10.3v51.7h-10.3v-51.7zm86 0v20.7h41.3v10.4h-41.3v30.9H618v-72.2h51.6v10.3h-41.4v-.1zm58.5 0H697v51.7h-10.3v-51.7zm41.4-10.2v10.3H697v-10.3h31.1zM697 368.4v-10.3h31.1v10.3H697zm31.1-62h10.3v51.7h-10.3v-51.7zm37.7 20.7h31.1v10.4h10.3v30.9h-10.3v-30.9h-31.1v30.9h-10.3v-72.2h41.3v10.3h-31.1l.1 20.6zm41.3 0h-10.3v-20.7h10.3v20.7zm65.5-20.7h10.3v51.7h-10.3v-51.7zm41.3-10.2v10.3h-31.1v-10.3h31.1zm-31.1 72.2v-10.3h31.1v10.3h-31.1zm31.1-62h10.3v51.7h-10.3v-51.7zm37.7 10.4H962v10.3h-10.4v41.3h-10.3v-72.2h10.3v20.6zm10.4 10.3h10.3v10.4H962v-10.4zm20.7-30.9H993v72.2h-10.3v-20.7h-10.4v-10.3h10.4v-41.2zm37.7 10.2v20.7h41.3v10.4h-41.3v20.7h41.3v10.3h-51.6v-72.3h51.6v10.3h-41.3v-.1z" enable-background="new" fill="#36818e"/><path d="M206.9 1411.9h10.3v51.7h-10.3v-51.7zm51.5-10.3v10.3h-41.3v-10.3h41.3zm0 72.3h-41.3v-10.3h41.3v10.3zm58.6-62h10.3v62H317V1443h-31.1v30.9h-10.3v-62h10.3v20.7H317v-20.7zm0-10.3v10.3h-31.1v-10.3H317zm37.7 10.3v20.7h31.1v10.4h-31.1v30.9h-10.3v-72.2h41.3v10.3l-31-.1zm31.1 0h10.3v20.7h-10.3v-20.7zm27.4 62v-10.3h10.3v10.3h-10.3zm117-62h10.3v62h-10.3V1443h-31.1v30.9h-10.3v-62h10.3v20.7h31.1v-20.7zm0-10.3v10.3h-31.1v-10.3h31.1zm68.8 10.3h10.3v62H599V1443h-31v30.9h-10.3v-62H568v20.7h31.1l-.1-20.7zm0-10.3v10.3h-31v-10.3h31zm27.5 0h10.3v51.6h-10.3v-51.6zm20.6 51.6v10.4h10.3v10.3h-10.3v-10.3h-10.4v-10.4h10.4zm10.3 10.4v-10.4h10.4v10.4h-10.4zm10.4-62h10.3v51.6h-10.3v-51.6zm37.7 10.3v20.7h41.3v10.4h-41.3v20.7h41.3v10.3h-51.6v-72.2h51.6v10.3h-41.3v-.2zm117.1 0H833v10.4h-10.4v51.6h-10.3v-72.2h10.3v10.2zm10.4 10.4h10.3v10.3H833v-10.3zm10.2 20.7v-10.4h10.4v10.4h-10.4zm10.4-10.4v-10.3h10.3v10.3h-10.3zm20.7-31h10.3v72.2h-10.3v-51.6h-10.4v-10.4h10.4v-10.2zm68.8 10.3h10.3v62h-10.3V1443H912v30.9h-10.3v-62H912v20.7h31.1v-20.7zm0-10.3v10.3H912v-10.3h31.1zm27.4 10.3h10.3v20.7h-10.3v-20.7zm0 62v-10.3h41.3v10.3h-41.3zm51.6-72.3v10.3h-41.3v-10.3h41.3zm-10.2 41.4h-31.1v-10.4h31.1v10.4zm10.2 20.6h-10.3v-20.7h10.3v20.7zm27.5-31h10.4v10.4h-10.4v30.9h-10.3v-72.2h10.3v30.9zm20.6-10.3v10.3H1060v-10.3h10.2zm0 30.9H1060v-10.3h10.3l-.1 10.3zm10.4-41.3v10.4h-10.4v-10.4h10.4zm0 51.7h-10.4v-10.4h10.4v10.4zm10.3-62v10.3h-10.3v-10.3h10.3zm0 72.3h-10.3v-10.3h10.3v10.3z" enable-background="new" fill="#36818e"/><g fill="#0f5a87"><path d="M598.7 581.2h175.7v-43.9H554.8v43.9h43.9z"/><path d="M510.8 625.1h43.9v-43.9h-87.9v43.9h44zm263.6 0h87.9v-43.9h-87.9v43.9zM950.1 713H994v-43.9h-43.9V713z"/><path d="M994 756.9v395.3h65.9v-22h-22V932.5h43.9v-43.9h-43.9V712.9H994v44z"/><path d="M1081.9 713v175.7h43.9V669.1h-87.9V713h44zM247.3 844.8V713h43.9v-43.9h-87.9v219.6h43.9v-22l.1-21.9zM862.2 669h87.9v-43.9h-87.9V669zM423 669h43.9v-43.9H379V669h44z"/><path d="M379 713v-44h-43.9v44h22z"/><path d="M313.1 1152.2h22V713h-43.9v175.7h-43.9v43.9h43.9v197.7h-22v21.9h22z"/></g><path d="M379 1108.3h615V713h-43.9v-44h-87.9v-43.9h-87.8v-43.9H554.7v43.9h-87.8V669H379v44h-43.9v395.3z" fill="#0fa9c9"/><g fill="#fff"><path d="M1059.9 713h-22v175.7h44V713zm-812.6 0v175.7h43.9V713h-22zm406.3 0v-22h-22v43.9h22V713zm21.9 21.9h22V691h-22v43.9z"/><path d="M653.6 669h22v22h-22v-22zm43.9 109.9h22V735h-22v43.9z"/><path d="M609.7 800.8v-22h43.9v-22h-22v-22h-22v22h-43.9v22h22v43.9h22v-21.9zm109.8 22h22v-43.9h-22v43.9z"/><path d="M565.7 844.8v22h22v-43.9h-22v21.9zm175.7 21.9h22v-43.9h-22v43.9z"/></g><path d="M554.7 932.6v-43.9h-43.9v43.9h-43.9v43.9H423v44h43.9v43.9h87.8v-43.9h44v-87.9h-22zm307.5 0v-43.9h-43.9v43.9h-43.9v43.9h-43.9v44h43.9v43.9h87.8v-43.9h44v-87.9h-22z" fill="#0f5a87"/><g fill="#fff"><path d="M510.8 910.6v-21.9h-43.9v43.9h43.9z"/><path d="M423 932.6v43.9h43.9v-43.9H423zm351.4-43.9v43.9h43.9v-43.9h-43.9z"/><path d="M730.5 932.6v43.9h43.9v-43.9h-22z"/></g><path d="M642.8 195.9H628v14.8h29.6v-14.8z" fill="#52a7aa"/><g fill="#fff"><path d="M628 122.1h14.8v14.8H628z"/><path d="M613.3 107.3h14.8v14.8h-14.8zm44.3 0h14.8v14.8h-14.8z"/></g><g fill="#96ffff"><path d="M642.8 151.6h14.8v14.8h-14.8z"/><path d="M672.4 122.1h-29.6v14.7h14.8v14.8h14.8v-14.8h14.7v-14.7z"/><path d="M628 136.8v-14.7h-14.7v29.5h29.5v-14.8z"/></g><g fill="#dbffff"><path d="M687.1 107.3h-14.7v14.8h29.5v-14.8zm-29.5 44.3h14.8v14.8h-14.8z"/><path d="M642.8 136.8h14.8v14.8h-14.8zm14.8-14.7v-14.8H628v14.8h14.8z"/></g><g fill="#0ff"><path d="M701.9 107.3h14.8v14.8h-14.8z"/><path d="M687.1 122.1h14.8v14.8h-14.8z"/><path d="M672.4 136.8h14.8v14.8h-14.8zm29.5 59.1h14.8v14.8h-14.8z"/><path d="M687.1 181.2h14.8V196h-14.8z"/><path d="M672.4 166.4h14.8v14.8h-14.8zm-59.1-14.8v44.3H628v-14.7h14.8v-29.6H628z"/></g><g fill="#86e8e6"><path d="M687.1 195.9h14.8v14.8h-14.8z"/><path d="M701.9 151.6v44.3h14.8v-44.3z"/></g><path d="M657.6 195.9v14.8h29.5v-14.8h-14.7zm44.3-73.8v29.5h14.8v-29.5z" fill="#4fd1d6"/><g fill="#33bacc"><path d="M642.8 166.4h14.8v14.8h-14.8z"/><path d="M628 181.2h14.8V196H628z"/><path d="M613.3 195.9h14.8v14.8h-14.8zm73.8-59.1v14.8h-14.7v14.8h14.7v14.8h14.8v-44.4z"/></g><g fill="#36818e"><path d="M701.9 92.5h-88.6v14.8h103.4V92.5zm-29.5 73.9h-14.8v14.8h-14.8v14.7h44.3v-14.7h-14.7z"/><path d="M598.5 122.1v88.6h14.8V107.3h-14.8z"/></g><g fill="#283849"><path d="M716.7 107.3v103.4h14.8V107.3z"/><path d="M687.1 210.7h-73.8v14.8h103.4v-14.8h-14.8z"/></g></svg>