<svg width="103" height="103" viewBox="0 0 103 103" fill="none" xmlns="http://www.w3.org/2000/svg">
<path d="M86.9062 6.4375H85.2969V4.82812V3.21875H83.6875H82.0781V4.82812V6.4375H80.4688H78.8594V4.82812V3.21875H77.25H75.6406V4.82812V6.4375H74.0312H72.4219V4.82812V3.21875H70.8125H69.2031V4.82812V6.4375H67.5938H65.9844V4.82812V3.21875H64.375H62.7656V4.82812V6.4375H61.1562H59.5469V4.82812V3.21875H57.9375H56.3281V4.82812V6.4375H54.7188H53.1094V4.82812V3.21875H51.5H49.8906V4.82812V6.4375H48.2812H46.6719V4.82812V3.21875H45.0625H43.4531V4.82812V6.4375H41.8438H40.2344V4.82812V3.21875H38.625H37.0156V4.82812V6.4375H35.4062H33.7969V4.82812V3.21875H32.1875H30.5781V4.82812V6.4375H28.9688H27.3594V4.82812V3.21875H25.75H24.1406V4.82812V6.4375H22.5312H20.9219V4.82812V3.21875H19.3125H17.7031V4.82812V6.4375H16.0938H14.4844V8.04688V9.65625V11.2656V12.875V14.4844V16.0938V17.7031V19.3125V20.9219V22.5312V24.1406V25.75V27.3594V28.9688V30.5781V32.1875V33.7969V35.4062V37.0156V38.625V40.2344V41.8438V43.4531V45.0625V46.6719V48.2812V49.8906V51.5V53.1094V54.7188V56.3281V57.9375V59.5469V61.1562V62.7656V64.375V65.9844V67.5938V69.2031V70.8125V72.4219V74.0312V75.6406V77.25V78.8594V80.4688V82.0781V83.6875V85.2969V86.9062V88.5156V90.125V91.7344V93.3438V94.9531V96.5625V98.1719V99.7812H16.0938H17.7031V98.1719V96.5625H19.3125H20.9219V98.1719V99.7812H22.5312H24.1406V98.1719V96.5625H25.75H27.3594V98.1719V99.7812H28.9688H30.5781V98.1719V96.5625H32.1875H33.7969V98.1719V99.7812H35.4062H37.0156V98.1719V96.5625H38.625H40.2344V98.1719V99.7812H41.8438H43.4531V98.1719V96.5625H45.0625H46.6719V98.1719V99.7812H48.2812H49.8906V98.1719V96.5625H51.5H53.1094V98.1719V99.7812H54.7188H56.3281V98.1719V96.5625H57.9375H59.5469V98.1719V99.7812H61.1562H62.7656V98.1719V96.5625H64.375H65.9844V98.1719V99.7812H67.5938H69.2031V98.1719V96.5625H70.8125H72.4219V98.1719V99.7812H74.0312H75.6406V98.1719V96.5625H77.25H78.8594V98.1719V99.7812H80.4688H82.0781V98.1719V96.5625H83.6875H85.2969V98.1719V99.7812H86.9062H88.5156V98.1719V96.5625V94.9531V93.3438V91.7344V90.125V88.5156V86.9062V85.2969V83.6875V82.0781V80.4688V78.8594V77.25V75.6406V74.0312V72.4219V70.8125V69.2031V67.5938V65.9844V64.375V62.7656V61.1562V59.5469V57.9375V56.3281V54.7188V53.1094V51.5V49.8906V48.2812V46.6719V45.0625V43.4531V41.8438V40.2344V38.625V37.0156V35.4062V33.7969V32.1875V30.5781V28.9688V27.3594V25.75V24.1406V22.5312V20.9219V19.3125V17.7031V16.0938V14.4844V12.875V11.2656V9.65625V8.04688V6.4375H86.9062Z" fill="#59BCFF"/>
<path d="M80.4688 12.875H78.8594V14.4844H80.4688V12.875Z" fill="#0064FF"/>
<path d="M80.4688 88.5156H78.8594V90.125H80.4688V88.5156Z" fill="#0064FF"/>
<path d="M80.4688 14.4844V16.0938V17.7031V19.3125V20.9219V22.5312V24.1406V25.75H78.8594H77.25H75.6406H74.0312H72.4219H70.8125H69.2031H67.5938H65.9844H64.375H62.7656H61.1562H59.5469H57.9375H56.3281H54.7188H53.1094H51.5H49.8906H48.2812H46.6719H45.0625H43.4531H41.8438H40.2344H38.625H37.0156H35.4062H33.7969H32.1875H30.5781H28.9688H27.3594H25.75H24.1406H22.5312V24.1406V22.5312V20.9219V19.3125V17.7031V16.0938V14.4844H20.9219V16.0938V17.7031V19.3125V20.9219V22.5312V24.1406V25.75V27.3594V28.9688V30.5781V32.1875V33.7969V35.4062V37.0156V38.625V40.2344V41.8438V43.4531V45.0625V46.6719V48.2812V49.8906V51.5V53.1094V54.7188V56.3281V57.9375V59.5469V61.1562V62.7656V64.375V65.9844V67.5938V69.2031V70.8125V72.4219V74.0312V75.6406V77.25V78.8594V80.4688V82.0781V83.6875V85.2969V86.9062V88.5156H22.5312V86.9062V85.2969V83.6875V82.0781V80.4688V78.8594V77.25H24.1406H25.75H27.3594H28.9688H30.5781H32.1875H33.7969H35.4062H37.0156H38.625H40.2344H41.8438H43.4531H45.0625H46.6719H48.2812H49.8906H51.5H53.1094H54.7188H56.3281H57.9375H59.5469H61.1562H62.7656H64.375H65.9844H67.5938H69.2031H70.8125H72.4219H74.0312H75.6406H77.25H78.8594H80.4688V78.8594V80.4688V82.0781V83.6875V85.2969V86.9062V88.5156H82.0781V86.9062V85.2969V83.6875V82.0781V80.4688V78.8594V77.25V75.6406V74.0312V72.4219V70.8125V69.2031V67.5938V65.9844V64.375V62.7656V61.1562V59.5469V57.9375V56.3281V54.7188V53.1094V51.5V49.8906V48.2812V46.6719V45.0625V43.4531V41.8438V40.2344V38.625V37.0156V35.4062V33.7969V32.1875V30.5781V28.9688V27.3594V25.75V24.1406V22.5312V20.9219V19.3125V17.7031V16.0938V14.4844H80.4688ZM80.4688 28.9688V30.5781V32.1875V33.7969V35.4062V37.0156V38.625V40.2344V41.8438V43.4531V45.0625V46.6719V48.2812V49.8906V51.5V53.1094V54.7188V56.3281V57.9375V59.5469V61.1562V62.7656V64.375V65.9844V67.5938V69.2031V70.8125V72.4219V74.0312V75.6406H78.8594H77.25H75.6406H74.0312H72.4219H70.8125H69.2031H67.5938H65.9844H64.375H62.7656H61.1562H59.5469H57.9375H56.3281H54.7188H53.1094H51.5H49.8906H48.2812H46.6719H45.0625H43.4531H41.8438H40.2344H38.625H37.0156H35.4062H33.7969H32.1875H30.5781H28.9688H27.3594H25.75H24.1406H22.5312V74.0312V72.4219V70.8125V69.2031V67.5938V65.9844V64.375V62.7656V61.1562V59.5469V57.9375V56.3281V54.7188V53.1094V51.5V49.8906V48.2812V46.6719V45.0625V43.4531V41.8438V40.2344V38.625V37.0156V35.4062V33.7969V32.1875V30.5781V28.9688V27.3594H24.1406H25.75H27.3594H28.9688H30.5781H32.1875H33.7969H35.4062H37.0156H38.625H40.2344H41.8438H43.4531H45.0625H46.6719H48.2812H49.8906H51.5H53.1094H54.7188H56.3281H57.9375H59.5469H61.1562H62.7656H64.375H65.9844H67.5938H69.2031H70.8125H72.4219H74.0312H75.6406H77.25H78.8594H80.4688V28.9688Z" fill="#0064FF"/>
<path d="M27.3594 12.875H28.9688H30.5781H32.1875H33.7969H35.4062H37.0156H38.625H40.2344H41.8438H43.4531H45.0625H46.6719H48.2812H49.8906H51.5H53.1094H54.7188H56.3281H57.9375H59.5469H61.1562H62.7656H64.375H65.9844H67.5938H69.2031H70.8125H72.4219H74.0312H75.6406H77.25H78.8594V11.2656H77.25H75.6406H74.0312H72.4219H70.8125H69.2031H67.5938H65.9844H64.375H62.7656H61.1562H59.5469H57.9375H56.3281H54.7188H53.1094H51.5H49.8906H48.2812H46.6719H45.0625H43.4531H41.8438H40.2344H38.625H37.0156H35.4062H33.7969H32.1875H30.5781H28.9688H27.3594H25.75H24.1406V12.875H25.75H27.3594Z" fill="#0064FF"/>
<path d="M24.1406 12.875H22.5312V14.4844H24.1406V12.875Z" fill="#0064FF"/>
<path d="M24.1406 88.5156H22.5312V90.125H24.1406V88.5156Z" fill="#0064FF"/>
<path d="M75.6406 90.125H74.0312H72.4219H70.8125H69.2031H67.5938H65.9844H64.375H62.7656H61.1562H59.5469H57.9375H56.3281H54.7188H53.1094H51.5H49.8906H48.2812H46.6719H45.0625H43.4531H41.8438H40.2344H38.625H37.0156H35.4062H33.7969H32.1875H30.5781H28.9688H27.3594H25.75H24.1406V91.7344H25.75H27.3594H28.9688H30.5781H32.1875H33.7969H35.4062H37.0156H38.625H40.2344H41.8438H43.4531H45.0625H46.6719H48.2812H49.8906H51.5H53.1094H54.7188H56.3281H57.9375H59.5469H61.1562H62.7656H64.375H65.9844H67.5938H69.2031H70.8125H72.4219H74.0312H75.6406H77.25H78.8594V90.125H77.25H75.6406Z" fill="#0064FF"/>
<path d="M77.25 77.25H75.6406H74.0312H72.4219H70.8125H69.2031H67.5938H65.9844H64.375H62.7656H61.1562H59.5469H57.9375H56.3281H54.7188H53.1094H51.5H49.8906H48.2812H46.6719H45.0625H43.4531H41.8438H40.2344H38.625H37.0156H35.4062H33.7969H32.1875H30.5781H28.9688H27.3594H25.75H24.1406H22.5312V78.8594V80.4688V82.0781V83.6875V85.2969V86.9062V88.5156H24.1406V90.125H25.75H27.3594H28.9688H30.5781H32.1875H33.7969H35.4062H37.0156H38.625H40.2344H41.8438H43.4531H45.0625H46.6719H48.2812H49.8906H51.5H53.1094H54.7188H56.3281H57.9375H59.5469H61.1562H62.7656H64.375H65.9844H67.5938H69.2031H70.8125H72.4219H74.0312H75.6406H77.25H78.8594V88.5156H80.4688V86.9062V85.2969V83.6875V82.0781V80.4688V78.8594V77.25H78.8594H77.25Z" fill="white"/>
<path d="M78.8594 14.4844V12.875H77.25H75.6406H74.0312H72.4219H70.8125H69.2031H67.5938H65.9844H64.375H62.7656H61.1562H59.5469H57.9375H56.3281H54.7188H53.1094H51.5H49.8906H48.2812H46.6719H45.0625H43.4531H41.8438H40.2344H38.625H37.0156H35.4062H33.7969H32.1875H30.5781H28.9688H27.3594H25.75H24.1406V14.4844H22.5312V16.0938V17.7031V19.3125V20.9219V22.5312V24.1406V25.75H24.1406H25.75H27.3594H28.9688H30.5781H32.1875H33.7969H35.4062H37.0156H38.625H40.2344H41.8438H43.4531H45.0625H46.6719H48.2812H49.8906H51.5H53.1094H54.7188H56.3281H57.9375H59.5469H61.1562H62.7656H64.375H65.9844H67.5938H69.2031H70.8125H72.4219H74.0312H75.6406H77.25H78.8594H80.4688V24.1406V22.5312V20.9219V19.3125V17.7031V16.0938V14.4844H78.8594Z" fill="white"/>
<path d="M77.25 27.3594H75.6406H74.0312H72.4219H70.8125H69.2031H67.5938H65.9844H64.375H62.7656H61.1562H59.5469H57.9375H56.3281H54.7188H53.1094H51.5H49.8906H48.2812H46.6719H45.0625H43.4531H41.8438H40.2344H38.625H37.0156H35.4062H33.7969H32.1875H30.5781H28.9688H27.3594H25.75H24.1406H22.5312V28.9688V30.5781V32.1875V33.7969V35.4062V37.0156V38.625V40.2344V41.8438V43.4531V45.0625V46.6719V48.2812V49.8906V51.5V53.1094V54.7188V56.3281V57.9375V59.5469V61.1562V62.7656V64.375V65.9844V67.5938V69.2031V70.8125V72.4219V74.0312V75.6406H24.1406H25.75H27.3594H28.9688H30.5781H32.1875H33.7969H35.4062H37.0156H38.625H40.2344H41.8438H43.4531H45.0625H46.6719H48.2812H49.8906H51.5H53.1094H54.7188H56.3281H57.9375H59.5469H61.1562H62.7656H64.375H65.9844H67.5938H69.2031H70.8125H72.4219H74.0312H75.6406H77.25H78.8594H80.4688V74.0312V72.4219V70.8125V69.2031V67.5938V65.9844V64.375V62.7656V61.1562V59.5469V57.9375V56.3281V54.7188V53.1094V51.5V49.8906V48.2812V46.6719V45.0625V43.4531V41.8438V40.2344V38.625V37.0156V35.4062V33.7969V32.1875V30.5781V28.9688V27.3594H78.8594H77.25Z" fill="white"/>
<path d="M53.1094 9.65625V8.85156H52.3047V9.65625V10.4609V11.2656H53.1094V10.4609V9.65625Z" fill="#0B0072"/>
<path d="M53.9141 11.2656H53.1094V12.0703V12.875H53.9141V12.0703V11.2656Z" fill="#0B0072"/>
<path d="M53.9141 12.875V13.6797V14.4844V15.2891H54.7188V14.4844V13.6797V12.875H53.9141Z" fill="#0B0072"/>
<path d="M53.9141 15.2891H53.1094V16.0938H53.9141V15.2891Z" fill="#0B0072"/>
<path d="M51.5 16.0938H50.6953H49.8906V16.8984H50.6953H51.5H52.3047H53.1094V16.0938H52.3047H51.5Z" fill="#0B0072"/>
<path d="M49.8906 9.65625V10.4609V11.2656H50.6953V10.4609V9.65625V8.85156H49.8906V9.65625Z" fill="#1000A3"/>
<path d="M48.2812 13.6797V14.4844V15.2891H49.0859V14.4844V13.6797V12.875H48.2812V13.6797Z" fill="#1000A3"/>
<path d="M49.8906 15.2891H49.0859V16.0938H49.8906V15.2891Z" fill="#1000A3"/>
<path d="M49.0859 12.0703V12.875H49.8906V12.0703V11.2656H49.0859V12.0703Z" fill="#1000A3"/>
<path d="M51.5 8.04688H50.6953V8.85156H51.5H52.3047V8.04688H51.5Z" fill="#1000A3"/>
<path d="M51.5 12.0703H50.6953V12.875H51.5V12.0703Z" fill="white"/>
<path d="M53.1094 15.2891H52.3047V16.0938H53.1094V15.2891Z" fill="white"/>
<path d="M51.5 11.2656V10.4609H50.6953V11.2656V12.0703H51.5V11.2656Z" fill="#59BCFF"/>
<path d="M52.3047 12.0703H51.5V12.875H52.3047V12.0703Z" fill="#59BCFF"/>
<path d="M51.5 12.875H50.6953V13.6797H51.5V12.875Z" fill="#59BCFF"/>
<path d="M50.6953 15.2891V16.0938H51.5H52.3047V15.2891H51.5H50.6953Z" fill="#59BCFF"/>
<path d="M53.1094 13.6797V14.4844V15.2891H53.9141V14.4844V13.6797H53.1094Z" fill="#59BCFF"/>
<path d="M50.6953 12.0703H49.8906V12.875H50.6953V12.0703Z" fill="#59BCFF"/>
<path d="M52.3047 9.65625V8.85156H51.5V9.65625V10.4609H52.3047V9.65625Z" fill="#0000FF"/>
<path d="M49.8906 12.875H49.0859V13.6797V14.4844H49.8906V13.6797V12.875Z" fill="#0000FF"/>
<path d="M52.3047 11.2656V12.0703V12.875V13.6797V14.4844H51.5H50.6953H49.8906V15.2891H50.6953H51.5H52.3047H53.1094V14.4844V13.6797V12.875V12.0703V11.2656H52.3047Z" fill="#0000FF"/>
<path d="M51.5 13.6797H50.6953V14.4844H51.5V13.6797Z" fill="#0080FF"/>
<path d="M49.8906 14.4844H49.0859V15.2891H49.8906V14.4844Z" fill="#0080FF"/>
<path d="M50.6953 15.2891H49.8906V16.0938H50.6953V15.2891Z" fill="#0080FF"/>
<path d="M50.6953 11.2656H49.8906V12.0703H50.6953V11.2656Z" fill="#0080FF"/>
<path d="M52.3047 11.2656H51.5V12.0703H52.3047V11.2656Z" fill="#0080FF"/>
<path d="M52.3047 12.875H51.5V13.6797H52.3047V12.875Z" fill="#0080FF"/>
<path d="M53.9141 12.875H53.1094V13.6797H53.9141V12.875Z" fill="#0080FF"/>
<path d="M50.6953 12.875H49.8906V13.6797H50.6953V12.875Z" fill="#0080FF"/>
<path d="M51.5 9.65625H50.6953V10.4609H51.5V9.65625Z" fill="#0080FF"/>
<path d="M52.3047 10.4609H51.5V11.2656H52.3047V10.4609Z" fill="#0064FF"/>
<path d="M52.3047 13.6797H51.5V14.4844H52.3047V13.6797Z" fill="#0064FF"/>
<path d="M50.6953 13.6797H49.8906V14.4844H50.6953V13.6797Z" fill="#0064FF"/>
<path d="M51.5 8.85156H50.6953V9.65625H51.5V8.85156Z" fill="#0064FF"/>
<path d="M36.9537 18.6264V19.0584H37.3797V19.4844H36.9537V19.0584H36.5217V18.6264H36.9537ZM37.3797 19.0584V18.6264H37.8117V19.0584H37.3797ZM36.0957 16.4844H36.5217V18.6264H36.0957V16.4844ZM37.8117 16.4844H38.2377V18.6264H37.8117V16.4844ZM40.3781 16.4844V16.9104H39.0881V16.4844H40.3781ZM40.3781 16.9104H40.8041V19.4844H40.3781V18.2004H39.0881V19.4844H38.6621V16.9104H39.0881V17.7684H40.3781V16.9104ZM41.6545 19.0584H43.3705V19.4844H41.2285V16.4844H41.6545V19.0584ZM45.0789 16.9104H44.6529V19.0584H45.0789V19.4844H43.7949V19.0584H44.2209V16.9104H43.7949V16.4844H45.0789V16.9104ZM45.9319 16.9104V19.0584H47.2219V19.4844H45.5059V16.4844H47.2219V16.9104H45.9319ZM47.2219 16.9104H47.6479V19.0584H47.2219V16.9104ZM51.9311 16.9104H50.2151V17.7684H51.9311V18.2004H50.2151V19.4844H49.7891V16.4844H51.9311V16.9104ZM52.7815 19.4844V19.0584H54.0715V19.4844H52.7815ZM52.3555 16.9104H52.7815V19.0584H52.3555V16.9104ZM54.0715 16.4844V16.9104H52.7815V16.4844H54.0715ZM54.0715 16.9104H54.4975V19.0584H54.0715V16.9104ZM57.0639 17.7684H56.6379V16.9104H57.0639V17.7684ZM55.3479 17.7684H56.6379V18.2004H57.0639V19.4844H56.6379V18.2004H55.3479V19.4844H54.9219V16.4844H56.6379V16.9104H55.3479V17.7684ZM59.6311 19.4844V19.0584H60.9211V19.4844H59.6311ZM59.2051 16.9104H59.6311V19.0584H59.2051V16.9104ZM60.9211 16.4844V16.9104H59.6311V16.4844H60.9211ZM60.9211 16.9104H61.3471V19.0584H60.9211V16.9104ZM62.1975 17.3424H62.6295V17.7684H62.1975V19.4844H61.7715V16.4844H62.1975V17.3424ZM62.6295 17.7684H63.0555V18.2004H62.6295V17.7684ZM63.4875 16.4844H63.9135V19.4844H63.4875V18.6264H63.0555V18.2004H63.4875V16.4844ZM66.4799 16.9104H64.7639V17.7684H66.4799V18.2004H64.7639V19.0584H66.4799V19.4844H64.3379V16.4844H66.4799V16.9104Z" fill="#0064FF"/>
<path d="M34.3848 79.25H34.8108V81.824H34.3848V79.25ZM34.8108 82.25V81.824H35.2428V82.25H34.8108ZM35.2428 81.824V81.392H35.6688V81.824H35.2428ZM35.6688 80.966H36.1008V81.392H35.6688V80.966ZM36.1008 81.392H36.5268V81.824H36.1008V81.392ZM36.5268 82.25V81.824H36.9588V82.25H36.5268ZM36.9588 79.25H37.3848V81.824H36.9588V79.25ZM39.5285 79.25V79.676H38.2385V79.25H39.5285ZM39.5285 79.676H39.9545V82.25H39.5285V80.966H38.2385V82.25H37.8125V79.676H38.2385V80.534H39.5285V79.676ZM40.8049 81.824H42.5209V82.25H40.3789V79.25H40.8049V81.824ZM43.3713 80.534H43.8033V80.966H43.3713V82.25H42.9453V79.25H43.3713V80.534ZM44.2293 80.108V80.534H43.8033V80.108H44.2293ZM44.6613 79.676V80.108H44.2293V79.676H44.6613ZM45.0873 79.25V79.676H44.6613V79.25H45.0873ZM44.2293 81.392H43.8033V80.966H44.2293V81.392ZM44.6613 81.824H44.2293V81.392H44.6613V81.824ZM45.0873 82.25H44.6613V81.824H45.0873V82.25ZM46.7957 79.676H46.3697V81.824H46.7957V82.25H45.5117V81.824H45.9377V79.676H45.5117V79.25H46.7957V79.676ZM49.3647 79.676H47.6487V80.534H49.3647V80.966H47.6487V81.824H49.3647V82.25H47.2227V79.25H49.3647V79.676ZM53.6479 79.25V79.676H52.7899V82.25H52.3639V79.676H51.5059V79.25H53.6479ZM55.7883 79.25V79.676H54.4983V79.25H55.7883ZM55.7883 79.676H56.2143V82.25H55.7883V80.966H54.4983V82.25H54.0723V79.676H54.4983V80.534H55.7883V79.676ZM58.3547 79.25V79.676H57.0647V79.25H58.3547ZM58.3547 79.676H58.7807V82.25H58.3547V80.966H57.0647V82.25H56.6387V79.676H57.0647V80.534H58.3547V79.676ZM59.6311 81.824H61.3471V82.25H59.2051V79.25H59.6311V81.824ZM62.1975 80.534H62.6295V80.966H62.1975V82.25H61.7715V79.25H62.1975V80.534ZM63.0555 80.108V80.534H62.6295V80.108H63.0555ZM63.4875 79.676V80.108H63.0555V79.676H63.4875ZM63.9135 79.25V79.676H63.4875V79.25H63.9135ZM63.0555 81.392H62.6295V80.966H63.0555V81.392ZM63.4875 81.824H63.0555V81.392H63.4875V81.824ZM63.9135 82.25H63.4875V81.824H63.9135V82.25ZM65.6219 79.676H65.1959V81.824H65.6219V82.25H64.3379V81.824H64.7639V79.676H64.3379V79.25H65.6219V79.676ZM68.1908 79.676H66.4748V80.534H68.1908V80.966H66.4748V81.824H68.1908V82.25H66.0488V79.25H68.1908V79.676Z" fill="#0064FF"/>
<path d="M55.0577 48.6763L53.467 48.4317L51.8763 48.187L50.2856 47.9424L50.041 49.5331L51.6317 49.7777L53.2223 50.0224L54.813 50.267L56.4037 50.5117L56.6483 48.921L55.0577 48.6763Z" fill="#5A5A5A"/>
<path d="M54.813 50.2669L53.2223 50.0223L51.6317 49.7776L50.041 49.533L49.7964 51.1236L51.387 51.3683L52.9777 51.6129L54.5684 51.8576L56.159 52.1022L56.4037 50.5116L54.813 50.2669Z" fill="#464646"/>
<path d="M56.159 52.1023L54.5684 51.8577L54.3237 53.4484L55.9144 53.693L56.159 52.1023Z" fill="#323232"/>
<path d="M55.6697 55.2836L54.0791 55.0388L53.8344 56.6295L55.4251 56.8741L55.6697 55.2836Z" fill="#323232"/>
<path d="M55.1804 58.4648L53.5898 58.2202L53.3451 59.8109L54.9358 60.0555L55.1804 58.4648Z" fill="#323232"/>
<path d="M54.3237 53.4482L52.733 53.2036L52.4884 54.7942L54.079 55.0389L54.3237 53.4482Z" fill="#323232"/>
<path d="M53.8344 56.6296L52.2437 56.385L51.9991 57.9757L53.5898 58.2203L53.8344 56.6296Z" fill="#323232"/>
<path d="M51.1424 52.959L49.5517 52.7144L49.307 54.305L50.8977 54.5497L51.1424 52.959Z" fill="#323232"/>
<path d="M50.653 56.1404L49.0624 55.8958L48.8177 57.4863L50.4084 57.7311L50.653 56.1404Z" fill="#323232"/>
<path d="M53.3451 59.811L51.7544 59.5664L51.5098 61.157L53.1004 61.4017L53.3451 59.811Z" fill="#323232"/>
<path d="M50.1637 59.3217L48.5731 59.0769L48.3284 60.6676L49.9191 60.9122L50.1637 59.3217Z" fill="#323232"/>
<path d="M52.9777 51.6128L51.387 51.3682L51.1424 52.9588L52.733 53.2034L52.9777 51.6128Z" fill="#323232"/>
<path d="M52.4884 54.7942L50.8977 54.5496L50.653 56.1403L52.2437 56.3849L52.4884 54.7942Z" fill="#323232"/>
<path d="M51.9991 57.9756L50.4084 57.731L50.1638 59.3217L51.7544 59.5663L51.9991 57.9756Z" fill="#323232"/>
<path d="M55.9144 53.6929L54.3237 53.4482L54.079 55.0388L55.6697 55.2836L55.9144 53.6929Z" fill="#1E1E1E"/>
<path d="M55.4251 56.8743L53.8344 56.6296L53.5898 58.2203L55.1804 58.465L55.4251 56.8743Z" fill="#1E1E1E"/>
<path d="M54.5684 51.8577L52.9777 51.613L52.733 53.2038L54.3237 53.4484L54.5684 51.8577Z" fill="#1E1E1E"/>
<path d="M54.079 55.039L52.4884 54.7942L52.2437 56.3849L53.8344 56.6295L54.079 55.039Z" fill="#1E1E1E"/>
<path d="M51.387 51.3682L49.7964 51.1235L49.5517 52.7142L51.1424 52.9589L51.387 51.3682Z" fill="#1E1E1E"/>
<path d="M50.8977 54.5496L49.3071 54.3049L49.0624 55.8956L50.6531 56.1403L50.8977 54.5496Z" fill="#1E1E1E"/>
<path d="M53.5897 58.2202L51.9991 57.9756L51.7544 59.5663L53.3451 59.8109L53.5897 58.2202Z" fill="#1E1E1E"/>
<path d="M50.4084 57.731L48.8177 57.4863L48.5731 59.0769L50.1637 59.3217L50.4084 57.731Z" fill="#1E1E1E"/>
<path d="M54.9358 60.0557L53.3451 59.811L53.1004 61.4017L54.6911 61.6464L54.9358 60.0557Z" fill="#1E1E1E"/>
<path d="M52.733 53.2036L51.1424 52.959L50.8977 54.5497L52.4884 54.7943L52.733 53.2036Z" fill="#1E1E1E"/>
<path d="M52.2437 56.385L50.653 56.1404L50.4084 57.7311L51.9991 57.9757L52.2437 56.385Z" fill="#1E1E1E"/>
<path d="M51.7544 59.5663L50.1638 59.3215L49.9191 60.9122L51.5098 61.1569L51.7544 59.5663Z" fill="#1E1E1E"/>
<path d="M55.3023 47.0855L53.7116 46.8409L52.121 46.5962L50.5303 46.3516L50.2856 47.9422L51.8763 48.1869L53.467 48.4315L55.0577 48.6762L56.6483 48.9208L56.893 47.3302L55.3023 47.0855Z" fill="#6E6E6E"/>
<path d="M57.1377 45.7396L57.3823 44.149L57.627 42.5583L57.8716 40.9676L58.1163 39.377L56.5256 39.1323L56.281 40.723L56.0363 42.3137L55.7916 43.9043L55.547 45.495L53.9563 45.2503L52.3656 45.0057L50.775 44.761L49.1843 44.5164L48.9396 46.1071L48.695 47.6977L47.1043 47.4531L46.8597 49.0437L46.615 50.6344L48.2057 50.8791L47.961 52.4697L47.7164 54.0604L47.4717 55.6511L47.2271 57.2418L46.9824 58.8323L46.7378 60.4231L46.4931 62.0138L48.0838 62.2584L49.6745 62.503L51.2651 62.7478L52.8558 62.9924L54.4465 63.237L56.0371 63.4817L56.2818 61.891L56.5264 60.3004L56.7711 58.7097L57.0157 57.119L57.2604 55.5283L57.5051 53.9376L57.7497 52.347L57.9944 50.7563L58.239 49.1657L58.4837 47.575L58.7283 45.9843L57.1377 45.7396ZM56.6483 48.921L56.4037 50.5117L56.159 52.1023L55.9144 53.693L55.6697 55.2837L55.4251 56.8744L55.1804 58.4651L54.9358 60.0556L54.6911 61.6463L53.1004 61.4017L51.5098 61.1571L49.9191 60.9125L48.3284 60.6677L48.5731 59.0771L48.8177 57.4864L49.0624 55.8957L49.307 54.305L49.5517 52.7144L49.7964 51.1237L50.041 49.533L50.2857 47.9424L50.5303 46.3517L52.121 46.5964L53.7117 46.841L55.3023 47.0857L56.893 47.3303L56.6483 48.921Z" fill="black"/>
</svg>
