<svg xmlns="http://www.w3.org/2000/svg" viewBox="0 0 1329.4 1734"  xmlns:v="https://vecta.io/nano"><path d="M1300.5 57.8h-28.9V0h-57.8v57.8H1156V0h-57.8v57.8h-57.8V0h-57.8v57.8h-57.8V0H867v57.8h-57.8V0h-57.8v57.8h-57.8V0h-57.8v57.8H578V0h-57.8v57.8h-57.8V0h-57.8v57.8h-57.8V0H289v57.8h-57.8V0h-57.8v57.8h-57.8V0H57.8v57.8H0V1734h57.8v-57.8h57.8v57.8h57.8v-57.8h57.8v57.8H289v-57.8h57.8v57.8h57.8v-57.8h57.8v57.8h57.8v-57.8H578v57.8h57.8v-57.8h57.8v57.8h57.8v-57.8h57.8v57.8H867v-57.8h57.8v57.8h57.8v-57.8h57.8v57.8h57.8v-57.8h57.8v57.8h57.8v-57.8h57.8v57.8h57.8V57.8z" fill="#ff96ff"/><g fill="#f0f"><path d="M1156 173.4h28.9v28.9H1156zm0 1358.3h28.9v28.9H1156z"/><path d="M1184.9 202.3v202.3H144.5V202.3h-28.9v1329.4h28.9v-202.3h1040.4v202.3h28.9V202.3h-28.9zm0 260.1v838.1H144.5v-867h1040.4v28.9zm-953.7-289H1156v-28.9H173.4v28.9h28.9z"/><path d="M144.5 173.4h28.9v28.9h-28.9zm0 1358.3h28.9v28.9h-28.9z"/><path d="M1098.2 1560.6H173.4v28.9H1156v-28.9h-28.9z"/></g><path d="M1127.1 1329.4H144.5v202.3h28.9v28.9H1156v-28.9h28.9v-202.3H1156zM1156 202.3v-28.9H173.4v28.9h-28.9v202.3h1040.4V202.3zm-28.9 231.2H144.5v867h1040.4v-867H1156z" fill="#fff"/><path d="M239.9 1011.5v-20.2h-37.6v37.5h37.6zm589.5-465.3v-37.6h-37.6v37.6h17.4zm260.1 260.1v-37.6h-37.6v37.6h17.4zm-815-17.3v-20.3H237v37.6h37.5z"/><path d="M1089.5 953.7V919h37.6v-37.5h-37.6v34.6h-54.9V841h17.3v-37.6h-37.5v-72.2h37.5v-37.6h-37.5v34.7h-37.6v-69.4h37.6v-37.6h-37.6v31.8h-92.5v-37.5h37.6V578H791.8v-37.6H479.7v-28.9h-37.5v37.6h34.6V578h-89.6v-31.8h-37.5v37.6h34.7v31.8h37.5v37.5h-72.2v-31.8h-37.6v37.6h37.6v69.4h-37.6v-31.8h-37.6v37.6h37.6v69.3h-37.6V841h17.4v75.1h-52v-34.6h-37.6V919H237v34.7h54.9v75.1H237v37.6h92.4v54.9h55v17.4h17.3V916.1H419v-37.5h37.6V841h37.6v-75.2h37.5v-37.5h37.6v-37.6h37.6v-37.6h147.4v37.6h75.1v37.6h75.2v37.5h37.5v352.6H997v-54.9h92.5v-34.7h37.6v-37.5h-37.6v34.7h-54.9v-72.3z"/><path d="M959.5 583.8v-37.6h-37.6v37.6h17.3zm-72.3 332.3h17.3v17.3h-17.3z"/><path d="M867 898.8v-17.3H719.6V919h167.6v-17.3H867zm-439.3 14.4H445v17.3h-17.3z"/><path d="M465.3 895.9v2.9H445v17.3h167.7v-37.5H465.3z"/><path d="M673.3 101.1h14.4v14.4h-14.4zm-14.4 86.7v28.9h14.4v-43.4h-14.4zm14.4-43.3h14.4v14.4h-14.4zm-43.3 0h14.4v14.4H630zM601.1 130h14.4v14.4h-14.4zm43.3-28.9h14.4v14.4h-14.4z" fill="#ffc8ff"/><g fill="#9a298b"><path d="M572.2 130h14.4v14.4h-14.4zm28.9 14.5h-14.4v28.8h14.4v-14.4z"/><path d="M615.5 173.3h-14.4v28.9h14.4v-14.4z"/><path d="M615.5 202.2h14.4v14.4h-14.4zm14.5 14.5h14.4v14.4H630z"/><path d="M644.4 231.1h14.4v14.4h-14.4zm72.2-86.6H731v14.4h-14.4zm-14.4 28.8h14.4v14.4h-14.4zm-28.9 43.4h14.4v14.4h-14.4z"/></g><path d="M687.7 101.1h14.4v14.4h-14.4zm14.5 28.9h14.4v14.4h-14.4zm-43.3-14.4h-14.5V130h43.3v-14.4h-14.4zM630 101.1h14.4v14.4H630zm28.9 130v14.5h14.4v-28.9h-14.4z" fill="#ff96ff"/><path d="M586.7 130h14.4v14.4h-14.4zm14.4 14.5h14.4v14.4h-14.4zm14.4 28.8h14.4v14.4h-14.4zm28.9 43.4h14.4v14.4h-14.4z" fill="#ff00be"/><g fill="#d700c1"><path d="M731.1 130h14.4v14.4h-14.4zm-28.9 57.8h14.4v14.4h-14.4zm-14.5 14.4h14.4v14.4h-14.4zm28.9-43.3H731v14.4h-14.4zm0-43.3H731V130h-14.4zM687.7 130h14.4v14.4h-14.4zm-28.8 14.5h14.4v14.4h-14.4zM630 130h14.4v14.4H630z"/><path d="M601.1 115.6h14.4V130h-14.4zm28.9 43.3v-14.4h-14.5v28.8H630v28.9h14.4v14.5h14.5v-57.8h-14.5z"/></g><g fill="#ff62ff"><path d="M731.1 115.6h14.4V130h-14.4zM716.6 130H731v14.4h-14.4z"/><path d="M702.2 115.6h-14.5V130h28.9v-14.4zm-14.5 28.9h14.4v14.4h-14.4z"/><path d="M658.9 130h-14.5v14.5h43.3V130h-14.4z"/><path d="M630 115.6h-14.5V130h28.9v-14.4zm-14.5 72.2h14.4v14.4h-14.4zm14.5 14.4h14.4v14.4H630zm-28.9-43.3h14.4v14.4h-14.4z"/></g><path d="M658.9 101.1h14.4v14.4h-14.4zm-14.5 43.4h14.4v14.4h-14.4zm14.5 14.4h14.4v14.4h-14.4zM615.5 130h14.4v14.4h-14.4zm-28.8-14.4h14.4V130h-14.4z" fill="#fff"/><g fill="#870075"><path d="M658.9 245.6h14.4V260h-14.4zM745.5 130h14.4v14.4h-14.4zm-14.4 28.9v14.4h14.4v-28.8h-14.4z"/><path d="M716.6 187.8v14.4h14.5v-28.9h-14.5z"/><path d="M702.2 202.2h14.4v14.4h-14.4zm-14.5 14.5h14.4v14.4h-14.4z"/><path d="M673.3 231.1h14.4v14.4h-14.4z"/></g><g fill="#f0f"><path d="M601.1 101.1h-14.4v14.5H630v-14.5h-14.5zm-28.9 14.5h14.4V130h-14.4z"/><path d="M702.2 158.9h-28.9v57.8h14.4v-14.5h14.5v-28.9h14.4v-28.8h-14.4zm-14.5-72.2H630v14.4h72.2V86.7z"/><path d="M731.1 101.1h-28.9v14.5h43.3v-14.5z"/><path d="M745.5 115.6h14.4V130h-14.4zM301.8 1443.1h11v22.2h-11v-22.2zm11 33.2v-11h33.3v11h-33.3zm11.2-77.5h33.2v66.5h-11v-55.5H324v-11zm48 11h11v55.5h-11v-55.5zm44.4-11v11H383v-11h33.4zm-33.4 77.5v-11h33.3v11H383zm33.4-66.5h11v55.5h-11v-55.5zm36.8 22.2h33.3v11.2h11v33.2h-11v-33.2h-33.3v33.2h-11v-77.5h44.3v11h-33.3v22.1zm44.4 0h-11v-22.2h11v22.2zm25.9-22.2v55.5h33.3v11h-44.3v-77.5h44.3v11h-33.3zm33.3 0h11v55.5h-11v-55.5zm70.2 0h11v66.5h-11v-33.2h-33.3v33.2h-11v-66.5h11v22.2H627v-22.2zm0-11v11h-33.3v-11H627zm36.9 22.2H675v11h-11.2v44.3h-11v-77.5h11v22.2zm11.1 11h11v11.2h-11V1432zm22.2-33.2h11v77.5h-11v-22.2H686v-11h11.2v-44.3zm129.4 0v77.5h-11v-33.2h-33.3v33.2h-11v-77.5h11v33.2h33.3v-33.2h11zm59.2 11h11v66.5h-11v-33.2h-33.3v33.2h-11v-66.5h11v22.2h33.3v-22.2zm0-11v11h-33.3v-11h33.3zm48.1 11v55.5h11v11h-33.2v-11h11v-55.5h-11v-11h33.2v11h-11zm36.9 22.2h33.3v11.2h11v33.2h-11v-33.2h-33.3v33.2h-11v-77.5h44.3v11h-33.3v22.1zm44.3 0h-11v-22.2h11v22.2zM239.4 292.5h11v55.3h-11v-55.3zm22.2 55.3V359h11v11h-11v-11h-11.2v-11.2h11.2zm11 11.2v-11.2h11.2V359h-11.2zm11.2-66.5h11v55.3h-11v-55.3zm70.2 11h11V370h-11v-33.2h-33.3V370h-11v-66.5h11v22.2H354v-22.2zm0-11v11h-33.3v-11H354zm81.2 66.5v11h-55.3v-77.5h11V359h44.3zm37-55.5V359h11v11H450v-11h11v-55.5h-11v-11h33.2v11h-11zm36.9 0V359h33.3v11h-44.3v-77.5h44.3v11h-33.3zm33.4 0h11V359h-11v-55.5zm85.1 0v22.2h44.3v11.2h-44.3V370h-11v-77.5h55.3v11h-44.3zm59.2 0h11V359h-11v-55.5zm44.3-11v11h-33.3v-11h33.3zM697.8 370v-11h33.3v11h-33.3zm33.3-66.5h11V359h-11v-55.5zm36.9 22.2h33.3v11.2h11V370h-11v-33.2H768V370h-11v-77.5h44.3v11H768v22.2zm44.3 0h-11v-22.2h11v22.2zm63.1-22.2h11V359h-11v-55.5zm44.3-11v11h-33.3v-11h33.3zM886.4 370v-11h33.3v11h-33.3zm33.3-66.5h11V359h-11v-55.5zm36.9 11.2h11.2v11h-11.2V370h-11v-77.5h11v22.2zm11.2 11h11v11.2h-11v-11.2zm22.1-33.2h11V370h-11v-22.2h-11.2v-11h11.2v-44.3zm36.9 11v22.2h44.3v11.2h-44.3V359h44.3v11h-55.3v-77.5h55.3v11h-44.3z"/></g></svg>