<svg width="103" height="103" viewBox="0 0 103 103" fill="none" xmlns="http://www.w3.org/2000/svg">
<path d="M86.9062 6.4375H85.2969V4.82812V3.21875H83.6875H82.0781V4.82812V6.4375H80.4688H78.8594V4.82812V3.21875H77.25H75.6406V4.82812V6.4375H74.0312H72.4219V4.82812V3.21875H70.8125H69.2031V4.82812V6.4375H67.5938H65.9844V4.82812V3.21875H64.375H62.7656V4.82812V6.4375H61.1562H59.5469V4.82812V3.21875H57.9375H56.3281V4.82812V6.4375H54.7188H53.1094V4.82812V3.21875H51.5H49.8906V4.82812V6.4375H48.2812H46.6719V4.82812V3.21875H45.0625H43.4531V4.82812V6.4375H41.8438H40.2344V4.82812V3.21875H38.625H37.0156V4.82812V6.4375H35.4062H33.7969V4.82812V3.21875H32.1875H30.5781V4.82812V6.4375H28.9688H27.3594V4.82812V3.21875H25.75H24.1406V4.82812V6.4375H22.5312H20.9219V4.82812V3.21875H19.3125H17.7031V4.82812V6.4375H16.0938H14.4844V8.04688V9.65625V11.2656V12.875V14.4844V16.0938V17.7031V19.3125V20.9219V22.5312V24.1406V25.75V27.3594V28.9688V30.5781V32.1875V33.7969V35.4062V37.0156V38.625V40.2344V41.8438V43.4531V45.0625V46.6719V48.2812V49.8906V51.5V53.1094V54.7188V56.3281V57.9375V59.5469V61.1562V62.7656V64.375V65.9844V67.5938V69.2031V70.8125V72.4219V74.0312V75.6406V77.25V78.8594V80.4688V82.0781V83.6875V85.2969V86.9062V88.5156V90.125V91.7344V93.3438V94.9531V96.5625V98.1719V99.7812H16.0938H17.7031V98.1719V96.5625H19.3125H20.9219V98.1719V99.7812H22.5312H24.1406V98.1719V96.5625H25.75H27.3594V98.1719V99.7812H28.9688H30.5781V98.1719V96.5625H32.1875H33.7969V98.1719V99.7812H35.4062H37.0156V98.1719V96.5625H38.625H40.2344V98.1719V99.7812H41.8438H43.4531V98.1719V96.5625H45.0625H46.6719V98.1719V99.7812H48.2812H49.8906V98.1719V96.5625H51.5H53.1094V98.1719V99.7812H54.7188H56.3281V98.1719V96.5625H57.9375H59.5469V98.1719V99.7812H61.1562H62.7656V98.1719V96.5625H64.375H65.9844V98.1719V99.7812H67.5938H69.2031V98.1719V96.5625H70.8125H72.4219V98.1719V99.7812H74.0312H75.6406V98.1719V96.5625H77.25H78.8594V98.1719V99.7812H80.4688H82.0781V98.1719V96.5625H83.6875H85.2969V98.1719V99.7812H86.9062H88.5156V98.1719V96.5625V94.9531V93.3438V91.7344V90.125V88.5156V86.9062V85.2969V83.6875V82.0781V80.4688V78.8594V77.25V75.6406V74.0312V72.4219V70.8125V69.2031V67.5938V65.9844V64.375V62.7656V61.1562V59.5469V57.9375V56.3281V54.7188V53.1094V51.5V49.8906V48.2812V46.6719V45.0625V43.4531V41.8438V40.2344V38.625V37.0156V35.4062V33.7969V32.1875V30.5781V28.9688V27.3594V25.75V24.1406V22.5312V20.9219V19.3125V17.7031V16.0938V14.4844V12.875V11.2656V9.65625V8.04688V6.4375H86.9062Z" fill="#FF96FF"/>
<path d="M80.4688 12.875H78.8594V14.4844H80.4688V12.875Z" fill="#FF00FF"/>
<path d="M80.4688 88.5156H78.8594V90.125H80.4688V88.5156Z" fill="#FF00FF"/>
<path d="M80.4688 14.4844V16.0938V17.7031V19.3125V20.9219V22.5312V24.1406V25.75H78.8594H77.25H75.6406H74.0312H72.4219H70.8125H69.2031H67.5938H65.9844H64.375H62.7656H61.1562H59.5469H57.9375H56.3281H54.7188H53.1094H51.5H49.8906H48.2812H46.6719H45.0625H43.4531H41.8438H40.2344H38.625H37.0156H35.4062H33.7969H32.1875H30.5781H28.9688H27.3594H25.75H24.1406H22.5312V24.1406V22.5312V20.9219V19.3125V17.7031V16.0938V14.4844H20.9219V16.0938V17.7031V19.3125V20.9219V22.5312V24.1406V25.75V27.3594V28.9688V30.5781V32.1875V33.7969V35.4062V37.0156V38.625V40.2344V41.8438V43.4531V45.0625V46.6719V48.2812V49.8906V51.5V53.1094V54.7188V56.3281V57.9375V59.5469V61.1562V62.7656V64.375V65.9844V67.5938V69.2031V70.8125V72.4219V74.0312V75.6406V77.25V78.8594V80.4688V82.0781V83.6875V85.2969V86.9062V88.5156H22.5312V86.9062V85.2969V83.6875V82.0781V80.4688V78.8594V77.25H24.1406H25.75H27.3594H28.9688H30.5781H32.1875H33.7969H35.4062H37.0156H38.625H40.2344H41.8438H43.4531H45.0625H46.6719H48.2812H49.8906H51.5H53.1094H54.7188H56.3281H57.9375H59.5469H61.1562H62.7656H64.375H65.9844H67.5938H69.2031H70.8125H72.4219H74.0312H75.6406H77.25H78.8594H80.4688V78.8594V80.4688V82.0781V83.6875V85.2969V86.9062V88.5156H82.0781V86.9062V85.2969V83.6875V82.0781V80.4688V78.8594V77.25V75.6406V74.0312V72.4219V70.8125V69.2031V67.5938V65.9844V64.375V62.7656V61.1562V59.5469V57.9375V56.3281V54.7188V53.1094V51.5V49.8906V48.2812V46.6719V45.0625V43.4531V41.8438V40.2344V38.625V37.0156V35.4062V33.7969V32.1875V30.5781V28.9688V27.3594V25.75V24.1406V22.5312V20.9219V19.3125V17.7031V16.0938V14.4844H80.4688ZM80.4688 28.9688V30.5781V32.1875V33.7969V35.4062V37.0156V38.625V40.2344V41.8438V43.4531V45.0625V46.6719V48.2812V49.8906V51.5V53.1094V54.7188V56.3281V57.9375V59.5469V61.1562V62.7656V64.375V65.9844V67.5938V69.2031V70.8125V72.4219V74.0312V75.6406H78.8594H77.25H75.6406H74.0312H72.4219H70.8125H69.2031H67.5938H65.9844H64.375H62.7656H61.1562H59.5469H57.9375H56.3281H54.7188H53.1094H51.5H49.8906H48.2812H46.6719H45.0625H43.4531H41.8438H40.2344H38.625H37.0156H35.4062H33.7969H32.1875H30.5781H28.9688H27.3594H25.75H24.1406H22.5312V74.0312V72.4219V70.8125V69.2031V67.5938V65.9844V64.375V62.7656V61.1562V59.5469V57.9375V56.3281V54.7188V53.1094V51.5V49.8906V48.2812V46.6719V45.0625V43.4531V41.8438V40.2344V38.625V37.0156V35.4062V33.7969V32.1875V30.5781V28.9688V27.3594H24.1406H25.75H27.3594H28.9688H30.5781H32.1875H33.7969H35.4062H37.0156H38.625H40.2344H41.8438H43.4531H45.0625H46.6719H48.2812H49.8906H51.5H53.1094H54.7188H56.3281H57.9375H59.5469H61.1562H62.7656H64.375H65.9844H67.5938H69.2031H70.8125H72.4219H74.0312H75.6406H77.25H78.8594H80.4688V28.9688Z" fill="#FF00FF"/>
<path d="M27.3594 12.875H28.9688H30.5781H32.1875H33.7969H35.4062H37.0156H38.625H40.2344H41.8438H43.4531H45.0625H46.6719H48.2812H49.8906H51.5H53.1094H54.7188H56.3281H57.9375H59.5469H61.1562H62.7656H64.375H65.9844H67.5938H69.2031H70.8125H72.4219H74.0312H75.6406H77.25H78.8594V11.2656H77.25H75.6406H74.0312H72.4219H70.8125H69.2031H67.5938H65.9844H64.375H62.7656H61.1562H59.5469H57.9375H56.3281H54.7188H53.1094H51.5H49.8906H48.2812H46.6719H45.0625H43.4531H41.8438H40.2344H38.625H37.0156H35.4062H33.7969H32.1875H30.5781H28.9688H27.3594H25.75H24.1406V12.875H25.75H27.3594Z" fill="#FF00FF"/>
<path d="M24.1406 12.875H22.5312V14.4844H24.1406V12.875Z" fill="#FF00FF"/>
<path d="M24.1406 88.5156H22.5312V90.125H24.1406V88.5156Z" fill="#FF00FF"/>
<path d="M75.6406 90.125H74.0312H72.4219H70.8125H69.2031H67.5938H65.9844H64.375H62.7656H61.1562H59.5469H57.9375H56.3281H54.7188H53.1094H51.5H49.8906H48.2812H46.6719H45.0625H43.4531H41.8438H40.2344H38.625H37.0156H35.4062H33.7969H32.1875H30.5781H28.9688H27.3594H25.75H24.1406V91.7344H25.75H27.3594H28.9688H30.5781H32.1875H33.7969H35.4062H37.0156H38.625H40.2344H41.8438H43.4531H45.0625H46.6719H48.2812H49.8906H51.5H53.1094H54.7188H56.3281H57.9375H59.5469H61.1562H62.7656H64.375H65.9844H67.5938H69.2031H70.8125H72.4219H74.0312H75.6406H77.25H78.8594V90.125H77.25H75.6406Z" fill="#FF00FF"/>
<path d="M77.25 77.25H75.6406H74.0312H72.4219H70.8125H69.2031H67.5938H65.9844H64.375H62.7656H61.1562H59.5469H57.9375H56.3281H54.7188H53.1094H51.5H49.8906H48.2812H46.6719H45.0625H43.4531H41.8438H40.2344H38.625H37.0156H35.4062H33.7969H32.1875H30.5781H28.9688H27.3594H25.75H24.1406H22.5312V78.8594V80.4688V82.0781V83.6875V85.2969V86.9062V88.5156H24.1406V90.125H25.75H27.3594H28.9688H30.5781H32.1875H33.7969H35.4062H37.0156H38.625H40.2344H41.8438H43.4531H45.0625H46.6719H48.2812H49.8906H51.5H53.1094H54.7188H56.3281H57.9375H59.5469H61.1562H62.7656H64.375H65.9844H67.5938H69.2031H70.8125H72.4219H74.0312H75.6406H77.25H78.8594V88.5156H80.4688V86.9062V85.2969V83.6875V82.0781V80.4688V78.8594V77.25H78.8594H77.25Z" fill="white"/>
<path d="M78.8594 14.4844V12.875H77.25H75.6406H74.0312H72.4219H70.8125H69.2031H67.5938H65.9844H64.375H62.7656H61.1562H59.5469H57.9375H56.3281H54.7188H53.1094H51.5H49.8906H48.2812H46.6719H45.0625H43.4531H41.8438H40.2344H38.625H37.0156H35.4062H33.7969H32.1875H30.5781H28.9688H27.3594H25.75H24.1406V14.4844H22.5312V16.0938V17.7031V19.3125V20.9219V22.5312V24.1406V25.75H24.1406H25.75H27.3594H28.9688H30.5781H32.1875H33.7969H35.4062H37.0156H38.625H40.2344H41.8438H43.4531H45.0625H46.6719H48.2812H49.8906H51.5H53.1094H54.7188H56.3281H57.9375H59.5469H61.1562H62.7656H64.375H65.9844H67.5938H69.2031H70.8125H72.4219H74.0312H75.6406H77.25H78.8594H80.4688V24.1406V22.5312V20.9219V19.3125V17.7031V16.0938V14.4844H78.8594Z" fill="white"/>
<path d="M77.25 27.3594H75.6406H74.0312H72.4219H70.8125H69.2031H67.5938H65.9844H64.375H62.7656H61.1562H59.5469H57.9375H56.3281H54.7188H53.1094H51.5H49.8906H48.2812H46.6719H45.0625H43.4531H41.8438H40.2344H38.625H37.0156H35.4062H33.7969H32.1875H30.5781H28.9688H27.3594H25.75H24.1406H22.5312V28.9688V30.5781V32.1875V33.7969V35.4062V37.0156V38.625V40.2344V41.8438V43.4531V45.0625V46.6719V48.2812V49.8906V51.5V53.1094V54.7188V56.3281V57.9375V59.5469V61.1562V62.7656V64.375V65.9844V67.5938V69.2031V70.8125V72.4219V74.0312V75.6406H24.1406H25.75H27.3594H28.9688H30.5781H32.1875H33.7969H35.4062H37.0156H38.625H40.2344H41.8438H43.4531H45.0625H46.6719H48.2812H49.8906H51.5H53.1094H54.7188H56.3281H57.9375H59.5469H61.1562H62.7656H64.375H65.9844H67.5938H69.2031H70.8125H72.4219H74.0312H75.6406H77.25H78.8594H80.4688V74.0312V72.4219V70.8125V69.2031V67.5938V65.9844V64.375V62.7656V61.1562V59.5469V57.9375V56.3281V54.7188V53.1094V51.5V49.8906V48.2812V46.6719V45.0625V43.4531V41.8438V40.2344V38.625V37.0156V35.4062V33.7969V32.1875V30.5781V28.9688V27.3594H78.8594H77.25Z" fill="white"/>
<path d="M52.6266 8.85156H51.8219V9.65625H52.6266V8.85156Z" fill="#FFC8FF"/>
<path d="M51.1781 13.6797V14.4844V15.2891H51.8219V14.4844V13.6797V12.875H51.1781V13.6797Z" fill="#FFC8FF"/>
<path d="M52.6266 11.2656H51.8219V12.0703H52.6266V11.2656Z" fill="#FFC8FF"/>
<path d="M50.3734 11.2656H49.5688V12.0703H50.3734V11.2656Z" fill="#FFC8FF"/>
<path d="M48.7641 10.4609H47.9594V11.2656H48.7641V10.4609Z" fill="#FFC8FF"/>
<path d="M51.0172 8.85156H50.2125V9.65625H51.0172V8.85156Z" fill="#FFC8FF"/>
<path d="M47.1547 10.4609H46.35V11.2656H47.1547V10.4609Z" fill="#9A298B"/>
<path d="M47.9594 11.2656H46.9938V12.0703V12.875H47.9594V12.0703V11.2656Z" fill="#9A298B"/>
<path d="M48.6031 12.875H47.9594V13.6797V14.4844H48.6031V13.6797V12.875Z" fill="#9A298B"/>
<path d="M49.4078 14.4844H48.6031V15.2891H49.4078V14.4844Z" fill="#9A298B"/>
<path d="M50.3734 15.2891H49.5688V16.0938H50.3734V15.2891Z" fill="#9A298B"/>
<path d="M51.0172 16.0938H50.2125V16.8984H51.0172V16.0938Z" fill="#9A298B"/>
<path d="M55.2016 11.2656H54.3969V12.0703H55.2016V11.2656Z" fill="#9A298B"/>
<path d="M54.2359 12.875H53.4313V13.6797H54.2359V12.875Z" fill="#9A298B"/>
<path d="M52.6266 15.2891H51.8219V16.0938H52.6266V15.2891Z" fill="#9A298B"/>
<path d="M53.5922 8.85156H52.7875V9.65625H53.5922V8.85156Z" fill="#FF96FF"/>
<path d="M54.2359 10.4609H53.4313V11.2656H54.2359V10.4609Z" fill="#FF96FF"/>
<path d="M51.1781 9.65625H50.2125V10.4609H51.1781H51.8219H52.7875V9.65625H51.8219H51.1781Z" fill="#FF96FF"/>
<path d="M50.3734 8.85156H49.5688V9.65625H50.3734V8.85156Z" fill="#FF96FF"/>
<path d="M51.1781 16.0938V16.8984H51.8219V16.0938V15.2891H51.1781V16.0938Z" fill="#FF96FF"/>
<path d="M47.7984 10.4609H46.9938V11.2656H47.7984V10.4609Z" fill="#FF00BE"/>
<path d="M48.7641 11.2656H47.9594V12.0703H48.7641V11.2656Z" fill="#FF00BE"/>
<path d="M49.4078 12.875H48.6031V13.6797H49.4078V12.875Z" fill="#FF00BE"/>
<path d="M51.0172 15.2891H50.2125V16.0938H51.0172V15.2891Z" fill="#FF00BE"/>
<path d="M55.8453 10.4609H55.0406V11.2656H55.8453V10.4609Z" fill="#D700C1"/>
<path d="M54.2359 13.6797H53.4313V14.4844H54.2359V13.6797Z" fill="#D700C1"/>
<path d="M53.5922 14.4844H52.7875V15.2891H53.5922V14.4844Z" fill="#D700C1"/>
<path d="M55.2016 12.0703H54.3969V12.875H55.2016V12.0703Z" fill="#D700C1"/>
<path d="M55.2016 9.65625H54.3969V10.4609H55.2016V9.65625Z" fill="#D700C1"/>
<path d="M53.5922 10.4609H52.7875V11.2656H53.5922V10.4609Z" fill="#D700C1"/>
<path d="M51.9828 11.2656H51.1781V12.0703H51.9828V11.2656Z" fill="#D700C1"/>
<path d="M50.3734 10.4609H49.5688V11.2656H50.3734V10.4609Z" fill="#D700C1"/>
<path d="M48.7641 9.65625H47.9594V10.4609H48.7641V9.65625Z" fill="#D700C1"/>
<path d="M49.5688 12.0703V11.2656H48.6031V12.0703V12.875H49.5688V13.6797V14.4844H50.2125V15.2891H51.1781V14.4844V13.6797V12.875V12.0703H50.2125H49.5688Z" fill="#D700C1"/>
<path d="M55.8453 9.65625H55.0406V10.4609H55.8453V9.65625Z" fill="#FF62FF"/>
<path d="M55.2016 10.4609H54.3969V11.2656H55.2016V10.4609Z" fill="#FF62FF"/>
<path d="M53.4313 9.65625H52.7875V10.4609H53.4313H54.3969V9.65625H53.4313Z" fill="#FF62FF"/>
<path d="M53.5922 11.2656H52.7875V12.0703H53.5922V11.2656Z" fill="#FF62FF"/>
<path d="M51.1781 10.4609H50.2125V11.2656H51.1781H51.8219H52.7875V10.4609H51.8219H51.1781Z" fill="#FF62FF"/>
<path d="M49.5688 9.65625H48.6031V10.4609H49.5688H50.2125V9.65625H49.5688Z" fill="#FF62FF"/>
<path d="M49.4078 13.6797H48.6031V14.4844H49.4078V13.6797Z" fill="#FF62FF"/>
<path d="M50.3734 14.4844H49.5688V15.2891H50.3734V14.4844Z" fill="#FF62FF"/>
<path d="M48.7641 12.0703H47.9594V12.875H48.7641V12.0703Z" fill="#FF62FF"/>
<path d="M51.9828 8.85156H51.1781V9.65625H51.9828V8.85156Z" fill="white"/>
<path d="M51.0172 11.2656H50.2125V12.0703H51.0172V11.2656Z" fill="white"/>
<path d="M51.9828 12.0703H51.1781V12.875H51.9828V12.0703Z" fill="white"/>
<path d="M49.4078 10.4609H48.6031V11.2656H49.4078V10.4609Z" fill="white"/>
<path d="M47.7984 9.65625H46.9938V10.4609H47.7984V9.65625Z" fill="white"/>
<path d="M51.9828 16.8984H51.1781V17.7031H51.9828V16.8984Z" fill="#870075"/>
<path d="M56.8109 10.4609H56.0063V11.2656H56.8109V10.4609Z" fill="#870075"/>
<path d="M55.0406 12.0703V12.875H56.0063V12.0703V11.2656H55.0406V12.0703Z" fill="#870075"/>
<path d="M54.3969 13.6797V14.4844H55.0406V13.6797V12.875H54.3969V13.6797Z" fill="#870075"/>
<path d="M54.2359 14.4844H53.4313V15.2891H54.2359V14.4844Z" fill="#870075"/>
<path d="M53.5922 15.2891H52.7875V16.0938H53.5922V15.2891Z" fill="#870075"/>
<path d="M52.6266 16.0938H51.8219V16.8984H52.6266V16.0938Z" fill="#870075"/>
<path d="M47.9594 8.85156H46.9938V9.65625H47.9594H48.6031H49.5688V8.85156H48.6031H47.9594Z" fill="#FF00FF"/>
<path d="M47.1547 9.65625H46.35V10.4609H47.1547V9.65625Z" fill="#FF00FF"/>
<path d="M53.4313 12.0703H52.7875H51.8219V12.875V13.6797V14.4844V15.2891H52.7875V14.4844H53.4313V13.6797V12.875H54.3969V12.0703V11.2656H53.4313V12.0703Z" fill="#FF00FF"/>
<path d="M52.7875 8.04688H51.8219H51.1781H50.2125H49.5688V8.85156H50.2125H51.1781H51.8219H52.7875H53.4313V8.04688H52.7875Z" fill="#FF00FF"/>
<path d="M55.0406 8.85156H54.3969H53.4313V9.65625H54.3969H55.0406H56.0063V8.85156H55.0406Z" fill="#FF00FF"/>
<path d="M56.8109 9.65625H56.0063V10.4609H56.8109V9.65625Z" fill="#FF00FF"/>
<path d="M36.9537 18.6264V19.0584H37.3797V19.4844H36.9537V19.0584H36.5217V18.6264H36.9537ZM37.3797 19.0584V18.6264H37.8117V19.0584H37.3797ZM36.0957 16.4844H36.5217V18.6264H36.0957V16.4844ZM37.8117 16.4844H38.2377V18.6264H37.8117V16.4844ZM40.3781 16.4844V16.9104H39.0881V16.4844H40.3781ZM40.3781 16.9104H40.8041V19.4844H40.3781V18.2004H39.0881V19.4844H38.6621V16.9104H39.0881V17.7684H40.3781V16.9104ZM41.6545 19.0584H43.3705V19.4844H41.2285V16.4844H41.6545V19.0584ZM45.0789 16.9104H44.6529V19.0584H45.0789V19.4844H43.7949V19.0584H44.2209V16.9104H43.7949V16.4844H45.0789V16.9104ZM45.9319 16.9104V19.0584H47.2219V19.4844H45.5059V16.4844H47.2219V16.9104H45.9319ZM47.2219 16.9104H47.6479V19.0584H47.2219V16.9104ZM51.9311 16.9104H50.2151V17.7684H51.9311V18.2004H50.2151V19.4844H49.7891V16.4844H51.9311V16.9104ZM52.7815 19.4844V19.0584H54.0715V19.4844H52.7815ZM52.3555 16.9104H52.7815V19.0584H52.3555V16.9104ZM54.0715 16.4844V16.9104H52.7815V16.4844H54.0715ZM54.0715 16.9104H54.4975V19.0584H54.0715V16.9104ZM57.0639 17.7684H56.6379V16.9104H57.0639V17.7684ZM55.3479 17.7684H56.6379V18.2004H57.0639V19.4844H56.6379V18.2004H55.3479V19.4844H54.9219V16.4844H56.6379V16.9104H55.3479V17.7684ZM59.6311 19.4844V19.0584H60.9211V19.4844H59.6311ZM59.2051 16.9104H59.6311V19.0584H59.2051V16.9104ZM60.9211 16.4844V16.9104H59.6311V16.4844H60.9211ZM60.9211 16.9104H61.3471V19.0584H60.9211V16.9104ZM62.1975 17.3424H62.6295V17.7684H62.1975V19.4844H61.7715V16.4844H62.1975V17.3424ZM62.6295 17.7684H63.0555V18.2004H62.6295V17.7684ZM63.4875 16.4844H63.9135V19.4844H63.4875V18.6264H63.0555V18.2004H63.4875V16.4844ZM66.4799 16.9104H64.7639V17.7684H66.4799V18.2004H64.7639V19.0584H66.4799V19.4844H64.3379V16.4844H66.4799V16.9104Z" fill="#FF00FF"/>
<path d="M42.9457 80.534H42.5197V79.676H42.9457V80.534ZM41.2297 80.534H42.5197V80.966H42.9457V82.25H42.5197V80.966H41.2297V82.25H40.8037V79.25H42.5197V79.676H41.2297V80.534ZM45.5121 79.676H43.7961V80.534H45.5121V80.966H43.7961V81.824H45.5121V82.25H43.3701V79.25H45.5121V79.676ZM46.3625 79.676V81.824H47.6525V82.25H45.9365V79.25H47.6525V79.676H46.3625ZM47.6525 79.676H48.0785V81.824H47.6525V79.676ZM50.6457 79.676V80.534H51.9357V80.966H50.6457V82.25H50.2197V79.25H51.9357V79.676H50.6457ZM51.9357 79.676H52.3617V80.534H51.9357V79.676ZM53.2121 81.824H54.9281V82.25H52.7861V79.25H53.2121V81.824ZM57.0685 79.25V79.676H55.7785V79.25H57.0685ZM57.0685 79.676H57.4945V82.25H57.0685V80.966H55.7785V82.25H55.3525V79.676H55.7785V80.534H57.0685V79.676ZM59.2029 79.676H58.7769V81.824H59.2029V82.25H57.9189V81.824H58.3449V79.676H57.9189V79.25H59.2029V79.676ZM60.0559 79.676V81.824H61.3459V82.25H59.6299V79.25H61.3459V79.676H60.0559ZM61.3459 79.676H61.7719V81.824H61.3459V79.676Z" fill="#FF00FF"/>
<path d="M51.5 51.7412H50.2125V53.0287H51.5V51.7412Z" fill="#00FFFF"/>
<path d="M51.5 56.8914H50.2125V58.1789H51.5V56.8914Z" fill="#00FFFF"/>
<path d="M66.95 51.7412H65.6625H64.375V53.0287H65.6625H66.95H68.2375V51.7412H66.95Z" fill="#00FFFF"/>
<path d="M39.9125 54.3162H38.625V55.6037H39.9125V54.3162Z" fill="#00FFFF"/>
<path d="M51.5 62.0413H50.2125V63.3288H51.5V62.0413Z" fill="#00FFFF"/>
<path d="M34.7625 45.3039V46.5914H36.05V45.3039V44.0164H34.7625V45.3039Z" fill="#E9EEF2"/>
<path d="M36.05 47.8787H34.7625V49.1662H36.05V47.8787Z" fill="#E9EEF2"/>
<path d="M43.775 58.1787V59.4662H45.0625H46.35V58.1787H45.0625H43.775Z" fill="#E9EEF2"/>
<path d="M42.4875 58.1787H41.2V59.4662H42.4875V58.1787Z" fill="#E9EEF2"/>
<path d="M48.925 58.1787H47.6375V59.4662H48.925V58.1787Z" fill="#E9EEF2"/>
<path d="M36.05 58.1787H34.7625V59.4662H36.05V58.1787Z" fill="#E9EEF2"/>
<path d="M34.7625 55.6037V56.8912H36.05V55.6037V54.3162H34.7625V55.6037Z" fill="#E9EEF2"/>
<path d="M66.95 45.3039V46.5914H68.2375V45.3039V44.0164H66.95V45.3039Z" fill="#E9EEF2"/>
<path d="M68.2375 47.8787H66.95V49.1662H68.2375V47.8787Z" fill="#E9EEF2"/>
<path d="M63.0875 44.0164H61.8V45.3039H60.5125H59.225H57.9375V46.5914H56.65H55.3625V47.8789H56.65V49.1664H57.9375V50.4539H59.225V49.1664H60.5125V47.8789H61.8H63.0875V46.5914H64.375V45.3039H65.6625V44.0164H64.375H63.0875Z" fill="#E9EEF2"/>
<path d="M38.625 42.7288H37.3375V44.0163H38.625V42.7288Z" fill="#E9EEF2"/>
<path d="M68.2375 58.1787H66.95V59.4662H68.2375V58.1787Z" fill="#E9EEF2"/>
<path d="M56.65 58.1787V59.4662H57.9375H59.225V58.1787H57.9375H56.65Z" fill="#E9EEF2"/>
<path d="M55.3625 58.1787H54.075V59.4662H55.3625V58.1787Z" fill="#E9EEF2"/>
<path d="M61.8 58.1787H60.5125V59.4662H61.8V58.1787Z" fill="#E9EEF2"/>
<path d="M56.65 54.3162V55.6037V56.8912H57.9375H59.225V55.6037V54.3162H57.9375H56.65Z" fill="#E9EEF2"/>
<path d="M55.3625 47.8787H54.075V49.1662H55.3625V47.8787Z" fill="#E9EEF2"/>
<path d="M46.35 46.5914H45.0625V45.3039H43.775H42.4875H41.2V44.0164H39.9125H38.625V45.3039H39.9125V46.5914H41.2V47.8789H42.4875V49.1664H43.775V50.4539H45.0625V49.1664H46.35V47.8789H47.6375V46.5914H46.35Z" fill="#E9EEF2"/>
<path d="M48.925 47.8787H47.6375V49.1662H48.925V47.8787Z" fill="#E9EEF2"/>
<path d="M54.075 55.6037V56.8912H55.3625V55.6037V54.3162H54.075V55.6037Z" fill="#E9EEF2"/>
<path d="M47.6375 55.6037V56.8912H48.925V55.6037V54.3162H47.6375V55.6037Z" fill="#E9EEF2"/>
<path d="M30.9 54.3162V55.6037V56.8912H32.1875H33.475V55.6037V54.3162H32.1875H30.9Z" fill="#E9EEF2"/>
<path d="M30.9 63.3289V64.6164V65.9039H32.1875H33.475V64.6164V63.3289H32.1875H30.9Z" fill="#E9EEF2"/>
<path d="M30.9 44.0164V45.3039V46.5914H32.1875H33.475V45.3039V44.0164H32.1875H30.9Z" fill="#E9EEF2"/>
<path d="M30.9 58.1787V59.4662H32.1875H33.475V58.1787H32.1875H30.9Z" fill="#E9EEF2"/>
<path d="M30.9 47.8787V49.1662H32.1875H33.475V47.8787H32.1875H30.9Z" fill="#E9EEF2"/>
<path d="M66.95 42.7288H65.6625V44.0163H66.95V42.7288Z" fill="#E9EEF2"/>
<path d="M60.5125 55.6037V56.8912H61.8V55.6037V54.3162H60.5125V55.6037Z" fill="#E9EEF2"/>
<path d="M41.2 55.6037V56.8912H42.4875V55.6037V54.3162H41.2V55.6037Z" fill="#E9EEF2"/>
<path d="M43.775 63.3289V64.6164V65.9039H45.0625H46.35V64.6164V63.3289H45.0625H43.775Z" fill="#E9EEF2"/>
<path d="M41.2 64.6164V65.9039H42.4875V64.6164V63.3289H41.2V64.6164Z" fill="#E9EEF2"/>
<path d="M69.525 58.1787V59.4662H70.8125H72.1V58.1787H70.8125H69.525Z" fill="#E9EEF2"/>
<path d="M69.525 63.3289V64.6164V65.9039H70.8125H72.1V64.6164V63.3289H70.8125H69.525Z" fill="#E9EEF2"/>
<path d="M56.65 63.3289V64.6164V65.9039H57.9375H59.225V64.6164V63.3289H57.9375H56.65Z" fill="#E9EEF2"/>
<path d="M60.5125 64.6164V65.9039H61.8V64.6164V63.3289H60.5125V64.6164Z" fill="#E9EEF2"/>
<path d="M69.525 44.0164V45.3039V46.5914H70.8125H72.1V45.3039V44.0164H70.8125H69.525Z" fill="#E9EEF2"/>
<path d="M69.525 54.3162V55.6037V56.8912H70.8125H72.1V55.6037V54.3162H70.8125H69.525Z" fill="#E9EEF2"/>
<path d="M69.525 47.8787V49.1662H70.8125H72.1V47.8787H70.8125H69.525Z" fill="#E9EEF2"/>
<path d="M43.775 54.3162V55.6037V56.8912H45.0625H46.35V55.6037V54.3162H45.0625H43.775Z" fill="#E9EEF2"/>
<path d="M29.6125 47.8787H28.325V49.1662H29.6125V47.8787Z" fill="#E9EEF2"/>
<path d="M28.325 45.3039V46.5914H29.6125V45.3039V44.0164H28.325V45.3039Z" fill="#E9EEF2"/>
<path d="M74.675 47.8787H73.3875V49.1662H74.675V47.8787Z" fill="#E9EEF2"/>
<path d="M73.3875 44.0164V45.3039V46.5914H74.675V45.3039V44.0164H73.3875Z" fill="#E9EEF2"/>
<path d="M48.925 49.1662H47.6375H46.35V50.4537V51.7412V53.0287H45.0625H43.775V51.7412V50.4537H42.4875V51.7412V53.0287H41.2V51.7412V50.4537H42.4875V49.1662H41.2V47.8787H39.9125V49.1662V50.4537V51.7412V53.0287V54.3162V55.6037V56.8912V58.1787V59.4662V60.7537V62.0412V63.3287H41.2V62.0412V60.7537H42.4875V62.0412V63.3287V64.6162V65.9037H43.775V64.6162V63.3287V62.0412V60.7537H45.0625H46.35V62.0412V63.3287V64.6162V65.9037H47.6375V64.6162V63.3287V62.0412V60.7537H48.925V62.0412V63.3287H50.2125V62.0412V60.7537V59.4662V58.1787V56.8912V55.6037V54.3162V53.0287V51.7412V50.4537V49.1662V47.8787H48.925V49.1662ZM45.0625 54.3162H46.35V55.6037V56.8912H45.0625H43.775V55.6037V54.3162H45.0625ZM41.2 55.6037V54.3162H42.4875V55.6037V56.8912H41.2V55.6037ZM41.2 59.4662V58.1787H42.4875V59.4662H41.2ZM45.0625 59.4662H43.775V58.1787H45.0625H46.35V59.4662H45.0625ZM48.925 59.4662H47.6375V58.1787H48.925V59.4662ZM48.925 55.6037V56.8912H47.6375V55.6037V54.3162H48.925V55.6037ZM48.925 51.7412V53.0287H47.6375V51.7412V50.4537H48.925V51.7412Z" fill="#FF0000"/>
<path d="M61.8 49.1662H60.5125V50.4537H61.8V51.7412V53.0287H60.5125V51.7412V50.4537H59.225V51.7412V53.0287H57.9375H56.65V51.7412V50.4537V49.1662H55.3625H54.075V47.8787H52.7875V49.1662V50.4537V51.7412V53.0287V54.3162V55.6037V56.8912V58.1787V59.4662V60.7537V62.0412V63.3287H54.075V62.0412V60.7537H55.3625V62.0412V63.3287V64.6162V65.9037H56.65V64.6162V63.3287V62.0412V60.7537H57.9375H59.225V62.0412V63.3287V64.6162V65.9037H60.5125V64.6162V63.3287V62.0412V60.7537H61.8V62.0412V63.3287H63.0875V62.0412V60.7537V59.4662V58.1787V56.8912V55.6037V54.3162V53.0287V51.7412V50.4537V49.1662V47.8787H61.8V49.1662ZM57.9375 54.3162H59.225V55.6037V56.8912H57.9375H56.65V55.6037V54.3162H57.9375ZM54.075 51.7412V50.4537H55.3625V51.7412V53.0287H54.075V51.7412ZM54.075 55.6037V54.3162H55.3625V55.6037V56.8912H54.075V55.6037ZM54.075 59.4662V58.1787H55.3625V59.4662H54.075ZM57.9375 59.4662H56.65V58.1787H57.9375H59.225V59.4662H57.9375ZM61.8 59.4662H60.5125V58.1787H61.8V59.4662ZM61.8 55.6037V56.8912H60.5125V55.6037V54.3162H61.8V55.6037Z" fill="#FF0000"/>
<path d="M34.7625 42.7288V41.4413H33.475V42.7288H32.1875H30.9V41.4413V40.1538H29.6125V41.4413V42.7288H28.325H27.0375V44.0163V45.3038V46.5913V47.8788V49.1663V50.4538H28.325V49.1663V47.8788H29.6125V49.1663V50.4538H30.9H32.1875H33.475V51.7413V53.0288H32.1875H30.9V54.3163H32.1875H33.475V55.6038V56.8913H32.1875H30.9V58.1788H32.1875H33.475V59.4663H32.1875H30.9V60.7538H32.1875H33.475V62.0413V63.3288V64.6163V65.9038H34.7625V64.6163V63.3288V62.0413V60.7538H36.05V62.0413V63.3288H37.3375V62.0413V60.7538V59.4663V58.1788V56.8913V55.6038V54.3163V53.0288V51.7413V50.4538V49.1663V47.8788V46.5913V45.3038V44.0163V42.7288H36.05H34.7625ZM32.1875 44.0163H33.475V45.3038V46.5913H32.1875H30.9V45.3038V44.0163H32.1875ZM28.325 46.5913V45.3038V44.0163H29.6125V45.3038V46.5913H28.325ZM32.1875 49.1663H30.9V47.8788H32.1875H33.475V49.1663H32.1875ZM36.05 59.4663H34.7625V58.1788H36.05V59.4663ZM36.05 55.6038V56.8913H34.7625V55.6038V54.3163H36.05V55.6038ZM36.05 51.7413V53.0288H34.7625V51.7413V50.4538H36.05V51.7413ZM36.05 49.1663H34.7625V47.8788H36.05V49.1663ZM36.05 45.3038V46.5913H34.7625V45.3038V44.0163H36.05V45.3038Z" fill="#FF0000"/>
<path d="M74.675 42.7288H73.3875V41.4413V40.1538H72.1V41.4413V42.7288H70.8125H69.525V41.4413H68.2375V42.7288H66.95V44.0163H68.2375V45.3038V46.5913H66.95V45.3038V44.0163H65.6625V45.3038V46.5913V47.8788V49.1663V50.4538V51.7413H66.95V50.4538H68.2375V51.7413V53.0288V54.3163V55.6038V56.8913H66.95V55.6038V54.3163V53.0288H65.6625V54.3163V55.6038V56.8913V58.1788V59.4663V60.7538V62.0413V63.3288H66.95V62.0413V60.7538H68.2375V62.0413V63.3288V64.6163V65.9038H69.525V64.6163V63.3288V62.0413V60.7538H70.8125H72.1V59.4663H70.8125H69.525V58.1788H70.8125H72.1V56.8913H70.8125H69.525V55.6038V54.3163H70.8125H72.1V53.0288H70.8125H69.525V51.7413V50.4538H70.8125H72.1H73.3875V49.1663V47.8788H74.675V49.1663V50.4538H75.9625V49.1663V47.8788V46.5913V45.3038V44.0163V42.7288H74.675ZM68.2375 59.4663H66.95V58.1788H68.2375V59.4663ZM69.525 45.3038V44.0163H70.8125H72.1V45.3038V46.5913H70.8125H69.525V45.3038ZM66.95 49.1663V47.8788H68.2375V49.1663H66.95ZM72.1 49.1663H70.8125H69.525V47.8788H70.8125H72.1V49.1663ZM74.675 45.3038V46.5913H73.3875V45.3038V44.0163H74.675V45.3038Z" fill="#FF0000"/>
<path d="M33.475 42.7288V41.4413H32.1875V40.1538H30.9V41.4413V42.7288H32.1875H33.475Z" fill="#640000"/>
<path d="M72.1 42.7288V41.4413V40.1538H70.8125V41.4413H69.525V42.7288H70.8125H72.1Z" fill="#640000"/>
<path d="M68.2375 55.6038V54.3163V53.0288H66.95V54.3163V55.6038V56.8913H68.2375V55.6038Z" fill="#640000"/>
<path d="M29.6125 42.7288V41.4413V40.1538H28.325V41.4413H27.0375V42.7288H28.325H29.6125Z" fill="#640000"/>
<path d="M41.2 51.7414V53.0289H42.4875V51.7414V50.4539H41.2V51.7414Z" fill="#640000"/>
<path d="M42.4875 62.0414V60.7539H41.2V62.0414V63.3289H42.4875V62.0414Z" fill="#640000"/>
<path d="M43.775 60.7539V62.0414V63.3289H45.0625H46.35V62.0414V60.7539H45.0625H43.775Z" fill="#640000"/>
<path d="M47.6375 47.8787H46.35V49.1662H47.6375V47.8787Z" fill="#640000"/>
<path d="M43.775 49.1663H42.4875V50.4538H43.775V49.1663Z" fill="#640000"/>
<path d="M68.2375 50.4539H66.95V51.7414H68.2375V50.4539Z" fill="#640000"/>
<path d="M61.8 60.7539H60.5125V62.0414V63.3289H61.8V62.0414V60.7539Z" fill="#640000"/>
<path d="M56.65 60.7539V62.0414V63.3289H57.9375H59.225V62.0414V60.7539H57.9375H56.65Z" fill="#640000"/>
<path d="M60.5125 53.0289H61.8V51.7414V50.4539H60.5125V51.7414V53.0289Z" fill="#640000"/>
<path d="M56.65 47.8787H55.3625V49.1662H56.65V47.8787Z" fill="#640000"/>
<path d="M60.5125 49.1663H59.225V50.4538H60.5125V49.1663Z" fill="#640000"/>
<path d="M55.3625 51.7414V50.4539H54.075V51.7414V53.0289H55.3625V51.7414Z" fill="#640000"/>
<path d="M55.3625 46.5913H54.075V47.8788H55.3625V46.5913Z" fill="#640000"/>
<path d="M48.925 46.5913H47.6375V47.8788H48.925V46.5913Z" fill="#640000"/>
<path d="M47.6375 51.7414V53.0289H48.925V51.7414V50.4539H47.6375V51.7414Z" fill="#640000"/>
<path d="M32.1875 65.9039H30.9V64.6164V63.3289H32.1875H33.475V62.0414V60.7539H32.1875H30.9V59.4664V58.1789V56.8914V55.6039V54.3164V53.0289H32.1875H33.475V51.7414V50.4539H32.1875H30.9H29.6125V51.7414V53.0289V54.3164V55.6039V56.8914V58.1789V59.4664V60.7539V62.0414V63.3289V64.6164V65.9039V67.1914V68.4789H30.9H32.1875H33.475H34.7625V67.1914V65.9039H33.475H32.1875Z" fill="#640000"/>
<path d="M41.2 63.3289H39.9125V62.0414V60.7539V59.4664V58.1789V56.8914V55.6039H38.625V54.3164H39.9125V53.0289V51.7414V50.4539V49.1664V47.8789H41.2V46.5914H39.9125V45.3039H38.625V44.0164H37.3375V45.3039V46.5914V47.8789V49.1664V50.4539V51.7414V53.0289V54.3164V55.6039V56.8914V58.1789V59.4664V60.7539V62.0414V63.3289H36.05V62.0414V60.7539H34.7625V62.0414V63.3289V64.6164V65.9039H36.05H37.3375H38.625H39.9125H41.2V64.6164V63.3289Z" fill="#640000"/>
<path d="M45.0625 65.9038H43.775H42.4875H41.2V67.1913V68.4788H42.4875H43.775H45.0625H46.35H47.6375V67.1913V65.9038H46.35H45.0625Z" fill="#640000"/>
<path d="M70.8125 50.4539H69.525V51.7414V53.0289H70.8125H72.1V54.3164V55.6039V56.8914V58.1789V59.4664V60.7539H70.8125H69.525V62.0414V63.3289H70.8125H72.1V64.6164V65.9039H70.8125H69.525H68.2375V67.1914V68.4789H69.525H70.8125H72.1H73.3875V67.1914V65.9039V64.6164V63.3289V62.0414V60.7539V59.4664V58.1789V56.8914V55.6039V54.3164V53.0289V51.7414V50.4539H72.1H70.8125Z" fill="#640000"/>
<path d="M68.2375 63.3287V62.0412V60.7537H66.95V62.0412V63.3287H65.6625V62.0412V60.7537V59.4662V58.1787V56.8912V55.6037V54.3162V53.0287H64.375V51.7412H65.6625V50.4537V49.1662V47.8787V46.5912V45.3037H64.375V46.5912H63.0875V47.8787V49.1662V50.4537V51.7412V53.0287V54.3162V55.6037V56.8912V58.1787V59.4662V60.7537V62.0412V63.3287H61.8V64.6162V65.9037H63.0875H64.375H65.6625H66.95H68.2375V64.6162V63.3287Z" fill="#640000"/>
<path d="M55.3625 63.3288V62.0413V60.7538H54.075V62.0413V63.3288H52.7875V62.0413V60.7538V59.4663V58.1788V56.8913V55.6038V54.3163V53.0288V51.7413V50.4538V49.1663H51.5H50.2125V50.4538V51.7413H51.5V53.0288H50.2125V54.3163V55.6038V56.8913H51.5V58.1788H50.2125V59.4663V60.7538V62.0413H51.5V63.3288H50.2125H48.925V62.0413V60.7538H47.6375V62.0413V63.3288V64.6163V65.9038H48.925H50.2125H51.5H52.7875H54.075H55.3625V64.6163V63.3288Z" fill="#640000"/>
<path d="M59.225 65.9038H57.9375H56.65H55.3625V67.1913V68.4788H56.65H57.9375H59.225H60.5125H61.8V67.1913V65.9038H60.5125H59.225Z" fill="#640000"/>
<path d="M61.8 47.8787H60.5125V49.1662H61.8V47.8787Z" fill="#640000"/>
<path d="M36.05 51.7414V50.4539H34.7625V51.7414V53.0289H36.05V51.7414Z" fill="#640000"/>
<path d="M42.4875 47.8787H41.2V49.1662H42.4875V47.8787Z" fill="#640000"/>
<path d="M43.775 53.0288H45.0625H46.35V51.7413V50.4538V49.1663H45.0625V50.4538H43.775V51.7413V53.0288Z" fill="#640000"/>
<path d="M56.65 51.7413V53.0288H57.9375H59.225V51.7413V50.4538H57.9375V49.1663H56.65V50.4538V51.7413Z" fill="#640000"/>
<path d="M29.6125 49.1663H28.325V50.4538H29.6125V49.1663Z" fill="#640000"/>
<path d="M27.0375 49.1663V47.8788V46.5913V45.3038V44.0163V42.7288H25.75V44.0163V45.3038V46.5913V47.8788V49.1663V50.4538V51.7413H27.0375H28.325V50.4538H27.0375V49.1663Z" fill="#640000"/>
<path d="M74.675 49.1663H73.3875V50.4538H74.675V49.1663Z" fill="#640000"/>
<path d="M74.675 41.4413V40.1538H73.3875V41.4413V42.7288H74.675H75.9625V41.4413H74.675Z" fill="#640000"/>
<path d="M75.9625 42.7288V44.0163V45.3038V46.5913V47.8788V49.1663V50.4538H74.675V51.7413H75.9625H77.25V50.4538V49.1663V47.8788V46.5913V45.3038V44.0163V42.7288H75.9625Z" fill="#640000"/>
</svg>
