<svg xmlns="http://www.w3.org/2000/svg" xmlns:xlink="http://www.w3.org/1999/xlink" viewBox="0 0 1329.4 1734" xmlns:v="https://vecta.io/nano"><path d="M1300.5 57.8h-28.9V0h-57.8v57.8H1156V0h-57.8v57.8h-57.8V0h-57.8v57.8h-57.8V0H867v57.8h-57.8V0h-57.8v57.8h-57.8V0h-57.8v57.8H578V0h-57.8v57.8h-57.8V0h-57.8v57.8h-57.8V0H289v57.8h-57.8V0h-57.8v57.8h-57.8V0H57.8v57.8H0V1734h57.8v-57.8h57.8v57.8h57.8v-57.8h57.8v57.8H289v-57.8h57.8v57.8h57.8v-57.8h57.8v57.8h57.8v-57.8H578v57.8h57.8v-57.8h57.8v57.8h57.8v-57.8h57.8v57.8H867v-57.8h57.8v57.8h57.8v-57.8h57.8v57.8h57.8v-57.8h57.8v57.8h57.8v-57.8h57.8v57.8h57.8V57.8z" fill="#ff96ff"/><g fill="#f0f"><path d="M1156 173.4h28.9v28.9H1156zm0 1358.3h28.9v28.9H1156z"/><path d="M1184.9 202.3v202.3H144.5V202.3h-28.9v1329.4h28.9v-202.3h1040.4v202.3h28.9V202.3h-28.9zm0 260.1v838.1H144.5v-867h1040.4v28.9zm-953.7-289H1156v-28.9H173.4v28.9h28.9z"/><path d="M144.5 173.4h28.9v28.9h-28.9zm0 1358.3h28.9v28.9h-28.9z"/><path d="M1098.2 1560.6H173.4v28.9H1156v-28.9h-28.9z"/></g><g fill="#fff"><path d="M1127.1 1329.4H144.5v202.3h28.9v28.9H1156v-28.9h28.9v-202.3H1156zM1156 202.3v-28.9H173.4v28.9h-28.9v202.3h1040.4V202.3zm-28.9 231.2H144.5v867h1040.4v-867H1156z"/><path d="M725.4 734.1h-23.1v46.2h-23.1v92.5h23.1v-69.4h23.1v-46.2h46.2v-23.1h-46.2zm69.4-23.2h-23.1V734h46.2v-23.1h-23.1zm-277.5 0h-23.1V734h46.2v-23.1h-23.1zm92.5 46.3v-23.1h-69.4v23.1h46.2v46.2h23.1v69.4h23.1v-92.5h-23.1v-23.1h.1z"/></g><g fill="#343a4c"><path d="M586.7 895.9h-23.1v-23.1h-23.1v-23.1h-23.1v-23.1h-46.2v-23.1H425v-23.1h-23.1v-23.1h-46.2v-23.1h-46.2v-69.4h-23.1v393h346.8v-23.1h-23.1v-23.1h23.1v-23.1h-23.1v-23.1h23.1v-23.1h-23.1V919H587v-23.1h-.3zM355.5 919h115.6v23.1H355.5V919zm92.5 115.6h-92.5v-69.4h115.6v69.4H448z"/><path d="M609.8 849.7v-46.2h-23.1v-46.2h-46.2v-23.1h-46.2v-23.1H448V688h-46.2v-23.1h-46.2v-23.1h-46.2v23.1h23.1v46.2h23.1v23.1h46.2v23.1h23.1v23.1h46.2v23.1h46.2v23.1h23.1v23.1h23.1v23.1h23.1v23.1h23.1V919h23.1v-46.2h-23.1v-23.1h.1zm-115.6-69.4v-23.1h23.1v23.1h-23.1zM286.1 618.5h23.1v23.1h-23.1v-23.1zm670.5 23.1v23.1h-46.2v23.1h-46.2v23.1H818V734h-46.2v23.1h-46.2v46.2h-23.1v69.4H656v69.4h23.1V919h23.1v-23.1h23.1v-23.1h23.1v-23.1h23.1v-23.1h46.2v-23.1H841v-23.1h23.1v-23.1h46.2v-23.1h46.2v-23.1h23.1v-46.2h23.1v-23.1h-46.1v-.2zM794.8 780.3v-23.1h23.1v23.1h-23.1z"/><path d="M1002.8 618.5h23.1v23.1h-23.1v-23.1zm0 92.4V734h-46.2v23.1h-46.2v23.1h-46.2v23.1H841v23.1h-23.1v23.1h-46.2v23.1h-23.1v23.1h-23.1V919h-23.1v23.1h-23.1v23.1H656v23.1h23.1v23.1H656v46.2h370v-393h-23.1l-.1 46.3zM841 919h115.6v23.1H841V919zm92.5 115.6H841v-69.4h115.6v69.4h-23.1zM239.9 664.7h-23.1v138.7h23.1v-23.1H263V641.6h-23.1v23.1zm832.3 0v-23.1h-23.1v138.7h23.1v23.1h23.1V664.7h-23.1z"/></g><g fill="#141b30"><path d="M378.6 757.2h23.1v-23.1h-46.2v23.1h23.1z"/><path d="M401.7 757.2h23.1v23.1h-23.1v-23.1zm46.3 46.2h23.1v-23.1h-46.2v23.1H448z"/><path d="M494.2 826.5h23.1v-23.1h-46.2v23.1h23.1zm-92.5 115.6h69.4V919H355.5v23.1h46.2zm161.9-69.3h23.1v23.1h-23.1v-23.1zm393-115.6v-23.1h-46.2v23.1h46.2z"/><path d="M910.4 780.3v-23.1h-46.2v23.1h46.2zm-69.4 0h23.1v23.1H841v-23.1zm-23.1 69.4v-23.1h-46.2v23.1h46.2zm69.3 92.4h69.4V919H841v23.1h46.2zm-161.8-69.3h23.1v23.1h-23.1v-23.1z"/><path d="M817.9 803.4H841v23.1h-23.1v-23.1zM679.2 919h23.1v23.1h-23.1V919z"/><path d="M702.3 895.9h23.1V919h-23.1v-23.1zm-115.6 0h23.1V919h-23.1v-23.1zm208.1-138.7h23.1v23.1h-23.1v-23.1zm-277.5 69.3h23.1v23.1h-23.1v-23.1zm-23.1-69.3h23.1v23.1h-23.1v-23.1zm-92.5 277.4h69.4v-69.4H355.5v69.4h46.2zm485.5 0h69.4v-69.4H841v69.4h46.2zm-578-323.7V734h46.2v-23.1h-23.1v-46.2h-23.1v46.2zm693.6 23.2v-69.4h-23.1v46.2h-23.1V734h23.1l23.1.1zM540.4 849.7h23.1v23.1h-23.1v-23.1zm208.1 0h23.1v23.1h-23.1v-23.1zM216.8 641.6h23.1v23.1h-23.1v-23.1z"/><path d="M216.8 780.3V664.7h-23.1v161.8h46.2v-23.1h-23.1v-23.1zm832.3 0V641.6h23.1v-23.1H1026v23.1h-23.1v23.1h23.1v393H656v-46.2h23.1v-23.1H656v-23.1h23.1v-23.1H656v-69.4h23.1v-92.5h23.1v-23.1h-92.5v23.1h23.1V919h-23.1v23.1h23.1v23.1h-23.1v23.1h23.1v23.1h-23.1v23.1h23.1v23.1H286.1v-393h23.1v-23.1h-23.1v-23.1h-46.2v23.1H263v138.7h-23.1v23.1H263V1127h92.5v-46.2h115.6v46.2h115.6v-46.2h138.7v46.2H841v-46.2h115.6v46.2h92.5V803.4h23.1v-23.1h-23.1z"/><path d="M1072.2,641.6h23.1v23.1h-23.1V641.6z"/><path d="M1095.3 664.7v138.7h-23.1v23.1h46.2V664.7h-23.1z"/></g><path d="M673.3 101.1h14.4v14.4h-14.4zm-14.4 86.7v28.9h14.4v-43.4h-14.4zm14.4-43.3h14.4v14.4h-14.4zm-43.3 0h14.4v14.4H630zM601.1 130h14.4v14.4h-14.4zm43.3-28.9h14.4v14.4h-14.4z" fill="#ffc8ff"/><g fill="#9a298b"><path d="M572.2 130h14.4v14.4h-14.4zm28.9 14.5h-14.4v28.8h14.4v-14.4z"/><path d="M615.5 173.3h-14.4v28.9h14.4v-14.4z"/><path d="M615.5 202.2h14.4v14.4h-14.4zm14.5 14.5h14.4v14.4H630z"/><path d="M644.4 231.1h14.4v14.4h-14.4zm72.2-86.6H731v14.4h-14.4zm-14.4 28.8h14.4v14.4h-14.4zm-28.9 43.4h14.4v14.4h-14.4z"/></g><path d="M687.7 101.1h14.4v14.4h-14.4zm14.5 28.9h14.4v14.4h-14.4zm-43.3-14.4h-14.5V130h43.3v-14.4h-14.4zM630 101.1h14.4v14.4H630zm28.9 130v14.5h14.4v-28.9h-14.4z" fill="#ff96ff"/><path d="M586.7 130h14.4v14.4h-14.4zm14.4 14.5h14.4v14.4h-14.4zm14.4 28.8h14.4v14.4h-14.4zm28.9 43.4h14.4v14.4h-14.4z" fill="#ff00be"/><g fill="#d700c1"><path d="M731.1 130h14.4v14.4h-14.4zm-28.9 57.8h14.4v14.4h-14.4zm-14.5 14.4h14.4v14.4h-14.4zm28.9-43.3H731v14.4h-14.4zm0-43.3H731V130h-14.4zM687.7 130h14.4v14.4h-14.4zm-28.8 14.5h14.4v14.4h-14.4zM630 130h14.4v14.4H630z"/><path d="M601.1 115.6h14.4V130h-14.4zm28.9 43.3v-14.4h-14.5v28.8H630v28.9h14.4v14.5h14.5v-57.8h-14.5z"/></g><g fill="#ff62ff"><path d="M731.1 115.6h14.4V130h-14.4zM716.6 130H731v14.4h-14.4z"/><path d="M702.2 115.6h-14.5V130h28.9v-14.4zm-14.5 28.9h14.4v14.4h-14.4z"/><path d="M658.9 130h-14.5v14.5h43.3V130h-14.4z"/><path d="M630 115.6h-14.5V130h28.9v-14.4zm-14.5 72.2h14.4v14.4h-14.4zm14.5 14.4h14.4v14.4H630zm-28.9-43.3h14.4v14.4h-14.4z"/></g><path d="M658.9 101.1h14.4v14.4h-14.4zm-14.5 43.4h14.4v14.4h-14.4zm14.5 14.4h14.4v14.4h-14.4zM615.5 130h14.4v14.4h-14.4zm-28.8-14.4h14.4V130h-14.4z" fill="#fff"/><g fill="#870075"><path d="M658.9 245.6h14.4V260h-14.4zM745.5 130h14.4v14.4h-14.4zm-14.4 28.9v14.4h14.4v-28.8h-14.4z"/><path d="M716.6 187.8v14.4h14.5v-28.9h-14.5z"/><path d="M702.2 202.2h14.4v14.4h-14.4zm-14.5 14.5h14.4v14.4h-14.4z"/><path d="M673.3 231.1h14.4v14.4h-14.4z"/></g><g fill="#f0f"><path d="M601.1 101.1h-14.4v14.5H630v-14.5h-14.5zm-28.9 14.5h14.4V130h-14.4z"/><path d="M702.2 158.9h-28.9v57.8h14.4v-14.5h14.5v-28.9h14.4v-28.8h-14.4zm-14.5-72.2H630v14.4h72.2V86.7z"/><path d="M731.1 101.1h-28.9v14.5h43.3v-14.5z"/><path d="M745.5 115.6h14.4V130h-14.4zM275.9 1398.8v77.5h-11v-33.2h-33.3v33.2h-11v-77.5h11v33.2h33.3v-33.2h11zm59.2 11h11v66.5h-11v-33.2h-33.3v33.2h-11v-66.5h11v22.2h33.3v-22.2zm0-11v11h-33.3v-11h33.3zm36.8 22.2h11.2v11h-11.2v44.3h-11v-77.5h11v22.2zm11.2 11h11v11.2h-11V1432zm22.2-33.2h11v77.5h-11v-22.2h-11.2v-11h11.2v-44.3zm36.9 11v55.5h33.3v11h-44.3v-77.5h44.3v11h-33.3zm33.3 0h11v55.5h-11v-55.5z"/><use xlink:href="#B"/><path d="M571.6 1409.8h11v55.5h-11v-55.5zm44.3-11v11h-33.3v-11h33.3zm-33.3 77.5v-11h33.3v11h-33.3zm33.3-66.5h11v55.5h-11v-55.5zm36.9 0H664v11.2h-11.2v55.3h-11v-77.5h11v11zM664 1421h11v11h-11v-11zm11 22.1V1432h11.2v11.2H675zm11.1-11.1v-11h11v11h-11zm22.2-33.2h11v77.5h-11V1421h-11.2v-11.2h11.2v-11zm36.9 11v22.2h44.3v11.2h-44.3v22.2h44.3v11h-55.3v-77.5h55.3v11h-44.3z"/><use xlink:href="#B" x="351.2"/><path d="M922.8 1398.8h11v66.5h-11v-66.5zm11 77.5v-11h33.3v11h-33.3zm33.3-77.5h11v66.5h-11v-66.5zm48.1 11v55.5h11v11H993v-11h11v-55.5h-11v-11h33.2v11h-11zm81.2 0h-22.2v66.5h-11v-66.5H1041v-11h55.3v11zm-857-1117.3h11v55.3h-11v-55.3zm22.2 55.3V359h11v11h-11v-11h-11.2v-11.2h11.2zm11 11.2v-11.2h11.2V359h-11.2zm11.2-66.5h11v55.3h-11v-55.3zm70.2 11h11V370h-11v-33.2h-33.3V370h-11v-66.5h11v22.2H354v-22.2zm0-11v11h-33.3v-11H354zm81.2 66.5v11h-55.3v-77.5h11V359h44.3zm37-55.5V359h11v11H450v-11h11v-55.5h-11v-11h33.2v11h-11zm36.9 0V359h33.3v11h-44.3v-77.5h44.3v11h-33.3zm33.4 0h11V359h-11v-55.5zm85.1 0v22.2h44.3v11.2h-44.3V370h-11v-77.5h55.3v11h-44.3zm59.2 0h11V359h-11v-55.5zm44.3-11v11h-33.3v-11h33.3zM697.8 370v-11h33.3v11h-33.3zm33.3-66.5h11V359h-11v-55.5zm36.9 22.2h33.3v11.2h11V370h-11v-33.2H768V370h-11v-77.5h44.3v11H768v22.2zm44.3 0h-11v-22.2h11v22.2zm63.1-22.2h11V359h-11v-55.5zm44.3-11v11h-33.3v-11h33.3zM886.4 370v-11h33.3v11h-33.3zm33.3-66.5h11V359h-11v-55.5zm36.9 11.2h11.2v11h-11.2V370h-11v-77.5h11v22.2zm11.2 11h11v11.2h-11v-11.2zm22.1-33.2h11V370h-11v-22.2h-11.2v-11h11.2v-44.3zm36.9 11v22.2h44.3v11.2h-44.3V359h44.3v11h-55.3v-77.5h55.3v11h-44.3z"/></g><defs ><path id="B" d="M501.4 1409.8h11v22.2h-11v-22.2zm0 66.5v-11h44.3v11h-44.3zm55.3-77.5v11h-44.3v-11h44.3zm-11 44.3h-33.3V1432h33.3v11.1zm11 22.2h-11v-22.2h11v22.2z"/></defs></svg>