<svg width="1330" height="1734" viewBox="0 0 1330 1734" fill="none" xmlns="http://www.w3.org/2000/svg">
<path d="M1271.6 57.8V0H1213.8V57.8H1156V0H1098.2V57.8H1040.4V0H982.6V57.8H924.8V0H867V57.8H809.2V0H751.4V57.8H693.6V0H635.8V57.8H578V0H520.2V57.8H462.4V0H404.6V57.8H346.8V0H289V57.8H231.2V0H173.4V57.8H115.6V0H57.8V57.8H0V1734H57.8V1676.2H115.6V1734H173.4V1676.2H231.2V1734H289V1676.2H346.8V1734H404.6V1676.2H462.4V1734H520.2V1676.2H578V1734H635.8V1676.2H693.6V1734H751.4V1676.2H809.2V1734H867V1676.2H924.8V1734H982.6V1676.2H1040.4V1734H1098.2V1676.2H1156V1734H1213.8V1676.2H1271.6V1734H1329.4V57.8H1271.6Z" fill="#FF96FF"/>
<path d="M1156 173.4H1184.9V202.3H1156V173.4ZM1156 1531.7H1184.9V1560.6H1156V1531.7Z" fill="#FF00FF"/>
<path d="M1184.9 202.3V404.6H144.5V202.3H115.6V1531.7H144.5V1329.4H1184.9V1531.7H1213.8V202.3H1184.9ZM1184.9 1300.5H144.5V433.5H1184.9V1300.5ZM1156 173.4V144.5H173.4V173.4H1156Z" fill="#FF00FF"/>
<path d="M144.5 173.4H173.4V202.3H144.5V173.4ZM144.5 1531.7H173.4V1560.6H144.5V1531.7Z" fill="#FF00FF"/>
<path d="M173.4 1560.6V1589.5H1156V1560.6H173.4Z" fill="#FF00FF"/>
<path d="M144.5 1329.4V1531.7H173.4V1560.6H1156V1531.7H1184.9V1329.4H144.5ZM1156 202.3V173.4H173.4V202.3H144.5V404.6H1184.9V202.3H1156ZM144.5 433.5V1300.5H1184.9V433.5H144.5Z" fill="white"/>
<path d="M673.3 101.1H687.7V115.5H673.3V101.1ZM658.9 187.8V216.7H673.3V173.3H658.9V187.8ZM673.3 144.5H687.7V158.9H673.3V144.5ZM630 144.5H644.4V158.9H630V144.5ZM601.1 130H615.5V144.4H601.1V130ZM644.4 101.1H658.8V115.5H644.4V101.1Z" fill="#FFC8FF"/>
<path d="M572.2 130H586.6V144.4H572.2V130ZM601.1 144.5H586.7V173.3H601.1V144.5Z" fill="#9A298B"/>
<path d="M615.5 173.3H601.1V202.2H615.5V173.3Z" fill="#9A298B"/>
<path d="M615.5 202.2H629.9V216.6H615.5V202.2ZM630 216.7H644.4V231.1H630V216.7Z" fill="#9A298B"/>
<path d="M644.4 231.1H658.8V245.5H644.4V231.1ZM716.6 144.5H731V158.9H716.6V144.5ZM702.2 173.3H716.6V187.7H702.2V173.3ZM673.3 216.7H687.7V231.1H673.3V216.7Z" fill="#9A298B"/>
<path d="M687.7 101.1H702.1V115.5H687.7V101.1ZM702.2 130H716.6V144.4H702.2V130ZM658.9 115.6H644.4V130H687.7V115.6H658.9ZM630 101.1H644.4V115.5H630V101.1ZM658.9 231.1V245.6H673.3V216.7H658.9V231.1Z" fill="#FF96FF"/>
<path d="M586.7 130H601.1V144.4H586.7V130ZM601.1 144.5H615.5V158.9H601.1V144.5ZM615.5 173.3H629.9V187.7H615.5V173.3ZM644.4 216.7H658.8V231.1H644.4V216.7Z" fill="#FF00BE"/>
<path d="M731.1 130H745.5V144.4H731.1V130ZM702.2 187.8H716.6V202.2H702.2V187.8ZM687.7 202.2H702.1V216.6H687.7V202.2ZM716.6 158.9H731V173.3H716.6V158.9ZM716.6 115.6H731V130H716.6V115.6ZM687.7 130H702.1V144.4H687.7V130ZM658.9 144.5H673.3V158.9H658.9V144.5ZM630 130H644.4V144.4H630V130Z" fill="#D700C1"/>
<path d="M601.1 115.6H615.5V130H601.1V115.6ZM630 158.9V144.5H615.5V173.3H630V202.2H644.4V216.7H658.9V158.9H630Z" fill="#D700C1"/>
<path d="M731.1 115.6H745.5V130H731.1V115.6ZM716.6 130H731V144.4H716.6V130Z" fill="#FF62FF"/>
<path d="M702.2 115.6H687.7V130H716.6V115.6H702.2ZM687.7 144.5H702.1V158.9H687.7V144.5Z" fill="#FF62FF"/>
<path d="M658.9 130H644.4V144.5H687.7V130H658.9Z" fill="#FF62FF"/>
<path d="M630 115.6H615.5V130H644.4V115.6H630ZM615.5 187.8H629.9V202.2H615.5V187.8ZM630 202.2H644.4V216.6H630V202.2ZM601.1 158.9H615.5V173.3H601.1V158.9Z" fill="#FF62FF"/>
<path d="M658.9 101.1H673.3V115.5H658.9V101.1ZM644.4 144.5H658.8V158.9H644.4V144.5ZM658.9 158.9H673.3V173.3H658.9V158.9ZM615.5 130H629.9V144.4H615.5V130ZM586.7 115.6H601.1V130H586.7V115.6Z" fill="white"/>
<path d="M658.9 245.6H673.3V260H658.9V245.6ZM745.5 130H759.9V144.4H745.5V130ZM731.1 158.9V173.3H745.5V144.5H731.1V158.9Z" fill="#870075"/>
<path d="M716.6 187.8V202.2H731.1V173.3H716.6V187.8Z" fill="#870075"/>
<path d="M702.2 202.2H716.6V216.6H702.2V202.2ZM687.7 216.7H702.1V231.1H687.7V216.7Z" fill="#870075"/>
<path d="M673.3 231.1H687.7V245.5H673.3V231.1Z" fill="#870075"/>
<path d="M586.7 101.1V115.6H630V101.1H586.7ZM572.2 115.6H586.6V130H572.2V115.6Z" fill="#FF00FF"/>
<path d="M702.2 158.9H673.3V216.7H687.7V202.2H702.2V173.3H716.6V144.5H702.2V158.9ZM630 86.7002V101.1H702.2V86.7002H630Z" fill="#FF00FF"/>
<path d="M702.2 101.1V115.6H745.5V101.1H702.2Z" fill="#FF00FF"/>
<path d="M745.5 115.6H759.9V130H745.5V115.6ZM239.4 292.5H250.4V347.8H239.4V292.5ZM261.6 347.8V359H272.6V370H261.6V359H250.4V347.8H261.6ZM272.6 359V347.8H283.8V359H272.6ZM283.8 292.5H294.8V347.8H283.8V292.5ZM354 303.5H365V370H354V336.8H320.7V370H309.7V303.5H320.7V325.7H354V303.5ZM354 292.5V303.5H320.7V292.5H354ZM435.2 359V370H379.9V292.5H390.9V359H435.2ZM472.2 303.5V359H483.2V370H450V359H461V303.5H450V292.5H483.2V303.5H472.2ZM509.1 303.5V359H542.4V370H498.1V292.5H542.4V303.5H509.1ZM542.5 303.5H553.5V359H542.5V303.5ZM627.6 303.5V325.7H671.9V336.9H627.6V370H616.6V292.5H671.9V303.5H627.6ZM686.8 303.5H697.8V359H686.8V303.5ZM731.1 292.5V303.5H697.8V292.5H731.1ZM697.8 370V359H731.1V370H697.8ZM731.1 303.5H742.1V359H731.1V303.5ZM768 325.7H801.3V336.9H812.3V370H801.3V336.8H768V370H757V292.5H801.3V303.5H768V325.7ZM812.3 325.7H801.3V303.5H812.3V325.7ZM875.4 303.5H886.4V359H875.4V303.5ZM919.7 292.5V303.5H886.4V292.5H919.7ZM886.4 370V359H919.7V370H886.4ZM919.7 303.5H930.7V359H919.7V303.5ZM956.6 314.7H967.8V325.7H956.6V370H945.6V292.5H956.6V314.7ZM967.8 325.7H978.8V336.9H967.8V325.7ZM989.9 292.5H1000.9V370H989.9V347.8H978.7V336.8H989.9V292.5ZM1026.8 303.5V325.7H1071.1V336.9H1026.8V359H1071.1V370H1015.8V292.5H1071.1V303.5H1026.8Z" fill="#FF00FF"/>
<path d="M510.7 823V801H466.7V779H444.7V757H422.7V735H400.7V713H378.7V691H356.7V669H334.7V647H312.7V625H268.7V647H246.7V669H224.7V823H246.7V933H268.7V1021H290.7V1087H598.7V823H510.7ZM664.7 867H686.7V889H664.7V867Z" fill="black"/>
<path d="M642.7 889H664.7V911H642.7V889ZM664.7 823H686.7V845H664.7V823Z" fill="black"/>
<path d="M642.7 845H664.7V867H642.7V845ZM642.7 801H664.7V823H642.7V801ZM1082.7 669V647H1060.7V625H1016.7V647H994.7V669H972.7V691H950.7V713H928.7V735H906.7V757H884.7V779H862.7V801H818.7V823H730.7V1087H1038.7V1021H1060.7V933H1082.7V823H1104.7V669H1082.7ZM664.7 911H686.7V933H664.7V911Z" fill="black"/>
<path d="M642.7 933H664.7V955H642.7V933Z" fill="black"/>
<path d="M664.7 955H686.7V977H664.7V955Z" fill="black"/>
<path d="M642.7 977H664.7V999H642.7V977Z" fill="black"/>
<path d="M664.7 999H686.7V1021H664.7V999Z" fill="black"/>
<path d="M642.7 1021H664.7V1043H642.7V1021Z" fill="black"/>
<path d="M664.7 1043H686.7V1065H664.7V1043Z" fill="black"/>
<path d="M642.7 1065H664.7V1087H642.7V1065Z" fill="black"/>
<path d="M664.7 1087H686.7V1109H664.7V1087Z" fill="black"/>
<path d="M290.7 1087H598.7V1109H290.7V1087ZM730.7 1087H1038.7V1109H730.7V1087ZM334.7 625H356.7V647H334.7V625ZM378.7 669H400.7V691H378.7V669Z" fill="#FF00FF"/>
<path d="M356.7 647H378.7V669H356.7V647ZM400.7 691H422.7V713H400.7V691Z" fill="#FF00FF"/>
<path d="M422.7 713H444.7V735H422.7V713ZM466.7 757H510.7V779H466.7V757ZM972.7 625H994.7V647H972.7V625Z" fill="#FF00FF"/>
<path d="M950.7 647H972.7V669H950.7V647Z" fill="#FF00FF"/>
<path d="M928.7 669H950.7V691H928.7V669ZM884.7 713H906.7V735H884.7V713Z" fill="#FF00FF"/>
<path d="M906.7 691H928.7V713H906.7V691ZM818.7 757H862.7V779H818.7V757Z" fill="#FF00FF"/>
<path d="M444.7 735H466.7V757H444.7V735ZM862.7 735H884.7V757H862.7V735ZM818.7 801V779H510.7V801H620.7V1109H642.7V801H686.7V1109H708.7V801H818.7ZM1104.7 691H1126.7V845H1104.7V691ZM202.7 691H224.7V845H202.7V691Z" fill="#FF00FF"/>
<path d="M356.7 669H378.7V691H356.7V669Z" fill="#00FFFF"/>
<path d="M334.7 647H356.7V669H334.7V647ZM400.7 713H422.7V735H400.7V713Z" fill="#00FFFF"/>
<path d="M378.7 691H400.7V713H378.7V691ZM950.7 669H972.7V691H950.7V669Z" fill="#00FFFF"/>
<path d="M972.7 647H994.7V669H972.7V647ZM906.7 713H928.7V735H906.7V713Z" fill="#00FFFF"/>
<path d="M928.7 691H950.7V713H928.7V691ZM708.7 801V1109H730.7V823H818.7V801H708.7ZM312.7 625H334.7V647H312.7V625ZM444.7 757H466.7V779H444.7V757Z" fill="#00FFFF"/>
<path d="M422.7 735H444.7V757H422.7V735ZM466.7 779H510.7V801H466.7V779ZM994.7 625H1016.7V647H994.7V625ZM862.7 757H884.7V779H862.7V757Z" fill="#00FFFF"/>
<path d="M884.7 735H906.7V757H884.7V735ZM818.7 779H862.7V801H818.7V779ZM664.7 889H686.7V911H664.7V889Z" fill="#00FFFF"/>
<path d="M642.7 867H664.7V889H642.7V867Z" fill="#00FFFF"/>
<path d="M664.7 845H686.7V867H664.7V845Z" fill="#00FFFF"/>
<path d="M642.7 823H664.7V845H642.7V823Z" fill="#00FFFF"/>
<path d="M664.7 801H686.7V823H664.7V801ZM510.7 801V823H598.7V1109H620.7V801H510.7ZM1126.7 691H1148.7V845H1126.7V691ZM180.7 691H202.7V845H180.7V691ZM642.7 911H664.7V933H642.7V911Z" fill="#00FFFF"/>
<path d="M664.7 933H686.7V955H664.7V933Z" fill="#00FFFF"/>
<path d="M642.7 955H664.7V977H642.7V955Z" fill="#00FFFF"/>
<path d="M664.7 977H686.7V999H664.7V977Z" fill="#00FFFF"/>
<path d="M642.7 999H664.7V1021H642.7V999Z" fill="#00FFFF"/>
<path d="M664.7 1021H686.7V1043H664.7V1021Z" fill="#00FFFF"/>
<path d="M642.7 1043H664.7V1065H642.7V1043ZM642.7 1087H664.7V1109H642.7V1087Z" fill="#00FFFF"/>
<path d="M664.7 1065H686.7V1087H664.7V1065Z" fill="#00FFFF"/>
<path d="M295.447 1481H254.263V1470.78H285.223V1439.82H295.447V1481ZM244.039 1419.22H254.263V1470.78H244.039V1419.22ZM295.447 1409V1419.22H254.263V1409H295.447ZM315.857 1470.78H357.041V1481H305.633V1409H315.857V1470.78ZM377.451 1419.22V1470.78H408.411V1481H367.227V1409H408.411V1419.22H377.451ZM408.411 1419.22H418.635V1470.78H408.411V1419.22ZM439.044 1429.59H449.412V1439.82H439.044V1481H428.82V1409H439.044V1429.59ZM449.412 1439.82H459.636V1450.18H449.412V1439.82ZM470.004 1409H480.228V1481H470.004V1460.41H459.636V1450.18H470.004V1409ZM490.414 1481V1460.41H500.638V1481H490.414ZM500.638 1460.41V1450.18H511.006V1460.41H500.638ZM511.006 1439.82H521.23V1450.18H511.006V1439.82ZM531.598 1460.41H521.23V1450.18H531.598V1460.41ZM541.822 1481H531.598V1460.41H541.822V1481ZM500.638 1429.59H511.006V1439.82H500.638V1429.59ZM490.414 1409H500.638V1429.59H490.414V1409ZM531.598 1429.59V1439.82H521.23V1429.59H531.598ZM541.822 1409V1429.59H531.598V1409H541.822ZM603.416 1439.82H593.192V1419.22H603.416V1439.82ZM562.232 1439.82H593.192V1450.18H603.416V1481H593.192V1450.18H562.232V1481H552.008V1409H593.192V1419.22H562.232V1439.82ZM623.826 1481V1470.78H654.786V1481H623.826ZM613.602 1419.22H623.826V1470.78H613.602V1419.22ZM654.786 1409V1419.22H623.826V1409H654.786ZM654.786 1419.22H665.01V1470.78H654.786V1419.22ZM675.195 1481V1470.78H716.379V1481H675.195ZM726.603 1470.78H716.379V1450.18H726.603V1470.78ZM716.379 1450.18H685.419V1439.82H716.379V1450.18ZM675.195 1419.22H685.419V1439.82H675.195V1419.22ZM726.603 1409V1419.22H685.419V1409H726.603ZM736.789 1481V1470.78H777.973V1481H736.789ZM788.197 1470.78H777.973V1450.18H788.197V1470.78ZM777.973 1450.18H747.013V1439.82H777.973V1450.18ZM736.789 1419.22H747.013V1439.82H736.789V1419.22ZM788.197 1409V1419.22H747.013V1409H788.197ZM890.994 1439.82H880.77V1419.22H890.994V1439.82ZM849.81 1439.82H880.77V1450.18H890.994V1481H880.77V1450.18H849.81V1481H839.586V1409H880.77V1419.22H849.81V1439.82ZM911.404 1481V1470.78H942.364V1481H911.404ZM901.18 1419.22H911.404V1470.78H901.18V1419.22ZM942.364 1409V1419.22H911.404V1409H942.364ZM942.364 1419.22H952.588V1470.78H942.364V1419.22ZM1014.18 1439.82H1003.96V1419.22H1014.18V1439.82ZM972.997 1439.82H1003.96V1450.18H972.997V1470.78H1003.96V1481H962.773V1409H1003.96V1419.22H972.997V1439.82ZM1014.18 1470.78H1003.96V1450.18H1014.18V1470.78ZM1075.78 1419.22H1034.59V1439.82H1075.78V1450.18H1034.59V1470.78H1075.78V1481H1024.37V1409H1075.78V1419.22Z" fill="#FF00FF"/>
</svg>
