<svg xmlns="http://www.w3.org/2000/svg" xmlns:xlink="http://www.w3.org/1999/xlink" viewBox="0 0 1329.3 1734" xmlns:v="https://vecta.io/nano"><path d="M1300.4 57.8h-28.9V0h-57.8v57.8h-57.8V0h-57.8v57.8h-57.8V0h-57.8v57.8h-57.8V0h-57.8v57.8h-57.8V0h-57.8v57.8h-57.8V0h-57.8v57.8h-57.8V0h-57.8v57.8h-57.8V0h-57.8v57.8h-57.7V0H289v57.8h-57.8V0h-57.8v57.8h-57.8V0H57.8v57.8H0V1734h57.8v-57.8h57.8v57.8h57.8v-57.8h57.8v57.8H289v-57.8h57.8v57.8h57.7v-57.8h57.8v57.8h57.8v-57.8h57.8v57.8h57.8v-57.8h57.8v57.8h57.8v-57.8h57.8v57.8h57.8v-57.8h57.8v57.8h57.8v-57.8h57.8v57.8h57.8v-57.8h57.8v57.8h57.8v-57.8h57.8v57.8h57.8V57.8z" fill="#59bcff"/><g fill="#0064ff"><path d="M1155.9 173.4h28.9v28.9h-28.9zm0 1358.3h28.9v28.9h-28.9z"/><path d="M1184.8 202.3v202.3H144.5V202.3h-28.9v1329.4h28.9v-202.3h1040.4v202.3h28.9V202.3h-29zm0 260.1v838.1H144.5v-867h1040.4l-.1 28.9zm-953.6-289h924.7v-28.9H173.4v28.9h28.9z"/><path d="M144.5 173.4h28.9v28.9h-28.9zm0 1358.3h28.9v28.9h-28.9z"/><path d="M1098.1 1560.6H173.4v28.9h982.5v-28.9H1127z"/></g><path d="M1127 1329.4H144.5v202.3h28.9v28.9h982.5v-28.9h28.9v-202.3h-28.9zm28.9-1127.1v-28.9H173.4v28.9h-28.9v202.3h1040.3V202.3zM1127 433.5H144.5v867h1040.3v-867h-28.9z" fill="#fff"/><g enable-background="new" fill="#0064ff"><path d="M246.5 296.1h10.3v51.6h-10.3v-51.6zm20.7 51.6v10.4h10.3v10.3h-10.3v-10.3h-10.4v-10.4h10.4zm10.3 10.4v-10.4h10.4v10.4h-10.4zm10.4-62h10.3v51.6h-10.3v-51.6zm68.7 10.3h10.3v62h-10.3v-30.9h-31.1v30.9h-10.3v-62h10.3v20.7h31.1v-20.7zm0-10.3v10.3h-31.1v-10.3h31.1zm79.1 62v10.3h-51.6v-72.2h10.3v62h41.3v-.1zm37.8-51.7v51.7h10.3v10.3h-30.9v-10.3h10.3v-51.7h-10.3v-10.3h30.9v10.3h-10.3zm37.7 0v51.7h31.1v10.3H501v-72.2h41.3v10.3h-31.1v-.1zm31.1 0h10.3v51.7h-10.3v-51.7zm86 0v20.7h41.3v10.4h-41.3v30.9H618v-72.2h51.6v10.3h-41.3v-.1zm58.5 0h10.3v51.7h-10.3v-51.7zm41.3-10.3v10.3H697v-10.3h31.1zm-31 72.3v-10.3h31.1v10.3h-31.1zm31-62h10.3v51.7h-10.3v-51.7zm37.7 20.6h31.1v10.4h10.3v30.9h-10.3v-30.9h-31.1v30.9h-10.3v-72.2h41.3v10.3h-31.1l.1 20.6zm41.4 0h-10.3v-20.7h10.3V327zm65.4-20.6h10.3v51.7h-10.3v-51.7zm41.4-10.3v10.3h-31.1v-10.3H914zm-31.1 72.3v-10.3H914v10.3h-31.1zm31.1-62h10.3v51.7H914v-51.7zm37.7 10.4h10.4v10.3h-10.4v41.3h-10.3v-72.2h10.3v20.6zm10.4 10.2h10.3v10.4h-10.3V327zm20.6-30.9H993v72.2h-10.3v-20.7h-10.4v-10.3h10.4v-41.2z"/><use xlink:href="#B"/></g><g enable-background="new" fill="#0064ff"><path d="M270.8 1411.9h-20.7v62h-10.3v-62h-20.7v-10.3h51.6v10.3h.1zm68.8-10.3v72.2h-10.3v-30.9h-31.1v30.9H288v-72.2h10.3v30.9h31.1v-30.9h10.2zm58.5 10.3h10.3v62h-10.3V1443H367v30.9h-10.3v-62H367v20.7h31.1v-20.7zm0-10.3v10.3H367v-10.3h31.1zm68.8 10.3h10.3v62h-10.3V1443h-31.1v30.9h-10.3v-62h10.3v20.7h31.1v-20.7zm0-10.3v10.3h-31.1v-10.3h31.1zm27.4 0h10.3v51.6h-10.3v-51.6zm20.7 51.6v10.4h10.3v10.3H515v-10.3h-10.4v-10.4H515zm10.3 10.4v-10.4h10.4v10.4h-10.4zm10.4-62H546v51.6h-10.3v-51.6z"/><use xlink:href="#B" x="-447.1" y="1105.5"/><path d="M731.7 1401.6v72.2h-10.3v-30.9h-31.1v30.9H680v-72.2h10.3v30.9h31.1v-30.9h10.3z"/><use xlink:href="#B" x="-261.3" y="1105.5"/><path d="M869.3 1463.6v10.3h-51.6v-72.2H828v62h41.3v-.1zm27.5-51.7h10.4v10.4h-10.4v51.6h-10.3v-72.2h10.3v10.2zm10.4 10.4h10.3v10.3h-10.3v-10.3zm10.2 20.6v-10.4h10.4v10.4h-10.4zm10.4-10.4v-10.3h10.3v10.3h-10.3zm20.7-30.9h10.3v72.2h-10.3v-51.6h-10.4v-10.4h10.4v-10.2z"/><use xlink:href="#B" x="-34.3" y="1105.5"/><path d="M1096.3 1411.9h-20.7v62h-10.3v-62h-20.7v-10.3h51.6l.1 10.3z"/></g><g fill="#a73796"><path d="M423 677.4h44v-43.9h-87.9v43.9h22z"/><path d="M379.1 721.3v-43.9h-43.9v43.9h43.9zm131.8-87.8h43.9v-43.9H467v43.9h43.9zm87.9-44h175.7v-43.9H554.9v43.9h43.9zm351.4 131.8h43.9v-43.9h-43.9v43.9zm-175.7-87.8h87.9v-43.9h-87.9v43.9z"/><path d="M862.3 677.4h87.9v-43.9h-87.9v43.9z"/></g><path d="M972.1 984.9h-22v87.9H994v-87.9h-21.9zm-636.9 0v87.9h43.9v-87.9h-43.9z" fill="#ffc500"/><g fill="#8e9397"><path d="M972.1 831.1h-65.9V677.4h-43.9v153.7H730.5V589.5h-43.9v241.6h-43.9V589.5h-43.9v241.6H467V677.4h-44v153.7h-87.9v153.7H379v-65.9h571.1v65.9H994V831.1h-21.9z"/><path d="M862.3 633.5h-43.9v43.9h43.9v-43.9zm-351.4 43.9v-43.9H467v43.9h43.9z"/></g><path d="M1082 721.3v-43.9h-44v43.9h44z"/><path d="M1038 897V721.3h-43.9v-43.9h-43.9v-43.9h-87.9v43.9h43.9v153.7h87.9v241.6h43.9V940.9h43.9V897H1038zm44-87.8v87.9h43.9v-87.9H1082z"/><path d="M1147.8 633.5H1082v43.9h43.9v131.8h43.9V633.5h-22zm-680.8 0h-87.9v43.9h-43.9v43.9h-43.9V897h-43.9v43.9h43.9v131.8h43.9V831.1h87.9V677.4H467v-43.9z"/><path d="M818.4 677.4v-43.9h43.9v-43.9h-87.9v-43.9H554.8v43.9H467v43.9h43.9v43.9H467v153.7h131.8V589.5h43.9v241.6h43.9V589.5h43.9v241.6h131.8V677.4h-43.9zm-571.1 43.9h43.9v-43.9h-43.9v43.9zm0 131.8v-43.9h-43.9v87.9h43.9v-44z"/><path d="M203.4 765.3v-87.9h43.9v-43.9h-87.9v175.7h43.9v-43.9h.1z"/><path d="M1103.9 677.4h-22v43.9H1038V897h43.9v-87.9h43.9V677.3h-21.9v.1zm-856.6 43.9v-43.9h-43.9v131.8h43.9v87.9h43.9V721.4h-43.9v-.1z" fill="#fff"/><g fill="#0b0072"><path d="M693.6 115.6v-14.4h-14.5v43.3h14.5v-14.4z"/><path d="M708 144.5h-14.4v28.9H708V159z"/><path d="M708 173.4v43.4h14.5v-43.4z"/><path d="M693.6 216.8h14.5v14.5h-14.5z"/><path d="M664.6 231.2h-28.9v14.5h57.9v-14.5h-14.5z"/></g><g fill="#1000a3"><path d="M635.7 115.6v28.9h14.5v-43.3h-14.5zm-28.9 72.3v28.9h14.5v-43.4h-14.5z"/><path d="M621.3 216.8h14.5v14.5h-14.5zm0-57.8v14.4h14.4v-28.9h-14.4zm28.9-72.3v14.5h28.9V86.7z"/></g><path d="M650.2 159h14.5v14.5h-14.5zm28.9 57.8h14.5v14.5h-14.5z" fill="#fff"/><g fill="#59bcff"><path d="M664.6 144.5v-14.4h-14.4V159h14.4z"/><path d="M664.6 159h14.5v14.5h-14.5z"/><path d="M650.2 173.4h14.5v14.5h-14.5zm0 43.4v14.4h28.9v-14.4h-14.5z"/><path d="M693.6 187.9v28.9H708v-28.9zM635.7 159h14.5v14.5h-14.5z"/></g><g fill="#00f"><path d="M679.1 115.6v-14.4h-14.5v28.9h14.5zm-43.4 57.8h-14.4v28.9h14.4v-14.4z"/><path d="M679.1 144.5v57.8h-43.4v14.5h57.9v-72.3z"/></g><g fill="#0080ff"><path d="M650.2 187.9h14.5v14.5h-14.5zm-28.9 14.4h14.5v14.5h-14.5z"/><path d="M635.7 216.8h14.5v14.5h-14.5zm0-72.3h14.5V159h-14.5zm28.9 0h14.5V159h-14.5zm0 28.9h14.5v14.5h-14.5zm29 0h14.5v14.5h-14.5zm-57.9 0h14.5v14.5h-14.5zm14.5-57.8h14.5v14.5h-14.5z"/></g><path d="M664.6 130.1h14.5v14.5h-14.5zm0 57.8h14.5v14.5h-14.5zm-28.9 0h14.5v14.5h-14.5zm14.5-86.7h14.5v14.5h-14.5z" fill="#0064ff"/><defs ><path id="B" d="M1020.5 306.4v20.7h41.3v10.4h-41.3v20.7h41.3v10.3h-51.6v-72.2h51.6v10.3h-41.3v-.2z"/></defs></svg>