<svg width="103" height="103" viewBox="0 0 103 103" fill="none" xmlns="http://www.w3.org/2000/svg">
<path d="M86.9062 6.4375H85.2969V4.82812V3.21875H83.6875H82.0781V4.82812V6.4375H80.4688H78.8594V4.82812V3.21875H77.25H75.6406V4.82812V6.4375H74.0312H72.4219V4.82812V3.21875H70.8125H69.2031V4.82812V6.4375H67.5938H65.9844V4.82812V3.21875H64.375H62.7656V4.82812V6.4375H61.1562H59.5469V4.82812V3.21875H57.9375H56.3281V4.82812V6.4375H54.7188H53.1094V4.82812V3.21875H51.5H49.8906V4.82812V6.4375H48.2812H46.6719V4.82812V3.21875H45.0625H43.4531V4.82812V6.4375H41.8438H40.2344V4.82812V3.21875H38.625H37.0156V4.82812V6.4375H35.4062H33.7969V4.82812V3.21875H32.1875H30.5781V4.82812V6.4375H28.9688H27.3594V4.82812V3.21875H25.75H24.1406V4.82812V6.4375H22.5312H20.9219V4.82812V3.21875H19.3125H17.7031V4.82812V6.4375H16.0938H14.4844V8.04688V9.65625V11.2656V12.875V14.4844V16.0938V17.7031V19.3125V20.9219V22.5312V24.1406V25.75V27.3594V28.9688V30.5781V32.1875V33.7969V35.4062V37.0156V38.625V40.2344V41.8438V43.4531V45.0625V46.6719V48.2812V49.8906V51.5V53.1094V54.7188V56.3281V57.9375V59.5469V61.1562V62.7656V64.375V65.9844V67.5938V69.2031V70.8125V72.4219V74.0312V75.6406V77.25V78.8594V80.4688V82.0781V83.6875V85.2969V86.9062V88.5156V90.125V91.7344V93.3438V94.9531V96.5625V98.1719V99.7812H16.0938H17.7031V98.1719V96.5625H19.3125H20.9219V98.1719V99.7812H22.5312H24.1406V98.1719V96.5625H25.75H27.3594V98.1719V99.7812H28.9688H30.5781V98.1719V96.5625H32.1875H33.7969V98.1719V99.7812H35.4062H37.0156V98.1719V96.5625H38.625H40.2344V98.1719V99.7812H41.8438H43.4531V98.1719V96.5625H45.0625H46.6719V98.1719V99.7812H48.2812H49.8906V98.1719V96.5625H51.5H53.1094V98.1719V99.7812H54.7188H56.3281V98.1719V96.5625H57.9375H59.5469V98.1719V99.7812H61.1562H62.7656V98.1719V96.5625H64.375H65.9844V98.1719V99.7812H67.5938H69.2031V98.1719V96.5625H70.8125H72.4219V98.1719V99.7812H74.0312H75.6406V98.1719V96.5625H77.25H78.8594V98.1719V99.7812H80.4688H82.0781V98.1719V96.5625H83.6875H85.2969V98.1719V99.7812H86.9062H88.5156V98.1719V96.5625V94.9531V93.3438V91.7344V90.125V88.5156V86.9062V85.2969V83.6875V82.0781V80.4688V78.8594V77.25V75.6406V74.0312V72.4219V70.8125V69.2031V67.5938V65.9844V64.375V62.7656V61.1562V59.5469V57.9375V56.3281V54.7188V53.1094V51.5V49.8906V48.2812V46.6719V45.0625V43.4531V41.8438V40.2344V38.625V37.0156V35.4062V33.7969V32.1875V30.5781V28.9688V27.3594V25.75V24.1406V22.5312V20.9219V19.3125V17.7031V16.0938V14.4844V12.875V11.2656V9.65625V8.04688V6.4375H86.9062Z" fill="#59BCFF"/>
<path d="M80.4688 12.875H78.8594V14.4844H80.4688V12.875Z" fill="#0064FF"/>
<path d="M80.4688 88.5156H78.8594V90.125H80.4688V88.5156Z" fill="#0064FF"/>
<path d="M80.4688 14.4844V16.0938V17.7031V19.3125V20.9219V22.5312V24.1406V25.75H78.8594H77.25H75.6406H74.0312H72.4219H70.8125H69.2031H67.5938H65.9844H64.375H62.7656H61.1562H59.5469H57.9375H56.3281H54.7188H53.1094H51.5H49.8906H48.2812H46.6719H45.0625H43.4531H41.8438H40.2344H38.625H37.0156H35.4062H33.7969H32.1875H30.5781H28.9688H27.3594H25.75H24.1406H22.5312V24.1406V22.5312V20.9219V19.3125V17.7031V16.0938V14.4844H20.9219V16.0938V17.7031V19.3125V20.9219V22.5312V24.1406V25.75V27.3594V28.9688V30.5781V32.1875V33.7969V35.4062V37.0156V38.625V40.2344V41.8438V43.4531V45.0625V46.6719V48.2812V49.8906V51.5V53.1094V54.7188V56.3281V57.9375V59.5469V61.1562V62.7656V64.375V65.9844V67.5938V69.2031V70.8125V72.4219V74.0312V75.6406V77.25V78.8594V80.4688V82.0781V83.6875V85.2969V86.9062V88.5156H22.5312V86.9062V85.2969V83.6875V82.0781V80.4688V78.8594V77.25H24.1406H25.75H27.3594H28.9688H30.5781H32.1875H33.7969H35.4062H37.0156H38.625H40.2344H41.8438H43.4531H45.0625H46.6719H48.2812H49.8906H51.5H53.1094H54.7188H56.3281H57.9375H59.5469H61.1562H62.7656H64.375H65.9844H67.5938H69.2031H70.8125H72.4219H74.0312H75.6406H77.25H78.8594H80.4688V78.8594V80.4688V82.0781V83.6875V85.2969V86.9062V88.5156H82.0781V86.9062V85.2969V83.6875V82.0781V80.4688V78.8594V77.25V75.6406V74.0312V72.4219V70.8125V69.2031V67.5938V65.9844V64.375V62.7656V61.1562V59.5469V57.9375V56.3281V54.7188V53.1094V51.5V49.8906V48.2812V46.6719V45.0625V43.4531V41.8438V40.2344V38.625V37.0156V35.4062V33.7969V32.1875V30.5781V28.9688V27.3594V25.75V24.1406V22.5312V20.9219V19.3125V17.7031V16.0938V14.4844H80.4688ZM80.4688 28.9688V30.5781V32.1875V33.7969V35.4062V37.0156V38.625V40.2344V41.8438V43.4531V45.0625V46.6719V48.2812V49.8906V51.5V53.1094V54.7188V56.3281V57.9375V59.5469V61.1562V62.7656V64.375V65.9844V67.5938V69.2031V70.8125V72.4219V74.0312V75.6406H78.8594H77.25H75.6406H74.0312H72.4219H70.8125H69.2031H67.5938H65.9844H64.375H62.7656H61.1562H59.5469H57.9375H56.3281H54.7188H53.1094H51.5H49.8906H48.2812H46.6719H45.0625H43.4531H41.8438H40.2344H38.625H37.0156H35.4062H33.7969H32.1875H30.5781H28.9688H27.3594H25.75H24.1406H22.5312V74.0312V72.4219V70.8125V69.2031V67.5938V65.9844V64.375V62.7656V61.1562V59.5469V57.9375V56.3281V54.7188V53.1094V51.5V49.8906V48.2812V46.6719V45.0625V43.4531V41.8438V40.2344V38.625V37.0156V35.4062V33.7969V32.1875V30.5781V28.9688V27.3594H24.1406H25.75H27.3594H28.9688H30.5781H32.1875H33.7969H35.4062H37.0156H38.625H40.2344H41.8438H43.4531H45.0625H46.6719H48.2812H49.8906H51.5H53.1094H54.7188H56.3281H57.9375H59.5469H61.1562H62.7656H64.375H65.9844H67.5938H69.2031H70.8125H72.4219H74.0312H75.6406H77.25H78.8594H80.4688V28.9688Z" fill="#0064FF"/>
<path d="M27.3594 12.875H28.9688H30.5781H32.1875H33.7969H35.4062H37.0156H38.625H40.2344H41.8438H43.4531H45.0625H46.6719H48.2812H49.8906H51.5H53.1094H54.7188H56.3281H57.9375H59.5469H61.1562H62.7656H64.375H65.9844H67.5938H69.2031H70.8125H72.4219H74.0312H75.6406H77.25H78.8594V11.2656H77.25H75.6406H74.0312H72.4219H70.8125H69.2031H67.5938H65.9844H64.375H62.7656H61.1562H59.5469H57.9375H56.3281H54.7188H53.1094H51.5H49.8906H48.2812H46.6719H45.0625H43.4531H41.8438H40.2344H38.625H37.0156H35.4062H33.7969H32.1875H30.5781H28.9688H27.3594H25.75H24.1406V12.875H25.75H27.3594Z" fill="#0064FF"/>
<path d="M24.1406 12.875H22.5312V14.4844H24.1406V12.875Z" fill="#0064FF"/>
<path d="M24.1406 88.5156H22.5312V90.125H24.1406V88.5156Z" fill="#0064FF"/>
<path d="M75.6406 90.125H74.0312H72.4219H70.8125H69.2031H67.5938H65.9844H64.375H62.7656H61.1562H59.5469H57.9375H56.3281H54.7188H53.1094H51.5H49.8906H48.2812H46.6719H45.0625H43.4531H41.8438H40.2344H38.625H37.0156H35.4062H33.7969H32.1875H30.5781H28.9688H27.3594H25.75H24.1406V91.7344H25.75H27.3594H28.9688H30.5781H32.1875H33.7969H35.4062H37.0156H38.625H40.2344H41.8438H43.4531H45.0625H46.6719H48.2812H49.8906H51.5H53.1094H54.7188H56.3281H57.9375H59.5469H61.1562H62.7656H64.375H65.9844H67.5938H69.2031H70.8125H72.4219H74.0312H75.6406H77.25H78.8594V90.125H77.25H75.6406Z" fill="#0064FF"/>
<path d="M77.25 77.25H75.6406H74.0312H72.4219H70.8125H69.2031H67.5938H65.9844H64.375H62.7656H61.1562H59.5469H57.9375H56.3281H54.7188H53.1094H51.5H49.8906H48.2812H46.6719H45.0625H43.4531H41.8438H40.2344H38.625H37.0156H35.4062H33.7969H32.1875H30.5781H28.9688H27.3594H25.75H24.1406H22.5312V78.8594V80.4688V82.0781V83.6875V85.2969V86.9062V88.5156H24.1406V90.125H25.75H27.3594H28.9688H30.5781H32.1875H33.7969H35.4062H37.0156H38.625H40.2344H41.8438H43.4531H45.0625H46.6719H48.2812H49.8906H51.5H53.1094H54.7188H56.3281H57.9375H59.5469H61.1562H62.7656H64.375H65.9844H67.5938H69.2031H70.8125H72.4219H74.0312H75.6406H77.25H78.8594V88.5156H80.4688V86.9062V85.2969V83.6875V82.0781V80.4688V78.8594V77.25H78.8594H77.25Z" fill="white"/>
<path d="M78.8594 14.4844V12.875H77.25H75.6406H74.0312H72.4219H70.8125H69.2031H67.5938H65.9844H64.375H62.7656H61.1562H59.5469H57.9375H56.3281H54.7188H53.1094H51.5H49.8906H48.2812H46.6719H45.0625H43.4531H41.8438H40.2344H38.625H37.0156H35.4062H33.7969H32.1875H30.5781H28.9688H27.3594H25.75H24.1406V14.4844H22.5312V16.0938V17.7031V19.3125V20.9219V22.5312V24.1406V25.75H24.1406H25.75H27.3594H28.9688H30.5781H32.1875H33.7969H35.4062H37.0156H38.625H40.2344H41.8438H43.4531H45.0625H46.6719H48.2812H49.8906H51.5H53.1094H54.7188H56.3281H57.9375H59.5469H61.1562H62.7656H64.375H65.9844H67.5938H69.2031H70.8125H72.4219H74.0312H75.6406H77.25H78.8594H80.4688V24.1406V22.5312V20.9219V19.3125V17.7031V16.0938V14.4844H78.8594Z" fill="white"/>
<path d="M77.25 27.3594H75.6406H74.0312H72.4219H70.8125H69.2031H67.5938H65.9844H64.375H62.7656H61.1562H59.5469H57.9375H56.3281H54.7188H53.1094H51.5H49.8906H48.2812H46.6719H45.0625H43.4531H41.8438H40.2344H38.625H37.0156H35.4062H33.7969H32.1875H30.5781H28.9688H27.3594H25.75H24.1406H22.5312V28.9688V30.5781V32.1875V33.7969V35.4062V37.0156V38.625V40.2344V41.8438V43.4531V45.0625V46.6719V48.2812V49.8906V51.5V53.1094V54.7188V56.3281V57.9375V59.5469V61.1562V62.7656V64.375V65.9844V67.5938V69.2031V70.8125V72.4219V74.0312V75.6406H24.1406H25.75H27.3594H28.9688H30.5781H32.1875H33.7969H35.4062H37.0156H38.625H40.2344H41.8438H43.4531H45.0625H46.6719H48.2812H49.8906H51.5H53.1094H54.7188H56.3281H57.9375H59.5469H61.1562H62.7656H64.375H65.9844H67.5938H69.2031H70.8125H72.4219H74.0312H75.6406H77.25H78.8594H80.4688V74.0312V72.4219V70.8125V69.2031V67.5938V65.9844V64.375V62.7656V61.1562V59.5469V57.9375V56.3281V54.7188V53.1094V51.5V49.8906V48.2812V46.6719V45.0625V43.4531V41.8438V40.2344V38.625V37.0156V35.4062V33.7969V32.1875V30.5781V28.9688V27.3594H78.8594H77.25Z" fill="white"/>
<path d="M53.1094 9.65625V8.85156H52.3047V9.65625V10.4609V11.2656H53.1094V10.4609V9.65625Z" fill="#0B0072"/>
<path d="M53.9141 11.2656H53.1094V12.0703V12.875H53.9141V12.0703V11.2656Z" fill="#0B0072"/>
<path d="M53.9141 12.875V13.6797V14.4844V15.2891H54.7188V14.4844V13.6797V12.875H53.9141Z" fill="#0B0072"/>
<path d="M53.9141 15.2891H53.1094V16.0938H53.9141V15.2891Z" fill="#0B0072"/>
<path d="M51.5 16.0938H50.6953H49.8906V16.8984H50.6953H51.5H52.3047H53.1094V16.0938H52.3047H51.5Z" fill="#0B0072"/>
<path d="M49.8906 9.65625V10.4609V11.2656H50.6953V10.4609V9.65625V8.85156H49.8906V9.65625Z" fill="#1000A3"/>
<path d="M48.2812 13.6797V14.4844V15.2891H49.0859V14.4844V13.6797V12.875H48.2812V13.6797Z" fill="#1000A3"/>
<path d="M49.8906 15.2891H49.0859V16.0938H49.8906V15.2891Z" fill="#1000A3"/>
<path d="M49.0859 12.0703V12.875H49.8906V12.0703V11.2656H49.0859V12.0703Z" fill="#1000A3"/>
<path d="M51.5 8.04688H50.6953V8.85156H51.5H52.3047V8.04688H51.5Z" fill="#1000A3"/>
<path d="M51.5 12.0703H50.6953V12.875H51.5V12.0703Z" fill="white"/>
<path d="M53.1094 15.2891H52.3047V16.0938H53.1094V15.2891Z" fill="white"/>
<path d="M51.5 11.2656V10.4609H50.6953V11.2656V12.0703H51.5V11.2656Z" fill="#59BCFF"/>
<path d="M52.3047 12.0703H51.5V12.875H52.3047V12.0703Z" fill="#59BCFF"/>
<path d="M51.5 12.875H50.6953V13.6797H51.5V12.875Z" fill="#59BCFF"/>
<path d="M50.6953 15.2891V16.0938H51.5H52.3047V15.2891H51.5H50.6953Z" fill="#59BCFF"/>
<path d="M53.1094 13.6797V14.4844V15.2891H53.9141V14.4844V13.6797H53.1094Z" fill="#59BCFF"/>
<path d="M50.6953 12.0703H49.8906V12.875H50.6953V12.0703Z" fill="#59BCFF"/>
<path d="M52.3047 9.65625V8.85156H51.5V9.65625V10.4609H52.3047V9.65625Z" fill="#0000FF"/>
<path d="M49.8906 12.875H49.0859V13.6797V14.4844H49.8906V13.6797V12.875Z" fill="#0000FF"/>
<path d="M52.3047 11.2656V12.0703V12.875V13.6797V14.4844H51.5H50.6953H49.8906V15.2891H50.6953H51.5H52.3047H53.1094V14.4844V13.6797V12.875V12.0703V11.2656H52.3047Z" fill="#0000FF"/>
<path d="M51.5 13.6797H50.6953V14.4844H51.5V13.6797Z" fill="#0080FF"/>
<path d="M49.8906 14.4844H49.0859V15.2891H49.8906V14.4844Z" fill="#0080FF"/>
<path d="M50.6953 15.2891H49.8906V16.0938H50.6953V15.2891Z" fill="#0080FF"/>
<path d="M50.6953 11.2656H49.8906V12.0703H50.6953V11.2656Z" fill="#0080FF"/>
<path d="M52.3047 11.2656H51.5V12.0703H52.3047V11.2656Z" fill="#0080FF"/>
<path d="M52.3047 12.875H51.5V13.6797H52.3047V12.875Z" fill="#0080FF"/>
<path d="M53.9141 12.875H53.1094V13.6797H53.9141V12.875Z" fill="#0080FF"/>
<path d="M50.6953 12.875H49.8906V13.6797H50.6953V12.875Z" fill="#0080FF"/>
<path d="M51.5 9.65625H50.6953V10.4609H51.5V9.65625Z" fill="#0080FF"/>
<path d="M52.3047 10.4609H51.5V11.2656H52.3047V10.4609Z" fill="#0064FF"/>
<path d="M52.3047 13.6797H51.5V14.4844H52.3047V13.6797Z" fill="#0064FF"/>
<path d="M50.6953 13.6797H49.8906V14.4844H50.6953V13.6797Z" fill="#0064FF"/>
<path d="M51.5 8.85156H50.6953V9.65625H51.5V8.85156Z" fill="#0064FF"/>
<path d="M36.9537 18.6264V19.0584H37.3797V19.4844H36.9537V19.0584H36.5217V18.6264H36.9537ZM37.3797 19.0584V18.6264H37.8117V19.0584H37.3797ZM36.0957 16.4844H36.5217V18.6264H36.0957V16.4844ZM37.8117 16.4844H38.2377V18.6264H37.8117V16.4844ZM40.3781 16.4844V16.9104H39.0881V16.4844H40.3781ZM40.3781 16.9104H40.8041V19.4844H40.3781V18.2004H39.0881V19.4844H38.6621V16.9104H39.0881V17.7684H40.3781V16.9104ZM41.6545 19.0584H43.3705V19.4844H41.2285V16.4844H41.6545V19.0584ZM45.0789 16.9104H44.6529V19.0584H45.0789V19.4844H43.7949V19.0584H44.2209V16.9104H43.7949V16.4844H45.0789V16.9104ZM45.9319 16.9104V19.0584H47.2219V19.4844H45.5059V16.4844H47.2219V16.9104H45.9319ZM47.2219 16.9104H47.6479V19.0584H47.2219V16.9104ZM51.9311 16.9104H50.2151V17.7684H51.9311V18.2004H50.2151V19.4844H49.7891V16.4844H51.9311V16.9104ZM52.7815 19.4844V19.0584H54.0715V19.4844H52.7815ZM52.3555 16.9104H52.7815V19.0584H52.3555V16.9104ZM54.0715 16.4844V16.9104H52.7815V16.4844H54.0715ZM54.0715 16.9104H54.4975V19.0584H54.0715V16.9104ZM57.0639 17.7684H56.6379V16.9104H57.0639V17.7684ZM55.3479 17.7684H56.6379V18.2004H57.0639V19.4844H56.6379V18.2004H55.3479V19.4844H54.9219V16.4844H56.6379V16.9104H55.3479V17.7684ZM59.6311 19.4844V19.0584H60.9211V19.4844H59.6311ZM59.2051 16.9104H59.6311V19.0584H59.2051V16.9104ZM60.9211 16.4844V16.9104H59.6311V16.4844H60.9211ZM60.9211 16.9104H61.3471V19.0584H60.9211V16.9104ZM62.1975 17.3424H62.6295V17.7684H62.1975V19.4844H61.7715V16.4844H62.1975V17.3424ZM62.6295 17.7684H63.0555V18.2004H62.6295V17.7684ZM63.4875 16.4844H63.9135V19.4844H63.4875V18.6264H63.0555V18.2004H63.4875V16.4844ZM66.4799 16.9104H64.7639V17.7684H66.4799V18.2004H64.7639V19.0584H66.4799V19.4844H64.3379V16.4844H66.4799V16.9104Z" fill="#0064FF"/>
<path d="M39.5158 79.676H39.9478V80.108H39.5158V82.25H39.0898V79.25H39.5158V79.676ZM39.9478 80.108H40.3738V80.534H39.9478V80.108ZM40.3738 80.966V80.534H40.8058V80.966H40.3738ZM40.8058 80.534V80.108H41.2318V80.534H40.8058ZM41.6638 79.25H42.0898V82.25H41.6638V80.108H41.2318V79.676H41.6638V79.25ZM44.2336 79.25V79.676H42.9436V79.25H44.2336ZM44.2336 79.676H44.6596V82.25H44.2336V80.966H42.9436V82.25H42.5176V79.676H42.9436V80.534H44.2336V79.676ZM47.226 80.534H46.8V79.676H47.226V80.534ZM45.51 80.534H46.8V80.966H47.226V82.25H46.8V80.966H45.51V82.25H45.084V79.25H46.8V79.676H45.51V80.534ZM48.9344 79.676H48.5084V81.824H48.9344V82.25H47.6504V81.824H48.0764V79.676H47.6504V79.25H48.9344V79.676ZM49.7873 80.108H50.2193V80.534H49.7873V82.25H49.3613V79.25H49.7873V80.108ZM50.2193 80.534H50.6453V80.966H50.2193V80.534ZM51.0773 79.25H51.5033V82.25H51.0773V81.392H50.6453V80.966H51.0773V79.25ZM54.0697 79.676H52.3537V80.534H54.0697V80.966H52.3537V81.824H54.0697V82.25H51.9277V79.25H54.0697V79.676ZM58.3529 82.25H56.6369V81.824H58.3529V82.25ZM56.2109 79.676H56.6369V81.824H56.2109V79.676ZM58.3529 79.25V79.676H56.6369V79.25H58.3529ZM60.4933 79.25V79.676H59.2033V79.25H60.4933ZM60.4933 79.676H60.9193V82.25H60.4933V80.966H59.2033V82.25H58.7773V79.676H59.2033V80.534H60.4933V79.676ZM61.7698 79.676V80.534H63.0598V80.966H61.7698V82.25H61.3438V79.25H63.0598V79.676H61.7698ZM63.0598 79.676H63.4858V80.534H63.0598V79.676Z" fill="#0064FF"/>
<g clip-path="url(#clip0)">
<path d="M45.3635 48.8268V50.1004V51.3738H46.6711H47.9786V50.1004V48.8268H46.6711H45.3635Z" fill="#092C1B"/>
<path d="M42.7483 51.3739V52.6475V53.9209H44.056H45.3635V52.6475V51.3739H44.056H42.7483Z" fill="#092C1B"/>
<path d="M40.1332 56.4679H38.8257H37.5181V57.7415V59.0149H38.8257H40.1332V57.7415V56.4679Z" fill="#092C1B"/>
<path d="M40.1332 53.9209V55.1945V56.4679H41.4408H42.7483V55.1945V53.9209H41.4408H40.1332Z" fill="#092C1B"/>
<path d="M71.5149 57.7416V59.015H72.8224H74.13V57.7416H72.8224H71.5149Z" fill="#092C1B"/>
<path d="M36.2106 41.1858H37.5181V39.9122H36.2106H34.903V41.1858V42.4593H36.2106V41.1858Z" fill="#092C1B"/>
<path d="M33.5954 43.7329H34.903V42.4594H33.5954H32.2878V43.7329V45.0064H33.5954V43.7329Z" fill="#092C1B"/>
<path d="M30.9803 46.2799H32.2878V45.0063H30.9803H29.6727V46.2799V47.5534H30.9803V46.2799Z" fill="#092C1B"/>
<path d="M29.6727 48.8268V47.5533H28.3651V48.8268V50.1004H29.6727V48.8268Z" fill="#092C1B"/>
<path d="M28.3651 51.3739V50.1005H27.0576V51.3739V52.6475H28.3651V51.3739Z" fill="#092C1B"/>
<path d="M27.0576 66.6561V67.9296H28.3651V69.2032H29.6727V67.9296V66.6561H28.3651H27.0576Z" fill="#092C1B"/>
<path d="M27.0576 64.1091V62.8356V61.562V60.2886V59.015V57.7415V56.4679V55.1945V53.9209V52.6475H25.75V53.9209V55.1945V56.4679V57.7415V59.015V60.2886V61.562V62.8356V64.1091V65.3826V66.6561H27.0576V65.3826V64.1091Z" fill="#092C1B"/>
<path d="M29.6727 64.109V65.3826V66.656H30.9803H32.2878V65.3826V64.109H30.9803H29.6727Z" fill="#092C1B"/>
<path d="M32.2878 61.562V62.8355V64.1091H33.5954H34.903V62.8355V61.562H33.5954H32.2878Z" fill="#092C1B"/>
<path d="M34.903 59.015V60.2886V61.5621H36.2106H37.5181V60.2886V59.015H36.2106H34.903Z" fill="#092C1B"/>
<path d="M53.2089 41.1858V42.4593V43.7328H54.5165H55.824V42.4593V41.1858H54.5165H53.2089Z" fill="#092C1B"/>
<path d="M71.5149 39.9122H70.2072V41.1858H71.5149V39.9122Z" fill="#092C1B"/>
<path d="M38.8257 38.6388H40.1332V37.3652H38.8257H37.5181V38.6388V39.9123H38.8257V38.6388Z" fill="#092C1B"/>
<path d="M55.824 38.6388V39.9123V41.1858H57.1317H58.4392V39.9123V38.6388H57.1317H55.824Z" fill="#092C1B"/>
<path d="M42.7483 37.3652V36.0917H41.4408H40.1332V37.3652H41.4408H42.7483Z" fill="#092C1B"/>
<path d="M45.3635 36.0918H46.6711H47.9786H49.2862H50.5937H51.9014H53.2089H54.5165H55.824H57.1317H58.4392V37.3653V38.6388H59.7468H61.0543V37.3653V36.0918H62.3618H63.6694H64.9769V34.8182H63.6694H62.3618H61.0543H59.7468H58.4392H57.1317H55.824H54.5165H53.2089H51.9014H50.5937H49.2862H47.9786H46.6711H45.3635H44.056H42.7483V36.0918H44.056H45.3635Z" fill="#092C1B"/>
<path d="M66.2846 37.3652H67.5921V36.0917H66.2846H64.9769V37.3652H66.2846Z" fill="#092C1B"/>
<path d="M68.8997 37.3652H67.5921V38.6388H68.8997V37.3652Z" fill="#092C1B"/>
<path d="M70.2072 38.6388H68.8997V39.9123H70.2072V38.6388Z" fill="#092C1B"/>
<path d="M72.8224 41.1858H71.5149V42.4593H72.8224V41.1858Z" fill="#092C1B"/>
<path d="M74.13 55.1945V56.4679V57.7415H75.4375V56.4679V55.1945V53.9209H74.13V55.1945Z" fill="#092C1B"/>
<path d="M75.4375 47.5533V48.8268V50.1004V51.3739V52.6475V53.9209H76.7451V52.6475V51.3739V50.1004V48.8268V47.5533H75.4375Z" fill="#092C1B"/>
<path d="M50.5938 43.7328V45.0063V46.2798H51.9014H53.2089V45.0063V43.7328H51.9014H50.5938Z" fill="#092C1B"/>
<path d="M74.13 42.4594H72.8224V43.7329H74.13V42.4594Z" fill="#092C1B"/>
<path d="M74.13 46.2798V47.5533H75.4375V46.2798V45.0063V43.7328H74.13V45.0063V46.2798Z" fill="#092C1B"/>
<path d="M47.9786 46.2799V47.5534V48.8269H49.2863H50.5937V47.5534V46.2799H49.2863H47.9786Z" fill="#092C1B"/>
<path d="M40.1332 53.9209H41.4408H42.7483V52.6474V51.3738H44.056H45.3635V50.1004V48.8268H46.6711H47.9786V47.5533V46.2798H49.2862H50.5937V45.0063V43.7328H51.9014H53.2089V42.4593V41.1857H54.5165H55.824V39.9122V38.6387H57.1317H58.4392V37.3652V36.0917H57.1317H55.824H54.5165H53.2089H51.9014H50.5937H49.2862H47.9786H46.6711H45.3635H44.056H42.7483V37.3652H41.4408H40.1332V38.6387H38.8257V39.9122H37.5181V41.1857H36.2105V42.4593H34.903V43.7328H33.5954V45.0063H32.2878V46.2798H30.9802V47.5533H29.6727V48.8268V50.1004H28.3651V51.3738V52.6474H27.0576V53.9209V55.1945V56.4679V57.7415V59.015V60.2885V61.562V62.8354V64.109V65.3825V66.6561H28.3651H29.6727V65.3825V64.109H30.9802H32.2878V62.8354V61.562H33.5954H34.903V60.2885V59.015H36.2105H37.5181V57.7415V56.4679H38.8257H40.1332V55.1945V53.9209Z" fill="#283D2E"/>
<path d="M74.13 47.5533V46.2798V45.0063V43.7328H72.8224V42.4593H71.5149V41.1857H70.2072V39.9122H68.8997V38.6387H67.5921V37.3652H66.2846H64.9769V36.0917H63.6695H62.3618H61.0543V37.3652V38.6387H59.7467H58.4392V39.9122V41.1857H57.1315H55.824V42.4593V43.7328H54.5165H53.2089V45.0063V46.2798H51.9014H50.5938V47.5533V48.8268H49.2863H47.9786V50.1004V51.3738H46.6711H45.3635V52.6474V53.9209H44.056H42.7483V55.1945V56.4679H41.4408H40.1332V57.7415V59.0149H41.4408H42.7483H44.056H45.3635H46.6711H47.9786V60.2885H49.2863H50.5938H51.9014H53.2089H54.5165H55.824V59.0149H57.1315H58.4392H59.7467H61.0543H62.3618H63.6695H64.9769H66.2846H67.5921H68.8997H70.2072H71.5149V57.7415H72.8224H74.13V56.4679V55.1945V53.9209H75.4375V52.6474V51.3738V50.1004V48.8268V47.5533H74.13Z" fill="#283D2E"/>
<path d="M68.8997 46.2799V45.0064H67.5921V43.7329H66.2846H64.977H66.2846V42.4594H64.977H63.6695H62.3618H61.0543V43.7329H62.3618H61.0543H59.7467V45.0064H58.4392V46.2799H57.1315V47.5534V48.8269V50.1005V51.3739H58.4392V52.6475H59.7467V53.9209H61.0543V55.1945H62.3618H63.6695H64.977H66.2846V53.9209H67.5921V52.6475H68.8997V51.3739H70.2072V50.1005V48.8269V47.5534V46.2799H68.8997ZM63.6695 45.0064H64.977V46.2799H66.2846V47.5534H67.5921V48.8269V50.1005H66.2846V51.3739H64.977V52.6475H63.6695H62.3618V51.3739H61.0543V50.1005H59.7467V48.8269V47.5534H61.0543V46.2799H62.3618V45.0064H63.6695Z" fill="#F8AF4E"/>
<path d="M68.8997 59.015H67.5921H66.2846H64.9769H63.6695H62.3618H61.0543H59.7467H58.4392H57.1315H55.824H54.5165H53.2089H51.9014H50.5938H49.2863H47.9786H46.6711H45.3635H44.056H42.7483H41.4408H40.1332V60.2886H41.4408H42.7483H44.056H45.3635H46.6711H47.9786H49.2863H50.5938H51.9014H53.2089H54.5165H55.824H57.1315H58.4392H59.7467H61.0543H62.3618H63.6695H64.9769H66.2846H67.5921H68.8997H70.2072H71.5149V59.015H70.2072H68.8997Z" fill="#092C1B"/>
</g>
<defs>
<clipPath id="clip0">
<rect width="51.5" height="35.4062" fill="white" transform="translate(25.75 33.7969)"/>
</clipPath>
</defs>
</svg>
