<svg width="1330" height="1734" viewBox="0 0 1330 1734" fill="none" xmlns="http://www.w3.org/2000/svg">
<path d="M1271.6 57.8V0H1213.8V57.8H1156V0H1098.2V57.8H1040.4V0H982.6V57.8H924.8V0H867V57.8H809.2V0H751.4V57.8H693.6V0H635.8V57.8H578V0H520.2V57.8H462.4V0H404.6V57.8H346.8V0H289V57.8H231.2V0H173.4V57.8H115.6V0H57.8V57.8H0V1734H57.8V1676.2H115.6V1734H173.4V1676.2H231.2V1734H289V1676.2H346.8V1734H404.6V1676.2H462.4V1734H520.2V1676.2H578V1734H635.8V1676.2H693.6V1734H751.4V1676.2H809.2V1734H867V1676.2H924.8V1734H982.6V1676.2H1040.4V1734H1098.2V1676.2H1156V1734H1213.8V1676.2H1271.6V1734H1329.4V57.8H1271.6Z" fill="#33BACC"/>
<path d="M1156 173.4H1184.9V202.3H1156V173.4ZM1156 1531.7H1184.9V1560.6H1156V1531.7Z" fill="#36818E"/>
<path d="M1184.9 202.3V404.6H144.5V202.3H115.6V1531.7H144.5V1329.4H1184.9V1531.7H1213.8V202.3H1184.9ZM1184.9 1300.5H144.5V433.5H1184.9V1300.5ZM1156 173.4V144.5H173.4V173.4H1156Z" fill="#36818E"/>
<path d="M144.5 173.4H173.4V202.3H144.5V173.4ZM144.5 1531.7H173.4V1560.6H144.5V1531.7Z" fill="#36818E"/>
<path d="M173.4 1560.6V1589.5H1156V1560.6H173.4Z" fill="#36818E"/>
<path d="M144.5 1329.4V1531.7H173.4V1560.6H1156V1531.7H1184.9V1329.4H144.5ZM1156 202.3V173.4H173.4V202.3H144.5V404.6H1184.9V202.3H1156ZM144.5 433.5V1300.5H1184.9V433.5H144.5Z" fill="white"/>
<path d="M246.6 296.2H256.9V347.8H246.6V296.2ZM267.2 347.8V358.2H277.5V368.5H267.2V358.2H256.8V347.8H267.2ZM277.5 358.2V347.8H287.9V358.2H277.5ZM287.9 296.2H298.2V347.8H287.9V296.2ZM356.7 306.4H367V368.4H356.7V337.5H325.6V368.4H315.3V306.4H325.6V327.1H356.7V306.4ZM356.7 296.2V306.5H325.6V296.2H356.7ZM435.7 358.2V368.5H384.1V296.3H394.4V358.3L435.7 358.2ZM473.6 306.4V358.1H483.9V368.4H453V358.1H463.3V306.4H453V296.1H483.9V306.4H473.6ZM511.3 306.4V358.1H542.4V368.4H501.1V296.2H542.4V306.5L511.3 306.4ZM542.3 306.4H552.6V358.1H542.3V306.4ZM628.3 306.4V327.1H669.6V337.5H628.3V368.4H618.1V296.2H669.7V306.5L628.3 306.4ZM686.8 306.4H697.1V358.1H686.8V306.4ZM728.2 296.2V306.5H697.1V296.2H728.2ZM697.1 368.4V358.1H728.2V368.4H697.1ZM728.2 306.4H738.5V358.1H728.2V306.4ZM765.9 327.1H797V337.5H807.3V368.4H797V337.5H765.9V368.4H755.6V296.2H796.9V306.5H765.8L765.9 327.1ZM807.2 327.1H796.9V306.4H807.2V327.1ZM872.7 306.4H883V358.1H872.7V306.4ZM914 296.2V306.5H882.9V296.2H914ZM882.9 368.4V358.1H914V368.4H882.9ZM914 306.4H924.3V358.1H914V306.4ZM951.7 316.8H962.1V327.1H951.7V368.4H941.4V296.2H951.7V316.8ZM962.1 327.1H972.4V337.5H962.1V327.1ZM982.8 296.2H993.1V368.4H982.8V347.7H972.4V337.4H982.8V296.2ZM1020.5 306.4V327.1H1061.8V337.5H1020.5V358.2H1061.8V368.5H1010.2V296.3H1061.8V306.6H1020.5V306.4Z" fill="#36818E"/>
<path d="M642.8 195.9H628V210.7H657.6V195.9H642.8Z" fill="#52A7AA"/>
<path d="M628 122.1H642.8V136.9H628V122.1Z" fill="white"/>
<path d="M613.3 107.3H628.1V122.1H613.3V107.3ZM657.6 107.3H672.4V122.1H657.6V107.3Z" fill="white"/>
<path d="M642.8 151.6H657.6V166.4H642.8V151.6Z" fill="#96FFFF"/>
<path d="M672.4 122.1H642.8V136.8H657.6V151.6H672.4V136.8H687.1V122.1H672.4Z" fill="#96FFFF"/>
<path d="M628 136.8V122.1H613.3V151.6H642.8V136.8H628Z" fill="#96FFFF"/>
<path d="M687.1 107.3H672.4V122.1H701.9V107.3H687.1ZM657.6 151.6H672.4V166.4H657.6V151.6Z" fill="#DBFFFF"/>
<path d="M642.8 136.8H657.6V151.6H642.8V136.8ZM657.6 122.1V107.3H628V122.1H657.6Z" fill="#DBFFFF"/>
<path d="M701.9 107.3H716.7V122.1H701.9V107.3Z" fill="#00FFFF"/>
<path d="M687.1 122.1H701.9V136.9H687.1V122.1Z" fill="#00FFFF"/>
<path d="M672.4 136.8H687.2V151.6H672.4V136.8ZM701.9 195.9H716.7V210.7H701.9V195.9Z" fill="#00FFFF"/>
<path d="M687.1 181.2H701.9V196H687.1V181.2Z" fill="#00FFFF"/>
<path d="M672.4 166.4H687.2V181.2H672.4V166.4ZM613.3 151.6V195.9H628V181.2H642.8V151.6H613.3Z" fill="#00FFFF"/>
<path d="M687.1 195.9H701.9V210.7H687.1V195.9Z" fill="#86E8E6"/>
<path d="M701.9 151.6V195.9H716.7V151.6H701.9Z" fill="#86E8E6"/>
<path d="M657.6 195.9V210.7H687.1V195.9H657.6ZM701.9 122.1V151.6H716.7V122.1H701.9Z" fill="#4FD1D6"/>
<path d="M642.8 166.4H657.6V181.2H642.8V166.4Z" fill="#33BACC"/>
<path d="M628 181.2H642.8V196H628V181.2Z" fill="#33BACC"/>
<path d="M613.3 195.9H628.1V210.7H613.3V195.9ZM687.1 136.8V151.6H672.4V166.4H687.1V181.2H701.9V136.8H687.1Z" fill="#33BACC"/>
<path d="M701.9 92.5H613.3V107.3H716.7V92.5H701.9ZM672.4 166.4H657.6V181.2H642.8V195.9H687.1V181.2H672.4V166.4Z" fill="#36818E"/>
<path d="M598.5 210.7H613.3V107.3H598.5V210.7Z" fill="#36818E"/>
<path d="M716.7 107.3V210.7H731.5V107.3H716.7Z" fill="#283849"/>
<path d="M687.1 210.7H613.3V225.5H716.7V210.7H687.1Z" fill="#283849"/>
<path d="M602.2 717V767H527.2V817H477.2V1117H502.2V1017H552.2V867H602.2V817H652.2V767H702.2V717H602.2Z" fill="#F57A1A"/>
<path d="M702.2 717H752.2V767H702.2V717ZM477.2 1117H502.2V1167H477.2V1117Z" fill="#C65616"/>
<path d="M502.2 1017H552.2V1117H502.2V1017Z" fill="#C65616"/>
<path d="M552.2 867H602.2V1017H552.2V867Z" fill="#C65616"/>
<path d="M602.2 817H652.2V867H602.2V817Z" fill="#C65616"/>
<path d="M652.2 767H702.2V817H652.2V767Z" fill="#C65616"/>
<path d="M752.2 667V617H652.2V567H477.2V817H527.2V767H602.2V717H752.2V767H802.2V667H752.2Z" fill="#F7F7F7"/>
<path d="M477.2 1167H502.2V1217H477.2V1167Z" fill="#6C3617"/>
<path d="M502.2 1117H552.2V1167H502.2V1117Z" fill="#6C3617"/>
<path d="M552.2 1017H602.2V1117H552.2V1017Z" fill="#6C3617"/>
<path d="M602.2 867H652.2V1017H602.2V867Z" fill="#6C3617"/>
<path d="M652.2 817H702.2V867H652.2V817Z" fill="#6C3617"/>
<path d="M802.2 667V767H702.2V817H852.2V667H802.2Z" fill="#6C3617"/>
<path d="M752.2 617H802.2V667H752.2V617Z" fill="#6C3617"/>
<path d="M652.2 567H752.2V617H652.2V567Z" fill="#6C3617"/>
<path d="M477.2 517H652.2V567H477.2V517Z" fill="#6C3617"/>
<path d="M459.697 1419.22H418.513V1439.82H459.697V1450.18H418.513V1481H408.289V1409H459.697V1419.22ZM480.107 1481V1470.78H511.067V1481H480.107ZM469.883 1419.22H480.107V1470.78H469.883V1419.22ZM511.067 1409V1419.22H480.107V1409H511.067ZM511.067 1419.22H521.291V1470.78H511.067V1419.22ZM531.477 1481V1460.41H541.701V1481H531.477ZM541.701 1460.41V1450.18H552.069V1460.41H541.701ZM552.069 1439.82H562.293V1450.18H552.069V1439.82ZM572.661 1460.41H562.293V1450.18H572.661V1460.41ZM582.885 1481H572.661V1460.41H582.885V1481ZM541.701 1429.59H552.069V1439.82H541.701V1429.59ZM531.477 1409H541.701V1429.59H531.477V1409ZM572.661 1429.59V1439.82H562.293V1429.59H572.661ZM582.885 1409V1429.59H572.661V1409H582.885ZM613.662 1481V1450.18H623.886V1481H613.662ZM603.294 1439.82H613.662V1450.18H603.294V1439.82ZM593.07 1409H603.294V1439.82H593.07V1409ZM623.886 1450.18V1439.82H634.254V1450.18H623.886ZM634.254 1409H644.478V1439.82H634.254V1409ZM747.275 1409V1419.22H726.683V1481H716.459V1419.22H695.867V1409H747.275ZM798.645 1409V1419.22H767.685V1409H798.645ZM798.645 1419.22H808.869V1481H798.645V1450.18H767.685V1481H757.461V1419.22H767.685V1439.82H798.645V1419.22ZM849.871 1419.22H839.647V1470.78H849.871V1481H819.055V1470.78H829.279V1419.22H819.055V1409H849.871V1419.22ZM870.341 1470.78H911.525V1481H860.117V1409H870.341V1470.78Z" fill="#36818E"/>
</svg>
