<svg xmlns="http://www.w3.org/2000/svg" viewBox="0 0 1329.4 1734"  xmlns:v="https://vecta.io/nano"><path d="M1300.5 57.8h-28.9V0h-57.8v57.8H1156V0h-57.8v57.8h-57.8V0h-57.8v57.8h-57.8V0H867v57.8h-57.8V0h-57.8v57.8h-57.8V0h-57.8v57.8H578V0h-57.8v57.8h-57.8V0h-57.8v57.8h-57.8V0H289v57.8h-57.8V0h-57.8v57.8h-57.8V0H57.8v57.8H0V1734h57.8v-57.8h57.8v57.8h57.8v-57.8h57.8v57.8H289v-57.8h57.8v57.8h57.8v-57.8h57.8v57.8h57.8v-57.8H578v57.8h57.8v-57.8h57.8v57.8h57.8v-57.8h57.8v57.8H867v-57.8h57.8v57.8h57.8v-57.8h57.8v57.8h57.8v-57.8h57.8v57.8h57.8v-57.8h57.8v57.8h57.8V57.8z" fill="#ff96ff"/><g fill="#f0f"><path d="M1156 173.4h28.9v28.9H1156zm0 1358.3h28.9v28.9H1156z"/><path d="M1184.9 202.3v202.3H144.5V202.3h-28.9v1329.4h28.9v-202.3h1040.4v202.3h28.9V202.3h-28.9zm0 260.1v838.1H144.5v-867h1040.4v28.9zm-953.7-289H1156v-28.9H173.4v28.9h28.9z"/><path d="M144.5 173.4h28.9v28.9h-28.9zm0 1358.3h28.9v28.9h-28.9z"/><path d="M1098.2 1560.6H173.4v28.9H1156v-28.9h-28.9z"/></g><path d="M1127.1 1329.4H144.5v202.3h28.9v28.9H1156v-28.9h28.9v-202.3H1156zM1156 202.3v-28.9H173.4v28.9h-28.9v202.3h1040.4V202.3zm-28.9 231.2H144.5v867h1040.4v-867H1156z" fill="#fff"/><path d="M751.4 1193.6h28.9v28.9h-28.9v-28.9zm0-693.6h28.9v28.9h-28.9V500z" fill="#7a5749"/><path d="M751.4,528.9v664.7h28.9V528.9H751.4z" fill="#8e7064"/><path d="M722.5,528.9h-289V789h317.9V528.9H722.5z" fill="#7d0064"/><path d="M664.7 586.7v-28.9H520.2v28.9h-28.9v173.4h28.9v-28.9h28.9v28.9H578v-28.9h28.9v28.9h28.9v-28.9h28.9v28.9h28.9V586.7h-28.9zm-28.9 0v28.9h-28.9v-28.9h28.9zm-57.8 0v28.9h-28.9v-28.9H578zm86.7 86.7h-28.9v28.9h-86.7v-28.9h-28.9v-28.9h28.9v28.9h86.7v-28.9h28.9v28.9z" fill="#fff"/><path d="M673.3 101.1h14.4v14.4h-14.4zm-14.4 86.7v28.9h14.4v-43.4h-14.4zm14.4-43.3h14.4v14.4h-14.4zm-43.3 0h14.4v14.4H630zM601.1 130h14.4v14.4h-14.4zm43.3-28.9h14.4v14.4h-14.4z" fill="#ffc8ff"/><g fill="#9a298b"><path d="M572.2 130h14.4v14.4h-14.4zm28.9 14.5h-14.4v28.8h14.4v-14.4z"/><path d="M615.5 173.3h-14.4v28.9h14.4v-14.4z"/><path d="M615.5 202.2h14.4v14.4h-14.4zm14.5 14.5h14.4v14.4H630z"/><path d="M644.4 231.1h14.4v14.4h-14.4zm72.2-86.6H731v14.4h-14.4zm-14.4 28.8h14.4v14.4h-14.4zm-28.9 43.4h14.4v14.4h-14.4z"/></g><path d="M687.7 101.1h14.4v14.4h-14.4zm14.5 28.9h14.4v14.4h-14.4zm-43.3-14.4h-14.5V130h43.3v-14.4h-14.4zM630 101.1h14.4v14.4H630zm28.9 130v14.5h14.4v-28.9h-14.4z" fill="#ff96ff"/><path d="M586.7 130h14.4v14.4h-14.4zm14.4 14.5h14.4v14.4h-14.4zm14.4 28.8h14.4v14.4h-14.4zm28.9 43.4h14.4v14.4h-14.4z" fill="#ff00be"/><g fill="#d700c1"><path d="M731.1 130h14.4v14.4h-14.4zm-28.9 57.8h14.4v14.4h-14.4zm-14.5 14.4h14.4v14.4h-14.4zm28.9-43.3H731v14.4h-14.4zm0-43.3H731V130h-14.4zM687.7 130h14.4v14.4h-14.4zm-28.8 14.5h14.4v14.4h-14.4zM630 130h14.4v14.4H630z"/><path d="M601.1 115.6h14.4V130h-14.4zm28.9 43.3v-14.4h-14.5v28.8H630v28.9h14.4v14.5h14.5v-57.8h-14.5z"/></g><g fill="#ff62ff"><path d="M731.1 115.6h14.4V130h-14.4zM716.6 130H731v14.4h-14.4z"/><path d="M702.2 115.6h-14.5V130h28.9v-14.4zm-14.5 28.9h14.4v14.4h-14.4z"/><path d="M658.9 130h-14.5v14.5h43.3V130h-14.4z"/><path d="M630 115.6h-14.5V130h28.9v-14.4zm-14.5 72.2h14.4v14.4h-14.4zm14.5 14.4h14.4v14.4H630zm-28.9-43.3h14.4v14.4h-14.4z"/></g><path d="M658.9 101.1h14.4v14.4h-14.4zm-14.5 43.4h14.4v14.4h-14.4zm14.5 14.4h14.4v14.4h-14.4zM615.5 130h14.4v14.4h-14.4zm-28.8-14.4h14.4V130h-14.4z" fill="#fff"/><g fill="#870075"><path d="M658.9 245.6h14.4V260h-14.4zM745.5 130h14.4v14.4h-14.4zm-14.4 28.9v14.4h14.4v-28.8h-14.4z"/><path d="M716.6 187.8v14.4h14.5v-28.9h-14.5z"/><path d="M702.2 202.2h14.4v14.4h-14.4zm-14.5 14.5h14.4v14.4h-14.4z"/><path d="M673.3 231.1h14.4v14.4h-14.4z"/></g><g fill="#f0f"><path d="M601.1 101.1h-14.4v14.5H630v-14.5h-14.5zm-28.9 14.5h14.4V130h-14.4z"/><path d="M702.2 158.9h-28.9v57.8h14.4v-14.5h14.5v-28.9h14.4v-28.8h-14.4zm-14.5-72.2H630v14.4h72.2V86.7z"/><path d="M731.1 101.1h-28.9v14.5h43.3v-14.5z"/><path d="M745.5 115.6h14.4V130h-14.4zM405.3 1409.8h11v66.5h-11v-33.2H372v33.2h-11v-66.5h11v22.2h33.3v-22.2zm0-11v11H372v-11h33.3zm70.2 11h11v66.5h-11v-33.2h-33.3v33.2h-11v-66.5h11v22.2h33.3v-22.2zm0-11v11h-33.3v-11h33.3zm25.9 0h11v55.3h-11v-55.3zm22.1 55.3v11.2h11v11h-11v-11h-11.2v-11.2h11.2zm11 11.2v-11.2h11.2v11.2h-11.2zm11.2-66.5h11v55.3h-11v-55.3zm36.9 11v22.2h44.3v11.2h-44.3v22.2h44.3v11h-55.3v-77.5h55.3v11h-44.3zm118.4 0v22.2h44.3v11.2H701v33.2h-11v-77.5h55.3v11H701zm114.6 55.5v11h-55.3v-77.5h11v66.5h44.3zm59.2-55.5h11v66.5h-11v-33.2h-33.3v33.2h-11v-66.5h11v22.2h33.3v-22.2zm0-11v11h-33.3v-11h33.3zm25.8 11h11v55.5h-11v-55.5zm55.4-11v11h-44.3v-11H956zm0 77.5h-44.3v-11H945V1432h11v44.3zM239.4 292.5h11v55.3h-11v-55.3zm22.2 55.3V359h11v11h-11v-11h-11.2v-11.2h11.2zm11 11.2v-11.2h11.2V359h-11.2zm11.2-66.5h11v55.3h-11v-55.3zm70.2 11h11V370h-11v-33.2h-33.3V370h-11v-66.5h11v22.2H354v-22.2zm0-11v11h-33.3v-11H354zm81.2 66.5v11h-55.3v-77.5h11V359h44.3zm37-55.5V359h11v11H450v-11h11v-55.5h-11v-11h33.2v11h-11zm36.9 0V359h33.3v11h-44.3v-77.5h44.3v11h-33.3zm33.4 0h11V359h-11v-55.5zm85.1 0v22.2h44.3v11.2h-44.3V370h-11v-77.5h55.3v11h-44.3zm59.2 0h11V359h-11v-55.5zm44.3-11v11h-33.3v-11h33.3zM697.8 370v-11h33.3v11h-33.3zm33.3-66.5h11V359h-11v-55.5zm36.9 22.2h33.3v11.2h11V370h-11v-33.2H768V370h-11v-77.5h44.3v11H768v22.2zm44.3 0h-11v-22.2h11v22.2zm63.1-22.2h11V359h-11v-55.5zm44.3-11v11h-33.3v-11h33.3zM886.4 370v-11h33.3v11h-33.3zm33.3-66.5h11V359h-11v-55.5zm36.9 11.2h11.2v11h-11.2V370h-11v-77.5h11v22.2zm11.2 11h11v11.2h-11v-11.2zm22.1-33.2h11V370h-11v-22.2h-11.2v-11h11.2v-44.3zm36.9 11v22.2h44.3v11.2h-44.3V359h44.3v11h-55.3v-77.5h55.3v11h-44.3z"/></g></svg>