<svg width="1330" height="1734" viewBox="0 0 1330 1734" fill="none" xmlns="http://www.w3.org/2000/svg">
<path d="M1271.6 57.8V0H1213.8V57.8H1156V0H1098.2V57.8H1040.4V0H982.6V57.8H924.8V0H867V57.8H809.2V0H751.4V57.8H693.6V0H635.8V57.8H578V0H520.2V57.8H462.4V0H404.6V57.8H346.8V0H289V57.8H231.2V0H173.4V57.8H115.6V0H57.8V57.8H0V1734H57.8V1676.2H115.6V1734H173.4V1676.2H231.2V1734H289V1676.2H346.8V1734H404.6V1676.2H462.4V1734H520.2V1676.2H578V1734H635.8V1676.2H693.6V1734H751.4V1676.2H809.2V1734H867V1676.2H924.8V1734H982.6V1676.2H1040.4V1734H1098.2V1676.2H1156V1734H1213.8V1676.2H1271.6V1734H1329.4V57.8H1271.6Z" fill="#FFC36B"/>
<path d="M1156 173.4H1184.9V202.3H1156V173.4ZM1156 1531.7H1184.9V1560.6H1156V1531.7Z" fill="#EA8C27"/>
<path d="M1184.9 202.3V404.6H144.5V202.3H115.6V1531.7H144.5V1329.4H1184.9V1531.7H1213.8V202.3H1184.9ZM1184.9 1300.5H144.5V433.5H1184.9V1300.5ZM1156 173.4V144.5H173.4V173.4H1156Z" fill="#EA8C27"/>
<path d="M144.5 173.4H173.4V202.3H144.5V173.4ZM144.5 1531.7H173.4V1560.6H144.5V1531.7Z" fill="#EA8C27"/>
<path d="M173.4 1560.6V1589.5H1156V1560.6H173.4Z" fill="#EA8C27"/>
<path d="M144.5 1329.4V1531.7H173.4V1560.6H1156V1531.7H1184.9V1329.4H144.5ZM1156 202.3V173.4H173.4V202.3H144.5V404.6H1184.9V202.3H1156ZM144.5 433.5V1300.5H1184.9V433.5H144.5Z" fill="white"/>
<path d="M644.4 173.3H658.8V187.7H644.4V173.3ZM658.9 86.6001V173.3H673.3V86.6001H658.9Z" fill="white"/>
<path d="M644.4 115.5H658.8V129.9H644.4V115.5ZM658.9 173.3H673.3V187.7H658.9V173.3ZM615.5 173.3V187.8H644.4V173.3H615.5Z" fill="#FFFFC4"/>
<path d="M644.4 231.1H658.8V245.5H644.4V231.1ZM658.9 202.2H673.3V216.6H658.9V202.2ZM644.4 158.9V144.4H630V173.3H644.4V158.9Z" fill="#FFD596"/>
<path d="M644.4 130H658.8V144.4H644.4V130ZM702.2 173.3H687.7V187.8H716.6V173.3H702.2Z" fill="#FFD596"/>
<path d="M658.9 216.7H644.4V231.1H673.3V216.7H658.9ZM658.9 187.8H673.3V202.2H658.9V187.8ZM658.9 158.9V144.4H644.4V173.3H658.9V158.9ZM673.3 173.3H687.7V187.7H673.3V173.3Z" fill="#FFC36B"/>
<path d="M673.3 231.1H687.7V245.5H673.3V231.1ZM687.7 202.2H702.1V216.6H687.7V202.2ZM644.4 187.8H630V216.7H644.4V187.8Z" fill="#FFC36B"/>
<path d="M673.3 115.5H687.7V129.9H673.3V115.5ZM658.9 245.6V274.5H673.3V231.1H658.9V245.6Z" fill="#FFB200"/>
<path d="M673.3 216.7H687.7V231.1H673.3V216.7ZM658.9 202.2V187.8H644.4V216.7H658.9V202.2ZM687.7 187.8H702.1V202.2H687.7V187.8Z" fill="#FFB200"/>
<path d="M673.3 130H687.7V144.4H673.3V130Z" fill="#EA8C27"/>
<path d="M687.7 144.4H702.1V158.8H687.7V144.4Z" fill="#EA8C27"/>
<path d="M673.3 144.4H687.7V158.8H673.3V144.4ZM687.7 158.9H702.1V173.3H687.7V158.9Z" fill="#D67137"/>
<path d="M687.7 86.6001H673.3V115.5H687.7V86.6001Z" fill="#994A4A"/>
<path d="M702.2 115.5H687.7V144.4H702.2V115.5Z" fill="#994A4A"/>
<path d="M716.6 144.4H702.2V173.3H716.6V144.4ZM673.3 202.2V216.7H687.7V187.8H673.3V202.2Z" fill="#994A4A"/>
<path d="M716.6 173.3H731V187.7H716.6V173.3ZM644.4 260V274.5H658.9V245.6H644.4V260Z" fill="#994A4A"/>
<path d="M644.4 216.7H630V245.6H644.4V216.7Z" fill="#994A4A"/>
<path d="M630 187.8H615.5V216.7H630V187.8Z" fill="#994A4A"/>
<path d="M658.9 72.2002H673.3V86.6002H658.9V72.2002Z" fill="#AD5A41"/>
<path d="M658.9 101.1V86.6001H644.4V115.5H658.9V101.1ZM673.3 158.9H687.7V173.3H673.3V158.9Z" fill="#AD5A41"/>
<path d="M630 130V144.4H644.4V115.5H630V130Z" fill="#AD5A41"/>
<path d="M615.5 158.9V173.3H630V144.4H615.5V158.9ZM658.9 274.5H673.3V288.9H658.9V274.5Z" fill="#AD5A41"/>
<path d="M673.3 260V274.5H687.7V245.6H673.3V260Z" fill="#AD5A41"/>
<path d="M687.7 231.1V245.6H702.2V216.7H687.7V231.1Z" fill="#AD5A41"/>
<path d="M702.2 187.8V216.7H716.6V187.8H702.2ZM601.1 173.3H615.5V187.7H601.1V173.3Z" fill="#AD5A41"/>
<path d="M239.4 292.5H250.4V347.8H239.4V292.5ZM261.6 347.8V359H272.6V370H261.6V359H250.4V347.8H261.6ZM272.6 359V347.8H283.8V359H272.6ZM283.8 292.5H294.8V347.8H283.8V292.5ZM354 303.5H365V370H354V336.8H320.7V370H309.7V303.5H320.7V325.7H354V303.5ZM354 292.5V303.5H320.7V292.5H354ZM435.2 359V370H379.9V292.5H390.9V359H435.2ZM472.2 303.5V359H483.2V370H450V359H461V303.5H450V292.5H483.2V303.5H472.2ZM509.1 303.5V359H542.4V370H498.1V292.5H542.4V303.5H509.1ZM542.5 303.5H553.5V359H542.5V303.5ZM627.6 303.5V325.7H671.9V336.9H627.6V370H616.6V292.5H671.9V303.5H627.6ZM686.8 303.5H697.8V359H686.8V303.5ZM731.1 292.5V303.5H697.8V292.5H731.1ZM697.8 370V359H731.1V370H697.8ZM731.1 303.5H742.1V359H731.1V303.5ZM768 325.7H801.3V336.9H812.3V370H801.3V336.8H768V370H757V292.5H801.3V303.5H768V325.7ZM812.3 325.7H801.3V303.5H812.3V325.7ZM875.4 303.5H886.4V359H875.4V303.5ZM919.7 292.5V303.5H886.4V292.5H919.7ZM886.4 370V359H919.7V370H886.4ZM919.7 303.5H930.7V359H919.7V303.5ZM956.6 314.7H967.8V325.7H956.6V370H945.6V292.5H956.6V314.7ZM967.8 325.7H978.8V336.9H967.8V325.7ZM989.9 292.5H1000.9V370H989.9V347.8H978.7V336.8H989.9V292.5ZM1026.8 303.5V325.7H1071.1V336.9H1026.8V359H1071.1V370H1015.8V292.5H1071.1V303.5H1026.8Z" fill="#EA8C27"/>
<path d="M827.2 517V542H777.2V567H702.2V592H627.2V567H552.2V542H502.2V517H477.2V567H502.2V667H527.2V1067H502.2V1167H477.2V1217H502.2V1192H552.2V1167H627.2V1142H702.2V1167H777.2V1192H827.2V1217H852.2V1167H827.2V1067H802.2V667H827.2V567H852.2V517H827.2Z" fill="#F696C6"/>
<path d="M552.2 542H627.2V567H552.2V542ZM702.2 542H777.2V567H702.2V542Z" fill="black"/>
<path d="M827.2 492V517H777.2V542H827.2V517H852.2V567H877.2V492H827.2ZM777.2 1192V1167H702.2V1192H777.2V1217H827.2V1192H777.2Z" fill="black"/>
<path d="M502.2 1192H552.2V1217H502.2V1192ZM627.2 1142H702.2V1167H627.2V1142Z" fill="black"/>
<path d="M552.2 1167H627.2V1192H552.2V1167ZM502.2 517H552.2V542H502.2V517Z" fill="black"/>
<path d="M477.2 517H502.2V492H452.2V567H477.2V517ZM852.2 1217H827.2V1242H877.2V1167H852.2V1217ZM477.2 1167H452.2V1242H502.2V1217H477.2V1167ZM827.2 567H852.2V667H827.2V567Z" fill="black"/>
<path d="M477.2 567H502.2V667H477.2V567ZM827.2 1067H852.2V1167H827.2V1067Z" fill="black"/>
<path d="M477.2 1067H502.2V1167H477.2V1067ZM802.2 667H827.2V1067H802.2V667Z" fill="black"/>
<path d="M502.2 667H527.2V1067H502.2V667ZM627.2 567H702.2V592H627.2V567Z" fill="black"/>
<path d="M702.2 692H727.2V717H702.2V692ZM627.2 692H652.2V717H627.2V692Z" fill="#4955FF"/>
<path d="M702.2 717H727.2V767H702.2V717ZM627.2 717H652.2V767H627.2V717Z" fill="#00A9FF"/>
<path d="M702.2 767H727.2V792H702.2V767ZM627.2 767H652.2V792H627.2V767Z" fill="#494FA7"/>
<path d="M727.2 767H752.2V792H727.2V767ZM577.2 767H602.2V792H577.2V767Z" fill="#FFB299"/>
<path d="M727.2 717H752.2V767H727.2V717ZM577.2 742H602.2V767H577.2V742ZM677.2 792V717H652.2V792H627.2V817H602.2V792H577.2V842H602.2V867H627.2V892H602.2V917H577.2V942H652.2V967H677.2V942H727.2V917H702.2V892H677.2V867H727.2V842H752.2V792H677.2ZM627.2 842V817H702.2V842H627.2Z" fill="#FFE8D8"/>
<path d="M627.2 642H652.2V592H602.2V667H627.2V642ZM627.2 817V792H602.2V817H627.2V842H702.2V817H627.2ZM527.2 592V642H552.2V667H577.2V592H527.2Z" fill="#FF2D33"/>
<path d="M577.2 617H602.2V642H577.2V617ZM677.2 692H702.2V792H677.2V692ZM602.2 692H627.2V792H602.2V692Z" fill="white"/>
<path d="M777.2 667V642H752.2V617H652.2V642H627.2V667H602.2V642H577.2V667H527.2V917H552.2V892H577.2V867H602.2V842H577.2V742H602.2V692H652.2V717H677.2V692H727.2V717H752.2V892H777.2V867H802.2V667H777.2Z" fill="#64438E"/>
<path d="M827.2 1167V1067H802.2V942H677.2V967H652.2V942H527.2V1067H502.2V1167H477.2V1217H502.2V1192H552.2V1167H627.2V1142H652.2V1117H627.2V1092H652.2V1117H677.2V1092H702.2V1117H677.2V1142H702.2V1167H777.2V1192H827.2V1217H852.2V1167H827.2ZM652.2 1042H602.2V1017H577.2V992H602.2V1017H652.2V1042ZM752.2 1017H727.2V1042H677.2V1017H652.2V992H677.2V1017H727.2V992H752.2V1017Z" fill="#DC3291"/>
<path d="M677.2 1092H702.2V1117H677.2V1092ZM627.2 1092H652.2V1117H627.2V1092Z" fill="#CD0073"/>
<path d="M652.2 1117H677.2V1142H652.2V1117ZM727.2 992H752.2V1017H727.2V992ZM652.2 992H677.2V1017H652.2V992ZM577.2 992H602.2V1017H577.2V992Z" fill="#CD0073"/>
<path d="M677.2 1017H727.2V1042H677.2V1017ZM602.2 1017H652.2V1042H602.2V1017Z" fill="#CD0073"/>
<path d="M313.492 1408H323.716V1469.78H313.492V1408ZM323.716 1480V1469.78H334.084V1480H323.716ZM334.084 1469.78V1459.41H344.308V1469.78H334.084ZM344.308 1449.18H354.676V1459.41H344.308V1449.18ZM354.676 1459.41H364.9V1469.78H354.676V1459.41ZM364.9 1480V1469.78H375.268V1480H364.9ZM375.268 1408H385.492V1469.78H375.268V1408ZM436.942 1408V1418.22H405.982V1408H436.942ZM436.942 1418.22H447.166V1480H436.942V1449.18H405.982V1480H395.758V1418.22H405.982V1438.82H436.942V1418.22ZM488.168 1418.22H477.944V1469.78H488.168V1480H457.352V1469.78H467.576V1418.22H457.352V1408H488.168V1418.22ZM549.822 1418.22H508.638V1438.82H549.822V1449.18H508.638V1480H498.414V1408H549.822V1418.22ZM570.232 1480V1469.78H601.192V1480H570.232ZM560.008 1408H570.232V1469.78H560.008V1408ZM601.192 1408H611.416V1469.78H601.192V1408ZM673.029 1418.22V1438.82H703.989V1449.18H673.029V1480H662.805V1408H703.989V1418.22H673.029ZM703.989 1418.22H714.213V1438.82H703.989V1418.22ZM755.214 1418.22H744.99V1469.78H755.214V1480H724.398V1469.78H734.622V1418.22H724.398V1408H755.214V1418.22ZM775.685 1469.78H816.869V1480H765.461V1408H775.685V1469.78ZM837.279 1469.78H878.463V1480H827.055V1408H837.279V1469.78ZM898.872 1480V1469.78H929.832V1480H898.872ZM888.648 1418.22H898.872V1469.78H888.648V1418.22ZM929.832 1408V1418.22H898.872V1408H929.832ZM929.832 1418.22H940.056V1469.78H929.832V1418.22ZM950.242 1408H960.466V1469.78H950.242V1408ZM960.466 1480V1469.78H970.834V1480H960.466ZM970.834 1469.78V1459.41H981.058V1469.78H970.834ZM981.058 1449.18H991.426V1459.41H981.058V1449.18ZM991.426 1459.41H1001.65V1469.78H991.426V1459.41ZM1001.65 1480V1469.78H1012.02V1480H1001.65ZM1012.02 1408H1022.24V1469.78H1012.02V1408Z" fill="#EA8C27"/>
</svg>
