<svg xmlns="http://www.w3.org/2000/svg" viewBox="0 0 1329.5 1734"  xmlns:v="https://vecta.io/nano"><path d="M1300.6 57.8h-28.9V0h-57.8v57.8h-57.8V0h-57.8v57.8h-57.8V0h-57.8v57.8h-57.8V0h-57.8v57.8h-57.8V0h-57.8v57.8h-57.8V0h-57.8v57.8h-57.8V0h-57.8v57.8h-57.8V0h-57.8v57.8h-57.8V0h-57.8v57.8h-57.8V0h-57.8v57.8h-57.8V0H57.9v57.8H.1V1734h57.8v-57.8h57.8v57.8h57.8v-57.8h57.8v57.8h57.8v-57.8h57.8v57.8h57.8v-57.8h57.8v57.8h57.8v-57.8h57.8v57.8h57.8v-57.8h57.8v57.8h57.8v-57.8h57.8v57.8h57.8v-57.8h57.8v57.8h57.8v-57.8h57.8v57.8h57.8v-57.8h57.8v57.8h57.8v-57.8h57.8v57.8h57.8V57.8z" fill="#51ffa8"/><g fill="#1e661e"><path d="M1156.1 173.4h28.9v28.9h-28.9zm0 1358.3h28.9v28.9h-28.9z"/><path d="M1185 202.3v202.3H144.6V202.3h-28.9v1329.4h28.9v-202.3H1185v202.3h28.9V202.3H1185zm0 260.1v838.1H144.6v-867H1185v28.9zm-953.7-289h924.8v-28.9H173.5v28.9h28.9z"/><path d="M144.6 173.4h28.9v28.9h-28.9zm0 1358.3h28.9v28.9h-28.9z"/><path d="M1098.3 1560.6H173.5v28.9h982.6v-28.9h-28.9z"/></g><path d="M1127.2 1329.4H144.6v202.3h28.9v28.9h982.6v-28.9h28.9v-202.3h-28.9zm28.9-1127.1v-28.9H173.5v28.9h-28.9v202.3H1185V202.3zm-28.9 231.2H144.6v867H1185v-867h-28.9z" fill="#fff"/><path d="M757.3 650.2H711v-23.1H572.3v23.1h115.6v23.1h46.2v23.1h46.2v-23.1h-23.1l.1-23.1zM711 719.6h-46.2v-23.1h-69.4v-23.1H433.6v23.1h-23.1v23.1h46.2v-23.1h115.6v23.1h69.4v23.1h46.2v23.1h46.2v-23.1H711v-23.1zm-92.4 46.2h-69.4v-23.1H410.5v23.1h-46.2V789h-23.1v23.1h46.2V789h46.2v-23.1h92.5V789h69.4v23.1h46.2V789h-23.1v-23.2zm-69.4 46.3H410.5v23.1h-46.2v23.1h-23.1v23.1h46.2v-23.1h46.2v-23.1h92.5v23.1h46.2v-23.1h-23.1v-23.1zm439.3 0V789h-23.1v-23.1h-23.1v-23.1h-23.1v-23.1H896v-23.1h-46.2v23.1h23.1v23.1H896v23.1h23.1V789h23.1v23.1h23.1v23.1h23.1v23.1h23.1v-46.2h-23z" fill="#965c43"/><path d="M1011.6 765.9h0v-23.1h-23.1v-23.1h-23.1v-23.1h-23.1v-23.1h-69.4v-23.1h-23.1v-23.1h-69.4V604h-23.1v-23.1h-185V604h-23.1v23.1h-69.4v23.1h-23.1v23.1h138.7v23.1h69.4v23.1H711v23.1h23.1v23.1h-46.2v-23.1h-46.2v-23.1h-69.4v-23.1H456.7v23.1h-46.2v-23.1h23.1v-23.1h-46.2v23.1h-23.1v23.1h-23.1v23.1H318v23.1h-23.1v185H318v-23.1h46.2v-23.1h46.2v-23.1h46.2v-23.1H526v-23.1h-92.5v23.1h-46.2v23.1h-46.2v-23.1h23.1v-23.1h46.2v-23.1h138.7v23.1h23.1v23.1h23.1v-23.1h69.4v-23.1H711V789h46.2v-23.1h23.1v-23.1h23.1v-23.1h23.1v23.1h23.1v23.1h23.1V789H896v23.1h23.1v23.1h23.1v23.1h23.1v23.1h23.1v23.1h23.1v23.1h23.1V765.9h-23zm-369.9 46.2h-46.2V789h-69.4v-23.1h-92.5V789h-46.2v23.1h-46.2V789h23.1v-23.1h46.2v-23.1h138.7v23.1h69.4V789h23.1v23.1zm138.7-115.6h-46.2v-23.1H688v-23.1H572.3v-23.1H711v23.1h46.2v23.1h23.1v23.1h.1zm231.2 161.8h-23.1v-23.1h-23.1v-23.1h-23.1V789h-23.1v-23.1H896v-23.1h-23.1v-23.1h-23.1v-23.1H896v23.1h23.1v23.1h23.1v23.1h23.1V789h23.1v23.1h23.1v46.2h.1z" fill="#462300"/><g fill="#301800"><path d="M803.5,719.6h23.1v23.1h-23.1V719.6z"/><path d="M826.6 742.7h23.1v23.1h-23.1v-23.1zm23.2 23.1h23.1V789h-23.1v-23.2z"/><path d="M872.9,789H896v23.1h-23.1V789z"/><path d="M896,812.1h23.1v23.1H896V812.1z"/><path d="M919.1,835.2h23.1v23.1h-23.1V835.2z"/><path d="M942.2 858.3h23.1v23.1h-23.1v-23.1zm23.2 23.2h23.1v23.1h-23.1v-23.1zm-185-138.8h23.1v23.1h-23.1v-23.1z"/><path d="M757.3 765.8h23.1V789h-23.1v-23.2zM711 789v23.1h46.2V789H711z"/><path d="M664.8 812.1v23.1H711v-23.1h-46.2z"/><path d="M618.6 835.2h-23.1v23.1h69.4v-23.1h-46.3zm-69.4 23.1h-92.5v23.1h138.7v-23.1h-46.2zm-138.7 23.2v23.1h-46.2v23.1h46.2v-23.1h46.2v-23.1h-46.2zm-115.6 46.2h0V765.8H318v-23.1h-46.2v231.2H318v-23.1h-23.1v-23.1z"/><path d="M318 927.7v23.1h46.2v-23.1H318zm23.1-208.1h23.1v-23.1H318v46.2h23.1v-23.1zm46.3-46.2h69.4v-23.1h-92.5v46.2h23.1v-23.1zm92.4-46.3h69.4V604h-92.5v46.2h23.1v-23.1zm300.6 0h69.4v23.1h23.1V604h-92.5v23.1zM896 673.4h46.2v23.1h23.1v23.1h23.1v23.1h23.1v-46.2h-46.2v-46.2h-92.5v23.1H896z"/><path d="M1034.7 742.7h-23.1v23.1h23.1v161.8h-23.1v-23.1h-23.1v23.1h23.1v46.2h46.2V742.7h-23.1zM572.3 580.9h185V604h23.1v-46.2H549.2V604h23.1v-23.1z"/></g><path d="M348 1409.8h11v22.2h-11v-22.2zm0 66.5v-11h44.3v11H348zm55.3-77.5v11H359v-11h44.3zm-11 44.3H359V1432h33.3v11.1zm11 22.2h-11v-22.2h11v22.2zm70.3-55.5h-22.2v66.5h-11v-66.5h-22.2v-11h55.3v11zm59.2 0h11v66.5h-11v-33.2h-33.3v33.2h-11v-66.5h11v22.2h33.3v-22.2zm0-11v11h-33.3v-11h33.3zm36.9 22.2h11.2v11h-11.2v44.3h-11v-77.5h11v22.2zm11.1 11h11v11.2h-11V1432zm22.2-33.2h11v77.5h-11v-22.2h-11.2v-11H603v-44.3zm48 11v55.5h11v11h-33.2v-11h11v-55.5h-11v-11H662v11h-11zm129.4-11v77.5h-11v-33.2h-33.3v33.2h-11v-77.5h11v33.2h33.3v-33.2h11zm59.3 11h11v66.5h-11v-33.2h-33.3v33.2h-11v-66.5h11v22.2h33.3v-22.2zm0-11v11h-33.3v-11h33.3zm48 11v55.5h11v11h-33.2v-11h11v-55.5h-11v-11h33.2v11h-11zm36.9 22.2h33.3v11.2h11v33.2h-11v-33.2h-33.3v33.2h-11v-77.5h44.3v11h-33.3v22.1zm44.3 0h-11v-22.2h11v22.2zM239.4 292.5h11v55.3h-11v-55.3zm22.2 55.3V359h11v11h-11v-11h-11.2v-11.2h11.2zm11 11.2v-11.2h11.2V359h-11.2zm11.2-66.5h11v55.3h-11v-55.3zm70.2 11h11V370h-11v-33.2h-33.3V370h-11v-66.5h11v22.2H354v-22.2zm0-11v11h-33.3v-11H354zm81.2 66.5v11h-55.3v-77.5h11V359h44.3zm37-55.5V359h11v11H450v-11h11v-55.5h-11v-11h33.2v11h-11zm36.9 0V359h33.3v11h-44.3v-77.5h44.3v11h-33.3zm33.4 0h11V359h-11v-55.5zm85.1 0v22.2h44.3v11.2h-44.3V370h-11v-77.5h55.3v11h-44.3zm59.2 0h11V359h-11v-55.5zm44.3-11v11h-33.3v-11h33.3zM697.8 370v-11h33.3v11h-33.3zm33.3-66.5h11V359h-11v-55.5zm36.9 22.2h33.3v11.2h11V370h-11v-33.2H768V370h-11v-77.5h44.3v11H768v22.2zm44.3 0h-11v-22.2h11v22.2zm63.1-22.2h11V359h-11v-55.5zm44.3-11v11h-33.3v-11h33.3zM886.4 370v-11h33.3v11h-33.3zm33.3-66.5h11V359h-11v-55.5zm36.9 11.2h11.2v11h-11.2V370h-11v-77.5h11v22.2zm11.2 11h11v11.2h-11v-11.2zm22.1-33.2h11V370h-11v-22.2h-11.2v-11h11.2v-44.3zm36.9 11v22.2h44.3v11.2h-44.3V359h44.3v11h-55.3v-77.5h55.3v11h-44.3z" fill="#1e661e"/><g fill="#815382"><path d="M592.4 158.9h14.5v14.5h-14.5zm14.5 72.3h-14.5v28.9h14.5v-14.5zm86.7-144.5h14.5v14.5h-14.5z"/><path d="M708.1 130h14.4v-28.9h-14.4v14.5zm14.4 115.6H737v14.5h-14.5z"/><path d="M708.1 260.1h14.5v14.5h-14.5zm-101.2 0h14.5v14.5h-14.5zm28.9 43.3h14.5v14.5h-14.5zm-57.8-130h14.5v14.5H578z"/></g><g fill="#fff"><path d="M621.3 202.3v-14.5h14.5v-43.3h14.4V130h14.5v-14.4h14.4v-14.5h-28.9v14.5h-14.4V130h-14.5v43.4h-14.4v43.3h14.4zm0 72.2h14.5V289h-14.5z"/><path d="M664.7 289h-28.9v14.4h57.8V289h-14.5z"/><path d="M693.6 274.5V289h14.5v-28.9h-14.5z"/><path d="M708.1 231.2v28.9h14.4v-43.4h-14.4z"/><path d="M722.5 173.4v43.3H737v-43.3z"/><path d="M722.5 144.5V130h-14.4v43.4h14.4v-14.5zm-43.4-28.9h14.5v14.5h-14.5z"/></g><g fill="#2b59ff"><path d="M650.2 202.3h-14.4v14.4h28.9v-28.9h-14.5zm14.5-86.7h14.5v14.5h-14.5z"/><path d="M679.1 130h14.5v14.5h-14.5z"/></g><g fill="#54acff"><path d="M635.8 86.7h14.5v14.5h-14.5zM606.9 130h14.5v14.5h-14.5zm72.2 72.3v-14.5h-14.4v28.9h14.4zm0 72.2h14.5V289h-14.5z"/><path d="M635.8 216.7v14.5h28.9v-14.5h-14.5zm43.3-115.6h14.5v14.5h-14.5z"/><path d="M693.6 115.6v28.9h14.5v-28.9z"/><path d="M679.1 144.5h14.5V159h-14.5zm-43.3 28.9h14.5v14.5h-14.5z"/></g><g fill="#51ffa8"><path d="M635.8 101.1h14.5v14.5h-14.5zm57.8 0h14.5v14.5h-14.5zm-72.3 86.7v14.5h28.9v-14.5h-14.4zm-14.4 57.8v14.5h28.9v-14.5h-14.5zm43.3 14.5h14.5v14.5h-14.5zm28.9-14.5h14.5v14.5h-14.5z"/><path d="M693.6 231.2h14.5v14.5h-14.5zm-43.4-57.8h14.5v14.5h-14.5zm28.9-14.5h14.5v14.5h-14.5zm-57.8-43.3h14.5v14.5h-14.5z"/></g><g fill="#0f0"><path d="M693.6 158.9v14.5h-28.9v14.4h43.4v-28.9zm-72.3-57.8h14.5v14.5h-14.5zm28.9 144.5v14.5h28.9v-14.5h-14.4z"/><path d="M621.3 260.1v14.4h28.9v-14.4h-14.4z"/></g><g fill="#baffff"><path d="M621.3 158.9v-14.4h-14.4v28.9h14.4zm43.4 14.5h14.4v-14.5h-28.9v-14.4h-14.4v28.9h14.4zm43.4 0v14.4h-29v43.4h-72.2v14.4h28.9v14.5h14.4v-14.5h43.4v-14.4h14.5v-14.5h-14.5v-14.4h14.5v14.4h14.4v-43.3z"/><path d="M693.6 245.6h14.5v14.5h-14.5z"/><path d="M664.7 260.1v14.4h-28.9V289h43.3v-14.5h14.5v-14.4h-14.5zm28.9-115.6h14.5V159h-14.5zm-86.7 57.8v-28.9h-14.5v43.3h14.5zm72.2-101.2h14.5V86.7h-43.4v14.4h14.5z"/></g><g fill="#1e661e"><path d="M621.3 115.6v-14.5h-14.4V130h14.4z"/><path d="M606.9 144.5V130h-14.5v28.9h14.5zM578 202.3v14.4h14.4v-28.9H578zm28.9 72.2h14.5V289h-14.5z"/><path d="M621.3 289h14.5v14.5h-14.5zM737 144.5V130h-14.5v28.9H737zm0 43.3v28.9h14.4v-28.9zM664.7 72.2h-14.5v14.5h43.4V72.2h-14.5zm0 231.2h-14.5v14.5h43.4v-14.5h-14.5z"/></g><g fill="#33297c"><path d="M722.5 158.9H737v14.5h-14.5z"/><path d="M737 173.4h14.5v14.5H737zm-14.5 57.8v14.4H737v-28.9h-14.5zm-14.4 43.3h14.5V289h-14.5z"/><path d="M693.6 289h14.5v14.5h-14.5zM635.8 72.2h14.5v14.5h-14.5z"/><path d="M621.3 86.7h14.5v14.5h-14.5zm-28.9 130h14.5v14.5h-14.5z"/></g><g fill="#ffc4e1"><path d="M606.9 216.7h14.5v14.5h-14.5z"/><path d="M621.3 202.3h14.5v14.5h-14.5zm43.4 14.4h14.5v14.5h-14.5zM650.2 130h14.5v14.5h-14.5z"/><path d="M664.7 144.5h14.5V159h-14.5z"/></g><g fill="#ff93c9"><path d="M621.3 216.7h14.5v14.5h-14.5zm72.3-14.4h14.5v14.5h-14.5zm-43.4-57.8h14.5V159h-14.5z"/><path d="M664.7 130h14.5v14.5h-14.5z"/></g></svg>