<svg width="1330" height="1734" viewBox="0 0 1330 1734" fill="none" xmlns="http://www.w3.org/2000/svg">
<path d="M1271.5 57.8V0H1213.7V57.8H1155.9V0H1098.1V57.8H1040.3V0H982.5V57.8H924.7V0H866.9V57.8H809.1V0H751.3V57.8H693.5V0H635.7V57.8H577.9V0H520.1V57.8H462.3V0H404.5V57.8H346.8V0H289V57.8H231.2V0H173.4V57.8H115.6V0H57.8V57.8H0V1734H57.8V1676.2H115.6V1734H173.4V1676.2H231.2V1734H289V1676.2H346.8V1734H404.5V1676.2H462.3V1734H520.1V1676.2H577.9V1734H635.7V1676.2H693.5V1734H751.3V1676.2H809.1V1734H866.9V1676.2H924.7V1734H982.5V1676.2H1040.3V1734H1098.1V1676.2H1155.9V1734H1213.7V1676.2H1271.5V1734H1329.3V57.8H1271.5Z" fill="#59BCFF"/>
<path d="M1155.9 173.4H1184.8V202.3H1155.9V173.4ZM1155.9 1531.7H1184.8V1560.6H1155.9V1531.7Z" fill="#0064FF"/>
<path d="M1184.8 202.3V404.6H144.5V202.3H115.6V1531.7H144.5V1329.4H1184.9V1531.7H1213.8V202.3H1184.8ZM1184.8 1300.5H144.5V433.5H1184.9L1184.8 1300.5ZM1155.9 173.4V144.5H173.4V173.4H1155.9Z" fill="#0064FF"/>
<path d="M144.5 173.4H173.4V202.3H144.5V173.4ZM144.5 1531.7H173.4V1560.6H144.5V1531.7Z" fill="#0064FF"/>
<path d="M173.4 1560.6V1589.5H1155.9V1560.6H173.4Z" fill="#0064FF"/>
<path d="M144.5 1329.4V1531.7H173.4V1560.6H1155.9V1531.7H1184.8V1329.4H144.5ZM1155.9 202.3V173.4H173.4V202.3H144.5V404.6H1184.8V202.3H1155.9ZM144.5 433.5V1300.5H1184.8V433.5H144.5Z" fill="white"/>
<path d="M246.5 296.2H256.8V347.8H246.5V296.2ZM267.2 347.7V358.1H277.5V368.4H267.2V358.1H256.8V347.7H267.2ZM277.5 358.1V347.7H287.9V358.1H277.5ZM287.9 296.2H298.2V347.8H287.9V296.2ZM356.6 306.4H366.9V368.4H356.6V337.5H325.5V368.4H315.2V306.4H325.5V327.1H356.6V306.4ZM356.6 296.2V306.5H325.5V296.2H356.6ZM435.7 358.1V368.4H384.1V296.2H394.4V358.2H435.7V358.1ZM473.5 306.4V358.1H483.8V368.4H452.9V358.1H463.2V306.4H452.9V296.2H483.8V306.5L473.5 306.4ZM511.2 306.4V358.1H542.3V368.4H501V296.2H542.3V306.5H511.2V306.4ZM542.3 306.4H552.6V358.1H542.3V306.4ZM628.3 306.4V327.1H669.6V337.5H628.3V368.4H618V296.2H669.6V306.5H628.3V306.4ZM686.8 306.4H697.1V358.1H686.8V306.4ZM728.1 296.2V306.5H697V296.2H728.1ZM697.1 368.4V358.1H728.2V368.4H697.1ZM728.1 306.4H738.4V358.1H728.1V306.4ZM765.8 327.1H796.9V337.5H807.2V368.4H796.9V337.5H765.8V368.4H755.5V296.2H796.8V306.5H765.7L765.8 327.1ZM807.2 327.1H796.9V306.4H807.2V327.1ZM872.6 306.4H882.9V358.1H872.6V306.4ZM914 296.2V306.5H882.9V296.2H914ZM882.9 368.4V358.1H914V368.4H882.9ZM914 306.4H924.3V358.1H914V306.4ZM951.7 316.8H962.1V327.1H951.7V368.4H941.4V296.2H951.7V316.8ZM962.1 327.1H972.4V337.5H962.1V327.1ZM982.7 296.2H993V368.4H982.7V347.7H972.3V337.4H982.7V296.2ZM1020.5 306.4V327.1H1061.8V337.5H1020.5V358.2H1061.8V368.5H1010.2V296.2H1061.8V306.5L1020.5 306.4Z" fill="#0064FF"/>
<path d="M693.6 115.6V101.2H679.1V144.5H693.6V115.6Z" fill="#0B0072"/>
<path d="M708 144.5H693.6V173.4H708V144.5Z" fill="#0B0072"/>
<path d="M708 173.4V216.8H722.5V173.4H708Z" fill="#0B0072"/>
<path d="M693.6 216.8H708.1V231.3H693.6V216.8Z" fill="#0B0072"/>
<path d="M664.6 231.2H635.7V245.7H693.6V231.2H664.6Z" fill="#0B0072"/>
<path d="M635.7 115.6V144.5H650.2V101.2H635.7V115.6ZM606.8 187.9V216.8H621.3V173.4H606.8V187.9Z" fill="#1000A3"/>
<path d="M621.3 216.8H635.8V231.3H621.3V216.8ZM621.3 159V173.4H635.7V144.5H621.3V159ZM650.2 86.7V101.2H679.1V86.7H650.2Z" fill="#1000A3"/>
<path d="M650.2 159H664.7V173.5H650.2V159ZM679.1 216.8H693.6V231.3H679.1V216.8Z" fill="white"/>
<path d="M664.6 144.5V130.1H650.2V159H664.6V144.5Z" fill="#59BCFF"/>
<path d="M664.6 159H679.1V173.5H664.6V159Z" fill="#59BCFF"/>
<path d="M650.2 173.4H664.7V187.9H650.2V173.4ZM650.2 216.8V231.2H679.1V216.8H650.2Z" fill="#59BCFF"/>
<path d="M693.6 187.9V216.8H708V187.9H693.6ZM635.7 159H650.2V173.5H635.7V159Z" fill="#59BCFF"/>
<path d="M679.1 115.6V101.2H664.6V130.1H679.1V115.6ZM635.7 173.4H621.3V202.3H635.7V173.4Z" fill="#0000FF"/>
<path d="M679.1 144.5V202.3H635.7V216.8H693.6V144.5H679.1Z" fill="#0000FF"/>
<path d="M650.2 187.9H664.7V202.4H650.2V187.9ZM621.3 202.3H635.8V216.8H621.3V202.3Z" fill="#0080FF"/>
<path d="M635.7 216.8H650.2V231.3H635.7V216.8ZM635.7 144.5H650.2V159H635.7V144.5ZM664.6 144.5H679.1V159H664.6V144.5ZM664.6 173.4H679.1V187.9H664.6V173.4ZM693.6 173.4H708.1V187.9H693.6V173.4ZM635.7 173.4H650.2V187.9H635.7V173.4ZM650.2 115.6H664.7V130.1H650.2V115.6Z" fill="#0080FF"/>
<path d="M664.6 130.1H679.1V144.6H664.6V130.1ZM664.6 187.9H679.1V202.4H664.6V187.9ZM635.7 187.9H650.2V202.4H635.7V187.9ZM650.2 101.2H664.7V115.7H650.2V101.2Z" fill="#0064FF"/>
<path d="M461.2 931.8H498.2V950.3H461.2V931.8Z" fill="white"/>
<path d="M590.7 987.2H572.2V1005.7H498.2V987.2H479.7V968.7H461.2V950.2H442.7V987.2H461.2V1024.2H498.2V1042.7H572.2V1024.2H609.2V968.7H590.7V987.2ZM831.2 931.8H868.2V950.3H831.2V931.8Z" fill="white"/>
<path d="M868.2 950.2V968.7H849.7V987.2H831.2V1005.7H757.2V987.2H738.7V968.7H720.2V1024.2H757.2V1042.7H831.2V1024.2H868.2V987.2H886.7V950.2H868.2Z" fill="white"/>
<path d="M609.2 968.8H627.7V1024.3H609.2V968.8ZM794.2 913.2V931.7H757.2V950.2H720.2V968.7H738.7V987.2H757.2V1005.7H831.2V987.2H849.7V968.7H868.2V950.2H831.2V931.7H868.2V950.2H886.7V987.2H868.2V1024.2H886.7V1005.7H905.2V913.2H794.2Z" fill="black"/>
<path d="M442.7 987.2H461.2V1024.2H442.7V987.2ZM831.2 1024.2H868.2V1042.7H831.2V1024.2ZM757.2 1042.8H831.2V1061.3H757.2V1042.8ZM720.2 1024.2H757.2V1042.7H720.2V1024.2ZM572.2 1024.2H609.2V1042.7H572.2V1024.2ZM498.2 1042.8H572.2V1061.3H498.2V1042.8Z" fill="black"/>
<path d="M461.2 1024.2H498.2V1042.7H461.2V1024.2ZM701.7 968.8H720.2V1024.3H701.7V968.8ZM442.7 950.2H461.2V931.7H498.2V950.2H461.2V968.7H479.7V987.2H498.2V1005.7H572.2V987.2H590.7V968.7H609.2V950.2H572.2V931.7H535.2V913.2H424.2V987.2H442.7V950.2Z" fill="black"/>
<path d="M942.2 857.8V820.8H831.2V839.3H775.7V857.8H738.7V876.3H720.2V894.8H701.7V913.3H683.2V931.8H664.7V1116.8H683.2V1098.3H701.7V1079.8H720.2V1061.3H738.7V1079.8H757.2V1098.3H831.2V1079.8H886.7V1061.3H942.2V1024.3H979.2V857.8H942.2ZM757.2 1061.2V1042.7H720.2V1024.2H701.7V968.7H720.2V950.2H757.2V931.7H794.2V913.2H905.2V1005.7H886.7V1024.2H868.2V1042.7H831.2V1061.2H757.2Z" fill="#FFCB00"/>
<path d="M646.2 931.8V913.3H627.7V894.8H609.2V876.3H590.7V857.8H553.7V839.3H498.2V820.8H387.2V857.8H350.2V1024.3H387.2V1061.3H442.7V1079.8H498.2V1098.3H572.2V1079.8H590.7V1061.3H609.2V1079.8H627.7V1098.3H646.2V1116.8H664.7V931.8H646.2ZM572.2 1042.8V1061.3H498.2V1042.8H461.2V1024.3H442.7V987.3H424.2V913.3H535.2V931.8H572.2V950.3H609.2V968.8H627.7V1024.3H609.2V1042.8H572.2Z" fill="#FFB300"/>
<path d="M646.2 691.2V709.7H627.7V728.2H609.2V765.2H664.7V691.2H646.2Z" fill="#46CDFF"/>
<path d="M664.7 765.2V839.2H683.2V820.7H701.7V802.2H720.2V765.2H664.7Z" fill="#0093FF"/>
<path d="M609.2 765.2V802.2H627.7V820.7H646.2V839.2H664.7V765.2H609.2Z" fill="#00AFFF"/>
<path d="M701.7 728.2V709.7H683.2V691.2H664.7V765.2H720.2V728.2H701.7Z" fill="#00AFFF"/>
<path d="M239.2 654.2V691.2H313.2V728.2H239.2V765.2H313.2V802.2H239.2V839.2H313.2V876.2H276.2V913.2H350.2V654.2H239.2ZM979.2 654.2V913.2H1053.2V876.2H1016.2V839.2H1090.2V802.2H1016.2V765.2H1090.2V728.2H1016.2V691.2H1090.2V654.2H979.2ZM831.2 691.2H868.2V802.2H831.2V691.2ZM461.2 691.2H498.2V802.2H461.2V691.2ZM609.2 709.8H627.7V728.3H609.2V709.8Z" fill="white"/>
<path d="M590.7 728.2H609.2V802.2H590.7V728.2Z" fill="white"/>
<path d="M609.2 802.2H627.7V820.7H609.2V802.2ZM627.7 820.8H646.2V839.3H627.7V820.8Z" fill="white"/>
<path d="M646.2 839.2H683.2V857.7H646.2V839.2ZM627.7 691.2H646.2V709.7H627.7V691.2ZM701.7 802.2H720.2V820.7H701.7V802.2ZM701.7 709.8H720.2V728.3H701.7V709.8Z" fill="white"/>
<path d="M720.2 728.2H738.7V802.2H720.2V728.2ZM646.2 672.8H683.2V691.3H646.2V672.8Z" fill="white"/>
<path d="M683.2 820.8H701.7V839.3H683.2V820.8ZM683.2 691.2H701.7V709.7H683.2V691.2Z" fill="white"/>
<path d="M276.2 913.2H350.2V950.2H276.2V913.2Z" fill="black"/>
<path d="M239.2 913.2H276.2V876.2H313.2V839.2H239.2V913.2Z" fill="black"/>
<path d="M350.2 617.2H165.2V654.2H202.2V839.2H239.2V802.2H313.2V765.2H239.2V728.2H313.2V691.2H239.2V654.2H350.2V617.2ZM979.2 913.2H1053.2V950.2H979.2V913.2Z" fill="black"/>
<path d="M1016.2 839.2V876.2H1053.2V913.2H1090.2V839.2H1016.2Z" fill="black"/>
<path d="M979.2 617.2V654.2H1090.2V691.2H1016.2V728.2H1090.2V765.2H1016.2V802.2H1090.2V839.2H1127.2V654.2H1164.2V617.2H979.2Z" fill="black"/>
<path d="M942.2 654.2V691.2H905.2V654.2H794.2V617.2H535.2V654.2H424.2V691.2H387.2V654.2H350.2V857.7H387.2V820.7H498.2V839.2H553.7V857.7H590.7V876.2H609.2V894.7H627.7V913.2H646.2V931.7H683.2V913.2H701.7V894.7H720.2V876.2H738.7V857.7H775.7V839.2H831.2V820.7H942.2V857.7H979.2V654.2H942.2ZM701.7 820.8V839.3H683.2V857.8H646.2V839.3H627.7V820.8H609.2V802.3H590.7V728.3H609.2V709.8H627.7V691.3H646.2V672.8H683.2V691.3H701.7V709.8H720.2V728.3H738.7V802.3H720.2V820.8H701.7ZM461.2 802.2V691.2H498.2V802.2H461.2ZM831.2 802.2V691.2H868.2V802.2H831.2Z" fill="black"/>
<path d="M408.799 1413.22H367.615V1433.82H408.799V1444.18H367.615V1464.78H408.799V1475H357.391V1403H408.799V1413.22ZM460.168 1403V1413.22H429.208V1403H460.168ZM460.168 1413.22H470.392V1475H460.168V1444.18H429.208V1475H418.984V1413.22H429.208V1433.82H460.168V1413.22ZM531.986 1475H490.802V1464.78H521.762V1433.82H531.986V1475ZM480.578 1413.22H490.802V1464.78H480.578V1413.22ZM531.986 1403V1413.22H490.802V1403H531.986ZM552.396 1464.78H593.58V1475H542.172V1403H552.396V1464.78ZM655.174 1413.22H613.99V1433.82H655.174V1444.18H613.99V1464.78H655.174V1475H603.766V1403H655.174V1413.22ZM716.787 1413.22H727.155V1423.59H716.787V1475H706.562V1403H716.787V1413.22ZM727.155 1423.59H737.379V1433.82H727.155V1423.59ZM737.379 1444.18V1433.82H747.747V1444.18H737.379ZM747.747 1433.82V1423.59H757.971V1433.82H747.747ZM768.339 1403H778.562V1475H768.339V1423.59H757.971V1413.22H768.339V1403ZM830.012 1403V1413.22H799.052V1403H830.012ZM830.012 1413.22H840.236V1475H830.012V1444.18H799.052V1475H788.828V1413.22H799.052V1433.82H830.012V1413.22ZM850.422 1475V1464.78H891.606V1475H850.422ZM901.83 1464.78H891.606V1444.18H901.83V1464.78ZM891.606 1444.18H860.646V1433.82H891.606V1444.18ZM850.422 1413.22H860.646V1433.82H850.422V1413.22ZM901.83 1403V1413.22H860.646V1403H901.83ZM922.24 1433.82H932.608V1444.18H922.24V1475H912.016V1403H922.24V1433.82ZM942.832 1423.59V1433.82H932.608V1423.59H942.832ZM953.2 1413.22V1423.59H942.832V1413.22H953.2ZM963.424 1403V1413.22H953.2V1403H963.424ZM942.832 1454.41H932.608V1444.18H942.832V1454.41ZM953.2 1464.78H942.832V1454.41H953.2V1464.78ZM963.424 1475H953.2V1464.78H963.424V1475Z" fill="#0064FF"/>
</svg>
