<svg width="1330" height="1734" viewBox="0 0 1330 1734" fill="none" xmlns="http://www.w3.org/2000/svg">
<path d="M1271.5 57.8V0H1213.7V57.8H1155.9V0H1098.1V57.8H1040.3V0H982.5V57.8H924.7V0H866.9V57.8H809.1V0H751.3V57.8H693.5V0H635.7V57.8H577.9V0H520.1V57.8H462.3V0H404.5V57.8H346.8V0H289V57.8H231.2V0H173.4V57.8H115.6V0H57.8V57.8H0V1734H57.8V1676.2H115.6V1734H173.4V1676.2H231.2V1734H289V1676.2H346.8V1734H404.5V1676.2H462.3V1734H520.1V1676.2H577.9V1734H635.7V1676.2H693.5V1734H751.3V1676.2H809.1V1734H866.9V1676.2H924.7V1734H982.5V1676.2H1040.3V1734H1098.1V1676.2H1155.9V1734H1213.7V1676.2H1271.5V1734H1329.3V57.8H1271.5Z" fill="#59BCFF"/>
<path d="M1155.9 173.4H1184.8V202.3H1155.9V173.4ZM1155.9 1531.7H1184.8V1560.6H1155.9V1531.7Z" fill="#0064FF"/>
<path d="M1184.8 202.3V404.6H144.5V202.3H115.6V1531.7H144.5V1329.4H1184.9V1531.7H1213.8V202.3H1184.8ZM1184.8 1300.5H144.5V433.5H1184.9L1184.8 1300.5ZM1155.9 173.4V144.5H173.4V173.4H1155.9Z" fill="#0064FF"/>
<path d="M144.5 173.4H173.4V202.3H144.5V173.4ZM144.5 1531.7H173.4V1560.6H144.5V1531.7Z" fill="#0064FF"/>
<path d="M173.4 1560.6V1589.5H1155.9V1560.6H173.4Z" fill="#0064FF"/>
<path d="M144.5 1329.4V1531.7H173.4V1560.6H1155.9V1531.7H1184.8V1329.4H144.5ZM1155.9 202.3V173.4H173.4V202.3H144.5V404.6H1184.8V202.3H1155.9ZM144.5 433.5V1300.5H1184.8V433.5H144.5Z" fill="white"/>
<path d="M246.5 296.2H256.8V347.8H246.5V296.2ZM267.2 347.7V358.1H277.5V368.4H267.2V358.1H256.8V347.7H267.2ZM277.5 358.1V347.7H287.9V358.1H277.5ZM287.9 296.2H298.2V347.8H287.9V296.2ZM356.6 306.4H366.9V368.4H356.6V337.5H325.5V368.4H315.2V306.4H325.5V327.1H356.6V306.4ZM356.6 296.2V306.5H325.5V296.2H356.6ZM435.7 358.1V368.4H384.1V296.2H394.4V358.2H435.7V358.1ZM473.5 306.4V358.1H483.8V368.4H452.9V358.1H463.2V306.4H452.9V296.2H483.8V306.5L473.5 306.4ZM511.2 306.4V358.1H542.3V368.4H501V296.2H542.3V306.5H511.2V306.4ZM542.3 306.4H552.6V358.1H542.3V306.4ZM628.3 306.4V327.1H669.6V337.5H628.3V368.4H618V296.2H669.6V306.5H628.3V306.4ZM686.8 306.4H697.1V358.1H686.8V306.4ZM728.1 296.2V306.5H697V296.2H728.1ZM697.1 368.4V358.1H728.2V368.4H697.1ZM728.1 306.4H738.4V358.1H728.1V306.4ZM765.8 327.1H796.9V337.5H807.2V368.4H796.9V337.5H765.8V368.4H755.5V296.2H796.8V306.5H765.7L765.8 327.1ZM807.2 327.1H796.9V306.4H807.2V327.1ZM872.6 306.4H882.9V358.1H872.6V306.4ZM914 296.2V306.5H882.9V296.2H914ZM882.9 368.4V358.1H914V368.4H882.9ZM914 306.4H924.3V358.1H914V306.4ZM951.7 316.8H962.1V327.1H951.7V368.4H941.4V296.2H951.7V316.8ZM962.1 327.1H972.4V337.5H962.1V327.1ZM982.7 296.2H993V368.4H982.7V347.7H972.3V337.4H982.7V296.2ZM1020.5 306.4V327.1H1061.8V337.5H1020.5V358.2H1061.8V368.5H1010.2V296.2H1061.8V306.5L1020.5 306.4Z" fill="#0064FF"/>
<path d="M693.6 115.6V101.2H679.1V144.5H693.6V115.6Z" fill="#0B0072"/>
<path d="M708 144.5H693.6V173.4H708V144.5Z" fill="#0B0072"/>
<path d="M708 173.4V216.8H722.5V173.4H708Z" fill="#0B0072"/>
<path d="M693.6 216.8H708.1V231.3H693.6V216.8Z" fill="#0B0072"/>
<path d="M664.6 231.2H635.7V245.7H693.6V231.2H664.6Z" fill="#0B0072"/>
<path d="M635.7 115.6V144.5H650.2V101.2H635.7V115.6ZM606.8 187.9V216.8H621.3V173.4H606.8V187.9Z" fill="#1000A3"/>
<path d="M621.3 216.8H635.8V231.3H621.3V216.8ZM621.3 159V173.4H635.7V144.5H621.3V159ZM650.2 86.7V101.2H679.1V86.7H650.2Z" fill="#1000A3"/>
<path d="M650.2 159H664.7V173.5H650.2V159ZM679.1 216.8H693.6V231.3H679.1V216.8Z" fill="white"/>
<path d="M664.6 144.5V130.1H650.2V159H664.6V144.5Z" fill="#59BCFF"/>
<path d="M664.6 159H679.1V173.5H664.6V159Z" fill="#59BCFF"/>
<path d="M650.2 173.4H664.7V187.9H650.2V173.4ZM650.2 216.8V231.2H679.1V216.8H650.2Z" fill="#59BCFF"/>
<path d="M693.6 187.9V216.8H708V187.9H693.6ZM635.7 159H650.2V173.5H635.7V159Z" fill="#59BCFF"/>
<path d="M679.1 115.6V101.2H664.6V130.1H679.1V115.6ZM635.7 173.4H621.3V202.3H635.7V173.4Z" fill="#0000FF"/>
<path d="M679.1 144.5V202.3H635.7V216.8H693.6V144.5H679.1Z" fill="#0000FF"/>
<path d="M650.2 187.9H664.7V202.4H650.2V187.9ZM621.3 202.3H635.8V216.8H621.3V202.3Z" fill="#0080FF"/>
<path d="M635.7 216.8H650.2V231.3H635.7V216.8ZM635.7 144.5H650.2V159H635.7V144.5ZM664.6 144.5H679.1V159H664.6V144.5ZM664.6 173.4H679.1V187.9H664.6V173.4ZM693.6 173.4H708.1V187.9H693.6V173.4ZM635.7 173.4H650.2V187.9H635.7V173.4ZM650.2 115.6H664.7V130.1H650.2V115.6Z" fill="#0080FF"/>
<path d="M664.6 130.1H679.1V144.6H664.6V130.1ZM664.6 187.9H679.1V202.4H664.6V187.9ZM635.7 187.9H650.2V202.4H635.7V187.9ZM650.2 101.2H664.7V115.7H650.2V101.2Z" fill="#0064FF"/>
<path d="M489.7 992H514.7V1017H489.7V992ZM539.7 992H564.7V1017H539.7V992ZM839.7 992H864.7V1017H839.7V992ZM739.7 992H764.7V1017H739.7V992ZM789.7 992H814.7V1017H789.7V992ZM1039.7 992H1064.7V1017H1039.7V992ZM464.7 1067H589.7V1092H464.7V1067ZM939.7 992H964.7V1017H939.7V992ZM989.7 992H1014.7V1017H989.7V992ZM739.7 1067H864.7V1092H739.7V1067ZM689.7 992H714.7V1017H689.7V992ZM889.7 992H914.7V1017H889.7V992Z" fill="#7D7D7D"/>
<path d="M589.7 767H614.7V1017H589.7V767ZM714.7 767H739.7V992H714.7V767ZM339.7 992H364.7V1017H339.7V992ZM439.7 992H464.7V1017H439.7V992ZM389.7 992H414.7V1017H389.7V992ZM289.7 992H314.7V1017H289.7V992ZM639.7 992H664.7V1017H639.7V992Z" fill="#7D7D7D"/>
<path d="M464.7 1042H589.7V1067H464.7V1042ZM739.7 1042H864.7V1067H739.7V1042ZM1114.7 642H1139.7V792H1114.7V642ZM189.7 642H214.7V792H189.7V642ZM964.7 717H989.7V842H964.7V717ZM339.7 717H364.7V842H339.7V717ZM289.7 692H314.7V792H289.7V692ZM1014.7 692H1039.7V792H1014.7V692ZM389.7 742H414.7V892H389.7V742ZM914.7 742H939.7V892H914.7V742ZM614.7 767V992H714.7V767H614.7ZM689.7 967H639.7V942H689.7V967ZM689.7 917H639.7V892H689.7V917ZM689.7 867H639.7V842H689.7V867ZM689.7 817H639.7V792H689.7V817ZM464.7 942V917H539.7V892H464.7V867H539.7V842H464.7V817H539.7V792H439.7V942H264.7V967H289.7V992H314.7V967H339.7V992H364.7V967H389.7V992H414.7V967H439.7V992H464.7V967H489.7V992H514.7V967H539.7V992H564.7V967H589.7V942H464.7ZM889.7 942V792H789.7V817H864.7V842H789.7V867H864.7V892H789.7V917H864.7V942H739.7V992H764.7V967H789.7V992H814.7V967H839.7V992H864.7V967H889.7V992H914.7V967H939.7V992H964.7V967H989.7V992H1014.7V967H1039.7V992H1064.7V942H889.7Z" fill="#46CDFF"/>
<path d="M1064.7 642V667H1039.7V792H1014.7V692H989.7V842H964.7V717H939.7V892H914.7V742H889.7V942H1064.7V792H1089.7V642H1064.7ZM464.7 817H539.7V842H464.7V817ZM464.7 917H539.7V942H464.7V917ZM639.7 842H689.7V867H639.7V842ZM789.7 917H864.7V942H789.7V917ZM789.7 817H864.7V842H789.7V817ZM264.7 942H439.7V742H414.7V892H389.7V717H364.7V842H339.7V692H314.7V792H289.7V667H264.7V642H239.7V792H264.7V942ZM789.7 867H864.7V892H789.7V867ZM464.7 867H539.7V892H464.7V867ZM639.7 892H689.7V917H639.7V892ZM639.7 792H689.7V817H639.7V792ZM639.7 942H689.7V967H639.7V942ZM1039.7 967H1014.7V1017H989.7V967H964.7V1017H939.7V967H914.7V1017H889.7V967H864.7V1017H839.7V967H814.7V1017H789.7V967H764.7V1017H739.7V992H714.7V1017H689.7V992H664.7V1017H639.7V992H614.7V1017H589.7V967H564.7V1017H539.7V967H514.7V1017H489.7V967H464.7V1017H439.7V967H414.7V1017H389.7V967H364.7V1017H339.7V967H314.7V1017H289.7V967H264.7V1092H339.7V1042H989.7V1092H1064.7V1017H1039.7V967Z" fill="black"/>
<path d="M1114.7 642H1139.7V617H1114.7V592H1089.7V617H1064.7V642H1089.7V792H1114.7V642ZM339.7 692H389.7V717H339.7V692Z" fill="#232323"/>
<path d="M389.7 717H439.7V742H389.7V717Z" fill="#232323"/>
<path d="M439.7 792H539.7V942H589.7V767H539.7V742H439.7V792ZM939.7 692H989.7V717H939.7V692ZM264.7 642H289.7V667H264.7V642ZM1139.7 642V792H1114.7V817H1164.7V642H1139.7Z" fill="#232323"/>
<path d="M239.7 642H264.7V617H239.7V592H214.7V617H189.7V642H214.7V792H239.7V642Z" fill="#232323"/>
<path d="M189.7 642H164.7V817H214.7V792H189.7V642ZM1039.7 642H1064.7V667H1039.7V642ZM1064.7 1092H989.7V1142H1089.7V792H1064.7V1092ZM889.7 717H939.7V742H889.7V717Z" fill="#232323"/>
<path d="M789.7 742V767H739.7V942H789.7V792H889.7V742H789.7ZM289.7 667H339.7V692H289.7V667ZM989.7 667H1039.7V692H989.7V667ZM339.7 1042H464.7V1092H339.7V1042ZM864.7 1042H989.7V1092H864.7V1042ZM589.7 1042H739.7V1092H589.7V1042Z" fill="#232323"/>
<path d="M264.7 1092V792H239.7V1142H339.7V1092H264.7ZM464.7 1092H589.7V1142H464.7V1092ZM739.7 1092H864.7V1142H739.7V1092Z" fill="#232323"/>
<path d="M305.521 1423.59H315.889V1433.82H305.521V1475H295.297V1403H305.521V1423.59ZM315.889 1433.82H326.113V1444.18H315.889V1433.82ZM336.481 1403H346.705V1475H336.481V1454.41H326.113V1444.18H336.481V1403ZM367.115 1475V1464.78H398.075V1475H367.115ZM356.891 1413.22H367.115V1464.78H356.891V1413.22ZM398.075 1403V1413.22H367.115V1403H398.075ZM398.075 1413.22H408.299V1464.78H398.075V1413.22ZM469.892 1475H428.708V1464.78H459.668V1433.82H469.892V1475ZM418.484 1413.22H428.708V1464.78H418.484V1413.22ZM469.892 1403V1413.22H428.708V1403H469.892ZM521.262 1403V1413.22H490.302V1403H521.262ZM521.262 1413.22H531.486V1475H521.262V1444.18H490.302V1475H480.078V1413.22H490.302V1433.82H521.262V1413.22ZM593.08 1433.82H582.856V1413.22H593.08V1433.82ZM551.896 1433.82H582.856V1444.18H593.08V1475H582.856V1444.18H551.896V1475H541.672V1403H582.856V1413.22H551.896V1433.82ZM644.45 1403V1413.22H613.49V1403H644.45ZM644.45 1413.22H654.674V1475H644.45V1444.18H613.49V1475H603.266V1413.22H613.49V1433.82H644.45V1413.22ZM747.247 1403V1413.22H716.287V1403H747.247ZM747.247 1413.22H757.471V1475H747.247V1444.18H716.287V1475H706.062V1413.22H716.287V1433.82H747.247V1413.22ZM819.064 1433.82H808.84V1413.22H819.064V1433.82ZM777.88 1433.82H808.84V1444.18H819.064V1475H808.84V1444.18H777.88V1475H767.656V1403H808.84V1413.22H777.88V1433.82ZM839.474 1413.22H849.842V1423.59H839.474V1475H829.25V1403H839.474V1413.22ZM849.842 1423.59H860.066V1433.82H849.842V1423.59ZM860.066 1444.18V1433.82H870.434V1444.18H860.066ZM870.434 1433.82V1423.59H880.658V1433.82H870.434ZM891.026 1403H901.25V1475H891.026V1423.59H880.658V1413.22H891.026V1403ZM921.74 1475V1464.78H952.7V1475H921.74ZM911.516 1413.22H921.74V1464.78H911.516V1413.22ZM952.7 1403V1413.22H921.74V1403H952.7ZM952.7 1413.22H962.924V1464.78H952.7V1413.22ZM1024.52 1433.82H1014.29V1413.22H1024.52V1433.82ZM983.333 1433.82H1014.29V1444.18H1024.52V1475H1014.29V1444.18H983.333V1475H973.109V1403H1014.29V1413.22H983.333V1433.82Z" fill="#0064FF"/>
</svg>
