<svg xmlns="http://www.w3.org/2000/svg" viewBox="0 0 1329.4 1734"  xmlns:v="https://vecta.io/nano"><path d="M1300.5 57.8h-28.9V0h-57.8v57.8H1156V0h-57.8v57.8h-57.8V0h-57.8v57.8h-57.8V0H867v57.8h-57.8V0h-57.8v57.8h-57.8V0h-57.8v57.8H578V0h-57.8v57.8h-57.8V0h-57.8v57.8h-57.8V0H289v57.8h-57.8V0h-57.8v57.8h-57.8V0H57.8v57.8H0V1734h57.8v-57.8h57.8v57.8h57.8v-57.8h57.8v57.8H289v-57.8h57.8v57.8h57.8v-57.8h57.8v57.8h57.8v-57.8H578v57.8h57.8v-57.8h57.8v57.8h57.8v-57.8h57.8v57.8H867v-57.8h57.8v57.8h57.8v-57.8h57.8v57.8h57.8v-57.8h57.8v57.8h57.8v-57.8h57.8v57.8h57.8V57.8z" fill="#51ffa8"/><g fill="#1e661e"><path d="M1156 173.4h28.9v28.9H1156zm0 1358.3h28.9v28.9H1156z"/><path d="M1184.9 202.3v202.3H144.5V202.3h-28.9v1329.4h28.9v-202.3h1040.4v202.3h28.9V202.3h-28.9zm0 260.1v838.1H144.5v-867h1040.4v28.9zm-953.7-289H1156v-28.9H173.4v28.9h28.9z"/><path d="M144.5 173.4h28.9v28.9h-28.9zm0 1358.3h28.9v28.9h-28.9z"/><path d="M1098.2 1560.6H173.4v28.9H1156v-28.9h-28.9z"/></g><path d="M1127.1 1329.4H144.5v202.3h28.9v28.9H1156v-28.9h28.9v-202.3H1156zM1156 202.3v-28.9H173.4v28.9h-28.9v202.3h1040.4V202.3zm-28.9 231.2H144.5v867h1040.4v-867H1156z" fill="#fff"/><path d="M405.3 1409.8h11v66.5h-11v-33.2H372v33.2h-11v-66.5h11v22.2h33.3v-22.2zm0-11v11H372v-11h33.3zm70.2 11h11v66.5h-11v-33.2h-33.3v33.2h-11v-66.5h11v22.2h33.3v-22.2zm0-11v11h-33.3v-11h33.3zm25.9 0h11v55.3h-11v-55.3zm22.1 55.3v11.2h11v11h-11v-11h-11.2v-11.2h11.2zm11 11.2v-11.2h11.2v11.2h-11.2zm11.2-66.5h11v55.3h-11v-55.3zm36.9 11v22.2h44.3v11.2h-44.3v22.2h44.3v11h-55.3v-77.5h55.3v11h-44.3zM701 1432h33.3v11.2H701v22.2h33.3v11H690v-77.5h44.3v11H701v22.1zm44.3 0h-11v-22.2h11v22.2zm0 33.3h-11v-22.2h11v22.2zm14.9-55.5h11v55.5h-11v-55.5zm44.4-11v11h-33.3v-11h33.3zm-33.4 77.5v-11h33.3v11h-33.3zm33.4-66.5h11v55.5h-11v-55.5zm70.2 0h11v66.5h-11v-33.2h-33.3v33.2h-11v-66.5h11v22.2h33.3v-22.2zm0-11v11h-33.3v-11h33.3zm81.2 11h-22.2v66.5h-11v-66.5h-22.2v-11H956v11zM239.4 292.5h11v55.3h-11v-55.3zm22.2 55.3V359h11v11h-11v-11h-11.2v-11.2h11.2zm11 11.2v-11.2h11.2V359h-11.2zm11.2-66.5h11v55.3h-11v-55.3zm70.2 11h11V370h-11v-33.2h-33.3V370h-11v-66.5h11v22.2H354v-22.2zm0-11v11h-33.3v-11H354zm81.2 66.5v11h-55.3v-77.5h11V359h44.3zm37-55.5V359h11v11H450v-11h11v-55.5h-11v-11h33.2v11h-11zm36.9 0V359h33.3v11h-44.3v-77.5h44.3v11h-33.3zm33.4 0h11V359h-11v-55.5zm85.1 0v22.2h44.3v11.2h-44.3V370h-11v-77.5h55.3v11h-44.3zm59.2 0h11V359h-11v-55.5zm44.3-11v11h-33.3v-11h33.3zM697.8 370v-11h33.3v11h-33.3zm33.3-66.5h11V359h-11v-55.5zm36.9 22.2h33.3v11.2h11V370h-11v-33.2H768V370h-11v-77.5h44.3v11H768v22.2zm44.3 0h-11v-22.2h11v22.2zm63.1-22.2h11V359h-11v-55.5zm44.3-11v11h-33.3v-11h33.3zM886.4 370v-11h33.3v11h-33.3zm33.3-66.5h11V359h-11v-55.5zm36.9 11.2h11.2v11h-11.2V370h-11v-77.5h11v22.2zm11.2 11h11v11.2h-11v-11.2zm22.1-33.2h11V370h-11v-22.2h-11.2v-11h11.2v-44.3zm36.9 11v22.2h44.3v11.2h-44.3V359h44.3v11h-55.3v-77.5h55.3v11h-44.3z" fill="#1e661e"/><g fill="#00a0f5"><path d="M995.2 1053.2h-18.1v18.1h54.3v-18.1h-36.2zm54.3 0h18.1v18.1h-18.1v-18.1z"/><path d="M940.9 1071.3H235v18.1h742.1v-18.1h-36.2z"/><path d="M216.9 1053.2h-36.2v18.1H235v-18.1h-18.1zm-72.4 0h18.1v18.1h-18.1v-18.1z"/></g><g fill="#fff"><path d="M1085.7 854.1h36.2V836h-181v36.2h126.7v-18.1h18.1z"/><path d="M1140 854.1h-18.1v18.1h-54.3v18.1H180.7v108.6h18.1v18.1h18.1v18.1H235v18.1h742.1v-18.1h18.1V1017h18.1v-18.1h18.1v-18.1h18.1v-18.1h18.1v-18.1h18.1v-18.1h18.1v-18.1h18.1v-18.1h18.1v-18.1h18.1v-18.1H1140zM325.5 962.7h144.8v18.1H325.5v-18.1zm597.3 18.1H778v-18.1h162.9v18.1h-18.1zM216.9 872.2h108.6V836H198.8v18.1h-18.1v18.1h36.2z"/></g><g fill="#e1dad7"><path d="M434.1 962.7H325.5v18.1h144.8v-18.1h-36.2zm470.6 0H778v18.1h162.9v-18.1h-36.2zm199.1-90.5h18.1v-18.1h-54.3v18.1h36.2zm0-54.3H940.9V836h181v-18.1h-18.1zM235 836h90.5v-18.1H198.8V836H235z"/><path d="M180.7,836h18.1v18.1h-18.1V836z"/><path d="M180.7 962.7v-72.4h886.9v-18.1H180.7v-18.1h-18.1v144.8h18.1v-36.2z"/><path d="M180.7 998.9h18.1v18.1h-18.1v-18.1zM1121.9 836v18.1h36.2v18.1h18.1V836h-54.3z"/><path d="M1140,872.2h18.1v18.1H1140V872.2z"/><path d="M1121.9,890.3h18.1v18.1h-18.1V890.3z"/><path d="M1103.8,908.4h18.1v18.1h-18.1V908.4z"/><path d="M1085.7,926.5h18.1v18.1h-18.1V926.5z"/><path d="M1067.6,944.6h18.1v18.1h-18.1V944.6z"/><path d="M1049.5,962.7h18.1v18.1h-18.1V962.7z"/><path d="M1031.4,980.8h18.1v18.1h-18.1V980.8z"/><path d="M1013.3 998.9h18.1v18.1h-18.1v-18.1z"/><path d="M995.2,1017h18.1v18.1h-18.1V1017z"/><path d="M977.1 1035.1h18.1v18.1h-18.1v-18.1z"/><path d="M940.9 1053.2H235v18.1h742.1v-18.1h-36.2zM198.8 1017h18.1v18.1h-18.1V1017z"/><path d="M216.9 1035.1H235v18.1h-18.1v-18.1zm307.7-72.4h-18.1v-18.1h-18.1v72.4h18.1v-36.2h18.1v36.2h18.1v-72.4h-18.1v18.1z"/><path d="M597 962.7h-18.1v-18.1h-18.1v72.4h18.1v-36.2H597v36.2h18.1v-72.4H597v18.1zm-90.5-36.2h18.1v18.1h-18.1v-18.1z"/><path d="M578.9 926.5H597v18.1h-18.1v-18.1zm90.5 18.1v54.3h18.1v-72.4h-18.1v18.1zm54.3-18.1h-18.1v90.5h54.3v-18.1h-36.2v-18.1h36.2v-18.1h-36.2v-18.1h36.2v-18.1h-36.2zm-72.4 36.2v-36.2h-18.1v72.4h18.1v-36.2z"/><path d="M651.3,998.9h18.1v18.1h-18.1V998.9z"/></g><g fill="#815382"><path d="M592.4 158.9h14.5v14.5h-14.5zm14.5 72.3h-14.5v28.9h14.5v-14.5zm86.7-144.5h14.5v14.5h-14.5z"/><path d="M708.1 130h14.4v-28.9h-14.4v14.5zm14.4 115.6H737v14.5h-14.5z"/><path d="M708.1 260.1h14.5v14.5h-14.5zm-101.2 0h14.5v14.5h-14.5zm28.9 43.3h14.5v14.5h-14.5zm-57.8-130h14.5v14.5H578z"/></g><g fill="#fff"><path d="M621.3 202.3v-14.5h14.5v-43.3h14.4V130h14.5v-14.4h14.4v-14.5h-28.9v14.5h-14.4V130h-14.5v43.4h-14.4v43.3h14.4zm0 72.2h14.5V289h-14.5z"/><path d="M664.7 289h-28.9v14.4h57.8V289h-14.5z"/><path d="M693.6 274.5V289h14.5v-28.9h-14.5z"/><path d="M708.1 231.2v28.9h14.4v-43.4h-14.4z"/><path d="M722.5 173.4v43.3H737v-43.3z"/><path d="M722.5 144.5V130h-14.4v43.4h14.4v-14.5zm-43.4-28.9h14.5v14.5h-14.5z"/></g><g fill="#2b59ff"><path d="M650.2 202.3h-14.4v14.4h28.9v-28.9h-14.5zm14.5-86.7h14.5v14.5h-14.5z"/><path d="M679.1 130h14.5v14.5h-14.5z"/></g><g fill="#54acff"><path d="M635.8 86.7h14.5v14.5h-14.5zM606.9 130h14.5v14.5h-14.5zm72.2 72.3v-14.5h-14.4v28.9h14.4zm0 72.2h14.5V289h-14.5z"/><path d="M635.8 216.7v14.5h28.9v-14.5h-14.5zm43.3-115.6h14.5v14.5h-14.5z"/><path d="M693.6 115.6v28.9h14.5v-28.9z"/><path d="M679.1 144.5h14.5V159h-14.5zm-43.3 28.9h14.5v14.5h-14.5z"/></g><g fill="#51ffa8"><path d="M635.8 101.1h14.5v14.5h-14.5zm57.8 0h14.5v14.5h-14.5zm-72.3 86.7v14.5h28.9v-14.5h-14.4zm-14.4 57.8v14.5h28.9v-14.5h-14.5zm43.3 14.5h14.5v14.5h-14.5zm28.9-14.5h14.5v14.5h-14.5z"/><path d="M693.6 231.2h14.5v14.5h-14.5zm-43.4-57.8h14.5v14.5h-14.5zm28.9-14.5h14.5v14.5h-14.5zm-57.8-43.3h14.5v14.5h-14.5z"/></g><g fill="#0f0"><path d="M693.6 158.9v14.5h-28.9v14.4h43.4v-28.9zm-72.3-57.8h14.5v14.5h-14.5zm28.9 144.5v14.5h28.9v-14.5h-14.4z"/><path d="M621.3 260.1v14.4h28.9v-14.4h-14.4z"/></g><g fill="#baffff"><path d="M621.3 158.9v-14.4h-14.4v28.9h14.4zm43.4 14.5h14.4v-14.5h-28.9v-14.4h-14.4v28.9h14.4zm43.4 0v14.4h-29v43.4h-72.2v14.4h28.9v14.5h14.4v-14.5h43.4v-14.4h14.5v-14.5h-14.5v-14.4h14.5v14.4h14.4v-43.3z"/><path d="M693.6 245.6h14.5v14.5h-14.5z"/><path d="M664.7 260.1v14.4h-28.9V289h43.3v-14.5h14.5v-14.4h-14.5zm28.9-115.6h14.5V159h-14.5zm-86.7 57.8v-28.9h-14.5v43.3h14.5zm72.2-101.2h14.5V86.7h-43.4v14.4h14.5z"/></g><g fill="#1e661e"><path d="M621.3 115.6v-14.5h-14.4V130h14.4z"/><path d="M606.9 144.5V130h-14.5v28.9h14.5zM578 202.3v14.4h14.4v-28.9H578zm28.9 72.2h14.5V289h-14.5z"/><path d="M621.3 289h14.5v14.5h-14.5zM737 144.5V130h-14.5v28.9H737zm0 43.3v28.9h14.4v-28.9zM664.7 72.2h-14.5v14.5h43.4V72.2h-14.5zm0 231.2h-14.5v14.5h43.4v-14.5h-14.5z"/></g><g fill="#33297c"><path d="M722.5 158.9H737v14.5h-14.5z"/><path d="M737 173.4h14.5v14.5H737zm-14.5 57.8v14.4H737v-28.9h-14.5zm-14.4 43.3h14.5V289h-14.5z"/><path d="M693.6 289h14.5v14.5h-14.5zM635.8 72.2h14.5v14.5h-14.5z"/><path d="M621.3 86.7h14.5v14.5h-14.5zm-28.9 130h14.5v14.5h-14.5z"/></g><g fill="#ffc4e1"><path d="M606.9 216.7h14.5v14.5h-14.5z"/><path d="M621.3 202.3h14.5v14.5h-14.5zm43.4 14.4h14.5v14.5h-14.5zM650.2 130h14.5v14.5h-14.5z"/><path d="M664.7 144.5h14.5V159h-14.5z"/></g><g fill="#ff93c9"><path d="M621.3 216.7h14.5v14.5h-14.5zm72.3-14.4h14.5v14.5h-14.5zm-43.4-57.8h14.5V159h-14.5z"/><path d="M664.7 130h14.5v14.5h-14.5z"/></g></svg>