<svg width="1330" height="1734" viewBox="0 0 1330 1734" fill="none" xmlns="http://www.w3.org/2000/svg">
<path d="M1271.5 57.8V0H1213.7V57.8H1155.9V0H1098.1V57.8H1040.3V0H982.5V57.8H924.7V0H866.9V57.8H809.1V0H751.3V57.8H693.5V0H635.7V57.8H577.9V0H520.1V57.8H462.3V0H404.5V57.8H346.8V0H289V57.8H231.2V0H173.4V57.8H115.6V0H57.8V57.8H0V1734H57.8V1676.2H115.6V1734H173.4V1676.2H231.2V1734H289V1676.2H346.8V1734H404.5V1676.2H462.3V1734H520.1V1676.2H577.9V1734H635.7V1676.2H693.5V1734H751.3V1676.2H809.1V1734H866.9V1676.2H924.7V1734H982.5V1676.2H1040.3V1734H1098.1V1676.2H1155.9V1734H1213.7V1676.2H1271.5V1734H1329.3V57.8H1271.5Z" fill="#59BCFF"/>
<path d="M1155.9 173.4H1184.8V202.3H1155.9V173.4ZM1155.9 1531.7H1184.8V1560.6H1155.9V1531.7Z" fill="#0064FF"/>
<path d="M1184.8 202.3V404.6H144.5V202.3H115.6V1531.7H144.5V1329.4H1184.9V1531.7H1213.8V202.3H1184.8ZM1184.8 1300.5H144.5V433.5H1184.9L1184.8 1300.5ZM1155.9 173.4V144.5H173.4V173.4H1155.9Z" fill="#0064FF"/>
<path d="M144.5 173.4H173.4V202.3H144.5V173.4ZM144.5 1531.7H173.4V1560.6H144.5V1531.7Z" fill="#0064FF"/>
<path d="M173.4 1560.6V1589.5H1155.9V1560.6H173.4Z" fill="#0064FF"/>
<path d="M144.5 1329.4V1531.7H173.4V1560.6H1155.9V1531.7H1184.8V1329.4H144.5ZM1155.9 202.3V173.4H173.4V202.3H144.5V404.6H1184.8V202.3H1155.9ZM144.5 433.5V1300.5H1184.8V433.5H144.5Z" fill="white"/>
<path d="M246.5 296.2H256.8V347.8H246.5V296.2ZM267.2 347.7V358.1H277.5V368.4H267.2V358.1H256.8V347.7H267.2ZM277.5 358.1V347.7H287.9V358.1H277.5ZM287.9 296.2H298.2V347.8H287.9V296.2ZM356.6 306.4H366.9V368.4H356.6V337.5H325.5V368.4H315.2V306.4H325.5V327.1H356.6V306.4ZM356.6 296.2V306.5H325.5V296.2H356.6ZM435.7 358.1V368.4H384.1V296.2H394.4V358.2H435.7V358.1ZM473.5 306.4V358.1H483.8V368.4H452.9V358.1H463.2V306.4H452.9V296.2H483.8V306.5L473.5 306.4ZM511.2 306.4V358.1H542.3V368.4H501V296.2H542.3V306.5H511.2V306.4ZM542.3 306.4H552.6V358.1H542.3V306.4ZM628.3 306.4V327.1H669.6V337.5H628.3V368.4H618V296.2H669.6V306.5H628.3V306.4ZM686.8 306.4H697.1V358.1H686.8V306.4ZM728.1 296.2V306.5H697V296.2H728.1ZM697.1 368.4V358.1H728.2V368.4H697.1ZM728.1 306.4H738.4V358.1H728.1V306.4ZM765.8 327.1H796.9V337.5H807.2V368.4H796.9V337.5H765.8V368.4H755.5V296.2H796.8V306.5H765.7L765.8 327.1ZM807.2 327.1H796.9V306.4H807.2V327.1ZM872.6 306.4H882.9V358.1H872.6V306.4ZM914 296.2V306.5H882.9V296.2H914ZM882.9 368.4V358.1H914V368.4H882.9ZM914 306.4H924.3V358.1H914V306.4ZM951.7 316.8H962.1V327.1H951.7V368.4H941.4V296.2H951.7V316.8ZM962.1 327.1H972.4V337.5H962.1V327.1ZM982.7 296.2H993V368.4H982.7V347.7H972.3V337.4H982.7V296.2ZM1020.5 306.4V327.1H1061.8V337.5H1020.5V358.2H1061.8V368.5H1010.2V296.2H1061.8V306.5L1020.5 306.4Z" fill="#0064FF"/>
<path d="M693.6 115.6V101.2H679.1V144.5H693.6V115.6Z" fill="#0B0072"/>
<path d="M708 144.5H693.6V173.4H708V144.5Z" fill="#0B0072"/>
<path d="M708 173.4V216.8H722.5V173.4H708Z" fill="#0B0072"/>
<path d="M693.6 216.8H708.1V231.3H693.6V216.8Z" fill="#0B0072"/>
<path d="M664.6 231.2H635.7V245.7H693.6V231.2H664.6Z" fill="#0B0072"/>
<path d="M635.7 115.6V144.5H650.2V101.2H635.7V115.6ZM606.8 187.9V216.8H621.3V173.4H606.8V187.9Z" fill="#1000A3"/>
<path d="M621.3 216.8H635.8V231.3H621.3V216.8ZM621.3 159V173.4H635.7V144.5H621.3V159ZM650.2 86.7V101.2H679.1V86.7H650.2Z" fill="#1000A3"/>
<path d="M650.2 159H664.7V173.5H650.2V159ZM679.1 216.8H693.6V231.3H679.1V216.8Z" fill="white"/>
<path d="M664.6 144.5V130.1H650.2V159H664.6V144.5Z" fill="#59BCFF"/>
<path d="M664.6 159H679.1V173.5H664.6V159Z" fill="#59BCFF"/>
<path d="M650.2 173.4H664.7V187.9H650.2V173.4ZM650.2 216.8V231.2H679.1V216.8H650.2Z" fill="#59BCFF"/>
<path d="M693.6 187.9V216.8H708V187.9H693.6ZM635.7 159H650.2V173.5H635.7V159Z" fill="#59BCFF"/>
<path d="M679.1 115.6V101.2H664.6V130.1H679.1V115.6ZM635.7 173.4H621.3V202.3H635.7V173.4Z" fill="#0000FF"/>
<path d="M679.1 144.5V202.3H635.7V216.8H693.6V144.5H679.1Z" fill="#0000FF"/>
<path d="M650.2 187.9H664.7V202.4H650.2V187.9ZM621.3 202.3H635.8V216.8H621.3V202.3Z" fill="#0080FF"/>
<path d="M635.7 216.8H650.2V231.3H635.7V216.8ZM635.7 144.5H650.2V159H635.7V144.5ZM664.6 144.5H679.1V159H664.6V144.5ZM664.6 173.4H679.1V187.9H664.6V173.4ZM693.6 173.4H708.1V187.9H693.6V173.4ZM635.7 173.4H650.2V187.9H635.7V173.4ZM650.2 115.6H664.7V130.1H650.2V115.6Z" fill="#0080FF"/>
<path d="M664.6 130.1H679.1V144.6H664.6V130.1ZM664.6 187.9H679.1V202.4H664.6V187.9ZM635.7 187.9H650.2V202.4H635.7V187.9ZM650.2 101.2H664.7V115.7H650.2V101.2Z" fill="#0064FF"/>
<path d="M764.7 792V742H739.7V692H714.7V667H664.7V642H589.7V667H564.7V692H539.7V742H514.7V792H489.7V992H514.7V1042H539.7V1067H564.7V1092H664.7V1067H714.7V1042H764.7V992H789.7V792H764.7Z" fill="#46CDFF"/>
<path d="M564.7 642H589.7V667H564.7V642ZM514.7 692H539.7V742H514.7V692ZM464.7 792H489.7V992H464.7V792ZM789.7 692H814.7V742H789.7V692Z" fill="#003A87"/>
<path d="M539.7 667H564.7V692H539.7V667ZM764.7 667H789.7V692H764.7V667Z" fill="#003A87"/>
<path d="M739.7 642H764.7V667H739.7V642ZM614.7 592H714.7V617H614.7V592Z" fill="#003A87"/>
<path d="M589.7 617H614.7V642H589.7V617ZM714.7 617H739.7V642H714.7V617ZM489.7 742H514.7V792H489.7V742ZM814.7 742H839.7V792H814.7V742Z" fill="#003A87"/>
<path d="M839.7 792H864.7V992H839.7V792ZM564.7 1092H614.7V1117H564.7V1092ZM714.7 1092H764.7V1117H714.7V1092ZM514.7 1042H539.7V1067H514.7V1042Z" fill="#003A87"/>
<path d="M489.7 992H514.7V1042H489.7V992ZM789.7 1042H814.7V1067H789.7V1042Z" fill="#003A87"/>
<path d="M814.7 992H839.7V1042H814.7V992ZM614.7 1117H714.7V1142H614.7V1117ZM539.7 1067H564.7V1092H539.7V1067ZM764.7 1067H789.7V1092H764.7V1067Z" fill="#003A87"/>
<path d="M589.7 642H614.7V667H589.7V642Z" fill="#A3E6FF"/>
<path d="M564.7 667H589.7V692H564.7V667Z" fill="#A3E6FF"/>
<path d="M539.7 692H564.7V742H539.7V692ZM489.7 792H514.7V992H489.7V792Z" fill="#A3E6FF"/>
<path d="M514.7 992H539.7V1042H514.7V992Z" fill="#A3E6FF"/>
<path d="M539.7 1042H564.7V1067H539.7V1042Z" fill="#A3E6FF"/>
<path d="M564.7 1067H614.7V1092H564.7V1067ZM514.7 742H539.7V792H514.7V742Z" fill="#A3E6FF"/>
<path d="M814.7 792V742H789.7V692H764.7V667H739.7V642H714.7V617H614.7V642H664.7V667H714.7V692H739.7V742H764.7V792H789.7V992H764.7V1042H714.7V1067H664.7V1092H614.7V1117H714.7V1092H764.7V1067H789.7V1042H814.7V992H839.7V792H814.7Z" fill="#0093FF"/>
<path d="M552.2 854.5H577.2V829.5H527.2V954.5H577.2V929.5H552.2V854.5Z" fill="white"/>
<path d="M577.2 854.5H602.2V929.5H577.2V854.5ZM677.2 904.5H652.2V854.5H677.2V829.5H627.2V954.5H652.2V929.5H677.2V954.5H702.2V854.5H677.2V904.5ZM727.2 829.5V954.5H802.2V829.5H727.2ZM777.2 929.5H752.2V854.5H777.2V929.5Z" fill="white"/>
<path d="M470.341 1413.22V1464.78H501.301V1475H460.117V1403H501.301V1413.22H470.341ZM501.301 1413.22H511.525V1464.78H501.301V1413.22ZM562.895 1403V1413.22H531.935V1403H562.895ZM562.895 1413.22H573.119V1475H562.895V1444.18H531.935V1475H521.711V1413.22H531.935V1433.82H562.895V1413.22ZM593.529 1475V1464.78H624.489V1475H593.529ZM583.305 1413.22H593.529V1464.78H583.305V1413.22ZM624.489 1403V1413.22H593.529V1403H624.489ZM624.489 1413.22H634.713V1464.78H624.489V1413.22ZM737.51 1413.22H696.326V1433.82H737.51V1444.18H696.326V1464.78H737.51V1475H686.102V1403H737.51V1413.22ZM799.103 1475H757.919V1464.78H788.879V1433.82H799.103V1475ZM747.695 1413.22H757.919V1464.78H747.695V1413.22ZM799.103 1403V1413.22H757.919V1403H799.103ZM860.697 1475H819.513V1464.78H850.473V1433.82H860.697V1475ZM809.289 1413.22H819.513V1464.78H809.289V1413.22ZM860.697 1403V1413.22H819.513V1403H860.697Z" fill="#0064FF"/>
</svg>
