<svg width="1330" height="1734" viewBox="0 0 1330 1734" fill="none" xmlns="http://www.w3.org/2000/svg">
<path d="M1271.6 57.8V0H1213.8V57.8H1156V0H1098.2V57.8H1040.4V0H982.6V57.8H924.8V0H867V57.8H809.2V0H751.4V57.8H693.6V0H635.8V57.8H578V0H520.2V57.8H462.4V0H404.6V57.8H346.8V0H289V57.8H231.2V0H173.4V57.8H115.6V0H57.8V57.8H0V1734H57.8V1676.2H115.6V1734H173.4V1676.2H231.2V1734H289V1676.2H346.8V1734H404.6V1676.2H462.4V1734H520.2V1676.2H578V1734H635.8V1676.2H693.6V1734H751.4V1676.2H809.2V1734H867V1676.2H924.8V1734H982.6V1676.2H1040.4V1734H1098.2V1676.2H1156V1734H1213.8V1676.2H1271.6V1734H1329.4V57.8H1271.6Z" fill="#51FFA8"/>
<path d="M1156 173.4H1184.9V202.3H1156V173.4ZM1156 1531.7H1184.9V1560.6H1156V1531.7Z" fill="#1E661E"/>
<path d="M1184.9 202.3V404.6H144.5V202.3H115.6V1531.7H144.5V1329.4H1184.9V1531.7H1213.8V202.3H1184.9ZM1184.9 1300.5H144.5V433.5H1184.9V1300.5ZM1156 173.4V144.5H173.4V173.4H1156Z" fill="#1E661E"/>
<path d="M144.5 173.4H173.4V202.3H144.5V173.4ZM144.5 1531.7H173.4V1560.6H144.5V1531.7Z" fill="#1E661E"/>
<path d="M173.4 1560.6V1589.5H1156V1560.6H173.4Z" fill="#1E661E"/>
<path d="M144.5 1329.4V1531.7H173.4V1560.6H1156V1531.7H1184.9V1329.4H144.5ZM1156 202.3V173.4H173.4V202.3H144.5V404.6H1184.9V202.3H1156ZM144.5 433.5V1300.5H1184.9V433.5H144.5Z" fill="white"/>
<path d="M239.4 292.5H250.4V347.8H239.4V292.5ZM261.6 347.8V359H272.6V370H261.6V359H250.4V347.8H261.6ZM272.6 359V347.8H283.8V359H272.6ZM283.8 292.5H294.8V347.8H283.8V292.5ZM354 303.5H365V370H354V336.8H320.7V370H309.7V303.5H320.7V325.7H354V303.5ZM354 292.5V303.5H320.7V292.5H354ZM435.2 359V370H379.9V292.5H390.9V359H435.2ZM472.2 303.5V359H483.2V370H450V359H461V303.5H450V292.5H483.2V303.5H472.2ZM509.1 303.5V359H542.4V370H498.1V292.5H542.4V303.5H509.1ZM542.5 303.5H553.5V359H542.5V303.5ZM627.6 303.5V325.7H671.9V336.9H627.6V370H616.6V292.5H671.9V303.5H627.6ZM686.8 303.5H697.8V359H686.8V303.5ZM731.1 292.5V303.5H697.8V292.5H731.1ZM697.8 370V359H731.1V370H697.8ZM731.1 303.5H742.1V359H731.1V303.5ZM768 325.7H801.3V336.9H812.3V370H801.3V336.8H768V370H757V292.5H801.3V303.5H768V325.7ZM812.3 325.7H801.3V303.5H812.3V325.7ZM875.4 303.5H886.4V359H875.4V303.5ZM919.7 292.5V303.5H886.4V292.5H919.7ZM886.4 370V359H919.7V370H886.4ZM919.7 303.5H930.7V359H919.7V303.5ZM956.6 314.7H967.8V325.7H956.6V370H945.6V292.5H956.6V314.7ZM967.8 325.7H978.8V336.9H967.8V325.7ZM989.9 292.5H1000.9V370H989.9V347.8H978.7V336.8H989.9V292.5ZM1026.8 303.5V325.7H1071.1V336.9H1026.8V359H1071.1V370H1015.8V292.5H1071.1V303.5H1026.8Z" fill="#1E661E"/>
<path d="M592.4 158.9H606.9V173.4H592.4V158.9ZM606.9 231.2H592.4V260.1H606.9V231.2ZM693.6 86.7002H708.1V101.2H693.6V86.7002Z" fill="#815382"/>
<path d="M708.1 130H722.5V101.1H708.1V130ZM722.5 245.6H737V260.1H722.5V245.6Z" fill="#815382"/>
<path d="M708.1 260.1H722.6V274.6H708.1V260.1ZM606.9 260.1H621.4V274.6H606.9V260.1ZM635.8 303.4H650.3V317.9H635.8V303.4ZM578 173.4H592.5V187.9H578V173.4Z" fill="#815382"/>
<path d="M621.3 202.3V187.8H635.8V144.5H650.2V130H664.7V115.6H679.1V101.1H650.2V115.6H635.8V130H621.3V173.4H606.9V216.7H621.3V202.3ZM621.3 274.5H635.8V289H621.3V274.5Z" fill="white"/>
<path d="M664.7 289H635.8V303.4H693.6V289H664.7Z" fill="white"/>
<path d="M693.6 274.5V289H708.1V260.1H693.6V274.5Z" fill="white"/>
<path d="M708.1 231.2V260.1H722.5V216.7H708.1V231.2Z" fill="white"/>
<path d="M722.5 173.4V216.7H737V173.4H722.5Z" fill="white"/>
<path d="M722.5 144.5V130H708.1V173.4H722.5V144.5ZM679.1 115.6H693.6V130.1H679.1V115.6Z" fill="white"/>
<path d="M650.2 202.3H635.8V216.7H664.7V187.8H650.2V202.3ZM664.7 115.6H679.2V130.1H664.7V115.6Z" fill="#2B59FF"/>
<path d="M679.1 130H693.6V144.5H679.1V130Z" fill="#2B59FF"/>
<path d="M635.8 86.7002H650.3V101.2H635.8V86.7002ZM606.9 130H621.4V144.5H606.9V130ZM679.1 202.3V187.8H664.7V216.7H679.1V202.3ZM679.1 274.5H693.6V289H679.1V274.5Z" fill="#54ACFF"/>
<path d="M635.8 216.7V231.2H664.7V216.7H635.8ZM679.1 101.1H693.6V115.6H679.1V101.1Z" fill="#54ACFF"/>
<path d="M693.6 115.6V144.5H708.1V115.6H693.6Z" fill="#54ACFF"/>
<path d="M679.1 144.5H693.6V159H679.1V144.5ZM635.8 173.4H650.3V187.9H635.8V173.4Z" fill="#54ACFF"/>
<path d="M635.8 101.1H650.3V115.6H635.8V101.1ZM693.6 101.1H708.1V115.6H693.6V101.1ZM621.3 187.8V202.3H650.2V187.8H621.3ZM606.9 245.6V260.1H635.8V245.6H606.9ZM650.2 260.1H664.7V274.6H650.2V260.1ZM679.1 245.6H693.6V260.1H679.1V245.6Z" fill="#51FFA8"/>
<path d="M693.6 231.2H708.1V245.7H693.6V231.2ZM650.2 173.4H664.7V187.9H650.2V173.4ZM679.1 158.9H693.6V173.4H679.1V158.9ZM621.3 115.6H635.8V130.1H621.3V115.6Z" fill="#51FFA8"/>
<path d="M693.6 158.9V173.4H664.7V187.8H708.1V158.9H693.6ZM621.3 101.1H635.8V115.6H621.3V101.1ZM650.2 245.6V260.1H679.1V245.6H650.2Z" fill="#00FF00"/>
<path d="M621.3 260.1V274.5H650.2V260.1H621.3Z" fill="#00FF00"/>
<path d="M621.3 158.9V144.5H606.9V173.4H621.3V158.9ZM664.7 173.4H679.1V158.9H650.2V144.5H635.8V173.4H664.7ZM708.1 173.4V187.8H679.1V231.2H606.9V245.6H635.8V260.1H650.2V245.6H693.6V231.2H708.1V216.7H693.6V202.3H708.1V216.7H722.5V173.4H708.1Z" fill="#BAFFFF"/>
<path d="M693.6 245.6H708.1V260.1H693.6V245.6Z" fill="#BAFFFF"/>
<path d="M664.7 260.1V274.5H635.8V289H679.1V274.5H693.6V260.1H664.7ZM693.6 144.5H708.1V159H693.6V144.5ZM606.9 202.3V173.4H592.4V216.7H606.9V202.3ZM679.1 101.1H693.6V86.7002H650.2V101.1H679.1Z" fill="#BAFFFF"/>
<path d="M621.3 115.6V101.1H606.9V130H621.3V115.6Z" fill="#1E661E"/>
<path d="M606.9 144.5V130H592.4V158.9H606.9V144.5ZM578 202.3V216.7H592.4V187.8H578V202.3ZM606.9 274.5H621.4V289H606.9V274.5Z" fill="#1E661E"/>
<path d="M621.3 289H635.8V303.5H621.3V289ZM737 144.5V130H722.5V158.9H737V144.5ZM737 187.8V216.7H751.4V187.8H737ZM664.7 72.2002H650.2V86.7002H693.6V72.2002H664.7ZM664.7 303.4H650.2V317.9H693.6V303.4H664.7Z" fill="#1E661E"/>
<path d="M722.5 158.9H737V173.4H722.5V158.9Z" fill="#33297C"/>
<path d="M737 173.4H751.5V187.9H737V173.4ZM722.5 231.2V245.6H737V216.7H722.5V231.2ZM708.1 274.5H722.6V289H708.1V274.5Z" fill="#33297C"/>
<path d="M693.6 289H708.1V303.5H693.6V289ZM635.8 72.2002H650.3V86.7002H635.8V72.2002Z" fill="#33297C"/>
<path d="M621.3 86.7002H635.8V101.2H621.3V86.7002ZM592.4 216.7H606.9V231.2H592.4V216.7Z" fill="#33297C"/>
<path d="M606.9 216.7H621.4V231.2H606.9V216.7Z" fill="#FFC4E1"/>
<path d="M621.3 202.3H635.8V216.8H621.3V202.3ZM664.7 216.7H679.2V231.2H664.7V216.7ZM650.2 130H664.7V144.5H650.2V130Z" fill="#FFC4E1"/>
<path d="M664.7 144.5H679.2V159H664.7V144.5Z" fill="#FFC4E1"/>
<path d="M621.3 216.7H635.8V231.2H621.3V216.7ZM693.6 202.3H708.1V216.8H693.6V202.3ZM650.2 144.5H664.7V159H650.2V144.5Z" fill="#FF93C9"/>
<path d="M664.7 130H679.2V144.5H664.7V130Z" fill="#FF93C9"/>
<path d="M1044.8 747V707H1024.8V687H984.8V667H724.8V687H604.8V667H344.8V687H304.8V707H284.8V747H264.8V987H284.8V1027H304.8V1047H324.8V1067H384.8V1047H404.8V1027H424.8V1007H584.8V1027H604.8V1047H624.8V1067H704.8V1047H724.8V1027H744.8V1007H904.8V1027H924.8V1047H944.8V1067H1004.8V1047H1024.8V1027H1044.8V987H1064.8V747H1044.8Z" fill="#FF32FF"/>
<path d="M984.8 667H1024.8V687H984.8V667ZM304.8 667H344.8V687H304.8V667ZM684.8 667H724.8V687H684.8V667ZM604.8 667H644.8V687H604.8V667Z" fill="black"/>
<path d="M644.8 687H684.8V707H644.8V687ZM624.8 1067H704.8V1087H624.8V1067ZM1044.8 987H1064.8V1027H1044.8V987Z" fill="black"/>
<path d="M1024.8 1027H1044.8V1047H1024.8V1027Z" fill="black"/>
<path d="M1004.8 1047H1024.8V1067H1004.8V1047ZM264.8 987H284.8V1027H264.8V987Z" fill="black"/>
<path d="M284.8 1027H304.8V1047H284.8V1027Z" fill="black"/>
<path d="M304.8 1047H324.8V1067H304.8V1047ZM944.8 1067H1004.8V1087H944.8V1067Z" fill="black"/>
<path d="M324.8 1067H384.8V1087H324.8V1067ZM744.8 1007H904.8V1027H744.8V1007Z" fill="black"/>
<path d="M904.8 1027H924.8V1047H904.8V1027Z" fill="black"/>
<path d="M924.8 1047H944.8V1067H924.8V1047ZM724.8 1027H744.8V1047H724.8V1027Z" fill="black"/>
<path d="M704.8 1047H724.8V1067H704.8V1047ZM604.8 1047H624.8V1067H604.8V1047Z" fill="black"/>
<path d="M584.8 1027H604.8V1047H584.8V1027ZM404.8 1027H424.8V1047H404.8V1027Z" fill="black"/>
<path d="M424.8 1007H584.8V1027H424.8V1007ZM384.8 1047H404.8V1067H384.8V1047ZM1044.8 707H1064.8V747H1044.8V707Z" fill="black"/>
<path d="M1024.8 687H1044.8V707H1024.8V687ZM244.8 747H264.8V987H244.8V747Z" fill="black"/>
<path d="M1064.8 747H1084.8V987H1064.8V747ZM264.8 707H284.8V747H264.8V707Z" fill="black"/>
<path d="M284.8 687H304.8V707H284.8V687ZM724.8 647H984.8V667H724.8V647ZM344.8 647H604.8V667H344.8V647Z" fill="black"/>
<path d="M644.8 807V827H624.8V847H604.8V887H664.8V807H644.8Z" fill="#EBAAE6"/>
<path d="M664.8 887V967H684.8V947H704.8V927H724.8V887H664.8Z" fill="#BE32BE"/>
<path d="M604.8 887V927H624.8V947H644.8V967H664.8V887H604.8Z" fill="#E17DD7"/>
<path d="M704.8 847V827H684.8V807H664.8V887H724.8V847H704.8Z" fill="#E17DD7"/>
<path d="M844.8 887V847H724.8V927H744.8V887H804.8V967H844.8V927H884.8V887H844.8ZM484.8 927V887H444.8V927H324.8V887H284.8V967H324.8V1007H364.8V967H564.8V927H484.8ZM964.8 767V707H884.8V747H924.8V807H884.8V847H924.8V947H964.8V1027H1004.8V947H1044.8V907H964.8V807H1044.8V767H964.8ZM364.8 847V887H404.8V847H484.8V707H344.8V747H444.8V807H284.8V847H364.8ZM684.8 807V787H804.8V747H844.8V707H764.8V747H684.8V707H644.8V807H684.8Z" fill="#910091"/>
<path d="M684.8 807H704.8V827H684.8V807ZM624.8 807H644.8V827H624.8V807Z" fill="#910091"/>
<path d="M704.8 827H724.8V847H704.8V827ZM604.8 827H624.8V847H604.8V827Z" fill="#910091"/>
<path d="M604.8 847H564.8V787H604.8V747H564.8V707H524.8V887H584.8V927H604.8V847ZM704.8 927H724.8V947H704.8V927Z" fill="#910091"/>
<path d="M604.8 927H624.8V947H604.8V927ZM684.8 947H704.8V967H684.8V947Z" fill="#910091"/>
<path d="M624.8 947H644.8V967H624.8V947Z" fill="#910091"/>
<path d="M644.8 967H684.8V1067H644.8V967Z" fill="#910091"/>
<path d="M367.806 1475H326.622V1464.78H357.582V1433.82H367.806V1475ZM316.398 1413.22H326.622V1464.78H316.398V1413.22ZM367.806 1403V1413.22H326.622V1403H367.806ZM419.176 1403V1413.22H388.216V1403H419.176ZM419.176 1413.22H429.4V1475H419.176V1444.18H388.216V1475H377.992V1413.22H388.216V1433.82H419.176V1413.22ZM449.81 1464.78H490.994V1475H439.586V1403H449.81V1464.78ZM542.364 1403V1413.22H511.404V1403H542.364ZM542.364 1413.22H552.588V1475H542.364V1444.18H511.404V1475H501.18V1413.22H511.404V1433.82H542.364V1413.22ZM562.773 1475V1454.41H572.997V1475H562.773ZM572.997 1454.41V1444.18H583.365V1454.41H572.997ZM583.365 1433.82H593.589V1444.18H583.365V1433.82ZM603.957 1454.41H593.589V1444.18H603.957V1454.41ZM614.181 1475H603.957V1454.41H614.181V1475ZM572.997 1423.59H583.365V1433.82H572.997V1423.59ZM562.773 1403H572.997V1423.59H562.773V1403ZM603.957 1423.59V1433.82H593.589V1423.59H603.957ZM614.181 1403V1423.59H603.957V1403H614.181ZM644.959 1475V1444.18H655.183V1475H644.959ZM634.591 1433.82H644.959V1444.18H634.591V1433.82ZM624.367 1403H634.591V1433.82H624.367V1403ZM655.183 1444.18V1433.82H665.551V1444.18H655.183ZM665.551 1403H675.775V1433.82H665.551V1403ZM778.572 1433.82H768.348V1413.22H778.572V1433.82ZM737.388 1433.82H768.348V1444.18H737.388V1464.78H768.348V1475H727.164V1403H768.348V1413.22H737.388V1433.82ZM778.572 1464.78H768.348V1444.18H778.572V1464.78ZM840.166 1433.82H829.942V1413.22H840.166V1433.82ZM798.982 1433.82H829.942V1444.18H840.166V1475H829.942V1444.18H798.982V1475H788.758V1403H829.942V1413.22H798.982V1433.82ZM891.536 1403V1413.22H860.576V1403H891.536ZM891.536 1413.22H901.76V1475H891.536V1444.18H860.576V1475H850.352V1413.22H860.576V1433.82H891.536V1413.22ZM942.761 1413.22H932.537V1464.78H942.761V1475H911.945V1464.78H922.169V1413.22H911.945V1403H942.761V1413.22ZM963.232 1423.59H973.6V1433.82H963.232V1475H953.008V1403H963.232V1423.59ZM973.6 1433.82H983.824V1444.18H973.6V1433.82ZM994.192 1403H1004.42V1475H994.192V1454.41H983.824V1444.18H994.192V1403Z" fill="#1E661E"/>
</svg>
