<svg width="1330" height="1734" viewBox="0 0 1330 1734" fill="none" xmlns="http://www.w3.org/2000/svg">
<path d="M1271.6 57.8V0H1213.8V57.8H1156V0H1098.2V57.8H1040.4V0H982.6V57.8H924.8V0H867V57.8H809.2V0H751.4V57.8H693.6V0H635.8V57.8H578V0H520.2V57.8H462.4V0H404.6V57.8H346.8V0H289V57.8H231.2V0H173.4V57.8H115.6V0H57.8V57.8H0V1734H57.8V1676.2H115.6V1734H173.4V1676.2H231.2V1734H289V1676.2H346.8V1734H404.6V1676.2H462.4V1734H520.2V1676.2H578V1734H635.8V1676.2H693.6V1734H751.4V1676.2H809.2V1734H867V1676.2H924.8V1734H982.6V1676.2H1040.4V1734H1098.2V1676.2H1156V1734H1213.8V1676.2H1271.6V1734H1329.4V57.8H1271.6Z" fill="#51FFA8"/>
<path d="M1156 173.4H1184.9V202.3H1156V173.4ZM1156 1531.7H1184.9V1560.6H1156V1531.7Z" fill="#1E661E"/>
<path d="M1184.9 202.3V404.6H144.5V202.3H115.6V1531.7H144.5V1329.4H1184.9V1531.7H1213.8V202.3H1184.9ZM1184.9 1300.5H144.5V433.5H1184.9V1300.5ZM1156 173.4V144.5H173.4V173.4H1156Z" fill="#1E661E"/>
<path d="M144.5 173.4H173.4V202.3H144.5V173.4ZM144.5 1531.7H173.4V1560.6H144.5V1531.7Z" fill="#1E661E"/>
<path d="M173.4 1560.6V1589.5H1156V1560.6H173.4Z" fill="#1E661E"/>
<path d="M144.5 1329.4V1531.7H173.4V1560.6H1156V1531.7H1184.9V1329.4H144.5ZM1156 202.3V173.4H173.4V202.3H144.5V404.6H1184.9V202.3H1156ZM144.5 433.5V1300.5H1184.9V433.5H144.5Z" fill="white"/>
<path d="M239.4 292.5H250.4V347.8H239.4V292.5ZM261.6 347.8V359H272.6V370H261.6V359H250.4V347.8H261.6ZM272.6 359V347.8H283.8V359H272.6ZM283.8 292.5H294.8V347.8H283.8V292.5ZM354 303.5H365V370H354V336.8H320.7V370H309.7V303.5H320.7V325.7H354V303.5ZM354 292.5V303.5H320.7V292.5H354ZM435.2 359V370H379.9V292.5H390.9V359H435.2ZM472.2 303.5V359H483.2V370H450V359H461V303.5H450V292.5H483.2V303.5H472.2ZM509.1 303.5V359H542.4V370H498.1V292.5H542.4V303.5H509.1ZM542.5 303.5H553.5V359H542.5V303.5ZM627.6 303.5V325.7H671.9V336.9H627.6V370H616.6V292.5H671.9V303.5H627.6ZM686.8 303.5H697.8V359H686.8V303.5ZM731.1 292.5V303.5H697.8V292.5H731.1ZM697.8 370V359H731.1V370H697.8ZM731.1 303.5H742.1V359H731.1V303.5ZM768 325.7H801.3V336.9H812.3V370H801.3V336.8H768V370H757V292.5H801.3V303.5H768V325.7ZM812.3 325.7H801.3V303.5H812.3V325.7ZM875.4 303.5H886.4V359H875.4V303.5ZM919.7 292.5V303.5H886.4V292.5H919.7ZM886.4 370V359H919.7V370H886.4ZM919.7 303.5H930.7V359H919.7V303.5ZM956.6 314.7H967.8V325.7H956.6V370H945.6V292.5H956.6V314.7ZM967.8 325.7H978.8V336.9H967.8V325.7ZM989.9 292.5H1000.9V370H989.9V347.8H978.7V336.8H989.9V292.5ZM1026.8 303.5V325.7H1071.1V336.9H1026.8V359H1071.1V370H1015.8V292.5H1071.1V303.5H1026.8Z" fill="#1E661E"/>
<path d="M592.4 158.9H606.9V173.4H592.4V158.9ZM606.9 231.2H592.4V260.1H606.9V231.2ZM693.6 86.7002H708.1V101.2H693.6V86.7002Z" fill="#815382"/>
<path d="M708.1 130H722.5V101.1H708.1V130ZM722.5 245.6H737V260.1H722.5V245.6Z" fill="#815382"/>
<path d="M708.1 260.1H722.6V274.6H708.1V260.1ZM606.9 260.1H621.4V274.6H606.9V260.1ZM635.8 303.4H650.3V317.9H635.8V303.4ZM578 173.4H592.5V187.9H578V173.4Z" fill="#815382"/>
<path d="M621.3 202.3V187.8H635.8V144.5H650.2V130H664.7V115.6H679.1V101.1H650.2V115.6H635.8V130H621.3V173.4H606.9V216.7H621.3V202.3ZM621.3 274.5H635.8V289H621.3V274.5Z" fill="white"/>
<path d="M664.7 289H635.8V303.4H693.6V289H664.7Z" fill="white"/>
<path d="M693.6 274.5V289H708.1V260.1H693.6V274.5Z" fill="white"/>
<path d="M708.1 231.2V260.1H722.5V216.7H708.1V231.2Z" fill="white"/>
<path d="M722.5 173.4V216.7H737V173.4H722.5Z" fill="white"/>
<path d="M722.5 144.5V130H708.1V173.4H722.5V144.5ZM679.1 115.6H693.6V130.1H679.1V115.6Z" fill="white"/>
<path d="M650.2 202.3H635.8V216.7H664.7V187.8H650.2V202.3ZM664.7 115.6H679.2V130.1H664.7V115.6Z" fill="#2B59FF"/>
<path d="M679.1 130H693.6V144.5H679.1V130Z" fill="#2B59FF"/>
<path d="M635.8 86.7002H650.3V101.2H635.8V86.7002ZM606.9 130H621.4V144.5H606.9V130ZM679.1 202.3V187.8H664.7V216.7H679.1V202.3ZM679.1 274.5H693.6V289H679.1V274.5Z" fill="#54ACFF"/>
<path d="M635.8 216.7V231.2H664.7V216.7H635.8ZM679.1 101.1H693.6V115.6H679.1V101.1Z" fill="#54ACFF"/>
<path d="M693.6 115.6V144.5H708.1V115.6H693.6Z" fill="#54ACFF"/>
<path d="M679.1 144.5H693.6V159H679.1V144.5ZM635.8 173.4H650.3V187.9H635.8V173.4Z" fill="#54ACFF"/>
<path d="M635.8 101.1H650.3V115.6H635.8V101.1ZM693.6 101.1H708.1V115.6H693.6V101.1ZM621.3 187.8V202.3H650.2V187.8H621.3ZM606.9 245.6V260.1H635.8V245.6H606.9ZM650.2 260.1H664.7V274.6H650.2V260.1ZM679.1 245.6H693.6V260.1H679.1V245.6Z" fill="#51FFA8"/>
<path d="M693.6 231.2H708.1V245.7H693.6V231.2ZM650.2 173.4H664.7V187.9H650.2V173.4ZM679.1 158.9H693.6V173.4H679.1V158.9ZM621.3 115.6H635.8V130.1H621.3V115.6Z" fill="#51FFA8"/>
<path d="M693.6 158.9V173.4H664.7V187.8H708.1V158.9H693.6ZM621.3 101.1H635.8V115.6H621.3V101.1ZM650.2 245.6V260.1H679.1V245.6H650.2Z" fill="#00FF00"/>
<path d="M621.3 260.1V274.5H650.2V260.1H621.3Z" fill="#00FF00"/>
<path d="M621.3 158.9V144.5H606.9V173.4H621.3V158.9ZM664.7 173.4H679.1V158.9H650.2V144.5H635.8V173.4H664.7ZM708.1 173.4V187.8H679.1V231.2H606.9V245.6H635.8V260.1H650.2V245.6H693.6V231.2H708.1V216.7H693.6V202.3H708.1V216.7H722.5V173.4H708.1Z" fill="#BAFFFF"/>
<path d="M693.6 245.6H708.1V260.1H693.6V245.6Z" fill="#BAFFFF"/>
<path d="M664.7 260.1V274.5H635.8V289H679.1V274.5H693.6V260.1H664.7ZM693.6 144.5H708.1V159H693.6V144.5ZM606.9 202.3V173.4H592.4V216.7H606.9V202.3ZM679.1 101.1H693.6V86.7002H650.2V101.1H679.1Z" fill="#BAFFFF"/>
<path d="M621.3 115.6V101.1H606.9V130H621.3V115.6Z" fill="#1E661E"/>
<path d="M606.9 144.5V130H592.4V158.9H606.9V144.5ZM578 202.3V216.7H592.4V187.8H578V202.3ZM606.9 274.5H621.4V289H606.9V274.5Z" fill="#1E661E"/>
<path d="M621.3 289H635.8V303.5H621.3V289ZM737 144.5V130H722.5V158.9H737V144.5ZM737 187.8V216.7H751.4V187.8H737ZM664.7 72.2002H650.2V86.7002H693.6V72.2002H664.7ZM664.7 303.4H650.2V317.9H693.6V303.4H664.7Z" fill="#1E661E"/>
<path d="M722.5 158.9H737V173.4H722.5V158.9Z" fill="#33297C"/>
<path d="M737 173.4H751.5V187.9H737V173.4ZM722.5 231.2V245.6H737V216.7H722.5V231.2ZM708.1 274.5H722.6V289H708.1V274.5Z" fill="#33297C"/>
<path d="M693.6 289H708.1V303.5H693.6V289ZM635.8 72.2002H650.3V86.7002H635.8V72.2002Z" fill="#33297C"/>
<path d="M621.3 86.7002H635.8V101.2H621.3V86.7002ZM592.4 216.7H606.9V231.2H592.4V216.7Z" fill="#33297C"/>
<path d="M606.9 216.7H621.4V231.2H606.9V216.7Z" fill="#FFC4E1"/>
<path d="M621.3 202.3H635.8V216.8H621.3V202.3ZM664.7 216.7H679.2V231.2H664.7V216.7ZM650.2 130H664.7V144.5H650.2V130Z" fill="#FFC4E1"/>
<path d="M664.7 144.5H679.2V159H664.7V144.5Z" fill="#FFC4E1"/>
<path d="M621.3 216.7H635.8V231.2H621.3V216.7ZM693.6 202.3H708.1V216.8H693.6V202.3ZM650.2 144.5H664.7V159H650.2V144.5Z" fill="#FF93C9"/>
<path d="M664.7 130H679.2V144.5H664.7V130Z" fill="#FF93C9"/>
<path d="M339.7 729.5H364.7V754.5H339.7V729.5Z" fill="#646464"/>
<path d="M314.7 729.5H339.7V754.5H314.7V729.5Z" fill="#969696"/>
<path d="M339.7 704.5H364.7V729.5H339.7V704.5Z" fill="#C8C8C8"/>
<path d="M389.7 754.5V729.5H364.7V754.5H339.7V779.5H414.7V754.5H389.7Z" fill="#C8C8C8"/>
<path d="M514.7 829.5H539.7V854.5H514.7V829.5Z" fill="#E2CAB5"/>
<path d="M539.7 854.5H564.7V904.5H539.7V854.5Z" fill="#E2CAB5"/>
<path d="M264.7 629.5H314.7V654.5H264.7V629.5Z" fill="#00FFFF"/>
<path d="M314.7 654.5H339.7V679.5H314.7V654.5ZM789.7 804.5H839.7V829.5H789.7V804.5ZM1039.7 929.5H1064.7V954.5H1039.7V929.5Z" fill="#00FFFF"/>
<path d="M989.7 904.5H1039.7V929.5H989.7V904.5Z" fill="#00FFFF"/>
<path d="M939.7 879.5H989.7V904.5H939.7V879.5Z" fill="#00FFFF"/>
<path d="M889.7 854.5H939.7V879.5H889.7V854.5Z" fill="#00FFFF"/>
<path d="M839.7 829.5H889.7V854.5H839.7V829.5Z" fill="#00FFFF"/>
<path d="M314.7 704.5H339.7V729.5H314.7V704.5Z" fill="#E1E1E1"/>
<path d="M289.7 729.5V754.5H264.7V779.5H339.7V754.5H314.7V729.5H289.7Z" fill="#E1E1E1"/>
<path d="M314.7 679.5H364.7V704.5H314.7V679.5Z" fill="#7D00FF"/>
<path d="M264.7 654.5H314.7V679.5H264.7V654.5ZM789.7 829.5H839.7V854.5H789.7V829.5ZM1039.7 954.5H1064.7V979.5H1039.7V954.5Z" fill="#7D00FF"/>
<path d="M989.7 929.5H1039.7V954.5H989.7V929.5Z" fill="#7D00FF"/>
<path d="M939.7 904.5H989.7V929.5H939.7V904.5Z" fill="#7D00FF"/>
<path d="M889.7 879.5H939.7V904.5H889.7V879.5Z" fill="#7D00FF"/>
<path d="M839.7 854.5H889.7V879.5H839.7V854.5Z" fill="#7D00FF"/>
<path d="M589.7 854.5H564.7V929.5H614.7V904.5H589.7V854.5Z" fill="#D3AF90"/>
<path d="M589.7 829.5H614.7V854.5H589.7V829.5Z" fill="#D3AF90"/>
<path d="M839.7 779.5H889.7V804.5H839.7V779.5ZM1039.7 879.5H1064.7V904.5H1039.7V879.5Z" fill="#FFFF00"/>
<path d="M989.7 854.5H1039.7V879.5H989.7V854.5ZM889.7 804.5H939.7V829.5H889.7V804.5Z" fill="#FFFF00"/>
<path d="M939.7 829.5H989.7V854.5H939.7V829.5Z" fill="#FFFF00"/>
<path d="M1039.7 854.5H1064.7V879.5H1039.7V854.5Z" fill="#FF00FF"/>
<path d="M989.7 829.5H1039.7V854.5H989.7V829.5ZM889.7 779.5H939.7V804.5H889.7V779.5Z" fill="#FF00FF"/>
<path d="M939.7 804.5H989.7V829.5H939.7V804.5Z" fill="#FF00FF"/>
<path d="M1014.7 629.5V654.5H1039.7V679.5H1064.7V629.5H1014.7ZM939.7 929.5H889.7V954.5H864.7V979.5H964.7V954.5H939.7V929.5ZM364.7 929.5H339.7V954.5H314.7V979.5H389.7V954.5H364.7V929.5ZM314.7 904.5H364.7V879.5H339.7V854.5H289.7V829.5H264.7V929.5H314.7V904.5ZM1039.7 704.5H989.7V729.5H964.7V754.5H939.7V779.5H989.7V804.5H1064.7V729.5H1039.7V704.5ZM1114.7 704.5H1139.7V729.5H1114.7V704.5ZM214.7 754.5H189.7V829.5H214.7V804.5H239.7V779.5H214.7V754.5ZM839.7 904.5H889.7V879.5H839.7V854.5H789.7V829.5H714.7V879.5H689.7V904.5H739.7V929.5H839.7V904.5ZM539.7 904.5H564.7V929.5H539.7V904.5ZM1089.7 754.5H1114.7V779.5H1089.7V754.5ZM1089.7 654.5H1114.7V679.5H1089.7V654.5ZM214.7 679.5H189.7V704.5H239.7V654.5H214.7V679.5Z" fill="white"/>
<path d="M1039.7 904.5H1064.7V929.5H1039.7V904.5Z" fill="#00FF00"/>
<path d="M989.7 879.5H1039.7V904.5H989.7V879.5Z" fill="#00FF00"/>
<path d="M939.7 854.5H989.7V879.5H939.7V854.5ZM839.7 804.5H889.7V829.5H839.7V804.5Z" fill="#00FF00"/>
<path d="M889.7 829.5H939.7V854.5H889.7V829.5ZM1039.7 1029.5H1014.7V979.5H839.7V1029.5H814.7V979.5H714.7V1004.5H739.7V1054.5H714.7V1079.5H689.7V1104.5H764.7V1054.5H789.7V1104.5H864.7V1054.5H889.7V1104.5H964.7V1054.5H989.7V1104.5H1064.7V979.5H1039.7V1029.5ZM914.7 1054.5V1004.5H939.7V1054.5H914.7ZM439.7 1029.5H414.7V979.5H264.7V1054.5H289.7V1104.5H364.7V1054.5H389.7V1104.5H464.7V1079.5H439.7V1054.5H464.7V979.5H439.7V1029.5ZM314.7 1054.5V1004.5H339.7V1054.5H314.7ZM564.7 1029.5H614.7V1054.5H564.7V1029.5ZM689.7 1029.5H639.7V1079.5H589.7V1104.5H664.7V1054.5H689.7V1029.5ZM514.7 1079.5V1054.5H539.7V1029.5H489.7V1104.5H564.7V1079.5H514.7Z" fill="#00FF00"/>
<path d="M1014.7 979.5H1039.7V1029.5H1014.7V979.5ZM814.7 979.5H839.7V1029.5H814.7V979.5ZM414.7 979.5H439.7V1029.5H414.7V979.5ZM914.7 1004.5H939.7V1054.5H914.7V1004.5ZM314.7 1004.5H339.7V1054.5H314.7V1004.5ZM714.7 1004.5H739.7V1054.5H714.7V1004.5ZM764.7 1054.5H789.7V1104.5H764.7V1054.5ZM564.7 1054.5H589.7V1104.5H564.7V1054.5ZM364.7 1054.5H389.7V1104.5H364.7V1054.5ZM864.7 1054.5H889.7V1104.5H864.7V1054.5ZM964.7 1054.5H989.7V1104.5H964.7V1054.5ZM264.7 1054.5H289.7V1104.5H264.7V1054.5ZM464.7 1079.5H489.7V1104.5H464.7V1079.5ZM664.7 1079.5H689.7V1104.5H664.7V1079.5Z" fill="#00B900"/>
<path d="M364.7 704.5H389.7V729.5H364.7V704.5Z" fill="#167FFE"/>
<path d="M389.7 729.5H414.7V754.5H389.7V729.5ZM1039.7 654.5H989.7V679.5H964.7V704.5H939.7V729.5H914.7V754.5H889.7V779.5H939.7V754.5H964.7V729.5H989.7V704.5H1039.7V729.5H1064.7V679.5H1039.7V654.5Z" fill="#167FFE"/>
<path d="M514.7 829.5H539.7V804.5H489.7V779.5H439.7V754.5H414.7V779.5H264.7V829.5H289.7V854.5H339.7V879.5H364.7V904.5H314.7V929.5H264.7V979.5H314.7V954.5H339.7V929.5H364.7V954.5H389.7V979.5H439.7V929.5H414.7V879.5H389.7V804.5H414.7V854.5H464.7V829.5H489.7V854.5H464.7V904.5H489.7V929.5H514.7V904.5H539.7V854.5H514.7V829.5ZM1039.7 829.5V854.5H1064.7V804.5H989.7V829.5H1039.7ZM989.7 954.5V929.5H939.7V954.5H964.7V979.5H1039.7V954.5H989.7Z" fill="#167FFE"/>
<path d="M839.7 904.5V929.5H739.7V904.5H689.7V879.5H714.7V854.5H589.7V904.5H639.7V929.5H689.7V954.5H714.7V979.5H864.7V954.5H889.7V929.5H939.7V904.5H839.7ZM939.7 779.5H989.7V804.5H939.7V779.5Z" fill="#167FFE"/>
<path d="M539.7 829.5H589.7V854.5H539.7V829.5ZM1139.7 704.5V679.5H1089.7V754.5H1114.7V779.5H1089.7V804.5H1114.7V829.5H1139.7V729.5H1114.7V704.5H1139.7ZM189.7 704.5V754.5H214.7V779.5H239.7V704.5H189.7ZM289.7 729.5H314.7V679.5H264.7V754.5H289.7V729.5Z" fill="#167FFE"/>
<path d="M614.7 904.5V929.5H539.7V904.5H514.7V954.5H539.7V979.5H614.7V954.5H639.7V904.5H614.7Z" fill="#323232"/>
<path d="M464.7 829.5H489.7V854.5H464.7V829.5Z" fill="#F8ECE0"/>
<path d="M689.7 954.5V929.5H639.7V954.5H614.7V979.5H539.7V954.5H514.7V929.5H489.7V904.5H464.7V854.5H414.7V804.5H389.7V879.5H414.7V929.5H439.7V979.5H464.7V1054.5H439.7V1079.5H489.7V1029.5H539.7V1054.5H514.7V1079.5H564.7V1029.5H614.7V1054.5H589.7V1079.5H639.7V1029.5H689.7V1054.5H664.7V1079.5H714.7V954.5H689.7Z" fill="#F8ECE0"/>
<path d="M314.7 629.5H339.7V654.5H314.7V629.5ZM364.7 679.5H389.7V704.5H364.7V679.5Z" fill="black"/>
<path d="M339.7 654.5H364.7V679.5H339.7V654.5ZM414.7 729.5H439.7V754.5H414.7V729.5Z" fill="black"/>
<path d="M389.7 704.5H414.7V729.5H389.7V704.5ZM489.7 779.5H539.7V804.5H489.7V779.5Z" fill="black"/>
<path d="M439.7 754.5H489.7V779.5H439.7V754.5ZM989.7 629.5H1014.7V654.5H989.7V629.5ZM939.7 679.5H964.7V704.5H939.7V679.5Z" fill="black"/>
<path d="M964.7 654.5H989.7V679.5H964.7V654.5ZM889.7 729.5H914.7V754.5H889.7V729.5Z" fill="black"/>
<path d="M914.7 704.5H939.7V729.5H914.7V704.5ZM789.7 779.5H839.7V804.5H789.7V779.5Z" fill="black"/>
<path d="M839.7 754.5H889.7V779.5H839.7V754.5ZM614.7 829.5H714.7V854.5H614.7V829.5Z" fill="black"/>
<path d="M539.7 804.5H614.7V829.5H539.7V804.5ZM714.7 804.5H789.7V829.5H714.7V804.5ZM1139.7 679.5V829.5H1114.7V854.5H1164.7V679.5H1139.7Z" fill="black"/>
<path d="M1114.7 654.5H1139.7V679.5H1114.7V654.5ZM189.7 679.5H164.7V854.5H214.7V829.5H189.7V679.5Z" fill="black"/>
<path d="M189.7 654.5H214.7V679.5H189.7V654.5Z" fill="black"/>
<path d="M1089.7 804.5V654.5H1114.7V629.5H1089.7V604.5H1014.7V629.5H1064.7V1104.5H264.7V629.5H314.7V604.5H239.7V629.5H214.7V654.5H239.7V804.5H214.7V829.5H239.7V1129.5H1089.7V829.5H1114.7V804.5H1089.7Z" fill="black"/>
<path d="M223.396 1464.78H264.58V1475H213.172V1403H223.396V1464.78ZM284.99 1464.78H326.174V1475H274.766V1403H284.99V1464.78ZM377.543 1403V1413.22H346.583V1403H377.543ZM377.543 1413.22H387.767V1475H377.543V1444.18H346.583V1475H336.359V1413.22H346.583V1433.82H377.543V1413.22ZM408.177 1413.22H418.545V1423.59H408.177V1475H397.953V1403H408.177V1413.22ZM418.545 1423.59H428.769V1433.82H418.545V1423.59ZM428.769 1444.18V1433.82H439.137V1444.18H428.769ZM439.137 1433.82V1423.59H449.361V1433.82H439.137ZM459.729 1403H469.953V1475H459.729V1423.59H449.361V1413.22H459.729V1403ZM521.403 1403V1413.22H490.443V1403H521.403ZM521.403 1413.22H531.627V1475H521.403V1444.18H490.443V1475H480.219V1413.22H490.443V1433.82H521.403V1413.22ZM593.221 1475H552.037V1464.78H593.221V1475ZM541.812 1413.22H552.037V1464.78H541.812V1413.22ZM593.221 1403V1413.22H552.037V1403H593.221ZM613.63 1475V1464.78H644.59V1475H613.63ZM603.406 1413.22H613.63V1464.78H603.406V1413.22ZM644.59 1403V1413.22H613.63V1403H644.59ZM644.59 1413.22H654.814V1464.78H644.59V1413.22ZM716.408 1433.82H706.184V1413.22H716.408V1433.82ZM675.224 1433.82H706.184V1444.18H716.408V1475H706.184V1444.18H675.224V1475H665V1403H706.184V1413.22H675.224V1433.82ZM736.818 1423.59H747.186V1433.82H736.818V1475H726.594V1403H736.818V1423.59ZM747.186 1433.82H757.41V1444.18H747.186V1433.82ZM767.778 1403H778.002V1475H767.778V1454.41H757.41V1444.18H767.778V1403ZM829.391 1475V1464.78H870.575V1475H829.391ZM880.799 1464.78H870.575V1444.18H880.799V1464.78ZM870.575 1444.18H839.615V1433.82H870.575V1444.18ZM829.391 1413.22H839.615V1433.82H829.391V1413.22ZM880.799 1403V1413.22H839.615V1403H880.799ZM932.168 1403H942.392V1475H932.168V1444.18H901.208V1475H890.984V1403H901.208V1433.82H932.168V1403ZM983.394 1413.22H973.17V1464.78H983.394V1475H952.578V1464.78H962.802V1413.22H952.578V1403H983.394V1413.22ZM1045.05 1433.82H1034.82V1413.22H1045.05V1433.82ZM1003.86 1433.82H1034.82V1444.18H1045.05V1475H1034.82V1444.18H1003.86V1475H993.641V1403H1034.82V1413.22H1003.86V1433.82ZM1106.64 1403V1413.22H1086.05V1475H1075.83V1413.22H1055.23V1403H1106.64Z" fill="#1E661E"/>
</svg>
