<svg xmlns="http://www.w3.org/2000/svg" viewBox="0 0 1329.4 1734"  xmlns:v="https://vecta.io/nano"><path d="M1300.5 57.8h-28.9V0h-57.8v57.8H1156V0h-57.8v57.8h-57.8V0h-57.8v57.8h-57.8V0H867v57.8h-57.8V0h-57.8v57.8h-57.8V0h-57.8v57.8H578V0h-57.8v57.8h-57.8V0h-57.8v57.8h-57.8V0H289v57.8h-57.8V0h-57.8v57.8h-57.8V0H57.8v57.8H0V1734h57.8v-57.8h57.8v57.8h57.8v-57.8h57.8v57.8H289v-57.8h57.8v57.8h57.8v-57.8h57.8v57.8h57.8v-57.8H578v57.8h57.8v-57.8h57.8v57.8h57.8v-57.8h57.8v57.8H867v-57.8h57.8v57.8h57.8v-57.8h57.8v57.8h57.8v-57.8h57.8v57.8h57.8v-57.8h57.8v57.8h57.8V57.8z" fill="#33bacc"/><g fill="#36818e"><path d="M1156 173.4h28.9v28.9H1156zm0 1358.3h28.9v28.9H1156z"/><path d="M1184.9 202.3v202.3H144.5V202.3h-28.9v1329.4h28.9v-202.3h1040.4v202.3h28.9V202.3h-28.9zm0 260.1v838.1H144.5v-867h1040.4v28.9zm-953.7-289H1156v-28.9H173.4v28.9h28.9z"/><path d="M144.5 173.4h28.9v28.9h-28.9zm0 1358.3h28.9v28.9h-28.9z"/><path d="M1098.2 1560.6H173.4v28.9H1156v-28.9h-28.9z"/></g><path d="M1127.1 1329.4H144.5v202.3h28.9v28.9H1156v-28.9h28.9v-202.3H1156zM1156 202.3v-28.9H173.4v28.9h-28.9v202.3h1040.4V202.3zm-28.9 231.2H144.5v867h1040.4v-867H1156z" fill="#fff"/><path d="M246.6 296.2h10.3v51.6h-10.3v-51.6zm20.6 51.6v10.4h10.3v10.3h-10.3v-10.3h-10.4v-10.4h10.4zm10.3 10.4v-10.4h10.4v10.4h-10.4zm10.4-62h10.3v51.6h-10.3v-51.6zm68.8 10.2H367v62h-10.3v-30.9h-31.1v30.9h-10.3v-62h10.3v20.7h31.1v-20.7zm0-10.2v10.3h-31.1v-10.3h31.1zm79 62v10.3h-51.6v-72.2h10.3v62l41.3-.1zm37.9-51.8v51.7h10.3v10.3H453v-10.3h10.3v-51.7H453v-10.3h30.9v10.3h-10.3zm37.7 0v51.7h31.1v10.3h-41.3v-72.2h41.3v10.3l-31.1-.1zm31 0h10.3v51.7h-10.3v-51.7zm86 0v20.7h41.3v10.4h-41.3v30.9h-10.2v-72.2h51.6v10.3l-41.4-.1zm58.5 0h10.3v51.7h-10.3v-51.7zm41.4-10.2v10.3h-31.1v-10.3h31.1zm-31.1 72.2v-10.3h31.1v10.3h-31.1zm31.1-62h10.3v51.7h-10.3v-51.7zm37.7 20.7H797v10.4h10.3v30.9H797v-30.9h-31.1v30.9h-10.3v-72.2h41.3v10.3h-31.1l.1 20.6zm41.3 0h-10.3v-20.7h10.3v20.7zm65.5-20.7H883v51.7h-10.3v-51.7zm41.3-10.2v10.3h-31.1v-10.3H914zm-31.1 72.2v-10.3H914v10.3h-31.1zm31.1-62h10.3v51.7H914v-51.7zm37.7 10.4h10.4v10.3h-10.4v41.3h-10.3v-72.2h10.3v20.6zm10.4 10.3h10.3v10.4h-10.3v-10.4zm20.7-30.9h10.3v72.2h-10.3v-20.7h-10.4v-10.3h10.4v-41.2zm37.7 10.2v20.7h41.3v10.4h-41.3v20.7h41.3v10.3h-51.6v-72.2h51.6v10.3h-41.3v-.2z" enable-background="new" fill="#36818e"/><path d="M227.6 1411.9h10.3v51.7h-10.3v-51.7zm51.6-10.2v10.3h-41.3v-10.3h41.3zm0 72.2h-41.3v-10.3h41.3v10.3zm58.5-62H348v62h-10.3V1443h-31.1v30.9h-10.3v-62h10.3v20.7h31.1v-20.7zm0-10.2v10.3h-31.1v-10.3h31.1zm37.7 10.2v20.7h31.1v10.4h-31.1v30.9h-10.3v-72.2h41.3v10.3l-31-.1zm31.1 0h10.3v20.7h-10.3v-20.7zm27.5 62v-10.3h10.3v10.3H434zm117-62h10.3v62H551V1443h-31.1v30.9h-10.3v-62h10.3v20.7H551v-20.7zm0-10.2v10.3h-31.1v-10.3H551zm68.8 10.2h10.3v62h-10.3V1443h-31.1v30.9h-10.3v-62h10.3v20.7h31.1v-20.7zm0-10.2v10.3h-31.1v-10.3h31.1zm27.4 0h10.3v51.6h-10.3v-51.6zm20.7 51.5v10.4h10.3v10.3h-10.3v-10.3h-10.4v-10.4h10.4zm10.3 10.4v-10.4h10.4v10.4h-10.4zm10.4-61.9h10.3v51.6h-10.3v-51.6zm37.7 10.2v20.7h41.3v10.4h-41.3v20.7h41.3v10.3H716v-72.2h51.6v10.3h-41.3v-.2zm106.8 0h10.3v20.7h-10.3v-20.7zm0 62v-10.3h41.3v10.3h-41.3zm51.6-72.2v10.3h-41.3v-10.3h41.3zm-10.3 41.3h-31.1v-10.4h31.1v10.4zm10.3 20.6h-10.3v-20.7h10.3v20.7zm17.1-61.9h10.3v62h-10.3v-62zm10.3 72.2v-10.3h31.1v10.3h-31.1zm31.1-72.2h10.3v62h-10.3v-62zm48.1 10.2v51.7h10.3v10.3h-30.9v-10.3H981v-51.7h-10.3v-10.3h30.9v10.3h-10.3zm79 0h-20.7v62h-10.3v-62h-20.7v-10.3h51.6l.1 10.3z" enable-background="new" fill="#36818e"/><g fill="#0f5a87"><path d="M1040.2,680.8h20.9v20.9h-20.9V680.8z"/><path d="M1061.1,701.7h20.9v20.9h-20.9V701.7z"/><path d="M1102.8 743.4h20.9v-20.9H1082v20.9h20.8zm41.8 20.9h20.9v-20.9h-41.7v20.9h20.8zm-20.9 83.4H1082v20.9h83.5v-20.9h-41.8zM1019.4 806v-62.6h-41.7v333.8H936v41.7h83.5V826.8h20.9v-20.9h-21v.1z"/><path d="M1061.1 826.9h-20.9v20.9h41.7v-20.9h-20.8zm104.3-62.6v83.5h20.9v-83.5h-20.9zm-229.5 271.2H831.6v41.7h104.3v-41.7zm-438.2 0H393.4v41.7h104.3v-20.9c0 .1 0-20.8 0-20.8z"/><path d="M560.3 1077.2h-62.6v41.7h104.4v-41.7h-41.8z"/><path d="M727.3 1035.5H602.1v41.7h125.2v-41.7z"/><path d="M789.9 1077.2h-62.6v41.7h104.3v-41.7h-41.7zM268.2 680.8h20.9v20.9h-20.9v-20.9z"/><path d="M247.4,701.7h20.9v20.9h-20.9V701.7z"/><path d="M247.4 743.4v-20.9h-41.7v20.9h41.7zm-41.8 20.9v-20.9h-41.7v20.9h41.7zm0 83.4h-41.7v20.9h83.5v-20.9h-41.8z"/><path d="M247.4 826.9v20.9h41.7v-20.9h-41.7zM163.9 806v-41.7H143v83.5h20.9V806z"/><path d="M351.7 1077.2V743.4H310V806h-20.9v20.9H310V1119h83.5v-41.7h-41.8v-.1z"/></g><path d="M1061.1 722.5v-20.9h-20.9v-20.9H935.9v41.7h-41.7v41.7H769v41.7h-83.5v20.9h20.9v20.9h20.9v20.9h-20.9v41.7h271.3V743.3h41.7v62.6h20.9v20.9h41.7V722.5h-20.9zM935.9 952.1H351.7v125.2h41.7v-41.7h104.3v-41.7h104.4v41.7h125.2v-41.7h104.3v41.7h104.3v41.7h41.7V952.1h-41.7zM643.8 826.9v20.9h41.7v-20.9h-41.7zM622.9 806h-62.6v-41.7H435.1v-41.7h-41.7v-41.7H289.1v20.9h-20.9v20.9h-20.9V827H289v-20.9h20.9v-62.6h41.7v166.9h271.3v-41.8h-20.8v-20.9H623v-20.9h20.9v-20.9l-21 .1zm62.6 104.3v-41.7h-41.7v41.7h41.7z" fill="#0fa9c9"/><g fill="#fff"><path d="M935.9 910.3V952h41.7v-41.7h-41.7zm-584.2 0V952h41.7v-41.7h-41.7zm354.7-83.4h-20.9v20.9h-41.7v-20.9h-20.9v20.9h-20.8v20.9H623v41.7h-20.9v41.7h41.7v-83.5h41.7v83.5h41.7v-41.7h-20.9v-41.8h20.9v-20.9h-20.9l.1-20.8z"/><path d="M685.5 826.9V806h-41.7v20.9h41.7zm167 83.4V952h41.7v-41.7h-41.7zm-83.5 0V952h41.7v-41.7H769zm-250.4 0V952h41.7v-41.7h-41.7zm-83.5 0V952h41.7v-41.7h-41.7z"/></g><path d="M1144.6 764.3h-20.9v-20.9H1082v104.3h83.5v-83.5h-20.9v.1zm-939-20.9v20.9h-41.7v83.5h83.5V743.5h-20.9l-20.9-.1zm438.2 166.9V952h41.7v-41.7h-41.7zm-83.5 0V952H602v-41.7h-41.7zm-166.9 0V952h41.7v-41.7h-41.7zm417.3 0V952h41.7v-41.7h-41.7zm83.5 0V952h41.7v-41.7h-41.7zm-104.3 83.5h-62.6v83.5h104.3v-83.5h-41.7zm-229.6 0h-62.6v83.5h104.4v-83.5h-41.8zm-41.7-41.7v-41.7h-41.7v41.7h41.7zm250.4 0v-41.7h-41.7v41.7H769z" fill="#a73796"/><path d="M642.8 195.9H628v14.8h29.6v-14.8z" fill="#52a7aa"/><g fill="#fff"><path d="M628 122.1h14.8v14.8H628z"/><path d="M613.3 107.3h14.8v14.8h-14.8zm44.3 0h14.8v14.8h-14.8z"/></g><g fill="#96ffff"><path d="M642.8 151.6h14.8v14.8h-14.8z"/><path d="M672.4 122.1h-29.6v14.7h14.8v14.8h14.8v-14.8h14.7v-14.7z"/><path d="M628 136.8v-14.7h-14.7v29.5h29.5v-14.8z"/></g><g fill="#dbffff"><path d="M687.1 107.3h-14.7v14.8h29.5v-14.8zm-29.5 44.3h14.8v14.8h-14.8z"/><path d="M642.8 136.8h14.8v14.8h-14.8zm14.8-14.7v-14.8H628v14.8h14.8z"/></g><g fill="#0ff"><path d="M701.9 107.3h14.8v14.8h-14.8z"/><path d="M687.1 122.1h14.8v14.8h-14.8z"/><path d="M672.4 136.8h14.8v14.8h-14.8zm29.5 59.1h14.8v14.8h-14.8z"/><path d="M687.1 181.2h14.8V196h-14.8z"/><path d="M672.4 166.4h14.8v14.8h-14.8zm-59.1-14.8v44.3H628v-14.7h14.8v-29.6H628z"/></g><g fill="#86e8e6"><path d="M687.1 195.9h14.8v14.8h-14.8z"/><path d="M701.9 151.6v44.3h14.8v-44.3z"/></g><path d="M657.6 195.9v14.8h29.5v-14.8h-14.7zm44.3-73.8v29.5h14.8v-29.5z" fill="#4fd1d6"/><g fill="#33bacc"><path d="M642.8 166.4h14.8v14.8h-14.8z"/><path d="M628 181.2h14.8V196H628z"/><path d="M613.3 195.9h14.8v14.8h-14.8zm73.8-59.1v14.8h-14.7v14.8h14.7v14.8h14.8v-44.4z"/></g><g fill="#36818e"><path d="M701.9 92.5h-88.6v14.8h103.4V92.5zm-29.5 73.9h-14.8v14.8h-14.8v14.7h44.3v-14.7h-14.7z"/><path d="M598.5 122.1v88.6h14.8V107.3h-14.8z"/></g><g fill="#283849"><path d="M716.7 107.3v103.4h14.8V107.3z"/><path d="M687.1 210.7h-73.8v14.8h103.4v-14.8h-14.8z"/></g></svg>