<svg width="103" height="103" viewBox="0 0 103 103" fill="none" xmlns="http://www.w3.org/2000/svg">
<path d="M86.9062 6.4375H85.2969V4.82812V3.21875H83.6875H82.0781V4.82812V6.4375H80.4688H78.8594V4.82812V3.21875H77.25H75.6406V4.82812V6.4375H74.0312H72.4219V4.82812V3.21875H70.8125H69.2031V4.82812V6.4375H67.5938H65.9844V4.82812V3.21875H64.375H62.7656V4.82812V6.4375H61.1562H59.5469V4.82812V3.21875H57.9375H56.3281V4.82812V6.4375H54.7188H53.1094V4.82812V3.21875H51.5H49.8906V4.82812V6.4375H48.2812H46.6719V4.82812V3.21875H45.0625H43.4531V4.82812V6.4375H41.8438H40.2344V4.82812V3.21875H38.625H37.0156V4.82812V6.4375H35.4062H33.7969V4.82812V3.21875H32.1875H30.5781V4.82812V6.4375H28.9688H27.3594V4.82812V3.21875H25.75H24.1406V4.82812V6.4375H22.5312H20.9219V4.82812V3.21875H19.3125H17.7031V4.82812V6.4375H16.0938H14.4844V8.04688V9.65625V11.2656V12.875V14.4844V16.0938V17.7031V19.3125V20.9219V22.5312V24.1406V25.75V27.3594V28.9688V30.5781V32.1875V33.7969V35.4062V37.0156V38.625V40.2344V41.8438V43.4531V45.0625V46.6719V48.2812V49.8906V51.5V53.1094V54.7188V56.3281V57.9375V59.5469V61.1562V62.7656V64.375V65.9844V67.5938V69.2031V70.8125V72.4219V74.0312V75.6406V77.25V78.8594V80.4688V82.0781V83.6875V85.2969V86.9062V88.5156V90.125V91.7344V93.3438V94.9531V96.5625V98.1719V99.7812H16.0938H17.7031V98.1719V96.5625H19.3125H20.9219V98.1719V99.7812H22.5312H24.1406V98.1719V96.5625H25.75H27.3594V98.1719V99.7812H28.9688H30.5781V98.1719V96.5625H32.1875H33.7969V98.1719V99.7812H35.4062H37.0156V98.1719V96.5625H38.625H40.2344V98.1719V99.7812H41.8438H43.4531V98.1719V96.5625H45.0625H46.6719V98.1719V99.7812H48.2812H49.8906V98.1719V96.5625H51.5H53.1094V98.1719V99.7812H54.7188H56.3281V98.1719V96.5625H57.9375H59.5469V98.1719V99.7812H61.1562H62.7656V98.1719V96.5625H64.375H65.9844V98.1719V99.7812H67.5938H69.2031V98.1719V96.5625H70.8125H72.4219V98.1719V99.7812H74.0312H75.6406V98.1719V96.5625H77.25H78.8594V98.1719V99.7812H80.4688H82.0781V98.1719V96.5625H83.6875H85.2969V98.1719V99.7812H86.9062H88.5156V98.1719V96.5625V94.9531V93.3438V91.7344V90.125V88.5156V86.9062V85.2969V83.6875V82.0781V80.4688V78.8594V77.25V75.6406V74.0312V72.4219V70.8125V69.2031V67.5938V65.9844V64.375V62.7656V61.1562V59.5469V57.9375V56.3281V54.7188V53.1094V51.5V49.8906V48.2812V46.6719V45.0625V43.4531V41.8438V40.2344V38.625V37.0156V35.4062V33.7969V32.1875V30.5781V28.9688V27.3594V25.75V24.1406V22.5312V20.9219V19.3125V17.7031V16.0938V14.4844V12.875V11.2656V9.65625V8.04688V6.4375H86.9062Z" fill="#FFC36B"/>
<path d="M80.4688 12.875H78.8594V14.4844H80.4688V12.875Z" fill="#EA8C27"/>
<path d="M80.4688 88.5156H78.8594V90.125H80.4688V88.5156Z" fill="#EA8C27"/>
<path d="M80.4688 14.4844V16.0938V17.7031V19.3125V20.9219V22.5312V24.1406V25.75H78.8594H77.25H75.6406H74.0312H72.4219H70.8125H69.2031H67.5938H65.9844H64.375H62.7656H61.1562H59.5469H57.9375H56.3281H54.7188H53.1094H51.5H49.8906H48.2812H46.6719H45.0625H43.4531H41.8438H40.2344H38.625H37.0156H35.4062H33.7969H32.1875H30.5781H28.9688H27.3594H25.75H24.1406H22.5312V24.1406V22.5312V20.9219V19.3125V17.7031V16.0938V14.4844H20.9219V16.0938V17.7031V19.3125V20.9219V22.5312V24.1406V25.75V27.3594V28.9688V30.5781V32.1875V33.7969V35.4062V37.0156V38.625V40.2344V41.8438V43.4531V45.0625V46.6719V48.2812V49.8906V51.5V53.1094V54.7188V56.3281V57.9375V59.5469V61.1562V62.7656V64.375V65.9844V67.5938V69.2031V70.8125V72.4219V74.0312V75.6406V77.25V78.8594V80.4688V82.0781V83.6875V85.2969V86.9062V88.5156H22.5312V86.9062V85.2969V83.6875V82.0781V80.4688V78.8594V77.25H24.1406H25.75H27.3594H28.9688H30.5781H32.1875H33.7969H35.4062H37.0156H38.625H40.2344H41.8438H43.4531H45.0625H46.6719H48.2812H49.8906H51.5H53.1094H54.7188H56.3281H57.9375H59.5469H61.1562H62.7656H64.375H65.9844H67.5938H69.2031H70.8125H72.4219H74.0312H75.6406H77.25H78.8594H80.4688V78.8594V80.4688V82.0781V83.6875V85.2969V86.9062V88.5156H82.0781V86.9062V85.2969V83.6875V82.0781V80.4688V78.8594V77.25V75.6406V74.0312V72.4219V70.8125V69.2031V67.5938V65.9844V64.375V62.7656V61.1562V59.5469V57.9375V56.3281V54.7188V53.1094V51.5V49.8906V48.2812V46.6719V45.0625V43.4531V41.8438V40.2344V38.625V37.0156V35.4062V33.7969V32.1875V30.5781V28.9688V27.3594V25.75V24.1406V22.5312V20.9219V19.3125V17.7031V16.0938V14.4844H80.4688ZM80.4688 28.9688V30.5781V32.1875V33.7969V35.4062V37.0156V38.625V40.2344V41.8438V43.4531V45.0625V46.6719V48.2812V49.8906V51.5V53.1094V54.7188V56.3281V57.9375V59.5469V61.1562V62.7656V64.375V65.9844V67.5938V69.2031V70.8125V72.4219V74.0312V75.6406H78.8594H77.25H75.6406H74.0312H72.4219H70.8125H69.2031H67.5938H65.9844H64.375H62.7656H61.1562H59.5469H57.9375H56.3281H54.7188H53.1094H51.5H49.8906H48.2812H46.6719H45.0625H43.4531H41.8438H40.2344H38.625H37.0156H35.4062H33.7969H32.1875H30.5781H28.9688H27.3594H25.75H24.1406H22.5312V74.0312V72.4219V70.8125V69.2031V67.5938V65.9844V64.375V62.7656V61.1562V59.5469V57.9375V56.3281V54.7188V53.1094V51.5V49.8906V48.2812V46.6719V45.0625V43.4531V41.8438V40.2344V38.625V37.0156V35.4062V33.7969V32.1875V30.5781V28.9688V27.3594H24.1406H25.75H27.3594H28.9688H30.5781H32.1875H33.7969H35.4062H37.0156H38.625H40.2344H41.8438H43.4531H45.0625H46.6719H48.2812H49.8906H51.5H53.1094H54.7188H56.3281H57.9375H59.5469H61.1562H62.7656H64.375H65.9844H67.5938H69.2031H70.8125H72.4219H74.0312H75.6406H77.25H78.8594H80.4688V28.9688Z" fill="#EA8C27"/>
<path d="M27.3594 12.875H28.9688H30.5781H32.1875H33.7969H35.4062H37.0156H38.625H40.2344H41.8438H43.4531H45.0625H46.6719H48.2812H49.8906H51.5H53.1094H54.7188H56.3281H57.9375H59.5469H61.1562H62.7656H64.375H65.9844H67.5938H69.2031H70.8125H72.4219H74.0312H75.6406H77.25H78.8594V11.2656H77.25H75.6406H74.0312H72.4219H70.8125H69.2031H67.5938H65.9844H64.375H62.7656H61.1562H59.5469H57.9375H56.3281H54.7188H53.1094H51.5H49.8906H48.2812H46.6719H45.0625H43.4531H41.8438H40.2344H38.625H37.0156H35.4062H33.7969H32.1875H30.5781H28.9688H27.3594H25.75H24.1406V12.875H25.75H27.3594Z" fill="#EA8C27"/>
<path d="M24.1406 12.875H22.5312V14.4844H24.1406V12.875Z" fill="#EA8C27"/>
<path d="M24.1406 88.5156H22.5312V90.125H24.1406V88.5156Z" fill="#EA8C27"/>
<path d="M75.6406 90.125H74.0312H72.4219H70.8125H69.2031H67.5938H65.9844H64.375H62.7656H61.1562H59.5469H57.9375H56.3281H54.7188H53.1094H51.5H49.8906H48.2812H46.6719H45.0625H43.4531H41.8438H40.2344H38.625H37.0156H35.4062H33.7969H32.1875H30.5781H28.9688H27.3594H25.75H24.1406V91.7344H25.75H27.3594H28.9688H30.5781H32.1875H33.7969H35.4062H37.0156H38.625H40.2344H41.8438H43.4531H45.0625H46.6719H48.2812H49.8906H51.5H53.1094H54.7188H56.3281H57.9375H59.5469H61.1562H62.7656H64.375H65.9844H67.5938H69.2031H70.8125H72.4219H74.0312H75.6406H77.25H78.8594V90.125H77.25H75.6406Z" fill="#EA8C27"/>
<path d="M77.25 77.25H75.6406H74.0312H72.4219H70.8125H69.2031H67.5938H65.9844H64.375H62.7656H61.1562H59.5469H57.9375H56.3281H54.7188H53.1094H51.5H49.8906H48.2812H46.6719H45.0625H43.4531H41.8438H40.2344H38.625H37.0156H35.4062H33.7969H32.1875H30.5781H28.9688H27.3594H25.75H24.1406H22.5312V78.8594V80.4688V82.0781V83.6875V85.2969V86.9062V88.5156H24.1406V90.125H25.75H27.3594H28.9688H30.5781H32.1875H33.7969H35.4062H37.0156H38.625H40.2344H41.8438H43.4531H45.0625H46.6719H48.2812H49.8906H51.5H53.1094H54.7188H56.3281H57.9375H59.5469H61.1562H62.7656H64.375H65.9844H67.5938H69.2031H70.8125H72.4219H74.0312H75.6406H77.25H78.8594V88.5156H80.4688V86.9062V85.2969V83.6875V82.0781V80.4688V78.8594V77.25H78.8594H77.25Z" fill="white"/>
<path d="M78.8594 14.4844V12.875H77.25H75.6406H74.0312H72.4219H70.8125H69.2031H67.5938H65.9844H64.375H62.7656H61.1562H59.5469H57.9375H56.3281H54.7188H53.1094H51.5H49.8906H48.2812H46.6719H45.0625H43.4531H41.8438H40.2344H38.625H37.0156H35.4062H33.7969H32.1875H30.5781H28.9688H27.3594H25.75H24.1406V14.4844H22.5312V16.0938V17.7031V19.3125V20.9219V22.5312V24.1406V25.75H24.1406H25.75H27.3594H28.9688H30.5781H32.1875H33.7969H35.4062H37.0156H38.625H40.2344H41.8438H43.4531H45.0625H46.6719H48.2812H49.8906H51.5H53.1094H54.7188H56.3281H57.9375H59.5469H61.1562H62.7656H64.375H65.9844H67.5938H69.2031H70.8125H72.4219H74.0312H75.6406H77.25H78.8594H80.4688V24.1406V22.5312V20.9219V19.3125V17.7031V16.0938V14.4844H78.8594Z" fill="white"/>
<path d="M77.25 27.3594H75.6406H74.0312H72.4219H70.8125H69.2031H67.5938H65.9844H64.375H62.7656H61.1562H59.5469H57.9375H56.3281H54.7188H53.1094H51.5H49.8906H48.2812H46.6719H45.0625H43.4531H41.8438H40.2344H38.625H37.0156H35.4062H33.7969H32.1875H30.5781H28.9688H27.3594H25.75H24.1406H22.5312V28.9688V30.5781V32.1875V33.7969V35.4062V37.0156V38.625V40.2344V41.8438V43.4531V45.0625V46.6719V48.2812V49.8906V51.5V53.1094V54.7188V56.3281V57.9375V59.5469V61.1562V62.7656V64.375V65.9844V67.5938V69.2031V70.8125V72.4219V74.0312V75.6406H24.1406H25.75H27.3594H28.9688H30.5781H32.1875H33.7969H35.4062H37.0156H38.625H40.2344H41.8438H43.4531H45.0625H46.6719H48.2812H49.8906H51.5H53.1094H54.7188H56.3281H57.9375H59.5469H61.1562H62.7656H64.375H65.9844H67.5938H69.2031H70.8125H72.4219H74.0312H75.6406H77.25H78.8594H80.4688V74.0312V72.4219V70.8125V69.2031V67.5938V65.9844V64.375V62.7656V61.1562V59.5469V57.9375V56.3281V54.7188V53.1094V51.5V49.8906V48.2812V46.6719V45.0625V43.4531V41.8438V40.2344V38.625V37.0156V35.4062V33.7969V32.1875V30.5781V28.9688V27.3594H78.8594H77.25Z" fill="white"/>
<path d="M51.0172 12.875H50.2125V13.6797H51.0172V12.875Z" fill="white"/>
<path d="M51.1781 8.04688V8.85156V9.65625V10.4609V11.2656V12.0703V12.875H51.8219V12.0703V11.2656V10.4609V9.65625V8.85156V8.04688H51.1781Z" fill="white"/>
<path d="M51.0172 9.65625H50.2125V10.4609H51.0172V9.65625Z" fill="#FFFFC4"/>
<path d="M51.9828 12.875H51.1781V13.6797H51.9828V12.875Z" fill="#FFFFC4"/>
<path d="M48.6031 12.875V13.6797H49.5688H50.2125V12.875H49.5688H48.6031Z" fill="#FFFFC4"/>
<path d="M51.0172 16.0938H50.2125V16.8984H51.0172V16.0938Z" fill="#FFD596"/>
<path d="M51.9828 14.4844H51.1781V15.2891H51.9828V14.4844Z" fill="#FFD596"/>
<path d="M50.2125 12.0703V11.2656H49.5688V12.0703V12.875H50.2125V12.0703Z" fill="#FFD596"/>
<path d="M51.0172 10.4609H50.2125V11.2656H51.0172V10.4609Z" fill="#FFD596"/>
<path d="M53.4313 12.875H52.7875V13.6797H53.4313H54.3969V12.875H53.4313Z" fill="#FFD596"/>
<path d="M51.1781 15.2891H50.2125V16.0938H51.1781H51.8219V15.2891H51.1781Z" fill="#FFC36B"/>
<path d="M51.9828 13.6797H51.1781V14.4844H51.9828V13.6797Z" fill="#FFC36B"/>
<path d="M51.1781 12.0703V11.2656H50.2125V12.0703V12.875H51.1781V12.0703Z" fill="#FFC36B"/>
<path d="M52.6266 12.875H51.8219V13.6797H52.6266V12.875Z" fill="#FFC36B"/>
<path d="M52.6266 16.0938H51.8219V16.8984H52.6266V16.0938Z" fill="#FFC36B"/>
<path d="M53.5922 14.4844H52.7875V15.2891H53.5922V14.4844Z" fill="#FFC36B"/>
<path d="M50.2125 13.6797H49.5688V14.4844V15.2891H50.2125V14.4844V13.6797Z" fill="#FFC36B"/>
<path d="M52.6266 9.65625H51.8219V10.4609H52.6266V9.65625Z" fill="#FFB200"/>
<path d="M51.1781 16.8984V17.7031V18.5078H51.8219V17.7031V16.8984V16.0938H51.1781V16.8984Z" fill="#FFB200"/>
<path d="M52.6266 15.2891H51.8219V16.0938H52.6266V15.2891Z" fill="#FFB200"/>
<path d="M51.1781 14.4844V13.6797H50.2125V14.4844V15.2891H51.1781V14.4844Z" fill="#FFB200"/>
<path d="M53.5922 13.6797H52.7875V14.4844H53.5922V13.6797Z" fill="#FFB200"/>
<path d="M52.6266 10.4609H51.8219V11.2656H52.6266V10.4609Z" fill="#EA8C27"/>
<path d="M53.5922 11.2656H52.7875V12.0703H53.5922V11.2656Z" fill="#EA8C27"/>
<path d="M52.6266 11.2656H51.8219V12.0703H52.6266V11.2656Z" fill="#D67137"/>
<path d="M53.5922 12.0703H52.7875V12.875H53.5922V12.0703Z" fill="#D67137"/>
<path d="M52.7875 8.04688H51.8219V8.85156V9.65625H52.7875V8.85156V8.04688Z" fill="#994A4A"/>
<path d="M53.4313 9.65625H52.7875V10.4609V11.2656H53.4313V10.4609V9.65625Z" fill="#994A4A"/>
<path d="M54.3969 11.2656H53.4313V12.0703V12.875H54.3969V12.0703V11.2656Z" fill="#994A4A"/>
<path d="M51.8219 14.4844V15.2891H52.7875V14.4844V13.6797H51.8219V14.4844Z" fill="#994A4A"/>
<path d="M55.2016 12.875H54.3969V13.6797H55.2016V12.875Z" fill="#994A4A"/>
<path d="M50.2125 17.7031V18.5078H51.1781V17.7031V16.8984H50.2125V17.7031Z" fill="#994A4A"/>
<path d="M50.2125 15.2891H49.5688V16.0938V16.8984H50.2125V16.0938V15.2891Z" fill="#994A4A"/>
<path d="M49.5688 13.6797H48.6031V14.4844V15.2891H49.5688V14.4844V13.6797Z" fill="#994A4A"/>
<path d="M51.9828 7.24219H51.1781V8.04688H51.9828V7.24219Z" fill="#AD5A41"/>
<path d="M51.1781 8.85156V8.04688H50.2125V8.85156V9.65625H51.1781V8.85156Z" fill="#AD5A41"/>
<path d="M52.6266 12.0703H51.8219V12.875H52.6266V12.0703Z" fill="#AD5A41"/>
<path d="M49.5688 10.4609V11.2656H50.2125V10.4609V9.65625H49.5688V10.4609Z" fill="#AD5A41"/>
<path d="M48.6031 12.0703V12.875H49.5688V12.0703V11.2656H48.6031V12.0703Z" fill="#AD5A41"/>
<path d="M51.9828 18.5078H51.1781V19.3125H51.9828V18.5078Z" fill="#AD5A41"/>
<path d="M51.8219 17.7031V18.5078H52.7875V17.7031V16.8984H51.8219V17.7031Z" fill="#AD5A41"/>
<path d="M52.7875 16.0938V16.8984H53.4313V16.0938V15.2891H52.7875V16.0938Z" fill="#AD5A41"/>
<path d="M53.4313 13.6797V14.4844V15.2891H54.3969V14.4844V13.6797H53.4313Z" fill="#AD5A41"/>
<path d="M48.7641 12.875H47.9594V13.6797H48.7641V12.875Z" fill="#AD5A41"/>
<path d="M36.149 18.6264V19.0584H36.575V19.4844H36.149V19.0584H35.717V18.6264H36.149ZM36.575 19.0584V18.6264H37.007V19.0584H36.575ZM35.291 16.4844H35.717V18.6264H35.291V16.4844ZM37.007 16.4844H37.433V18.6264H37.007V16.4844ZM39.5734 16.4844V16.9104H38.2834V16.4844H39.5734ZM39.5734 16.9104H39.9994V19.4844H39.5734V18.2004H38.2834V19.4844H37.8574V16.9104H38.2834V17.7684H39.5734V16.9104ZM40.8498 19.0584H42.5658V19.4844H40.4238V16.4844H40.8498V19.0584ZM44.2742 16.9104H43.8482V19.0584H44.2742V19.4844H42.9902V19.0584H43.4162V16.9104H42.9902V16.4844H44.2742V16.9104ZM45.1272 16.9104V19.0584H46.4172V19.4844H44.7012V16.4844H46.4172V16.9104H45.1272ZM46.4172 16.9104H46.8432V19.0584H46.4172V16.9104ZM51.1264 16.9104H49.4104V17.7684H51.1264V18.2004H49.4104V19.4844H48.9844V16.4844H51.1264V16.9104ZM51.9768 19.4844V19.0584H53.2668V19.4844H51.9768ZM51.5508 16.9104H51.9768V19.0584H51.5508V16.9104ZM53.2668 16.4844V16.9104H51.9768V16.4844H53.2668ZM53.2668 16.9104H53.6928V19.0584H53.2668V16.9104ZM56.2592 17.7684H55.8332V16.9104H56.2592V17.7684ZM54.5432 17.7684H55.8332V18.2004H56.2592V19.4844H55.8332V18.2004H54.5432V19.4844H54.1172V16.4844H55.8332V16.9104H54.5432V17.7684ZM58.8264 19.4844V19.0584H60.1164V19.4844H58.8264ZM58.4004 16.9104H58.8264V19.0584H58.4004V16.9104ZM60.1164 16.4844V16.9104H58.8264V16.4844H60.1164ZM60.1164 16.9104H60.5424V19.0584H60.1164V16.9104ZM61.3928 17.3424H61.8248V17.7684H61.3928V19.4844H60.9668V16.4844H61.3928V17.3424ZM61.8248 17.7684H62.2508V18.2004H61.8248V17.7684ZM62.6828 16.4844H63.1088V19.4844H62.6828V18.6264H62.2508V18.2004H62.6828V16.4844ZM65.6752 16.9104H63.9592V17.7684H65.6752V18.2004H63.9592V19.0584H65.6752V19.4844H63.5332V16.4844H65.6752V16.9104Z" fill="#EA8C27"/>
<path d="M38.6633 81.824H40.3793V82.25H38.2373V79.25H38.6633V81.824ZM42.0877 79.676H41.6617V81.824H42.0877V82.25H40.8037V81.824H41.2297V79.676H40.8037V79.25H42.0877V79.676ZM42.9406 80.108H43.3726V80.534H42.9406V82.25H42.5146V79.25H42.9406V80.108ZM43.3726 80.534H43.7986V80.966H43.3726V80.534ZM44.2306 79.25H44.6566V82.25H44.2306V81.392H43.7986V80.966H44.2306V79.25ZM45.5071 80.534H45.9391V80.966H45.5071V82.25H45.0811V79.25H45.5071V80.534ZM46.3651 80.108V80.534H45.9391V80.108H46.3651ZM46.7971 79.676V80.108H46.3651V79.676H46.7971ZM47.2231 79.25V79.676H46.7971V79.25H47.2231ZM46.3651 81.392H45.9391V80.966H46.3651V81.392ZM46.7971 81.824H46.3651V81.392H46.7971V81.824ZM47.2231 82.25H46.7971V81.824H47.2231V82.25ZM51.5063 80.534H51.0803V79.676H51.5063V80.534ZM49.7903 80.534H51.0803V80.966H49.7903V81.824H51.0803V82.25H49.3643V79.25H51.0803V79.676H49.7903V80.534ZM51.5063 81.824H51.0803V80.966H51.5063V81.824ZM52.3567 82.25V81.824H53.6467V82.25H52.3567ZM51.9307 79.25H52.3567V81.824H51.9307V79.25ZM53.6467 79.25H54.0727V81.824H53.6467V79.25ZM56.6391 80.534H56.2131V79.676H56.6391V80.534ZM54.9231 80.534H56.2131V80.966H54.9231V81.824H56.2131V82.25H54.4971V79.25H56.2131V79.676H54.9231V80.534ZM56.6391 81.824H56.2131V80.966H56.6391V81.824ZM59.2055 80.534H58.7795V79.676H59.2055V80.534ZM57.4895 80.534H58.7795V80.966H57.4895V81.824H58.7795V82.25H57.0635V79.25H58.7795V79.676H57.4895V80.534ZM59.2055 81.824H58.7795V80.966H59.2055V81.824ZM60.0559 81.824H61.7719V82.25H59.6299V79.25H60.0559V81.824ZM63.0543 82.25V80.966H63.4803V82.25H63.0543ZM62.6223 80.534H63.0543V80.966H62.6223V80.534ZM62.1963 79.25H62.6223V80.534H62.1963V79.25ZM63.4803 80.966V80.534H63.9123V80.966H63.4803ZM63.9123 79.25H64.3383V80.534H63.9123V79.25Z" fill="#EA8C27"/>
<path d="M50.9252 43.4007L49.3241 43.5638L47.723 43.7268L47.8861 45.3279L48.0491 46.929L49.6502 46.766L51.2513 46.6029L52.8524 46.4399L52.6894 44.8388L52.5263 43.2377L50.9252 43.4007Z" fill="white"/>
<path d="M49.6502 46.7659L48.0491 46.929L48.2121 48.5301L48.3752 50.1311L48.5382 51.7322L48.7012 53.3333L48.8643 54.9344L50.4654 54.7714L52.0665 54.6084L53.6676 54.4453L53.5045 52.8442L53.3415 51.2431L53.1785 49.642L53.0154 48.0409L52.8524 46.4399L51.2513 46.6029L49.6502 46.7659Z" fill="#FFFFBE"/>
<path d="M50.4361 38.5975L48.835 38.7605L48.9981 40.3616L50.5992 40.1986L50.4361 38.5975Z" fill="#FFFFBE"/>
<path d="M51.7112 35.232L50.1101 35.395L50.2731 36.9961L51.8742 36.8331L51.7112 35.232Z" fill="#FFFFBE"/>
<path d="M48.3459 33.9571L46.7448 34.1201L46.9079 35.7212L48.509 35.5582L48.3459 33.9571Z" fill="#FFFFBE"/>
<path d="M52.3633 41.6364L50.7622 41.7995L49.1611 41.9625L47.56 42.1255L45.9589 42.2886L46.1219 43.8897L46.285 45.4908L46.448 47.0919L46.611 48.693L46.7741 50.2941L46.9371 51.8952L47.1001 53.4962L47.2632 55.0973L48.8643 54.9343L48.7012 53.3332L48.5382 51.7321L48.3752 50.131L48.2121 48.5299L48.0491 46.9288L47.8861 45.3277L47.723 43.7266L49.3241 43.5636L50.9252 43.4006L52.5263 43.2375L52.6894 44.8386L52.8524 46.4397L53.0154 48.0408L53.1785 49.6419L53.3415 51.243L53.5045 52.8441L53.6676 54.4452L55.2687 54.2822L55.1056 52.6811L54.9426 51.08L54.7796 49.4789L54.6165 47.8778L54.4535 46.2767L54.2905 44.6756L54.1274 43.0745L53.9644 41.4734L52.3633 41.6364Z" fill="#0000B9"/>
<path d="M50.4654 54.7713L48.8643 54.9343L49.0273 56.5354L50.6284 56.3724L50.7914 57.9735L50.9545 59.5746L51.1175 61.1757L51.2805 62.7768L49.6794 62.9398L49.8425 64.5409L51.4436 64.3779L53.0447 64.2148L54.6458 64.0518L54.4827 62.4507L52.8816 62.6137L52.7186 61.0126L52.5556 59.4115L52.3925 57.8105L52.2295 56.2094L53.8306 56.0463L53.6676 54.4452L52.0665 54.6083L50.4654 54.7713Z" fill="#0000B9"/>
</svg>
