<svg width="103" height="103" viewBox="0 0 103 103" fill="none" xmlns="http://www.w3.org/2000/svg">
<path d="M86.9062 6.4375H85.2969V4.82812V3.21875H83.6875H82.0781V4.82812V6.4375H80.4688H78.8594V4.82812V3.21875H77.25H75.6406V4.82812V6.4375H74.0312H72.4219V4.82812V3.21875H70.8125H69.2031V4.82812V6.4375H67.5938H65.9844V4.82812V3.21875H64.375H62.7656V4.82812V6.4375H61.1562H59.5469V4.82812V3.21875H57.9375H56.3281V4.82812V6.4375H54.7188H53.1094V4.82812V3.21875H51.5H49.8906V4.82812V6.4375H48.2812H46.6719V4.82812V3.21875H45.0625H43.4531V4.82812V6.4375H41.8438H40.2344V4.82812V3.21875H38.625H37.0156V4.82812V6.4375H35.4062H33.7969V4.82812V3.21875H32.1875H30.5781V4.82812V6.4375H28.9688H27.3594V4.82812V3.21875H25.75H24.1406V4.82812V6.4375H22.5312H20.9219V4.82812V3.21875H19.3125H17.7031V4.82812V6.4375H16.0938H14.4844V8.04688V9.65625V11.2656V12.875V14.4844V16.0938V17.7031V19.3125V20.9219V22.5312V24.1406V25.75V27.3594V28.9688V30.5781V32.1875V33.7969V35.4062V37.0156V38.625V40.2344V41.8438V43.4531V45.0625V46.6719V48.2812V49.8906V51.5V53.1094V54.7188V56.3281V57.9375V59.5469V61.1562V62.7656V64.375V65.9844V67.5938V69.2031V70.8125V72.4219V74.0312V75.6406V77.25V78.8594V80.4688V82.0781V83.6875V85.2969V86.9062V88.5156V90.125V91.7344V93.3438V94.9531V96.5625V98.1719V99.7812H16.0938H17.7031V98.1719V96.5625H19.3125H20.9219V98.1719V99.7812H22.5312H24.1406V98.1719V96.5625H25.75H27.3594V98.1719V99.7812H28.9688H30.5781V98.1719V96.5625H32.1875H33.7969V98.1719V99.7812H35.4062H37.0156V98.1719V96.5625H38.625H40.2344V98.1719V99.7812H41.8438H43.4531V98.1719V96.5625H45.0625H46.6719V98.1719V99.7812H48.2812H49.8906V98.1719V96.5625H51.5H53.1094V98.1719V99.7812H54.7188H56.3281V98.1719V96.5625H57.9375H59.5469V98.1719V99.7812H61.1562H62.7656V98.1719V96.5625H64.375H65.9844V98.1719V99.7812H67.5938H69.2031V98.1719V96.5625H70.8125H72.4219V98.1719V99.7812H74.0312H75.6406V98.1719V96.5625H77.25H78.8594V98.1719V99.7812H80.4688H82.0781V98.1719V96.5625H83.6875H85.2969V98.1719V99.7812H86.9062H88.5156V98.1719V96.5625V94.9531V93.3438V91.7344V90.125V88.5156V86.9062V85.2969V83.6875V82.0781V80.4688V78.8594V77.25V75.6406V74.0312V72.4219V70.8125V69.2031V67.5938V65.9844V64.375V62.7656V61.1562V59.5469V57.9375V56.3281V54.7188V53.1094V51.5V49.8906V48.2812V46.6719V45.0625V43.4531V41.8438V40.2344V38.625V37.0156V35.4062V33.7969V32.1875V30.5781V28.9688V27.3594V25.75V24.1406V22.5312V20.9219V19.3125V17.7031V16.0938V14.4844V12.875V11.2656V9.65625V8.04688V6.4375H86.9062Z" fill="#FFC36B"/>
<path d="M80.4688 12.875H78.8594V14.4844H80.4688V12.875Z" fill="#EA8C27"/>
<path d="M80.4688 88.5156H78.8594V90.125H80.4688V88.5156Z" fill="#EA8C27"/>
<path d="M80.4688 14.4844V16.0938V17.7031V19.3125V20.9219V22.5312V24.1406V25.75H78.8594H77.25H75.6406H74.0312H72.4219H70.8125H69.2031H67.5938H65.9844H64.375H62.7656H61.1562H59.5469H57.9375H56.3281H54.7188H53.1094H51.5H49.8906H48.2812H46.6719H45.0625H43.4531H41.8438H40.2344H38.625H37.0156H35.4062H33.7969H32.1875H30.5781H28.9688H27.3594H25.75H24.1406H22.5312V24.1406V22.5312V20.9219V19.3125V17.7031V16.0938V14.4844H20.9219V16.0938V17.7031V19.3125V20.9219V22.5312V24.1406V25.75V27.3594V28.9688V30.5781V32.1875V33.7969V35.4062V37.0156V38.625V40.2344V41.8438V43.4531V45.0625V46.6719V48.2812V49.8906V51.5V53.1094V54.7188V56.3281V57.9375V59.5469V61.1562V62.7656V64.375V65.9844V67.5938V69.2031V70.8125V72.4219V74.0312V75.6406V77.25V78.8594V80.4688V82.0781V83.6875V85.2969V86.9062V88.5156H22.5312V86.9062V85.2969V83.6875V82.0781V80.4688V78.8594V77.25H24.1406H25.75H27.3594H28.9688H30.5781H32.1875H33.7969H35.4062H37.0156H38.625H40.2344H41.8438H43.4531H45.0625H46.6719H48.2812H49.8906H51.5H53.1094H54.7188H56.3281H57.9375H59.5469H61.1562H62.7656H64.375H65.9844H67.5938H69.2031H70.8125H72.4219H74.0312H75.6406H77.25H78.8594H80.4688V78.8594V80.4688V82.0781V83.6875V85.2969V86.9062V88.5156H82.0781V86.9062V85.2969V83.6875V82.0781V80.4688V78.8594V77.25V75.6406V74.0312V72.4219V70.8125V69.2031V67.5938V65.9844V64.375V62.7656V61.1562V59.5469V57.9375V56.3281V54.7188V53.1094V51.5V49.8906V48.2812V46.6719V45.0625V43.4531V41.8438V40.2344V38.625V37.0156V35.4062V33.7969V32.1875V30.5781V28.9688V27.3594V25.75V24.1406V22.5312V20.9219V19.3125V17.7031V16.0938V14.4844H80.4688ZM80.4688 28.9688V30.5781V32.1875V33.7969V35.4062V37.0156V38.625V40.2344V41.8438V43.4531V45.0625V46.6719V48.2812V49.8906V51.5V53.1094V54.7188V56.3281V57.9375V59.5469V61.1562V62.7656V64.375V65.9844V67.5938V69.2031V70.8125V72.4219V74.0312V75.6406H78.8594H77.25H75.6406H74.0312H72.4219H70.8125H69.2031H67.5938H65.9844H64.375H62.7656H61.1562H59.5469H57.9375H56.3281H54.7188H53.1094H51.5H49.8906H48.2812H46.6719H45.0625H43.4531H41.8438H40.2344H38.625H37.0156H35.4062H33.7969H32.1875H30.5781H28.9688H27.3594H25.75H24.1406H22.5312V74.0312V72.4219V70.8125V69.2031V67.5938V65.9844V64.375V62.7656V61.1562V59.5469V57.9375V56.3281V54.7188V53.1094V51.5V49.8906V48.2812V46.6719V45.0625V43.4531V41.8438V40.2344V38.625V37.0156V35.4062V33.7969V32.1875V30.5781V28.9688V27.3594H24.1406H25.75H27.3594H28.9688H30.5781H32.1875H33.7969H35.4062H37.0156H38.625H40.2344H41.8438H43.4531H45.0625H46.6719H48.2812H49.8906H51.5H53.1094H54.7188H56.3281H57.9375H59.5469H61.1562H62.7656H64.375H65.9844H67.5938H69.2031H70.8125H72.4219H74.0312H75.6406H77.25H78.8594H80.4688V28.9688Z" fill="#EA8C27"/>
<path d="M27.3594 12.875H28.9688H30.5781H32.1875H33.7969H35.4062H37.0156H38.625H40.2344H41.8438H43.4531H45.0625H46.6719H48.2812H49.8906H51.5H53.1094H54.7188H56.3281H57.9375H59.5469H61.1562H62.7656H64.375H65.9844H67.5938H69.2031H70.8125H72.4219H74.0312H75.6406H77.25H78.8594V11.2656H77.25H75.6406H74.0312H72.4219H70.8125H69.2031H67.5938H65.9844H64.375H62.7656H61.1562H59.5469H57.9375H56.3281H54.7188H53.1094H51.5H49.8906H48.2812H46.6719H45.0625H43.4531H41.8438H40.2344H38.625H37.0156H35.4062H33.7969H32.1875H30.5781H28.9688H27.3594H25.75H24.1406V12.875H25.75H27.3594Z" fill="#EA8C27"/>
<path d="M24.1406 12.875H22.5312V14.4844H24.1406V12.875Z" fill="#EA8C27"/>
<path d="M24.1406 88.5156H22.5312V90.125H24.1406V88.5156Z" fill="#EA8C27"/>
<path d="M75.6406 90.125H74.0312H72.4219H70.8125H69.2031H67.5938H65.9844H64.375H62.7656H61.1562H59.5469H57.9375H56.3281H54.7188H53.1094H51.5H49.8906H48.2812H46.6719H45.0625H43.4531H41.8438H40.2344H38.625H37.0156H35.4062H33.7969H32.1875H30.5781H28.9688H27.3594H25.75H24.1406V91.7344H25.75H27.3594H28.9688H30.5781H32.1875H33.7969H35.4062H37.0156H38.625H40.2344H41.8438H43.4531H45.0625H46.6719H48.2812H49.8906H51.5H53.1094H54.7188H56.3281H57.9375H59.5469H61.1562H62.7656H64.375H65.9844H67.5938H69.2031H70.8125H72.4219H74.0312H75.6406H77.25H78.8594V90.125H77.25H75.6406Z" fill="#EA8C27"/>
<path d="M77.25 77.25H75.6406H74.0312H72.4219H70.8125H69.2031H67.5938H65.9844H64.375H62.7656H61.1562H59.5469H57.9375H56.3281H54.7188H53.1094H51.5H49.8906H48.2812H46.6719H45.0625H43.4531H41.8438H40.2344H38.625H37.0156H35.4062H33.7969H32.1875H30.5781H28.9688H27.3594H25.75H24.1406H22.5312V78.8594V80.4688V82.0781V83.6875V85.2969V86.9062V88.5156H24.1406V90.125H25.75H27.3594H28.9688H30.5781H32.1875H33.7969H35.4062H37.0156H38.625H40.2344H41.8438H43.4531H45.0625H46.6719H48.2812H49.8906H51.5H53.1094H54.7188H56.3281H57.9375H59.5469H61.1562H62.7656H64.375H65.9844H67.5938H69.2031H70.8125H72.4219H74.0312H75.6406H77.25H78.8594V88.5156H80.4688V86.9062V85.2969V83.6875V82.0781V80.4688V78.8594V77.25H78.8594H77.25Z" fill="white"/>
<path d="M78.8594 14.4844V12.875H77.25H75.6406H74.0312H72.4219H70.8125H69.2031H67.5938H65.9844H64.375H62.7656H61.1562H59.5469H57.9375H56.3281H54.7188H53.1094H51.5H49.8906H48.2812H46.6719H45.0625H43.4531H41.8438H40.2344H38.625H37.0156H35.4062H33.7969H32.1875H30.5781H28.9688H27.3594H25.75H24.1406V14.4844H22.5312V16.0938V17.7031V19.3125V20.9219V22.5312V24.1406V25.75H24.1406H25.75H27.3594H28.9688H30.5781H32.1875H33.7969H35.4062H37.0156H38.625H40.2344H41.8438H43.4531H45.0625H46.6719H48.2812H49.8906H51.5H53.1094H54.7188H56.3281H57.9375H59.5469H61.1562H62.7656H64.375H65.9844H67.5938H69.2031H70.8125H72.4219H74.0312H75.6406H77.25H78.8594H80.4688V24.1406V22.5312V20.9219V19.3125V17.7031V16.0938V14.4844H78.8594Z" fill="white"/>
<path d="M77.25 27.3594H75.6406H74.0312H72.4219H70.8125H69.2031H67.5938H65.9844H64.375H62.7656H61.1562H59.5469H57.9375H56.3281H54.7188H53.1094H51.5H49.8906H48.2812H46.6719H45.0625H43.4531H41.8438H40.2344H38.625H37.0156H35.4062H33.7969H32.1875H30.5781H28.9688H27.3594H25.75H24.1406H22.5312V28.9688V30.5781V32.1875V33.7969V35.4062V37.0156V38.625V40.2344V41.8438V43.4531V45.0625V46.6719V48.2812V49.8906V51.5V53.1094V54.7188V56.3281V57.9375V59.5469V61.1562V62.7656V64.375V65.9844V67.5938V69.2031V70.8125V72.4219V74.0312V75.6406H24.1406H25.75H27.3594H28.9688H30.5781H32.1875H33.7969H35.4062H37.0156H38.625H40.2344H41.8438H43.4531H45.0625H46.6719H48.2812H49.8906H51.5H53.1094H54.7188H56.3281H57.9375H59.5469H61.1562H62.7656H64.375H65.9844H67.5938H69.2031H70.8125H72.4219H74.0312H75.6406H77.25H78.8594H80.4688V74.0312V72.4219V70.8125V69.2031V67.5938V65.9844V64.375V62.7656V61.1562V59.5469V57.9375V56.3281V54.7188V53.1094V51.5V49.8906V48.2812V46.6719V45.0625V43.4531V41.8438V40.2344V38.625V37.0156V35.4062V33.7969V32.1875V30.5781V28.9688V27.3594H78.8594H77.25Z" fill="white"/>
<path d="M51.0172 12.875H50.2125V13.6797H51.0172V12.875Z" fill="white"/>
<path d="M51.1781 8.04688V8.85156V9.65625V10.4609V11.2656V12.0703V12.875H51.8219V12.0703V11.2656V10.4609V9.65625V8.85156V8.04688H51.1781Z" fill="white"/>
<path d="M51.0172 9.65625H50.2125V10.4609H51.0172V9.65625Z" fill="#FFFFC4"/>
<path d="M51.9828 12.875H51.1781V13.6797H51.9828V12.875Z" fill="#FFFFC4"/>
<path d="M48.6031 12.875V13.6797H49.5688H50.2125V12.875H49.5688H48.6031Z" fill="#FFFFC4"/>
<path d="M51.0172 16.0938H50.2125V16.8984H51.0172V16.0938Z" fill="#FFD596"/>
<path d="M51.9828 14.4844H51.1781V15.2891H51.9828V14.4844Z" fill="#FFD596"/>
<path d="M50.2125 12.0703V11.2656H49.5688V12.0703V12.875H50.2125V12.0703Z" fill="#FFD596"/>
<path d="M51.0172 10.4609H50.2125V11.2656H51.0172V10.4609Z" fill="#FFD596"/>
<path d="M53.4313 12.875H52.7875V13.6797H53.4313H54.3969V12.875H53.4313Z" fill="#FFD596"/>
<path d="M51.1781 15.2891H50.2125V16.0938H51.1781H51.8219V15.2891H51.1781Z" fill="#FFC36B"/>
<path d="M51.9828 13.6797H51.1781V14.4844H51.9828V13.6797Z" fill="#FFC36B"/>
<path d="M51.1781 12.0703V11.2656H50.2125V12.0703V12.875H51.1781V12.0703Z" fill="#FFC36B"/>
<path d="M52.6266 12.875H51.8219V13.6797H52.6266V12.875Z" fill="#FFC36B"/>
<path d="M52.6266 16.0938H51.8219V16.8984H52.6266V16.0938Z" fill="#FFC36B"/>
<path d="M53.5922 14.4844H52.7875V15.2891H53.5922V14.4844Z" fill="#FFC36B"/>
<path d="M50.2125 13.6797H49.5688V14.4844V15.2891H50.2125V14.4844V13.6797Z" fill="#FFC36B"/>
<path d="M52.6266 9.65625H51.8219V10.4609H52.6266V9.65625Z" fill="#FFB200"/>
<path d="M51.1781 16.8984V17.7031V18.5078H51.8219V17.7031V16.8984V16.0938H51.1781V16.8984Z" fill="#FFB200"/>
<path d="M52.6266 15.2891H51.8219V16.0938H52.6266V15.2891Z" fill="#FFB200"/>
<path d="M51.1781 14.4844V13.6797H50.2125V14.4844V15.2891H51.1781V14.4844Z" fill="#FFB200"/>
<path d="M53.5922 13.6797H52.7875V14.4844H53.5922V13.6797Z" fill="#FFB200"/>
<path d="M52.6266 10.4609H51.8219V11.2656H52.6266V10.4609Z" fill="#EA8C27"/>
<path d="M53.5922 11.2656H52.7875V12.0703H53.5922V11.2656Z" fill="#EA8C27"/>
<path d="M52.6266 11.2656H51.8219V12.0703H52.6266V11.2656Z" fill="#D67137"/>
<path d="M53.5922 12.0703H52.7875V12.875H53.5922V12.0703Z" fill="#D67137"/>
<path d="M52.7875 8.04688H51.8219V8.85156V9.65625H52.7875V8.85156V8.04688Z" fill="#994A4A"/>
<path d="M53.4313 9.65625H52.7875V10.4609V11.2656H53.4313V10.4609V9.65625Z" fill="#994A4A"/>
<path d="M54.3969 11.2656H53.4313V12.0703V12.875H54.3969V12.0703V11.2656Z" fill="#994A4A"/>
<path d="M51.8219 14.4844V15.2891H52.7875V14.4844V13.6797H51.8219V14.4844Z" fill="#994A4A"/>
<path d="M55.2016 12.875H54.3969V13.6797H55.2016V12.875Z" fill="#994A4A"/>
<path d="M50.2125 17.7031V18.5078H51.1781V17.7031V16.8984H50.2125V17.7031Z" fill="#994A4A"/>
<path d="M50.2125 15.2891H49.5688V16.0938V16.8984H50.2125V16.0938V15.2891Z" fill="#994A4A"/>
<path d="M49.5688 13.6797H48.6031V14.4844V15.2891H49.5688V14.4844V13.6797Z" fill="#994A4A"/>
<path d="M51.9828 7.24219H51.1781V8.04688H51.9828V7.24219Z" fill="#AD5A41"/>
<path d="M51.1781 8.85156V8.04688H50.2125V8.85156V9.65625H51.1781V8.85156Z" fill="#AD5A41"/>
<path d="M52.6266 12.0703H51.8219V12.875H52.6266V12.0703Z" fill="#AD5A41"/>
<path d="M49.5688 10.4609V11.2656H50.2125V10.4609V9.65625H49.5688V10.4609Z" fill="#AD5A41"/>
<path d="M48.6031 12.0703V12.875H49.5688V12.0703V11.2656H48.6031V12.0703Z" fill="#AD5A41"/>
<path d="M51.9828 18.5078H51.1781V19.3125H51.9828V18.5078Z" fill="#AD5A41"/>
<path d="M51.8219 17.7031V18.5078H52.7875V17.7031V16.8984H51.8219V17.7031Z" fill="#AD5A41"/>
<path d="M52.7875 16.0938V16.8984H53.4313V16.0938V15.2891H52.7875V16.0938Z" fill="#AD5A41"/>
<path d="M53.4313 13.6797V14.4844V15.2891H54.3969V14.4844V13.6797H53.4313Z" fill="#AD5A41"/>
<path d="M48.7641 12.875H47.9594V13.6797H48.7641V12.875Z" fill="#AD5A41"/>
<path d="M36.9537 18.6264V19.0584H37.3797V19.4844H36.9537V19.0584H36.5217V18.6264H36.9537ZM37.3797 19.0584V18.6264H37.8117V19.0584H37.3797ZM36.0957 16.4844H36.5217V18.6264H36.0957V16.4844ZM37.8117 16.4844H38.2377V18.6264H37.8117V16.4844ZM40.3781 16.4844V16.9104H39.0881V16.4844H40.3781ZM40.3781 16.9104H40.8041V19.4844H40.3781V18.2004H39.0881V19.4844H38.6621V16.9104H39.0881V17.7684H40.3781V16.9104ZM41.6545 19.0584H43.3705V19.4844H41.2285V16.4844H41.6545V19.0584ZM45.0789 16.9104H44.6529V19.0584H45.0789V19.4844H43.7949V19.0584H44.2209V16.9104H43.7949V16.4844H45.0789V16.9104ZM45.9319 16.9104V19.0584H47.2219V19.4844H45.5059V16.4844H47.2219V16.9104H45.9319ZM47.2219 16.9104H47.6479V19.0584H47.2219V16.9104ZM51.9311 16.9104H50.2151V17.7684H51.9311V18.2004H50.2151V19.4844H49.7891V16.4844H51.9311V16.9104ZM52.7815 19.4844V19.0584H54.0715V19.4844H52.7815ZM52.3555 16.9104H52.7815V19.0584H52.3555V16.9104ZM54.0715 16.4844V16.9104H52.7815V16.4844H54.0715ZM54.0715 16.9104H54.4975V19.0584H54.0715V16.9104ZM57.0639 17.7684H56.6379V16.9104H57.0639V17.7684ZM55.3479 17.7684H56.6379V18.2004H57.0639V19.4844H56.6379V18.2004H55.3479V19.4844H54.9219V16.4844H56.6379V16.9104H55.3479V17.7684ZM59.6311 19.4844V19.0584H60.9211V19.4844H59.6311ZM59.2051 16.9104H59.6311V19.0584H59.2051V16.9104ZM60.9211 16.4844V16.9104H59.6311V16.4844H60.9211ZM60.9211 16.9104H61.3471V19.0584H60.9211V16.9104ZM62.1975 17.3424H62.6295V17.7684H62.1975V19.4844H61.7715V16.4844H62.1975V17.3424ZM62.6295 17.7684H63.0555V18.2004H62.6295V17.7684ZM63.4875 16.4844H63.9135V19.4844H63.4875V18.6264H63.0555V18.2004H63.4875V16.4844ZM66.4799 16.9104H64.7639V17.7684H66.4799V18.2004H64.7639V19.0584H66.4799V19.4844H64.3379V16.4844H66.4799V16.9104Z" fill="#EA8C27"/>
<path d="M35.2356 81.824H36.9516V82.25H34.8096V79.25H35.2356V81.824ZM38.66 79.676H38.234V81.824H38.66V82.25H37.376V81.824H37.802V79.676H37.376V79.25H38.66V79.676ZM39.5129 80.108H39.9449V80.534H39.5129V82.25H39.0869V79.25H39.5129V80.108ZM39.9449 80.534H40.3709V80.966H39.9449V80.534ZM40.8029 79.25H41.2289V82.25H40.8029V81.392H40.3709V80.966H40.8029V79.25ZM42.0793 80.534H42.5113V80.966H42.0793V82.25H41.6533V79.25H42.0793V80.534ZM42.9373 80.108V80.534H42.5113V80.108H42.9373ZM43.3693 79.676V80.108H42.9373V79.676H43.3693ZM43.7953 79.25V79.676H43.3693V79.25H43.7953ZM42.9373 81.392H42.5113V80.966H42.9373V81.392ZM43.3693 81.824H42.9373V81.392H43.3693V81.824ZM43.7953 82.25H43.3693V81.824H43.7953V82.25ZM45.9365 79.25H46.3625V81.824H45.9365V79.25ZM46.3625 82.25V81.824H46.7945V82.25H46.3625ZM46.7945 81.824V81.392H47.2205V81.824H46.7945ZM47.2205 80.966H47.6525V81.392H47.2205V80.966ZM47.6525 81.392H48.0785V81.824H47.6525V81.392ZM48.0785 82.25V81.824H48.5105V82.25H48.0785ZM48.5105 79.25H48.9365V81.824H48.5105V79.25ZM51.0803 79.25H51.5063V82.25H51.0803V80.966H49.7903V82.25H49.3643V79.25H49.7903V80.534H51.0803V79.25ZM53.2147 79.676H52.7887V81.824H53.2147V82.25H51.9307V81.824H52.3567V79.676H51.9307V79.25H53.2147V79.676ZM55.7836 79.25V79.676H54.9256V82.25H54.4996V79.676H53.6416V79.25H55.7836ZM58.35 79.676H56.634V80.534H58.35V80.966H56.634V81.824H58.35V82.25H56.208V79.25H58.35V79.676ZM62.2072 79.25H62.6332V82.25H62.2072V80.966H60.9172V82.25H60.4912V79.25H60.9172V80.534H62.2072V79.25ZM64.7736 79.25V79.676H63.4836V79.25H64.7736ZM64.7736 79.676H65.1996V82.25H64.7736V80.966H63.4836V82.25H63.0576V79.676H63.4836V80.534H64.7736V79.676ZM67.766 79.25V79.676H66.908V82.25H66.482V79.676H65.624V79.25H67.766Z" fill="#EA8C27"/>
<path d="M26.8766 48.1203V46.9938H25.75V48.1203V49.2469H26.8766H28.0031V48.1203H26.8766Z" fill="#C8C8C8"/>
<path d="M29.1297 50.3735V49.2469H28.0031V50.3735V51.5001H29.1297H30.2562V50.3735H29.1297Z" fill="#C8C8C8"/>
<path d="M31.3828 51.5H30.2562V52.6266V53.7531H31.3828H32.5094V52.6266H31.3828V51.5Z" fill="#C8C8C8"/>
<path d="M71.9391 52.6266H70.8125V53.7531H71.9391H73.0656V52.6266V51.5H71.9391V52.6266Z" fill="#C8C8C8"/>
<path d="M76.4453 46.9938V48.1203H75.3188V49.2469H76.4453H77.5719V48.1203V46.9938H76.4453Z" fill="#C8C8C8"/>
<path d="M74.1922 50.3735H73.0656V51.5001H74.1922H75.3187V50.3735V49.2469H74.1922V50.3735Z" fill="#C8C8C8"/>
<path d="M38.1422 59.386H37.0156V60.5125H38.1422V59.386Z" fill="#2F2F2F"/>
<path d="M66.3063 59.386H65.1797V60.5125H66.3063V59.386Z" fill="#2F2F2F"/>
<path d="M39.2688 60.5126H38.1422V61.6391H39.2688V60.5126Z" fill="#2F2F2F"/>
<path d="M65.1797 60.5126H64.0531V61.6391H65.1797V60.5126Z" fill="#2F2F2F"/>
<path d="M35.8891 57.1328H34.7625V58.2594H35.8891V57.1328Z" fill="#2F2F2F"/>
<path d="M34.7625 56.0063H33.636V57.1329H34.7625V56.0063Z" fill="#2F2F2F"/>
<path d="M33.6359 53.7532H32.5094V54.8797V56.0063H33.6359V54.8797V53.7532Z" fill="#2F2F2F"/>
<path d="M69.686 56.0063H68.5594V57.1329H69.686V56.0063Z" fill="#2F2F2F"/>
<path d="M69.6859 53.7532V54.8797V56.0063H70.8125V54.8797V53.7532H69.6859Z" fill="#2F2F2F"/>
<path d="M68.5594 57.1328H67.4328V58.2594H68.5594V57.1328Z" fill="#2F2F2F"/>
<path d="M37.0156 58.2594H35.8891V59.386H37.0156V58.2594Z" fill="#2F2F2F"/>
<path d="M67.4328 58.2594H66.3062V59.386H67.4328V58.2594Z" fill="#2F2F2F"/>
<path d="M68.5594 53.7532H67.4328H66.3062H65.1797H64.0531H62.9265H61.8H60.6734H59.5469H58.4203H57.2937H56.1672H55.0406H53.914H52.7875H51.6609H50.5344H49.4078H48.2812H47.1547H46.0281H44.9015H43.775H42.6484H41.5219H40.3953H39.2687H38.1422H37.0156H35.8891H34.7625H33.6359V54.8797V56.0063H34.7625V57.1329H35.8891V58.2594H37.0156V59.386H38.1422V60.5125H39.2687V61.6391H40.3953H41.5219V62.7657H42.6484H43.775H44.9015H46.0281H47.1547H48.2812H49.4078H50.5344H51.6609H52.7875H53.914H55.0406H56.1672H57.2937H58.4203H59.5469H60.6734H61.8V61.6391H62.9265H64.0531V60.5125H65.1797V59.386H66.3062V58.2594H67.4328V57.1329H68.5594V56.0063H69.6859V54.8797V53.7532H68.5594Z" fill="black"/>
<path d="M75.3188 46.9938H74.1922H73.0656V45.8672V44.7406H71.9391H70.8125H69.6859H68.5594V43.6141V42.4875H67.4328H66.3063H65.1797H64.0531V41.3609V40.2344H62.9266H61.8H60.6734H59.5469H58.4203H57.2938H56.1672H55.0406H53.9141H52.7875H51.6609H50.5344H49.4078H48.2813H47.1547H46.0281H44.9016H43.775H42.6484H41.5219H40.3953H39.2688V41.3609V42.4875H38.1422H37.0156H35.8891H34.7625V43.6141V44.7406H33.6359H32.5094H31.3828H30.2563V45.8672V46.9938H29.1297H28.0031H26.8766V48.1203H28.0031V49.2469H29.1297V50.3734H30.2563V51.5H31.3828V52.6266H32.5094H33.6359H34.7625H35.8891H37.0156H38.1422H39.2688H40.3953H41.5219H42.6484H43.775H44.9016H46.0281H47.1547H48.2813H49.4078H50.5344H51.6609H52.7875H53.9141H55.0406H56.1672H57.2938H58.4203H59.5469H60.6734H61.8H62.9266H64.0531H65.1797H66.3063H67.4328H68.5594H69.6859H70.8125H71.9391V51.5H73.0656V50.3734H74.1922V49.2469H75.3188V48.1203H76.4453V46.9938H75.3188Z" fill="white"/>
<path d="M56.1672 44.7406V43.6141H55.0406V42.4875H53.9141H52.7875H53.9141V41.361H52.7875H51.6609H50.5344H49.4078V42.4875H50.5344H49.4078H48.2812V43.6141H47.1547V44.7406H46.0281V45.8672V46.9938V48.1203V49.2469H47.1547V50.3735H48.2812V51.5H49.4078V52.6266H50.5344H51.6609H52.7875H53.9141V51.5H55.0406V50.3735H56.1672V49.2469H57.2937V48.1203V46.9938V45.8672V44.7406H56.1672ZM51.6609 43.6141H52.7875V44.7406H53.9141V45.8672H55.0406V46.9938V48.1203H53.9141V49.2469H52.7875V50.3735H51.6609H50.5344V49.2469H49.4078V48.1203H48.2812V46.9938V45.8672H49.4078V44.7406H50.5344V43.6141H51.6609Z" fill="#0000B9"/>
<path d="M69.6859 52.6266H68.5594H67.4328H66.3063H65.1797H64.0531H62.9266H61.8H60.6734H59.5469H58.4203H57.2938H56.1672H55.0406H53.9141H52.7875H51.6609H50.5344H49.4078H48.2813H47.1547H46.0281H44.9016H43.775H42.6484H41.5219H40.3953H39.2688H38.1422H37.0156H35.8891H34.7625H33.6359H32.5094V53.7532H33.6359H34.7625H35.8891H37.0156H38.1422H39.2688H40.3953H41.5219H42.6484H43.775H44.9016H46.0281H47.1547H48.2813H49.4078H50.5344H51.6609H52.7875H53.9141H55.0406H56.1672H57.2938H58.4203H59.5469H60.6734H61.8H62.9266H64.0531H65.1797H66.3063H67.4328H68.5594H69.6859H70.8125V52.6266H69.6859Z" fill="#FFA500"/>
</svg>
