<svg width="1330" height="1734" viewBox="0 0 1330 1734" fill="none" xmlns="http://www.w3.org/2000/svg">
<path d="M1271.6 57.8V0H1213.8V57.8H1156V0H1098.2V57.8H1040.4V0H982.6V57.8H924.8V0H867V57.8H809.2V0H751.4V57.8H693.6V0H635.8V57.8H578V0H520.2V57.8H462.4V0H404.6V57.8H346.8V0H289V57.8H231.2V0H173.4V57.8H115.6V0H57.8V57.8H0V1734H57.8V1676.2H115.6V1734H173.4V1676.2H231.2V1734H289V1676.2H346.8V1734H404.6V1676.2H462.4V1734H520.2V1676.2H578V1734H635.8V1676.2H693.6V1734H751.4V1676.2H809.2V1734H867V1676.2H924.8V1734H982.6V1676.2H1040.4V1734H1098.2V1676.2H1156V1734H1213.8V1676.2H1271.6V1734H1329.4V57.8H1271.6Z" fill="#FFC36B"/>
<path d="M1156 173.4H1184.9V202.3H1156V173.4ZM1156 1531.7H1184.9V1560.6H1156V1531.7Z" fill="#EA8C27"/>
<path d="M1184.9 202.3V404.6H144.5V202.3H115.6V1531.7H144.5V1329.4H1184.9V1531.7H1213.8V202.3H1184.9ZM1184.9 1300.5H144.5V433.5H1184.9V1300.5ZM1156 173.4V144.5H173.4V173.4H1156Z" fill="#EA8C27"/>
<path d="M144.5 173.4H173.4V202.3H144.5V173.4ZM144.5 1531.7H173.4V1560.6H144.5V1531.7Z" fill="#EA8C27"/>
<path d="M173.4 1560.6V1589.5H1156V1560.6H173.4Z" fill="#EA8C27"/>
<path d="M144.5 1329.4V1531.7H173.4V1560.6H1156V1531.7H1184.9V1329.4H144.5ZM1156 202.3V173.4H173.4V202.3H144.5V404.6H1184.9V202.3H1156ZM144.5 433.5V1300.5H1184.9V433.5H144.5Z" fill="white"/>
<path d="M644.4 173.3H658.8V187.7H644.4V173.3ZM658.9 86.6001V173.3H673.3V86.6001H658.9Z" fill="white"/>
<path d="M644.4 115.5H658.8V129.9H644.4V115.5ZM658.9 173.3H673.3V187.7H658.9V173.3ZM615.5 173.3V187.8H644.4V173.3H615.5Z" fill="#FFFFC4"/>
<path d="M644.4 231.1H658.8V245.5H644.4V231.1ZM658.9 202.2H673.3V216.6H658.9V202.2ZM644.4 158.9V144.4H630V173.3H644.4V158.9Z" fill="#FFD596"/>
<path d="M644.4 130H658.8V144.4H644.4V130ZM702.2 173.3H687.7V187.8H716.6V173.3H702.2Z" fill="#FFD596"/>
<path d="M658.9 216.7H644.4V231.1H673.3V216.7H658.9ZM658.9 187.8H673.3V202.2H658.9V187.8ZM658.9 158.9V144.4H644.4V173.3H658.9V158.9ZM673.3 173.3H687.7V187.7H673.3V173.3Z" fill="#FFC36B"/>
<path d="M673.3 231.1H687.7V245.5H673.3V231.1ZM687.7 202.2H702.1V216.6H687.7V202.2ZM644.4 187.8H630V216.7H644.4V187.8Z" fill="#FFC36B"/>
<path d="M673.3 115.5H687.7V129.9H673.3V115.5ZM658.9 245.6V274.5H673.3V231.1H658.9V245.6Z" fill="#FFB200"/>
<path d="M673.3 216.7H687.7V231.1H673.3V216.7ZM658.9 202.2V187.8H644.4V216.7H658.9V202.2ZM687.7 187.8H702.1V202.2H687.7V187.8Z" fill="#FFB200"/>
<path d="M673.3 130H687.7V144.4H673.3V130Z" fill="#EA8C27"/>
<path d="M687.7 144.4H702.1V158.8H687.7V144.4Z" fill="#EA8C27"/>
<path d="M673.3 144.4H687.7V158.8H673.3V144.4ZM687.7 158.9H702.1V173.3H687.7V158.9Z" fill="#D67137"/>
<path d="M687.7 86.6001H673.3V115.5H687.7V86.6001Z" fill="#994A4A"/>
<path d="M702.2 115.5H687.7V144.4H702.2V115.5Z" fill="#994A4A"/>
<path d="M716.6 144.4H702.2V173.3H716.6V144.4ZM673.3 202.2V216.7H687.7V187.8H673.3V202.2Z" fill="#994A4A"/>
<path d="M716.6 173.3H731V187.7H716.6V173.3ZM644.4 260V274.5H658.9V245.6H644.4V260Z" fill="#994A4A"/>
<path d="M644.4 216.7H630V245.6H644.4V216.7Z" fill="#994A4A"/>
<path d="M630 187.8H615.5V216.7H630V187.8Z" fill="#994A4A"/>
<path d="M658.9 72.2002H673.3V86.6002H658.9V72.2002Z" fill="#AD5A41"/>
<path d="M658.9 101.1V86.6001H644.4V115.5H658.9V101.1ZM673.3 158.9H687.7V173.3H673.3V158.9Z" fill="#AD5A41"/>
<path d="M630 130V144.4H644.4V115.5H630V130Z" fill="#AD5A41"/>
<path d="M615.5 158.9V173.3H630V144.4H615.5V158.9ZM658.9 274.5H673.3V288.9H658.9V274.5Z" fill="#AD5A41"/>
<path d="M673.3 260V274.5H687.7V245.6H673.3V260Z" fill="#AD5A41"/>
<path d="M687.7 231.1V245.6H702.2V216.7H687.7V231.1Z" fill="#AD5A41"/>
<path d="M702.2 187.8V216.7H716.6V187.8H702.2ZM601.1 173.3H615.5V187.7H601.1V173.3Z" fill="#AD5A41"/>
<path d="M239.4 292.5H250.4V347.8H239.4V292.5ZM261.6 347.8V359H272.6V370H261.6V359H250.4V347.8H261.6ZM272.6 359V347.8H283.8V359H272.6ZM283.8 292.5H294.8V347.8H283.8V292.5ZM354 303.5H365V370H354V336.8H320.7V370H309.7V303.5H320.7V325.7H354V303.5ZM354 292.5V303.5H320.7V292.5H354ZM435.2 359V370H379.9V292.5H390.9V359H435.2ZM472.2 303.5V359H483.2V370H450V359H461V303.5H450V292.5H483.2V303.5H472.2ZM509.1 303.5V359H542.4V370H498.1V292.5H542.4V303.5H509.1ZM542.5 303.5H553.5V359H542.5V303.5ZM627.6 303.5V325.7H671.9V336.9H627.6V370H616.6V292.5H671.9V303.5H627.6ZM686.8 303.5H697.8V359H686.8V303.5ZM731.1 292.5V303.5H697.8V292.5H731.1ZM697.8 370V359H731.1V370H697.8ZM731.1 303.5H742.1V359H731.1V303.5ZM768 325.7H801.3V336.9H812.3V370H801.3V336.8H768V370H757V292.5H801.3V303.5H768V325.7ZM812.3 325.7H801.3V303.5H812.3V325.7ZM875.4 303.5H886.4V359H875.4V303.5ZM919.7 292.5V303.5H886.4V292.5H919.7ZM886.4 370V359H919.7V370H886.4ZM919.7 303.5H930.7V359H919.7V303.5ZM956.6 314.7H967.8V325.7H956.6V370H945.6V292.5H956.6V314.7ZM967.8 325.7H978.8V336.9H967.8V325.7ZM989.9 292.5H1000.9V370H989.9V347.8H978.7V336.8H989.9V292.5ZM1026.8 303.5V325.7H1071.1V336.9H1026.8V359H1071.1V370H1015.8V292.5H1071.1V303.5H1026.8Z" fill="#EA8C27"/>
<path d="M1014.7 654.5V679.5H989.7V704.5H964.7V729.5H939.7V754.5H914.7V779.5H889.7V804.5H839.7V829.5H789.7V854.5H714.7V879.5H614.7V854.5H539.7V829.5H489.7V804.5H439.7V779.5H414.7V754.5H389.7V729.5H364.7V704.5H339.7V679.5H314.7V654.5H264.7V1079.5H1064.7V654.5H1014.7ZM1114.7 704.5V679.5H1089.7V829.5H1114.7V854.5H1139.7V704.5H1114.7ZM214.7 704.5H189.7V854.5H214.7V829.5H239.7V679.5H214.7V704.5Z" fill="black"/>
<path d="M314.7 654.5H339.7V679.5H314.7V654.5ZM364.7 704.5H389.7V729.5H364.7V704.5Z" fill="#1E1E1E"/>
<path d="M339.7 679.5H364.7V704.5H339.7V679.5ZM414.7 754.5H439.7V779.5H414.7V754.5Z" fill="#1E1E1E"/>
<path d="M389.7 729.5H414.7V754.5H389.7V729.5ZM489.7 804.5H539.7V829.5H489.7V804.5Z" fill="#1E1E1E"/>
<path d="M439.7 779.5H489.7V804.5H439.7V779.5ZM989.7 654.5H1014.7V679.5H989.7V654.5ZM939.7 704.5H964.7V729.5H939.7V704.5Z" fill="#1E1E1E"/>
<path d="M964.7 679.5H989.7V704.5H964.7V679.5ZM889.7 754.5H914.7V779.5H889.7V754.5Z" fill="#1E1E1E"/>
<path d="M914.7 729.5H939.7V754.5H914.7V729.5ZM789.7 804.5H839.7V829.5H789.7V804.5Z" fill="#1E1E1E"/>
<path d="M839.7 779.5H889.7V804.5H839.7V779.5ZM614.7 854.5H714.7V879.5H614.7V854.5Z" fill="#1E1E1E"/>
<path d="M539.7 829.5H614.7V854.5H539.7V829.5ZM714.7 829.5H789.7V854.5H714.7V829.5ZM1139.7 704.5V854.5H1114.7V879.5H1164.7V704.5H1139.7Z" fill="#1E1E1E"/>
<path d="M1114.7 679.5H1139.7V704.5H1114.7V679.5ZM189.7 704.5H164.7V879.5H214.7V854.5H189.7V704.5Z" fill="#1E1E1E"/>
<path d="M189.7 679.5H214.7V704.5H189.7V679.5Z" fill="#1E1E1E"/>
<path d="M1089.7 829.5V679.5H1114.7V654.5H1089.7V629.5H1014.7V654.5H1064.7V1079.5H264.7V654.5H314.7V629.5H239.7V654.5H214.7V679.5H239.7V829.5H214.7V854.5H239.7V1104.5H1089.7V854.5H1114.7V829.5H1089.7Z" fill="#1E1E1E"/>
<path d="M364.7 954.5H339.7V904.5H314.7V1029.5H339.7V979.5H364.7V1029.5H389.7V904.5H364.7V954.5ZM439.7 904.5H464.7V929.5H439.7V904.5Z" fill="white"/>
<path d="M464.7 979.5H439.7V929.5H414.7V1029.5H439.7V1004.5H464.7V1029.5H489.7V929.5H464.7V979.5ZM589.7 904.5V1029.5H614.7V979.5H639.7V954.5H614.7V929.5H639.7V904.5H589.7ZM539.7 904.5H514.7V1029.5H564.7V1004.5H539.7V904.5ZM689.7 904.5V1029.5H714.7V929.5H739.7V904.5H689.7ZM939.7 904.5V929.5H964.7V1029.5H989.7V929.5H1014.7V904.5H939.7ZM764.7 954.5H814.7V979.5H764.7V954.5ZM889.7 929.5H914.7V954.5H889.7V929.5ZM764.7 904.5H814.7V929.5H764.7V904.5ZM764.7 1004.5H814.7V1029.5H764.7V1004.5ZM889.7 979.5H914.7V1029.5H889.7V979.5Z" fill="white"/>
<path d="M864.7 904.5H839.7V1029.5H864.7V979.5H889.7V954.5H864.7V904.5Z" fill="white"/>
<path d="M283.387 1408H293.611V1480H283.387V1449.18H252.427V1480H242.203V1408H252.427V1438.82H283.387V1408ZM344.981 1408V1418.22H314.021V1408H344.981ZM344.981 1418.22H355.205V1480H344.981V1449.18H314.021V1480H303.797V1418.22H314.021V1438.82H344.981V1418.22ZM375.615 1469.78H416.799V1480H365.391V1408H375.615V1469.78ZM478.392 1418.22H437.208V1438.82H478.392V1449.18H437.208V1480H426.984V1408H478.392V1418.22ZM581.189 1438.82H570.965V1418.22H581.189V1438.82ZM540.005 1438.82H570.965V1449.18H581.189V1480H570.965V1449.18H540.005V1480H529.781V1408H570.965V1418.22H540.005V1438.82ZM642.783 1418.22H601.599V1438.82H642.783V1449.18H601.599V1469.78H642.783V1480H591.375V1408H642.783V1418.22ZM663.193 1438.82H673.561V1449.18H663.193V1480H652.969V1408H663.193V1438.82ZM683.785 1428.59V1438.82H673.561V1428.59H683.785ZM694.153 1418.22V1428.59H683.785V1418.22H694.153ZM704.377 1408V1418.22H694.153V1408H704.377ZM683.785 1459.41H673.561V1449.18H683.785V1459.41ZM694.153 1469.78H683.785V1459.41H694.153V1469.78ZM704.377 1480H694.153V1469.78H704.377V1480ZM765.971 1408V1418.22H745.379V1480H735.155V1418.22H714.562V1408H765.971ZM817.359 1480V1469.78H858.543V1480H817.359ZM868.767 1469.78H858.543V1449.18H868.767V1469.78ZM858.543 1449.18H827.583V1438.82H858.543V1449.18ZM817.359 1418.22H827.583V1438.82H817.359V1418.22ZM868.767 1408V1418.22H827.583V1408H868.767ZM920.137 1408H930.361V1480H920.137V1449.18H889.177V1480H878.953V1408H889.177V1438.82H920.137V1408ZM971.363 1418.22H961.139V1469.78H971.363V1480H940.547V1469.78H950.771V1418.22H940.547V1408H971.363V1418.22ZM1033.02 1438.82H1022.79V1418.22H1033.02V1438.82ZM991.833 1438.82H1022.79V1449.18H1033.02V1480H1022.79V1449.18H991.833V1480H981.609V1408H1022.79V1418.22H991.833V1438.82ZM1094.61 1408V1418.22H1074.02V1480H1063.8V1418.22H1043.2V1408H1094.61Z" fill="#EA8C27"/>
</svg>
