<svg width="1330" height="1734" viewBox="0 0 1330 1734" fill="none" xmlns="http://www.w3.org/2000/svg">
<path d="M1271.6 57.8V0H1213.8V57.8H1156V0H1098.2V57.8H1040.4V0H982.6V57.8H924.8V0H867V57.8H809.2V0H751.4V57.8H693.6V0H635.8V57.8H578V0H520.2V57.8H462.4V0H404.6V57.8H346.8V0H289V57.8H231.2V0H173.4V57.8H115.6V0H57.8V57.8H0V1734H57.8V1676.2H115.6V1734H173.4V1676.2H231.2V1734H289V1676.2H346.8V1734H404.6V1676.2H462.4V1734H520.2V1676.2H578V1734H635.8V1676.2H693.6V1734H751.4V1676.2H809.2V1734H867V1676.2H924.8V1734H982.6V1676.2H1040.4V1734H1098.2V1676.2H1156V1734H1213.8V1676.2H1271.6V1734H1329.4V57.8H1271.6Z" fill="#FF96FF"/>
<path d="M1156 173.4H1184.9V202.3H1156V173.4ZM1156 1531.7H1184.9V1560.6H1156V1531.7Z" fill="#FF00FF"/>
<path d="M1184.9 202.3V404.6H144.5V202.3H115.6V1531.7H144.5V1329.4H1184.9V1531.7H1213.8V202.3H1184.9ZM1184.9 1300.5H144.5V433.5H1184.9V1300.5ZM1156 173.4V144.5H173.4V173.4H1156Z" fill="#FF00FF"/>
<path d="M144.5 173.4H173.4V202.3H144.5V173.4ZM144.5 1531.7H173.4V1560.6H144.5V1531.7Z" fill="#FF00FF"/>
<path d="M173.4 1560.6V1589.5H1156V1560.6H173.4Z" fill="#FF00FF"/>
<path d="M144.5 1329.4V1531.7H173.4V1560.6H1156V1531.7H1184.9V1329.4H144.5ZM1156 202.3V173.4H173.4V202.3H144.5V404.6H1184.9V202.3H1156ZM144.5 433.5V1300.5H1184.9V433.5H144.5Z" fill="white"/>
<path d="M673.3 101.1H687.7V115.5H673.3V101.1ZM658.9 187.8V216.7H673.3V173.3H658.9V187.8ZM673.3 144.5H687.7V158.9H673.3V144.5ZM630 144.5H644.4V158.9H630V144.5ZM601.1 130H615.5V144.4H601.1V130ZM644.4 101.1H658.8V115.5H644.4V101.1Z" fill="#FFC8FF"/>
<path d="M572.2 130H586.6V144.4H572.2V130ZM601.1 144.5H586.7V173.3H601.1V144.5Z" fill="#9A298B"/>
<path d="M615.5 173.3H601.1V202.2H615.5V173.3Z" fill="#9A298B"/>
<path d="M615.5 202.2H629.9V216.6H615.5V202.2ZM630 216.7H644.4V231.1H630V216.7Z" fill="#9A298B"/>
<path d="M644.4 231.1H658.8V245.5H644.4V231.1ZM716.6 144.5H731V158.9H716.6V144.5ZM702.2 173.3H716.6V187.7H702.2V173.3ZM673.3 216.7H687.7V231.1H673.3V216.7Z" fill="#9A298B"/>
<path d="M687.7 101.1H702.1V115.5H687.7V101.1ZM702.2 130H716.6V144.4H702.2V130ZM658.9 115.6H644.4V130H687.7V115.6H658.9ZM630 101.1H644.4V115.5H630V101.1ZM658.9 231.1V245.6H673.3V216.7H658.9V231.1Z" fill="#FF96FF"/>
<path d="M586.7 130H601.1V144.4H586.7V130ZM601.1 144.5H615.5V158.9H601.1V144.5ZM615.5 173.3H629.9V187.7H615.5V173.3ZM644.4 216.7H658.8V231.1H644.4V216.7Z" fill="#FF00BE"/>
<path d="M731.1 130H745.5V144.4H731.1V130ZM702.2 187.8H716.6V202.2H702.2V187.8ZM687.7 202.2H702.1V216.6H687.7V202.2ZM716.6 158.9H731V173.3H716.6V158.9ZM716.6 115.6H731V130H716.6V115.6ZM687.7 130H702.1V144.4H687.7V130ZM658.9 144.5H673.3V158.9H658.9V144.5ZM630 130H644.4V144.4H630V130Z" fill="#D700C1"/>
<path d="M601.1 115.6H615.5V130H601.1V115.6ZM630 158.9V144.5H615.5V173.3H630V202.2H644.4V216.7H658.9V158.9H630Z" fill="#D700C1"/>
<path d="M731.1 115.6H745.5V130H731.1V115.6ZM716.6 130H731V144.4H716.6V130Z" fill="#FF62FF"/>
<path d="M702.2 115.6H687.7V130H716.6V115.6H702.2ZM687.7 144.5H702.1V158.9H687.7V144.5Z" fill="#FF62FF"/>
<path d="M658.9 130H644.4V144.5H687.7V130H658.9Z" fill="#FF62FF"/>
<path d="M630 115.6H615.5V130H644.4V115.6H630ZM615.5 187.8H629.9V202.2H615.5V187.8ZM630 202.2H644.4V216.6H630V202.2ZM601.1 158.9H615.5V173.3H601.1V158.9Z" fill="#FF62FF"/>
<path d="M658.9 101.1H673.3V115.5H658.9V101.1ZM644.4 144.5H658.8V158.9H644.4V144.5ZM658.9 158.9H673.3V173.3H658.9V158.9ZM615.5 130H629.9V144.4H615.5V130ZM586.7 115.6H601.1V130H586.7V115.6Z" fill="white"/>
<path d="M658.9 245.6H673.3V260H658.9V245.6ZM745.5 130H759.9V144.4H745.5V130ZM731.1 158.9V173.3H745.5V144.5H731.1V158.9Z" fill="#870075"/>
<path d="M716.6 187.8V202.2H731.1V173.3H716.6V187.8Z" fill="#870075"/>
<path d="M702.2 202.2H716.6V216.6H702.2V202.2ZM687.7 216.7H702.1V231.1H687.7V216.7Z" fill="#870075"/>
<path d="M673.3 231.1H687.7V245.5H673.3V231.1Z" fill="#870075"/>
<path d="M586.7 101.1V115.6H630V101.1H586.7ZM572.2 115.6H586.6V130H572.2V115.6Z" fill="#FF00FF"/>
<path d="M702.2 158.9H673.3V216.7H687.7V202.2H702.2V173.3H716.6V144.5H702.2V158.9ZM630 86.7002V101.1H702.2V86.7002H630Z" fill="#FF00FF"/>
<path d="M702.2 101.1V115.6H745.5V101.1H702.2Z" fill="#FF00FF"/>
<path d="M745.5 115.6H759.9V130H745.5V115.6ZM239.4 292.5H250.4V347.8H239.4V292.5ZM261.6 347.8V359H272.6V370H261.6V359H250.4V347.8H261.6ZM272.6 359V347.8H283.8V359H272.6ZM283.8 292.5H294.8V347.8H283.8V292.5ZM354 303.5H365V370H354V336.8H320.7V370H309.7V303.5H320.7V325.7H354V303.5ZM354 292.5V303.5H320.7V292.5H354ZM435.2 359V370H379.9V292.5H390.9V359H435.2ZM472.2 303.5V359H483.2V370H450V359H461V303.5H450V292.5H483.2V303.5H472.2ZM509.1 303.5V359H542.4V370H498.1V292.5H542.4V303.5H509.1ZM542.5 303.5H553.5V359H542.5V303.5ZM627.6 303.5V325.7H671.9V336.9H627.6V370H616.6V292.5H671.9V303.5H627.6ZM686.8 303.5H697.8V359H686.8V303.5ZM731.1 292.5V303.5H697.8V292.5H731.1ZM697.8 370V359H731.1V370H697.8ZM731.1 303.5H742.1V359H731.1V303.5ZM768 325.7H801.3V336.9H812.3V370H801.3V336.8H768V370H757V292.5H801.3V303.5H768V325.7ZM812.3 325.7H801.3V303.5H812.3V325.7ZM875.4 303.5H886.4V359H875.4V303.5ZM919.7 292.5V303.5H886.4V292.5H919.7ZM886.4 370V359H919.7V370H886.4ZM919.7 303.5H930.7V359H919.7V303.5ZM956.6 314.7H967.8V325.7H956.6V370H945.6V292.5H956.6V314.7ZM967.8 325.7H978.8V336.9H967.8V325.7ZM989.9 292.5H1000.9V370H989.9V347.8H978.7V336.8H989.9V292.5ZM1026.8 303.5V325.7H1071.1V336.9H1026.8V359H1071.1V370H1015.8V292.5H1071.1V303.5H1026.8Z" fill="#FF00FF"/>
<path d="M564.7 767H539.7V742H389.7V767H364.7V792H339.7V942H364.7V967H389.7V992H539.7V967H564.7V942H589.7V792H564.7V767ZM964.7 767H939.7V742H789.7V767H764.7V792H739.7V942H764.7V967H789.7V992H939.7V967H964.7V942H989.7V792H964.7V767Z" fill="black"/>
<path d="M764.7 742H789.7V767H764.7V742Z" fill="#FF0000"/>
<path d="M739.7 792H714.7V842H614.7V792H589.7V767H564.7V792H589.7V942H614.7V892H714.7V942H739.7V792H764.7V767H739.7V792ZM789.7 717H939.7V742H789.7V717Z" fill="#FF0000"/>
<path d="M789.7 992H939.7V1017H789.7V992ZM939.7 742H964.7V767H939.7V742Z" fill="#FF0000"/>
<path d="M964.7 767H989.7V792H964.7V767ZM964.7 942H989.7V967H964.7V942Z" fill="#FF0000"/>
<path d="M939.7 967H964.7V992H939.7V967ZM789.7 992V967H764.7V942H739.7V967H764.7V992H789.7ZM1014.7 842V792H989.7V942H1014.7V892H1089.7V842H1014.7ZM389.7 717H539.7V742H389.7V717Z" fill="#FF0000"/>
<path d="M539.7 742H564.7V767H539.7V742ZM389.7 992H539.7V1017H389.7V992ZM364.7 742H389.7V767H364.7V742Z" fill="#FF0000"/>
<path d="M339.7 767H364.7V792H339.7V767ZM339.7 942H364.7V967H339.7V942Z" fill="#FF0000"/>
<path d="M564.7 967H539.7V992H564.7V967H589.7V942H564.7V967ZM364.7 967H389.7V992H364.7V967ZM314.7 842H239.7V892H314.7V942H339.7V792H314.7V842Z" fill="#FF0000"/>
<path d="M439.7 767V792H414.7V817H389.7V867H464.7V767H439.7Z" fill="#7D7D7D"/>
<path d="M464.7 867V967H489.7V942H514.7V917H539.7V867H464.7Z" fill="#282828"/>
<path d="M389.7 867V917H414.7V942H439.7V967H464.7V867H389.7Z" fill="#464646"/>
<path d="M514.7 817V792H489.7V767H464.7V867H539.7V817H514.7Z" fill="#464646"/>
<path d="M902.2 832H927.2V857H902.2V832ZM902.2 882H927.2V907H902.2V882Z" fill="#646464"/>
<path d="M852.2 857V832H902.2V807H877.2V782H852.2V807H802.2V832H827.2V907H802.2V932H852.2V957H877.2V932H902.2V907H852.2V882H902.2V857H852.2Z" fill="#646464"/>
<path d="M264.65 1481H223.466V1470.78H264.65V1481ZM213.242 1419.22H223.466V1470.78H213.242V1419.22ZM264.65 1409V1419.22H223.466V1409H264.65ZM285.06 1481V1470.78H316.02V1481H285.06ZM274.836 1419.22H285.06V1470.78H274.836V1419.22ZM316.02 1409V1419.22H285.06V1409H316.02ZM316.02 1419.22H326.244V1470.78H316.02V1419.22ZM346.654 1419.22V1470.78H377.614V1481H336.43V1409H377.614V1419.22H346.654ZM377.614 1419.22H387.838V1470.78H377.614V1419.22ZM449.431 1419.22H408.247V1439.82H449.431V1450.18H408.247V1470.78H449.431V1481H398.023V1409H449.431V1419.22ZM511.025 1439.82H500.801V1419.22H511.025V1439.82ZM469.841 1439.82H500.801V1450.18H511.025V1481H500.801V1450.18H469.841V1481H459.617V1409H500.801V1419.22H469.841V1439.82ZM531.435 1419.22V1470.78H562.395V1481H521.211V1409H562.395V1419.22H531.435ZM562.395 1419.22H572.619V1470.78H562.395V1419.22ZM623.989 1409V1419.22H593.029V1409H623.989ZM623.989 1419.22H634.213V1481H623.989V1450.18H593.029V1481H582.805V1419.22H593.029V1439.82H623.989V1419.22ZM654.622 1429.59H664.99V1439.82H654.622V1481H644.398V1409H654.622V1429.59ZM664.99 1439.82H675.214V1450.18H664.99V1439.82ZM685.582 1409H695.806V1481H685.582V1460.41H675.214V1450.18H685.582V1409ZM747.195 1481V1470.78H788.379V1481H747.195ZM798.603 1470.78H788.379V1450.18H798.603V1470.78ZM788.379 1450.18H757.419V1439.82H788.379V1450.18ZM747.195 1419.22H757.419V1439.82H747.195V1419.22ZM798.603 1409V1419.22H757.419V1409H798.603ZM849.973 1409H860.197V1481H849.973V1450.18H819.013V1481H808.789V1409H819.013V1439.82H849.973V1409ZM911.567 1409V1419.22H880.607V1409H911.567ZM911.567 1419.22H921.791V1481H911.567V1450.18H880.607V1481H870.383V1419.22H880.607V1439.82H911.567V1419.22ZM942.201 1419.22V1470.78H973.161V1481H931.977V1409H973.161V1419.22H942.201ZM973.161 1419.22H983.385V1470.78H973.161V1419.22ZM1044.98 1419.22H1003.79V1439.82H1044.98V1450.18H1003.79V1470.78H1044.98V1481H993.57V1409H1044.98V1419.22ZM1055.16 1481V1470.78H1096.35V1481H1055.16ZM1106.57 1470.78H1096.35V1450.18H1106.57V1470.78ZM1096.35 1450.18H1065.39V1439.82H1096.35V1450.18ZM1055.16 1419.22H1065.39V1439.82H1055.16V1419.22ZM1106.57 1409V1419.22H1065.39V1409H1106.57Z" fill="#FF00FF"/>
</svg>
