<svg width="1330" height="1734" viewBox="0 0 1330 1734" fill="none" xmlns="http://www.w3.org/2000/svg">
<path d="M1271.6 57.8V0H1213.8V57.8H1156V0H1098.2V57.8H1040.4V0H982.6V57.8H924.8V0H867V57.8H809.2V0H751.4V57.8H693.6V0H635.8V57.8H578V0H520.2V57.8H462.4V0H404.6V57.8H346.8V0H289V57.8H231.2V0H173.4V57.8H115.6V0H57.8V57.8H0V1734H57.8V1676.2H115.6V1734H173.4V1676.2H231.2V1734H289V1676.2H346.8V1734H404.6V1676.2H462.4V1734H520.2V1676.2H578V1734H635.8V1676.2H693.6V1734H751.4V1676.2H809.2V1734H867V1676.2H924.8V1734H982.6V1676.2H1040.4V1734H1098.2V1676.2H1156V1734H1213.8V1676.2H1271.6V1734H1329.4V57.8H1271.6Z" fill="#8064FF"/>
<path d="M144.5 1329.4V1531.7H173.4V1560.6H1156V1531.7H1184.9V1329.4H144.5ZM1156 202.3V173.4H173.4V202.3H144.5V404.6H1184.9V202.3H1156ZM144.5 433.5V1300.5H1184.9V433.5H144.5Z" fill="white"/>
<path d="M1156 173.4H1184.9V202.3H1156V173.4ZM1156 1531.7H1184.9V1560.6H1156V1531.7Z" fill="#5D24BF"/>
<path d="M1184.9 202.3V404.6H144.5V202.3H115.6V1531.7H144.5V1329.4H1184.9V1531.7H1213.8V202.3H1184.9ZM1184.9 1300.5H144.5V433.5H1184.9V1300.5ZM1156 173.4V144.5H173.4V173.4H1156Z" fill="#5D24BF"/>
<path d="M144.5 173.4H173.4V202.3H144.5V173.4ZM144.5 1531.7H173.4V1560.6H144.5V1531.7Z" fill="#5D24BF"/>
<path d="M173.4 1560.6V1589.5H1156V1560.6H173.4ZM246.6 296.1H256.9V347.7H246.6V296.1ZM267.2 347.7V358.1H277.5V368.4H267.2V358.1H256.8V347.7H267.2ZM277.5 358.1V347.7H287.9V358.1H277.5ZM287.9 296.1H298.2V347.7H287.9V296.1ZM356.7 306.4H367V368.4H356.7V337.5H325.6V368.4H315.3V306.4H325.6V327.1H356.7V306.4ZM356.7 296.1V306.4H325.6V296.1H356.7ZM435.7 358.1V368.4H384.1V296.2H394.4V358.2L435.7 358.1ZM473.6 306.4V358.1H483.9V368.4H453V358.1H463.3V306.4H453V296.1H483.9V306.4H473.6ZM511.3 306.4V358.1H542.4V368.4H501.1V296.2H542.4V306.5L511.3 306.4ZM542.4 306.4H552.7V358.1H542.4V306.4ZM628.3 306.4V327.1H669.6V337.5H628.3V368.4H618V296.2H669.6V306.5L628.3 306.4ZM686.9 306.4H697.2V358.1H686.9V306.4ZM728.2 296.1V306.4H697.1V296.1H728.2ZM697.1 368.4V358.1H728.2V368.4H697.1ZM728.2 306.4H738.5V358.1H728.2V306.4ZM765.9 327H797V337.4H807.3V368.3H797V337.4H765.9V368.3H755.6V296.1H796.9V306.4H765.8L765.9 327ZM807.2 327H796.9V306.3H807.2V327ZM872.7 306.4H883V358.1H872.7V306.4ZM914 296.1V306.4H882.9V296.1H914ZM882.9 368.4V358.1H914V368.4H882.9ZM914 306.4H924.3V358.1H914V306.4ZM951.7 316.8H962.1V327.1H951.7V368.4H941.4V296.2H951.7V316.8ZM962.1 327H972.4V337.4H962.1V327ZM982.8 296.1H993.1V368.3H982.8V347.6H972.4V337.3H982.8V296.1ZM1020.5 306.4V327.1H1061.8V337.5H1020.5V358.2H1061.8V368.5H1010.2V296.3H1061.8V306.6H1020.5V306.4Z" fill="#5D24BF"/>
<path d="M629 145.2H643.7V159.9H629V145.2Z" fill="white"/>
<path d="M643.7 130.5H658.4V145.2H643.7V130.5Z" fill="white"/>
<path d="M673.1 115.8H687.8V130.5H673.1V115.8Z" fill="#B135FF"/>
<path d="M687.8 130.5V145.2H673.1V159.9H643.7V174.6H614.3V189.4H673.1V174.6H687.8V159.9H702.5V130.5H687.8ZM599.5 159.9H614.2V174.6H599.5V159.9Z" fill="#B135FF"/>
<path d="M599.5 145.2H614.2V159.9H599.5V145.2ZM614.3 159.9H629V174.6H614.3V159.9ZM658.4 115.8H673.1V130.5H658.4V115.8Z" fill="#CB5BFF"/>
<path d="M673.1 130.5H687.8V145.2H673.1V130.5ZM702.5 130.5H717.2V145.2H702.5V130.5Z" fill="#CB5BFF"/>
<path d="M717.2 145.2H731.9V159.9H717.2V145.2ZM643.7 145.2V159.9H673.1V145.2H643.7ZM629 189.4H614.3V204.1H643.7V189.4H629Z" fill="#CB5BFF"/>
<path d="M643.7 204.1V218.8H673.1V204.1H643.7Z" fill="#CB5BFF"/>
<path d="M614.3 130.5V159.9H629V145.2H643.7V130.5H614.3Z" fill="#F37AFF"/>
<path d="M643.7 115.8H658.4V130.5H643.7V115.8ZM717.2 159.9H731.9V174.6H717.2V159.9ZM673.1 204.1H687.8V218.8H673.1V204.1Z" fill="#F37AFF"/>
<path d="M687.8 189.4H702.5V204.1H687.8V189.4Z" fill="#F37AFF"/>
<path d="M658.4 130.5H673.1V145.2H658.4V130.5ZM629 159.9H643.7V174.6H629V159.9ZM702.5 189.4H717.2V204.1H702.5V189.4ZM717.2 174.6H731.9V189.3H717.2V174.6Z" fill="#FFC9FF"/>
<path d="M658.4 218.8V233.5H687.8V218.8H658.4Z" fill="#3A2B77"/>
<path d="M687.8 204.1V218.8H717.2V204.1H687.8Z" fill="#3A2B77"/>
<path d="M717.2 189.4H731.9V204.1H717.2V189.4Z" fill="#3A2B77"/>
<path d="M731.9 159.9V189.4H746.6V159.9H731.9Z" fill="#3A2B77"/>
<path d="M599.5 189.4H614.2V204.1H599.5V189.4ZM629 204.1H614.3V218.8H643.7V204.1H629Z" fill="#47289B"/>
<path d="M643.7 218.8H658.4V233.5H643.7V218.8ZM731.9 145.2H746.6V159.9H731.9V145.2Z" fill="#47289B"/>
<path d="M717.2 130.5H731.9V145.2H717.2V130.5ZM658.4 189.4V204.1H687.8V189.4H658.4ZM702.5 174.6V189.4H717.2V159.9H702.5V174.6Z" fill="#47289B"/>
<path d="M599.5 174.6H614.2V189.3H599.5V174.6ZM702.5 145.2H717.2V159.9H702.5V145.2Z" fill="#6F16E2"/>
<path d="M687.8 174.6H673.1V189.4H702.5V159.9H687.8V174.6Z" fill="#6F16E2"/>
<path d="M673.1 101.1H643.7V115.8H687.8V101.1H673.1ZM584.8 159.9V189.4H599.5V145.2H584.8V159.9Z" fill="#5D24BF"/>
<path d="M702.5 115.8H687.8V130.5H717.2V115.8H702.5ZM643.7 189.4H658.4V204.1H643.7V189.4ZM614.3 115.8V130.5H643.7V115.8H614.3ZM599.5 130.5H614.2V145.2H599.5V130.5Z" fill="#5D24BF"/>
<path d="M364.7 879.3V929.3H389.7V954.3H414.7V979.3H439.7V1004.3H464.7V1029.3H489.7V879.3H364.7Z" fill="#323232"/>
<path d="M589.7 779.3H564.7V754.3H539.7V729.3H514.7V704.3H489.7V879.3H614.7V829.3H589.7V779.3ZM714.7 879.3V929.3H739.7V954.3H764.7V979.3H789.7V1004.3H814.7V1029.3H839.7V879.3H714.7Z" fill="#323232"/>
<path d="M939.7 829.3V779.3H914.7V754.3H889.7V729.3H864.7V704.3H839.7V879.3H964.7V829.3H939.7Z" fill="#323232"/>
<path d="M489.7 879.3V1029.3H514.7V1004.3H539.7V979.3H564.7V954.3H589.7V929.3H614.7V904.3H714.7V879.3H489.7ZM1064.7 829.3H1089.7V854.3H1064.7V829.3ZM839.7 879.3V1029.3H864.7V1004.3H889.7V979.3H914.7V954.3H939.7V929.3H964.7V904.3H1039.7V879.3H839.7Z" fill="black"/>
<path d="M1039.7 854.3H1064.7V879.3H1039.7V854.3ZM239.7 829.3H264.7V854.3H239.7V829.3ZM289.7 879.3H364.7V904.3H289.7V879.3Z" fill="black"/>
<path d="M264.7 854.3H289.7V879.3H264.7V854.3Z" fill="black"/>
<path d="M464.7 729.3H439.7V754.3H414.7V779.3H389.7V829.3H364.7V854.3H289.7V879.3H489.7V704.3H464.7V729.3ZM814.7 729.3H789.7V754.3H764.7V779.3H739.7V829.3H714.7V854.3H614.7V879.3H839.7V704.3H814.7V729.3ZM1039.7 829.3H1064.7V854.3H1039.7V829.3Z" fill="#646464"/>
<path d="M1064.7 804.3H1089.7V829.3H1064.7V804.3ZM964.7 854.3H1039.7V879.3H964.7V854.3ZM264.7 829.3H289.7V854.3H264.7V829.3Z" fill="#646464"/>
<path d="M239.7 804.3H264.7V829.3H239.7V804.3Z" fill="#646464"/>
<path d="M244.549 1418.22H203.365V1438.82H244.549V1449.18H203.365V1469.78H244.549V1480H193.141V1408H244.549V1418.22ZM306.142 1408V1418.22H285.55V1480H275.326V1418.22H254.734V1408H306.142ZM357.512 1408H367.736V1480H357.512V1449.18H326.552V1480H316.328V1408H326.552V1438.82H357.512V1408ZM429.349 1469.78H470.533V1480H419.125V1408H429.349V1469.78ZM490.943 1480V1469.78H521.903V1480H490.943ZM480.719 1418.22H490.943V1469.78H480.719V1418.22ZM521.903 1408V1418.22H490.943V1408H521.903ZM521.903 1418.22H532.127V1469.78H521.903V1418.22ZM593.721 1480H552.537V1469.78H583.497V1438.82H593.721V1480ZM542.312 1418.22H552.537V1469.78H542.312V1418.22ZM593.721 1408V1418.22H552.537V1408H593.721ZM614.13 1480V1469.78H645.09V1480H614.13ZM603.906 1418.22H614.13V1469.78H603.906V1418.22ZM645.09 1408V1418.22H614.13V1408H645.09ZM645.09 1418.22H655.314V1469.78H645.09V1418.22ZM758.111 1480H716.927V1469.78H747.887V1438.82H758.111V1480ZM706.703 1418.22H716.927V1469.78H706.703V1418.22ZM758.111 1408V1418.22H716.927V1408H758.111ZM778.521 1469.78H819.705V1480H768.297V1408H778.521V1469.78ZM871.075 1408V1418.22H840.115V1408H871.075ZM871.075 1418.22H881.299V1480H871.075V1449.18H840.115V1480H829.891V1418.22H840.115V1438.82H871.075V1418.22ZM891.484 1480V1469.78H932.668V1480H891.484ZM942.892 1469.78H932.668V1449.18H942.892V1469.78ZM932.668 1449.18H901.708V1438.82H932.668V1449.18ZM891.484 1418.22H901.708V1438.82H891.484V1418.22ZM942.892 1408V1418.22H901.708V1408H942.892ZM953.078 1480V1469.78H994.262V1480H953.078ZM1004.49 1469.78H994.262V1449.18H1004.49V1469.78ZM994.262 1449.18H963.302V1438.82H994.262V1449.18ZM953.078 1418.22H963.302V1438.82H953.078V1418.22ZM1004.49 1408V1418.22H963.302V1408H1004.49ZM1066.08 1418.22H1024.9V1438.82H1066.08V1449.18H1024.9V1469.78H1066.08V1480H1014.67V1408H1066.08V1418.22ZM1076.27 1480V1469.78H1117.45V1480H1076.27ZM1127.67 1469.78H1117.45V1449.18H1127.67V1469.78ZM1117.45 1449.18H1086.49V1438.82H1117.45V1449.18ZM1076.27 1418.22H1086.49V1438.82H1076.27V1418.22ZM1127.67 1408V1418.22H1086.49V1408H1127.67Z" fill="#5D24BF"/>
</svg>
