<svg xmlns="http://www.w3.org/2000/svg" viewBox="0 0 1329.4 1734.1"  xmlns:v="https://vecta.io/nano"><path d="M1300.5 57.9h-28.9V.1h-57.8v57.8H1156V.1h-57.8v57.8h-57.8V.1h-57.8v57.8h-57.8V.1H867v57.8h-57.8V.1h-57.8v57.8h-57.8V.1h-57.8v57.8H578V.1h-57.8v57.8h-57.8V.1h-57.8v57.8h-57.8V.1H289v57.8h-57.8V.1h-57.8v57.8h-57.8V.1H57.8v57.8H0v1676.2h57.8v-57.8h57.8v57.8h57.8v-57.8h57.8v57.8H289v-57.8h57.8v57.8h57.8v-57.8h57.8v57.8h57.8v-57.8H578v57.8h57.8v-57.8h57.8v57.8h57.8v-57.8h57.8v57.8H867v-57.8h57.8v57.8h57.8v-57.8h57.8v57.8h57.8v-57.8h57.8v57.8h57.8v-57.8h57.8v57.8h57.8V57.9z" fill="#ffc36b"/><g fill="#ea8c27"><path d="M1156 173.5h28.9v28.9H1156zm0 1358.3h28.9v28.9H1156z"/><path d="M1184.9 202.4v202.3H144.5V202.4h-28.9v1329.4h28.9v-202.3h1040.4v202.3h28.9V202.4h-28.9zm0 260.1v838.1H144.5v-867h1040.4v28.9zm-953.7-289H1156v-28.9H173.4v28.9h28.9z"/><path d="M144.5 173.5h28.9v28.9h-28.9zm0 1358.3h28.9v28.9h-28.9z"/><path d="M1098.2 1560.7H173.4v28.9H1156v-28.9h-28.9z"/></g><path d="M1127.1 1329.5H144.5v202.3h28.9v28.9H1156v-28.9h28.9v-202.3H1156zM1156 202.4v-28.9H173.4v28.9h-28.9v202.3h1040.4V202.4zm-28.9 231.2H144.5v867h1040.4v-867H1156z" fill="#fff"/><path d="M1034.6 722.6h-23.1v-46.2h-46.2v-46.2h-92.5V584h-92.5v-46.2H549.1V584h-92.5v46.2h-92.5v46.2h-46.2v46.2h-46.2V1000h46.2v-92.5h46.2v-46.2h46.2V815h46.2v-46.2h277.4v-46.2h46.2v-46.2h46.2v46.2h46.2v46.2H919v92.5h46.2v46.2h46.2v92.5h46.2V722.6h-23z" fill="#280600"/><path d="M644.4 173.3h14.4v14.4h-14.4zm14.5-86.7v86.7h14.4V86.6z" fill="#fff"/><path d="M644.4 115.5h14.4v14.4h-14.4zm14.5 57.8h14.4v14.4h-14.4zm-43.4 0v14.5h28.9v-14.5H630z" fill="#ffffc4"/><g fill="#ffd596"><path d="M644.4 231.1h14.4v14.4h-14.4zm14.5-28.9h14.4v14.4h-14.4zm-14.5-43.3v-14.5H630v28.9h14.4z"/><path d="M644.4 130h14.4v14.4h-14.4zm57.8 43.3h-14.5v14.5h28.9v-14.5z"/></g><g fill="#ffc36b"><path d="M658.9 216.7h-14.5v14.4h28.9v-14.4zm0-28.9h14.4v14.4h-14.4zm0-28.9v-14.5h-14.5v28.9h14.5zm14.4 14.4h14.4v14.4h-14.4z"/><path d="M673.3 231.1h14.4v14.4h-14.4zm14.4-28.9h14.4v14.4h-14.4zm-43.3-14.4H630v28.9h14.4v-14.5z"/></g><g fill="#ffb200"><path d="M673.3 115.5h14.4v14.4h-14.4zm-14.4 130.1v28.9h14.4v-43.4h-14.4z"/><path d="M673.3 216.7h14.4v14.4h-14.4zm-14.4-14.5v-14.4h-14.5v28.9h14.5zm28.8-14.4h14.4v14.4h-14.4z"/></g><g fill="#ea8c27"><path d="M673.3 130h14.4v14.4h-14.4z"/><path d="M687.7 144.4h14.4v14.4h-14.4z"/></g><path d="M673.3 144.4h14.4v14.4h-14.4zm14.4 14.5h14.4v14.4h-14.4z" fill="#d67137"/><g fill="#994a4a"><path d="M687.7 86.6h-14.4v28.9h14.4v-14.4z"/><path d="M702.2 115.5h-14.5v28.9h14.5V130z"/><path d="M716.6 144.4h-14.4v28.9h14.4v-14.4zm-43.3 57.8v14.5h14.4v-28.9h-14.4z"/><path d="M716.6 173.3H731v14.4h-14.4zM644.4 260v14.5h14.5v-28.9h-14.5z"/><path d="M644.4 216.7H630v28.9h14.4v-14.5z"/><path d="M630 187.8h-14.5v28.9H630v-14.5z"/></g><g fill="#ad5a41"><path d="M658.9 72.2h14.4v14.4h-14.4z"/><path d="M658.9 101.1V86.6h-14.5v28.9h14.5zm14.4 57.8h14.4v14.4h-14.4z"/><path d="M630 130v14.4h14.4v-28.9H630z"/><path d="M615.5 158.9v14.4H630v-28.9h-14.5zm43.4 115.6h14.4v14.4h-14.4z"/><path d="M673.3 260v14.5h14.4v-28.9h-14.4z"/><path d="M687.7 231.1v14.5h14.5v-28.9h-14.5z"/><path d="M702.2 187.8v28.9h14.4v-28.9zm-101.1-14.5h14.4v14.4h-14.4z"/></g><path d="M372 1409.8h11.2v11.2H372v55.3h-11v-77.5h11v11zm11.1 11.2h11v11h-11v-11zm11 22.1V1432h11.2v11.2h-11.2zm11.2-11.1v-11h11v11h-11zm22.1-33.2h11v77.5h-11V1421h-11.2v-11.2h11.2v-11zm70.3 11h11v66.5h-11v-33.2h-33.3v33.2h-11v-66.5h11v22.2h33.3v-22.2zm0-11v11h-33.3v-11h33.3zm36.8 33.2h33.3v11.2h11v33.2h-11v-33.2h-33.3v33.2h-11v-77.5h44.3v11h-33.3v22.1zm44.4 0h-11v-22.2h11v22.2zm14.9-22.2h11v55.5h-11v-55.5zm55.3-11v11h-44.3v-11h44.3zm0 77.5h-44.3v-11h44.3v11zm118.4-77.5v77.5h-11v-33.2h-33.3v33.2h-11v-77.5h11v33.2h33.3v-33.2h11zm59.2 11h11v66.5h-11v-33.2h-33.3v33.2h-11v-66.5h11v22.2h33.3v-22.2zm0-11v11h-33.3v-11h33.3zm48.1 11v55.5h11v11h-33.2v-11h11v-55.5h-11v-11h33.2v11h-11zm36.9 22.2H945v11.2h11v33.2h-11v-33.2h-33.3v33.2h-11v-77.5H945v11h-33.3v22.1zm44.3 0h-11v-22.2h11v22.2zM239.4 292.5h11v55.3h-11v-55.3zm22.2 55.3V359h11v11h-11v-11h-11.2v-11.2h11.2zm11 11.2v-11.2h11.2V359h-11.2zm11.2-66.5h11v55.3h-11v-55.3zm70.2 11h11V370h-11v-33.2h-33.3V370h-11v-66.5h11v22.2H354v-22.2zm0-11v11h-33.3v-11H354zm81.2 66.5v11h-55.3v-77.5h11V359h44.3zm37-55.5V359h11v11H450v-11h11v-55.5h-11v-11h33.2v11h-11zm36.9 0V359h33.3v11h-44.3v-77.5h44.3v11h-33.3zm33.4 0h11V359h-11v-55.5zm85.1 0v22.2h44.3v11.2h-44.3V370h-11v-77.5h55.3v11h-44.3zm59.2 0h11V359h-11v-55.5zm44.3-11v11h-33.3v-11h33.3zM697.8 370v-11h33.3v11h-33.3zm33.3-66.5h11V359h-11v-55.5zm36.9 22.2h33.3v11.2h11V370h-11v-33.2H768V370h-11v-77.5h44.3v11H768v22.2zm44.3 0h-11v-22.2h11v22.2zm63.1-22.2h11V359h-11v-55.5zm44.3-11v11h-33.3v-11h33.3zM886.4 370v-11h33.3v11h-33.3zm33.3-66.5h11V359h-11v-55.5zm36.9 11.2h11.2v11h-11.2V370h-11v-77.5h11v22.2zm11.2 11h11v11.2h-11v-11.2zm22.1-33.2h11V370h-11v-22.2h-11.2v-11h11.2v-44.3zm36.9 11v22.2h44.3v11.2h-44.3V359h44.3v11h-55.3v-77.5h55.3v11h-44.3z" fill="#ea8c27"/></svg>