<svg width="1330" height="1734" viewBox="0 0 1330 1734" fill="none" xmlns="http://www.w3.org/2000/svg">
<path d="M1271.6 57.8V0H1213.8V57.8H1156V0H1098.2V57.8H1040.4V0H982.6V57.8H924.8V0H867V57.8H809.2V0H751.4V57.8H693.6V0H635.8V57.8H578V0H520.2V57.8H462.4V0H404.6V57.8H346.8V0H289V57.8H231.2V0H173.4V57.8H115.6V0H57.8V57.8H0V1734H57.8V1676.2H115.6V1734H173.4V1676.2H231.2V1734H289V1676.2H346.8V1734H404.6V1676.2H462.4V1734H520.2V1676.2H578V1734H635.8V1676.2H693.6V1734H751.4V1676.2H809.2V1734H867V1676.2H924.8V1734H982.6V1676.2H1040.4V1734H1098.2V1676.2H1156V1734H1213.8V1676.2H1271.6V1734H1329.4V57.8H1271.6Z" fill="#FF96FF"/>
<path d="M1156 173.4H1184.9V202.3H1156V173.4ZM1156 1531.7H1184.9V1560.6H1156V1531.7Z" fill="#FF00FF"/>
<path d="M1184.9 202.3V404.6H144.5V202.3H115.6V1531.7H144.5V1329.4H1184.9V1531.7H1213.8V202.3H1184.9ZM1184.9 1300.5H144.5V433.5H1184.9V1300.5ZM1156 173.4V144.5H173.4V173.4H1156Z" fill="#FF00FF"/>
<path d="M144.5 173.4H173.4V202.3H144.5V173.4ZM144.5 1531.7H173.4V1560.6H144.5V1531.7Z" fill="#FF00FF"/>
<path d="M173.4 1560.6V1589.5H1156V1560.6H173.4Z" fill="#FF00FF"/>
<path d="M144.5 1329.4V1531.7H173.4V1560.6H1156V1531.7H1184.9V1329.4H144.5ZM1156 202.3V173.4H173.4V202.3H144.5V404.6H1184.9V202.3H1156ZM144.5 433.5V1300.5H1184.9V433.5H144.5Z" fill="white"/>
<path d="M673.3 101.1H687.7V115.5H673.3V101.1ZM658.9 187.8V216.7H673.3V173.3H658.9V187.8ZM673.3 144.5H687.7V158.9H673.3V144.5ZM630 144.5H644.4V158.9H630V144.5ZM601.1 130H615.5V144.4H601.1V130ZM644.4 101.1H658.8V115.5H644.4V101.1Z" fill="#FFC8FF"/>
<path d="M572.2 130H586.6V144.4H572.2V130ZM601.1 144.5H586.7V173.3H601.1V144.5Z" fill="#9A298B"/>
<path d="M615.5 173.3H601.1V202.2H615.5V173.3Z" fill="#9A298B"/>
<path d="M615.5 202.2H629.9V216.6H615.5V202.2ZM630 216.7H644.4V231.1H630V216.7Z" fill="#9A298B"/>
<path d="M644.4 231.1H658.8V245.5H644.4V231.1ZM716.6 144.5H731V158.9H716.6V144.5ZM702.2 173.3H716.6V187.7H702.2V173.3ZM673.3 216.7H687.7V231.1H673.3V216.7Z" fill="#9A298B"/>
<path d="M687.7 101.1H702.1V115.5H687.7V101.1ZM702.2 130H716.6V144.4H702.2V130ZM658.9 115.6H644.4V130H687.7V115.6H658.9ZM630 101.1H644.4V115.5H630V101.1ZM658.9 231.1V245.6H673.3V216.7H658.9V231.1Z" fill="#FF96FF"/>
<path d="M586.7 130H601.1V144.4H586.7V130ZM601.1 144.5H615.5V158.9H601.1V144.5ZM615.5 173.3H629.9V187.7H615.5V173.3ZM644.4 216.7H658.8V231.1H644.4V216.7Z" fill="#FF00BE"/>
<path d="M731.1 130H745.5V144.4H731.1V130ZM702.2 187.8H716.6V202.2H702.2V187.8ZM687.7 202.2H702.1V216.6H687.7V202.2ZM716.6 158.9H731V173.3H716.6V158.9ZM716.6 115.6H731V130H716.6V115.6ZM687.7 130H702.1V144.4H687.7V130ZM658.9 144.5H673.3V158.9H658.9V144.5ZM630 130H644.4V144.4H630V130Z" fill="#D700C1"/>
<path d="M601.1 115.6H615.5V130H601.1V115.6ZM630 158.9V144.5H615.5V173.3H630V202.2H644.4V216.7H658.9V158.9H630Z" fill="#D700C1"/>
<path d="M731.1 115.6H745.5V130H731.1V115.6ZM716.6 130H731V144.4H716.6V130Z" fill="#FF62FF"/>
<path d="M702.2 115.6H687.7V130H716.6V115.6H702.2ZM687.7 144.5H702.1V158.9H687.7V144.5Z" fill="#FF62FF"/>
<path d="M658.9 130H644.4V144.5H687.7V130H658.9Z" fill="#FF62FF"/>
<path d="M630 115.6H615.5V130H644.4V115.6H630ZM615.5 187.8H629.9V202.2H615.5V187.8ZM630 202.2H644.4V216.6H630V202.2ZM601.1 158.9H615.5V173.3H601.1V158.9Z" fill="#FF62FF"/>
<path d="M658.9 101.1H673.3V115.5H658.9V101.1ZM644.4 144.5H658.8V158.9H644.4V144.5ZM658.9 158.9H673.3V173.3H658.9V158.9ZM615.5 130H629.9V144.4H615.5V130ZM586.7 115.6H601.1V130H586.7V115.6Z" fill="white"/>
<path d="M658.9 245.6H673.3V260H658.9V245.6ZM745.5 130H759.9V144.4H745.5V130ZM731.1 158.9V173.3H745.5V144.5H731.1V158.9Z" fill="#870075"/>
<path d="M716.6 187.8V202.2H731.1V173.3H716.6V187.8Z" fill="#870075"/>
<path d="M702.2 202.2H716.6V216.6H702.2V202.2ZM687.7 216.7H702.1V231.1H687.7V216.7Z" fill="#870075"/>
<path d="M673.3 231.1H687.7V245.5H673.3V231.1Z" fill="#870075"/>
<path d="M586.7 101.1V115.6H630V101.1H586.7ZM572.2 115.6H586.6V130H572.2V115.6Z" fill="#FF00FF"/>
<path d="M702.2 158.9H673.3V216.7H687.7V202.2H702.2V173.3H716.6V144.5H702.2V158.9ZM630 86.7002V101.1H702.2V86.7002H630Z" fill="#FF00FF"/>
<path d="M702.2 101.1V115.6H745.5V101.1H702.2Z" fill="#FF00FF"/>
<path d="M745.5 115.6H759.9V130H745.5V115.6ZM239.4 292.5H250.4V347.8H239.4V292.5ZM261.6 347.8V359H272.6V370H261.6V359H250.4V347.8H261.6ZM272.6 359V347.8H283.8V359H272.6ZM283.8 292.5H294.8V347.8H283.8V292.5ZM354 303.5H365V370H354V336.8H320.7V370H309.7V303.5H320.7V325.7H354V303.5ZM354 292.5V303.5H320.7V292.5H354ZM435.2 359V370H379.9V292.5H390.9V359H435.2ZM472.2 303.5V359H483.2V370H450V359H461V303.5H450V292.5H483.2V303.5H472.2ZM509.1 303.5V359H542.4V370H498.1V292.5H542.4V303.5H509.1ZM542.5 303.5H553.5V359H542.5V303.5ZM627.6 303.5V325.7H671.9V336.9H627.6V370H616.6V292.5H671.9V303.5H627.6ZM686.8 303.5H697.8V359H686.8V303.5ZM731.1 292.5V303.5H697.8V292.5H731.1ZM697.8 370V359H731.1V370H697.8ZM731.1 303.5H742.1V359H731.1V303.5ZM768 325.7H801.3V336.9H812.3V370H801.3V336.8H768V370H757V292.5H801.3V303.5H768V325.7ZM812.3 325.7H801.3V303.5H812.3V325.7ZM875.4 303.5H886.4V359H875.4V303.5ZM919.7 292.5V303.5H886.4V292.5H919.7ZM886.4 370V359H919.7V370H886.4ZM919.7 303.5H930.7V359H919.7V303.5ZM956.6 314.7H967.8V325.7H956.6V370H945.6V292.5H956.6V314.7ZM967.8 325.7H978.8V336.9H967.8V325.7ZM989.9 292.5H1000.9V370H989.9V347.8H978.7V336.8H989.9V292.5ZM1026.8 303.5V325.7H1071.1V336.9H1026.8V359H1071.1V370H1015.8V292.5H1071.1V303.5H1026.8Z" fill="#FF00FF"/>
<path d="M564.7 1067H589.7V742H564.7V1067Z" fill="#00FFFF"/>
<path d="M539.7 1067H564.7V742H539.7V1067Z" fill="#007DFF"/>
<path d="M664.7 592H689.7V1142H664.7V592Z" fill="#FF00FF"/>
<path d="M714.7 667H739.7V1117H714.7V667Z" fill="#FFFF00"/>
<path d="M764.7 742H789.7V1067H764.7V742Z" fill="#00FF00"/>
<path d="M614.7 667H639.7V1117H614.7V667Z" fill="#7D00FF"/>
<path d="M739.7 742H764.7V1067H739.7V742Z" fill="#009600"/>
<path d="M689.7 667H714.7V1117H689.7V667Z" fill="#FFC800"/>
<path d="M639.7 592H664.7V1142H639.7V592Z" fill="#7D0064"/>
<path d="M589.7 667H614.7V1117H589.7V667Z" fill="#32007D"/>
<path d="M294.227 1481V1460.41H304.451V1481H294.227ZM304.451 1460.41V1450.18H314.819V1460.41H304.451ZM314.819 1439.82H325.043V1450.18H314.819V1439.82ZM335.411 1460.41H325.043V1450.18H335.411V1460.41ZM345.635 1481H335.411V1460.41H345.635V1481ZM304.451 1429.59H314.819V1439.82H304.451V1429.59ZM294.227 1409H304.451V1429.59H294.227V1409ZM335.411 1429.59V1439.82H325.043V1429.59H335.411ZM345.635 1409V1429.59H335.411V1409H345.635ZM386.636 1419.22H376.412V1470.78H386.636V1481H355.82V1470.78H366.044V1419.22H355.82V1409H386.636V1419.22ZM448.291 1439.82H438.067V1419.22H448.291V1439.82ZM407.107 1439.82H438.067V1450.18H407.107V1470.78H438.067V1481H396.883V1409H438.067V1419.22H407.107V1439.82ZM448.291 1470.78H438.067V1450.18H448.291V1470.78ZM468.701 1481V1470.78H499.661V1481H468.701ZM458.477 1419.22H468.701V1470.78H458.477V1419.22ZM499.661 1409V1419.22H468.701V1409H499.661ZM499.661 1419.22H509.885V1470.78H499.661V1419.22ZM571.478 1409V1419.22H550.886V1481H540.662V1419.22H520.07V1409H571.478ZM633.091 1419.22H643.459V1429.59H633.091V1481H622.867V1409H633.091V1419.22ZM643.459 1429.59H653.683V1439.82H643.459V1429.59ZM653.683 1450.18V1439.82H664.051V1450.18H653.683ZM664.051 1439.82V1429.59H674.275V1439.82H664.051ZM684.643 1409H694.867V1481H684.643V1429.59H674.275V1419.22H684.643V1409ZM715.357 1481V1470.78H746.317V1481H715.357ZM705.133 1419.22H715.357V1470.78H705.133V1419.22ZM746.317 1409V1419.22H715.357V1409H746.317ZM746.317 1419.22H756.541V1470.78H746.317V1419.22ZM807.911 1409H818.135V1481H807.911V1450.18H776.951V1481H766.727V1409H776.951V1439.82H807.911V1409ZM869.504 1409V1419.22H838.544V1409H869.504ZM869.504 1419.22H879.728V1481H869.504V1450.18H838.544V1481H828.32V1419.22H838.544V1439.82H869.504V1419.22ZM889.914 1409H900.138V1470.78H889.914V1409ZM900.138 1481V1470.78H910.506V1481H900.138ZM910.506 1470.78V1460.41H920.73V1470.78H910.506ZM920.73 1450.18H931.098V1460.41H920.73V1450.18ZM931.098 1460.41H941.322V1470.78H931.098V1460.41ZM941.322 1481V1470.78H951.69V1481H941.322ZM951.69 1409H961.914V1470.78H951.69V1409ZM982.404 1439.82H992.772V1450.18H982.404V1481H972.18V1409H982.404V1439.82ZM1003 1429.59V1439.82H992.772V1429.59H1003ZM1013.36 1419.22V1429.59H1003V1419.22H1013.36ZM1023.59 1409V1419.22H1013.36V1409H1023.59ZM1003 1460.41H992.772V1450.18H1003V1460.41ZM1013.36 1470.78H1003V1460.41H1013.36V1470.78ZM1023.59 1481H1013.36V1470.78H1023.59V1481Z" fill="#FF00FF"/>
</svg>
