<svg width="103" height="103" viewBox="0 0 103 103" fill="none" xmlns="http://www.w3.org/2000/svg">
<path d="M86.9062 6.4375H85.2969V4.82812V3.21875H83.6875H82.0781V4.82812V6.4375H80.4688H78.8594V4.82812V3.21875H77.25H75.6406V4.82812V6.4375H74.0312H72.4219V4.82812V3.21875H70.8125H69.2031V4.82812V6.4375H67.5938H65.9844V4.82812V3.21875H64.375H62.7656V4.82812V6.4375H61.1562H59.5469V4.82812V3.21875H57.9375H56.3281V4.82812V6.4375H54.7188H53.1094V4.82812V3.21875H51.5H49.8906V4.82812V6.4375H48.2812H46.6719V4.82812V3.21875H45.0625H43.4531V4.82812V6.4375H41.8438H40.2344V4.82812V3.21875H38.625H37.0156V4.82812V6.4375H35.4062H33.7969V4.82812V3.21875H32.1875H30.5781V4.82812V6.4375H28.9688H27.3594V4.82812V3.21875H25.75H24.1406V4.82812V6.4375H22.5312H20.9219V4.82812V3.21875H19.3125H17.7031V4.82812V6.4375H16.0938H14.4844V8.04688V9.65625V11.2656V12.875V14.4844V16.0938V17.7031V19.3125V20.9219V22.5312V24.1406V25.75V27.3594V28.9688V30.5781V32.1875V33.7969V35.4062V37.0156V38.625V40.2344V41.8438V43.4531V45.0625V46.6719V48.2812V49.8906V51.5V53.1094V54.7188V56.3281V57.9375V59.5469V61.1562V62.7656V64.375V65.9844V67.5938V69.2031V70.8125V72.4219V74.0312V75.6406V77.25V78.8594V80.4688V82.0781V83.6875V85.2969V86.9062V88.5156V90.125V91.7344V93.3438V94.9531V96.5625V98.1719V99.7812H16.0938H17.7031V98.1719V96.5625H19.3125H20.9219V98.1719V99.7812H22.5312H24.1406V98.1719V96.5625H25.75H27.3594V98.1719V99.7812H28.9688H30.5781V98.1719V96.5625H32.1875H33.7969V98.1719V99.7812H35.4062H37.0156V98.1719V96.5625H38.625H40.2344V98.1719V99.7812H41.8438H43.4531V98.1719V96.5625H45.0625H46.6719V98.1719V99.7812H48.2812H49.8906V98.1719V96.5625H51.5H53.1094V98.1719V99.7812H54.7188H56.3281V98.1719V96.5625H57.9375H59.5469V98.1719V99.7812H61.1562H62.7656V98.1719V96.5625H64.375H65.9844V98.1719V99.7812H67.5938H69.2031V98.1719V96.5625H70.8125H72.4219V98.1719V99.7812H74.0312H75.6406V98.1719V96.5625H77.25H78.8594V98.1719V99.7812H80.4688H82.0781V98.1719V96.5625H83.6875H85.2969V98.1719V99.7812H86.9062H88.5156V98.1719V96.5625V94.9531V93.3438V91.7344V90.125V88.5156V86.9062V85.2969V83.6875V82.0781V80.4688V78.8594V77.25V75.6406V74.0312V72.4219V70.8125V69.2031V67.5938V65.9844V64.375V62.7656V61.1562V59.5469V57.9375V56.3281V54.7188V53.1094V51.5V49.8906V48.2812V46.6719V45.0625V43.4531V41.8438V40.2344V38.625V37.0156V35.4062V33.7969V32.1875V30.5781V28.9688V27.3594V25.75V24.1406V22.5312V20.9219V19.3125V17.7031V16.0938V14.4844V12.875V11.2656V9.65625V8.04688V6.4375H86.9062Z" fill="#33BACC"/>
<path d="M80.4688 12.875H78.8594V14.4844H80.4688V12.875Z" fill="#36818E"/>
<path d="M80.4688 88.5156H78.8594V90.125H80.4688V88.5156Z" fill="#36818E"/>
<path d="M80.4688 14.4844V16.0938V17.7031V19.3125V20.9219V22.5312V24.1406V25.75H78.8594H77.25H75.6406H74.0312H72.4219H70.8125H69.2031H67.5938H65.9844H64.375H62.7656H61.1562H59.5469H57.9375H56.3281H54.7188H53.1094H51.5H49.8906H48.2812H46.6719H45.0625H43.4531H41.8438H40.2344H38.625H37.0156H35.4062H33.7969H32.1875H30.5781H28.9688H27.3594H25.75H24.1406H22.5312V24.1406V22.5312V20.9219V19.3125V17.7031V16.0938V14.4844H20.9219V16.0938V17.7031V19.3125V20.9219V22.5312V24.1406V25.75V27.3594V28.9688V30.5781V32.1875V33.7969V35.4062V37.0156V38.625V40.2344V41.8438V43.4531V45.0625V46.6719V48.2812V49.8906V51.5V53.1094V54.7188V56.3281V57.9375V59.5469V61.1562V62.7656V64.375V65.9844V67.5938V69.2031V70.8125V72.4219V74.0312V75.6406V77.25V78.8594V80.4688V82.0781V83.6875V85.2969V86.9062V88.5156H22.5312V86.9062V85.2969V83.6875V82.0781V80.4688V78.8594V77.25H24.1406H25.75H27.3594H28.9688H30.5781H32.1875H33.7969H35.4062H37.0156H38.625H40.2344H41.8438H43.4531H45.0625H46.6719H48.2812H49.8906H51.5H53.1094H54.7188H56.3281H57.9375H59.5469H61.1562H62.7656H64.375H65.9844H67.5938H69.2031H70.8125H72.4219H74.0312H75.6406H77.25H78.8594H80.4688V78.8594V80.4688V82.0781V83.6875V85.2969V86.9062V88.5156H82.0781V86.9062V85.2969V83.6875V82.0781V80.4688V78.8594V77.25V75.6406V74.0312V72.4219V70.8125V69.2031V67.5938V65.9844V64.375V62.7656V61.1562V59.5469V57.9375V56.3281V54.7188V53.1094V51.5V49.8906V48.2812V46.6719V45.0625V43.4531V41.8438V40.2344V38.625V37.0156V35.4062V33.7969V32.1875V30.5781V28.9688V27.3594V25.75V24.1406V22.5312V20.9219V19.3125V17.7031V16.0938V14.4844H80.4688ZM80.4688 28.9688V30.5781V32.1875V33.7969V35.4062V37.0156V38.625V40.2344V41.8438V43.4531V45.0625V46.6719V48.2812V49.8906V51.5V53.1094V54.7188V56.3281V57.9375V59.5469V61.1562V62.7656V64.375V65.9844V67.5938V69.2031V70.8125V72.4219V74.0312V75.6406H78.8594H77.25H75.6406H74.0312H72.4219H70.8125H69.2031H67.5938H65.9844H64.375H62.7656H61.1562H59.5469H57.9375H56.3281H54.7188H53.1094H51.5H49.8906H48.2812H46.6719H45.0625H43.4531H41.8438H40.2344H38.625H37.0156H35.4062H33.7969H32.1875H30.5781H28.9688H27.3594H25.75H24.1406H22.5312V74.0312V72.4219V70.8125V69.2031V67.5938V65.9844V64.375V62.7656V61.1562V59.5469V57.9375V56.3281V54.7188V53.1094V51.5V49.8906V48.2812V46.6719V45.0625V43.4531V41.8438V40.2344V38.625V37.0156V35.4062V33.7969V32.1875V30.5781V28.9688V27.3594H24.1406H25.75H27.3594H28.9688H30.5781H32.1875H33.7969H35.4062H37.0156H38.625H40.2344H41.8438H43.4531H45.0625H46.6719H48.2812H49.8906H51.5H53.1094H54.7188H56.3281H57.9375H59.5469H61.1562H62.7656H64.375H65.9844H67.5938H69.2031H70.8125H72.4219H74.0312H75.6406H77.25H78.8594H80.4688V28.9688Z" fill="#36818E"/>
<path d="M27.3594 12.875H28.9688H30.5781H32.1875H33.7969H35.4062H37.0156H38.625H40.2344H41.8438H43.4531H45.0625H46.6719H48.2812H49.8906H51.5H53.1094H54.7188H56.3281H57.9375H59.5469H61.1562H62.7656H64.375H65.9844H67.5938H69.2031H70.8125H72.4219H74.0312H75.6406H77.25H78.8594V11.2656H77.25H75.6406H74.0312H72.4219H70.8125H69.2031H67.5938H65.9844H64.375H62.7656H61.1562H59.5469H57.9375H56.3281H54.7188H53.1094H51.5H49.8906H48.2812H46.6719H45.0625H43.4531H41.8438H40.2344H38.625H37.0156H35.4062H33.7969H32.1875H30.5781H28.9688H27.3594H25.75H24.1406V12.875H25.75H27.3594Z" fill="#36818E"/>
<path d="M24.1406 12.875H22.5312V14.4844H24.1406V12.875Z" fill="#36818E"/>
<path d="M24.1406 88.5156H22.5312V90.125H24.1406V88.5156Z" fill="#36818E"/>
<path d="M75.6406 90.125H74.0312H72.4219H70.8125H69.2031H67.5938H65.9844H64.375H62.7656H61.1562H59.5469H57.9375H56.3281H54.7188H53.1094H51.5H49.8906H48.2812H46.6719H45.0625H43.4531H41.8438H40.2344H38.625H37.0156H35.4062H33.7969H32.1875H30.5781H28.9688H27.3594H25.75H24.1406V91.7344H25.75H27.3594H28.9688H30.5781H32.1875H33.7969H35.4062H37.0156H38.625H40.2344H41.8438H43.4531H45.0625H46.6719H48.2812H49.8906H51.5H53.1094H54.7188H56.3281H57.9375H59.5469H61.1562H62.7656H64.375H65.9844H67.5938H69.2031H70.8125H72.4219H74.0312H75.6406H77.25H78.8594V90.125H77.25H75.6406Z" fill="#36818E"/>
<path d="M77.25 77.25H75.6406H74.0312H72.4219H70.8125H69.2031H67.5938H65.9844H64.375H62.7656H61.1562H59.5469H57.9375H56.3281H54.7188H53.1094H51.5H49.8906H48.2812H46.6719H45.0625H43.4531H41.8438H40.2344H38.625H37.0156H35.4062H33.7969H32.1875H30.5781H28.9688H27.3594H25.75H24.1406H22.5312V78.8594V80.4688V82.0781V83.6875V85.2969V86.9062V88.5156H24.1406V90.125H25.75H27.3594H28.9688H30.5781H32.1875H33.7969H35.4062H37.0156H38.625H40.2344H41.8438H43.4531H45.0625H46.6719H48.2812H49.8906H51.5H53.1094H54.7188H56.3281H57.9375H59.5469H61.1562H62.7656H64.375H65.9844H67.5938H69.2031H70.8125H72.4219H74.0312H75.6406H77.25H78.8594V88.5156H80.4688V86.9062V85.2969V83.6875V82.0781V80.4688V78.8594V77.25H78.8594H77.25Z" fill="white"/>
<path d="M78.8594 14.4844V12.875H77.25H75.6406H74.0312H72.4219H70.8125H69.2031H67.5938H65.9844H64.375H62.7656H61.1562H59.5469H57.9375H56.3281H54.7188H53.1094H51.5H49.8906H48.2812H46.6719H45.0625H43.4531H41.8438H40.2344H38.625H37.0156H35.4062H33.7969H32.1875H30.5781H28.9688H27.3594H25.75H24.1406V14.4844H22.5312V16.0938V17.7031V19.3125V20.9219V22.5312V24.1406V25.75H24.1406H25.75H27.3594H28.9688H30.5781H32.1875H33.7969H35.4062H37.0156H38.625H40.2344H41.8438H43.4531H45.0625H46.6719H48.2812H49.8906H51.5H53.1094H54.7188H56.3281H57.9375H59.5469H61.1562H62.7656H64.375H65.9844H67.5938H69.2031H70.8125H72.4219H74.0312H75.6406H77.25H78.8594H80.4688V24.1406V22.5312V20.9219V19.3125V17.7031V16.0938V14.4844H78.8594Z" fill="white"/>
<path d="M77.25 27.3594H75.6406H74.0312H72.4219H70.8125H69.2031H67.5938H65.9844H64.375H62.7656H61.1562H59.5469H57.9375H56.3281H54.7188H53.1094H51.5H49.8906H48.2812H46.6719H45.0625H43.4531H41.8438H40.2344H38.625H37.0156H35.4062H33.7969H32.1875H30.5781H28.9688H27.3594H25.75H24.1406H22.5312V28.9688V30.5781V32.1875V33.7969V35.4062V37.0156V38.625V40.2344V41.8438V43.4531V45.0625V46.6719V48.2812V49.8906V51.5V53.1094V54.7188V56.3281V57.9375V59.5469V61.1562V62.7656V64.375V65.9844V67.5938V69.2031V70.8125V72.4219V74.0312V75.6406H24.1406H25.75H27.3594H28.9688H30.5781H32.1875H33.7969H35.4062H37.0156H38.625H40.2344H41.8438H43.4531H45.0625H46.6719H48.2812H49.8906H51.5H53.1094H54.7188H56.3281H57.9375H59.5469H61.1562H62.7656H64.375H65.9844H67.5938H69.2031H70.8125H72.4219H74.0312H75.6406H77.25H78.8594H80.4688V74.0312V72.4219V70.8125V69.2031V67.5938V65.9844V64.375V62.7656V61.1562V59.5469V57.9375V56.3281V54.7188V53.1094V51.5V49.8906V48.2812V46.6719V45.0625V43.4531V41.8438V40.2344V38.625V37.0156V35.4062V33.7969V32.1875V30.5781V28.9688V27.3594H78.8594H77.25Z" fill="white"/>
<path d="M50.2125 14.1625H49.5687V14.8062H50.2125H51.1781V14.1625H50.2125Z" fill="#52A7AA"/>
<path d="M50.3734 9.97815H49.5687V10.7828H50.3734V9.97815Z" fill="white"/>
<path d="M49.4078 9.33435H48.6031V10.139H49.4078V9.33435Z" fill="white"/>
<path d="M51.9828 9.33435H51.1781V10.139H51.9828V9.33435Z" fill="white"/>
<path d="M51.0172 11.5875H50.2125V12.3922H51.0172V11.5875Z" fill="#96FFFF"/>
<path d="M51.8218 9.97815H51.1781H50.2125V10.9438H51.1781V11.5875H51.8218V10.9438H52.7875V9.97815H51.8218Z" fill="#96FFFF"/>
<path d="M49.5687 10.9438V9.97815H48.6031V10.9438V11.5875H49.5687H50.2125V10.9438H49.5687Z" fill="#96FFFF"/>
<path d="M52.7875 9.33435H51.8218V9.9781H52.7875H53.4312V9.33435H52.7875Z" fill="#DBFFFF"/>
<path d="M51.9828 11.5875H51.1781V12.3922H51.9828V11.5875Z" fill="#DBFFFF"/>
<path d="M51.0172 10.9437H50.2125V11.7484H51.0172V10.9437Z" fill="#DBFFFF"/>
<path d="M51.1781 9.9781V9.33435H50.2125H49.5687V9.9781H50.2125H51.1781Z" fill="#DBFFFF"/>
<path d="M54.2359 9.33435H53.4312V10.139H54.2359V9.33435Z" fill="#00FFFF"/>
<path d="M53.5922 9.97815H52.7875V10.7828H53.5922V9.97815Z" fill="#00FFFF"/>
<path d="M52.6265 10.9437H51.8218V11.7484H52.6265V10.9437Z" fill="#00FFFF"/>
<path d="M54.2359 14.1625H53.4312V14.9672H54.2359V14.1625Z" fill="#00FFFF"/>
<path d="M53.5922 13.1969H52.7875V14.0016H53.5922V13.1969Z" fill="#00FFFF"/>
<path d="M52.6265 12.5531H51.8218V13.3578H52.6265V12.5531Z" fill="#00FFFF"/>
<path d="M48.6031 11.5875V12.5532V13.1969V14.1625H49.5687V13.1969H50.2125V12.5532V11.5875H49.5687H48.6031Z" fill="#00FFFF"/>
<path d="M53.5922 14.1625H52.7875V14.9672H53.5922V14.1625Z" fill="#86E8E6"/>
<path d="M53.4312 11.5875V12.5532V13.1969V14.1625H54.3968V13.1969V12.5532V11.5875H53.4312Z" fill="#86E8E6"/>
<path d="M51.1781 14.1625V14.8062H51.8219H52.7875V14.1625H51.8219H51.1781Z" fill="#4FD1D6"/>
<path d="M53.4312 9.97815V10.9438V11.5875H54.3968V10.9438V9.97815H53.4312Z" fill="#4FD1D6"/>
<path d="M51.0172 12.5531H50.2125V13.3578H51.0172V12.5531Z" fill="#33BACC"/>
<path d="M50.3734 13.1969H49.5687V14.0016H50.3734V13.1969Z" fill="#33BACC"/>
<path d="M49.4078 14.1625H48.6031V14.9672H49.4078V14.1625Z" fill="#33BACC"/>
<path d="M52.7875 10.9437V11.5875H51.8218V12.5531H52.7875V13.1968H53.4312V12.5531V11.5875V10.9437H52.7875Z" fill="#33BACC"/>
<path d="M53.4312 8.36877H52.7875H51.8218H51.1781H50.2125H49.5687H48.6031V9.3344H49.5687H50.2125H51.1781H51.8218H52.7875H53.4312H54.3968V8.36877H53.4312Z" fill="#36818E"/>
<path d="M51.8218 12.5531H51.1781V13.1968H50.2125V14.1625H51.1781H51.8218H52.7875V13.1968H51.8218V12.5531Z" fill="#36818E"/>
<path d="M47.9594 9.9781V10.9437V11.5875V12.5531V13.1969V14.1625V14.8062H48.6031V14.1625V13.1969V12.5531V11.5875V10.9437V9.9781V9.33435H47.9594V9.9781Z" fill="#36818E"/>
<path d="M54.3969 9.33435V9.9781V10.9437V11.5875V12.5531V13.1969V14.1625V14.8062H55.0406V14.1625V13.1969V12.5531V11.5875V10.9437V9.9781V9.33435H54.3969Z" fill="#283849"/>
<path d="M52.7875 14.8063H51.8218H51.1781H50.2125H49.5687H48.6031V15.7719H49.5687H50.2125H51.1781H51.8218H52.7875H53.4312H54.3968V14.8063H53.4312H52.7875Z" fill="#283849"/>
<path d="M36.9537 18.6264V19.0584H37.3797V19.4844H36.9537V19.0584H36.5217V18.6264H36.9537ZM37.3797 19.0584V18.6264H37.8117V19.0584H37.3797ZM36.0957 16.4844H36.5217V18.6264H36.0957V16.4844ZM37.8117 16.4844H38.2377V18.6264H37.8117V16.4844ZM40.3781 16.4844V16.9104H39.0881V16.4844H40.3781ZM40.3781 16.9104H40.8041V19.4844H40.3781V18.2004H39.0881V19.4844H38.6621V16.9104H39.0881V17.7684H40.3781V16.9104ZM41.6545 19.0584H43.3705V19.4844H41.2285V16.4844H41.6545V19.0584ZM45.0789 16.9104H44.6529V19.0584H45.0789V19.4844H43.7949V19.0584H44.2209V16.9104H43.7949V16.4844H45.0789V16.9104ZM45.9319 16.9104V19.0584H47.2219V19.4844H45.5059V16.4844H47.2219V16.9104H45.9319ZM47.2219 16.9104H47.6479V19.0584H47.2219V16.9104ZM51.9311 16.9104H50.2151V17.7684H51.9311V18.2004H50.2151V19.4844H49.7891V16.4844H51.9311V16.9104ZM52.7815 19.4844V19.0584H54.0715V19.4844H52.7815ZM52.3555 16.9104H52.7815V19.0584H52.3555V16.9104ZM54.0715 16.4844V16.9104H52.7815V16.4844H54.0715ZM54.0715 16.9104H54.4975V19.0584H54.0715V16.9104ZM57.0639 17.7684H56.6379V16.9104H57.0639V17.7684ZM55.3479 17.7684H56.6379V18.2004H57.0639V19.4844H56.6379V18.2004H55.3479V19.4844H54.9219V16.4844H56.6379V16.9104H55.3479V17.7684ZM59.6311 19.4844V19.0584H60.9211V19.4844H59.6311ZM59.2051 16.9104H59.6311V19.0584H59.2051V16.9104ZM60.9211 16.4844V16.9104H59.6311V16.4844H60.9211ZM60.9211 16.9104H61.3471V19.0584H60.9211V16.9104ZM62.1975 17.3424H62.6295V17.7684H62.1975V19.4844H61.7715V16.4844H62.1975V17.3424ZM62.6295 17.7684H63.0555V18.2004H62.6295V17.7684ZM63.4875 16.4844H63.9135V19.4844H63.4875V18.6264H63.0555V18.2004H63.4875V16.4844ZM66.4799 16.9104H64.7639V17.7684H66.4799V18.2004H64.7639V19.0584H66.4799V19.4844H64.3379V16.4844H66.4799V16.9104Z" fill="#36818E"/>
<path d="M37.5889 82.8594V82.5044H39.0189V82.8594H37.5889ZM39.3739 82.5044H39.0189V81.7894H39.3739V82.5044ZM39.0189 81.7894H37.9439V81.4294H39.0189V81.7894ZM37.5889 80.7144H37.9439V81.4294H37.5889V80.7144ZM39.3739 80.3594V80.7144H37.9439V80.3594H39.3739ZM40.0825 81.0744H40.4425V81.4294H40.0825V82.8594H39.7275V80.3594H40.0825V81.0744ZM40.4425 81.4294H40.7975V81.7894H40.4425V81.4294ZM41.1575 80.3594H41.5125V82.8594H41.1575V82.1444H40.7975V81.7894H41.1575V80.3594ZM42.2212 82.8594V82.5044H43.2962V82.8594H42.2212ZM41.8662 80.7144H42.2212V82.5044H41.8662V80.7144ZM43.2962 80.3594V80.7144H42.2212V80.3594H43.2962ZM43.2962 80.7144H43.6512V82.5044H43.2962V80.7144ZM44.0049 80.3594H44.3599V82.5044H44.0049V80.3594ZM44.3599 82.8594V82.5044H44.7199V82.8594H44.3599ZM44.7199 82.5044V82.1444H45.0749V82.5044H44.7199ZM45.0749 81.7894H45.4349V82.1444H45.0749V81.7894ZM45.4349 82.1444H45.7899V82.5044H45.4349V82.1444ZM45.7899 82.8594V82.5044H46.1499V82.8594H45.7899ZM46.1499 80.3594H46.5049V82.5044H46.1499V80.3594ZM50.077 82.8594H48.647V82.5044H50.077V82.8594ZM48.292 80.7144H48.647V82.5044H48.292V80.7144ZM50.077 80.3594V80.7144H48.647V80.3594H50.077ZM51.8607 80.3594V80.7144H50.7857V80.3594H51.8607ZM51.8607 80.7144H52.2157V82.8594H51.8607V81.7894H50.7857V82.8594H50.4307V80.7144H50.7857V81.4294H51.8607V80.7144ZM52.9243 80.7144H53.2843V81.0744H52.9243V82.8594H52.5693V80.3594H52.9243V80.7144ZM53.2843 81.0744H53.6393V81.4294H53.2843V81.0744ZM53.6393 81.7894V81.4294H53.9993V81.7894H53.6393ZM53.9993 81.4294V81.0744H54.3543V81.4294H53.9993ZM54.7143 80.3594H55.0693V82.8594H54.7143V81.0744H54.3543V80.7144H54.7143V80.3594ZM55.7808 82.8594V82.5044H56.8558V82.8594H55.7808ZM55.4258 80.7144H55.7808V82.5044H55.4258V80.7144ZM56.8558 80.3594V80.7144H55.7808V80.3594H56.8558ZM56.8558 80.7144H57.2108V82.5044H56.8558V80.7144ZM60.4251 80.3594H60.7801V82.8594H60.4251V81.7894H59.3501V82.8594H58.9951V80.3594H59.3501V81.4294H60.4251V80.3594ZM62.5638 80.3594V80.7144H61.4888V80.3594H62.5638ZM62.5638 80.7144H62.9188V82.8594H62.5638V81.7894H61.4888V82.8594H61.1338V80.7144H61.4888V81.4294H62.5638V80.7144ZM65.0575 80.3594V80.7144H64.3425V82.8594H63.9875V80.7144H63.2725V80.3594H65.0575Z" fill="#36818E"/>
<path d="M30.5781 45.0625V43.4531H28.9688H27.3594V45.0625H28.9688H30.5781Z" fill="#A8AAAE"/>
<path d="M49.8906 48.2812H51.5H53.1094V46.6719V45.0625H51.5H49.8906V43.4531V41.8438H48.2812H46.6719V43.4531H48.2812V45.0625H46.6719H45.0625V43.4531H43.4531V41.8438H41.8438V40.2344V38.625H40.2344H38.625V40.2344H40.2344V41.8438V43.4531H38.625V45.0625V46.6719H40.2344H41.8438H43.4531V48.2812H45.0625H46.6719V46.6719H48.2812V48.2812H49.8906Z" fill="#A8AAAE"/>
<path d="M40.2344 51.5H41.8438V49.8906H40.2344H38.625V51.5V53.1094H40.2344V51.5Z" fill="#A8AAAE"/>
<path d="M28.9688 49.8906V51.5H30.5781V49.8906V48.2812H28.9688V46.6719H27.3594V45.0625H25.75V46.6719V48.2812H27.3594V49.8906H28.9688Z" fill="#A8AAAE"/>
<path d="M69.2031 45.0625V46.6719H70.8125H72.4219V45.0625H74.0312V43.4531H72.4219V41.8438V40.2344H70.8125V41.8438V43.4531H69.2031V45.0625Z" fill="#A8AAAE"/>
<path d="M67.5938 43.4531H65.9844V41.8438H64.375V43.4531V45.0625H62.7656H61.1562V43.4531H62.7656V41.8438V40.2344H64.375V38.625V37.0156H62.7656H61.1562V38.625V40.2344H59.5469H57.9375V41.8438H56.3281H54.7188V43.4531H56.3281H57.9375H59.5469V45.0625V46.6719V48.2812H61.1562V46.6719H62.7656H64.375H65.9844V45.0625H67.5938V43.4531Z" fill="#A8AAAE"/>
<path d="M70.8125 49.8906H69.2031H67.5938V51.5H69.2031H70.8125H72.4219H74.0312V49.8906H72.4219H70.8125Z" fill="#A8AAAE"/>
<path d="M75.6406 45.0625V46.6719V48.2812H74.0312V49.8906H75.6406H77.25V48.2812V46.6719V45.0625H75.6406Z" fill="#A8AAAE"/>
<path d="M69.2031 46.6719H67.5938V48.2812H69.2031V46.6719Z" fill="#A8AAAE"/>
<path d="M61.1562 51.5H62.7656V53.1094H64.375V51.5V49.8906V48.2812H62.7656H61.1562V49.8906V51.5Z" fill="#A8AAAE"/>
<path d="M57.9375 49.8906V48.2812H56.3281V49.8906V51.5H57.9375V49.8906Z" fill="#A8AAAE"/>
<path d="M33.7969 41.8438V40.2344H32.1875H30.5781V41.8438H32.1875H33.7969Z" fill="#A8AAAE"/>
<path d="M69.2031 38.625H67.5938V40.2344H69.2031V38.625Z" fill="#A8AAAE"/>
<path d="M57.9375 37.0156H56.3281V38.625V40.2344H57.9375V38.625V37.0156Z" fill="#A8AAAE"/>
<path d="M61.1562 54.7188H59.5469H57.9375V56.3281H56.3281H54.7188V54.7188H53.1094V56.3281H51.5H49.8906V57.9375V59.5469H51.5H53.1094H54.7188V57.9375H56.3281V59.5469H57.9375H59.5469V57.9375H61.1562H62.7656H64.375V56.3281V54.7188H62.7656H61.1562Z" fill="#A8AAAE"/>
<path d="M74.0312 54.7188H72.4219V56.3281H74.0312H75.6406V54.7188H74.0312Z" fill="#A8AAAE"/>
<path d="M61.1562 61.1562V62.7656H62.7656V64.375V65.9844H64.375V64.375V62.7656V61.1562H62.7656H61.1562Z" fill="#A8AAAE"/>
<path d="M74.0312 59.5469H72.4219V61.1562H74.0312V59.5469Z" fill="#A8AAAE"/>
<path d="M75.6406 57.9375H74.0312V59.5469H75.6406V57.9375Z" fill="#A8AAAE"/>
<path d="M33.7969 54.7188H32.1875H30.5781H28.9688V56.3281H30.5781V57.9375H32.1875H33.7969V56.3281V54.7188Z" fill="#A8AAAE"/>
<path d="M27.3594 56.3281H25.75V57.9375H27.3594V56.3281Z" fill="#A8AAAE"/>
<path d="M32.1875 61.1562H30.5781V62.7656H32.1875H33.7969H35.4062V61.1562H33.7969H32.1875Z" fill="#A8AAAE"/>
<path d="M35.4062 57.9375H33.7969V59.5469H35.4062V57.9375Z" fill="#A8AAAE"/>
<path d="M41.8438 61.1562V59.5469H40.2344H38.625V61.1562V62.7656V64.375V65.9844H40.2344V64.375V62.7656H41.8438V61.1562Z" fill="#A8AAAE"/>
<path d="M43.4531 57.9375V56.3281V54.7188H41.8438V56.3281H40.2344H38.625V54.7188H37.0156H35.4062V56.3281H37.0156V57.9375H38.625H40.2344H41.8438V59.5469H43.4531V57.9375Z" fill="#A8AAAE"/>
<path d="M41.8438 64.375V65.9844H43.4531H45.0625V64.375H43.4531H41.8438Z" fill="#A8AAAE"/>
<path d="M45.0625 61.1562V62.7656H46.6719V61.1562V59.5469H45.0625V61.1562Z" fill="#A8AAAE"/>
<path d="M77.25 56.3281H75.6406V57.9375H77.25V56.3281Z" fill="#A8AAAE"/>
<path d="M28.9688 41.8438H30.5781V40.2344H28.9688H27.3594V41.8438V43.4531H28.9688V41.8438Z" fill="#0E0C15"/>
<path d="M77.25 43.4531H75.6406V45.0625H77.25V46.6719V48.2812V49.8906V51.5V53.1094H75.6406H74.0312H72.4219H70.8125H69.2031H67.5938H65.9844H64.375H62.7656H61.1562H59.5469H57.9375H56.3281H54.7188H53.1094H51.5H49.8906H48.2812H46.6719H45.0625H43.4531H41.8438H40.2344H38.625H37.0156H35.4062H33.7969H32.1875H30.5781H28.9688H27.3594H25.75V51.5V49.8906V48.2812V46.6719V45.0625H27.3594V43.4531H25.75H24.1406V45.0625V46.6719V48.2812V49.8906V51.5V53.1094V54.7188V56.3281V57.9375H25.75V56.3281V54.7188H27.3594H28.9688H30.5781H32.1875H33.7969H35.4062H37.0156H38.625H40.2344H41.8438H43.4531H45.0625H46.6719H48.2812H49.8906H51.5H53.1094H54.7188H56.3281H57.9375H59.5469H61.1562H62.7656H64.375H65.9844H67.5938H69.2031H70.8125H72.4219H74.0312H75.6406H77.25V56.3281V57.9375H78.8594V56.3281V54.7188V53.1094V51.5V49.8906V48.2812V46.6719V45.0625V43.4531H77.25Z" fill="#0E0C15"/>
<path d="M74.0312 41.8438V43.4531H75.6406V41.8438V40.2344H74.0312H72.4219V41.8438H74.0312Z" fill="#0E0C15"/>
<path d="M35.4062 37.0156H37.0156H38.625H40.2344H41.8438H43.4531H45.0625H46.6719H48.2812H49.8906H51.5H53.1094H54.7188H56.3281H57.9375H59.5469H61.1562H62.7656H64.375H65.9844H67.5938V38.625H69.2031V37.0156V35.4062H67.5938H65.9844H64.375H62.7656H61.1562H59.5469H57.9375H56.3281H54.7188H53.1094H51.5H49.8906H48.2812H46.6719H45.0625H43.4531H41.8438H40.2344H38.625H37.0156H35.4062H33.7969V37.0156V38.625H35.4062V37.0156Z" fill="#0E0C15"/>
<path d="M33.7969 40.2344V38.625H32.1875H30.5781V40.2344H32.1875H33.7969Z" fill="#0E0C15"/>
<path d="M70.8125 40.2344H72.4219V38.625H70.8125H69.2031V40.2344H70.8125Z" fill="#0E0C15"/>
<path d="M62.7656 65.9844H61.1562H59.5469H57.9375H56.3281H54.7188H53.1094H51.5H49.8906H48.2812H46.6719H45.0625H43.4531H41.8438H40.2344H38.625H37.0156V67.5938H38.625H40.2344H41.8438H43.4531H45.0625H46.6719H48.2812H49.8906H51.5H53.1094H54.7188H56.3281H57.9375H59.5469H61.1562H62.7656H64.375H65.9844V65.9844H64.375H62.7656Z" fill="#0E0C15"/>
<path d="M67.5938 64.375H65.9844V65.9844H67.5938H69.2031H70.8125V64.375H69.2031H67.5938Z" fill="#0E0C15"/>
<path d="M74.0312 61.1562H72.4219V62.7656H74.0312V61.1562Z" fill="#0E0C15"/>
<path d="M75.6406 59.5469H74.0312V61.1562H75.6406V59.5469Z" fill="#0E0C15"/>
<path d="M72.4219 62.7656H70.8125V64.375H72.4219V62.7656Z" fill="#0E0C15"/>
<path d="M30.5781 61.1562H28.9688V62.7656H30.5781V61.1562Z" fill="#0E0C15"/>
<path d="M27.3594 57.9375H25.75V59.5469H27.3594V57.9375Z" fill="#0E0C15"/>
<path d="M35.4062 64.375H33.7969H32.1875V65.9844H33.7969H35.4062H37.0156V64.375H35.4062Z" fill="#0E0C15"/>
<path d="M32.1875 62.7656H30.5781V64.375H32.1875V62.7656Z" fill="#0E0C15"/>
<path d="M28.9688 59.5469H27.3594V61.1562H28.9688V59.5469Z" fill="#0E0C15"/>
<path d="M77.25 57.9375H75.6406V59.5469H77.25V57.9375Z" fill="#0E0C15"/>
<path d="M48.2812 45.0625V43.4531H46.6719H45.0625V45.0625H46.6719H48.2812Z" fill="#EDEFF2"/>
<path d="M40.2344 46.6719H38.625V45.0625H37.0156V43.4531H35.4062V41.8438H33.7969V43.4531H32.1875H30.5781V45.0625H32.1875H33.7969V46.6719H32.1875V48.2812H33.7969H35.4062H37.0156V49.8906V51.5V53.1094H38.625V51.5V49.8906H40.2344H41.8438V51.5H43.4531V49.8906V48.2812V46.6719H41.8438H40.2344Z" fill="#EDEFF2"/>
<path d="M28.9688 49.8906H27.3594V51.5V53.1094H28.9688H30.5781V51.5H28.9688V49.8906Z" fill="#EDEFF2"/>
<path d="M64.375 45.0625V43.4531V41.8438H65.9844H67.5938H69.2031V40.2344H67.5938V38.625V37.0156H65.9844H64.375V38.625V40.2344H62.7656V41.8438V43.4531H61.1562V45.0625H62.7656H64.375Z" fill="#EDEFF2"/>
<path d="M75.6406 51.5H74.0312V53.1094H75.6406H77.25V51.5H75.6406Z" fill="#EDEFF2"/>
<path d="M64.375 48.2812V49.8906V51.5H65.9844H67.5938V49.8906V48.2812V46.6719H69.2031V45.0625V43.4531H67.5938V45.0625H65.9844V46.6719H64.375H62.7656H61.1562V48.2812H62.7656H64.375Z" fill="#EDEFF2"/>
<path d="M56.3281 51.5V49.8906V48.2812H54.7188H53.1094H51.5H49.8906H48.2812V49.8906H46.6719V51.5V53.1094H48.2812H49.8906H51.5V51.5H53.1094H54.7188H56.3281Z" fill="#EDEFF2"/>
<path d="M75.6406 46.6719V45.0625H74.0312H72.4219V46.6719H74.0312H75.6406Z" fill="#EDEFF2"/>
<path d="M49.8906 40.2344H51.5H53.1094V41.8438V43.4531H54.7188V41.8438V40.2344H56.3281V38.625V37.0156H54.7188H53.1094H51.5H49.8906H48.2812V38.625H46.6719V40.2344H48.2812H49.8906Z" fill="#EDEFF2"/>
<path d="M40.2344 37.0156H38.625H37.0156V38.625V40.2344H38.625V38.625H40.2344H41.8438V40.2344H43.4531V38.625V37.0156H41.8438H40.2344Z" fill="#EDEFF2"/>
<path d="M57.9375 56.3281V54.7188H56.3281H54.7188V56.3281H56.3281H57.9375Z" fill="#EDEFF2"/>
<path d="M56.3281 64.375V62.7656V61.1562H54.7188V59.5469H53.1094H51.5H49.8906H48.2812H46.6719V61.1562V62.7656H48.2812H49.8906H51.5V64.375V65.9844H53.1094H54.7188H56.3281H57.9375H59.5469V64.375H57.9375H56.3281Z" fill="#EDEFF2"/>
<path d="M38.625 54.7188V56.3281H40.2344H41.8438V54.7188H40.2344H38.625Z" fill="#EDEFF2"/>
<path d="M38.625 57.9375H37.0156V56.3281H35.4062V54.7188H33.7969V56.3281V57.9375H35.4062V59.5469V61.1562V62.7656H37.0156H38.625V61.1562V59.5469H40.2344H41.8438V57.9375H40.2344H38.625Z" fill="#EDEFF2"/>
<path d="M69.2031 54.7188H67.5938H65.9844V56.3281H64.375V57.9375H62.7656H61.1562H59.5469V59.5469V61.1562V62.7656H61.1562V61.1562H62.7656H64.375V62.7656V64.375V65.9844H65.9844V64.375V62.7656V61.1562V59.5469H67.5938H69.2031H70.8125V57.9375H69.2031V56.3281H70.8125H72.4219V54.7188H70.8125H69.2031Z" fill="#EDEFF2"/>
<path d="M27.3594 56.3281V57.9375H28.9688H30.5781V56.3281H28.9688H27.3594Z" fill="#EDEFF2"/>
<path d="M77.25 54.7188H75.6406V56.3281H77.25V54.7188Z" fill="#EDEFF2"/>
<path d="M40.2344 41.8438V40.2344H38.625H37.0156V38.625V37.0156H35.4062V38.625H33.7969V40.2344V41.8438H35.4062V43.4531H37.0156V45.0625H38.625V43.4531H40.2344V41.8438Z" fill="#4E4066"/>
<path d="M40.2344 53.1094H41.8438H43.4531H45.0625H46.6719V51.5V49.8906H48.2812V48.2812V46.6719H46.6719V48.2812H45.0625H43.4531V49.8906V51.5H41.8438H40.2344V53.1094Z" fill="#4E4066"/>
<path d="M28.9688 48.2812H30.5781V49.8906V51.5V53.1094H32.1875H33.7969H35.4062H37.0156V51.5V49.8906V48.2812H35.4062H33.7969H32.1875V46.6719H33.7969V45.0625H32.1875H30.5781H28.9688H27.3594V46.6719H28.9688V48.2812Z" fill="#4E4066"/>
<path d="M69.2031 43.4531H70.8125V41.8438V40.2344H69.2031V41.8438H67.5938H65.9844V43.4531H67.5938H69.2031Z" fill="#4E4066"/>
<path d="M57.9375 41.8438V40.2344H56.3281H54.7188V41.8438H56.3281H57.9375Z" fill="#4E4066"/>
<path d="M75.6406 48.2812V46.6719H74.0312H72.4219H70.8125H69.2031V48.2812H67.5938V49.8906H69.2031H70.8125H72.4219H74.0312V48.2812H75.6406Z" fill="#4E4066"/>
<path d="M75.6406 49.8906H74.0312V51.5H75.6406H77.25V49.8906H75.6406Z" fill="#4E4066"/>
<path d="M75.6406 43.4531H74.0312V45.0625H75.6406V43.4531Z" fill="#4E4066"/>
<path d="M61.1562 49.8906V48.2812H59.5469V46.6719V45.0625V43.4531H57.9375H56.3281H54.7188H53.1094V41.8438V40.2344H51.5H49.8906H48.2812H46.6719V38.625H48.2812V37.0156H46.6719H45.0625H43.4531V38.625V40.2344H41.8438V41.8438H43.4531V43.4531H45.0625H46.6719V41.8438H48.2812H49.8906V43.4531V45.0625H51.5H53.1094V46.6719V48.2812H54.7188H56.3281H57.9375V49.8906V51.5H56.3281H54.7188H53.1094H51.5V53.1094H53.1094H54.7188H56.3281H57.9375H59.5469H61.1562H62.7656V51.5H61.1562V49.8906Z" fill="#4E4066"/>
<path d="M70.8125 51.5H69.2031H67.5938H65.9844H64.375V53.1094H65.9844H67.5938H69.2031H70.8125H72.4219H74.0312V51.5H72.4219H70.8125Z" fill="#4E4066"/>
<path d="M30.5781 41.8438H28.9688V43.4531H30.5781H32.1875H33.7969V41.8438H32.1875H30.5781Z" fill="#4E4066"/>
<path d="M74.0312 41.8438H72.4219V43.4531H74.0312V41.8438Z" fill="#4E4066"/>
<path d="M27.3594 51.5V49.8906V48.2812H25.75V49.8906V51.5V53.1094H27.3594V51.5Z" fill="#4E4066"/>
<path d="M61.1562 40.2344V38.625V37.0156H59.5469H57.9375V38.625V40.2344H59.5469H61.1562Z" fill="#4E4066"/>
<path d="M65.9844 54.7188H64.375V56.3281H65.9844V54.7188Z" fill="#4E4066"/>
<path d="M49.8906 54.7188H48.2812H46.6719H45.0625H43.4531V56.3281V57.9375V59.5469H41.8438V61.1562V62.7656H40.2344V64.375V65.9844H41.8438V64.375H43.4531H45.0625V65.9844H46.6719H48.2812H49.8906H51.5V64.375V62.7656H49.8906H48.2812H46.6719H45.0625V61.1562V59.5469H46.6719H48.2812H49.8906V57.9375V56.3281H51.5H53.1094V54.7188H51.5H49.8906Z" fill="#4E4066"/>
<path d="M59.5469 62.7656V61.1562V59.5469H57.9375H56.3281V57.9375H54.7188V59.5469V61.1562H56.3281V62.7656V64.375H57.9375H59.5469V65.9844H61.1562H62.7656V64.375V62.7656H61.1562H59.5469Z" fill="#4E4066"/>
<path d="M28.9688 56.3281V54.7188H27.3594H25.75V56.3281H27.3594H28.9688Z" fill="#4E4066"/>
<path d="M33.7969 61.1562H35.4062V59.5469H33.7969V57.9375H32.1875H30.5781H28.9688H27.3594V59.5469H28.9688V61.1562H30.5781H32.1875H33.7969Z" fill="#4E4066"/>
<path d="M35.4062 62.7656H33.7969H32.1875V64.375H33.7969H35.4062H37.0156V65.9844H38.625V64.375V62.7656H37.0156H35.4062Z" fill="#4E4066"/>
<path d="M72.4219 56.3281H70.8125H69.2031V57.9375H70.8125V59.5469H69.2031H67.5938H65.9844V61.1562V62.7656V64.375H67.5938H69.2031H70.8125V62.7656H72.4219V61.1562V59.5469H74.0312V57.9375H75.6406V56.3281H74.0312H72.4219Z" fill="#4E4066"/>
</svg>
