<svg width="103" height="103" viewBox="0 0 103 103" fill="none" xmlns="http://www.w3.org/2000/svg">
<path d="M86.9062 6.4375H85.2969V4.82812V3.21875H83.6875H82.0781V4.82812V6.4375H80.4688H78.8594V4.82812V3.21875H77.25H75.6406V4.82812V6.4375H74.0312H72.4219V4.82812V3.21875H70.8125H69.2031V4.82812V6.4375H67.5938H65.9844V4.82812V3.21875H64.375H62.7656V4.82812V6.4375H61.1562H59.5469V4.82812V3.21875H57.9375H56.3281V4.82812V6.4375H54.7188H53.1094V4.82812V3.21875H51.5H49.8906V4.82812V6.4375H48.2812H46.6719V4.82812V3.21875H45.0625H43.4531V4.82812V6.4375H41.8438H40.2344V4.82812V3.21875H38.625H37.0156V4.82812V6.4375H35.4062H33.7969V4.82812V3.21875H32.1875H30.5781V4.82812V6.4375H28.9688H27.3594V4.82812V3.21875H25.75H24.1406V4.82812V6.4375H22.5312H20.9219V4.82812V3.21875H19.3125H17.7031V4.82812V6.4375H16.0938H14.4844V8.04688V9.65625V11.2656V12.875V14.4844V16.0938V17.7031V19.3125V20.9219V22.5312V24.1406V25.75V27.3594V28.9688V30.5781V32.1875V33.7969V35.4062V37.0156V38.625V40.2344V41.8438V43.4531V45.0625V46.6719V48.2812V49.8906V51.5V53.1094V54.7188V56.3281V57.9375V59.5469V61.1562V62.7656V64.375V65.9844V67.5938V69.2031V70.8125V72.4219V74.0312V75.6406V77.25V78.8594V80.4688V82.0781V83.6875V85.2969V86.9062V88.5156V90.125V91.7344V93.3438V94.9531V96.5625V98.1719V99.7812H16.0938H17.7031V98.1719V96.5625H19.3125H20.9219V98.1719V99.7812H22.5312H24.1406V98.1719V96.5625H25.75H27.3594V98.1719V99.7812H28.9688H30.5781V98.1719V96.5625H32.1875H33.7969V98.1719V99.7812H35.4062H37.0156V98.1719V96.5625H38.625H40.2344V98.1719V99.7812H41.8438H43.4531V98.1719V96.5625H45.0625H46.6719V98.1719V99.7812H48.2812H49.8906V98.1719V96.5625H51.5H53.1094V98.1719V99.7812H54.7188H56.3281V98.1719V96.5625H57.9375H59.5469V98.1719V99.7812H61.1562H62.7656V98.1719V96.5625H64.375H65.9844V98.1719V99.7812H67.5938H69.2031V98.1719V96.5625H70.8125H72.4219V98.1719V99.7812H74.0312H75.6406V98.1719V96.5625H77.25H78.8594V98.1719V99.7812H80.4688H82.0781V98.1719V96.5625H83.6875H85.2969V98.1719V99.7812H86.9062H88.5156V98.1719V96.5625V94.9531V93.3438V91.7344V90.125V88.5156V86.9062V85.2969V83.6875V82.0781V80.4688V78.8594V77.25V75.6406V74.0312V72.4219V70.8125V69.2031V67.5938V65.9844V64.375V62.7656V61.1562V59.5469V57.9375V56.3281V54.7188V53.1094V51.5V49.8906V48.2812V46.6719V45.0625V43.4531V41.8438V40.2344V38.625V37.0156V35.4062V33.7969V32.1875V30.5781V28.9688V27.3594V25.75V24.1406V22.5312V20.9219V19.3125V17.7031V16.0938V14.4844V12.875V11.2656V9.65625V8.04688V6.4375H86.9062Z" fill="#8064FF"/>
<path d="M77.25 77.25H75.6406H74.0312H72.4219H70.8125H69.2031H67.5938H65.9844H64.375H62.7656H61.1562H59.5469H57.9375H56.3281H54.7188H53.1094H51.5H49.8906H48.2812H46.6719H45.0625H43.4531H41.8438H40.2344H38.625H37.0156H35.4062H33.7969H32.1875H30.5781H28.9688H27.3594H25.75H24.1406H22.5312V78.8594V80.4688V82.0781V83.6875V85.2969V86.9062V88.5156H24.1406V90.125H25.75H27.3594H28.9688H30.5781H32.1875H33.7969H35.4062H37.0156H38.625H40.2344H41.8438H43.4531H45.0625H46.6719H48.2812H49.8906H51.5H53.1094H54.7188H56.3281H57.9375H59.5469H61.1562H62.7656H64.375H65.9844H67.5938H69.2031H70.8125H72.4219H74.0312H75.6406H77.25H78.8594V88.5156H80.4688V86.9062V85.2969V83.6875V82.0781V80.4688V78.8594V77.25H78.8594H77.25Z" fill="white"/>
<path d="M78.8594 14.4844V12.875H77.25H75.6406H74.0312H72.4219H70.8125H69.2031H67.5938H65.9844H64.375H62.7656H61.1562H59.5469H57.9375H56.3281H54.7188H53.1094H51.5H49.8906H48.2812H46.6719H45.0625H43.4531H41.8438H40.2344H38.625H37.0156H35.4062H33.7969H32.1875H30.5781H28.9688H27.3594H25.75H24.1406V14.4844H22.5312V16.0938V17.7031V19.3125V20.9219V22.5312V24.1406V25.75H24.1406H25.75H27.3594H28.9688H30.5781H32.1875H33.7969H35.4062H37.0156H38.625H40.2344H41.8438H43.4531H45.0625H46.6719H48.2812H49.8906H51.5H53.1094H54.7188H56.3281H57.9375H59.5469H61.1562H62.7656H64.375H65.9844H67.5938H69.2031H70.8125H72.4219H74.0312H75.6406H77.25H78.8594H80.4688V24.1406V22.5312V20.9219V19.3125V17.7031V16.0938V14.4844H78.8594Z" fill="white"/>
<path d="M77.25 27.3594H75.6406H74.0312H72.4219H70.8125H69.2031H67.5938H65.9844H64.375H62.7656H61.1562H59.5469H57.9375H56.3281H54.7188H53.1094H51.5H49.8906H48.2812H46.6719H45.0625H43.4531H41.8438H40.2344H38.625H37.0156H35.4062H33.7969H32.1875H30.5781H28.9688H27.3594H25.75H24.1406H22.5312V28.9688V30.5781V32.1875V33.7969V35.4062V37.0156V38.625V40.2344V41.8438V43.4531V45.0625V46.6719V48.2812V49.8906V51.5V53.1094V54.7188V56.3281V57.9375V59.5469V61.1562V62.7656V64.375V65.9844V67.5938V69.2031V70.8125V72.4219V74.0312V75.6406H24.1406H25.75H27.3594H28.9688H30.5781H32.1875H33.7969H35.4062H37.0156H38.625H40.2344H41.8438H43.4531H45.0625H46.6719H48.2812H49.8906H51.5H53.1094H54.7188H56.3281H57.9375H59.5469H61.1562H62.7656H64.375H65.9844H67.5938H69.2031H70.8125H72.4219H74.0312H75.6406H77.25H78.8594H80.4688V74.0312V72.4219V70.8125V69.2031V67.5938V65.9844V64.375V62.7656V61.1562V59.5469V57.9375V56.3281V54.7188V53.1094V51.5V49.8906V48.2812V46.6719V45.0625V43.4531V41.8438V40.2344V38.625V37.0156V35.4062V33.7969V32.1875V30.5781V28.9688V27.3594H78.8594H77.25Z" fill="white"/>
<path d="M80.4688 12.875H78.8594V14.4844H80.4688V12.875Z" fill="#5D24BF"/>
<path d="M80.4688 88.5156H78.8594V90.125H80.4688V88.5156Z" fill="#5D24BF"/>
<path d="M80.4688 14.4844V16.0938V17.7031V19.3125V20.9219V22.5312V24.1406V25.75H78.8594H77.25H75.6406H74.0312H72.4219H70.8125H69.2031H67.5938H65.9844H64.375H62.7656H61.1562H59.5469H57.9375H56.3281H54.7188H53.1094H51.5H49.8906H48.2812H46.6719H45.0625H43.4531H41.8438H40.2344H38.625H37.0156H35.4062H33.7969H32.1875H30.5781H28.9688H27.3594H25.75H24.1406H22.5312V24.1406V22.5312V20.9219V19.3125V17.7031V16.0938V14.4844H20.9219V16.0938V17.7031V19.3125V20.9219V22.5312V24.1406V25.75V27.3594V28.9688V30.5781V32.1875V33.7969V35.4062V37.0156V38.625V40.2344V41.8438V43.4531V45.0625V46.6719V48.2812V49.8906V51.5V53.1094V54.7188V56.3281V57.9375V59.5469V61.1562V62.7656V64.375V65.9844V67.5938V69.2031V70.8125V72.4219V74.0312V75.6406V77.25V78.8594V80.4688V82.0781V83.6875V85.2969V86.9062V88.5156H22.5312V86.9062V85.2969V83.6875V82.0781V80.4688V78.8594V77.25H24.1406H25.75H27.3594H28.9688H30.5781H32.1875H33.7969H35.4062H37.0156H38.625H40.2344H41.8438H43.4531H45.0625H46.6719H48.2812H49.8906H51.5H53.1094H54.7188H56.3281H57.9375H59.5469H61.1562H62.7656H64.375H65.9844H67.5938H69.2031H70.8125H72.4219H74.0312H75.6406H77.25H78.8594H80.4688V78.8594V80.4688V82.0781V83.6875V85.2969V86.9062V88.5156H82.0781V86.9062V85.2969V83.6875V82.0781V80.4688V78.8594V77.25V75.6406V74.0312V72.4219V70.8125V69.2031V67.5938V65.9844V64.375V62.7656V61.1562V59.5469V57.9375V56.3281V54.7188V53.1094V51.5V49.8906V48.2812V46.6719V45.0625V43.4531V41.8438V40.2344V38.625V37.0156V35.4062V33.7969V32.1875V30.5781V28.9688V27.3594V25.75V24.1406V22.5312V20.9219V19.3125V17.7031V16.0938V14.4844H80.4688ZM80.4688 28.9688V30.5781V32.1875V33.7969V35.4062V37.0156V38.625V40.2344V41.8438V43.4531V45.0625V46.6719V48.2812V49.8906V51.5V53.1094V54.7188V56.3281V57.9375V59.5469V61.1562V62.7656V64.375V65.9844V67.5938V69.2031V70.8125V72.4219V74.0312V75.6406H78.8594H77.25H75.6406H74.0312H72.4219H70.8125H69.2031H67.5938H65.9844H64.375H62.7656H61.1562H59.5469H57.9375H56.3281H54.7188H53.1094H51.5H49.8906H48.2812H46.6719H45.0625H43.4531H41.8438H40.2344H38.625H37.0156H35.4062H33.7969H32.1875H30.5781H28.9688H27.3594H25.75H24.1406H22.5312V74.0312V72.4219V70.8125V69.2031V67.5938V65.9844V64.375V62.7656V61.1562V59.5469V57.9375V56.3281V54.7188V53.1094V51.5V49.8906V48.2812V46.6719V45.0625V43.4531V41.8438V40.2344V38.625V37.0156V35.4062V33.7969V32.1875V30.5781V28.9688V27.3594H24.1406H25.75H27.3594H28.9688H30.5781H32.1875H33.7969H35.4062H37.0156H38.625H40.2344H41.8438H43.4531H45.0625H46.6719H48.2812H49.8906H51.5H53.1094H54.7188H56.3281H57.9375H59.5469H61.1562H62.7656H64.375H65.9844H67.5938H69.2031H70.8125H72.4219H74.0312H75.6406H77.25H78.8594H80.4688V28.9688Z" fill="#5D24BF"/>
<path d="M27.3594 12.875H28.9688H30.5781H32.1875H33.7969H35.4062H37.0156H38.625H40.2344H41.8438H43.4531H45.0625H46.6719H48.2812H49.8906H51.5H53.1094H54.7188H56.3281H57.9375H59.5469H61.1562H62.7656H64.375H65.9844H67.5938H69.2031H70.8125H72.4219H74.0312H75.6406H77.25H78.8594V11.2656H77.25H75.6406H74.0312H72.4219H70.8125H69.2031H67.5938H65.9844H64.375H62.7656H61.1562H59.5469H57.9375H56.3281H54.7188H53.1094H51.5H49.8906H48.2812H46.6719H45.0625H43.4531H41.8438H40.2344H38.625H37.0156H35.4062H33.7969H32.1875H30.5781H28.9688H27.3594H25.75H24.1406V12.875H25.75H27.3594Z" fill="#5D24BF"/>
<path d="M24.1406 12.875H22.5312V14.4844H24.1406V12.875Z" fill="#5D24BF"/>
<path d="M24.1406 88.5156H22.5312V90.125H24.1406V88.5156Z" fill="#5D24BF"/>
<path d="M75.6406 90.125H74.0312H72.4219H70.8125H69.2031H67.5938H65.9844H64.375H62.7656H61.1562H59.5469H57.9375H56.3281H54.7188H53.1094H51.5H49.8906H48.2812H46.6719H45.0625H43.4531H41.8438H40.2344H38.625H37.0156H35.4062H33.7969H32.1875H30.5781H28.9688H27.3594H25.75H24.1406V91.7344H25.75H27.3594H28.9688H30.5781H32.1875H33.7969H35.4062H37.0156H38.625H40.2344H41.8438H43.4531H45.0625H46.6719H48.2812H49.8906H51.5H53.1094H54.7188H56.3281H57.9375H59.5469H61.1562H62.7656H64.375H65.9844H67.5938H69.2031H70.8125H72.4219H74.0312H75.6406H77.25H78.8594V90.125H77.25H75.6406Z" fill="#5D24BF"/>
<path d="M50.3735 11.2656H49.5688V12.0703H50.3735V11.2656Z" fill="white"/>
<path d="M51.0172 10.4609H50.2125V11.2656H51.0172V10.4609Z" fill="white"/>
<path d="M52.6266 9.65625H51.8219V10.4609H52.6266V9.65625Z" fill="#B135FF"/>
<path d="M52.7875 10.4609V11.2656H51.8219V12.0703H51.1781H50.2125V12.875H49.5688H48.6031V13.6797H49.5688H50.2125H51.1781H51.8219V12.875H52.7875V12.0703H53.4313V11.2656V10.4609H52.7875Z" fill="#B135FF"/>
<path d="M48.7641 12.0703H47.9594V12.875H48.7641V12.0703Z" fill="#B135FF"/>
<path d="M48.7641 11.2656H47.9594V12.0703H48.7641V11.2656Z" fill="#CB5BFF"/>
<path d="M49.4078 12.0703H48.6031V12.875H49.4078V12.0703Z" fill="#CB5BFF"/>
<path d="M51.9828 9.65625H51.1782V10.4609H51.9828V9.65625Z" fill="#CB5BFF"/>
<path d="M52.6266 10.4609H51.8219V11.2656H52.6266V10.4609Z" fill="#CB5BFF"/>
<path d="M54.236 10.4609H53.4313V11.2656H54.236V10.4609Z" fill="#CB5BFF"/>
<path d="M55.2016 11.2656H54.3969V12.0703H55.2016V11.2656Z" fill="#CB5BFF"/>
<path d="M50.2125 11.2656V12.0703H51.1781H51.8219V11.2656H51.1781H50.2125Z" fill="#CB5BFF"/>
<path d="M49.5688 13.6797H48.6031V14.4844H49.5688H50.2125V13.6797H49.5688Z" fill="#CB5BFF"/>
<path d="M50.2125 14.4844V15.2891H51.1781H51.8219V14.4844H51.1781H50.2125Z" fill="#CB5BFF"/>
<path d="M48.6031 10.4609V11.2656V12.0703H49.5688V11.2656H50.2125V10.4609H49.5688H48.6031Z" fill="#F37AFF"/>
<path d="M51.0172 9.65625H50.2125V10.4609H51.0172V9.65625Z" fill="#F37AFF"/>
<path d="M55.2016 12.0703H54.3969V12.875H55.2016V12.0703Z" fill="#F37AFF"/>
<path d="M52.6266 14.4844H51.8219V15.2891H52.6266V14.4844Z" fill="#F37AFF"/>
<path d="M53.5922 13.6797H52.7875V14.4844H53.5922V13.6797Z" fill="#F37AFF"/>
<path d="M51.9828 10.4609H51.1782V11.2656H51.9828V10.4609Z" fill="#FFC9FF"/>
<path d="M50.3735 12.0703H49.5688V12.875H50.3735V12.0703Z" fill="#FFC9FF"/>
<path d="M54.236 13.6797H53.4313V14.4844H54.236V13.6797Z" fill="#FFC9FF"/>
<path d="M55.2016 12.875H54.3969V13.6797H55.2016V12.875Z" fill="#FFC9FF"/>
<path d="M51.1782 15.2891V16.0938H51.8219H52.7875V15.2891H51.8219H51.1782Z" fill="#3A2B77"/>
<path d="M52.7875 14.4844V15.2891H53.4313H54.3969V14.4844H53.4313H52.7875Z" fill="#3A2B77"/>
<path d="M55.2016 13.6797H54.3969V14.4844H55.2016V13.6797Z" fill="#3A2B77"/>
<path d="M55.0406 12.0703V12.875V13.6797H56.0063V12.875V12.0703H55.0406Z" fill="#3A2B77"/>
<path d="M48.7641 13.6797H47.9594V14.4844H48.7641V13.6797Z" fill="#47289B"/>
<path d="M49.5688 14.4844H48.6031V15.2891H49.5688H50.2125V14.4844H49.5688Z" fill="#47289B"/>
<path d="M51.0172 15.2891H50.2125V16.0938H51.0172V15.2891Z" fill="#47289B"/>
<path d="M55.8453 11.2656H55.0406V12.0703H55.8453V11.2656Z" fill="#47289B"/>
<path d="M55.2016 10.4609H54.3969V11.2656H55.2016V10.4609Z" fill="#47289B"/>
<path d="M51.1782 13.6797V14.4844H51.8219H52.7875V13.6797H51.8219H51.1782Z" fill="#47289B"/>
<path d="M53.4313 12.875V13.6797H54.3969V12.875V12.0703H53.4313V12.875Z" fill="#47289B"/>
<path d="M48.7641 12.875H47.9594V13.6797H48.7641V12.875Z" fill="#6F16E2"/>
<path d="M54.236 11.2656H53.4313V12.0703H54.236V11.2656Z" fill="#6F16E2"/>
<path d="M52.7875 12.875H51.8219V13.6797H52.7875H53.4313V12.875V12.0703H52.7875V12.875Z" fill="#6F16E2"/>
<path d="M51.8219 8.85156H51.1781H50.2125V9.65625H51.1781H51.8219H52.7875V8.85156H51.8219Z" fill="#5D24BF"/>
<path d="M46.9938 12.0703V12.875V13.6797H47.9594V12.875V12.0703V11.2656H46.9938V12.0703Z" fill="#5D24BF"/>
<path d="M53.4313 9.65625H52.7875V10.4609H53.4313H54.3969V9.65625H53.4313Z" fill="#5D24BF"/>
<path d="M51.0172 13.6797H50.2125V14.4844H51.0172V13.6797Z" fill="#5D24BF"/>
<path d="M48.6031 9.65625V10.4609H49.5688H50.2125V9.65625H49.5688H48.6031Z" fill="#5D24BF"/>
<path d="M48.7641 10.4609H47.9594V11.2656H48.7641V10.4609Z" fill="#5D24BF"/>
<path d="M36.9537 18.6264V19.0584H37.3797V19.4844H36.9537V19.0584H36.5217V18.6264H36.9537ZM37.3797 19.0584V18.6264H37.8117V19.0584H37.3797ZM36.0957 16.4844H36.5217V18.6264H36.0957V16.4844ZM37.8117 16.4844H38.2377V18.6264H37.8117V16.4844ZM40.3781 16.4844V16.9104H39.0881V16.4844H40.3781ZM40.3781 16.9104H40.8041V19.4844H40.3781V18.2004H39.0881V19.4844H38.6621V16.9104H39.0881V17.7684H40.3781V16.9104ZM41.6545 19.0584H43.3705V19.4844H41.2285V16.4844H41.6545V19.0584ZM45.0789 16.9104H44.6529V19.0584H45.0789V19.4844H43.7949V19.0584H44.2209V16.9104H43.7949V16.4844H45.0789V16.9104ZM45.9319 16.9104V19.0584H47.2219V19.4844H45.5059V16.4844H47.2219V16.9104H45.9319ZM47.2219 16.9104H47.6479V19.0584H47.2219V16.9104ZM51.9311 16.9104H50.2151V17.7684H51.9311V18.2004H50.2151V19.4844H49.7891V16.4844H51.9311V16.9104ZM52.7815 19.4844V19.0584H54.0715V19.4844H52.7815ZM52.3555 16.9104H52.7815V19.0584H52.3555V16.9104ZM54.0715 16.4844V16.9104H52.7815V16.4844H54.0715ZM54.0715 16.9104H54.4975V19.0584H54.0715V16.9104ZM57.0639 17.7684H56.6379V16.9104H57.0639V17.7684ZM55.3479 17.7684H56.6379V18.2004H57.0639V19.4844H56.6379V18.2004H55.3479V19.4844H54.9219V16.4844H56.6379V16.9104H55.3479V17.7684ZM59.6311 19.4844V19.0584H60.9211V19.4844H59.6311ZM59.2051 16.9104H59.6311V19.0584H59.2051V16.9104ZM60.9211 16.4844V16.9104H59.6311V16.4844H60.9211ZM60.9211 16.9104H61.3471V19.0584H60.9211V16.9104ZM62.1975 17.3424H62.6295V17.7684H62.1975V19.4844H61.7715V16.4844H62.1975V17.3424ZM62.6295 17.7684H63.0555V18.2004H62.6295V17.7684ZM63.4875 16.4844H63.9135V19.4844H63.4875V18.6264H63.0555V18.2004H63.4875V16.4844ZM66.4799 16.9104H64.7639V17.7684H66.4799V18.2004H64.7639V19.0584H66.4799V19.4844H64.3379V16.4844H66.4799V16.9104Z" fill="#5D24BF"/>
<path d="M37.8049 79.676H38.2369V80.108H37.8049V82.25H37.3789V79.25H37.8049V79.676ZM38.2369 80.108H38.6629V80.534H38.2369V80.108ZM38.6629 80.966V80.534H39.0949V80.966H38.6629ZM39.0949 80.534V80.108H39.5209V80.534H39.0949ZM39.9529 79.25H40.3789V82.25H39.9529V80.108H39.5209V79.676H39.9529V79.25ZM41.2326 80.534H41.6646V80.966H41.2326V82.25H40.8066V79.25H41.2326V80.534ZM42.0906 80.108V80.534H41.6646V80.108H42.0906ZM42.5226 79.676V80.108H42.0906V79.676H42.5226ZM42.9486 79.25V79.676H42.5226V79.25H42.9486ZM42.0906 81.392H41.6646V80.966H42.0906V81.392ZM42.5226 81.824H42.0906V81.392H42.5226V81.824ZM42.9486 82.25H42.5226V81.824H42.9486V82.25ZM43.373 79.25H45.089V79.676H43.373V79.25ZM45.515 79.676V80.534H45.089V79.676H45.515ZM45.089 80.534V80.966H43.799V80.534H45.089ZM43.373 80.966H43.799V81.824H45.515V82.25H43.373V80.966ZM49.7983 82.25H48.0823V81.824H49.3723V80.534H49.7983V82.25ZM47.6562 79.676H48.0823V81.824H47.6562V79.676ZM49.7983 79.25V79.676H48.0823V79.25H49.7983ZM52.3647 80.534H51.9387V79.676H52.3647V80.534ZM50.6487 80.534H51.9387V80.966H52.3647V82.25H51.9387V80.966H50.6487V82.25H50.2227V79.25H51.9387V79.676H50.6487V80.534ZM54.9311 79.676H53.2151V80.534H54.9311V80.966H53.2151V81.824H54.9311V82.25H52.7891V79.25H54.9311V79.676ZM55.7815 80.108H56.2135V80.534H55.7815V82.25H55.3555V79.25H55.7815V80.108ZM56.2135 80.534H56.6395V80.966H56.2135V80.534ZM57.0715 79.25H57.4975V82.25H57.0715V81.392H56.6395V80.966H57.0715V79.25ZM59.6379 79.25V79.676H58.3479V79.25H59.6379ZM59.6379 79.676H60.0639V82.25H59.6379V80.966H58.3479V82.25H57.9219V79.676H58.3479V80.534H59.6379V79.676ZM60.9143 79.676V81.824H62.2043V82.25H60.4883V79.25H62.2043V79.676H60.9143ZM62.2043 79.676H62.6303V81.824H62.2043V79.676ZM65.1967 79.676H63.4807V80.534H65.1967V80.966H63.4807V81.824H65.1967V82.25H63.0547V79.25H65.1967V79.676Z" fill="#5D24BF"/>
<path d="M51.5 43.4531H49.8906V45.0625H51.5V43.4531Z" fill="#757575"/>
<path d="M53.1094 51.5V49.8906H51.5V48.2812V46.6719H49.8906V48.2812V49.8906H48.2812H46.6719V51.5H48.2812H49.8906V53.1094H48.2812H46.6719V54.7188H48.2812H49.8906V56.3281H51.5V54.7188H53.1094V53.1094H51.5V51.5H53.1094Z" fill="#558B2F"/>
<path d="M49.8906 48.2812V46.6719H48.2812V48.2812V49.8906H49.8906V48.2812Z" fill="#689F38"/>
<path d="M49.8906 53.1094V51.5H48.2812H46.6719V53.1094H48.2812H49.8906Z" fill="#689F38"/>
<path d="M49.8906 54.7188H48.2812V56.3281V57.9375H49.8906H51.5V56.3281H49.8906V54.7188Z" fill="#689F38"/>
<path d="M53.1094 51.5H51.5V53.1094H53.1094V51.5Z" fill="#689F38"/>
<path d="M51.5 46.6719V45.0625H49.8906H48.2812V46.6719H49.8906H51.5Z" fill="#33691E"/>
<path d="M48.2812 57.9375V59.5469H49.8906H51.5V57.9375H49.8906H48.2812Z" fill="#33691E"/>
<path d="M51.5 49.8906H53.1094V48.2812V46.6719H51.5V48.2812V49.8906Z" fill="#33691E"/>
<path d="M48.2812 48.2812V46.6719H46.6719V48.2812V49.8906H48.2812V48.2812Z" fill="#33691E"/>
<path d="M51.5 56.3281V57.9375H53.1094V56.3281V54.7188H51.5V56.3281Z" fill="#33691E"/>
<path d="M48.2812 54.7188H46.6719V56.3281V57.9375H48.2812V56.3281V54.7188Z" fill="#33691E"/>
<path d="M46.6719 51.5V49.8906H45.0625V51.5V53.1094V54.7188H46.6719V53.1094V51.5Z" fill="#33691E"/>
<path d="M53.1094 49.8906V51.5V53.1094V54.7188H54.7188V53.1094V51.5V49.8906H53.1094Z" fill="#33691E"/>
<path d="M56.3281 46.6719V45.0625H54.7188V43.4531H53.1094V41.8438H51.5H49.8906H48.2812H46.6719V43.4531H48.2812V45.0625H49.8906V43.4531H51.5V45.0625H53.1094V46.6719H54.7188V48.2812H56.3281V49.8906V51.5V53.1094H57.9375V51.5V49.8906V48.2812V46.6719H56.3281Z" fill="black"/>
</svg>
