<svg width="1330" height="1734" viewBox="0 0 1330 1734" fill="none" xmlns="http://www.w3.org/2000/svg">
<path d="M1271.6 57.8V0H1213.8V57.8H1156V0H1098.2V57.8H1040.4V0H982.6V57.8H924.8V0H867V57.8H809.2V0H751.4V57.8H693.6V0H635.8V57.8H578V0H520.2V57.8H462.4V0H404.6V57.8H346.8V0H289V57.8H231.2V0H173.4V57.8H115.6V0H57.8V57.8H0V1734H57.8V1676.2H115.6V1734H173.4V1676.2H231.2V1734H289V1676.2H346.8V1734H404.6V1676.2H462.4V1734H520.2V1676.2H578V1734H635.8V1676.2H693.6V1734H751.4V1676.2H809.2V1734H867V1676.2H924.8V1734H982.6V1676.2H1040.4V1734H1098.2V1676.2H1156V1734H1213.8V1676.2H1271.6V1734H1329.4V57.8H1271.6Z" fill="#FF96FF"/>
<path d="M1156 173.4H1184.9V202.3H1156V173.4ZM1156 1531.7H1184.9V1560.6H1156V1531.7Z" fill="#FF00FF"/>
<path d="M1184.9 202.3V404.6H144.5V202.3H115.6V1531.7H144.5V1329.4H1184.9V1531.7H1213.8V202.3H1184.9ZM1184.9 1300.5H144.5V433.5H1184.9V1300.5ZM1156 173.4V144.5H173.4V173.4H1156Z" fill="#FF00FF"/>
<path d="M144.5 173.4H173.4V202.3H144.5V173.4ZM144.5 1531.7H173.4V1560.6H144.5V1531.7Z" fill="#FF00FF"/>
<path d="M173.4 1560.6V1589.5H1156V1560.6H173.4Z" fill="#FF00FF"/>
<path d="M144.5 1329.4V1531.7H173.4V1560.6H1156V1531.7H1184.9V1329.4H144.5ZM1156 202.3V173.4H173.4V202.3H144.5V404.6H1184.9V202.3H1156ZM144.5 433.5V1300.5H1184.9V433.5H144.5Z" fill="white"/>
<path d="M673.3 101.1H687.7V115.5H673.3V101.1ZM658.9 187.8V216.7H673.3V173.3H658.9V187.8ZM673.3 144.5H687.7V158.9H673.3V144.5ZM630 144.5H644.4V158.9H630V144.5ZM601.1 130H615.5V144.4H601.1V130ZM644.4 101.1H658.8V115.5H644.4V101.1Z" fill="#FFC8FF"/>
<path d="M572.2 130H586.6V144.4H572.2V130ZM601.1 144.5H586.7V173.3H601.1V144.5Z" fill="#9A298B"/>
<path d="M615.5 173.3H601.1V202.2H615.5V173.3Z" fill="#9A298B"/>
<path d="M615.5 202.2H629.9V216.6H615.5V202.2ZM630 216.7H644.4V231.1H630V216.7Z" fill="#9A298B"/>
<path d="M644.4 231.1H658.8V245.5H644.4V231.1ZM716.6 144.5H731V158.9H716.6V144.5ZM702.2 173.3H716.6V187.7H702.2V173.3ZM673.3 216.7H687.7V231.1H673.3V216.7Z" fill="#9A298B"/>
<path d="M687.7 101.1H702.1V115.5H687.7V101.1ZM702.2 130H716.6V144.4H702.2V130ZM658.9 115.6H644.4V130H687.7V115.6H658.9ZM630 101.1H644.4V115.5H630V101.1ZM658.9 231.1V245.6H673.3V216.7H658.9V231.1Z" fill="#FF96FF"/>
<path d="M586.7 130H601.1V144.4H586.7V130ZM601.1 144.5H615.5V158.9H601.1V144.5ZM615.5 173.3H629.9V187.7H615.5V173.3ZM644.4 216.7H658.8V231.1H644.4V216.7Z" fill="#FF00BE"/>
<path d="M731.1 130H745.5V144.4H731.1V130ZM702.2 187.8H716.6V202.2H702.2V187.8ZM687.7 202.2H702.1V216.6H687.7V202.2ZM716.6 158.9H731V173.3H716.6V158.9ZM716.6 115.6H731V130H716.6V115.6ZM687.7 130H702.1V144.4H687.7V130ZM658.9 144.5H673.3V158.9H658.9V144.5ZM630 130H644.4V144.4H630V130Z" fill="#D700C1"/>
<path d="M601.1 115.6H615.5V130H601.1V115.6ZM630 158.9V144.5H615.5V173.3H630V202.2H644.4V216.7H658.9V158.9H630Z" fill="#D700C1"/>
<path d="M731.1 115.6H745.5V130H731.1V115.6ZM716.6 130H731V144.4H716.6V130Z" fill="#FF62FF"/>
<path d="M702.2 115.6H687.7V130H716.6V115.6H702.2ZM687.7 144.5H702.1V158.9H687.7V144.5Z" fill="#FF62FF"/>
<path d="M658.9 130H644.4V144.5H687.7V130H658.9Z" fill="#FF62FF"/>
<path d="M630 115.6H615.5V130H644.4V115.6H630ZM615.5 187.8H629.9V202.2H615.5V187.8ZM630 202.2H644.4V216.6H630V202.2ZM601.1 158.9H615.5V173.3H601.1V158.9Z" fill="#FF62FF"/>
<path d="M658.9 101.1H673.3V115.5H658.9V101.1ZM644.4 144.5H658.8V158.9H644.4V144.5ZM658.9 158.9H673.3V173.3H658.9V158.9ZM615.5 130H629.9V144.4H615.5V130ZM586.7 115.6H601.1V130H586.7V115.6Z" fill="white"/>
<path d="M658.9 245.6H673.3V260H658.9V245.6ZM745.5 130H759.9V144.4H745.5V130ZM731.1 158.9V173.3H745.5V144.5H731.1V158.9Z" fill="#870075"/>
<path d="M716.6 187.8V202.2H731.1V173.3H716.6V187.8Z" fill="#870075"/>
<path d="M702.2 202.2H716.6V216.6H702.2V202.2ZM687.7 216.7H702.1V231.1H687.7V216.7Z" fill="#870075"/>
<path d="M673.3 231.1H687.7V245.5H673.3V231.1Z" fill="#870075"/>
<path d="M586.7 101.1V115.6H630V101.1H586.7ZM572.2 115.6H586.6V130H572.2V115.6Z" fill="#FF00FF"/>
<path d="M702.2 158.9H673.3V216.7H687.7V202.2H702.2V173.3H716.6V144.5H702.2V158.9ZM630 86.7002V101.1H702.2V86.7002H630Z" fill="#FF00FF"/>
<path d="M702.2 101.1V115.6H745.5V101.1H702.2Z" fill="#FF00FF"/>
<path d="M745.5 115.6H759.9V130H745.5V115.6ZM239.4 292.5H250.4V347.8H239.4V292.5ZM261.6 347.8V359H272.6V370H261.6V359H250.4V347.8H261.6ZM272.6 359V347.8H283.8V359H272.6ZM283.8 292.5H294.8V347.8H283.8V292.5ZM354 303.5H365V370H354V336.8H320.7V370H309.7V303.5H320.7V325.7H354V303.5ZM354 292.5V303.5H320.7V292.5H354ZM435.2 359V370H379.9V292.5H390.9V359H435.2ZM472.2 303.5V359H483.2V370H450V359H461V303.5H450V292.5H483.2V303.5H472.2ZM509.1 303.5V359H542.4V370H498.1V292.5H542.4V303.5H509.1ZM542.5 303.5H553.5V359H542.5V303.5ZM627.6 303.5V325.7H671.9V336.9H627.6V370H616.6V292.5H671.9V303.5H627.6ZM686.8 303.5H697.8V359H686.8V303.5ZM731.1 292.5V303.5H697.8V292.5H731.1ZM697.8 370V359H731.1V370H697.8ZM731.1 303.5H742.1V359H731.1V303.5ZM768 325.7H801.3V336.9H812.3V370H801.3V336.8H768V370H757V292.5H801.3V303.5H768V325.7ZM812.3 325.7H801.3V303.5H812.3V325.7ZM875.4 303.5H886.4V359H875.4V303.5ZM919.7 292.5V303.5H886.4V292.5H919.7ZM886.4 370V359H919.7V370H886.4ZM919.7 303.5H930.7V359H919.7V303.5ZM956.6 314.7H967.8V325.7H956.6V370H945.6V292.5H956.6V314.7ZM967.8 325.7H978.8V336.9H967.8V325.7ZM989.9 292.5H1000.9V370H989.9V347.8H978.7V336.8H989.9V292.5ZM1026.8 303.5V325.7H1071.1V336.9H1026.8V359H1071.1V370H1015.8V292.5H1071.1V303.5H1026.8Z" fill="#FF00FF"/>
<path d="M802.2 792H827.2V842H802.2V792Z" fill="black"/>
<path d="M777.2 767H802.2V792H777.2V767ZM502.2 792H527.2V842H502.2V792Z" fill="black"/>
<path d="M527.2 842H552.2V867H527.2V842Z" fill="black"/>
<path d="M552.2 867H577.2V892H552.2V867Z" fill="black"/>
<path d="M577.2 892H602.2V917H577.2V892Z" fill="black"/>
<path d="M602.2 917H627.2V942H602.2V917Z" fill="black"/>
<path d="M627.2 942H652.2V967H627.2V942ZM527.2 767H552.2V792H527.2V767Z" fill="black"/>
<path d="M602.2 767V792H627.2V767H702.2V792H727.2V767H777.2V742H552.2V767H602.2Z" fill="black"/>
<path d="M727.2 792H752.2V817H727.2V792Z" fill="black"/>
<path d="M752.2 817H777.2V842H752.2V817ZM577.2 792H602.2V817H577.2V792Z" fill="black"/>
<path d="M552.2 817H577.2V842H552.2V817ZM652.2 967H677.2V992H652.2V967Z" fill="black"/>
<path d="M677.2 942H702.2V967H677.2V942Z" fill="black"/>
<path d="M702.2 917H727.2V942H702.2V917Z" fill="black"/>
<path d="M727.2 892H752.2V917H727.2V892Z" fill="black"/>
<path d="M752.2 867H777.2V892H752.2V867Z" fill="black"/>
<path d="M777.2 842H802.2V867H777.2V842Z" fill="black"/>
<path d="M777.2 792H802.2V817H777.2V792Z" fill="#00FFFF"/>
<path d="M752.2 767H777.2V792H752.2V767ZM577.2 842V867H602.2V892H627.2V917H652.2V942H677.2V917H702.2V892H727.2V867H752.2V842H577.2ZM677.2 767H702.2V792H677.2V767ZM627.2 767H652.2V792H627.2V767Z" fill="#00FFFF"/>
<path d="M702.2 792H727.2V817H702.2V792ZM602.2 792H627.2V817H602.2V792ZM552.2 767H577.2V792H552.2V767Z" fill="#00FFFF"/>
<path d="M527.2 792H552.2V817H527.2V792Z" fill="#00FFFF"/>
<path d="M652.2 942H677.2V967H652.2V942Z" fill="#46A7C0"/>
<path d="M677.2 917H702.2V942H677.2V917Z" fill="#46A7C0"/>
<path d="M702.2 892H727.2V917H702.2V892Z" fill="#46A7C0"/>
<path d="M727.2 867H752.2V892H727.2V867Z" fill="#46A7C0"/>
<path d="M752.2 842H777.2V867H752.2V842ZM627.2 917H652.2V942H627.2V917Z" fill="#46A7C0"/>
<path d="M602.2 892H627.2V917H602.2V892Z" fill="#46A7C0"/>
<path d="M577.2 867H602.2V892H577.2V867Z" fill="#46A7C0"/>
<path d="M552.2 842H577.2V867H552.2V842Z" fill="#46A7C0"/>
<path d="M777.2 817H802.2V842H777.2V817ZM527.2 817H552.2V842H527.2V817ZM727.2 767H752.2V792H727.2V767ZM702.2 817V792H677.2V767H652.2V792H627.2V817H577.2V842H752.2V817H702.2Z" fill="white"/>
<path d="M752.2 792H777.2V817H752.2V792ZM552.2 792H577.2V817H552.2V792Z" fill="white"/>
<path d="M577.2 767H602.2V792H577.2V767Z" fill="white"/>
<path d="M244.357 1419.22H254.725V1429.59H244.357V1481H234.133V1409H244.357V1419.22ZM254.725 1429.59H264.949V1439.82H254.725V1429.59ZM264.949 1450.18V1439.82H275.317V1450.18H264.949ZM275.317 1439.82V1429.59H285.541V1439.82H275.317ZM295.909 1409H306.133V1481H295.909V1429.59H285.541V1419.22H295.909V1409ZM326.622 1481V1470.78H357.582V1481H326.622ZM316.398 1409H326.622V1470.78H316.398V1409ZM357.582 1409H367.806V1470.78H357.582V1409ZM388.216 1419.22V1470.78H419.176V1481H377.992V1409H419.176V1419.22H388.216ZM419.176 1419.22H429.4V1470.78H419.176V1419.22ZM490.994 1481H449.81V1470.78H480.77V1439.82H490.994V1481ZM439.586 1419.22H449.81V1470.78H439.586V1419.22ZM490.994 1409V1419.22H449.81V1409H490.994ZM552.588 1419.22H511.404V1439.82H552.588V1450.18H511.404V1470.78H552.588V1481H501.18V1409H552.588V1419.22ZM572.997 1429.59H583.365V1439.82H572.997V1481H562.773V1409H572.997V1429.59ZM583.365 1439.82H593.589V1450.18H583.365V1439.82ZM603.957 1409H614.181V1481H603.957V1460.41H593.589V1450.18H603.957V1409ZM675.794 1419.22V1470.78H706.754V1481H665.57V1409H706.754V1419.22H675.794ZM706.754 1419.22H716.978V1470.78H706.754V1419.22ZM757.98 1419.22H747.756V1470.78H757.98V1481H727.164V1470.78H737.388V1419.22H727.164V1409H757.98V1419.22ZM809.411 1409V1419.22H778.451V1409H809.411ZM809.411 1419.22H819.635V1481H809.411V1450.18H778.451V1481H768.227V1419.22H778.451V1439.82H809.411V1419.22ZM840.044 1419.22H850.412V1429.59H840.044V1481H829.82V1409H840.044V1419.22ZM850.412 1429.59H860.636V1439.82H850.412V1429.59ZM860.636 1450.18V1439.82H871.004V1450.18H860.636ZM871.004 1439.82V1429.59H881.228V1439.82H871.004ZM891.596 1409H901.82V1481H891.596V1429.59H881.228V1419.22H891.596V1409ZM922.31 1481V1470.78H953.27V1481H922.31ZM912.086 1419.22H922.31V1470.78H912.086V1419.22ZM953.27 1409V1419.22H922.31V1409H953.27ZM953.27 1419.22H963.494V1470.78H953.27V1419.22ZM983.904 1429.59H994.272V1439.82H983.904V1481H973.68V1409H983.904V1429.59ZM994.272 1439.82H1004.5V1450.18H994.272V1439.82ZM1014.86 1409H1025.09V1481H1014.86V1460.41H1004.5V1450.18H1014.86V1409ZM1045.5 1419.22V1470.78H1076.46V1481H1035.27V1409H1076.46V1419.22H1045.5ZM1076.46 1419.22H1086.68V1470.78H1076.46V1419.22Z" fill="#FF00FF"/>
</svg>
