<svg width="139" height="128" viewBox="0 0 139 128" fill="none" xmlns="http://www.w3.org/2000/svg">
<path d="M127.816 22.0538V11.467H117.229V0.880188H85.4688V11.467H74.882V22.0538H64.2952V11.467H53.7084V0.880188H21.9479V11.467H11.3611V22.0538H0.774292V64.4011H11.3611V74.9879H21.9479V85.5747H32.5347V96.1615H43.1215V106.748H53.7084V117.335H64.2952V127.922H74.882V117.335H85.4688V106.748H96.0556V96.1615H106.642V85.5747H117.229V74.9879H127.816V64.4011H138.403V22.0538H127.816Z" fill="black"/>
<path d="M117.229 22.0538V11.467H85.4688V22.0538H74.882V32.6406H64.2952V22.0538H53.7083V11.467H21.9479V22.0538H11.3611V64.401H21.9479V74.9879H32.5347V85.5747H43.1215V96.1615H53.7083V106.748H64.2952V117.335H74.882V106.748H85.4688V96.1615H96.0556V85.5747H106.642V74.9879H117.229V64.401H127.816V22.0538H117.229Z" fill="#FA34F3"/>
<path d="M64.2952 106.748H74.882V117.335H64.2952V106.748Z" fill="#7E18F8"/>
<path d="M106.642 64.4011H21.9479V74.9879H32.5347V85.5747H106.642V74.9879H117.229V64.4011H106.642Z" fill="#AC15F9"/>
<path d="M117.229 43.2274H11.3611V64.401H127.816V43.2274H117.229Z" fill="#CF15F9"/>
<path d="M85.4688 85.5746H43.1216V96.1615H53.7084V106.748H85.4688V96.1615H96.0556V85.5746H85.4688Z" fill="#8F17F9"/>
<path d="M96.0556 64.4011H106.642V74.9879H96.0556V64.4011Z" fill="white"/>
<path d="M117.229 53.8143H106.642V64.4011H127.816V53.8143H117.229ZM96.0556 43.2274H85.4688V64.4011H96.0556V53.8143V43.2274ZM32.5347 43.2274H43.1215V53.8143H32.5347V43.2274Z" fill="white"/>
<path d="M11.3611 53.8142V64.4011H32.5347V53.8142H21.9479H11.3611ZM74.882 32.6406H85.4688V43.2274H74.882V32.6406Z" fill="white"/>
<path d="M53.7084 53.8143H43.1216V74.9879H53.7084V64.4011V53.8143ZM64.2952 53.8143V74.9879H74.882V43.2274H64.2952V53.8143Z" fill="white"/>
<path d="M53.7083 74.9879H64.2952V85.5747H53.7083V74.9879Z" fill="white"/>
</svg>
