<svg width="576" height="184" viewBox="0 0 576 184" fill="none" xmlns="http://www.w3.org/2000/svg">
<path d="M569.253 177.757H563.944H558.631V172.444H553.318H547.123H541.81V167.132H536.497H531.188H524.989V161.823H519.676H514.368H509.055V155.624H502.855H497.547H492.234V150.311H486.921H480.726H475.413V145.003H470.1H464.787V139.69H458.592H453.279V133.491H447.966H442.657V128.183H436.458H431.145V122.87H425.836V117.557H420.523V111.362H414.324V106.049H409.015V100.737H403.702V95.4282H398.389V89.2292H392.194V83.9164H386.881V78.6079H381.568V73.2951V67.0961H376.255V61.7877V56.4749H370.06V51.162V44.9673H364.747V39.6546H359.434V34.3418H354.126V29.029H347.926V22.8343H342.613V17.5215H337.305H331.992V12.2087H325.792H320.484V6.90018H315.171H309.858V0.701172H303.663H298.35H293.037H287.724H281.529H276.216H270.903H265.594V6.90018H259.395H254.082V12.2087H248.773H243.46V17.5215H237.261H231.952V22.8343H226.639V29.029H221.326V34.3418H215.131V39.6546H209.818V44.9673H204.505V51.162V56.4749H199.197V61.7877V67.0961H192.998V73.2951V78.6079H187.685V83.9164H182.376V89.2292H177.063V95.4282H170.864V100.737H165.555V106.049H160.242V111.362H154.929V117.557H148.734V122.87H143.421V128.183H138.108H132.795V133.491H126.6H121.287V139.69H115.974H110.665V145.003H104.466H99.1531V150.311H93.8444H88.5314H82.3322V155.624H77.0235H71.7105H66.3975V161.823H60.2025H54.8895H49.5766V167.132H44.2636H38.0686H32.7556V172.444H27.4427H22.1339H15.9347V177.757H10.6217H5.31302H0V183.952H5.31302H10.6217H15.9347H22.1339H27.4427H32.7556H38.0686H44.2636H49.5766H54.8895H60.2025H66.3975H71.7105H77.0235H82.3322H88.5314H93.8444H99.1531H104.466H110.665H115.974H121.287H126.6H132.795H138.108H143.421H148.734H154.929H160.242H165.555H170.864H177.063H182.376H187.685H192.998H199.197H204.505H209.818H215.131H221.326H226.639H231.952H237.261H243.46H248.773H254.082H259.395H265.594H270.903H276.216H281.529H287.724H293.037H298.35H303.663H309.858H315.171H320.484H325.792H331.992H337.305H342.613H347.926H354.126H359.434H364.747H370.06H376.255H381.568H386.881H392.194H398.389H403.702H409.015H414.324H420.523H425.836H431.145H436.458H442.657H447.966H453.279H458.592H464.787H470.1H475.413H480.726H486.921H492.234H497.547H502.855H509.055H514.368H519.676H524.989H531.188H536.497H541.81H547.123H553.318H558.631H563.944H569.253H575.452V177.757H569.253Z" fill="#7E18F8"/>
<path d="M132.792 128.17V133.478V139.677V144.99V150.299V155.611V161.81V167.119V172.432V177.744V183.939H138.105H143.418V177.744V172.432V167.119V161.81V155.611V150.299V144.99V139.677V133.478V128.17H138.105H132.792Z" fill="#6400C8"/>
<path d="M66.3975 155.629V161.824V167.136V172.449V177.758V183.957H71.7105H77.0234V177.758V172.449V167.136V161.824V155.629H71.7105H66.3975Z" fill="#6400C8"/>
<path d="M331.991 17.5088V22.8216V29.0162V34.329V39.6419V44.9504V51.1493V56.4621V61.7706V67.0834V73.2823V78.5909V83.9037V89.2165V95.4111V100.724V106.037V111.345V117.544V122.857V128.165V133.478V139.677V144.986V150.299V155.611V161.806V167.119V172.432V177.744V183.939H337.304H342.613V177.744V172.432V167.119V161.806V155.611V150.299V144.986V139.677V133.478V128.165V122.857V117.544V111.345V106.037V100.724V95.4111V89.2165V83.9037V78.5909V73.2823V67.0834V61.7706V56.4621V51.1493V44.9504V39.6419V34.329V29.0162V22.8216V17.5088H337.304H331.991Z" fill="#6400C8"/>
<path d="M231.952 17.5088V22.8216V29.0162V34.329V39.6419V44.9504V51.1493V56.4621V61.7706V67.0834V73.2823V78.5909V83.9037V89.2165V95.4111V100.724V106.037V111.345V117.544V122.857V128.165V133.478V139.677V144.986V150.299V155.611V161.806V167.119V172.432V177.744V183.939H237.26H243.46V177.744V172.432V167.119V161.806V155.611V150.299V144.986V139.677V133.478V128.165V122.857V117.544V111.345V106.037V100.724V95.4111V89.2165V83.9037V78.5909V73.2823V67.0834V61.7706V56.4621V51.1493V44.9504V39.6419V34.329V29.0162V22.8216V17.5088H237.26H231.952Z" fill="#6400C8"/>
<path d="M431.142 128.17V133.478V139.677V144.99V150.299V155.611V161.81V167.119V172.432V177.744V183.939H436.455H442.65V177.744V172.432V167.119V161.81V155.611V150.299V144.99V139.677V133.478V128.17H436.455H431.142Z" fill="#6400C8"/>
<path d="M502.854 155.629H497.541V161.824V167.136V172.449V177.758V183.957H502.854H509.053V177.758V172.449V167.136V161.824V155.629H502.854Z" fill="#6400C8"/>
<path d="M320.481 12.2087V6.90018H315.168H309.855V0.701172H303.66H298.347H293.034H287.721H281.526H276.213H270.9H265.591V6.90018H259.392H254.079V12.2087H248.771H243.458V17.5215V22.8342V29.0289V34.3418V39.6546V44.9673V51.162H248.771H254.079H259.392H265.591H270.9H276.213H281.526H287.721H293.034H298.347H303.66H309.855H315.168H320.481H325.79H331.989V44.9673V39.6546V34.3418V29.0289V22.8342V17.5215V12.2087H325.79H320.481Z" fill="#FA34F3"/>
<path d="M226.639 29.0287H221.326V34.3415H215.131V39.6543H209.818V44.967H204.505V51.1617H209.818H215.131H221.326H226.639H231.952V44.967V39.6543V34.3415V29.0287V22.834H226.639V29.0287Z" fill="#FA34F3"/>
<path d="M364.748 44.967V39.6543H359.435V34.3415H354.126V29.0287H347.927V22.834H342.614V29.0287V34.3415V39.6543V44.967V51.1617H347.927H354.126H359.435H364.748H370.061V44.967H364.748Z" fill="#FA34F3"/>
<path d="M381.569 78.5947V73.2863V67.0873H376.256V61.7745V56.466H370.061V51.1533H364.748H359.435H354.126H347.927H342.614V56.466V61.7745V67.0873V73.2863V78.5947V83.9075H347.927H354.126H359.435H364.748H370.061H376.256H381.569H386.882V78.5947H381.569Z" fill="#CF15F9"/>
<path d="M320.481 51.1533H315.168H309.855H303.66H298.347H293.034H287.721H281.526H276.213H270.9H265.591H259.392H254.079H248.771H243.458V56.466V61.7745V67.0873V73.2863V78.5947V83.9075H248.771H254.079H259.392H265.591H270.9H276.213H281.526H287.721H293.034H298.347H303.66H309.855H315.168H320.481H325.79H331.989V78.5947V73.2863V67.0873V61.7745V56.466V51.1533H325.79H320.481Z" fill="#CF15F9"/>
<path d="M221.325 51.1533H215.131H209.817H204.504V56.466H199.191V61.7745V67.0873H192.997V73.2863V78.5947H187.684V83.9075H192.997H199.191H204.504H209.817H215.131H221.325H226.638H231.951V78.5947V73.2863V67.0873V61.7745V56.466V51.1533H226.638H221.325Z" fill="#CF15F9"/>
<path d="M121.289 150.299H115.976H110.667H104.468H99.1546H93.8459H88.5329H82.3336V155.607H77.0249V161.806V167.119V172.428V177.74V183.939H82.3336H88.5329H93.8459H99.1546H104.468H110.667H115.976H121.289H126.602H132.797V177.74V172.428V167.119V161.806V155.607V150.299H126.602H121.289Z" fill="#7E18F8"/>
<path d="M54.8895 161.814H49.5765V167.127H44.2635H38.0686H32.7556V172.436H27.4426H22.1339H15.9347V177.749H10.6216H5.31302H0V183.948H5.31302H10.6216H15.9347H22.1339H27.4426H32.7556H38.0686H44.2635H49.5765H54.8895H60.2025H66.3974V177.749V172.436V167.127V161.814H60.2025H54.8895Z" fill="#7E18F8"/>
<path d="M420.524 150.299H414.325H409.016H403.703H398.39H392.195H386.882H381.569H376.256H370.061H364.748H359.435H354.126H347.927H342.614V155.607V161.806V167.119V172.428V177.74V183.939H347.927H354.126H359.435H364.748H370.061H376.256H381.569H386.882H392.195H398.39H403.703H409.016H414.325H420.524H425.837H431.146V177.74V172.428V167.119V161.806V155.607V150.299H425.837H420.524Z" fill="#7E18F8"/>
<path d="M492.233 150.299H486.92H480.725H475.412H470.099H464.786H458.591H453.278H447.965H442.656V155.607V161.806V167.119V172.428V177.74V183.939H447.965H453.278H458.591H464.786H470.099H475.412H480.725H486.92H492.233H497.546V177.74V172.428V167.119V161.806V155.607H492.233V150.299Z" fill="#7E18F8"/>
<path d="M569.254 177.749H563.945H558.632V172.436H553.319H547.124H541.811V167.127H536.498H531.19H524.99V161.814H519.677H514.369H509.056V167.127V172.436V177.749V183.948H514.369H519.677H524.99H531.19H536.498H541.811H547.124H553.319H558.632H563.945H569.254H575.453V177.749H569.254Z" fill="#7E18F8"/>
<path d="M320.481 150.299H315.168H309.855H303.66H298.347H293.034H287.721H281.526H276.213H270.9H265.591H259.392H254.079H248.771H243.458V155.607V161.806V167.119V172.428V177.74V183.939H248.771H254.079H259.392H265.591H270.9H276.213H281.526H287.721H293.034H298.347H303.66H309.855H315.168H320.481H325.79H331.989V177.74V172.428V167.119V161.806V155.607V150.299H325.79H320.481Z" fill="#7E18F8"/>
<path d="M221.328 150.299H215.133H209.82H204.507H199.194H192.999H187.686H182.373H177.064H170.865H165.552H160.243H154.93H148.731H143.422V155.607V161.806V167.119V172.428V177.74V183.939H148.731H154.93H160.243H165.552H170.865H177.064H182.373H187.686H192.999H199.194H204.507H209.82H215.133H221.328H226.641H231.954V177.74V172.428V167.119V161.806V155.607V150.299H226.641H221.328Z" fill="#7E18F8"/>
<path d="M121.289 133.495V139.69H115.976H110.667V145.003H104.468H99.1548V150.315H104.468H110.667H115.976H121.289H126.602H132.797V145.003V139.69V133.495H126.602H121.289Z" fill="#8F17F9"/>
<path d="M425.837 117.553H420.524H414.325H409.016H403.703H398.39H392.195H386.882H381.569H376.256H370.061H364.748H359.435H354.126H347.927H342.614V122.865V128.178V133.487V139.686V144.998V150.307H347.927H354.126H359.435H364.748H370.061H376.256H381.569H386.882H392.195H398.39H403.703H409.016H414.325H420.524H425.837H431.146V144.998V139.686V133.487V128.178V122.865H425.837V117.553Z" fill="#8F17F9"/>
<path d="M470.099 145.003H464.786V139.69H458.591H453.278V133.495H447.965H442.656V139.69V145.003V150.315H447.965H453.278H458.591H464.786H470.099H475.412V145.003H470.099Z" fill="#8F17F9"/>
<path d="M320.481 117.553H315.168H309.855H303.66H298.347H293.034H287.721H281.526H276.213H270.9H265.591H259.392H254.084H248.771H243.458V122.865V128.178V133.487V139.686V144.998V150.307H248.771H254.084H259.392H265.591H270.9H276.213H281.526H287.721H293.034H298.347H303.66H309.855H315.168H320.481H325.79H331.989V144.998V139.686V133.487V128.178V122.865V117.553H325.79H320.481Z" fill="#8F17F9"/>
<path d="M221.328 117.553H215.133H209.82H204.507H199.194H192.999H187.686H182.373H177.064H170.865H165.552H160.243H154.93H148.731V122.865H143.422V128.178V133.487V139.686V144.998V150.307H148.731H154.93H160.243H165.552H170.865H177.064H182.373H187.686H192.999H199.194H204.507H209.82H215.133H221.328H226.641H231.954V144.998V139.686V133.487V128.178V122.865V117.553H226.641H221.328Z" fill="#8F17F9"/>
<path d="M414.325 111.349V106.036H409.012V100.724H403.703V95.4108H398.39V89.2161H392.195V83.9033H386.882H381.569H376.256H370.061H364.748H359.435H354.126H347.927H342.614V89.2161V95.4108V100.724V106.036V111.349V117.544H347.927H354.126H359.435H364.748H370.061H376.256H381.569H386.882H392.195H398.39H403.703H409.012H414.325H420.524V111.349H414.325Z" fill="#AC15F9"/>
<path d="M320.481 83.9033H315.168H309.855H303.66H298.347H293.034H287.721H281.526H276.213H270.9H265.591H259.392H254.079H248.771H243.458V89.2161V95.4108V100.724V106.036V111.349V117.544H248.771H254.079H259.392H265.591H270.9H276.213H281.526H287.721H293.034H298.347H303.66H309.855H315.168H320.481H325.79H331.989V111.349V106.036V100.724V95.4108V89.2161V83.9033H325.79H320.481Z" fill="#AC15F9"/>
<path d="M221.324 83.9033H215.129H209.816H204.503H199.194H192.995H187.682H182.373V89.2161H177.06V95.4108H170.861V100.724H165.552V106.036H160.239V111.349H154.926V117.544H160.239H165.552H170.861H177.06H182.373H187.682H192.995H199.194H204.503H209.816H215.129H221.324H226.637H231.95V111.349V106.036V100.724V95.4108V89.2161V83.9033H226.637H221.324Z" fill="#AC15F9"/>
</svg>
