<svg width="850" height="850" viewBox="0 0 850 850" fill="none" xmlns="http://www.w3.org/2000/svg">
<path d="M700 250V200H650V150H600V100H250V150H200V200H150V250H100V600H150V650H200V700H250V750H600V700H650V650H700V600H750V250H700ZM650 450H600V400H650V450ZM200 400H250V450H200V400ZM500 250V300H550V350H500V300H450V250H400V300H350V350H300V300H350V250H400V200H450V250H500ZM400 450V400H450V450H400ZM350 600V550H300V500H350V550H400V600H450V550H500V500H550V550H500V600H450V650H400V600H350Z" fill="#F3BA2D"/>
<path d="M600 400H650V450H600V400ZM500 300H550V350H500V300ZM500 500H550V550H500V500Z" fill="black"/>
<path d="M450 550H500V600H450V550ZM400 400H450V450H400V400ZM350 550H400V600H350V550Z" fill="black"/>
<path d="M300 500H350V550H300V500ZM400 200H450V250H400V200ZM200 100H250V150H200V100ZM600 100H650V150H600V100Z" fill="black"/>
<path d="M650 150H700V200H650V150Z" fill="black"/>
<path d="M700 200H750V250H700V200ZM150 150H200V200H150V150Z" fill="black"/>
<path d="M100 200H150V250H100V200Z" fill="black"/>
<path d="M100 500V250H50V600H100V550V500ZM750 250V600H800V250H750Z" fill="black"/>
<path d="M100 600H150V650H100V600Z" fill="black"/>
<path d="M150 650H200V700H150V650Z" fill="black"/>
<path d="M200 700H250V750H200V700ZM600 700H650V750H600V700Z" fill="black"/>
<path d="M650 650H700V700H650V650Z" fill="black"/>
<path d="M700 600H750V650H700V600ZM350 100H600V50H250V100H300H350ZM500 750H250V800H600V750H550H500ZM350 250H400V300H350V250Z" fill="black"/>
<path d="M300 300H350V350H300V300ZM200 400H250V450H200V400ZM400 600H450V650H400V600ZM450 250H500V300H450V250Z" fill="black"/>
</svg>
