<svg width="296" height="260" viewBox="0 0 296 260" fill="none" xmlns="http://www.w3.org/2000/svg">
<path d="M207.212 223.921H189.666H172.956H155.41H137.864H121.152V241.466H137.864H155.41H172.956H189.666H207.212H224.759V223.921H207.212Z" fill="#BA2CAC"/>
<path d="M52.6414 16.7095H35.0952V34.2551H52.6414V16.7095Z" fill="black"/>
<path d="M17.5464 0H0V17.5457H17.5464V0Z" fill="black"/>
<path d="M104.441 241.464H86.895V259.01H104.441V241.464Z" fill="black"/>
<path d="M86.8949 223.921H69.3486V241.466H86.8949V223.921Z" fill="black"/>
<path d="M259.016 241.464H241.469V259.01H259.016V241.464Z" fill="black"/>
<path d="M242.306 223.921H224.759V241.466H242.306V223.921Z" fill="black"/>
<path d="M276.564 51.7985H259.018H241.472H223.925H206.379H188.833H171.287H153.74H137.865H121.154H103.608H86.0614H68.5151V34.2529H50.9688V51.7985V69.3441V86.8897V104.435V121.981V139.527H68.5151V157.072V174.618H86.0614V189.656H103.608V172.11H121.154H137.865H155.412H172.958H190.504H208.05H225.597H243.143H260.689V154.565H243.143H225.597H208.05V137.019H225.597H243.143H260.689V154.565H278.234V137.019H295.781V119.473V101.928V84.3822V66.8366V49.2911H276.564V51.7985ZM69.3514 103.599H86.8977H104.443H121.154H137.865V121.145H121.154H103.608H86.0614H68.5151V103.599H69.3514ZM189.668 120.31H172.122H154.575V102.764H172.122H189.668V120.31ZM121.154 155.401H103.608H86.0614V137.855H103.608H121.154H137.865V155.401H121.154ZM189.668 155.401H172.122H154.575V137.855H172.122H189.668V155.401ZM276.564 120.31H259.018H241.472H223.925H206.379V102.764H223.925H241.472H259.018H276.564V120.31ZM276.564 86.0535H259.018H241.472H223.925H206.379H188.833H171.287H153.74H137.865H121.154H103.608H86.0614H68.5151V68.5078H86.0614H103.608H121.154H137.865H155.412H172.958H190.504H208.05H225.597H243.143H260.689H278.234V86.0535H276.564Z" fill="black"/>
<path d="M86.8949 189.653H69.3486V207.199H86.8949V189.653Z" fill="black"/>
<path d="M259.016 68.5044H241.469V86.05H259.016V68.5044Z" fill="#FF38EE"/>
<path d="M104.441 68.5044H86.895V86.05H104.441V68.5044Z" fill="#FF38EE"/>
<path d="M35.0937 0H17.5474V17.5457H35.0937V0Z" fill="#FF38EE"/>
<path d="M104.441 206.362H86.895V223.908H104.441V206.362Z" fill="#FF38EE"/>
<path d="M121.153 223.921H103.606V241.466H121.153V223.921Z" fill="#FF38EE"/>
<path d="M259.016 206.362H241.469V223.908H259.016V206.362Z" fill="#FF38EE"/>
<path d="M276.563 223.921H259.017V241.466H276.563V223.921Z" fill="#FF38EE"/>
<path d="M207.216 68.5044H189.669V86.05H207.216V68.5044Z" fill="#FF38EE"/>
<path d="M155.41 68.5044H137.864V86.05H155.41V68.5044Z" fill="#FF38EE"/>
</svg>
