<svg width="282" height="281" viewBox="0 0 282 281" fill="none" xmlns="http://www.w3.org/2000/svg">
<path d="M135.086 51.6935V61.6994H145.092V51.6935V41.6864H135.086V51.6935Z" fill="#91C5FF"/>
<path d="M208.468 41.6864H198.463V51.6935H208.468V41.6864Z" fill="#91C5FF"/>
<path d="M208.469 19.9976V30.0046V41.6779H218.474V30.0046V19.9976H208.469Z" fill="#91C5FF"/>
<path d="M196.802 51.6925H186.797V61.6984H196.802V51.6925Z" fill="#91C5FF"/>
<path d="M176.78 71.6906V83.3638H186.785V71.6906V61.6835H176.78V71.6906Z" fill="#91C5FF"/>
<path d="M135.086 61.6835H125.081V71.6906H135.086V61.6835Z" fill="#91C5FF"/>
<path d="M125.081 71.6896H115.076V81.6956H125.081V71.6896Z" fill="#91C5FF"/>
<path d="M113.414 83.3865H103.41V93.3924H113.414V83.3865Z" fill="#91C5FF"/>
<path d="M103.398 93.3785H93.3926V103.384H103.398V93.3785Z" fill="#91C5FF"/>
<path d="M31.6884 238.505H20.0215V250.178H31.6884H41.7056V238.505H31.6884Z" fill="#595651"/>
<path d="M93.4042 125.092H103.409H115.088H125.093V113.418H115.088H103.409H93.4042H83.399H73.394V125.092H83.399H93.4042Z" fill="#595651"/>
<path d="M196.802 113.418H186.797V123.424H196.802V113.418Z" fill="#595651"/>
<path d="M208.48 103.426H198.476V113.433H208.48V103.426Z" fill="#595651"/>
<path d="M208.48 145.099V135.093V125.088H198.476V135.093V145.099V155.105H208.48H218.486V145.099H208.48Z" fill="#595651"/>
<path d="M135.086 103.426H125.081V113.433H135.086V103.426Z" fill="#595651"/>
<path d="M145.092 93.4214H135.086V103.427H145.092V93.4214Z" fill="#595651"/>
<path d="M155.109 83.3865H145.103V93.3924H155.109V83.3865Z" fill="#595651"/>
<path d="M166.775 103.398H176.78V93.3924V83.3865H166.775V93.3924V103.398Z" fill="#595651"/>
<path d="M166.787 71.7325H156.782V81.7384H166.787V71.7325Z" fill="#595651"/>
<path d="M166.787 208.472H156.782V218.478H166.787V208.472Z" fill="#595651"/>
<path d="M135.086 218.493V228.499H145.092H156.77V218.493H145.092H135.086Z" fill="#595651"/>
<path d="M135.086 228.498H125.081V238.504H135.086V228.498Z" fill="#595651"/>
<path d="M103.41 238.505V250.178H115.076H125.081V238.505H115.076H103.41Z" fill="#595651"/>
<path d="M83.3875 250.159V260.165H93.3927H103.398V250.159H93.3927H83.3875Z" fill="#595651"/>
<path d="M61.716 260.194H51.699V270.199H61.716H73.3827H83.3877V260.194H73.3827H61.716Z" fill="#595651"/>
<path d="M51.6986 250.159H41.6938V260.165H51.6986V250.159Z" fill="#595651"/>
<path d="M166.775 196.804V208.477H176.78H186.785V196.804H176.78H166.775Z" fill="#595651"/>
<path d="M196.802 186.812H186.797V196.818H196.802V186.812Z" fill="#595651"/>
<path d="M218.474 186.812V196.818V208.491V218.498V228.504V238.51V250.183V260.189V270.195V280.201H228.479V270.195V260.189V250.183V238.51V228.504V218.498V208.491V196.818V186.812V176.806H218.474V186.812Z" fill="#595651"/>
<path d="M228.479 155.118H218.474V165.124H228.479V155.118Z" fill="#595651"/>
<path d="M198.476 176.778V186.784H208.48V176.778V166.772H198.476V176.778Z" fill="#595651"/>
<path d="M135.086 61.7264V71.7323H125.081V83.4056H115.076V93.4115H103.41V103.417H115.076H125.081V93.4115H135.086V83.4056H145.103V71.7323H156.77V61.7264H145.103H135.086Z" fill="#0078FF"/>
<path d="M240.157 93.3976V83.3917V71.7184H228.479V83.3917H218.474V93.3976H208.469V103.403H218.474H228.479V93.3976H240.157Z" fill="#0078FF"/>
<path d="M240.157 113.433H250.162V103.427V93.4214H240.157V103.427H228.479V113.433H218.474H208.469V125.106H218.474V135.112V145.119H228.479V135.112H240.157V125.106V113.433Z" fill="#0078FF"/>
<path d="M208.469 71.7229H218.474V61.717H228.479V51.7111V41.7052V30.0319H218.474V41.7052H208.469V51.7111H198.464V61.717H186.797V71.7229V83.3974V93.4033V103.409H198.464V93.4033H208.469V83.3974V71.7229Z" fill="#0078FF"/>
<path d="M250.174 218.465V208.459H240.157V218.465V228.47V238.477H250.174V228.47V218.465Z" fill="#0078FF"/>
<path d="M260.167 238.49H250.163V248.496H260.167V238.49Z" fill="#0078FF"/>
<path d="M260.179 166.792V155.119H250.174V145.113V135.107H240.157V145.113V155.119V166.792H250.174V176.798H260.179H270.184V166.792H260.179Z" fill="#0078FF"/>
<path d="M115.076 155.105H103.41V166.778H115.076V176.784H125.081V166.778V155.105H115.076Z" fill="#0029DC"/>
<path d="M103.41 155.105H93.4045V165.111H103.41V155.105Z" fill="white"/>
<path d="M113.414 166.772H103.41V176.778H113.414V166.772Z" fill="white"/>
<path d="M135.086 155.104H125.081V165.11H135.086V155.104Z" fill="white"/>
<path d="M166.775 218.464V228.47H156.77V238.476H145.103V250.151V260.156V270.162V280.168H156.77H166.775H176.792V270.162V260.156V250.151V238.476V228.47V218.464H166.775Z" fill="#D7D6D5"/>
<path d="M103.398 176.765H93.3926V186.771H103.398V176.765Z" fill="#C8C7C5"/>
<path d="M103.41 186.771V196.777H115.076H125.081V186.771H115.076H103.41Z" fill="#C8C7C5"/>
<path d="M125.081 145.085H135.086V135.079H125.081H115.076H103.41V145.085H115.076H125.081Z" fill="#C8C7C5"/>
<path d="M145.091 166.75H135.086V176.755H125.081V186.761H135.086H145.091V176.755H156.77V166.75V155.076H145.091V166.75Z" fill="#C8C7C5"/>
<path d="M186.785 208.459V218.465H176.78V228.471V238.477V250.15V260.156V270.163V280.169H186.785H198.464V270.163V260.156V250.15V238.477V228.471V218.465V208.459H186.785Z" fill="#C8C7C5"/>
<path d="M83.3875 238.49V250.163H93.3927H103.398V238.49H93.3927H83.3875Z" fill="#74716D"/>
<path d="M61.716 250.159H51.699V260.165H61.716H73.3827H83.3877V250.159H73.3827H61.716Z" fill="#74716D"/>
<path d="M198.464 176.775V166.77V155.096H186.797V145.089H198.464V135.083H186.797H176.792V125.077V113.404H166.775V103.398V93.3924V83.3865H156.77V93.3924H145.103V103.398H135.099V113.404H125.082V125.077H115.076H103.41H93.4047H83.3877H73.3828H61.7161V135.083V145.089V155.096V166.77V176.775H51.7109V186.781H41.706V196.787H31.689H20.0223V208.461H31.689V218.466H20.0223V208.461H10.0173V218.466V228.473H20.0223V238.479H31.689H41.706H51.7109H61.7161H73.3828H83.3877V228.473H93.4047H103.41V218.466H115.076V208.461H125.082V196.787H115.076H103.41V186.781H93.4047H83.3877V176.775V166.77V155.096H93.4047V145.089H103.41V135.083H115.076H125.082H135.099V145.089H145.103H156.77V155.096V166.77V176.775H145.103V186.781H135.099H125.082V196.787H135.099H145.103V208.461H135.099H125.082V218.466H115.076V228.473H103.41V238.479H115.076H125.082V228.473H135.099V218.466H145.103H156.77V208.461H166.775V196.787H176.792H186.797V186.781H198.464V176.775Z" fill="#74716D"/>
<path d="M208.468 186.77V196.776H198.463V208.449V218.456V228.462V238.468V250.141V260.147V270.153V280.159H208.468H218.474V270.153V260.147V250.141V238.468V228.462V218.456V208.449V196.776V186.77H208.468Z" fill="#74716D"/>
<path d="M10.005 208.459H0V218.465V228.471H10.005V218.465V208.459Z" fill="black"/>
<path d="M20.0219 196.805H10.0173V206.811H20.0219V196.805Z" fill="black"/>
<path d="M30.0269 208.459H20.0215V218.465H30.0269V208.459Z" fill="black"/>
<path d="M41.7056 196.776V186.77H31.6884H20.0215V196.776H31.6884H41.7056Z" fill="black"/>
<path d="M51.6986 176.764H41.6938V186.77H51.6986V176.764Z" fill="black"/>
<path d="M61.7162 166.763V155.09V145.084V135.078V125.073H51.699V135.078V145.084V155.09V166.763V176.769H61.7162V166.763Z" fill="black"/>
<path d="M71.7211 113.418H61.7161V123.424H71.7211V113.418Z" fill="black"/>
<path d="M93.3926 113.39H103.398H115.076H125.081V103.384H115.076H103.398H93.3926V93.3785H83.3875V103.384H73.3826V113.39H83.3875H93.3926Z" fill="black"/>
<path d="M135.086 93.3785H125.081V103.384H135.086V93.3785Z" fill="black"/>
<path d="M145.092 83.3865H135.086V93.3924H145.092V83.3865Z" fill="black"/>
<path d="M155.109 71.7184H145.103V81.7242H155.109V71.7184Z" fill="black"/>
<path d="M166.775 71.7036V83.3769H176.78V71.7036V61.6977H166.775H156.77V71.7036H166.775Z" fill="black"/>
<path d="M135.086 51.6826V41.6768H145.091V30.0034H135.086V19.9976H125.081V30.0034V41.6768V51.6826V61.6885H135.086V51.6826Z" fill="black"/>
<path d="M125.081 61.6977H115.076V71.7036H125.081V61.6977Z" fill="black"/>
<path d="M113.414 71.7184H103.41V81.7242H113.414V71.7184Z" fill="black"/>
<path d="M103.41 83.3865H93.4045V93.3924H103.41V83.3865Z" fill="black"/>
<path d="M145.103 61.6994H156.77V51.6935V41.6864H145.103V51.6935V61.6994Z" fill="black"/>
<path d="M186.785 113.404H198.463V103.398H186.785V93.3924V83.3865H176.78V93.3924V103.398H166.775V113.404H176.78V125.077V135.083H186.785H198.463V125.077H186.785V113.404Z" fill="black"/>
<path d="M208.468 113.418H198.463V123.424H208.468V113.418Z" fill="black"/>
<path d="M218.474 125.073H208.469V135.078V145.084H218.474V135.078V125.073Z" fill="black"/>
<path d="M208.468 186.77H198.463V196.776H208.468V186.77Z" fill="black"/>
<path d="M196.802 145.069H186.797V155.075H196.802V145.069Z" fill="black"/>
<path d="M240.157 166.764V155.091V145.085V135.079H228.478V145.085H218.474V155.091H228.478V166.764H218.474V155.091H208.468H198.463V166.764H208.468V176.77V186.776H218.474V176.77H228.478V186.776V196.782V208.456V218.462V228.468V238.474V250.147V260.153V270.159V280.165H240.157V270.159V260.153V250.147H250.162V238.474H240.157V228.468V218.462V208.456H250.162V196.782H240.157V186.776V176.77H250.162V166.764H240.157Z" fill="black"/>
<path d="M250.163 176.764V186.77H260.168H270.173V176.764H260.168H250.163Z" fill="black"/>
<path d="M270.173 145.069V155.075H260.167V166.749H270.173V176.755H281.851V166.749V155.075V145.069H270.173Z" fill="black"/>
<path d="M250.163 155.091H260.167V145.085V135.079H250.163V145.085V155.091Z" fill="black"/>
<path d="M218.474 113.39H228.479V103.384H218.474H208.469V113.39H218.474Z" fill="black"/>
<path d="M238.496 93.3785H228.49V103.384H238.496V93.3785Z" fill="black"/>
<path d="M240.157 93.3976H250.162V83.3917V71.7184H240.157V83.3917V93.3976Z" fill="black"/>
<path d="M250.163 113.39H260.167V103.384V93.3785H250.163V103.384V113.39Z" fill="black"/>
<path d="M240.157 125.092V135.098H250.162V125.092V113.418H240.157V125.092Z" fill="black"/>
<path d="M186.797 51.6925H176.78V61.6984H186.797V51.6925Z" fill="black"/>
<path d="M196.802 41.6864H186.797V51.6923H196.802V41.6864Z" fill="black"/>
<path d="M208.468 30.0188V20.0129H218.474V10.0058H208.468V0H198.463V10.0058V20.0129V30.0188V41.6921H208.468V30.0188Z" fill="black"/>
<path d="M228.479 19.9976H218.474V30.0034H228.479V19.9976Z" fill="black"/>
<path d="M228.479 51.7123V61.7182H218.474V71.724H208.469V83.3974V93.4032H218.474V83.3974H228.479V71.724H240.157V61.7182V51.7123V41.7052V30.0319H228.479V41.7052V51.7123Z" fill="black"/>
<path d="M208.468 93.3785H198.463V103.384H208.468V93.3785Z" fill="black"/>
<path d="M20.0219 228.456H10.0173V238.462V250.137H20.0219V238.462V228.456Z" fill="black"/>
<path d="M31.6884 250.145H20.0215V260.15H31.6884H41.7056V250.145H31.6884Z" fill="black"/>
<path d="M61.7157 250.163H73.3824H83.3873V238.49H73.3824H61.7157H51.6988H41.6938V250.163H51.6988H61.7157Z" fill="black"/>
<path d="M103.398 238.462V228.456H93.3927H83.3875V238.462H93.3927H103.398Z" fill="black"/>
<path d="M113.414 218.464H103.41V228.47H113.414V218.464Z" fill="black"/>
<path d="M125.081 208.459H115.076V218.465H125.081V208.459Z" fill="black"/>
<path d="M135.086 166.773H125.081V176.779H135.086V166.773Z" fill="black"/>
<path d="M103.41 176.764V186.77H115.076H125.081V176.764H115.076H103.41Z" fill="black"/>
<path d="M93.3927 166.778V155.105H83.3875V166.778V176.784V186.79H93.3927V176.784H103.398V166.778H93.3927Z" fill="black"/>
<path d="M135.098 145.069H125.081H115.076H103.41H93.4045V155.075H103.41H115.076H125.081H135.098V166.749H145.103V155.075H156.77V145.069H145.103H135.098Z" fill="black"/>
<path d="M145.091 208.478V196.805H135.086H125.081V208.478H135.086H145.091Z" fill="black"/>
<path d="M83.3875 260.151V270.156H93.3927H103.398V260.151H93.3927H83.3875Z" fill="black"/>
<path d="M103.41 250.145V260.15H115.076H125.081V250.145H115.076H103.41Z" fill="black"/>
<path d="M135.086 228.456V238.462H125.081V250.135H135.086V260.141V270.148V280.154H145.091V270.148V260.141V250.135V238.462H156.77V228.456H145.091H135.086Z" fill="black"/>
<path d="M250.163 250.163V260.169H260.168H270.173V250.163V238.49H260.168V250.163H250.163Z" fill="black"/>
<path d="M250.163 228.47V238.476H260.167V228.47V218.465V208.459H250.163V218.465V228.47Z" fill="black"/>
<path d="M166.775 208.459V218.465H176.78H186.785V208.459H176.78H166.775Z" fill="black"/>
<path d="M196.802 196.805H186.797V206.811H196.802V196.805Z" fill="black"/>
<path d="M166.775 218.464H156.77V228.47H166.775V218.464Z" fill="black"/>
<path d="M61.716 270.142H51.699V280.148H61.716H73.3827H83.3877V270.142H73.3827H61.716Z" fill="black"/>
<path d="M51.6986 260.151H41.6938V270.156H51.6986V260.151Z" fill="black"/>
</svg>
