<svg width="25" height="31" viewBox="0 0 25 31" fill="none" xmlns="http://www.w3.org/2000/svg">
<path d="M3.54688 15.7344V12.75V9.76562H0.5625V12.75V15.7344V18.7188V21.7031H3.54688V18.7188V15.7344Z" fill="#64438E"/>
<path d="M6.53125 6.78125H3.54688V9.76562H6.53125V6.78125Z" fill="#64438E"/>
<path d="M6.53125 21.7031H3.54688V24.6875H6.53125V21.7031Z" fill="#64438E"/>
<path d="M9.51562 24.6875H6.53125V27.6719H9.51562V24.6875Z" fill="#64438E"/>
<path d="M9.51562 27.6719V30.6562H12.5H15.4844V27.6719H12.5H9.51562Z" fill="#64438E"/>
<path d="M9.51562 3.79688H6.53125V6.78125H9.51562V3.79688Z" fill="#64438E"/>
<path d="M21.4531 21.7031H18.4688V24.6875H21.4531V21.7031Z" fill="#64438E"/>
<path d="M21.4531 6.78125H18.4688V9.76562H21.4531V6.78125Z" fill="#64438E"/>
<path d="M15.4844 3.79688V0.8125H12.5H9.51562V3.79688H12.5H15.4844Z" fill="#64438E"/>
<path d="M18.4688 24.6875H15.4844V27.6719H18.4688V24.6875Z" fill="#64438E"/>
<path d="M18.4688 3.79688H15.4844V6.78125H18.4688V3.79688Z" fill="#64438E"/>
<path d="M21.4531 9.76562V12.75V15.7344V18.7188V21.7031H24.4375V18.7188V15.7344V12.75V9.76562H21.4531Z" fill="#64438E"/>
<path d="M18.4688 15.7344H15.4844H12.5V18.7188V21.7031V24.6875V27.6719H15.4844V24.6875H18.4688V21.7031H21.4531V18.7188V15.7344H18.4688Z" fill="#C260FF"/>
<path d="M6.53125 15.7344H3.54688V18.7188V21.7031H6.53125V24.6875H9.51562V27.6719H12.5V24.6875V21.7031V18.7188V15.7344H9.51562H6.53125Z" fill="#DEA8FF"/>
<path d="M18.4688 9.76562V6.78125H15.4844V3.79688H12.5V6.78125V9.76562V12.75V15.7344H15.4844H18.4688H21.4531V12.75V9.76562H18.4688Z" fill="#DEA8FF"/>
<path d="M9.51562 15.7344H12.5V12.75V9.76562V6.78125V3.79688H9.51562V6.78125H6.53125V9.76562H3.54688V12.75V15.7344H6.53125H9.51562Z" fill="#EDD3FD"/>
</svg>
