<svg width="619" height="595" viewBox="0 0 619 595" fill="none" xmlns="http://www.w3.org/2000/svg">
<path d="M397.264 9.29455V0.945312H388.901H380.551H372.188H363.839H355.476H347.126H338.777H330.413H322.064H313.701H305.351H296.988H288.638H280.289H271.926H263.576H255.213H246.864H238.5H230.151H221.801H213.438H205.089H196.726H188.376V9.29455H180.013V17.6438V26.0066V34.3559V42.7187V51.0679V59.4307V67.78V76.1292H188.376V84.4921H196.726H205.089H213.438H221.801H230.151H238.5H246.864H255.213H263.576H271.926H280.289V92.8413H288.638V101.204H296.988V92.8413H305.351V84.4921H313.701H322.064H330.413H338.777H347.126H355.476H363.839H372.188H380.551H388.901H397.264V76.1292H405.614V67.78V59.4307V51.0679V42.7187V34.3559V26.0066V17.6438V9.29455H397.264Z" fill="#64438E"/>
<path d="M213.438 21.832H205.088V30.1814V38.5306V46.8933V55.2427V63.6053H213.438V55.2427V46.8933H221.801H230.151V38.5306H221.801H213.438V30.1814H221.801H230.151V21.832H221.801H213.438Z" fill="white"/>
<path d="M246.864 21.832H238.5V30.1814V38.5306V46.8933V55.2427V63.6053H246.864H255.213H263.576V55.2427V46.8933V38.5306V30.1814V21.832H255.213H246.864ZM255.213 38.5306V46.8933V55.2427H246.864V46.8933V38.5306V30.1814H255.213V38.5306Z" fill="white"/>
<path d="M288.638 63.6056H296.988V55.2429V46.8936H288.638V55.2429V63.6056Z" fill="white"/>
<path d="M280.289 21.832H271.926V30.1814V38.5306V46.8933V55.2427V63.6053H280.289V55.2427V46.8933H288.639V38.5306H280.289V30.1814H288.639V38.5306H296.988V30.1814V21.832H288.639H280.289Z" fill="white"/>
<path d="M322.064 30.1814V38.5306V46.8933V55.2427H313.701V46.8933V38.5306V30.1814V21.832H305.352V30.1814V38.5306V46.8933V55.2427V63.6053H313.701H322.064H330.414V55.2427V46.8933V38.5306V30.1814V21.832H322.064V30.1814Z" fill="white"/>
<path d="M372.188 21.832H363.839H355.476H347.126H338.777V30.1814V38.5306V46.8933V55.2427V63.6053H347.126V55.2427V46.8933V38.5306V30.1814H355.476V38.5306V46.8933V55.2427V63.6053H363.839V55.2427V46.8933V38.5306V30.1814H372.188V38.5306V46.8933V55.2427V63.6053H380.551V55.2427V46.8933V38.5306V30.1814V21.832H372.188Z" fill="white"/>
<path opacity="0.25" d="M67.2261 577.437V585.799H75.5755V594.148H209.264V585.799H217.613V577.437H67.2261Z" fill="black"/>
<path d="M50.5132 193.1H67.226V209.812H50.5132V193.1ZM117.351 142.978H167.489V159.69H117.351V142.978Z" fill="#64438E"/>
<path d="M83.9248 159.689H117.35V176.401H83.9248V159.689Z" fill="#64438E"/>
<path d="M67.2261 176.402H83.9252V193.1H67.2261V176.402ZM217.613 193.1H234.326V209.812H217.613V193.1Z" fill="#64438E"/>
<path d="M234.325 535.663H217.613V552.375H242.688V209.812H234.325V535.663ZM200.9 176.402H217.613V193.1H200.9V176.402ZM50.5128 535.663H67.2256V552.375H42.1499V209.812H50.5128V535.663ZM92.2879 535.663H125.713V552.375H92.2879V535.663Z" fill="#64438E"/>
<path d="M192.551 518.951H217.613V535.663H192.551V518.951Z" fill="#64438E"/>
<path d="M159.125 535.663H192.551V552.375H159.125V535.663Z" fill="#64438E"/>
<path d="M125.714 518.951H159.126V535.663H125.714V518.951ZM67.2261 518.951H92.2884V535.663H67.2261V518.951ZM167.489 159.689H200.901V176.402H167.489V159.689Z" fill="#64438E"/>
<path d="M50.5132 209.812H67.226V218.175H58.8629V518.951H67.226V535.663H50.5132V209.812ZM92.2883 518.951H125.714V535.663H92.2883V518.951ZM217.613 518.951H234.326V535.663H217.613V518.951ZM159.125 518.951H192.551V535.663H159.125V518.951Z" fill="#EDD3FD"/>
<path d="M125.714 502.239H159.126V518.951H125.714V502.239ZM192.551 502.239H217.613V518.951H192.551V502.239ZM117.351 159.689H167.489V168.039H117.351V159.689ZM67.2261 193.1H83.9252V201.463H67.2261V193.1ZM83.9252 176.402H117.351V184.751H83.9252V176.402ZM200.901 193.1H217.613V201.463H200.901V193.1ZM167.489 176.402H200.901V184.751H167.489V176.402ZM67.2261 502.239H92.2884V518.951H67.2261V502.239Z" fill="#EDD3FD"/>
<path d="M58.8628 518.951H67.2259V502.239H92.2882V518.951H125.714V502.239H159.125V518.951H192.551V502.239H217.613V518.951H234.326V209.812H217.613V201.463H200.901V184.751H167.489V168.039H117.351V184.751H83.9251V201.463H67.2259V218.175H58.8628V518.951Z" fill="white"/>
<path d="M184.201 427.041V418.692H167.488V410.343H159.125V401.98H150.776V393.631H134.063V427.041H142.413V435.404H150.776V443.753H167.488V452.116H200.9V427.041H184.201Z" fill="white"/>
<path d="M134.063 427.042H142.413V435.404H134.063V427.042Z" fill="#EDD3FD"/>
<path d="M150.776 443.754V435.404H142.413V443.754H150.776V452.116H167.489V443.754H150.776Z" fill="#EDD3FD"/>
<path d="M167.489 452.116H200.901V460.465H167.489V452.116Z" fill="#EDD3FD"/>
<path d="M142.413 443.754H150.776V452.117H142.413V443.754ZM150.776 393.631V385.269H134.063V393.631H150.776V401.981H159.125V393.631H150.776Z" fill="#64438E"/>
<path d="M159.125 401.98H167.489V410.343H159.125V401.98ZM200.901 427.042H209.264V460.466H200.901V427.042ZM150.776 452.116H167.489V460.466H150.776V452.116Z" fill="#64438E"/>
<path d="M167.489 460.466H200.901V468.829H167.489V460.466ZM184.201 418.692H200.901V427.042H184.201V418.692Z" fill="#64438E"/>
<path d="M167.488 410.343H184.201V418.692H167.488V410.343ZM134.063 435.405H142.413V443.754H134.063V435.405Z" fill="#64438E"/>
<path d="M217.613 234.887V251.585H225.976V259.948H234.325V234.887H217.613Z" fill="#DEA8FF"/>
<path d="M225.976 209.812V218.175H217.613V234.887H234.325V209.812H225.976Z" fill="#EDD3FD"/>
<path d="M217.613 209.812H225.976V218.175H217.613V209.812Z" fill="#64438E"/>
<path d="M209.263 218.175H217.613V251.586H209.263V218.175Z" fill="#64438E"/>
<path d="M217.613 251.586H225.976V259.949H217.613V251.586Z" fill="#64438E"/>
<path d="M225.976 259.948H234.325V268.298H225.976V259.948Z" fill="#64438E"/>
<path d="M209.263 360.207H225.976V376.919H209.263V360.207Z" fill="#F696C6"/>
<path d="M234.325 276.66H225.976H217.613V285.009V293.372H225.976H234.325H242.688V285.009V276.66H234.325Z" fill="#C8C8C8"/>
<path d="M234.325 293.373H225.976H217.613V301.722V310.071V318.434V326.783H225.976H234.325H242.688V318.434V310.071V301.722V293.373H234.325Z" fill="black"/>
<path d="M234.325 326.783H225.976H217.613V335.146V343.495H225.976H234.325H242.688V335.146V326.783H234.325Z" fill="#C8C8C8"/>
<path d="M217.613 310.071V301.722V293.373H209.263H200.9V301.722V310.071V318.434V326.783H209.263H217.613V318.434V310.071Z" fill="#C8C8C8"/>
<path d="M192.551 293.373H184.201V301.722H192.551V293.373Z" fill="#595959"/>
<path d="M192.551 301.722H184.201V310.071H192.551V301.722Z" fill="#8A8A8A"/>
<path d="M192.551 318.434H184.201V326.783H192.551V318.434Z" fill="#8A8A8A"/>
<path d="M192.551 310.071H184.201V318.434H192.551V310.071Z" fill="#595959"/>
<path d="M200.9 293.373H192.551V301.722H200.9V293.373Z" fill="#8A8A8A"/>
<path d="M200.9 301.722H192.551V310.071H200.9V301.722Z" fill="#595959"/>
<path d="M200.9 318.434H192.551V326.783H200.9V318.434Z" fill="#595959"/>
<path d="M200.9 310.071H192.551V318.434H200.9V310.071Z" fill="#8A8A8A"/>
<path d="M175.838 293.373H167.489V301.722H175.838V293.373Z" fill="#595959"/>
<path d="M175.838 301.722H167.489V310.071H175.838V301.722Z" fill="#8A8A8A"/>
<path d="M175.838 318.434H167.489V326.783H175.838V318.434Z" fill="#8A8A8A"/>
<path d="M175.838 310.071H167.489V318.434H175.838V310.071Z" fill="#595959"/>
<path d="M184.201 293.373H175.838V301.722H184.201V293.373Z" fill="#8A8A8A"/>
<path d="M184.201 301.722H175.838V310.071H184.201V301.722Z" fill="#595959"/>
<path d="M184.201 318.434H175.838V326.783H184.201V318.434Z" fill="#595959"/>
<path d="M184.201 310.071H175.838V318.434H184.201V310.071Z" fill="#8A8A8A"/>
<path d="M159.125 293.373H150.776V301.722H159.125V293.373Z" fill="#595959"/>
<path d="M159.125 301.722H150.776V310.071H159.125V301.722Z" fill="#8A8A8A"/>
<path d="M159.125 318.434H150.776V326.783H159.125V318.434Z" fill="#8A8A8A"/>
<path d="M159.125 310.071H150.776V318.434H159.125V310.071Z" fill="#595959"/>
<path d="M167.489 293.373H159.125V301.722H167.489V293.373Z" fill="#8A8A8A"/>
<path d="M167.489 301.722H159.125V310.071H167.489V301.722Z" fill="#595959"/>
<path d="M167.489 318.434H159.125V326.783H167.489V318.434Z" fill="#595959"/>
<path d="M167.489 310.071H159.125V318.434H167.489V310.071Z" fill="#8A8A8A"/>
<path d="M142.413 293.373H134.063V301.722H142.413V293.373Z" fill="#595959"/>
<path d="M142.413 301.722H134.063V310.071H142.413V301.722Z" fill="#8A8A8A"/>
<path d="M142.413 318.434H134.063V326.783H142.413V318.434Z" fill="#8A8A8A"/>
<path d="M142.413 310.071H134.063V318.434H142.413V310.071Z" fill="#595959"/>
<path d="M150.776 293.373H142.413V301.722H150.776V293.373Z" fill="#8A8A8A"/>
<path d="M150.776 301.722H142.413V310.071H150.776V301.722Z" fill="#595959"/>
<path d="M150.776 318.434H142.413V326.783H150.776V318.434Z" fill="#595959"/>
<path d="M150.776 310.071H142.413V318.434H150.776V310.071Z" fill="#8A8A8A"/>
<path d="M125.713 293.373H117.35V301.722H125.713V293.373Z" fill="#595959"/>
<path d="M125.713 301.722H117.35V310.071H125.713V301.722Z" fill="#8A8A8A"/>
<path d="M125.713 318.434H117.35V326.783H125.713V318.434Z" fill="#8A8A8A"/>
<path d="M125.713 310.071H117.35V318.434H125.713V310.071Z" fill="#595959"/>
<path d="M134.063 293.373H125.713V301.722H134.063V293.373Z" fill="#8A8A8A"/>
<path d="M134.063 301.722H125.713V310.071H134.063V301.722Z" fill="#595959"/>
<path d="M134.063 318.434H125.713V326.783H134.063V318.434Z" fill="#595959"/>
<path d="M134.063 310.071H125.713V318.434H134.063V310.071Z" fill="#8A8A8A"/>
<path d="M109.001 293.373H100.638V301.722H109.001V293.373Z" fill="#595959"/>
<path d="M109.001 301.722H100.638V310.071H109.001V301.722Z" fill="#8A8A8A"/>
<path d="M109.001 318.434H100.638V326.783H109.001V318.434Z" fill="#8A8A8A"/>
<path d="M109.001 310.071H100.638V318.434H109.001V310.071Z" fill="#595959"/>
<path d="M117.35 293.373H109V301.722H117.35V293.373Z" fill="#8A8A8A"/>
<path d="M117.35 301.722H109V310.071H117.35V301.722Z" fill="#595959"/>
<path d="M117.35 318.434H109V326.783H117.35V318.434Z" fill="#595959"/>
<path d="M117.35 310.071H109V318.434H117.35V310.071Z" fill="#8A8A8A"/>
<path d="M92.2881 293.373H83.9248V301.722H92.2881V293.373Z" fill="#595959"/>
<path d="M92.2881 301.722H83.9248V310.071H92.2881V301.722Z" fill="#8A8A8A"/>
<path d="M92.2881 318.434H83.9248V326.783H92.2881V318.434Z" fill="#8A8A8A"/>
<path d="M92.2881 310.071H83.9248V318.434H92.2881V310.071Z" fill="#595959"/>
<path d="M100.638 293.373H92.2881V301.722H100.638V293.373Z" fill="#8A8A8A"/>
<path d="M100.638 301.722H92.2881V310.071H100.638V301.722Z" fill="#595959"/>
<path d="M100.638 318.434H92.2881V326.783H100.638V318.434Z" fill="#595959"/>
<path d="M100.638 310.071H92.2881V318.434H100.638V310.071Z" fill="#8A8A8A"/>
<path d="M75.5757 293.373H67.2261V301.722H75.5757V293.373Z" fill="#595959"/>
<path d="M75.5757 301.722H67.2261V310.071H75.5757V301.722Z" fill="#8A8A8A"/>
<path d="M75.5757 318.434H67.2261V326.783H75.5757V318.434Z" fill="#8A8A8A"/>
<path d="M75.5757 310.071H67.2261V318.434H75.5757V310.071Z" fill="#595959"/>
<path d="M83.925 293.373H75.5757V301.722H83.925V293.373Z" fill="#8A8A8A"/>
<path d="M83.925 301.722H75.5757V310.071H83.925V301.722Z" fill="#595959"/>
<path d="M83.925 318.434H75.5757V326.783H83.925V318.434Z" fill="#595959"/>
<path d="M83.925 310.071H75.5757V318.434H83.925V310.071Z" fill="#8A8A8A"/>
<path d="M58.8628 293.373H50.5132V301.722H58.8628V293.373Z" fill="#595959"/>
<path d="M58.8628 301.722H50.5132V310.071H58.8628V301.722Z" fill="#8A8A8A"/>
<path d="M58.8628 318.434H50.5132V326.783H58.8628V318.434Z" fill="#8A8A8A"/>
<path d="M58.8628 310.071H50.5132V318.434H58.8628V310.071Z" fill="#595959"/>
<path d="M67.2258 293.373H58.8628V301.722H67.2258V293.373Z" fill="#8A8A8A"/>
<path d="M67.2258 301.722H58.8628V310.071H67.2258V301.722Z" fill="#595959"/>
<path d="M67.2258 318.434H58.8628V326.783H67.2258V318.434Z" fill="#595959"/>
<path d="M67.2258 310.071H58.8628V318.434H67.2258V310.071Z" fill="#8A8A8A"/>
<path d="M50.5129 293.373H42.1499V301.722H50.5129V293.373Z" fill="#8A8A8A"/>
<path d="M50.5129 301.722H42.1499V310.071H50.5129V301.722Z" fill="#595959"/>
<path d="M50.5129 318.434H42.1499V326.783H50.5129V318.434Z" fill="#595959"/>
<path d="M50.5129 310.071H42.1499V318.434H50.5129V310.071Z" fill="#8A8A8A"/>
<path d="M192.551 318.434V326.783V335.146H200.9V326.783V318.434H192.551Z" fill="#DEA8FF"/>
<path d="M192.551 301.722V310.071V318.434H200.9V310.071V301.722H192.551Z" fill="#EDD3FD"/>
<path d="M175.838 301.722V310.071V318.434H184.201V310.071V301.722H175.838Z" fill="#DEA8FF"/>
<path d="M175.838 318.434V326.783V335.146H184.201V326.783V318.434H175.838Z" fill="#C260FF"/>
<path d="M184.201 293.373V301.722V310.071V318.434V326.783V335.146V343.495V351.858V360.207V368.556V376.919V385.268V393.631V401.98V410.343V418.692H192.551V410.343V401.98V393.631V385.268V376.919V368.556V360.207V351.858V343.495V335.146V326.783V318.434V310.071V301.722V293.373H184.201Z" fill="#64438E"/>
<path d="M184.201 468.829V477.178V485.527V493.89V502.239V510.602V518.951V527.314V535.663V544.013V552.375H192.551V544.013V535.663V527.314V518.951V510.602V502.239V493.89V485.527V477.178V468.829V460.466H184.201V468.829Z" fill="#64438E"/>
<path d="M242.689 243.236H234.325H225.976H217.613H209.263H200.9H192.551H184.201H175.838H167.488H159.125H150.776H142.413H134.063H125.713H117.35H109.001H100.637H92.288H83.9249H75.5752H67.2257H58.8626H50.5129H42.15H33.8003V251.586V259.948H42.15H50.5129H58.8626H67.2257H75.5752H83.9249H92.288H100.637H109.001H117.35H125.713H134.063H142.413H150.776H159.125H167.488H175.838H184.201H192.551H200.9H209.263H217.613H225.976H234.325H242.689H251.038V251.586V243.236H242.689Z" fill="#947DB0"/>
<path d="M225.976 209.812H217.613V201.463V193.1V184.751V176.402H209.263H200.901V168.039V159.69H192.551H184.201V151.327V142.978H175.838H167.489V134.615V126.266H159.125H150.776V117.916V109.554H142.413H134.063H125.714H117.351H109.001H100.638H92.2883H83.9251V117.916V126.266H75.5755H67.226V134.615V142.978H58.8629H50.5132V151.327V159.69H58.8629H67.226H75.5755H83.9251V168.039V176.402V184.751V193.1V201.463V209.812H75.5755H67.226H58.8629H50.5132V218.175V226.524H58.8629H67.226H75.5755H83.9251H92.2883H100.638H109.001H117.351H125.714H134.063H142.413H150.776H159.125H167.489H175.838H184.201H192.551H200.901H209.263H217.613H225.976H234.326V218.175V209.812H225.976Z" fill="#947DB0"/>
<path d="M276.1 259.948H267.751V251.586V243.236H259.388H251.038V251.586V259.948H242.689H234.325H225.976H217.613H209.263H200.9H192.551H184.201H175.838H167.488H159.125H150.776H142.413H134.063H125.713H117.35H109.001H100.637H92.2881H83.9249H75.5752H67.2258H58.8627H50.513H42.1501H33.8004V251.586V243.236H25.4373H17.0878V251.586V259.948H8.73815H0.375V268.298V276.66H8.73815H17.0878H25.4373H33.8004H42.1501H50.513H58.8627H67.2258H75.5752H83.9249H92.2881H100.637H109.001H117.35H125.713H134.063H142.413H150.776H159.125H167.488H175.838H184.201H192.551H200.9H209.263H217.613H225.976H234.325H242.689H251.038H259.388H267.751H276.1H284.464V268.298V259.948H276.1Z" fill="#64438E"/>
<path d="M234.325 193.1V184.751V176.388H225.976H217.613V184.751V193.1V201.463V209.812H225.976H234.325V201.463V193.1Z" fill="#64438E"/>
<path d="M217.613 159.689H209.263H200.9V168.039V176.401H209.263H217.613V168.039V159.689Z" fill="#64438E"/>
<path d="M67.2258 142.978V134.615V126.266H58.8628H50.5132V134.615V142.978H58.8628H67.2258Z" fill="#64438E"/>
<path d="M83.925 126.266V117.903V109.554H75.5754H67.2261V117.903V126.266H75.5754H83.925Z" fill="#64438E"/>
<path d="M100.637 109.554H109.001H117.35H125.713H134.063H142.412H150.776V101.204V92.8418H142.412H134.063H125.713H117.35H109.001H100.637H92.288H83.9248V101.204V109.554H92.288H100.637Z" fill="#64438E"/>
<path d="M150.776 126.266H159.125H167.489V117.903V109.554H159.125H150.776V117.903V126.266Z" fill="#64438E"/>
<path d="M167.489 142.978H175.838H184.201V151.327V159.69H192.551H200.901V151.327V142.978H192.551H184.201V134.615V126.266H175.838H167.489V134.615V142.978Z" fill="#64438E"/>
<path d="M50.5129 243.236H58.8626H67.2257H75.5752H83.9249H92.288H100.637H109.001H117.35H125.713H134.063H142.413H150.776H159.125H167.488H175.838H184.201H192.551H200.9H209.263H217.613H225.976H234.325H242.689H251.038V234.887V226.524V218.175V209.812H242.689H234.325V218.175V226.524H225.976H217.613H209.263H200.9H192.551H184.201H175.838H167.488H159.125H150.776H142.413H134.063H125.713H117.35H109.001H100.637H92.288H83.9249H75.5752H67.2257H58.8626H50.5129V218.175V209.812H42.15H33.8003V218.175V226.524V234.887V243.236H42.15H50.5129Z" fill="#64438E"/>
<path d="M67.2257 209.812H75.5751H83.9248V201.463V193.1V184.751V176.402V168.039V159.69H75.5751H67.2257H58.8626H50.5129V151.327V142.978H42.1501H33.8004V151.327V159.69H25.4373H17.0879V168.039V176.402V184.751V193.1H25.4373H33.8004V184.751V176.402H42.1501H50.5129H58.8626H67.2257V184.751V193.1H58.8626H50.5129V201.463V209.812H58.8626H67.2257Z" fill="#64438E"/>
<path d="M209.263 176.402H200.9H192.551V184.751V193.1H200.9H209.263H217.613V184.751V176.402H209.263Z" fill="#DEA8FF"/>
<path d="M192.551 159.689H184.201V168.039V176.402V184.751H192.551V176.402H200.9V168.039V159.689H192.551Z" fill="#EDD3FD"/>
<path d="M209.263 193.1H200.9H192.551V201.463H200.9H209.263H217.613V193.1H209.263Z" fill="#64438E"/>
<path d="M192.551 184.751H184.201V193.1H192.551V184.751Z" fill="#64438E"/>
<path d="M184.201 168.039V159.69V151.327V142.978H175.838V151.327V159.69V168.039V176.402V184.751H184.201V176.402V168.039Z" fill="#64438E"/>
<path opacity="0.25" d="M384.726 577.437V585.799H393.075V594.148H526.763V585.799H535.126V577.437H384.726Z" fill="black"/>
<path d="M551.826 209.812H535.127V193.1H551.826V209.812ZM484.989 159.69H434.851V142.978H484.989V159.69Z" fill="#64438E"/>
<path d="M518.414 176.401H484.989V159.689H518.414V176.401Z" fill="#64438E"/>
<path d="M535.126 193.1H518.414V176.402H535.126V193.1ZM384.726 209.812H368.013V193.1H384.726V209.812Z" fill="#64438E"/>
<path d="M368.013 209.812H359.664V552.375H384.726V535.663H368.013V209.812ZM401.439 193.1H384.726V176.402H401.439V193.1ZM551.826 209.812H560.189V552.375H535.127V535.663H551.826V209.812ZM510.051 552.375H476.639V535.663H510.051V552.375Z" fill="#64438E"/>
<path d="M409.788 535.663H384.726V518.951H409.788V535.663Z" fill="#64438E"/>
<path d="M443.214 552.375H409.789V535.663H443.214V552.375Z" fill="#64438E"/>
<path d="M476.639 535.663H443.214V518.951H476.639V535.663ZM535.127 535.663H510.051V518.951H535.127V535.663ZM434.851 176.402H401.439V159.689H434.851V176.402Z" fill="#64438E"/>
<path d="M551.826 535.663H535.127V518.951H543.476V218.175H535.127V209.812H551.826V535.663ZM510.051 535.663H476.639V518.951H510.051V535.663ZM384.726 535.663H368.013V518.951H384.726V535.663ZM443.214 535.663H409.788V518.951H443.214V535.663Z" fill="#EDD3FD"/>
<path d="M476.639 518.951H443.214V502.239H476.639V518.951ZM409.788 518.951H384.726V502.239H409.788V518.951ZM484.989 168.039H434.851V159.689H484.989V168.039ZM535.126 201.463H518.414V193.1H535.126V201.463ZM518.414 184.751H484.989V176.402H518.414V184.751ZM401.439 201.463H384.726V193.1H401.439V201.463ZM434.851 184.751H401.439V176.402H434.851V184.751ZM535.126 518.951H510.051V502.239H535.126V518.951Z" fill="#EDD3FD"/>
<path d="M543.476 218.175H535.127V201.463H518.414V184.751H484.989V168.039H434.851V184.751H401.439V201.463H384.726V209.812H368.013V518.951H384.726V502.239H409.788V518.951H443.214V502.239H476.639V518.951H510.051V502.239H535.127V518.951H543.476V218.175Z" fill="white"/>
<path d="M368.013 276.66V343.495H376.363V326.783H393.075V293.372H376.363V276.66H368.013Z" fill="#64438E"/>
<path d="M393.076 376.919H376.363V360.207H393.076V376.919Z" fill="#F696C6"/>
<path d="M368.013 234.887V259.948H376.363V251.585H384.726V234.887H368.013Z" fill="#C260FF"/>
<path d="M376.363 218.175V209.812H368.013V234.887H384.726V218.175H376.363Z" fill="#DEA8FF"/>
<path d="M376.363 209.812H384.726V218.175H376.363V209.812ZM376.363 251.585H384.726V259.948H376.363V251.585Z" fill="#64438E"/>
<path d="M384.726 218.175H393.075V251.586H384.726V218.175ZM368.013 259.948H376.363V268.298H368.013V259.948Z" fill="#64438E"/>
<path d="M451.564 209.812H443.214H434.851V218.175V226.524H443.214H451.564V218.175V209.812Z" fill="#A97955"/>
<path d="M484.989 209.812H476.639H468.276V218.175V226.524H476.639H484.989V218.175V209.812Z" fill="#A97955"/>
<path d="M451.564 193.1V184.751V176.402H443.214H434.851V184.751V193.1H443.214H451.564Z" fill="#A97955"/>
<path d="M468.276 193.1H476.639H484.989V184.751V176.402H476.639H468.276V184.751V193.1Z" fill="#A97955"/>
<path d="M451.563 176.401H459.927H468.276V168.039V159.689H459.927H451.563V168.039V176.401Z" fill="#A97955"/>
<path d="M434.851 159.69H443.214H451.564V151.327V142.978H443.214H434.851V151.327V159.69Z" fill="#A97955"/>
<path d="M468.276 159.69H476.639H484.989V151.327V142.978H476.639H468.276V151.327V159.69Z" fill="#A97955"/>
<path d="M401.438 226.524H393.075H384.726V234.887V243.237H393.075H401.438V234.887V226.524Z" fill="#A97955"/>
<path d="M535.127 226.524H526.764H518.415V234.887V243.237H526.764H535.127V234.887V226.524Z" fill="#A97955"/>
<path d="M468.276 193.1H459.927H451.563V201.463V209.812H459.927H468.276V201.463V193.1Z" fill="#A97955"/>
<path d="M468.276 226.524H459.927H451.563V234.887V243.237H459.927H468.276V234.887V226.524Z" fill="#A97955"/>
<path d="M610.313 259.948H601.964H593.614H585.251V251.586V243.236H576.902H568.539V251.586V259.948H560.189H551.826V251.586V243.236H543.476H535.127V251.586V259.948H526.763H518.414V251.586V243.236H510.051H501.701V251.586V259.948H493.338H484.989V251.586V243.236H476.639H468.276V251.586V259.948H459.926H451.563V251.586V243.236H443.214H434.851V251.586V259.948H426.501H418.152V251.586V243.236H409.788H401.439V251.586V259.948H393.076H384.726V251.586V243.236H376.363H368.013V251.586V259.948H359.664H351.301V251.586V243.236H342.951H334.588V251.586V259.948H326.239H317.875H309.526H301.176V268.298V276.66H309.526H317.875H326.239H334.588H342.951H351.301H359.664H368.013H376.363H384.726H393.076H401.439H409.788H418.152H426.501H434.851H443.214H451.563H459.926H468.276H476.639H484.989H493.338H501.701H510.051H518.414H526.763H535.127H543.476H551.826H560.189H568.539H576.902H585.251H593.614H601.964H610.313H618.677V268.298V259.948H610.313Z" fill="#A97955"/>
<path d="M518.415 142.978H526.764H535.127V134.615V126.266H526.764H518.415V134.615V142.978Z" fill="#A97955"/>
<path d="M535.127 159.69H526.764H518.415V168.039V176.402H526.764H535.127V184.751V193.1H526.764H518.415V201.463V209.812H526.764H535.127V218.175V226.524H543.477H551.826V234.887V243.236H560.189H568.539V234.887V226.524V218.175V209.812H560.189H551.826V201.463V193.1V184.751V176.402V168.039V159.69V151.327V142.978H543.477H535.127V151.327V159.69Z" fill="#A97955"/>
<path d="M418.152 126.266V134.615V142.978H426.501H434.851V134.615V126.266H443.214H451.564V134.615V142.978H459.927H468.276V134.615V126.266H476.639H484.989V134.615V142.978H493.339H501.702V134.615V126.266H510.051H518.415V117.916V109.554H510.051H501.702H493.339H484.989H476.639H468.276H459.927H451.564H443.214H434.851H426.501H418.152H409.789H401.439V117.916V126.266H409.789H418.152Z" fill="#A97955"/>
<path d="M401.438 142.978V134.615V126.266H393.075H384.726V134.615V142.978H393.075H401.438Z" fill="#A97955"/>
<path d="M368.014 243.236V234.887V226.524H376.363H384.726V218.175V209.812H393.076H401.439V201.463V193.1H393.076H384.726V184.751V176.402H393.076H401.439V168.039V159.69H393.076H384.726V151.327V142.978H376.363H368.014V151.327V159.69V168.039V176.402V184.751V193.1V201.463V209.812H359.664H351.301V218.175V226.524V234.887V243.236H359.664H368.014Z" fill="#A97955"/>
<path d="M401.439 226.524H409.789H418.152V218.175V209.812H409.789H401.439V218.175V226.524Z" fill="#A97955"/>
<path d="M501.702 209.812V218.175V226.524H510.051H518.415V218.175V209.812H510.051H501.702Z" fill="#A97955"/>
<path d="M418.152 193.1V184.751V176.402H409.789H401.439V184.751V193.1H409.789H418.152Z" fill="#A97955"/>
<path d="M434.851 176.401V168.039V159.689H426.501H418.152V168.039V176.401H426.501H434.851Z" fill="#A97955"/>
<path d="M484.989 176.401H493.338H501.701V168.039V159.689H493.338H484.989V168.039V176.401Z" fill="#A97955"/>
<path d="M418.152 159.69V151.327V142.978H409.789H401.439V151.327V159.69H409.789H418.152Z" fill="#A97955"/>
<path d="M501.702 159.69H510.051H518.415V151.327V142.978H510.051H501.702V151.327V159.69Z" fill="#A97955"/>
<path d="M501.702 176.402V184.751V193.1H510.051H518.415V184.751V176.402H510.051H501.702Z" fill="#A97955"/>
<path d="M434.851 226.524H426.501H418.152V234.887V243.237H426.501H434.851V234.887V226.524Z" fill="#A97955"/>
<path d="M501.701 226.524H493.338H484.989V234.887V243.237H493.338H501.701V234.887V226.524Z" fill="#A97955"/>
<path d="M434.851 209.812V201.463V193.1H426.501H418.152V201.463V209.812H426.501H434.851Z" fill="#A97955"/>
<path d="M484.989 193.1V201.463V209.812H493.338H501.701V201.463V193.1H493.338H484.989Z" fill="#A97955"/>
<path d="M493.339 443.754H484.989H476.639H468.276V452.117H476.639H484.989H493.339H501.702H510.051V443.754H501.702H493.339Z" fill="#DE9A53"/>
<path d="M543.477 443.754H535.127H526.764H518.415V452.117H526.764H535.127H543.477H551.826V443.754H543.477Z" fill="#DE9A53"/>
<path d="M384.726 443.754H376.363H368.013V452.117H376.363H384.726H393.075H401.438V443.754H393.075H384.726Z" fill="#DE9A53"/>
<path d="M443.214 443.754H434.851H426.501H418.152H409.789V452.117H418.152H426.501H434.851H443.214H451.564H459.927V443.754H451.564H443.214Z" fill="#DE9A53"/>
<path d="M501.701 460.466H493.339H484.989H476.639H468.276V468.815V477.178V485.527V493.89V502.239V510.602V518.951H476.639V527.3V535.663H484.989H493.339H501.701H510.051V527.3V518.951H518.414V510.602V502.239V493.89V485.527V477.178V468.815V460.466H510.051H501.701Z" fill="#4BAFFF"/>
<path d="M551.826 493.89V485.527V477.178H543.477V485.527V493.89V502.239H551.826V493.89Z" fill="#4BAFFF"/>
<path d="M451.564 460.466H443.214H434.851H426.501H418.152H409.789H401.439V468.815V477.178V485.527V493.89V502.239V510.602V518.951H409.789V527.3V535.663H418.152H426.501H434.851H443.214V527.3V518.951H451.564H459.927V510.602V502.239V493.89V485.527V477.178V468.815V460.466H451.564Z" fill="#4BAFFF"/>
<path d="M376.363 477.178V468.829V460.466H368.013V468.829V477.178V485.527V493.89V502.239V510.602V518.951V527.314V535.663H376.363H384.726V527.314V518.951H393.075V510.602V502.239V493.89H384.726V485.527H376.363V477.178Z" fill="#4BAFFF"/>
<path d="M535.127 485.527V477.178V468.815H543.477H551.826V460.466H543.477H535.127H526.764V468.815V477.178V485.527V493.89V502.239V510.602V518.951H535.127V527.3V535.663H543.477H551.826V527.3V518.951V510.602H543.477V502.239H535.127V493.89V485.527Z" fill="#4BAFFF"/>
<path d="M384.726 468.815V477.178V485.527H393.075V477.178V468.815V460.466H384.726V468.815Z" fill="#4BAFFF"/>
<path d="M551.826 435.404H543.476H535.127H526.764H518.414H510.051H501.701H493.338H484.989H476.639H468.276H459.927H451.563H443.214H434.851H426.501H418.152H409.789H401.439H393.076H384.726H376.363H368.013H359.664V443.754V452.116V460.466V468.828V477.178V485.527V493.89V502.239V510.602V518.951V527.314V535.663V544.012V552.375H368.013H376.363H384.726V544.012V535.663H376.363H368.013V527.314V518.951V510.602V502.239V493.89V485.527V477.178V468.828V460.466H376.363V468.828V477.178V485.527H384.726V477.178V468.828V460.466H393.076V468.828V477.178V485.527H384.726V493.89H393.076V502.239V510.602V518.951H384.726V527.314V535.663H393.076H401.439H409.789V527.314V518.951H401.439V510.602V502.239V493.89V485.527V477.178V468.828V460.466H409.789H418.152H426.501H434.851H443.214H451.563H459.927V468.828V477.178V485.527V493.89V502.239V510.602V518.951H451.563H443.214V527.314V535.663H451.563H459.927H468.276H476.639V527.314V518.951H468.276V510.602V502.239V493.89V485.527V477.178V468.828V460.466H476.639H484.989H493.338H501.701H510.051H518.414V468.828V477.178V485.527V493.89V502.239V510.602V518.951H510.051V527.314V535.663H518.414H526.764H535.127V527.314V518.951H526.764V510.602V502.239V493.89V485.527V477.178V468.828V460.466H535.127H543.476H551.826V468.828H543.476H535.127V477.178V485.527V493.89V502.239H543.476V493.89V485.527V477.178H551.826V485.527V493.89V502.239H543.476V510.602H551.826V518.951V527.314V535.663H543.476H535.127V544.012V552.375H543.476H551.826H560.189V544.012V535.663V527.314V518.951V510.602V502.239V493.89V485.527V477.178V468.828V460.466V452.116V443.754V435.404H551.826ZM393.076 452.116H384.726H376.363H368.013V443.754H376.363H384.726H393.076H401.439V452.116H393.076ZM451.563 452.116H443.214H434.851H426.501H418.152H409.789V443.754H418.152H426.501H434.851H443.214H451.563H459.927V452.116H451.563ZM501.701 452.116H493.338H484.989H476.639H468.276V443.754H476.639H484.989H493.338H501.701H510.051V452.116H501.701ZM551.826 452.116H543.476H535.127H526.764H518.414V443.754H526.764H535.127H543.476H551.826V452.116Z" fill="#003CA0"/>
<path d="M493.339 535.663H484.989H476.639V544.012V552.375H484.989H493.339H501.702H510.051V544.012V535.663H501.702H493.339Z" fill="#003CA0"/>
<path d="M426.501 535.663H418.152H409.789V544.012V552.375H418.152H426.501H434.851H443.214V544.012V535.663H434.851H426.501Z" fill="#003CA0"/>
<path d="M409.789 293.373V301.722V310.071V318.434V326.783V335.146V343.495V351.858V360.207V368.556V376.919V385.268V393.631V401.98V410.343V418.692H418.152V410.343V401.98V393.631V385.268V376.919V368.556V360.207V351.858V343.495V335.146V326.783V318.434V310.071V301.722V293.373H409.789Z" fill="#935628"/>
<path d="M409.789 468.829V477.178V485.527V493.89V502.239V510.602V518.951V527.314V535.663V544.013V552.375H418.152V544.013V535.663V527.314V518.951V510.602V502.239V493.89V485.527V477.178V468.829V460.466H409.789V468.829Z" fill="#935628"/>
<path d="M401.439 427.041V452.116H434.851V443.753H451.564V435.404H459.927V427.041H468.277V393.631H451.564V401.98H443.214V410.343H434.851V418.692H418.152V427.041H401.439Z" fill="white"/>
<path d="M468.276 435.404H459.926V427.042H468.276V435.404Z" fill="#EDD3FD"/>
<path d="M434.851 443.754V452.116H451.564V443.754H459.927V435.404H451.564V443.754H434.851Z" fill="#EDD3FD"/>
<path d="M434.851 460.465H401.439V452.116H434.851V460.465Z" fill="#EDD3FD"/>
<path d="M459.927 452.117H451.564V443.754H459.927V452.117ZM443.214 393.631V401.981H451.564V393.631H468.277V385.269H451.564V393.631H443.214Z" fill="#64438E"/>
<path d="M443.214 410.33H434.851V401.98H443.214V410.33ZM401.439 460.466H393.076V427.042H401.439V460.466ZM451.563 460.466H434.851V452.116H451.563V460.466Z" fill="#64438E"/>
<path d="M434.851 468.829H401.439V460.466H434.851V468.829ZM418.152 427.042H401.439V418.692H418.152V427.042Z" fill="#64438E"/>
<path d="M434.851 418.692H418.152V410.343H434.851V418.692ZM468.276 443.754H459.927V435.405H468.276V443.754Z" fill="#64438E"/>
<path d="M418.152 243.236V251.586V259.948H426.501H434.851V251.586V243.236H426.501H418.152Z" fill="#DE9A53"/>
<path d="M484.989 243.236V251.586V259.948H493.338H501.701V251.586V243.236H493.338H484.989Z" fill="#DE9A53"/>
<path d="M434.851 209.812H426.501H418.152V218.175V226.524H426.501H434.851V218.175V209.812Z" fill="#DE9A53"/>
<path d="M501.701 209.812H493.338H484.989V218.175V226.524H493.338H501.701V218.175V209.812Z" fill="#DE9A53"/>
<path d="M434.851 193.1V184.751V176.388H426.501H418.152V184.751V193.1H426.501H434.851Z" fill="#DE9A53"/>
<path d="M484.989 176.388V184.751V193.1H493.338H501.701V184.751V176.388H493.338H484.989Z" fill="#DE9A53"/>
<path d="M418.152 176.401V168.039V159.689H409.789H401.439V168.039V176.401H409.789H418.152Z" fill="#DE9A53"/>
<path d="M501.702 159.689V168.039V176.401H510.051H518.415V168.039V159.689H510.051H501.702Z" fill="#DE9A53"/>
<path d="M434.851 159.69V151.327V142.978H426.501H418.152V151.327V159.69H426.501H434.851Z" fill="#DE9A53"/>
<path d="M484.989 159.69H493.338H501.701V151.327V142.978H493.338H484.989V151.327V159.69Z" fill="#DE9A53"/>
<path d="M518.415 142.978V134.615V126.266H510.051H501.702V134.615V142.978H510.051H518.415Z" fill="#DE9A53"/>
<path d="M418.152 126.266H409.788H401.439V134.615V142.978H393.076H384.726V151.327V159.69H393.076H401.439V151.327V142.978H409.788H418.152V134.615V126.266Z" fill="#DE9A53"/>
<path d="M418.152 226.524H409.789H401.439V234.887V243.237H409.789H418.152V234.887V226.524Z" fill="#DE9A53"/>
<path d="M518.415 226.524H510.051H501.702V234.887V243.237H510.051H518.415V234.887V226.524Z" fill="#DE9A53"/>
<path d="M418.152 209.812V201.463V193.1H409.789H401.439V201.463V209.812H409.789H418.152Z" fill="#DE9A53"/>
<path d="M501.702 193.1V201.463V209.812H510.051H518.415V201.463V193.1H510.051H501.702Z" fill="#DE9A53"/>
<path d="M451.563 243.236V251.586V259.948H459.927H468.276V251.586V243.236H459.927H451.563Z" fill="#DE9A53"/>
<path d="M384.726 243.236V251.586V259.948H393.075H401.438V251.586V243.236H393.075H384.726Z" fill="#DE9A53"/>
<path d="M518.415 243.236V251.586V259.948H526.764H535.127V251.586V243.236H526.764H518.415Z" fill="#DE9A53"/>
<path d="M351.301 243.236V251.586V259.948H359.664H368.014V251.586V243.236H359.664H351.301Z" fill="#DE9A53"/>
<path d="M560.189 243.236H551.826V251.586V259.948H560.189H568.539V251.586V243.236H560.189Z" fill="#DE9A53"/>
<path d="M468.276 209.812H459.927H451.563V218.175V226.524H459.927H468.276V218.175V209.812Z" fill="#DE9A53"/>
<path d="M401.438 226.524V218.175V209.812H393.075H384.726V218.175V226.524H393.075H401.438Z" fill="#DE9A53"/>
<path d="M518.415 226.524H526.764H535.127V218.175V209.812H526.764H518.415V218.175V226.524Z" fill="#DE9A53"/>
<path d="M468.276 193.1V184.751V176.388H459.927H451.563V184.751V193.1H459.927H468.276Z" fill="#DE9A53"/>
<path d="M401.438 176.388H393.075H384.726V184.751V193.1H393.075H401.438V184.751V176.388Z" fill="#DE9A53"/>
<path d="M451.564 176.401V168.039V159.689H443.214H434.851V168.039V176.401H443.214H451.564Z" fill="#DE9A53"/>
<path d="M468.276 176.401H476.639H484.989V168.039V159.689H476.639H468.276V168.039V176.401Z" fill="#DE9A53"/>
<path d="M518.415 159.69H526.764H535.127V151.327V142.978H526.764H518.415V151.327V159.69Z" fill="#DE9A53"/>
<path d="M451.563 159.69H459.927H468.276V151.327V142.978H459.927H451.563V151.327V159.69Z" fill="#DE9A53"/>
<path d="M484.989 142.978V134.615V126.266H476.639H468.276V134.615V142.978H476.639H484.989Z" fill="#DE9A53"/>
<path d="M451.564 142.978V134.615V126.266H443.214H434.851V134.615V142.978H443.214H451.564Z" fill="#DE9A53"/>
<path d="M518.415 193.1H526.764H535.127V184.751V176.388H526.764H518.415V184.751V193.1Z" fill="#DE9A53"/>
<path d="M451.564 226.524H443.214H434.851V234.887V243.237H443.214H451.564V234.887V226.524Z" fill="#DE9A53"/>
<path d="M384.726 226.524H376.363H368.013V234.887V243.237H376.363H384.726V234.887V226.524Z" fill="#DE9A53"/>
<path d="M551.826 226.524H543.476H535.126V234.887V243.237H543.476H551.826V234.887V226.524Z" fill="#DE9A53"/>
<path d="M451.564 193.1H443.214H434.851V201.463V209.812H443.214H451.564V201.463V193.1Z" fill="#DE9A53"/>
<path d="M484.989 193.1H476.639H468.276V201.463V209.812H476.639H484.989V201.463V193.1Z" fill="#DE9A53"/>
<path d="M484.989 226.524H476.639H468.276V234.887V243.237H476.639H484.989V234.887V226.524Z" fill="#DE9A53"/>
</svg>
