<svg width="127" height="173" viewBox="0 0 127 173" fill="none" xmlns="http://www.w3.org/2000/svg">
<path d="M34.2498 45.9468V40.0983V34.2498V28.4013V22.5527H28.3996H23.3872V28.4013V34.2498V40.0983V45.9468H28.3996H34.2498Z" fill="black"/>
<path d="M23.3871 68.5133V63.4997V57.6512V51.8026V45.9541H17.5371H11.687V51.8026V57.6512V63.4997V68.5133H17.5371H23.3871Z" fill="black"/>
<path d="M11.6867 161.257V155.409V149.56H5.83664H0V155.409V161.257V166.269V172.118H5.83664H11.6867H17.537H23.3871V166.269V161.257H17.537H11.6867Z" fill="black"/>
<path d="M23.3872 149.56V155.409V161.257H28.3996H34.2498V155.409V149.56H28.3996H23.3872Z" fill="black"/>
<path d="M34.2495 137.859V143.707V149.556H40.0997H45.9497V143.707V137.859H40.0997H34.2495Z" fill="black"/>
<path d="M45.9497 126.16V132.008V137.857H51.7999H57.65V132.008V126.16H51.7999H45.9497Z" fill="black"/>
<path d="M57.6504 115.308V120.32V126.169H63.5004H69.337V120.32V115.308H63.5004H57.6504Z" fill="black"/>
<path d="M69.3369 103.607V109.456V115.304H74.3494H80.1995V109.456V103.607H74.3494H69.3369Z" fill="black"/>
<path d="M80.2129 91.9077V97.7562V103.605H86.0496H91.8998V97.7562V91.9077H86.0496H80.2129Z" fill="black"/>
<path d="M91.8999 80.2061V86.0546V91.9031H97.7499H103.6V86.0546V80.2061H97.7499H91.8999Z" fill="black"/>
<path d="M45.9498 103.598V97.749V91.9004V86.0519V80.2034H40.0997H34.2495H28.3994H23.387H17.5369H11.6867V74.3548V68.5063H5.83663H0V74.3548V80.2034V86.0519V91.9004H5.83663H11.6867H17.5369H23.387H28.3994H34.2495V97.749V103.598H40.0997H45.9498Z" fill="black"/>
<path d="M80.1996 45.9541V51.8026V57.6512H74.3495H69.3369V63.4997V68.5133H74.3495H80.1996H86.0497H91.8998H97.7499H103.6V74.3618V80.2103H109.45H115.3V74.3618V68.5133V63.4997V57.6512H109.45H103.6H97.7499H91.8998V51.8026V45.9541H86.0497H80.1996Z" fill="black"/>
<path d="M91.8999 34.2529V40.1015V45.95H97.7499H103.6V40.1015V34.2529H97.7499H91.8999Z" fill="black"/>
<path d="M103.6 22.5527V28.4012V34.2498H109.45H115.3V28.4012V22.5527H109.45H103.6Z" fill="black"/>
<path d="M120.312 0H115.3H109.45H103.6H97.7495H91.8994H86.0493H80.2127H74.3626H69.3502H63.5H57.65H51.7999H45.9498H40.0997H34.2495V5.84854V11.6971V17.5456V22.5592H40.0997H45.9498V17.5456V11.6971H51.7999H57.65H63.5H69.3502H74.3626H80.2127H86.0493H91.8994H97.7495H103.6H109.45H115.3V17.5456V22.5592H120.312H126.162V17.5456V11.6971V5.84854V0H120.312Z" fill="black"/>
<path d="M34.2498 126.166V120.318V115.304V109.455V103.607H28.3996H23.3872V109.455V115.304V120.318V126.166H28.3996H34.2498Z" fill="black"/>
<path d="M23.3871 149.554V143.705V137.857V132.008V126.16H17.5371H11.687V132.008V137.857V143.705V149.554H17.5371H23.3871Z" fill="black"/>
<path d="M109.45 11.7017H103.6H97.7499H91.8998H86.0497H80.1996H74.363H69.337H63.5004H57.6503H51.8002H45.9501V17.5502V22.5625H40.1H34.2498V28.411V34.2596V40.1081V45.9566H28.3997H23.3873V51.8052V57.6537V63.5023V68.5159H17.5372H11.687V74.3644V80.2129H17.5372H23.3873H28.3997H34.2498H40.1H45.9501V86.0615V91.91V97.7586V103.607H40.1H34.2498V109.456V115.304V120.318V126.166H28.3997H23.3873V132.015V137.863V143.712V149.56H28.3997H34.2498V143.712V137.863H40.1H45.9501V132.015V126.166H51.8002H57.6503V120.318V115.304H63.5004H69.337V109.456V103.607H74.363H80.1996V97.7586V91.91H86.0497H91.8998V86.0615V80.2129H97.7499H103.6V74.3644V68.5159H97.7499H91.8998H86.0497H80.1996H74.363H69.337V63.5023V57.6537H74.363H80.1996V51.8052V45.9566H86.0497H91.8998V40.1081V34.2596H97.7499H103.6V28.411V22.5625H109.45H115.3V17.5502V11.7017H109.45Z" fill="#FF9900"/>
<path d="M11.687 149.559V155.408V161.256H17.5371H23.3871V155.408V149.559H17.5371H11.687Z" fill="#FF9900"/>
</svg>
