<svg width="139" height="219" viewBox="0 0 139 219" fill="none" xmlns="http://www.w3.org/2000/svg">
<path d="M23.3938 115.303V109.455V103.606H17.545H11.6963V109.455V115.303H17.545H23.3938Z" fill="black"/>
<path d="M11.6976 207.209V201.36V195.512H5.84879H0V201.36V207.209V212.222V218.071H5.84879H11.6976H17.5464H23.3951V212.222V207.209H17.5464H11.6976Z" fill="black"/>
<path d="M23.394 195.512V201.36V207.209H29.2429H35.0917V201.36V195.512H29.2429H23.394Z" fill="black"/>
<path d="M35.0947 183.812V189.661V195.509H40.9435H46.7924V189.661V183.812H40.9435H35.0947Z" fill="black"/>
<path d="M46.792 172.111V177.96V183.808H51.8045H57.6533V177.96V172.111H51.8045H46.792Z" fill="black"/>
<path d="M57.6519 161.26V166.273V172.122H63.5006H69.3494V166.273V161.26H63.5006H57.6519Z" fill="black"/>
<path d="M69.3481 149.56V155.408V161.257H75.1969H81.0457V155.408V149.56H75.1969H69.3481Z" fill="black"/>
<path d="M81.0498 137.858V143.707V149.555H86.8985H92.7472V143.707V137.858H86.8985H81.0498Z" fill="black"/>
<path d="M92.7456 126.159V132.008V137.856H97.7594H103.608V132.008V126.159H97.7594H92.7456Z" fill="black"/>
<path d="M46.7902 149.562V143.714V137.865V132.017V126.168H40.9414H35.0926H29.2439H23.3951H17.5463H11.6975V120.32V115.308H5.84877H0V120.32V126.168V132.017V137.865H5.84877H11.6975H17.5463H23.3951H29.2439H35.0926V143.714V149.562H40.9414H46.7902Z" fill="black"/>
<path d="M103.606 115.308V120.32V126.168H109.455H115.303V120.32V115.308H109.455H103.606Z" fill="black"/>
<path d="M35.0917 172.117V166.269V161.257V155.408V149.56H29.2429H23.394V155.408V161.257V166.269V172.117H29.2429H35.0917Z" fill="black"/>
<path d="M23.3938 195.505V189.657V183.808V177.96V172.111H17.545H11.6963V177.96V183.808V189.657V195.505H17.545H23.3938Z" fill="black"/>
<path d="M115.303 103.606V109.455V115.303H121.152H127.006V109.455V103.606H121.152H115.303Z" fill="black"/>
<path d="M132.843 0H127.006H121.152H115.303V5.84854V11.6971H121.152H127.006V17.5456V23.3942H132.843H138.693V17.5456V11.6971V5.84854V0H132.843Z" fill="black"/>
<path d="M115.303 23.3978V17.5492V11.7007H109.455H103.606V17.5492V23.3978H109.455H115.303Z" fill="black"/>
<path d="M103.608 34.2631V28.4146V23.4023H97.7594H92.7456V28.4146V34.2631H97.7594H103.608Z" fill="black"/>
<path d="M92.7472 45.9494V40.1009V34.2524H86.8985H81.0498V40.1009V45.9494H86.8985H92.7472Z" fill="black"/>
<path d="M81.0457 57.6507V51.8022V45.9536H75.1969H69.3481V51.8022V57.6507H75.1969H81.0457Z" fill="black"/>
<path d="M69.3494 69.3514V63.5028V57.6543H63.5006H57.6519V63.5028V69.3514H63.5006H69.3494Z" fill="black"/>
<path d="M57.6533 80.2161V74.3676V69.354H51.8045H46.792V74.3676V80.2161H51.8045H57.6533Z" fill="black"/>
<path d="M46.7924 91.9027V86.0541V80.2056H40.9435H35.0947V86.0541V91.9027H40.9435H46.7924Z" fill="black"/>
<path d="M92.7456 69.354V74.3676V80.2162V86.0647V91.9133H97.7594H103.608H109.457H115.306H121.154H127.006V97.7618V103.61H132.856H138.706V97.7618V91.9133V86.0647V80.2162H132.856H127.006H121.154H115.306H109.457H103.608V74.3676V69.354H97.7594H92.7456Z" fill="black"/>
<path d="M35.0917 103.604V97.7552V91.9067H29.2429H23.394V97.7552V103.604H29.2429H35.0917Z" fill="black"/>
<path d="M103.606 45.9536V51.8022V57.6507V63.4992V69.3477H109.455H115.303V63.4992V57.6507V51.8022V45.9536H109.455H103.606Z" fill="black"/>
<path d="M115.303 23.4023V28.4146V34.2631V40.1117V45.9603H121.152H127.006V40.1117V34.2631V28.4146V23.4023H121.152H115.303Z" fill="black"/>
<path d="M11.6963 195.512V201.36V207.209H17.545H23.3938V201.36V195.512H17.545H11.6963Z" fill="#FF9900"/>
<path d="M103.605 23.4009V28.4145V34.263H97.7566H92.7441V40.1116V45.9601H86.8953H81.0465V51.8086V57.6572H75.1977H69.349V63.5057V69.3543H63.5002H57.6514V74.3665V80.2151H51.8028H46.7889V86.0636V91.9121H40.9402H35.0914V97.7606V103.609H29.2426H23.3938V109.458V115.306H17.5451H11.6963V120.32V126.168H17.5451H23.3938H29.2426H35.0914H40.9402H46.7889V132.017V137.865V143.714V149.563H40.9402H35.0914V155.411V161.26V166.273V172.122H29.2426H23.3938V177.97V183.819V189.667V195.516H29.2426H35.0914V189.667V183.819H40.9402H46.7889V177.97V172.122H51.8028H57.6514V166.273V161.26H63.5002H69.349V155.411V149.563H75.1977H81.0465V143.714V137.865H86.8953H92.7441V132.017V126.168H97.7566H103.605V120.32V115.306H109.454H115.303V109.458V103.609H121.152H127.006V97.7606V91.9121H121.152H115.303H109.454H103.605H97.7566H92.7441V86.0636V80.2151V74.3665V69.3543H97.7566H103.605V63.5057V57.6572V51.8086V45.9601H109.454H115.303V40.1116V34.263V28.4145V23.4009H109.454H103.605Z" fill="#FF9900"/>
<path d="M121.152 11.7007H115.303V17.5492V23.3978H121.152H127.006V17.5492V11.7007H121.152Z" fill="#FF9900"/>
</svg>
