<svg width="8764" height="7250" viewBox="0 0 8764 7250" fill="none" xmlns="http://www.w3.org/2000/svg">
<path d="M6532.96 79.6703V0H2230.77V79.6703H2151.1V1195.05H2230.77V1274.72H3146.98V1832.42H3465.66V1274.72H5298.07V1832.42H5616.76V1274.72H6532.96V1195.05H6612.63V79.6703H6532.96Z" fill="black"/>
<path d="M6453.29 79.6724H2230.76V1195.06H6532.96V79.6724H6453.29Z" fill="#FF00FF"/>
<path d="M3306.31 1434.06V1832.41H3465.65V1434.06H3385.98H3306.31ZM5537.08 1434.06H5457.41V1832.41H5616.75V1434.06H5537.08Z" fill="#2D2D2D"/>
<path d="M3425.84 318.682H2788.47V1115.38H2947.81V478.022H3107.15V1115.38H3266.49V478.022H3425.84V1115.38H3585.18V318.682H3505.51H3425.84ZM4063.2 318.682H3744.52V1115.38H3903.86V796.703H4063.2V1115.38H4222.54V318.682H4063.2ZM4063.2 557.693V637.363H3903.86V478.022H4063.2V557.693ZM4700.56 318.682H4381.88V1115.38H4541.22V796.703H4700.56V1115.38H4859.9V318.682H4700.56ZM4700.56 557.693V637.363H4541.22V478.022H4700.56V557.693ZM5337.92 956.044H5178.58V318.682H5019.24V1115.38H5497.26V956.044H5417.59H5337.92ZM6054.96 956.044H5815.94V318.682H5656.6V1115.38H6134.63V956.044H6054.96Z" fill="#820082"/>
<path d="M3346.14 239.01H2708.78V1035.71H2868.12V398.35H3027.46V1035.71H3186.8V398.35H3346.14V1035.71H3505.48V239.01H3425.81H3346.14ZM3983.51 239.01H3664.83V1035.71H3824.17V717.032H3983.51V1035.71H4142.85V239.01H3983.51ZM3983.51 478.021V557.691H3824.17V398.35H3983.51V478.021ZM4620.87 239.01H4302.19V1035.71H4461.53V717.032H4620.87V1035.71H4780.21V239.01H4620.87ZM4620.87 478.021V557.691H4461.53V398.35H4620.87V478.021ZM5258.23 876.372H5098.89V239.01H4939.55V1035.71H5417.57V876.372H5337.9H5258.23ZM5975.26 876.372H5736.25V239.01H5576.91V1035.71H6054.93V876.372H5975.26Z" fill="white"/>
<path d="M1115.38 4461.54H7807.69V2310.44H956.044V4461.54H1035.71H1115.38ZM7807.69 7090.66V5098.9H956.044V7090.66H796.703V7250H7967.03V7090.66H7887.36H7807.69ZM478.022 7090.66H318.681V7250H637.362V7090.66H557.692H478.022ZM0 7090.66V7250H159.341V7090.66H79.6703H0ZM8684.06 7090.66H8445.05V7250H8763.73V7090.66H8684.06ZM8126.37 7090.66V7250H8285.71V7090.66H8206.04H8126.37Z" fill="black"/>
<path d="M2469.78 2469.78H1274.72V4302.19H2629.12V2469.78H2549.45H2469.78ZM7409.34 2469.78H6134.61V4302.19H7489.01V2469.78H7409.34ZM5656.59 2469.78H4541.21V4302.19H5815.93V2469.78H5736.26H5656.59ZM2469.78 5258.24H1274.72V6931.31H2629.12V5258.24H2549.45H2469.78ZM7329.67 5258.24H6134.61V6931.31H7489.01V5258.24H7409.34H7329.67ZM4142.85 5258.24H2947.8V6931.31H4302.2V5258.24H4142.85ZM5656.59 5258.24H4461.54V6931.31H5815.93V5258.24H5656.59ZM3107.14 4302.19H4222.52V2469.78H2947.8V4302.19H3027.47H3107.14Z" fill="#37F4F1"/>
<path d="M2469.79 3107.14V4302.2H2629.13V3107.14H2549.46H2469.79ZM4222.54 4302.2V3107.14H4063.2V4302.2H4142.87H4222.54ZM5656.6 3107.14V4302.2H5815.94V3107.14H5736.27H5656.6ZM7409.35 3107.14H7329.68V4302.2H7489.02V3107.14H7409.35ZM2469.79 5736.26V6931.32H2629.13V5736.26H2549.46H2469.79ZM7329.68 5736.26V6931.32H7489.02V5736.26H7409.35H7329.68ZM4142.87 5736.26V6931.32H4302.21V5736.26H4222.54H4142.87ZM5656.6 5736.26V6931.32H5815.94V5736.26H5736.27H5656.6ZM6891.49 6054.94H6971.16V6134.61H6891.49V6054.94Z" fill="#96FAF8"/>
<path d="M6811.83 6134.61H6891.5V6214.28H6811.83V6134.61ZM7050.84 5895.6H7130.51V5975.27H7050.84V5895.6Z" fill="#96FAF8"/>
<path d="M6971.18 5975.27H7050.85V6054.94H6971.18V5975.27ZM6572.83 6373.62H6652.5V6453.29H6572.83V6373.62Z" fill="#96FAF8"/>
<path d="M6493.14 6453.29H6572.81V6532.96H6493.14V6453.29ZM6732.15 6214.28H6811.82V6293.95H6732.15V6214.28Z" fill="#96FAF8"/>
<path d="M6652.5 6293.96H6732.17V6373.63H6652.5V6293.96ZM6811.84 6293.96H6891.51V6373.63H6811.84V6293.96Z" fill="#96FAF8"/>
<path d="M6732.16 6373.62H6811.83V6453.29H6732.16V6373.62ZM6971.17 6134.61H7050.85V6214.28H6971.17V6134.61Z" fill="#96FAF8"/>
<path d="M6891.49 6214.29H6971.16V6293.96H6891.49V6214.29ZM5218.41 6054.95H5298.08V6134.62H5218.41V6054.95Z" fill="#96FAF8"/>
<path d="M5138.75 6134.61H5218.42V6214.28H5138.75V6134.61ZM5377.76 5895.6H5457.43V5975.27H5377.76V5895.6Z" fill="#96FAF8"/>
<path d="M5298.11 5975.27H5377.78V6054.94H5298.11V5975.27ZM4899.75 6373.62H4979.42V6453.29H4899.75V6373.62Z" fill="#96FAF8"/>
<path d="M4820.06 6453.29H4899.73V6532.96H4820.06V6453.29ZM5059.07 6214.28H5138.74V6293.95H5059.07V6214.28Z" fill="#96FAF8"/>
<path d="M4979.42 6293.96H5059.09V6373.63H4979.42V6293.96ZM5138.76 6293.96H5218.43V6373.63H5138.76V6293.96Z" fill="#96FAF8"/>
<path d="M5059.09 6373.62H5138.76V6453.29H5059.09V6373.62ZM5298.1 6134.61H5377.77V6214.28H5298.1V6134.61Z" fill="#96FAF8"/>
<path d="M5218.43 6214.29H5298.1V6293.96H5218.43V6214.29ZM3704.7 6054.95H3784.37V6134.62H3704.7V6054.95Z" fill="#96FAF8"/>
<path d="M3625.03 6134.61H3704.7V6214.28H3625.03V6134.61ZM3864.04 5895.6H3943.71V5975.27H3864.04V5895.6Z" fill="#96FAF8"/>
<path d="M3784.36 5975.27H3864.03V6054.94H3784.36V5975.27ZM3386 6373.62H3465.67V6453.29H3386V6373.62Z" fill="#96FAF8"/>
<path d="M3306.34 6453.29H3386.01V6532.96H3306.34V6453.29ZM3545.35 6214.28H3625.02V6293.95H3545.35V6214.28Z" fill="#96FAF8"/>
<path d="M3465.67 6293.96H3545.34V6373.63H3465.67V6293.96ZM3625.01 6293.96H3704.68V6373.63H3625.01V6293.96Z" fill="#96FAF8"/>
<path d="M3545.34 6373.62H3625.01V6453.29H3545.34V6373.62ZM3784.35 6134.61H3864.02V6214.28H3784.35V6134.61Z" fill="#96FAF8"/>
<path d="M3704.69 6214.29H3784.36V6293.96H3704.69V6214.29ZM2031.62 6054.95H2111.29V6134.62H2031.62V6054.95Z" fill="#96FAF8"/>
<path d="M1951.95 6134.61H2031.62V6214.28H1951.95V6134.61ZM2190.96 5895.6H2270.63V5975.27H2190.96V5895.6Z" fill="#96FAF8"/>
<path d="M2111.28 5975.27H2190.95V6054.94H2111.28V5975.27ZM1712.93 6373.62H1792.6V6453.29H1712.93V6373.62Z" fill="#96FAF8"/>
<path d="M1633.26 6453.29H1712.93V6532.96H1633.26V6453.29ZM1872.27 6214.28H1951.94V6293.95H1872.27V6214.28Z" fill="#96FAF8"/>
<path d="M1792.59 6293.95H1872.26V6373.62H1792.59V6293.95ZM1951.93 6293.95H2031.6V6373.62H1951.93V6293.95Z" fill="#96FAF8"/>
<path d="M1872.29 6373.62H1951.96V6453.29H1872.29V6373.62ZM2111.3 6134.61H2190.97V6214.28H2111.3V6134.61Z" fill="#96FAF8"/>
<path d="M2031.62 6214.28H2111.29V6293.95H2031.62V6214.28ZM6891.51 3425.82H6971.18V3505.49H6891.51V3425.82Z" fill="#96FAF8"/>
<path d="M6811.83 3505.49H6891.5V3585.16H6811.83V3505.49ZM7050.84 3266.48H7130.51V3346.15H7050.84V3266.48Z" fill="#96FAF8"/>
<path d="M6971.18 3346.15H7050.85V3425.82H6971.18V3346.15ZM6572.83 3744.5H6652.5V3824.17H6572.83V3744.5Z" fill="#96FAF8"/>
<path d="M6493.14 3824.17H6572.81V3903.84H6493.14V3824.17ZM6732.15 3585.16H6811.82V3664.83H6732.15V3585.16Z" fill="#96FAF8"/>
<path d="M6652.5 3664.83H6732.17V3744.5H6652.5V3664.83ZM6811.84 3664.83H6891.51V3744.5H6811.84V3664.83Z" fill="#96FAF8"/>
<path d="M6732.16 3744.51H6811.83V3824.18H6732.16V3744.51ZM6971.17 3505.49H7050.84V3585.16H6971.17V3505.49Z" fill="#96FAF8"/>
<path d="M6891.49 3585.16H6971.16V3664.83H6891.49V3585.16ZM5218.41 3425.82H5298.08V3505.49H5218.41V3425.82Z" fill="#96FAF8"/>
<path d="M5138.75 3505.49H5218.42V3585.16H5138.75V3505.49ZM5377.76 3266.48H5457.43V3346.15H5377.76V3266.48Z" fill="#96FAF8"/>
<path d="M5298.11 3346.15H5377.78V3425.82H5298.11V3346.15ZM4899.75 3744.5H4979.42V3824.17H4899.75V3744.5Z" fill="#96FAF8"/>
<path d="M4820.06 3824.17H4899.73V3903.84H4820.06V3824.17ZM5059.07 3585.16H5138.74V3664.83H5059.07V3585.16Z" fill="#96FAF8"/>
<path d="M4979.42 3664.83H5059.09V3744.5H4979.42V3664.83ZM5138.76 3664.83H5218.43V3744.5H5138.76V3664.83Z" fill="#96FAF8"/>
<path d="M5059.09 3744.51H5138.76V3824.18H5059.09V3744.51ZM5298.1 3505.49H5377.77V3585.16H5298.1V3505.49Z" fill="#96FAF8"/>
<path d="M5218.43 3585.16H5298.1V3664.83H5218.43V3585.16ZM3704.7 3425.82H3784.37V3505.49H3704.7V3425.82Z" fill="#96FAF8"/>
<path d="M3625.03 3505.49H3704.7V3585.16H3625.03V3505.49ZM3864.04 3266.48H3943.71V3346.15H3864.04V3266.48Z" fill="#96FAF8"/>
<path d="M3784.36 3346.15H3864.03V3425.82H3784.36V3346.15ZM3386 3744.5H3465.67V3824.17H3386V3744.5Z" fill="#96FAF8"/>
<path d="M3306.34 3824.17H3386.01V3903.84H3306.34V3824.17ZM3545.35 3585.16H3625.02V3664.83H3545.35V3585.16Z" fill="#96FAF8"/>
<path d="M3465.67 3664.83H3545.34V3744.5H3465.67V3664.83ZM3625.01 3664.83H3704.68V3744.5H3625.01V3664.83Z" fill="#96FAF8"/>
<path d="M3545.34 3744.51H3625.01V3824.18H3545.34V3744.51ZM3784.35 3505.49H3864.02V3585.16H3784.35V3505.49Z" fill="#96FAF8"/>
<path d="M3704.69 3585.16H3784.36V3664.83H3704.69V3585.16ZM2031.62 3425.82H2111.29V3505.49H2031.62V3425.82Z" fill="#96FAF8"/>
<path d="M1951.95 3505.49H2031.62V3585.16H1951.95V3505.49ZM2190.96 3266.48H2270.63V3346.15H2190.96V3266.48Z" fill="#96FAF8"/>
<path d="M2111.28 3346.15H2190.95V3425.82H2111.28V3346.15ZM1712.93 3744.5H1792.6V3824.17H1712.93V3744.5Z" fill="#96FAF8"/>
<path d="M1633.26 3824.17H1712.93V3903.84H1633.26V3824.17ZM1872.27 3585.16H1951.94V3664.83H1872.27V3585.16Z" fill="#96FAF8"/>
<path d="M1792.59 3664.83H1872.26V3744.5H1792.59V3664.83ZM1951.93 3664.83H2031.6V3744.5H1951.93V3664.83Z" fill="#96FAF8"/>
<path d="M1872.29 3744.51H1951.96V3824.18H1872.29V3744.51ZM2111.3 3505.49H2190.97V3585.16H2111.3V3505.49Z" fill="#96FAF8"/>
<path d="M2031.62 3585.16H2111.29V3664.83H2031.62V3585.16Z" fill="#96FAF8"/>
<path d="M2469.78 2469.78H1274.72V3107.14H2629.12V2469.78H2549.45H2469.78ZM7409.34 2469.78H6134.61V3107.14H7489.01V2469.78H7409.34ZM5656.59 2469.78H4541.21V3107.14H5815.93V2469.78H5736.26H5656.59ZM2469.78 5258.24H1274.72V5736.26H2629.12V5258.24H2549.45H2469.78ZM7329.67 5258.24H6134.61V5736.26H7489.01V5258.24H7409.34H7329.67ZM4142.85 5258.24H2947.8V5736.26H4302.2V5258.24H4222.52H4142.85ZM5656.59 5258.24H4461.54V5736.26H5815.93V5258.24H5736.26H5656.59ZM3107.14 3107.14H4222.52V2469.78H2947.8V3107.14H3027.47H3107.14Z" fill="#04B7BD"/>
<path d="M2469.79 2469.78V3107.14H2629.13V2469.78H2549.46H2469.79ZM7409.34 2469.78H7329.67V3107.14H7489.01V2469.78H7409.34ZM5656.6 2469.78V3107.14H5815.94V2469.78H5736.27H5656.6ZM4222.53 3107.14V2469.78H4063.19V3107.14H4142.86H4222.53ZM2469.79 5258.24V5736.26H2629.13V5258.24H2549.46H2469.79ZM7329.67 5258.24V5736.26H7489.01V5258.24H7409.34H7329.67ZM4142.86 5258.24V5736.26H4302.2V5258.24H4222.53H4142.86ZM5656.6 5258.24V5736.26H5815.94V5258.24H5736.27H5656.6Z" fill="#62D2D6"/>
<path d="M4620.88 5975.27V6293.95H4700.55V5975.27H4620.88ZM4063.19 6054.94V6293.95H4142.86V5975.27H4063.19V6054.94ZM8285.71 4541.21H8206.04V4461.53H8126.37V4381.86H637.363V4461.53H557.692V4541.21H478.022V4620.88H398.352V5258.24H478.022V5337.91H557.692V5417.58H637.363V5497.25H956.044V5417.58H1035.71V5337.91H1115.38V5258.24H1195.05V5337.91H1274.73V5417.58H1354.4V5497.25H1673.08V5417.58H1752.75V5337.91H1832.42V5258.24H1912.09V5337.91H1991.76V5417.58H2071.43V5497.25H2390.11V5417.58H2469.78V5337.91H2549.45V5258.24H2629.12V5337.91H2708.79V5417.58H2788.46V5497.25H3107.14V5417.58H3186.81V5337.91H3266.48V5258.24H3346.15V5337.91H3425.82V5417.58H3505.49V5497.25H3824.18V5417.58H3903.85V5337.91H3983.52V5258.24H4063.19V5337.91H4142.86V5417.58H4222.53V5497.25H4541.21V5417.58H4620.88V5337.91H4700.55V5258.24H4780.22V5337.91H4859.89V5417.58H4939.56V5497.25H5258.24V5417.58H5337.91V5337.91H5417.58V5258.24H5497.25V5337.91H5576.92V5417.58H5656.59V5497.25H5975.27V5417.58H6054.94V5337.91H6134.61V5258.24H6214.28V5337.91H6293.96V5417.58H6373.63V5497.25H6692.31V5417.58H6771.98V5337.91H6851.65V5258.24H6931.32V5337.91H7010.99V5417.58H7090.66V5497.25H7409.34V5417.58H7489.01V5337.91H7568.68V5258.24H7648.35V5337.91H7728.02V5417.58H7807.69V5497.25H8126.37V5417.58H8206.04V5337.91H8285.71V5258.24H8365.38V4620.88H8285.71V4541.21ZM8285.71 1991.76V1912.08H8206.04V1832.41H8126.37V1752.74H637.363V1832.41H557.692V1912.08H478.022V1991.76H398.352V2629.12H478.022V2708.79H557.692V2788.46H637.363V2868.13H956.044V2788.46H1035.71V2708.79H1115.38V2629.12H1195.05V2708.79H1274.73V2788.46H1354.4V2868.13H1673.08V2788.46H1752.75V2708.79H1832.42V2629.12H1912.09V2708.79H1991.76V2788.46H2071.43V2868.13H2390.11V2788.46H2469.78V2708.79H2549.45V2629.12H2629.12V2708.79H2708.79V2788.46H2788.46V2868.13H3107.14V2788.46H3186.81V2708.79H3266.48V2629.12H3346.15V2708.79H3425.82V2788.46H3505.49V2868.13H3824.18V2788.46H3903.85V2708.79H3983.52V2629.12H4063.19V2708.79H4142.86V2788.46H4222.53V2868.13H4541.21V2788.46H4620.88V2708.79H4700.55V2629.12H4780.22V2708.79H4859.89V2788.46H4939.56V2868.13H5258.24V2788.46H5337.91V2708.79H5417.58V2629.12H5497.25V2708.79H5576.92V2788.46H5656.59V2868.13H5975.27V2788.46H6054.94V2708.79H6134.61V2629.12H6214.28V2708.79H6293.96V2788.46H6373.63V2868.13H6692.31V2788.46H6771.98V2708.79H6851.65V2629.12H6931.32V2708.79H7010.99V2788.46H7090.66V2868.13H7409.34V2788.46H7489.01V2708.79H7568.68V2629.12H7648.35V2708.79H7728.02V2788.46H7807.69V2868.13H8126.37V2788.46H8206.04V2708.79H8285.71V2629.12H8365.38V1991.76H8285.71Z" fill="black"/>
<path d="M956.041 5098.9H478.02V5258.24H557.69V5337.91H637.36V5417.58H956.041V5337.91H1035.71V5258.24H1115.38V5098.9H1035.71H956.041Z" fill="#37F4F1"/>
<path d="M2390.1 5098.9H1912.07V5258.24H1991.74V5337.91H2071.41V5417.58H2390.1V5337.91H2469.77V5258.24H2549.44V5098.9H2469.77H2390.1Z" fill="#37F4F1"/>
<path d="M3824.18 5098.9H3346.16V5258.24H3425.83V5337.91H3505.5V5417.58H3824.18V5337.91H3903.85V5258.24H3983.52V5098.9H3903.85H3824.18Z" fill="#37F4F1"/>
<path d="M5258.24 5098.9H4780.21V5258.24H4859.89V5337.91H4939.56V5417.58H5258.24V5337.91H5337.91V5258.24H5417.58V5098.9H5337.91H5258.24Z" fill="#37F4F1"/>
<path d="M6692.29 5098.9H6214.27V5258.24H6293.94V5337.91H6373.61V5417.58H6692.29V5337.91H6771.96V5258.24H6851.63V5098.9H6771.96H6692.29Z" fill="#37F4F1"/>
<path d="M8206.04 5098.9H7648.35V5258.24H7728.02V5337.91H7807.69V5417.58H8126.37V5337.91H8206.04V5258.24H8285.71V5098.9H8206.04Z" fill="#37F4F1"/>
<path d="M1673.08 2469.78H1195.06V2629.12H1274.73V2708.79H1354.4V2788.46H1673.08V2708.79H1752.75V2629.12H1832.42V2469.78H1752.75H1673.08Z" fill="#37F4F1"/>
<path d="M3107.14 2469.78H2629.12V2629.12H2708.79V2708.79H2788.46V2788.46H3107.14V2708.79H3186.81V2629.12H3266.48V2469.78H3186.81H3107.14Z" fill="#37F4F1"/>
<path d="M4541.19 2469.78H4063.17V2629.12H4142.84V2708.79H4222.51V2788.46H4541.19V2708.79H4620.86V2629.12H4700.53V2469.78H4620.86H4541.19Z" fill="#37F4F1"/>
<path d="M5975.28 2469.78H5497.25V2629.12H5576.92V2708.79H5656.59V2788.46H5975.28V2708.79H6054.95V2629.12H6134.62V2469.78H6054.95H5975.28Z" fill="#37F4F1"/>
<path d="M7409.33 2469.78H6931.31V2629.12H7010.98V2708.79H7090.65V2788.46H7409.33V2708.79H7489V2629.12H7568.67V2469.78H7489H7409.33Z" fill="#37F4F1"/>
<path d="M1673.08 5098.9H1195.06V5258.24H1274.73V5337.91H1354.4V5417.58H1673.08V5337.91H1752.75V5258.24H1832.42V5098.9H1752.75H1673.08Z" fill="#FF00FF"/>
<path d="M3107.14 5098.9H2629.12V5258.24H2708.79V5337.91H2788.46V5417.58H3107.14V5337.91H3186.81V5258.24H3266.48V5098.9H3186.81H3107.14Z" fill="#FF00FF"/>
<path d="M4541.22 5098.9H4063.2V5258.24H4142.87V5337.91H4222.54V5417.58H4541.22V5337.91H4620.89V5258.24H4700.56V5098.9H4620.89H4541.22Z" fill="#FF00FF"/>
<path d="M5975.28 5098.9H5497.25V5258.24H5576.92V5337.91H5656.59V5417.58H5975.28V5337.91H6054.95V5258.24H6134.62V5098.9H6054.95H5975.28Z" fill="#FF00FF"/>
<path d="M7409.33 5098.9H6931.31V5258.24H7010.98V5337.91H7090.65V5417.58H7409.33V5337.91H7489V5258.24H7568.67V5098.9H7489H7409.33Z" fill="#FF00FF"/>
<path d="M956.041 2469.78H478.02V2629.12H557.69V2708.79H637.36V2788.46H956.041V2708.79H1035.71V2629.12H1115.38V2469.78H1035.71H956.041Z" fill="#FF00FF"/>
<path d="M2390.1 2469.78H1912.07V2629.12H1991.74V2708.79H2071.41V2788.46H2390.1V2708.79H2469.77V2629.12H2549.44V2469.78H2469.77H2390.1Z" fill="#FF00FF"/>
<path d="M3824.18 2469.78H3346.16V2629.12H3425.83V2708.79H3505.5V2788.46H3824.18V2708.79H3903.85V2629.12H3983.52V2469.78H3903.85H3824.18Z" fill="#FF00FF"/>
<path d="M5258.24 2469.78H4780.21V2629.12H4859.89V2708.79H4939.56V2788.46H5258.24V2708.79H5337.91V2629.12H5417.58V2469.78H5337.91H5258.24Z" fill="#FF00FF"/>
<path d="M6692.32 2469.78H6214.3V2629.12H6293.97V2708.79H6373.64V2788.46H6692.32V2708.79H6771.99V2629.12H6851.66V2469.78H6771.99H6692.32Z" fill="#FF00FF"/>
<path d="M8206.04 2469.78H7648.35V2629.12H7728.02V2708.79H7807.69V2788.46H8126.37V2708.79H8206.04V2629.12H8285.71V2469.78H8206.04Z" fill="#FF00FF"/>
<path d="M8126.36 4461.54H637.354V4541.21H557.684V4620.88H8206.03V4541.21H8126.36V4461.54ZM8126.36 1912.09V1832.42H637.354V1912.09H557.684V1991.76H8206.03V1912.09H8126.36Z" fill="#610061"/>
<path d="M8126.37 4700.55H478.02V5019.23H8285.71V4700.55H8206.04H8126.37ZM8206.04 2071.42H478.02V2390.11H8285.71V2071.42H8206.04Z" fill="#820082"/>
<path d="M1912.11 4700.55H1832.44V5019.23H2071.45V4859.89H1991.78V4939.56H1912.11V4780.22H2071.45V4700.55H1991.78H1912.11ZM2230.79 4700.55H2151.12V5019.23H2390.13V4700.55H2230.79ZM2310.46 4859.89V4939.56H2230.79V4780.22H2310.46V4859.89ZM2549.47 4700.55H2469.8V4780.22H2549.47V5019.23H2629.14V4780.22H2708.81V4700.55H2629.14H2549.47ZM2868.15 4700.55H2788.48V5019.23H3027.49V4939.56H2868.15V4780.22H3027.49V4700.55H2947.82H2868.15ZM3266.5 4780.22V4859.89H3186.83V4700.55H3107.16V5019.23H3186.83V4939.56H3266.5V5019.23H3346.17V4700.55H3266.5V4780.22ZM3425.84 4780.22V5019.23H3505.51V4700.55H3425.84V4780.22ZM4063.21 4700.55H3983.54V4859.89H4063.21V4780.22H4222.55V4700.55H4142.88H4063.21ZM4461.56 4780.22V4859.89H4381.89V4700.55H4302.22V5019.23H4381.89V4939.56H4461.56V5019.23H4541.23V4700.55H4461.56V4780.22Z" fill="#FF00FF"/>
<path d="M4700.56 4700.55H4620.89V5019.23H4859.9V4700.55H4700.56ZM4780.23 4859.89V4939.56H4700.56V4780.22H4780.23V4859.89ZM3983.53 4939.56V5019.23H4222.54V4859.89H4063.2V4939.56H3983.53ZM5019.24 4700.55H4939.57V5019.23H5019.24V4939.56H5178.58V4700.55H5019.24ZM5098.91 4859.89H5019.24V4780.22H5098.91V4859.89ZM3664.85 4859.89H3744.52V4939.56H3664.85V4859.89Z" fill="#FF00FF"/>
<path d="M3744.51 4780.22H3824.18V4859.89H3744.51V4780.22ZM5337.92 4859.89H5417.59V4939.56H5337.92V4859.89Z" fill="#FF00FF"/>
<path d="M5417.59 4780.22H5497.26V4859.89H5417.59V4780.22ZM5736.27 4700.55H5656.6V4780.22H5815.94V4859.89H5895.61V4700.55H5815.94H5736.27ZM6134.62 4780.22V4859.89H6054.95V4700.55H5975.28V4939.56H6134.62V5019.23H6214.29V4700.55H6134.62V4780.22ZM6453.3 4780.22H6532.97V4859.89H6453.3V4780.22Z" fill="#FF00FF"/>
<path d="M6532.99 4700.55H6612.66V4780.22H6532.99V4700.55ZM5656.61 4859.89V5019.23H5895.62V4939.56H5815.95V4859.89H5736.28H5656.61ZM6373.65 4859.89H6453.32V4939.56H6373.65V4859.89Z" fill="#FF00FF"/>
<path d="M6293.96 4939.56H6373.63V5019.23H6293.96V4939.56ZM6851.65 4700.55H6692.31V4780.22H6851.65V4859.89H6931.32V4700.55H6851.65Z" fill="#FF00FF"/>
<path d="M6772.01 4859.89H6851.68V4939.56H6772.01V4859.89Z" fill="#FF00FF"/>
<path d="M6692.32 4939.56H6771.99V5019.23H6692.32V4939.56ZM2987.65 2071.43H3067.32V2151.1H2987.65V2071.43ZM3306.33 2071.43H3386V2151.1H3306.33V2071.43ZM3704.69 2151.1V2310.44H3784.36V2071.43H3704.69V2151.1ZM3943.7 2071.43H3864.03V2390.11H4103.04V2310.44H4023.37V2230.77H3943.7V2151.1H4023.37V2230.77H4103.04V2071.43H4023.37H3943.7ZM4262.38 2071.43H4182.71V2390.11H4421.72V2230.77H4342.05V2310.44H4262.38V2151.1H4421.72V2071.43H4342.05H4262.38ZM4581.06 2071.43H4501.39V2390.11H4740.4V2071.43H4581.06ZM4660.73 2230.77V2310.44H4581.06V2151.1H4660.73V2230.77ZM4899.74 2071.43H4820.07V2151.1H4899.74V2390.11H4979.41V2151.1H5059.08V2071.43H4979.41H4899.74Z" fill="#FF00FF"/>
<path d="M5218.41 2071.43H5138.74V2390.11H5377.76V2310.44H5218.41V2151.1H5377.76V2071.43H5298.08H5218.41ZM5616.77 2151.1V2230.77H5537.1V2071.43H5457.43V2390.11H5537.1V2310.44H5616.77V2390.11H5696.44V2071.43H5616.77V2151.1ZM5776.11 2151.1V2390.11H5855.78V2071.43H5776.11V2151.1ZM3625.01 2310.44H3704.68V2390.11H3625.01V2310.44ZM2668.96 2230.77H2748.64V2310.44H2668.96V2230.77Z" fill="#FF00FF"/>
<path d="M2589.32 2151.1H2668.99V2230.78H2589.32V2151.1ZM2350.3 2230.78H2429.97V2310.45H2350.3V2230.78Z" fill="#FF00FF"/>
<path d="M2270.62 2151.1H2350.29V2230.78H2270.62V2151.1ZM2031.61 2230.78H2111.28V2310.45H2031.61V2230.78Z" fill="#FF00FF"/>
<path d="M1951.95 2151.1H2031.62V2230.77H1951.95V2151.1ZM3067.33 2230.77H2987.66V2151.1H2907.99V2390.11H2987.66V2310.44H3067.33V2390.11H3147V2151.1H3067.33V2230.77ZM3386.01 2230.77H3306.34V2151.1H3226.67V2390.11H3306.34V2310.44H3386.01V2390.11H3465.69V2151.1H3386.01V2230.77ZM3625.03 2151.1V2071.43H3545.36V2310.44H3625.03V2230.77V2151.1ZM6015.14 2230.77H6094.81V2310.44H6015.14V2230.77Z" fill="#FF00FF"/>
<path d="M6094.81 2151.1H6174.48V2230.78H6094.81V2151.1ZM6333.82 2230.78H6413.49V2310.45H6333.82V2230.78Z" fill="#FF00FF"/>
<path d="M6413.48 2151.1H6493.15V2230.78H6413.48V2151.1ZM6652.49 2230.78H6732.16V2310.45H6652.49V2230.78Z" fill="#FF00FF"/>
<path d="M6732.16 2151.1H6811.83V2230.78H6732.16V2151.1Z" fill="#FF00FF"/>
</svg>
