<svg width="500" height="389" viewBox="0 0 500 389" fill="none" xmlns="http://www.w3.org/2000/svg">
<path d="M490.741 46.2963V37.037H481.481H472.222V27.7778H462.963H453.704V18.5185H444.444H435.185V9.25926H425.926H416.667V0H407.407V9.25926H398.148H388.889V18.5185H379.63H370.37V27.7778H361.111H351.852V37.037H342.593H333.333V46.2963H324.074V55.5556H333.333V64.8148H342.593H351.852V74.0741H361.111H370.37V83.3333H379.63H388.889V92.5926H398.148H407.407V101.852H416.667V92.5926H425.926H435.185V83.3333H444.444H453.704V74.0741H462.963H472.222V64.8148H481.481H490.741V55.5556H500V46.2963H490.741Z" fill="#2B6DEF"/>
<path d="M314.815 111.111H305.556H296.296V101.852H287.037H277.778V92.5926H268.519H259.259V83.3333H250H240.741V74.0741H231.481H222.222V64.8148H212.963H203.704V55.5556H194.444H185.185V46.2963H175.926H166.667V37.037H157.407H148.148V27.7778H138.889H129.63V18.5185H120.37H111.111V9.25926H101.852H92.5926V0H83.3333V9.25926H74.0741H64.8148V18.5185H55.5556H46.2963V27.7778H37.037H27.7778V37.037H18.5185H9.25926V46.2963H0V55.5556H9.25926V64.8148H18.5185H27.7778V74.0741H37.037H46.2963V83.3333H55.5556H64.8148V92.5926H74.0741H83.3333V101.852H92.5926H101.852V111.111H111.111H120.37V120.37H129.63H138.889V129.63H148.148H157.407V138.889H166.667H175.926V148.148H185.185H194.444V157.407H203.704H212.963V166.667H222.222H231.481V175.926H240.741H250V185.185H259.259H268.519V175.926H277.778V166.667H287.037V157.407H296.296V148.148H305.556V138.889H314.815V129.63H324.074V120.37H314.815V111.111Z" fill="#2B6DEF"/>
<path d="M398.148 92.5926H388.889V83.3333H379.63H370.37V74.0741H361.111H351.852V64.8148H342.593H333.333V55.5556H324.074V64.8148V74.0741V83.3333V92.5926V101.852V111.111V120.37V129.63V138.889V148.148V157.407V166.667V175.926V185.185V194.444V203.704V212.963V222.222V231.481V240.741V250V259.259V268.519V277.778V287.037V296.296V305.556V314.815V324.074V333.333V342.593H333.333V351.852H342.593H351.852V361.111H361.111H370.37V370.37H379.63H388.889V379.63H398.148H407.407V370.37V361.111V351.852V342.593V333.333V324.074V314.815V305.556V296.296V287.037V277.778V268.519V259.259V250V240.741V231.481V222.222V212.963V203.704V194.444V185.185V175.926V166.667V157.407V148.148V138.889V129.63V120.37V111.111V101.852V92.5926H398.148Z" fill="#2891F9"/>
<path d="M398.148 92.5926H388.889V83.3333H379.63H370.37V74.0741H361.111H351.852V64.8148H342.593H333.333V55.5556H324.074V64.8148V74.0741V83.3333V92.5926V101.852V111.111V120.37V129.63V138.889V148.148V157.407V166.667V175.926V185.185V194.444V203.704V212.963V222.222V231.481V240.741V250V259.259V268.519V277.778V287.037V296.296V305.556V314.815V324.074V333.333V342.593H333.333V351.852H342.593H351.852V361.111H361.111H370.37V370.37H379.63H388.889V379.63H398.148H407.407V370.37V361.111V351.852V342.593V333.333V324.074V314.815V305.556V296.296V287.037V277.778V268.519V259.259V250V240.741V231.481V222.222V212.963V203.704V194.444V185.185V175.926V166.667V157.407V148.148V138.889V129.63V120.37V111.111V101.852V92.5926H398.148Z" fill="#2891F9"/>
<path d="M398.148 92.5926H388.889V83.3333H379.63H370.37V74.0741H361.111H351.852V64.8148H342.593H333.333V55.5556H324.074V64.8148V74.0741V83.3333V92.5926V101.852V111.111V120.37V129.63V138.889V148.148V157.407V166.667V175.926V185.185V194.444V203.704V212.963V222.222V231.481V240.741V250V259.259V268.519V277.778V287.037V296.296V305.556V314.815V324.074V333.333V342.593H333.333V351.852H342.593H351.852V361.111H361.111H370.37V370.37H379.63H388.889V379.63H398.148H407.407V370.37V361.111V351.852V342.593V333.333V324.074V314.815V305.556V296.296V287.037V277.778V268.519V259.259V250V240.741V231.481V222.222V212.963V203.704V194.444V185.185V175.926V166.667V157.407V148.148V138.889V129.63V120.37V111.111V101.852V92.5926H398.148Z" fill="#2891F9"/>
<path d="M398.148 92.5926H388.889V83.3333H379.63H370.37V74.0741H361.111H351.852V64.8148H342.593H333.333V55.5556H324.074V64.8148V74.0741V83.3333V92.5926V101.852V111.111V120.37V129.63V138.889V148.148V157.407V166.667V175.926V185.185V194.444V203.704V212.963V222.222V231.481V240.741V250V259.259V268.519V277.778V287.037V296.296V305.556V314.815V324.074V333.333V342.593H333.333V351.852H342.593H351.852V361.111H361.111H370.37V370.37H379.63H388.889V379.63H398.148H407.407V370.37V361.111V351.852V342.593V333.333V324.074V314.815V305.556V296.296V287.037V277.778V268.519V259.259V250V240.741V231.481V222.222V212.963V203.704V194.444V185.185V175.926V166.667V157.407V148.148V138.889V129.63V120.37V111.111V101.852V92.5926H398.148Z" fill="#2891F9"/>
<path d="M250 175.926H240.741H231.481V166.667H222.222H212.963V157.407H203.704H194.444V148.148H185.185H175.926V138.889H166.667H157.407V129.63H148.148H138.889V120.37H129.63H120.37V111.111H111.111H101.852V101.852H92.5926H83.3333V92.5926H74.0741H64.8148V83.3333H55.5556H46.2963V74.0741H37.037H27.7778V64.8148H18.5185H9.25926V55.5556H0V64.8148V74.0741V83.3333V92.5926V101.852V111.111V120.37V129.63V138.889V148.148V157.407V166.667V175.926V185.185V194.444V203.704V212.963V222.222V231.481V240.741V250V259.259V268.519V277.778V287.037V296.296V305.556V314.815V324.074V333.333V342.593H9.25926H18.5185V351.852H27.7778H37.037V361.111H46.2963H55.5556V370.37H64.8148H74.0741V379.63H83.3333H92.5926V370.37V361.111V351.852V342.593V333.333V324.074V314.815V305.556V296.296V287.037V277.778V268.519V259.259V250V240.741V231.481V222.222V212.963H101.852V222.222H111.111H120.37V231.481H129.63H138.889V240.741H148.148H157.407V250H166.667H175.926V259.259H185.185H194.444V268.519H203.704H212.963V277.778H222.222H231.481V287.037H240.741H250V296.296H259.259V287.037V277.778V268.519V259.259V250V240.741V231.481V222.222V212.963V203.704V194.444V185.185H250V175.926Z" fill="#2891F9"/>
<path d="M490.741 55.5556V64.8148H481.481H472.222V74.0741H462.963H453.704V83.3333H444.444H435.185V92.5926H425.926H416.667V101.852H407.407V111.111V120.37V129.63V138.889V148.148V157.407V166.667V175.926V185.185V194.444V203.704V212.963V222.222V231.481V240.741V250V259.259V268.519V277.778V287.037V296.296V305.556V314.815V324.074V333.333V342.593V351.852V361.111V370.37V379.63V388.889H416.667V379.63H425.926H435.185V370.37H444.444H453.704V361.111H462.963H472.222V351.852H481.481H490.741V342.593H500V333.333V324.074V314.815V305.556V296.296V287.037V277.778V268.519V259.259V250V240.741V231.481V222.222V212.963V203.704V194.444V185.185V175.926V166.667V157.407V148.148V138.889V129.63V120.37V111.111V101.852V92.5926V83.3333V74.0741V64.8148V55.5556H490.741Z" fill="#2BBDF7"/>
<path d="M175.926 250H166.667H157.407V240.741H148.148H138.889V231.481H129.63H120.37V222.222H111.111H101.852V212.963H92.5926V222.222V231.481V240.741V250V259.259V268.519V277.778V287.037V296.296V305.556V314.815V324.074V333.333V342.593V351.852V361.111V370.37V379.63V388.889H101.852V379.63H111.111H120.37V370.37H129.63H138.889V361.111H148.148H157.407V351.852H166.667H175.926V342.593H185.185V333.333V324.074V314.815V305.556V296.296V287.037V277.778V268.519V259.259H175.926V250Z" fill="#2BBDF7"/>
<path d="M314.815 138.889H305.556V148.148H296.296V157.407H287.037V166.667H277.778V175.926H268.519V185.185H259.259V194.444V203.704V212.963V222.222V231.481V240.741V250V259.259V268.519V277.778V287.037V296.296H268.519V287.037H277.778V277.778H287.037V268.519H296.296V259.259H305.556V250H314.815V240.741H324.074V231.481V222.222V212.963V203.704V194.444V185.185V175.926V166.667V157.407V148.148V138.889V129.63H314.815V138.889Z" fill="#2BBDF7"/>
</svg>
