<svg width="88" height="113" viewBox="0 0 88 113" fill="none" xmlns="http://www.w3.org/2000/svg">
<path d="M84.0423 0H80.0847H76.0106H72.0529H67.9788H64.0212H60.0635H55.9894H52.0317H48.0741H44H40.0423H35.9683H32.0106H28.0529H23.9788H20.0212H15.9471H11.9894H8.03175H3.95767H0V4.07407V8.03175V11.9894V16.0635V20.0212V24.0952V28.0529V32.0106V36.0847V40.0423V44.1164V48.0741V52.0318V56.1058V60.0635V64.1376V68.0952V72.0529V76.127V80.0847V84.0423V88.1164V92.0741V96.1482V100.106V104.063V108.138V112.095H3.95767H8.03175H11.9894H15.9471H20.0212H23.9788H28.0529H32.0106H35.9683H40.0423H44H48.0741H52.0317H55.9894H60.0635H64.0212H67.9788H72.0529H76.0106H80.0847H84.0423H88V108.138V104.063V100.106V96.1482V92.0741V88.1164V84.0423V80.0847V76.127V72.0529V68.0952V64.1376V60.0635V56.1058V52.0318V48.0741V44.1164V40.0423V36.0847V32.0106V28.0529V24.0952V20.0212V16.0635V11.9894V8.03175V4.07407V0H84.0423Z" fill="black"/>
<path d="M76.0106 8.03174H72.0529H67.9788H64.0212H60.0635H55.9894H52.0317H48.0741H44H40.0423H35.9682H32.0106H28.0529H23.9788H20.0212H15.9471H11.9894H8.03174V11.9894V16.0635V20.0212V24.0952V28.0529V32.0106V36.0846V40.0423V44.1164V48.0741V52.0317V56.1058V60.0635V64.1376V68.0952V72.0529V76.127V80.0846V84.0423V88.1164V92.0741V96.1481V100.106V104.063H11.9894H15.9471H20.0212H23.9788H28.0529H32.0106H35.9682H40.0423H44H48.0741H52.0317H55.9894H60.0635H64.0212H67.9788H72.0529H76.0106H80.0846V100.106V96.1481V92.0741V88.1164V84.0423V80.0846V76.127V72.0529V68.0952V64.1376V60.0635V56.1058V52.0317V48.0741V44.1164V40.0423V36.0846V32.0106V28.0529V24.0952V20.0212V16.0635V11.9894V8.03174H76.0106Z" fill="#FA34F3"/>
<path d="M15.9471 20.0212V24.0953V28.0529H20.0212H23.9788V24.0953V20.0212H20.0212H15.9471Z" fill="white"/>
<path d="M67.9788 20.0212H64.0211H60.0635H55.9894H52.0317H48.0741H44H40.0423H35.9682H32.0106V24.0953V28.0529H35.9682H40.0423H44H48.0741H52.0317H55.9894H60.0635H64.0211H67.9788H72.0529V24.0953V20.0212H67.9788Z" fill="white"/>
<path d="M15.9471 36.0847V40.0423V44.1164H20.0212H23.9788V40.0423V36.0847H20.0212H15.9471Z" fill="white"/>
<path d="M64.0211 36.0847H60.0635H55.9894H52.0317H48.0741H44H40.0423H35.9682H32.0106V40.0423V44.1164H35.9682H40.0423H44H48.0741H52.0317H55.9894H60.0635H64.0211H67.9788H72.0529V40.0423V36.0847H67.9788H64.0211Z" fill="white"/>
<path d="M15.9471 52.0318V56.1058V60.0635H20.0212H23.9788V56.1058V52.0318H20.0212H15.9471Z" fill="white"/>
<path d="M64.0211 52.0318H60.0635H55.9894H52.0317H48.0741H44H40.0423H35.9682H32.0106V56.1058V60.0635H35.9682H40.0423H44H48.0741H52.0317H55.9894H60.0635H64.0211H67.9788H72.0529V56.1058V52.0318H67.9788H64.0211Z" fill="white"/>
<path d="M15.9471 68.0953V72.0529V76.127H20.0212H23.9788V72.0529V68.0953H20.0212H15.9471Z" fill="white"/>
<path d="M64.0211 68.0953H60.0635H55.9894H52.0317H48.0741H44H40.0423H35.9682H32.0106V72.0529V76.127H35.9682H40.0423H44H48.0741H52.0317H55.9894H60.0635H64.0211H67.9788H72.0529V72.0529V68.0953H67.9788H64.0211Z" fill="white"/>
<path d="M15.9471 84.0423V88.1164V92.0741H20.0212H23.9788V88.1164V84.0423H20.0212H15.9471Z" fill="white"/>
<path d="M64.0211 84.0423H60.0635H55.9894H52.0317H48.0741H44H40.0423H35.9682H32.0106V88.1164V92.0741H35.9682H40.0423H44H48.0741H52.0317H55.9894H60.0635H64.0211H67.9788H72.0529V88.1164V84.0423H67.9788H64.0211Z" fill="white"/>
<path d="M76.0106 76.127H72.0529H67.9788H64.0212H60.0635H55.9894H52.0317H48.0741H44H40.0423H35.9682H32.0106H28.0529H23.9788H20.0212H15.9471H11.9894H8.03174V80.0847V84.0423V88.1164V92.0741H11.9894H15.9471V88.1164V84.0423H20.0212H23.9788V88.1164V92.0741H28.0529H32.0106V88.1164V84.0423H35.9682H40.0423H44H48.0741H52.0317H55.9894H60.0635H64.0212H67.9788H72.0529V88.1164V92.0741H76.0106H80.0846V88.1164V84.0423V80.0847V76.127H76.0106Z" fill="#8F17F9"/>
<path d="M76.0106 60.0635H72.0529H67.9788H64.0212H60.0635H55.9894H52.0317H48.0741H44H40.0423H35.9682H32.0106H28.0529H23.9788H20.0212H15.9471H11.9894H8.03174V64.1376V68.0952V72.0529V76.127H11.9894H15.9471V72.0529V68.0952H20.0212H23.9788V72.0529V76.127H28.0529H32.0106V72.0529V68.0952H35.9682H40.0423H44H48.0741H52.0317H55.9894H60.0635H64.0212H67.9788H72.0529V72.0529V76.127H76.0106H80.0846V72.0529V68.0952V64.1376V60.0635H76.0106Z" fill="#AC15F9"/>
<path d="M76.0106 36.0847H72.0529V40.0423V44.1164H67.9788H64.0212H60.0635H55.9894H52.0317H48.0741H44H40.0423H35.9682H32.0106V40.0423V36.0847H28.0529H23.9788V40.0423V44.1164H20.0212H15.9471V40.0423V36.0847H11.9894H8.03174V40.0423V44.1164V48.0741V52.0318V56.1058V60.0635H11.9894H15.9471V56.1058V52.0318H20.0212H23.9788V56.1058V60.0635H28.0529H32.0106V56.1058V52.0318H35.9682H40.0423H44H48.0741H52.0317H55.9894H60.0635H64.0212H67.9788H72.0529V56.1058V60.0635H76.0106H80.0846V56.1058V52.0318V48.0741V44.1164V40.0423V36.0847H76.0106Z" fill="#CF15F9"/>
<path d="M76.0106 92.0741H72.0529H67.9788H64.0212H60.0635H55.9894H52.0317H48.0741H44H40.0423H35.9682H32.0106H28.0529H23.9788H20.0212H15.9471H11.9894H8.03174V96.1482V100.106V104.064H11.9894H15.9471H20.0212H23.9788H28.0529H32.0106H35.9682H40.0423H44H48.0741H52.0317H55.9894H60.0635H64.0212H67.9788H72.0529H76.0106H80.0846V100.106V96.1482V92.0741H76.0106Z" fill="#7E18F8"/>
</svg>
