<svg width="108" height="128" viewBox="0 0 108 128" fill="none" xmlns="http://www.w3.org/2000/svg">
<path d="M104.557 114.252H101.222V110.917V107.582V104.139V100.804V97.469V94.1339V90.6913V87.3563V84.0213V80.6862H97.8873H94.5523V77.2436V73.9086V70.5736V67.2385H91.1097H87.7746V63.7959V60.4609V57.1259V53.7908H84.4396H81.1046V50.3482V47.0132H77.662H74.3269V43.6782V40.3431H77.662H81.1046V36.9005V33.5655H84.4396H87.7746V30.2304V26.8954H91.1097H94.5523V23.4528V20.1178H91.1097H87.7746V16.7827V13.4477H84.4396H81.1046H77.662H74.3269V10.0051V6.67006H70.9919H67.6569V3.33503V0H64.2143H60.8792H57.5442H54.2092H50.7666H47.4315H44.0965H40.7615V3.33503V6.67006H37.3188H33.9838V10.0051V13.4477H30.6488H27.3137H23.8711H20.5361V16.7827V20.1178H17.2011H13.866V23.4528V26.8954H17.2011H20.5361V30.2304V33.5655H23.8711H27.3137V36.9005V40.3431H30.6488H33.9838V43.6782V47.0132H30.6488H27.3137V50.3482V53.7908H23.8711H20.5361V57.1259V60.4609V63.7959V67.2385H17.2011H13.866V70.5736V73.9086V77.2436V80.6862H10.4234H7.0884V84.0213V87.3563V90.6913V94.1339V97.469V100.804V104.139V107.582V110.917V114.252H3.75336H0.418335V117.587V121.029V124.364V127.699H3.75336H7.0884H10.4234H13.866H17.2011H20.5361H23.8711H27.3137H30.6488H33.9838H37.3188H40.7615H44.0965H47.4315H50.7666H54.2092H57.5442H60.8792H64.2143H67.6569H70.9919H74.3269H77.662H81.1046H84.4396H87.7746H91.1097H94.5523H97.8873H101.222H104.557H108V124.364V121.029V117.587V114.252H104.557Z" fill="black"/>
<path d="M27.3137 26.8954V30.2304V33.5655H30.6488H33.9838V36.9005V40.3431H37.3188H40.7615H44.0965H47.4315H50.7666H54.2092H57.5442H60.8792H64.2143H67.6569H70.9919H74.3269V36.9005V33.5655H77.662H81.1046V30.2304V26.8954H84.4396H87.7746V23.4528V20.1178H84.4396H81.1046H77.662H74.3269V23.4528V26.8954H70.9919H67.6569V30.2304V33.5655H64.2143H60.8792V30.2304V26.8954H64.2143H67.6569V23.4528V20.1178V16.7827V13.4477V10.0051V6.67006H64.2143H60.8792H57.5442H54.2092H50.7666H47.4315H44.0965H40.7615V10.0051V13.4477V16.7827V20.1178V23.4528V26.8954H44.0965H47.4315V30.2304V33.5655H44.0965H40.7615V30.2304V26.8954H37.3188H33.9838V23.4528V20.1178H30.6488H27.3137H23.8711H20.5361V23.4528V26.8954H23.8711H27.3137Z" fill="#FA34F3"/>
<path d="M97.8873 114.252H94.5523V110.917V107.582V104.139V100.804V97.469V94.1339V90.6913V87.3563V84.0213V80.6862H91.1097H87.7746V77.2436V73.9086V70.5736V67.2385H84.4396H81.1046V63.7959V60.4609V57.1259V53.7908H77.662H74.3269V50.3482V47.0132H70.9919H67.6569H64.2143H60.8792H57.5442H54.2092H50.7665H47.4315H44.0965H40.7615H37.3188H33.9838V50.3482V53.7908H30.6488H27.3137V57.1259V60.4609V63.7959V67.2385H23.8711H20.5361V70.5736V73.9086V77.2436V80.6862H17.2011H13.866V84.0213V87.3563V90.6913V94.1339V97.469V100.804V104.139V107.582V110.917V114.252H10.4234H7.08839V117.587V121.029H10.4234H13.866H17.2011H20.5361V117.587H23.8711H27.3137V114.252V110.917H30.6488H33.9838V114.252V117.587V121.029H37.3188H40.7615H44.0965H47.4315H50.7665H54.2092H57.5442H60.8792H64.2143H67.6569H70.9919H74.3269H77.662H81.1046V117.587H77.662H74.3269V114.252V110.917H77.662H81.1046V114.252H84.4396H87.7746V117.587V121.029H91.1097H94.5523H97.8873H101.222V117.587V114.252H97.8873Z" fill="#FA34F3"/>
<path d="M84.4396 20.1178H81.1046H77.662H74.3269V23.4528V26.8954H70.9919H67.6569V30.2304V33.5655H64.2143H60.8792V30.2304V26.8954H64.2143H67.6569V23.4528V20.1178V16.7827V13.4477V10.0051V6.67006H64.2143H60.8792H57.5442H54.2092H50.7666H47.4315H44.0965H40.7615V10.0051V13.4477V16.7827V20.1178V23.4528V26.8954H44.0965H47.4315V30.2304V33.5655H44.0965H40.7615V30.2304V26.8954H37.3188H33.9838V23.4528V20.1178H30.6488H27.3137H23.8711H20.5361V23.4528V26.8954H23.8711H27.3137V30.2304V33.5655H30.6488H33.9838V36.9005V40.3431H37.3188H40.7615H44.0965H47.4315H50.7666H54.2092H57.5442H60.8792H64.2143H67.6569H70.9919H74.3269V36.9005V33.5655H77.662H81.1046V30.2304V26.8954H84.4396H87.7746V23.4528V20.1178H84.4396Z" fill="#FA34F3"/>
<path d="M77.662 53.7908H74.3269V50.3482V47.0132H70.9919H67.6569H64.2143H60.8792H57.5442H54.2092H50.7666H47.4315H44.0965H40.7615H37.3188H33.9838V50.3482V53.7908H30.6488H27.3138V57.1259V60.4609V63.7959V67.2385H30.6488H33.9838H37.3188H40.7615H44.0965H47.4315H50.7666H54.2092H57.5442H60.8792H64.2143H67.6569H70.9919H74.3269H77.662H81.1046V63.7959V60.4609V57.1259V53.7908H77.662Z" fill="#CF15F9"/>
<path d="M91.1097 80.6863H87.7746V77.2436V73.9086V70.5736V67.2385H84.4396H81.1046H77.662H74.3269H70.9919H67.6569H64.2143H60.8792H57.5442H54.2092H50.7666H47.4315H44.0965H40.7615H37.3188H33.9838H30.6488H27.3137H23.8711H20.5361V70.5736V73.9086V77.2436V80.6863H17.2011H13.866V84.0213V87.3563H17.2011H20.5361H23.8711H27.3137H30.6488H33.9838H37.3188H40.7615H44.0965H47.4315H50.7666H54.2092H57.5442H60.8792H64.2143H67.6569H70.9919H74.3269H77.662H81.1046H84.4396H87.7746H91.1097H94.5523V84.0213V80.6863H91.1097Z" fill="#AC15F9"/>
<path d="M91.1097 87.3563H87.7746H84.4396H81.1046H77.662H74.3269H70.9919H67.6569H64.2143H60.8792H57.5442H54.2092H50.7666H47.4315H44.0965H40.7615H37.3188H33.9838H30.6488H27.3137H23.8711H20.5361H17.2011H13.866V90.6914V94.134V97.469V100.804V104.139V107.582H17.2011H20.5361H23.8711H27.3137H30.6488H33.9838H37.3188H40.7615H44.0965H47.4315H50.7666H54.2092H57.5442H60.8792H64.2143H67.6569H70.9919H74.3269H77.662H81.1046H84.4396H87.7746H91.1097H94.5523V104.139V100.804V97.469V94.134V90.6914V87.3563H91.1097Z" fill="#8F17F9"/>
<path d="M97.8873 114.252H94.5523V110.917V107.582H91.1097H87.7746H84.4396H81.1046H77.662H74.3269H70.9919H67.6569H64.2143H60.8792H57.5442H54.2092H50.7665H47.4315H44.0965H40.7615H37.3188H33.9838H30.6488H27.3137H23.8711H20.5361H17.2011H13.866V110.917V114.252H10.4234H7.08839V117.587V121.029H10.4234H13.866H17.2011H20.5361V117.587H23.8711H27.3137V114.252V110.917H30.6488H33.9838V114.252V117.587V121.029H37.3188H40.7615H44.0965H47.4315H50.7665H54.2092H57.5442H60.8792H64.2143H67.6569H70.9919H74.3269H77.662H81.1046V117.587H77.662H74.3269V114.252V110.917H77.662H81.1046V114.252H84.4396H87.7746V117.587V121.029H91.1097H94.5523H97.8873H101.222V117.587V114.252H97.8873Z" fill="#7E18F8"/>
<g opacity="0.25">
<path opacity="0.25" d="M74.3269 47.0132H70.9919H67.6569V50.3482V53.7908H70.9919H74.3269V50.3482V47.0132Z" fill="black"/>
<path opacity="0.25" d="M67.6569 36.9005V40.3431H70.9919H74.3269V36.9005V33.5655H70.9919H67.6569V36.9005Z" fill="black"/>
<path opacity="0.25" d="M87.7746 26.8954V23.4528V20.1178H84.4396H81.1046V23.4528V26.8954H84.4396H87.7746Z" fill="black"/>
<path opacity="0.25" d="M67.6569 23.4528V20.1178V16.7827V13.4477V10.0051V6.67006H64.2142H60.8792V10.0051V13.4477V16.7827V20.1178V23.4528V26.8954H64.2142H67.6569V23.4528Z" fill="black"/>
<path opacity="0.25" d="M54.2092 26.8954V30.2304V33.5655H57.5442H60.8792V30.2304V26.8954H57.5442H54.2092Z" fill="black"/>
<path opacity="0.25" d="M33.9838 26.8954V30.2304V33.5655H37.3188H40.7615V30.2304V26.8954H37.3188H33.9838Z" fill="black"/>
<path opacity="0.25" d="M33.9838 20.1178H30.6488H27.3138V23.4528V26.8954H30.6488H33.9838V23.4528V20.1178Z" fill="black"/>
<path opacity="0.25" d="M81.1046 33.5655V30.2304V26.8954H77.662H74.3269V30.2304V33.5655H77.662H81.1046Z" fill="black"/>
<path opacity="0.25" d="M81.1046 60.4609V57.1258V53.7908H77.662H74.3269V57.1258V60.4609V63.7959V67.2385H77.662H81.1046V63.7959V60.4609Z" fill="black"/>
<path opacity="0.25" d="M87.7746 73.9086V70.5736V67.2385H84.4396H81.1046V70.5736V73.9086V77.2436V80.6863H82.7183H84.4396H86.1609H87.7746V77.2436V73.9086Z" fill="black"/>
<path opacity="0.25" d="M94.5523 107.582V104.139V100.804V97.469V94.134V90.6913V87.3563V84.0213V80.6862H91.1097H87.7746V84.0213V87.3563V90.6913V94.134V97.469V100.804V104.139V107.582V110.917V114.252H91.1097H94.5523V110.917V107.582Z" fill="black"/>
<path opacity="0.25" d="M97.8873 114.252H94.5523V117.587V121.029H97.8873H101.222V117.587V114.252H97.8873Z" fill="black"/>
<path opacity="0.25" d="M74.3269 117.587V121.029H77.662H81.1046V117.587H77.662H74.3269Z" fill="black"/>
<path opacity="0.25" d="M13.866 117.587H10.4234H7.08839V121.029H10.4234H13.866H17.2011H20.5361V117.587H17.2011H13.866Z" fill="black"/>
<path opacity="0.25" d="M74.3269 110.917H70.9919H67.6569V114.252V117.587H70.9919H74.3269V114.252V110.917Z" fill="black"/>
<path opacity="0.25" d="M20.5361 110.917V114.252V117.587H23.8711H27.3137V114.252V110.917H23.8711H20.5361Z" fill="black"/>
</g>
<path d="M42.3752 67.2385H49.1528H55.8229H62.6005H69.2706V60.4609H62.6005H55.8229V53.7908H49.1528V60.4609H42.3752H35.7051V67.2385V73.9086V80.6862V87.3563H42.3752H49.1528H55.8229H62.6005V94.1339V100.804H55.8229H49.1528H42.3752H35.7051V107.582H42.3752H49.1528V114.252H55.8229V107.582H62.6005H69.2706V100.804V94.1339V87.3563V80.6862H62.6005H55.8229H49.1528H42.3752V73.9086V67.2385Z" fill="white"/>
</svg>
