<svg width="205" height="181" viewBox="0 0 205 181" fill="none" xmlns="http://www.w3.org/2000/svg">
<path d="M163.558 148.122H161.09H158.621H156.152H153.684H151.831H149.363H146.894H144.425H142.574H140.105H137.635H135.167H132.698H130.847H128.378H125.909H123.441H120.971H119.12H116.651H114.182H111.713H109.245H107.392H104.924H102.455H99.9861H98.1347H95.6657H93.1975H90.7284H88.2593H86.408H83.9388H81.4698H79.0016H76.5325H74.6812H72.2121H69.743H67.2749H65.4225H62.9544H60.4853H58.0162H55.5481H53.6958H51.2277H48.7585H46.2895H43.8203H41.969H39.4999V149.975V152.443H41.969H43.8203V154.912V157.381H46.2895H48.7585V159.232V161.701H51.2277H53.6958H55.5481H58.0162H60.4853H62.9544H65.4225H67.2749H69.743H72.2121H74.6812H76.5325H79.0016H81.4698H83.9388H86.408H88.2593H90.7284H93.1975H95.6657H98.1347H99.9861H102.455H104.924H107.392H109.245H111.713H114.182H116.651H119.12H120.971H123.441H125.909H128.378H130.847H132.698H135.167H137.635H140.105H142.574H144.425H146.894H149.363H151.831H153.684H156.152V159.232V157.381H158.621H161.09V154.912V152.443H163.558H165.41V149.975V148.122H163.558Z" fill="#7E18F8"/>
<path d="M144.425 166.639H142.574H140.105H137.635H135.167H132.698H130.847H128.378H125.909H123.44H120.971H119.12H116.651H114.182H111.713H109.245H107.392H104.924H102.455H99.9861H98.1347H95.6657H93.1975H90.7285H88.2593H86.408H83.9389H81.4698H79.0017H76.5326H74.6813H72.2121H69.7431H67.2749H65.4226H62.9545H60.4854H58.0163V169.108V170.959H60.4854H62.9545H65.4226H67.2749V173.428V175.897H69.7431H72.2121H74.6813H76.5326H79.0017H81.4698V178.366V180.834H83.9389H86.408H88.2593H90.7285H93.1975H95.6657H98.1347H99.9861H102.455H104.924H107.392H109.245H111.713H114.182H116.651H119.12H120.971H123.44V178.366V175.897H125.909H128.378H130.847H132.698H135.167H137.635V173.428V170.959H140.105H142.574H144.425H146.894V169.108V166.639H144.425Z" fill="#6D18F8"/>
<path d="M182.074 68.5064H179.606V66.0384V63.5693H177.137H175.286V61.1003V59.2491V56.78V54.311H172.817H170.348V51.843V49.9908V47.5227V45.0537H167.879H165.411V42.5847V40.1167H163.558H161.09V38.2644V35.7964H158.621H156.152V33.3274V30.8584H153.684H151.831V28.3894V26.5381H149.363H146.894H144.425H142.574V24.0691V21.6011H140.105H137.635H135.167H132.698V19.1321V17.2808H130.847H128.378H125.909H123.441V14.8118V12.3428H120.971H119.12H116.651H114.182H111.713H109.245H107.392H104.924H102.455H99.9861H98.1347H95.6657H93.1975H90.7284H88.2593H86.408H83.9389H81.4707V14.8118V17.2808H79.0017H76.5325H74.6812H72.2121V19.1321V21.6011H69.743H67.2749H65.4226H62.9544V24.0691V26.5381H60.4853H58.0162H55.5481H53.6958V28.3894V30.8584H51.2277H48.7586V33.3274V35.7964H46.2895H43.8203V38.2644V40.1167H41.969H39.4999V42.5847V45.0537H37.0318H34.5627V47.5227V49.9908V51.843V54.311H32.7114H30.2423V56.78V59.2491V61.1003V63.5693H27.7731H25.305V66.0384V68.5064H22.8359H20.9846V70.9754V72.8266V75.2957V77.7647H22.8359H25.305H27.7731H30.2423H32.7114H34.5627H37.0318H39.4999H41.969H43.8203H46.2895H48.7586H51.2277H53.6958H55.5481H58.0162H60.4853H62.9544H65.4226H67.2749H69.743H72.2121H74.6812H76.5325H79.0017H81.4707H83.9389H86.408H88.2593H90.7284H93.1975H95.6657H98.1347H99.9861H102.455H104.924H107.392H109.245H111.713H114.182H116.651H119.12H120.971H123.441H125.909H128.378H130.847H132.698H135.167H137.635H140.105H142.574H144.425H146.894H149.363H151.831H153.684H156.152H158.621H161.09H163.558H165.411H167.879H170.348H172.817H175.286H177.137H179.606H182.074H184.544V75.2957V72.8266V70.9754V68.5064H182.074Z" fill="#FA34F3"/>
<path d="M182.074 110.478H179.605H177.137H175.285H172.817H170.348H167.879H165.41H163.558H161.09H158.621H156.152H153.683H151.831H149.363H146.894H144.425H142.574H140.105H137.635H135.167H132.698H130.847H128.378H125.909H123.441H120.971H119.12H116.651H114.182H111.713H109.245H107.392H104.924H102.455H99.9861H98.1347H95.6656H93.1975H90.7284H88.2593H86.4079H83.9388H81.4697H79.0016H76.5325H74.6812H72.212H69.743H67.2748H65.4225H62.9544H60.4853H58.0162H55.547H53.6957H51.2266H48.7585H46.2894H43.8203H41.969H39.4998H37.0317H34.5626H32.7113H30.2422H27.7731H25.304H22.8359H20.9835V112.947V115.415V117.267V119.735H22.8359H25.304V122.204V124.673H27.7731H30.2422H32.7113H34.5626H37.0317H39.4998H41.969H43.8203H46.2894H48.7585H51.2266H53.6957H55.547H58.0162H60.4853H62.9544H65.4225H67.2748H69.743H72.212H74.6812H76.5325H79.0016H81.4697H83.9388H86.4079H88.2593H90.7284H93.1975H95.6656H98.1347H99.9861H102.455H104.924H107.392H109.245H111.713H114.182H116.651H119.12H120.971H123.441H125.909H128.378H130.847H132.698H135.167H137.635H140.105H142.574H144.425H146.894H149.363H151.831H153.683H156.152H158.621H161.09H163.558H165.41H167.879H170.348H172.817H175.285H177.137H179.605V122.204V119.735H182.074H184.544V117.267V115.415V112.947V110.478H182.074Z" fill="#AC15F9"/>
<path d="M182.074 82.7048H179.605H177.137H175.285H172.817H170.348H167.879H165.41H163.558H161.09H158.621H156.152H153.683H151.831H149.363H146.894H144.425H142.574H140.105H137.635H135.167H132.698H130.847H128.378H125.909H123.441H120.971H119.12H116.651H114.182H111.713H109.245H107.392H104.924H102.455H99.9861H98.1347H95.6656H93.1975H90.7284H88.2593H86.4079H83.9388H81.4697H79.0016H76.5325H74.6812H72.212H69.743H67.2748H65.4225H62.9544H60.4853H58.0162H55.547H53.6957H51.2266H48.7585H46.2894H43.8203H41.969H39.4998H37.0317H34.5626H32.7113H30.2422H27.7731H25.304H22.8359H20.9835V84.5561V87.0251V89.4931V91.9621V93.8134V96.2824V98.7514V101.219V103.688V105.54H22.8359H25.304H27.7731H30.2422H32.7113H34.5626H37.0317H39.4998H41.969H43.8203H46.2894H48.7585H51.2266H53.6957H55.547H58.0162H60.4853H62.9544H65.4225H67.2748H69.743H72.212H74.6812H76.5325H79.0016H81.4697H83.9388H86.4079H88.2593H90.7284H93.1975H95.6656H98.1347H99.9861H102.455H104.924H107.392H109.245H111.713H114.182H116.651H119.12H120.971H123.441H125.909H128.378H130.847H132.698H135.167H137.635H140.105H142.574H144.425H146.894H149.363H151.831H153.683H156.152H158.621H161.09H163.558H165.41H167.879H170.348H172.817H175.285H177.137H179.605H182.074H184.544V103.688V101.219V98.7514V96.2824V93.8134V91.9621V89.4931V87.0251V84.5561V82.7048H182.074Z" fill="#CF15F9"/>
<path d="M172.817 128.994H170.348H167.879H165.41H163.558H161.09H158.621H156.152H153.684H151.831H149.363H146.894H144.425H142.574H140.105H137.635H135.167H132.698H130.847H128.378H125.909H123.441H120.971H119.12H116.651H114.182H111.713H109.245H107.392H104.924H102.455H99.986H98.1346H95.6656H93.1974H90.7283H88.2592H86.4079H83.9387H81.4696H79.0015H76.5324H74.6811H72.2119H69.7429H67.2747H65.4224H62.9543H60.4852H58.0161H55.5469H53.6956H51.2265H48.7584H46.2893H43.8202H41.9688H39.4997H37.0316H34.5625H32.7112H30.2421V131.463V133.931V136.4V138.251H32.7112H34.5625V140.72V143.189H37.0316H39.4997H41.9688H43.8202H46.2893H48.7584H51.2265H53.6956H55.5469H58.0161H60.4852H62.9543H65.4224H67.2747H69.7429H72.2119H74.6811H76.5324H79.0015H81.4696H83.9387H86.4079H88.2592H90.7283H93.1974H95.6656H98.1346H99.986H102.455H104.924H107.392H109.245H111.713H114.182H116.651H119.12H120.971H123.441H125.909H128.378H130.847H132.698H135.167H137.635H140.105H142.574H144.425H146.894H149.363H151.831H153.684H156.152H158.621H161.09H163.558H165.41H167.879H170.348V140.72V138.251H172.817H175.285V136.4V133.931V131.463V128.994H172.817Z" fill="#8F17F9"/>
<path d="M131.463 15.4298V11.7263H127.76V8.02379H119.736V3.70353H112.33V0H92.5788V3.70353H85.1725V8.02379H77.1494V11.7263H73.4457V15.4298H69.743V94.4292H77.1494V90.7257H87.0248V94.4292H96.8992V90.7257H108.009V94.4292H117.885V90.7257H127.76V94.4292H135.166V15.4298H131.463Z" fill="#501E80"/>
<path d="M127.76 15.427V11.7245H119.737V8.02095H112.331V3.70068H92.5797V8.02095H85.1734V11.7245H77.1493V15.427H73.4466V90.7229H77.1493V87.0204H87.0247V90.7229H96.9002V87.0204H108.01V90.7229H117.885V87.0204H127.76V90.7229H131.464V15.427H127.76Z" fill="#EDD3FD"/>
<path d="M75.2959 82.7026H78.9995V80.8513H82.7022V82.7026H86.4059V86.4061H96.2814V82.7026H99.984V80.8513H103.688V82.7026H107.39V86.4061H117.266V82.7026H120.97V80.8513H124.672V82.7026H126.525V15.4294H118.5V11.7269H110.477V8.02337H102.453V6.17212H92.5777V9.87564H84.5546V13.5782H76.5304V17.2817H74.6791V82.7026H75.2959Z" fill="white"/>
<path d="M108.01 17.2844V15.4321H106.158V13.5809H104.306V11.7296H100.604V13.5809H98.7514V15.4321H96.9001V17.2844H95.0487V25.3072H96.9001V27.1594H98.7514V29.0107H100.604V30.862H104.306V29.0107H106.158V27.1594H108.01V25.3072H110.478V17.2844H108.01Z" fill="#501E80"/>
<path d="M96.899 20.9777V24.6812H98.7505V26.5325H100.602V28.3838H102.454V20.361H96.899V20.9777Z" fill="#DEA8FF"/>
<path d="M106.157 17.277V15.4257H104.305V13.5735H102.453V21.5973H108.008V17.8938H106.157V17.277Z" fill="#DEA8FF"/>
<path d="M102.453 20.9878V29.0106H104.305V27.1593H106.157V25.3081H108.008V21.6046H102.453V20.9878Z" fill="#C260FF"/>
<path d="M100.602 13.5766V15.4279H98.7505V17.2791H96.899V20.9827H102.454V12.9589H100.602V13.5766Z" fill="#EDD3FD"/>
<path d="M81.4687 49.9902V53.6928H85.1724V49.9902H81.4687ZM119.736 49.9902V53.6928H123.438V49.9902H119.736Z" fill="#F696C6"/>
<path d="M96.8981 49.9895H93.1954V53.693H96.8981V49.9895Z" fill="#501E80"/>
<path d="M96.899 54.3041V58.0076H108.626V54.3041H96.899Z" fill="#501E80"/>
<path d="M108.007 49.9895V53.693H111.711V49.9895H108.007Z" fill="#501E80"/>
<path d="M85.1724 42.5863V46.2898H93.1955V42.5863H96.8991V34.5625H93.1955V30.86H85.1724V34.5625H81.4687V42.5863H85.1724ZM108.008 34.5625V42.5863H111.712V46.2898H119.736V42.5863H123.438V34.5625H119.736V30.86H111.712V34.5625H108.008Z" fill="#501E80"/>
<path d="M67.8905 51.8474V49.9962H64.1878V48.1449H56.1637V49.9962H54.3124V58.02H56.1637V59.8712H59.8674V61.7225H64.1878V63.5748H66.0392V65.426H67.8905V67.2773H69.7429V51.8474H67.8905Z" fill="#501E80"/>
<path d="M67.8897 54.3212V51.8522H64.187V50.001H56.1627V58.0238H59.8664V59.876H64.187V61.7273H66.0383V63.5785H67.8897V65.4298H69.7411V54.3212H67.8897Z" fill="#EDD3FD"/>
<path d="M56.1627 49.9909V55.5457H59.8664V57.3969H63.5691V59.2482H65.4204V61.1005H67.2727V62.9517H69.124V53.0766H67.2727V51.2254H63.5691V49.3741H56.1627V49.9909Z" fill="white"/>
<path d="M137.019 51.8474V49.9962H141.339V48.1449H148.746V49.9962H150.597V58.02H148.746V59.8712H145.042V61.7225H141.339V63.5748H138.87V65.426H137.019V67.2773H135.168V51.8474H137.019Z" fill="#501E80"/>
<path d="M137.019 54.3212V51.8522H141.339V50.001H148.746V58.0238H145.042V59.876H141.339V61.7273H138.87V63.5785H137.019V65.4298H135.168V54.3212H137.019Z" fill="#EDD3FD"/>
<path d="M141.339 50.001V51.8522H137.637V53.7035H135.785V63.5786H137.637V61.7273H139.488V59.8761H141.339V58.0238H145.043V56.1725H148.747V50.6177H141.339V50.001Z" fill="white"/>
<path d="M193.186 67.2751H191.333H189.482H187.631H185.161V69.7442V71.5954H187.631H189.482H191.333H193.186V69.7442V67.2751Z" fill="#501E80"/>
<path d="M196.887 109.863V111.716V113.567V116.036V117.887H198.739H200.591V116.036V113.567V111.716V109.863H198.739H196.887Z" fill="#501E80"/>
<path d="M196.887 71.5905H195.036H193.183V73.4427V75.294H195.036H196.887V73.4427V71.5905Z" fill="#501E80"/>
<path d="M200.591 79.0067V77.1555V75.3042H198.739H196.887V77.1555V79.0067V80.859V82.7103H198.739H200.591V80.859V79.0067Z" fill="#501E80"/>
<path d="M203.06 82.7048H200.592V85.1738V87.0251V88.8774V90.7286V92.5799V94.4312V96.2834V98.1347V100.604V102.455V104.306V106.157V108.01V109.861H203.06H204.912V108.01V106.157V104.306V102.455V100.604V98.1347V96.2834V94.4312V92.5799V90.7286V88.8774V87.0251V85.1738V82.7048H203.06Z" fill="#501E80"/>
<path d="M193.183 117.88V119.731V121.584H195.036H196.887V119.731V117.88H195.036H193.183Z" fill="#501E80"/>
<path d="M189.482 121.592H187.631H185.161V123.445V125.296H187.631H189.482H191.333H193.185V123.445V121.592H191.333H189.482Z" fill="#501E80"/>
<path d="M181.458 128.995H183.309H185.16V127.144V125.293H183.309H181.458" fill="#501E80"/>
<path d="M15.4294 67.2751H13.577H11.7257V69.7442V71.5954H13.577H15.4294H17.8975H19.7498V69.7442V67.2751H17.8975H15.4294Z" fill="#501E80"/>
<path d="M8.02246 71.6028V73.4551V75.3063H9.87382H11.7262V73.4551V71.6028H9.87382H8.02246Z" fill="#501E80"/>
<path d="M0 82.7048V85.1738V87.0251V88.8764V90.7286V92.5799V94.4312V96.2824V98.1347V100.603V102.455V104.306V106.157V108.01V109.861H2.4681H4.3194V108.01V106.157V104.306V102.455V100.603V98.1347V96.2824V94.4312V92.5799V90.7286V88.8764V87.0251V85.1738V82.7048H2.4681H0Z" fill="#501E80"/>
<path d="M4.32178 113.567V116.035V117.887H6.17311H8.0244V116.035V113.567V111.715V109.863H6.17311H4.32178V111.715V113.567Z" fill="#501E80"/>
<path d="M8.02246 121.594H9.87382H11.7262V119.743V117.891H9.87382H8.02246V119.743V121.594Z" fill="#501E80"/>
<path d="M4.32178 75.3042V77.1555V79.0067V80.859V82.7103H6.17311H8.0244V80.859V79.0067V77.1555V75.3042H6.17311H4.32178Z" fill="#501E80"/>
<path d="M11.7257 125.295H13.577H15.4294H17.8975H19.7498V123.444V121.592H17.8975H15.4294H13.577H11.7257V123.444V125.295Z" fill="#501E80"/>
<path d="M177.756 125.293H175.905H174.052H172.201H169.732H167.881H166.029H164.178H162.326H160.474H158.623H156.771H154.302H152.45H150.599H148.747H146.896H145.044H143.192H141.341H138.872H137.021H135.168H133.317H131.466H129.614H127.762H125.911H123.442H121.59H119.739H117.888H116.035H114.184H112.333H110.48H108.012H106.16H104.308H102.457H100.606H98.7535H96.9022H95.0508H92.5817H90.7304H88.8781H87.0268H85.1754H83.3241H81.4718H79.6204H77.1513H75.3H73.4486H71.5963H69.745H67.8936H66.0423H64.19H61.7219H59.8695H58.0182H56.1669H54.3146H52.4632H50.6119H48.7605H46.2915H44.4401H42.5878H40.7365H38.8851H19.751V128.995H38.8851H40.7365H42.5878H44.4401H46.2915H48.7605H50.6119H52.4632H54.3146H56.1669H58.0182H59.8695H61.7219H64.19H66.0423H67.8936H69.745H71.5963H73.4486H75.3H77.1513H79.6204H81.4718H83.3241H85.1754H87.0268H88.8781H90.7304H92.5817H95.0508H96.9022H98.7535H100.606H102.457H104.308H106.16H108.012H110.48H112.333H114.184H116.035H117.888H119.739H121.59H123.442H125.911H127.762H129.614H131.466H133.317H135.168H137.021H138.872H141.341H143.192H145.044H146.896H148.747H150.599H152.45H154.302H156.771H158.623H160.474H162.326H164.178H166.029H167.881H169.732H172.201H174.052H175.905H177.756H179.607H183.311V125.293H179.607H177.756Z" fill="#501E80"/>
<path d="M183.311 63.5752H181.46H179.607H177.756H175.905H174.052H172.201H169.732H167.881H166.029H164.178H162.326H160.474H158.623H156.771H154.302H152.45H150.599H148.748H146.896H145.044H143.193H141.341H138.872H137.021H135.168H133.317H131.466H129.614H127.762H125.911H123.442H121.59H119.739H117.888H116.035H114.184H112.333H110.48H108.012H106.16H104.309H102.457H100.606H98.7535H96.9022H95.0509H92.5818H90.7305H88.8781H87.0268H85.1754H83.3241H81.4718H79.6204H77.1514H75.3H73.4487H71.5963H69.745H67.8937H66.0424H64.19H61.7219H59.8696H58.0183H56.1669H54.3146H52.4632H50.6119H48.7606H46.2915H44.4401H42.5878H40.7365H38.8852H19.751V67.2787H38.8852H40.7365H42.5878H44.4401H46.2915H48.7606H50.6119H52.4632H54.3146H56.1669H58.0183H59.8696H61.7219H64.19H66.0424H67.8937H69.745H71.5963H73.4487H75.3H77.1514H79.6204H81.4718H83.3241H85.1754H87.0268H88.8781H90.7305H92.5818H95.0509H96.9022H98.7535H100.606H102.457H104.309H106.16H108.012H110.48H112.333H114.184H116.035H117.888H119.739H121.59H123.442H125.911H127.762H129.614H131.466H133.317H135.168H137.021H138.872H141.341H143.193H145.044H146.896H148.748H150.599H152.45H154.302H156.771H158.623H160.474H162.326H164.178H166.029H167.881H169.732H172.201H174.052H175.905H177.756H179.607H181.46H183.311H185.162V65.4264V63.5752H183.311Z" fill="#501E80"/>
<path d="M198.742 82.705H196.889V80.8537V79.0025V77.1502V75.299H195.038H193.187V73.4477V71.5954H191.334H189.483H187.632H185.163V69.7442V67.2751H183.311H181.46H179.608H177.756H175.905H174.053H172.201H171.584H169.732H167.881H166.029H164.178H162.326H160.475H158.623H156.771H154.303H152.45H150.599H148.748H146.896H145.044H143.193H141.341H138.872H137.021H135.169H133.317H131.466H129.615H127.762H125.911H123.442H121.591H119.739H117.887H116.036H114.184H112.333H110.481H108.012H106.16H104.309H102.457H100.606H98.7537H96.9024H95.0511H92.582H90.7307H88.8783H87.027H85.1757H83.3243H81.472H79.6206H77.1516H75.3002H73.4489H71.5965H69.7452H67.8939H66.0425H64.1902H61.7221H59.8698H58.0185H56.1671H54.3148H52.4634H50.6121H48.7608H46.2917H19.7512V69.7442V71.5954H17.8999H15.4308H13.5795H11.7282V73.4477V75.299H9.87679H8.02445V77.1502V79.0025V80.8537V82.705H6.17314H4.32178V85.174V87.0253V88.8765V90.7288V92.5801V94.4313V96.2836V98.1348V100.604V102.455V104.306V106.158V108.01V109.861H6.17314H8.02445V111.712V113.565V116.033V117.884H9.87679H11.7282V119.736V121.587H13.5795H15.4308H17.8999H19.7512V123.439V125.291H46.2917H48.7608H50.6121H52.4634H54.3148H56.1671H58.0185H59.8698H61.7221H64.1902H66.0425H67.8939H69.7452H71.5965H73.4489H75.3002H77.1516H79.6206H81.472H83.3243H85.1757H87.027H88.8783H90.7307H92.582H95.0511H96.9024H98.7537H100.606H102.457H104.309H106.16H108.012H110.481H112.333H114.184H116.036H117.887H119.739H121.591H123.442H125.911H127.762H129.615H131.466H133.317H135.169H137.021H138.872H141.341H143.193H145.044H146.896H148.748H150.599H152.45H154.303H156.771H158.623H160.475H162.326H164.178H166.029H167.881H169.732H171.584H172.201H174.053H175.905H177.756H179.608H181.46H183.311H185.163V123.439V121.587H187.632H189.483H191.334H193.187V119.736V117.884H195.038H196.889V116.033V113.565V111.712V109.861H198.742H200.593V108.01V106.158V104.306V102.455V100.604V98.1348V96.2836V94.4313V92.5801V90.7288V88.8765V87.0253V85.174V82.705H198.742Z" fill="white"/>
<path d="M47.5227 83.315V93.8068H63.57V99.3616H47.5227V115.408H41.9677V78.3779H62.9532V83.315H47.5227ZM62.9532 83.315H68.5082V93.8068H62.9532V83.315Z" fill="#501E80"/>
<path d="M99.9859 109.854V115.408H73.4466V78.3779H79.0016V109.854H99.9859Z" fill="#501E80"/>
<path d="M126.526 83.3166H132.081V114.793H126.526V98.7465H110.479V114.793H104.924V83.3166H110.479V93.8094H126.526V83.3166ZM126.526 77.7618V83.3166H110.479V77.7618H126.526Z" fill="#501E80"/>
<path d="M137.018 77.7618H142.572V93.8094H137.018V77.7618ZM142.572 93.8094H148.127V99.3632H142.572V93.8094ZM147.51 114.793V98.7465H153.065V114.793H147.51ZM153.065 99.3632V93.8094H158.62V99.3632H153.065ZM158.002 77.7618H163.557V93.8094H158.002V77.7618Z" fill="#501E80"/>
</svg>
