<svg width="725" height="426" viewBox="0 0 725 426" fill="none" xmlns="http://www.w3.org/2000/svg">
<path d="M23.3872 345.07H11.7002V356.767H23.3872V345.07Z" fill="#FDDC93"/>
<path d="M35.0868 355.922H23.3867V367.619H35.0868V355.922Z" fill="#FDDC93"/>
<path d="M23.3872 355.938H11.7002V367.636H23.3872V355.938Z" fill="#F9A706"/>
<path d="M11.7003 345.066H23.3871V333.369H11.7003H0V345.066V355.928V367.625H11.7003V355.928V345.066Z" fill="black"/>
<path d="M35.0872 367.619H23.387H11.7002V379.316H23.387H35.0872H45.9498V367.619V355.922H35.0872V367.619Z" fill="black"/>
<path d="M35.0868 345.07H23.3867V356.767H35.0868V345.07Z" fill="black"/>
<path d="M264.863 345.07H253.163V355.932H264.863H276.563V345.07H264.863Z" fill="#FBC34A"/>
<path d="M334.213 345.07H322.513V356.767H334.213V345.07Z" fill="#FBC34A"/>
<path d="M288.25 355.938H276.563V367.636H288.25V355.938Z" fill="#FBC34A"/>
<path d="M287.426 345.07V355.932H299.126H310.813V345.07H299.126H287.426Z" fill="#FBC34A"/>
<path d="M264.863 367.623H253.163V379.32H264.863V367.623Z" fill="#FBC34A"/>
<path d="M391.026 137.858H379.326V149.555H391.026H402.726V137.858H391.026Z" fill="#FBC34A"/>
<path d="M414.425 126.176H402.726V137.873H414.425V126.176Z" fill="#FBC34A"/>
<path d="M356.776 149.561H345.076V161.258H356.776V149.561Z" fill="#FBC34A"/>
<path d="M368.463 161.26H356.776V172.957H368.463V161.26Z" fill="#FBC34A"/>
<path d="M414.425 149.561H402.726V161.258H414.425V149.561Z" fill="#FBC34A"/>
<path d="M426.113 161.26H414.426V172.957H426.113V161.26Z" fill="#FBC34A"/>
<path d="M460.376 161.26H448.676V172.957H460.376V161.26Z" fill="#FBC34A"/>
<path d="M540.589 172.127H528.889H517.202V183.824H528.889H540.589V172.127Z" fill="#FBC34A"/>
<path d="M552.289 195.512H540.588V207.209H552.289V195.512Z" fill="#FBC34A"/>
<path d="M552.289 229.764H540.588V241.461V253.158H552.289V241.461V229.764Z" fill="#FBC34A"/>
<path d="M563.989 253.165H552.289V264.862H563.989V253.165Z" fill="#FBC34A"/>
<path d="M518.025 161.26H506.325V172.957H518.025V161.26Z" fill="#FBC34A"/>
<path d="M632.501 321.671H620.801V333.367H632.501V321.671Z" fill="#FBC34A"/>
<path d="M644.188 333.371H632.501V345.068H644.188V333.371Z" fill="#FBC34A"/>
<path d="M667.589 333.371H655.889V345.068H667.589V333.371Z" fill="#FBC34A"/>
<path d="M713.552 355.938H701.852V367.636H713.552V355.938Z" fill="#FBC34A"/>
<path d="M678.451 367.623V379.32H690.151H701.852V367.623H690.151H678.451Z" fill="#FBC34A"/>
<path d="M81.0505 299.118H69.3501V310.815H81.0505V299.118Z" fill="#FBC34A"/>
<path d="M138.7 287.417H127V299.115H138.7V287.417Z" fill="#FBC34A"/>
<path d="M127 299.118H115.3V310.815H127V299.118Z" fill="#FBC34A"/>
<path d="M196.35 309.986H184.65V321.683H196.35V309.986Z" fill="#FBC34A"/>
<path d="M207.213 264.027V275.724H218.913V264.027V253.165H207.213V264.027Z" fill="#FBC34A"/>
<path d="M218.913 218.08H207.213V229.777H218.913V218.08Z" fill="#FBC34A"/>
<path d="M218.913 183.812H207.213V195.51H218.913V183.812Z" fill="#FBC34A"/>
<path d="M230.6 161.26H218.913H207.213V172.122H218.913H230.6H241.463V161.26H230.6Z" fill="#FBC34A"/>
<path d="M230.6 149.555V137.858H218.913H207.213V149.555H218.913H230.6Z" fill="#FBC34A"/>
<path d="M264.863 137.873V126.176H253.163H241.463V137.873H253.163V149.57H264.863H276.563V137.873H264.863Z" fill="#FBC34A"/>
<path d="M391.025 126.168V115.308H379.325H368.462H356.776V126.168H345.076H333.375V137.865H345.076H356.776H368.462H379.325V126.168H391.025Z" fill="#FBC34A"/>
<path d="M482.939 161.26H471.238V172.957H482.939V161.26Z" fill="#FBC34A"/>
<path d="M552.289 299.118H540.588V310.815H552.289V299.118Z" fill="#FBC34A"/>
<path d="M563.989 309.986H552.289V321.683H563.989V309.986Z" fill="#FBC34A"/>
<path d="M574.852 321.671H563.151V333.367H574.852V321.671Z" fill="#FBC34A"/>
<path d="M574.852 299.118V309.979H586.538V321.676H598.238V309.979V299.118H586.538H574.852Z" fill="#FBC34A"/>
<path d="M563.989 275.718H552.289V287.415H563.989V275.718Z" fill="#FBC34A"/>
<path d="M448.676 137.858H436.975H425.288H414.426V149.555H425.288V161.253H436.975V149.555H448.676H460.376V137.858H448.676Z" fill="#FBC34A"/>
<path d="M472.076 149.561H460.376V161.258H472.076V149.561Z" fill="#FBC34A"/>
<path d="M402.727 172.127H391.025V183.824H402.727V172.127Z" fill="#FBC34A"/>
<path d="M345.076 172.127H333.375V183.824H345.076V172.127Z" fill="#FBC34A"/>
<path d="M322.513 149.561H310.813H299.113H287.426H276.563V161.258H287.426V172.118H299.113V161.258H310.813H322.513V149.561Z" fill="#FBC34A"/>
<path d="M288.25 172.127H276.563V183.824H288.25V172.127Z" fill="#FBC34A"/>
<path d="M253.163 183.824H264.863V172.127H253.163H241.463V183.824H253.163Z" fill="#FBC34A"/>
<path d="M448.675 115.308H436.988V127.005H448.675V115.308Z" fill="#FBC34A"/>
<path d="M218.913 299.118H207.213V310.815H218.913V299.118Z" fill="#FBC34A"/>
<path d="M207.213 287.417H195.513V299.115H207.213V287.417Z" fill="#FBC34A"/>
<path d="M138.7 345.07H127V356.767H138.7V345.07Z" fill="#FBC34A"/>
<path d="M552.289 391.024H540.588V402.721H552.289V391.024Z" fill="#FBC34A"/>
<path d="M471.238 367.623V379.32H482.939H494.639V367.623H482.939H471.238Z" fill="#FBC34A"/>
<path d="M276.563 333.371H264.863V345.068H276.563V355.929H287.426V345.068H299.113V333.371H287.426H276.563Z" fill="#FDDC93"/>
<path d="M253.163 355.922V367.619H264.863H276.563V355.922H264.863H253.163Z" fill="#FDDC93"/>
<path d="M345.076 345.07H333.375V356.767H345.076V345.07Z" fill="#FDDC93"/>
<path d="M253.163 345.07H241.463V356.767H253.163V345.07Z" fill="#FDDC93"/>
<path d="M253.163 367.623H241.463V379.32H253.163V367.623Z" fill="#FDDC93"/>
<path d="M391.025 115.304V103.607H379.338H368.476V115.304H379.338H391.025Z" fill="#FDDC93"/>
<path d="M460.375 137.865V126.168V115.308H448.675V126.168H436.988V137.865H448.675H460.375Z" fill="#FDDC93"/>
<path d="M494.639 149.561H482.939H471.238V161.258H482.939H494.639V149.561Z" fill="#FDDC93"/>
<path d="M391.026 126.159H379.326V137.856H391.026H402.726V126.159H391.026Z" fill="#FDDC93"/>
<path d="M414.425 137.858H402.726V149.555H414.425V137.858Z" fill="#FDDC93"/>
<path d="M356.776 126.168V115.308H345.076H333.375V126.168H345.076H356.776Z" fill="#FDDC93"/>
<path d="M287.426 137.858H276.563V149.555H287.426H299.126H310.813V137.858H299.126H287.426Z" fill="#FDDC93"/>
<path d="M368.476 137.858H356.776H345.076H333.375H322.513V149.555H333.375H345.076H356.776H368.476V137.858Z" fill="#FDDC93"/>
<path d="M333.376 161.26H322.513V172.122H333.376H345.076H356.776V161.26H345.076H333.376Z" fill="#FDDC93"/>
<path d="M391.025 161.26H379.338H368.476V172.122H379.338H391.025H402.725H414.426V161.26H402.725H391.025Z" fill="#FDDC93"/>
<path d="M448.676 161.26H436.989H425.288V172.122H436.989H448.676V161.26Z" fill="#FDDC93"/>
<path d="M494.639 172.112V183.809H506.325H517.188V172.112H506.325H494.639Z" fill="#FDDC93"/>
<path d="M540.589 172.122V161.26H528.889H517.202V172.122H528.889H540.589Z" fill="#FDDC93"/>
<path d="M264.863 126.168H276.563V115.308H264.863H253.163H241.463V126.168H253.163H264.863Z" fill="#FDDC93"/>
<path d="M241.462 137.856V126.159H230.6H218.913V137.856H230.6H241.462Z" fill="#FDDC93"/>
<path d="M230.6 149.561H218.913H207.213H195.513V161.258H207.213H218.913H230.6H241.463V149.561H230.6Z" fill="#FDDC93"/>
<path d="M253.163 172.122H264.863V183.819H276.563V172.122H287.426V161.26H276.563H264.863H253.163H241.463V172.122H253.163Z" fill="#FDDC93"/>
<path d="M242.3 172.112H230.613V183.809H242.3V172.112Z" fill="#FDDC93"/>
<path d="M218.913 172.112H207.213V183.809H218.913V172.112Z" fill="#FDDC93"/>
<path d="M207.213 195.512H195.513V207.209V218.071H207.213H218.913V207.209H207.213V195.512Z" fill="#FDDC93"/>
<path d="M540.588 195.506H552.289V183.809V172.112H540.588V183.809V195.506Z" fill="#FDDC93"/>
<path d="M552.289 218.074V207.213H540.588V218.074V229.771H552.289V218.074Z" fill="#FDDC93"/>
<path d="M563.989 241.465H552.289V253.162H563.989V241.465Z" fill="#FDDC93"/>
<path d="M574.852 253.165H563.151V264.862H574.852V253.165Z" fill="#FDDC93"/>
<path d="M563.989 264.018H552.289V275.715H563.989V264.018Z" fill="#FDDC93"/>
<path d="M563.989 299.118H552.289V310.815H563.989V299.118Z" fill="#FDDC93"/>
<path d="M563.151 309.97V321.667H574.852H586.538V309.97H574.852H563.151Z" fill="#FDDC93"/>
<path d="M609.939 299.118H598.238V310.815H609.939V299.118Z" fill="#FDDC93"/>
<path d="M609.101 309.97V321.667H620.801H632.501V309.97H620.801H609.101Z" fill="#FDDC93"/>
<path d="M195.513 275.718V287.415H207.213H218.913V275.718H207.213H195.513Z" fill="#FDDC93"/>
<path d="M184.65 299.118V309.979H195.513V321.676H207.213V309.979V299.118H195.513H184.65Z" fill="#FDDC93"/>
<path d="M184.651 309.97H172.95V321.667H184.651V309.97Z" fill="#FDDC93"/>
<path d="M172.95 321.669H161.25V333.366H172.95V321.669Z" fill="#FDDC93"/>
<path d="M138.7 275.718H127V287.415H138.7V275.718Z" fill="#FDDC93"/>
<path d="M115.3 299.118H103.6V310.815H115.3V299.118Z" fill="#FDDC93"/>
<path d="M69.3505 299.118H57.6504V310.815H69.3505V299.118Z" fill="#FDDC93"/>
<path d="M127 345.07H115.3V356.767H127V345.07Z" fill="#FDDC93"/>
<path d="M482.939 172.112H471.238V183.809H482.939V172.112Z" fill="#FDDC93"/>
<path d="M161.263 287.417H149.563H137.863V299.115H149.563H161.263V287.417Z" fill="#FDDC93"/>
<path d="M207.213 253.165H195.513V264.862H207.213V253.165Z" fill="#FDDC93"/>
<path d="M218.913 241.465H207.213V253.162H218.913V241.465Z" fill="#FDDC93"/>
<path d="M655.902 333.371H644.202V345.068H655.902V333.371Z" fill="#FDDC93"/>
<path d="M701.852 355.922H690.151V367.619H701.852V355.922Z" fill="#FDDC93"/>
<path d="M678.451 367.623H666.751V379.32H678.451V367.623Z" fill="#FDDC93"/>
<path d="M518.026 367.623H506.339V379.32H518.026V367.623Z" fill="#FDDC93"/>
<path d="M540.588 391.024H528.888V402.721H540.588V391.024Z" fill="#FDDC93"/>
<path d="M448.676 367.623V379.32H460.376H471.238V367.623H460.376H448.676Z" fill="#FDDC93"/>
<path d="M436.989 137.873V126.176H425.289H414.426V137.873H425.289H436.989Z" fill="#F9A706"/>
<path d="M138.7 299.118H127V310.815H138.7V299.118Z" fill="#F9A706"/>
<path d="M172.95 321.671V333.367H184.65H195.513V321.671H184.65H172.95Z" fill="#F9A706"/>
<path d="M299.126 355.938H287.426V367.636H299.126V355.938Z" fill="#F9A706"/>
<path d="M218.913 229.764H207.213V241.461H218.913V229.764Z" fill="#F9A706"/>
<path d="M218.913 195.512H207.213V207.209H218.913V195.512Z" fill="#F9A706"/>
<path d="M218.913 287.417H207.213V299.115H218.913V287.417Z" fill="#F9A706"/>
<path d="M230.6 172.127H218.913V183.824H230.6V172.127Z" fill="#F9A706"/>
<path d="M402.727 115.308H391.025V127.005H402.727V115.308Z" fill="#F9A706"/>
<path d="M402.726 149.555H391.026H379.325V137.858H368.463V149.555H356.776V161.253H368.463H379.325H391.026H402.726V149.555Z" fill="#F9A706"/>
<path d="M426.126 149.561H414.426V161.258H426.126V149.561Z" fill="#F9A706"/>
<path d="M436.988 149.561V161.258H448.675H460.375V149.561H448.675H436.988Z" fill="#F9A706"/>
<path d="M472.076 137.858H460.376V149.555H472.076V137.858Z" fill="#F9A706"/>
<path d="M345.076 161.258V149.561H333.376H322.513V161.258H333.376H345.076Z" fill="#F9A706"/>
<path d="M310.813 161.26H299.126V172.122H287.426V183.819H299.126H310.813H322.513H333.375V172.122H322.513V161.26H310.813Z" fill="#F9A706"/>
<path d="M482.938 161.26V172.122V183.819H494.639V172.122H506.325V161.26H494.639H482.938Z" fill="#F9A706"/>
<path d="M368.462 172.127H356.776H345.076V183.824H356.776H368.462H379.325H391.025V172.127H379.325H368.462Z" fill="#F9A706"/>
<path d="M448.675 172.122H436.975H425.288H414.426H402.726V183.819H414.426H425.288H436.975H448.675H460.375H471.238V172.122V161.26H460.375V172.122H448.675Z" fill="#F9A706"/>
<path d="M540.588 264.027V275.724V287.421V299.118H552.289V287.421V275.724V264.027V253.165H540.588V264.027Z" fill="#F9A706"/>
<path d="M609.939 309.986H598.238V321.683H609.939V309.986Z" fill="#F9A706"/>
<path d="M574.852 321.671V333.367H586.538H598.238V321.671H586.538H574.852Z" fill="#F9A706"/>
<path d="M552.289 309.986H540.588V321.683H552.289V309.986Z" fill="#F9A706"/>
<path d="M253.163 149.555V137.858H241.476H230.613V149.555H241.476V161.253H253.163H264.863H276.563V149.555H264.863H253.163Z" fill="#F9A706"/>
<path d="M287.426 126.176H276.563H264.863V137.873H276.563H287.426V126.176Z" fill="#F9A706"/>
<path d="M218.913 309.986H207.213V321.683H218.913V309.986Z" fill="#F9A706"/>
<path d="M506.325 367.623H494.639V379.32H506.325V367.623Z" fill="#F9A706"/>
<path d="M528.888 379.322H517.188V391.019H528.888V379.322Z" fill="#F9A706"/>
<path d="M506.339 45.9531H494.639H482.939H471.238H460.376H448.689H436.989H425.288H414.426V57.6502H402.726V69.3473H391.025V80.2094H379.339V69.3473H368.476V57.6502H356.776V45.9531H345.076H333.375H322.513H310.813H299.126H287.426H276.563H264.863H253.163H241.476H230.613V57.6502V69.3473V80.2094V91.9065V103.604V115.301H241.476V103.604H253.163H264.863H276.563V115.301H287.426V126.161H299.126V115.301H310.813H322.513H333.375V103.604H345.076H356.776H368.476V91.9065H379.339H391.025H402.726V80.2094H414.426H425.288H436.989V91.9065H448.689V103.604H460.376V115.301H471.238V126.161V137.858H482.939H494.639V149.556H506.339H517.202V137.858V126.161V115.301V103.604V91.9065V80.2094V69.3473V57.6502V45.9531H506.339Z" fill="#780078"/>
<path d="M264.863 241.465V253.162H276.563H287.426V241.465H276.563H264.863Z" fill="#780078"/>
<path d="M264.863 275.718V287.415H276.563H287.426V275.718H276.563H264.863Z" fill="#780078"/>
<path d="M471.238 241.465H460.376V253.162H471.238H482.939H494.639V241.465H482.939H471.238Z" fill="#780078"/>
<path d="M471.238 275.718H460.376H448.689H436.988V287.415H448.689H460.376H471.238H482.939H494.639V275.718H482.939H471.238Z" fill="#780078"/>
<path d="M391.025 241.465V253.162H402.726H414.426V241.465H402.726H391.025Z" fill="#780078"/>
<path d="M380.163 241.465H368.476V253.162H380.163V241.465Z" fill="#780078"/>
<path d="M356.776 379.322H345.076V391.019H356.776V379.322Z" fill="#FDD1FA"/>
<path d="M609.939 275.716H598.238V287.413H609.939V275.716Z" fill="#FDD1FA"/>
<path d="M103.6 391.022H91.9131V402.719H103.6V391.022Z" fill="#FDD1FA"/>
<path d="M414.425 91.9062H402.726V103.603H414.425V91.9062Z" fill="#FDD1FA"/>
<path d="M448.675 241.461H460.376V229.764H448.675H436.988H425.288V241.461H436.988H448.675Z" fill="#FDD1FA"/>
<path d="M299.126 241.461H310.813H322.513H333.376H345.076V229.764H333.376H322.513H310.813H299.126H287.426H276.563V241.461H287.426H299.126Z" fill="#FDD1FA"/>
<path d="M448.689 287.417H436.989H425.289H414.426H402.726H391.026H379.339H368.476H356.776H345.076H333.376H322.513H310.813H299.126H287.426H276.563V299.115H287.426H299.126H310.813H322.513H333.376H345.076H356.776H368.476H379.339H391.026H402.726H414.426H425.289H436.989H448.689H460.376H471.238V287.417H460.376H448.689Z" fill="#FDD1FA"/>
<path d="M448.689 253.165H436.989H425.289H414.426H402.726H391.026H379.339H368.476H356.776H345.076H333.376H322.513H310.813H299.126H287.426H276.563V264.026V275.723H287.426H299.126H310.813H322.513H333.376H345.076H356.776H368.476H379.339H391.026H402.726H414.426H425.289H436.989H448.689V264.026H460.376H471.238V253.165H460.376H448.689Z" fill="#FDD1FA"/>
<path d="M391.025 57.6539V45.9568V34.2599V23.3982V11.7012H379.326V23.3982V34.2599V45.9568V57.6539V69.3509H391.025V57.6539Z" fill="#FDD1FA"/>
<path d="M368.463 379.322H356.776V391.019H368.463V379.322Z" fill="#FF38EE"/>
<path d="M345.076 391.022H333.375V402.719H345.076V391.022Z" fill="#FF38EE"/>
<path d="M620.801 275.718H609.101V287.415H620.801V275.718Z" fill="#FF38EE"/>
<path d="M115.3 391.022H103.6V402.719H115.3V391.022Z" fill="#FF38EE"/>
<path d="M448.689 321.669H436.989H425.288H414.426H402.726H391.026H379.339H368.476H356.776H345.076H333.376H322.513V333.366H333.376H345.076H356.776H368.476H379.339H391.026H402.726H414.426H425.288H436.989H448.689H460.376H471.238V321.669H460.376H448.689Z" fill="#FF38EE"/>
<path d="M242.3 321.669H230.613V333.366H242.3V321.669Z" fill="#FF38EE"/>
<path d="M230.613 241.461V253.158V264.02V275.718V287.415V299.112H241.476V287.415V275.718V264.02V253.158V241.461V229.764H230.613V241.461Z" fill="#FF38EE"/>
<path d="M276.563 207.209H287.426H299.126H310.812H322.513H333.375H345.076H356.776V218.07H368.476V229.767H379.339V218.07V207.209H391.025H402.725H414.426H425.288H436.988H448.689H460.376H471.238V195.512H460.376H448.689H436.988H425.288H414.426H402.725H391.025H379.339H368.476H356.776H345.076H333.375H322.513H310.812H299.126H287.426H276.563H264.863H253.162H241.476H230.613V207.209H241.476H253.162H264.863H276.563Z" fill="#FF38EE"/>
<path d="M506.339 241.461V253.158V264.02V275.718V287.415V299.112H517.202V287.415V275.718V264.02V253.158V241.461V229.764H506.339V241.461Z" fill="#FF38EE"/>
<path d="M161.25 275.718V287.415H172.95H184.651V275.718H172.95H161.25Z" fill="#FF38EE"/>
<path d="M322.513 126.176H310.812V137.873H322.513V126.176Z" fill="#FF38EE"/>
<path d="M426.126 91.9062H414.426V103.603H426.126V91.9062Z" fill="#FF38EE"/>
<path d="M471.238 287.417V299.115H460.376H448.676H436.975H425.289H414.426H402.726H391.026H379.326H368.463H356.776H345.076H333.376H322.513H310.813H299.113H287.426H276.563V287.417H264.863V299.115V309.975H276.563H287.426H299.113H310.813H322.513H333.376H345.076H356.776H368.463H379.326H391.026H402.726H414.426H425.289H436.975H448.676H460.376H471.238H482.939H494.639V299.115V287.417H482.939H471.238Z" fill="#FF38EE"/>
<path d="M471.238 218.08H460.376H448.675H436.975H425.288H414.426V229.777H402.726V241.474H414.426H425.288V229.777H436.975H448.675H460.376V241.474H471.238H482.938H494.639V229.777V218.08H482.938H471.238Z" fill="#FF38EE"/>
<path d="M471.239 253.165V264.026H460.376H448.676V275.723H460.376H471.239H482.939H494.639V264.026V253.165H482.939H471.239Z" fill="#FF38EE"/>
<path d="M264.863 264.026V275.723H276.563V264.026V253.165H264.863V264.026Z" fill="#FF38EE"/>
<path d="M379.339 45.9604V34.263V23.4014H368.476V34.263V45.9604V57.6575H379.339V45.9604Z" fill="#FF38EE"/>
<path d="M402.727 45.9604V34.263V23.4014H391.025V34.263V45.9604V57.6575H402.727V45.9604Z" fill="#FF38EE"/>
<path d="M356.776 218.08H345.076H333.376H322.513H310.813H299.113H287.426H276.563H264.863V229.777V241.474H276.563V229.777H287.426H299.113H310.813H322.513H333.376H345.076V241.474H356.776H368.463V229.777H356.776V218.08Z" fill="#FF38EE"/>
<path d="M368.463 391.019H356.776H345.076V401.88H356.776H368.463H379.326V391.019V379.322H368.463V391.019Z" fill="#BA2CAC"/>
<path d="M620.801 287.417H609.101V299.115H620.801V287.417Z" fill="#BA2CAC"/>
<path d="M115.3 401.885H103.6H91.9131V413.582H103.6H115.3H127V401.885V391.022H115.3V401.885Z" fill="#BA2CAC"/>
<path d="M253.162 309.968V299.107V287.41V275.713V264.016V253.154V241.457V229.76V218.062H241.476H230.613V229.76H241.476V241.457V253.154V264.016V275.713V287.41V299.107H230.613V309.968H241.476H253.162Z" fill="#BA2CAC"/>
<path d="M241.463 321.669V333.366H253.163H264.863V321.669H253.163H241.463Z" fill="#BA2CAC"/>
<path d="M299.112 321.669V333.366H310.813H322.513V321.669H310.813H299.112Z" fill="#BA2CAC"/>
<path d="M506.339 321.669H494.639H482.939H471.238V333.366H482.939H494.639H506.339H517.202H528.888V321.669H517.202H506.339Z" fill="#BA2CAC"/>
<path d="M506.339 218.062V229.76H517.201V241.457V253.154V264.016V275.713V287.41V299.107H506.339V309.968H517.201H528.888V299.107V287.41V275.713V264.016V253.154V241.457V229.76V218.062H517.201H506.339Z" fill="#BA2CAC"/>
<path d="M506.339 195.512H494.639H482.939H471.238V207.209H482.939H494.639H506.339H517.202H528.888V195.512H517.202H506.339Z" fill="#BA2CAC"/>
<path d="M184.651 287.417H172.95V299.115H184.651V287.417Z" fill="#BA2CAC"/>
<path d="M425.288 115.304V103.607H414.426H402.726V115.304H414.426H425.288Z" fill="#BA2CAC"/>
<path d="M436.989 91.9062H425.288V103.603H436.989V91.9062Z" fill="#BA2CAC"/>
<path d="M436.989 241.464H425.288H414.426V253.161H425.288H436.989H448.689H460.376V241.464H448.689H436.989Z" fill="#BA2CAC"/>
<path d="M310.813 253.161H322.513H333.375H345.076H356.776H368.463V241.464H356.776H345.076H333.375H322.513H310.813H299.126H287.426V253.161H299.126H310.813Z" fill="#BA2CAC"/>
<path d="M414.426 275.716H402.726H391.026H379.325H368.463H356.776H345.076H333.376H322.513H310.813H299.126H287.426V287.413H299.126H310.813H322.513H333.376H345.076H356.776H368.463H379.325H391.026H402.726H414.426H425.289H436.989V275.716H425.289H414.426Z" fill="#BA2CAC"/>
<path d="M391.026 229.771H402.725V218.074H414.426V207.212H402.725H391.026V218.074H379.326V229.771V241.468H391.026V229.771Z" fill="#BA2CAC"/>
<path d="M391.025 241.464H379.326V253.161H391.025V241.464Z" fill="black"/>
<path d="M253.162 45.9604H264.863H276.563H287.425H299.126H310.812H322.512H333.375H345.075H356.775V57.6575H368.475V45.9604V34.263V23.4014H356.775V34.263H345.075H333.375H322.512H310.812H299.126H287.425H276.563H264.863H253.162H241.476H230.613V45.9604H241.476H253.162Z" fill="black"/>
<path d="M402.726 45.9604V57.6575H414.426V45.9604H425.288H436.989H448.689H460.376H471.238H482.938H494.639H506.339H517.201V34.263H506.339H494.639H482.938H471.238H460.376H448.689H436.989H425.288H414.426V23.4014H402.726V34.263V45.9604Z" fill="black"/>
<path d="M517.201 69.3473V80.2081V91.9051V103.602V115.299V126.161V137.858V149.556H506.339H494.639V161.253H506.339H517.201H528.888H540.588V149.556H528.888V137.858V126.161V115.299V103.602V91.9051V80.2081V69.3473V57.6502V45.9531H517.201V57.6502V69.3473Z" fill="black"/>
<path d="M207.213 183.818V172.121V161.26H195.513V172.121V183.818V195.515H207.213V183.818Z" fill="black"/>
<path d="M207.213 241.457V229.76V218.062H195.513V229.76V241.457V253.154H207.213V241.457Z" fill="black"/>
<path d="M184.65 287.413V299.111H195.513V287.413V275.716H184.65V287.413Z" fill="black"/>
<path d="M184.651 275.714V264.017H172.95H161.25V275.714H172.95H184.651Z" fill="black"/>
<path d="M184.651 299.118H172.95V310.815H184.651V299.118Z" fill="black"/>
<path d="M172.95 309.969H161.25V321.666H172.95V309.969Z" fill="black"/>
<path d="M172.95 333.366H161.25V321.669H149.563V333.366V345.064H161.25H172.95H184.65H195.513V333.366H184.65H172.95Z" fill="black"/>
<path d="M172.95 287.417H161.25V299.115H172.95V287.417Z" fill="black"/>
<path d="M149.563 287.413H161.263V275.716H149.563H137.863V287.413H149.563Z" fill="black"/>
<path d="M149.563 299.118H137.863V309.98H149.563H161.263V299.118H149.563Z" fill="black"/>
<path d="M115.3 309.969H103.6V321.666H115.3H127H137.863V309.969H127H115.3Z" fill="black"/>
<path d="M127 299.108V287.411V275.714H137.863V264.017H127H115.3V275.714V287.411H103.6V299.108H115.3H127Z" fill="black"/>
<path d="M91.9132 299.118H81.0508V309.98H91.9132H103.613V299.118H91.9132Z" fill="black"/>
<path d="M81.0509 299.115V287.417H69.3506H57.6504V299.115H69.3506H81.0509Z" fill="black"/>
<path d="M57.6499 309.98V299.118H45.9497V309.98V321.677H57.6499H69.3502H81.0505V309.98H69.3502H57.6499Z" fill="black"/>
<path d="M195.513 195.512H184.65V207.209V218.07H195.513V207.209V195.512Z" fill="black"/>
<path d="M655.888 345.066H644.202H632.501V333.369H620.801V345.066V355.928H632.501H644.202H655.888H666.751V345.066H655.888Z" fill="black"/>
<path d="M690.151 367.619V355.922H678.451H666.751V367.619H678.451H690.151Z" fill="black"/>
<path d="M678.451 379.319H666.751V367.622H655.889V379.319V391.016H666.751H678.451H690.152H701.852V379.319H690.152H678.451Z" fill="black"/>
<path d="M712.715 355.931V345.07H701.852H690.151V355.931H701.852H712.715Z" fill="black"/>
<path d="M632.501 333.363H644.202H655.902H666.764V345.06H678.451V333.363V321.666H666.764H655.902H644.202V309.969H632.501V321.666V333.363Z" fill="black"/>
<path d="M253.163 355.922H241.463V367.619H253.163V355.922Z" fill="black"/>
<path d="M242.3 367.622H230.613V379.319H242.3V367.622Z" fill="black"/>
<path d="M241.463 379.322V391.019H253.163H264.863V379.322H253.163H241.463Z" fill="black"/>
<path d="M276.563 367.622H264.863V379.319H276.563H287.426H299.126V367.622H287.426H276.563Z" fill="black"/>
<path d="M310.812 355.922H299.112V367.619H310.812V355.922Z" fill="black"/>
<path d="M322.513 355.922V367.619H333.376H345.076V355.922H333.376H322.513Z" fill="black"/>
<path d="M356.776 379.319H368.463H379.326V367.622H368.463H356.776H345.076V379.319H356.776Z" fill="black"/>
<path d="M345.076 379.322H333.375V391.019H345.076V379.322Z" fill="black"/>
<path d="M379.326 401.88H391.025V391.019V379.322H379.326V391.019V401.88Z" fill="black"/>
<path d="M356.776 401.885H345.076H333.376V391.022H322.513V401.885V413.582H333.376H345.076H356.776H368.476H379.339V401.885H368.476H356.776Z" fill="black"/>
<path d="M552.289 321.672H540.588V309.975V298.278V286.581V274.884V263.187V251.49V239.793V228.096V218.07V206.373V194.676V182.979H528.888H517.188H505.501H493.801H482.101H470.401H460.376H448.675H436.989H425.288H413.588H401.888H390.188H378.501H368.463H356.776H345.076H333.376H321.675H309.975H298.288H286.588H276.563H264.863H253.163H241.463H229.776H218.076V194.676V206.373V218.07V229.767V241.464V253.161V264.858V276.555V288.252V299.949V309.975V321.672H206.375H194.675V333.369H206.375H218.076V345.066H229.776V356.763H241.463V345.066H253.163H264.863V333.369H253.163H241.463H229.776V321.672H241.463H253.163H264.863V333.369H276.563H288.264H299.95V321.672H311.65H323.351H335.051H346.751H358.438H368.463H380.163H391.863H403.563H415.264H426.95H438.651H450.351H460.376H472.076H483.776H495.476H507.163H518.863H530.564V333.369H518.863H507.163H495.476H483.776H472.076H460.376H448.675H436.989H425.288H413.588H401.888H390.188H378.501H368.463H356.776H345.076H333.376H321.675H309.975H298.288V345.066H309.975V356.763H321.675V345.066H333.376H345.076V356.763H356.776V345.066H368.463H380.163H391.863H403.563H415.264H426.95H438.651H450.351H460.376H472.076H483.776H495.476H507.163H518.863H530.564H542.264V333.369H552.289H563.989V321.672H552.289ZM241.463 309.975H229.776V298.278V286.581V274.884V263.187V251.49V239.793V228.096V218.07H241.463H253.163V229.767V241.464V253.161V264.858V276.555V288.252V299.949V309.975H241.463ZM482.939 309.975H471.238H460.376H448.675H436.989H425.288H413.588H401.888H390.188H378.501H368.463H356.776H345.076H333.376H321.675H309.975H298.288H286.588H276.563H264.863V298.278V286.581V274.884V263.187V251.49V239.793V228.096V218.07H276.563H288.264H299.95H311.65H323.351H335.051H346.751H358.438V206.373H346.751H335.051H323.351H311.65H299.95H288.264H276.563H264.863H253.163H241.463H229.776V194.676H241.463H253.163H264.863H276.563H288.264H299.95H311.65H323.351H335.051H346.751H358.438H368.463H380.163H391.863H403.563H415.264H426.95H438.651H450.351H460.376H472.076H483.776H495.476H507.163H518.863H530.564V206.373H518.863H507.163H495.476H483.776H472.076H460.376H448.675H436.989H425.288H413.588V218.07H425.288H436.989H448.675H460.376H472.076H483.776H495.476V229.767V241.464V253.161V264.858V276.555V288.252V299.949V309.975H482.939ZM517.188 309.975H505.501V298.278V286.581V274.884V263.187V251.49V239.793V228.096V218.07H517.188H528.888V229.767V241.464V253.161V264.858V276.555V288.252V299.949V309.975H517.188Z" fill="black"/>
<path d="M609.101 321.669H598.238V333.366H609.101H620.801V321.669H609.101Z" fill="black"/>
<path d="M712.714 355.922V367.619H701.852V379.316H712.714H724.414V367.619V355.922H712.714Z" fill="black"/>
<path d="M620.801 275.714V287.411V299.108H609.101V309.969H620.801H632.501V299.108V287.411V275.714V264.017H620.801H609.101H598.238V275.714H609.101H620.801Z" fill="black"/>
<path d="M586.538 299.111H598.238H609.101V287.413H598.238V275.716H586.538V287.413H574.852V299.111H586.538Z" fill="black"/>
<path d="M574.852 299.118H563.151V310.815H574.852V299.118Z" fill="black"/>
<path d="M563.989 287.417H552.289V299.115H563.989V287.417Z" fill="black"/>
<path d="M586.538 253.165H574.852V264.862H586.538V253.165Z" fill="black"/>
<path d="M563.151 275.714V287.411H574.852V275.714V264.017H563.151V275.714Z" fill="black"/>
<path d="M574.852 241.464H563.151V253.161H574.852V241.464Z" fill="black"/>
<path d="M574.852 333.369H563.151V345.066H574.852H586.538H598.239V333.369H586.538H574.852Z" fill="black"/>
<path d="M137.863 355.931H127H115.3V345.07H103.6V355.931V367.628H115.3H127H137.863H149.563V355.931V345.07H137.863V355.931Z" fill="black"/>
<path d="M137.863 345.066V333.369H127H115.3V345.066H127H137.863Z" fill="black"/>
<path d="M127 401.885V413.582H137.863V401.885V391.022H127V401.885Z" fill="black"/>
<path d="M91.9132 391.022H81.0508V401.885V413.582H91.9132V401.885V391.022Z" fill="black"/>
<path d="M115.3 391.019H127V379.322H115.3H103.6H91.9131V391.019H103.6H115.3Z" fill="black"/>
<path d="M103.6 413.575H91.9131V425.272H103.6H115.3H127V413.575H115.3H103.6Z" fill="black"/>
<path d="M368.476 218.062H356.776V229.76H368.476V218.062Z" fill="black"/>
<path d="M414.425 218.062H402.726V229.76H414.425V218.062Z" fill="black"/>
<path d="M528.888 367.622H517.202V379.319H528.888V367.622Z" fill="black"/>
<path d="M540.589 391.019H552.289V379.322H540.589H528.888V391.019H540.589Z" fill="black"/>
<path d="M528.889 401.885V391.022H517.202V401.885V413.582H528.889H540.589H552.289V401.885H540.589H528.889Z" fill="black"/>
<path d="M563.989 391.022H552.289V402.719H563.989V391.022Z" fill="black"/>
<path d="M460.376 367.619H471.238H482.938H494.639H506.325H517.188V355.922H506.325H494.639H482.938H471.238H460.376H448.675H436.988V367.619V379.316H448.675V367.619H460.376Z" fill="black"/>
<path d="M506.339 379.322H494.639H482.939H471.238H460.376H448.689V391.019H460.376H471.238H482.939H494.639H506.339H517.202V379.322H506.339Z" fill="black"/>
<path d="M380.163 229.764H368.476V241.461H380.163V229.764Z" fill="black"/>
<path d="M391.025 207.212H379.326V218.909H391.025V207.212Z" fill="black"/>
<path d="M402.727 229.764H391.025V241.461H402.727V229.764Z" fill="black"/>
<path d="M552.289 161.26H540.588V172.957H552.289V161.26Z" fill="black"/>
<path d="M552.289 195.505V207.203V218.063V229.76V241.457H563.151V229.76V218.063V207.203V195.505V183.808V172.111H552.289V183.808V195.505Z" fill="black"/>
<path d="M482.939 137.858H471.238V149.555H482.939H494.639V137.858H482.939Z" fill="black"/>
<path d="M448.689 103.603V91.9062H436.988V103.603H425.288V115.3H414.426H402.726V126.163H414.426H425.288H436.988V115.3H448.689H460.375V103.603H448.689Z" fill="black"/>
<path d="M402.726 91.9062H391.026H379.339H368.476V103.603H379.339H391.026V115.3H402.726V103.603V91.9062Z" fill="black"/>
<path d="M425.288 91.9031H436.988V80.2061H425.288H414.426H402.726V91.9031H414.426H425.288Z" fill="black"/>
<path d="M345.076 103.607H333.375V115.304H345.076H356.776H368.463V103.607H356.776H345.076Z" fill="black"/>
<path d="M322.513 137.858H310.826V149.555H322.513V137.858Z" fill="black"/>
<path d="M288.264 115.307H276.563V127.004H288.264V115.307Z" fill="black"/>
<path d="M310.813 115.307H299.126V126.169H287.426V137.866H299.126H310.813V126.169H322.513V137.866H333.375V126.169V115.307H322.513H310.813Z" fill="black"/>
<path d="M264.863 103.607H253.163H241.463V115.304H253.163H264.863H276.563V103.607H264.863Z" fill="black"/>
<path d="M241.476 126.161V115.299H230.613V103.602V91.9051V80.2081V69.3473V57.6502V45.9531H218.913V57.6502V69.3473V80.2081V91.9051V103.602V115.299V126.161H230.613H241.476Z" fill="black"/>
<path d="M218.913 126.158H207.213V137.855H218.913V126.158Z" fill="black"/>
<path d="M207.213 137.858H195.513V149.555H207.213V137.858Z" fill="black"/>
<path d="M196.35 149.559H184.65V161.256H196.35V149.559Z" fill="black"/>
<path d="M207.213 264.017H195.513V275.714H207.213V264.017Z" fill="black"/>
<path d="M196.35 253.165H184.65V264.862H196.35V253.165Z" fill="black"/>
<path d="M471.238 115.307H460.376V126.169V137.866H471.238V126.169V115.307Z" fill="black"/>
<path d="M380.163 11.7012H368.476V23.3982H380.163V11.7012Z" fill="black"/>
<path d="M391.025 0H379.326V11.6971H391.025V0Z" fill="black"/>
<path d="M402.727 11.7012H391.025V23.3982H402.727V11.7012Z" fill="black"/>
<path d="M380.163 57.6523H368.476V69.3494H380.163V57.6523Z" fill="black"/>
<path d="M402.727 57.6523H391.025V69.3494H402.727V57.6523Z" fill="black"/>
<path d="M391.025 69.3545H379.326V81.0516H391.025V69.3545Z" fill="black"/>
</svg>
