<svg width="477" height="477" viewBox="0 0 477 477" fill="none" xmlns="http://www.w3.org/2000/svg">
<path d="M467.902 142.036V133.68H459.538V125.325H451.189V116.97H401.051V125.325H392.701V133.68H384.338V142.036H375.988V192.165H384.338V200.521H392.701V208.876H401.051V217.23H451.189V208.876H459.538V200.521H467.902V192.165H476.251V142.036H467.902Z" fill="#FA34F3"/>
<path d="M375.988 167.102V183.811H476.251V167.102H375.988Z" fill="#AC15F9"/>
<path d="M375.988 150.391V167.1H476.251V150.391H375.988Z" fill="#CF15F9"/>
<path d="M375.988 183.811V192.165H384.338V200.521H467.888V192.165H476.251V183.811H375.988Z" fill="#8F17F9"/>
<path d="M392.701 200.521V208.876H401.051V217.231H451.188V208.876H459.538V200.521H392.701Z" fill="#7E18F8"/>
<path d="M441.988 173.794H445.338V168.782H441.988V173.794Z" fill="white"/>
<path d="M429.463 173.79V177.969H436.975V181.31H440.326V177.969H441.988V173.79H429.463ZM432.8 168.778H441.988V165.436H432.8V168.778Z" fill="white"/>
<path d="M429.463 160.426V165.439H432.8V160.426H429.463Z" fill="white"/>
<path d="M440.326 156.246V152.904H436.975V156.246H432.801V160.424H445.339V156.246H440.326ZM456.201 177.969H459.538V160.424H467.063V156.246H449.513V160.424H456.201V177.969ZM422.776 156.246V165.436H413.589V156.246H410.238V177.969H413.589V168.778H422.776V177.969H426.113V156.246H422.776ZM392.701 156.246V160.424H406.901V156.246H392.701ZM406.901 173.792V165.436H396.038V168.778H402.726V173.792H406.901Z" fill="white"/>
<path d="M392.701 177.969H402.726V173.792H392.701V177.969Z" fill="white"/>
<path d="M389.351 160.426V173.794H392.701V160.426H389.351Z" fill="white"/>
<path opacity="0.25" d="M309.138 459.528H100.263V467.883H108.612V476.238H309.138V467.883H317.5V459.528H309.138Z" fill="black"/>
<path d="M334.213 91.9057V75.1957H317.501V58.4856H284.075V41.7756H250.65V25.0654H167.1V41.7756H133.675V58.4856H100.263V75.1957H83.55V91.9057H66.8374V434.462H100.263V417.753H142.038V434.462H183.813V417.753H233.951V434.462H275.726V417.753H317.501V434.462H350.926V91.9057H334.213Z" fill="#FF3085"/>
<path d="M317.501 91.9057V75.1955H284.076V58.4854H250.65V41.7754H167.1V58.4854H133.675V75.1955H100.263V91.9057H83.5503V417.752H100.263V401.042H142.038V417.752H183.813V401.042H233.951V417.752H275.726V401.042H317.501V417.752H334.214V91.9057H317.501Z" fill="#FFCAE3"/>
<path d="M91.8999 384.332H108.612V375.977H125.325V384.332H142.038V401.043H183.813V384.332H200.526V375.977H217.238V384.332H233.951V401.043H275.726V384.332H292.438V375.977H309.138V384.332H317.501V91.9056H284.076V75.1954H250.65V58.4854H208.875V50.1304H167.1V66.8404H133.675V83.5505H100.263V100.261H91.8999V384.332Z" fill="white"/>
<path d="M133.675 208.876V225.587H167.1V208.876H183.813V175.456H167.1V158.746H133.675V175.456H116.976V208.876H133.675ZM233.951 175.456V208.876H250.65V225.587H284.076V208.876H300.788V175.456H284.076V158.746H250.65V175.456H233.951Z" fill="#FF3085"/>
<path d="M116.976 242.296V259.006H133.675V242.296H116.976ZM284.076 242.296V259.006H300.788V242.296H284.076Z" fill="#F696C6"/>
<path d="M183.812 242.296H167.1V259.007H183.812V242.296Z" fill="#FF3085"/>
<path d="M183.812 259.007V275.716H233.951V259.007H183.812Z" fill="#FF3085"/>
<path d="M233.951 242.296V259.006H250.65V242.296H233.951Z" fill="#FF3085"/>
<path d="M225.588 75.1954V66.8403H217.238V58.4854H208.875V50.1303H200.525V41.7752H192.162V33.4201H183.812V25.0651H175.463V16.7101H167.1V8.35504H158.75V0H150.387V25.0651H158.75V41.7752H167.1V66.8403H175.463V91.9055H183.812V108.616H225.588V100.261H233.951V75.1954H225.588Z" fill="#FF3085"/>
<path d="M192.162 50.1305V41.7754H183.813V50.1305H175.463V66.8405H183.813V75.1955H200.526V50.1305H192.162Z" fill="#FFC2DB"/>
<path d="M175.463 33.4205V25.0654H167.1V41.7756H183.812V33.4205H175.463Z" fill="#FFDEEC"/>
<path d="M158.75 16.71H167.1V25.065H158.75V16.71Z" fill="white"/>
<path d="M217.238 83.5505V66.8403H208.875V75.1954H200.525V83.5505H183.812V91.9055H192.162V100.261H225.588V83.5505H217.238Z" fill="#FF88B8"/>
<path d="M359.276 250.651V242.296H375.989V233.941H409.414V242.296H417.764V275.716H409.414V284.072H392.701V292.427H375.989V300.781H367.625V309.136H359.276V317.492H350.926V250.651H359.276Z" fill="#FF3085"/>
<path d="M359.276 259.006V250.651H375.988V242.296H409.414V275.716H392.701V284.071H375.988V292.427H367.625V300.782H359.276V309.136H350.926V259.006H359.276Z" fill="#FFCAE3"/>
<path d="M375.988 242.296V250.651H359.276V259.006H350.926V300.782H359.276V292.427H367.625V284.071H375.988V275.716H392.701V267.362H409.414V242.296H375.988Z" fill="white"/>
<path d="M8.3497 292.426V284.07H25.0623V275.716H41.7751V267.361H50.1246V259.006H58.4877V250.65H66.8374V317.492H58.4877V325.846H41.7751V334.201H8.3497V325.846H0V292.426H8.3497Z" fill="#FF3085"/>
<path d="M25.0626 292.427V284.072H41.7754V275.716H50.1248V267.361H58.488V259.007H66.8376V309.136H58.488V317.492H41.7754V325.847H8.3501V292.427H25.0626Z" fill="#FFCAE3"/>
<path d="M8.3501 292.427V317.492H41.7754V309.136H58.488V300.782H66.8376V259.007H58.488V267.362H50.1248V275.716H41.7754V284.072H25.0626V292.427H8.3501Z" fill="white"/>
</svg>
