<svg xmlns="http://www.w3.org/2000/svg" viewBox="0 0 64 64" xmlns:v="https://vecta.io/nano"><g fill="#64438e"><path d="M29 17v-2h-1v4h1v-1z"/><path d="M29 14h1v1h-1zm0 5h1v1h-1z"/><path d="M30 20h1v1h-1z"/><path d="M31 21v1h2v-1h-1zm-1-8h1v1h-1zm4 6h1v1h-1zm0-5h1v1h-1z"/><path d="M33 13v-1h-2v1h1zm0 7h1v1h-1z"/><path d="M33 13h1v1h-1zm2 2v4h1v-4z"/></g><path d="M34 17h-2v4h1v-1h1v-1h1v-2z" fill="#c260ff"/><g fill="#dea8ff"><path d="M30 17h-1v2h1v1h1v1h1v-4h-1z"/><path d="M34 15v-1h-1v-1h-1v4h3v-2z"/></g><path d="M31 17h1v-4h-1v1h-1v1h-1v2h1z" fill="#edd3fd"/></svg>