<svg xmlns="http://www.w3.org/2000/svg" viewBox="0 0 64 64" xmlns:v="https://vecta.io/nano"><g fill="#64438e"><path d="M14 28h1v1h-1z"/><path d="M13 27h-1v1h2v-1zm0 7h1v1h-1z"/><path d="M14 35h1v1h-1zm-2-2h1v1h-1zm-5-5v3h1v-4H7z"/><path d="M9 32h1v-1H8v1z"/><path d="M11 33h1v-1h-2v1zm0-7H8v1h4v-1zm38 14h1v1h-1zm1-6h1v1h-1z"/><path d="M49 33h1v1h-1zm2 2h1v1h-1zm5 3v4h1v-4zm-5 3h-1v1h2v-1z"/><path d="M54 42h-2v1h4v-1h-1zm1-5h-1v1h2v-1z"/><path d="M53 36h-1v1h2v-1z"/></g><g fill="#edd3fd"><path d="M13 33h1v1h-1z"/><path d="M14 34h1v1h-1zm-2-2h1v1h-1z"/><path d="M11 31h-1v1h2v-1z"/><path d="M9 30H8v1h2v-1zm40 9h1v1h-1z"/><path d="M51 40h-1v1h2v-1z"/><path d="M55 41h-3v1h4v-1z"/></g><path d="M14 28h-2v-1H8v3h2v1h2v1h1v1h1v1h1v-5h-1zm41 10h-1v-1h-2v-1h-1v-1h-1v-1h-1v5h1v1h2v1h4v-3z" fill="#fff"/></svg>