<svg xmlns="http://www.w3.org/2000/svg" viewBox="0 0 64 64" xmlns:v="https://vecta.io/nano"><g fill="#64438e"><path d="M14 40h1v1h-1z"/><path d="M14 42v-1h-2v1h1zm-1-8h1v1h-1z"/><path d="M14 33h1v1h-1zm-2 2h1v1h-1zm-3 8h3v-1H8v1zm-1-6v1h2v-1H9z"/><path d="M10 36v1h2v-1h-1zm-3 3v3h1v-4H7zm42 1h1v1h-1zm1-6h1v1h-1z"/><path d="M49 33h1v1h-1zm2 2h1v1h-1zm5 3v4h1v-4zm-5 3h-1v1h2v-1z"/><path d="M54 42h-2v1h4v-1h-1zm1-5h-1v1h2v-1z"/><path d="M53 36h-1v1h2v-1z"/></g><g fill="#edd3fd"><path d="M14 39h1v1h-1z"/><path d="M12 40v1h2v-1h-1z"/><path d="M10 41H8v1h4v-1h-1zm39-2h1v1h-1z"/><path d="M51 40h-1v1h2v-1z"/><path d="M55 41h-3v1h4v-1z"/></g><path d="M14 35h-1v1h-1v1h-2v1H8v3h4v-1h2v-1h1v-5h-1zm41 3h-1v-1h-2v-1h-1v-1h-1v-1h-1v5h1v1h2v1h4v-3z" fill="#fff"/></svg>