<svg xmlns="http://www.w3.org/2000/svg" viewBox="0 0 64 64" xmlns:v="https://vecta.io/nano"><g fill="#edd3fd"><path d="M50 33h1v1h-1z"/><path d="M49 34h1v1h-1zm2-2h1v1h-1z"/><path d="M52 31v1h2v-1h-1z"/><path d="M55 30h-1v1h2v-1z"/></g><path d="M55 27h-3v1h-2v1h-1v5h1v-1h1v-1h1v-1h2v-1h2v-3z" fill="#fff"/><g fill="#64438e"><path d="M49 28h1v1h-1z"/><path d="M50 27v1h2v-1h-1zm0 7h1v1h-1z"/><path d="M49 35h1v1h-1zm2-2h1v1h-1z"/><path d="M52 32v1h2v-1h-1zm3-6h-3v1h4v-1z"/><path d="M56 27v4h1v-4z"/><path d="M54 31v1h2v-1h-1zm-40 9h1v1h-1z"/><path d="M14 42v-1h-2v1h1zm-1-8h1v1h-1z"/><path d="M14 33h1v1h-1zm-2 2h1v1h-1zm-3 8h3v-1H8v1zm-1-6v1h2v-1H9z"/><path d="M10 36v1h2v-1h-1zm-3 3v3h1v-4H7z"/></g><g fill="#edd3fd"><path d="M14 39h1v1h-1z"/><path d="M12 40v1h2v-1h-1z"/><path d="M10 41H8v1h4v-1h-1z"/></g><path d="M14 35h-1v1h-1v1h-2v1H8v3h4v-1h2v-1h1v-5h-1z" fill="#fff"/></svg>