<svg xmlns="http://www.w3.org/2000/svg" viewBox="0 0 40 19"  xmlns:v="https://vecta.io/nano"><g fill="#a73796"><path d="M34 1v1h-1v1h-1v1h-1v1h-1v1h-1v1h-2v1h-2v1h-3v2h1v1h1v6h12V1h-2zM17 11h1V9h-3V8h-2V7h-2V6h-1V5H9V4H8V3H7V2H6V1H4v17h12v-6h1v-1zm2 4v1h2v-1h-2zm0 2v1h2v-1h-2zm-2 0h1v1h-1v-1zm5 0h1v1h-1v-1z"/><path d="M18 12h1v1h-1v-1zm3 0h1v1h-1v-1zm0 2h1v1h-1v-1zm-3 0h1v1h-1v-1z"/></g><path d="M23 12v-1h-1v-1h-4v1h-1v1h-1v6h1v-1h1v1h1v-1h2v1h1v-1h1v1h1v-6h-1zm-1 1h-1v-1h1v1zm-3-1v1h-1v-1h1zm0 4v-1h-1v-1h1v1h2v-1h1v1h-1v1h-2z" fill="#fff"/><g fill="#7d0064"><path d="M6 1h1v1H6V1zm2 2h1v1H8V3z"/><path d="M7 2h1v1H7V2zm3 3h1v1h-1V5z"/><path d="M9 4h1v1H9V4zm6 4V7h-2v1h2z"/><path d="M13 7V6h-2v1h2zm20-6h1v1h-1V1zm-2 2h1v1h-1V3z"/><path d="M32 2h1v1h-1V2zm-3 3h1v1h-1V5z"/><path d="M30 4h1v1h-1V4zm-3 4V7h-2v1h2z"/><path d="M29 7V6h-2v1h2zm-7 3V9h-4v1h4z"/><path d="M18 9V8h-3v1h3zm7 0V8h-3v1h3zM3 19h34V0h-3v1h2v17H4V1h2V0H3v19z"/></g><path d="M3,2H2v1H1v6h1V8h1V2z" fill="#a73796"/><g fill="#7d0064"><path d="M1,3H0v7h2V9H1V3z"/><path d="M1 2h1v1H1V2zm2 6H2v1h1V8z"/><path d="M3,1H2v1h1V1z"/></g><path d="M37,8h1v1h1V3h-1V2h-1V8z" fill="#a73796"/><g fill="#7d0064"><path d="M39,9h-1v1h2V3h-1V9z"/><path d="M39 3h-1V2h1v1zm-2 6h1V8h-1v1z"/><path d="M37,2h1V1h-1V2z"/></g></svg>