<svg xmlns="http://www.w3.org/2000/svg" viewBox="0 0 50 24"  xmlns:v="https://vecta.io/nano"><g fill="#0f5a87"><path d="M42 6h-2v16h-2v2h4zM12 20h5v2h-5z"/><path d="M33 20h5v2h-5zm-16 2h5v2h-5z"/><path d="M22 20h6v2h-6z"/><path d="M28 22h5v2h-5zM8 24h4v-2h-2V6H8z"/></g><g fill="#0fa9c9"><path d="M10 22h2v-2h5v-2h5v2h6v-2h5v2h5v2h2v-6H10zM42 3h-4v2h-2v2h-6v2h-4v1h1v1h1v1h-1v2h13V6h2z"/><path d="M24 10h2v1h-2zm0 2h2v2h-2z"/><path d="M8 6h2v8h13v-2h-1v-1h1v-1h1V9h-4V7h-6V5h-2V3H8z"/></g><g fill="#fff"><path d="M38 14h2v2h-2zm-11-4h-1v1h-2v-1h-1v1h-1v1h1v2h-1v2h2v-4h2v4h2v-2h-1v-2h1v-1h-1zm-17 4h2v2h-2zm4 0h2v2h-2z"/><path d="M18 14h2v2h-2zm12 0h2v2h-2zm4 0h2v2h-2zM24 9h2v1h-2z"/></g><path d="M24 14v2h2v-2h-2zm-4 0v2h2v-2h-2zm-8 0v2h2v-2h-2zm20 0v2h2v-2h-2zm4 0v2h2v-2h-2zm-8 4v4h5v-4h-5zm-11 0v4h5v-4h-5zm1-2v-2h-2v2h2zm12 0v-2h-2v2h2z" fill="#a73796"/><g fill="#0f5a87"><path d="M43 3h1v1h-1z"/><path d="M42 2h1v1h-1zm2 2h1v1h-1z"/><path d="M45 5h2v1h-2zm-3 5h1V9h-1z"/><path d="M45 11h4v1h-4zm2-5h2v1h-2z"/><path d="M43 10h2v1h-2zm6-3h1v4h-1z"/></g><path d="M42 9h1v1h2V5h-1V4h-1V3h-1z" fill="#0fa9c9"/><path d="M47 7V6h-2v5h4V7z" fill="#a73796"/><g fill="#0f5a87"><path d="M6 3h1v1H6z"/><path d="M7 2h1v1H7zM5 4h1v1H5z"/><path d="M3 5h2v1H3z"/><path d="M1 6h2v1H1zm0 5h4v1H1z"/><path d="M0 7h1v4H0zm5 3h2v1H5z"/><path d="M8 9H7v1h1z"/></g><path d="M8 3H7v1H6v1H5v5h2V9h1z" fill="#0fa9c9"/><path d="M3 6v1H1v4h4V6H3z" fill="#a73796"/></svg>